%TF.GenerationSoftware,KiCad,Pcbnew,(7.0.0)*%
%TF.CreationDate,2023-02-23T19:51:54-08:00*%
%TF.ProjectId,4k-mania-keypad,346b2d6d-616e-4696-912d-6b6579706164,rev?*%
%TF.SameCoordinates,PX5ac6868PY7028288*%
%TF.FileFunction,Copper,L1,Top*%
%TF.FilePolarity,Positive*%
%FSLAX46Y46*%
G04 Gerber Fmt 4.6, Leading zero omitted, Abs format (unit mm)*
G04 Created by KiCad (PCBNEW (7.0.0)) date 2023-02-23 19:51:54*
%MOMM*%
%LPD*%
G01*
G04 APERTURE LIST*
G04 Aperture macros list*
%AMRoundRect*
0 Rectangle with rounded corners*
0 $1 Rounding radius*
0 $2 $3 $4 $5 $6 $7 $8 $9 X,Y pos of 4 corners*
0 Add a 4 corners polygon primitive as box body*
4,1,4,$2,$3,$4,$5,$6,$7,$8,$9,$2,$3,0*
0 Add four circle primitives for the rounded corners*
1,1,$1+$1,$2,$3*
1,1,$1+$1,$4,$5*
1,1,$1+$1,$6,$7*
1,1,$1+$1,$8,$9*
0 Add four rect primitives between the rounded corners*
20,1,$1+$1,$2,$3,$4,$5,0*
20,1,$1+$1,$4,$5,$6,$7,0*
20,1,$1+$1,$6,$7,$8,$9,0*
20,1,$1+$1,$8,$9,$2,$3,0*%
G04 Aperture macros list end*
%TA.AperFunction,SMDPad,CuDef*%
%ADD10RoundRect,0.135000X-0.185000X0.135000X-0.185000X-0.135000X0.185000X-0.135000X0.185000X0.135000X0*%
%TD*%
%TA.AperFunction,SMDPad,CuDef*%
%ADD11RoundRect,0.150000X-0.150000X-0.275000X0.150000X-0.275000X0.150000X0.275000X-0.150000X0.275000X0*%
%TD*%
%TA.AperFunction,SMDPad,CuDef*%
%ADD12RoundRect,0.175000X-0.175000X-0.225000X0.175000X-0.225000X0.175000X0.225000X-0.175000X0.225000X0*%
%TD*%
%TA.AperFunction,SMDPad,CuDef*%
%ADD13RoundRect,0.135000X0.185000X-0.135000X0.185000X0.135000X-0.185000X0.135000X-0.185000X-0.135000X0*%
%TD*%
%TA.AperFunction,SMDPad,CuDef*%
%ADD14RoundRect,0.140000X0.170000X-0.140000X0.170000X0.140000X-0.170000X0.140000X-0.170000X-0.140000X0*%
%TD*%
%TA.AperFunction,SMDPad,CuDef*%
%ADD15RoundRect,0.140000X0.140000X0.170000X-0.140000X0.170000X-0.140000X-0.170000X0.140000X-0.170000X0*%
%TD*%
%TA.AperFunction,ComponentPad*%
%ADD16R,2.000000X2.000000*%
%TD*%
%TA.AperFunction,ComponentPad*%
%ADD17C,2.000000*%
%TD*%
%TA.AperFunction,ComponentPad*%
%ADD18R,3.200000X2.000000*%
%TD*%
%TA.AperFunction,SMDPad,CuDef*%
%ADD19RoundRect,0.140000X-0.170000X0.140000X-0.170000X-0.140000X0.170000X-0.140000X0.170000X0.140000X0*%
%TD*%
%TA.AperFunction,SMDPad,CuDef*%
%ADD20RoundRect,0.140000X-0.140000X-0.170000X0.140000X-0.170000X0.140000X0.170000X-0.140000X0.170000X0*%
%TD*%
%TA.AperFunction,SMDPad,CuDef*%
%ADD21RoundRect,0.050000X0.050000X-0.387500X0.050000X0.387500X-0.050000X0.387500X-0.050000X-0.387500X0*%
%TD*%
%TA.AperFunction,SMDPad,CuDef*%
%ADD22RoundRect,0.050000X0.387500X-0.050000X0.387500X0.050000X-0.387500X0.050000X-0.387500X-0.050000X0*%
%TD*%
%TA.AperFunction,ComponentPad*%
%ADD23C,0.600000*%
%TD*%
%TA.AperFunction,SMDPad,CuDef*%
%ADD24RoundRect,0.144000X1.456000X-1.456000X1.456000X1.456000X-1.456000X1.456000X-1.456000X-1.456000X0*%
%TD*%
%TA.AperFunction,SMDPad,CuDef*%
%ADD25RoundRect,0.150000X0.475000X0.150000X-0.475000X0.150000X-0.475000X-0.150000X0.475000X-0.150000X0*%
%TD*%
%TA.AperFunction,SMDPad,CuDef*%
%ADD26RoundRect,0.147500X0.147500X0.172500X-0.147500X0.172500X-0.147500X-0.172500X0.147500X-0.172500X0*%
%TD*%
%TA.AperFunction,SMDPad,CuDef*%
%ADD27RoundRect,0.150000X0.150000X-0.650000X0.150000X0.650000X-0.150000X0.650000X-0.150000X-0.650000X0*%
%TD*%
%TA.AperFunction,SMDPad,CuDef*%
%ADD28R,1.800000X1.100000*%
%TD*%
%TA.AperFunction,SMDPad,CuDef*%
%ADD29RoundRect,0.150000X-0.512500X-0.150000X0.512500X-0.150000X0.512500X0.150000X-0.512500X0.150000X0*%
%TD*%
%TA.AperFunction,SMDPad,CuDef*%
%ADD30R,0.540000X1.100000*%
%TD*%
%TA.AperFunction,SMDPad,CuDef*%
%ADD31R,0.300000X1.100000*%
%TD*%
%TA.AperFunction,ComponentPad*%
%ADD32O,1.200000X2.250000*%
%TD*%
%TA.AperFunction,SMDPad,CuDef*%
%ADD33RoundRect,0.135000X0.135000X0.185000X-0.135000X0.185000X-0.135000X-0.185000X0.135000X-0.185000X0*%
%TD*%
%TA.AperFunction,SMDPad,CuDef*%
%ADD34RoundRect,0.147500X-0.147500X-0.172500X0.147500X-0.172500X0.147500X0.172500X-0.147500X0.172500X0*%
%TD*%
%TA.AperFunction,SMDPad,CuDef*%
%ADD35RoundRect,0.250000X-0.625000X0.375000X-0.625000X-0.375000X0.625000X-0.375000X0.625000X0.375000X0*%
%TD*%
%TA.AperFunction,SMDPad,CuDef*%
%ADD36R,1.400000X1.200000*%
%TD*%
%TA.AperFunction,ComponentPad*%
%ADD37C,3.300000*%
%TD*%
%TA.AperFunction,ViaPad*%
%ADD38C,0.600000*%
%TD*%
%TA.AperFunction,ViaPad*%
%ADD39C,0.800000*%
%TD*%
%TA.AperFunction,Conductor*%
%ADD40C,0.300000*%
%TD*%
%TA.AperFunction,Conductor*%
%ADD41C,0.200000*%
%TD*%
%TA.AperFunction,Conductor*%
%ADD42C,0.250000*%
%TD*%
G04 APERTURE END LIST*
D10*
%TO.P,R4,1*%
%TO.N,+3.3V*%
X52538082Y28992019D03*
%TO.P,R4,2*%
%TO.N,/reset*%
X52538082Y27972019D03*
%TD*%
%TO.P,R5,1*%
%TO.N,/USB_D+*%
X72825000Y36115000D03*
%TO.P,R5,2*%
%TO.N,Net-(U1-D+)*%
X72825000Y35095000D03*
%TD*%
D11*
%TO.P,J3,1,Pin_1*%
%TO.N,/row0(1)*%
X59815000Y24880000D03*
%TO.P,J3,2,Pin_2*%
%TO.N,/col1(1)*%
X61015000Y24880000D03*
%TO.P,J3,3,Pin_3*%
%TO.N,/col0(1)*%
X62215000Y24880000D03*
D12*
%TO.P,J3,MP*%
%TO.N,N/C*%
X58665000Y21105000D03*
X63365000Y21105000D03*
%TD*%
D13*
%TO.P,R1,1*%
%TO.N,GND*%
X59015000Y34495000D03*
%TO.P,R1,2*%
%TO.N,Net-(J1-CC1)*%
X59015000Y35515000D03*
%TD*%
D14*
%TO.P,C11,1*%
%TO.N,+3.3V*%
X83539949Y35592638D03*
%TO.P,C11,2*%
%TO.N,GND*%
X83539949Y36552638D03*
%TD*%
%TO.P,C9,1*%
%TO.N,+3.3V*%
X79815000Y35605000D03*
%TO.P,C9,2*%
%TO.N,GND*%
X79815000Y36565000D03*
%TD*%
D15*
%TO.P,C6,1*%
%TO.N,+3.3V*%
X77245000Y34105000D03*
%TO.P,C6,2*%
%TO.N,GND*%
X76285000Y34105000D03*
%TD*%
D16*
%TO.P,SW1,A,A*%
%TO.N,/rotA(0)*%
X16314999Y28104999D03*
D17*
%TO.P,SW1,B,B*%
%TO.N,/rotB(0)*%
X16315000Y33105000D03*
%TO.P,SW1,C,C*%
%TO.N,GND*%
X16315000Y30605000D03*
D18*
%TO.P,SW1,MP*%
%TO.N,N/C*%
X8814999Y25004999D03*
X8814999Y36204999D03*
D17*
%TO.P,SW1,S1,S1*%
%TO.N,Net-(D1-A)*%
X1815000Y33105000D03*
%TO.P,SW1,S2,S2*%
%TO.N,/rsw0(0)*%
X1815000Y28105000D03*
%TD*%
D19*
%TO.P,C8,1*%
%TO.N,+3.3V*%
X85318016Y24717345D03*
%TO.P,C8,2*%
%TO.N,GND*%
X85318016Y23757345D03*
%TD*%
D16*
%TO.P,SW2,A,A*%
%TO.N,/rotA(1)*%
X95314999Y33104999D03*
D17*
%TO.P,SW2,B,B*%
%TO.N,/rotB(1)*%
X95315000Y28105000D03*
%TO.P,SW2,C,C*%
%TO.N,GND*%
X95315000Y30605000D03*
D18*
%TO.P,SW2,MP*%
%TO.N,N/C*%
X102814999Y36204999D03*
X102814999Y25004999D03*
D17*
%TO.P,SW2,S1,S1*%
%TO.N,Net-(D2-A)*%
X109815000Y28105000D03*
%TO.P,SW2,S2,S2*%
%TO.N,/rsw0(1)*%
X109815000Y33105000D03*
%TD*%
D14*
%TO.P,C2,1*%
%TO.N,+3.3V*%
X56315000Y28625000D03*
%TO.P,C2,2*%
%TO.N,GND*%
X56315000Y29585000D03*
%TD*%
%TO.P,C4,1*%
%TO.N,GND*%
X89009884Y28817420D03*
%TO.P,C4,2*%
%TO.N,Net-(U1-XTAL_IN)*%
X89009884Y29777420D03*
%TD*%
D20*
%TO.P,C13,1*%
%TO.N,+1V1*%
X87635000Y32605000D03*
%TO.P,C13,2*%
%TO.N,GND*%
X88595000Y32605000D03*
%TD*%
D21*
%TO.P,U1,1,IOVDD*%
%TO.N,+3.3V*%
X79940000Y27442500D03*
%TO.P,U1,2,GPIO0*%
%TO.N,/col0(1)*%
X80340000Y27442500D03*
%TO.P,U1,3,GPIO1*%
%TO.N,/col1(1)*%
X80740000Y27442500D03*
%TO.P,U1,4,GPIO2*%
%TO.N,/row0(1)*%
X81140000Y27442500D03*
%TO.P,U1,5,GPIO3*%
%TO.N,/row0(0)*%
X81540000Y27442500D03*
%TO.P,U1,6,GPIO4*%
%TO.N,/col1(0)*%
X81940000Y27442500D03*
%TO.P,U1,7,GPIO5*%
%TO.N,/col0(0)*%
X82340000Y27442500D03*
%TO.P,U1,8,GPIO6*%
%TO.N,/rsw1(1)*%
X82740000Y27442500D03*
%TO.P,U1,9,GPIO7*%
%TO.N,/rsw0(1)*%
X83140000Y27442500D03*
%TO.P,U1,10,IOVDD*%
%TO.N,+3.3V*%
X83540000Y27442500D03*
%TO.P,U1,11,GPIO8*%
%TO.N,/rotB(0)*%
X83940000Y27442500D03*
%TO.P,U1,12,GPIO9*%
%TO.N,/rotA(0)*%
X84340000Y27442500D03*
%TO.P,U1,13,GPIO10*%
%TO.N,/rsw1(0)*%
X84740000Y27442500D03*
%TO.P,U1,14,GPIO11*%
%TO.N,/rsw0(0)*%
X85140000Y27442500D03*
D22*
%TO.P,U1,15,GPIO12*%
%TO.N,/rotB(1)*%
X85977500Y28280000D03*
%TO.P,U1,16,GPIO13*%
%TO.N,/rotA(1)*%
X85977500Y28680000D03*
%TO.P,U1,17,GPIO14*%
%TO.N,unconnected-(U1-GPIO14-Pad17)*%
X85977500Y29080000D03*
%TO.P,U1,18,GPIO15*%
%TO.N,unconnected-(U1-GPIO15-Pad18)*%
X85977500Y29480000D03*
%TO.P,U1,19,TESTEN*%
%TO.N,GND*%
X85977500Y29880000D03*
%TO.P,U1,20,XTAL_IN*%
%TO.N,Net-(U1-XTAL_IN)*%
X85977500Y30280000D03*
%TO.P,U1,21,XTAL_OUT*%
%TO.N,Net-(U1-XTAL_OUT)*%
X85977500Y30680000D03*
%TO.P,U1,22,IOVDD*%
%TO.N,+3.3V*%
X85977500Y31080000D03*
%TO.P,U1,23,DVDD*%
%TO.N,+1V1*%
X85977500Y31480000D03*
%TO.P,U1,24,SWCLK*%
%TO.N,unconnected-(U1-SWCLK-Pad24)*%
X85977500Y31880000D03*
%TO.P,U1,25,SWDIO*%
%TO.N,unconnected-(U1-SWDIO-Pad25)*%
X85977500Y32280000D03*
%TO.P,U1,26,~{RUN}*%
%TO.N,/reset*%
X85977500Y32680000D03*
%TO.P,U1,27,GPIO16*%
%TO.N,unconnected-(U1-GPIO16-Pad27)*%
X85977500Y33080000D03*
%TO.P,U1,28,GPIO17*%
%TO.N,unconnected-(U1-GPIO17-Pad28)*%
X85977500Y33480000D03*
D21*
%TO.P,U1,29,GPIO18*%
%TO.N,unconnected-(U1-GPIO18-Pad29)*%
X85140000Y34317500D03*
%TO.P,U1,30,GPIO19*%
%TO.N,unconnected-(U1-GPIO19-Pad30)*%
X84740000Y34317500D03*
%TO.P,U1,31,GPIO20*%
%TO.N,unconnected-(U1-GPIO20-Pad31)*%
X84340000Y34317500D03*
%TO.P,U1,32,GPIO21*%
%TO.N,unconnected-(U1-GPIO21-Pad32)*%
X83940000Y34317500D03*
%TO.P,U1,33,IOVDD*%
%TO.N,+3.3V*%
X83540000Y34317500D03*
%TO.P,U1,34,GPIO22*%
%TO.N,unconnected-(U1-GPIO22-Pad34)*%
X83140000Y34317500D03*
%TO.P,U1,35,GPIO23*%
%TO.N,unconnected-(U1-GPIO23-Pad35)*%
X82740000Y34317500D03*
%TO.P,U1,36,GPIO24*%
%TO.N,unconnected-(U1-GPIO24-Pad36)*%
X82340000Y34317500D03*
%TO.P,U1,37,GPIO25*%
%TO.N,unconnected-(U1-GPIO25-Pad37)*%
X81940000Y34317500D03*
%TO.P,U1,38,GPIO26/ADC0*%
%TO.N,unconnected-(U1-GPIO26{slash}ADC0-Pad38)*%
X81540000Y34317500D03*
%TO.P,U1,39,GPIO27/ADC1*%
%TO.N,unconnected-(U1-GPIO27{slash}ADC1-Pad39)*%
X81140000Y34317500D03*
%TO.P,U1,40,GPIO28/ADC2*%
%TO.N,unconnected-(U1-GPIO28{slash}ADC2-Pad40)*%
X80740000Y34317500D03*
%TO.P,U1,41,GPIO29/ADC3*%
%TO.N,unconnected-(U1-GPIO29{slash}ADC3-Pad41)*%
X80340000Y34317500D03*
%TO.P,U1,42,IOVDD*%
%TO.N,+3.3V*%
X79940000Y34317500D03*
D22*
%TO.P,U1,43,ADC_AVDD*%
X79102500Y33480000D03*
%TO.P,U1,44,VREG_VIN*%
X79102500Y33080000D03*
%TO.P,U1,45,VREG_VOUT*%
%TO.N,+1V1*%
X79102500Y32680000D03*
%TO.P,U1,46,D-*%
%TO.N,Net-(U1-D-)*%
X79102500Y32280000D03*
%TO.P,U1,47,D+*%
%TO.N,Net-(U1-D+)*%
X79102500Y31880000D03*
%TO.P,U1,48,USB_VDD*%
%TO.N,+3.3V*%
X79102500Y31480000D03*
%TO.P,U1,49,IOVDD*%
X79102500Y31080000D03*
%TO.P,U1,50,DVDD*%
%TO.N,+1V1*%
X79102500Y30680000D03*
%TO.P,U1,51,QSPI_SD3*%
%TO.N,/SD3*%
X79102500Y30280000D03*
%TO.P,U1,52,QSPI_SCLK*%
%TO.N,/CLK*%
X79102500Y29880000D03*
%TO.P,U1,53,QSPI_SD0*%
%TO.N,/SD0*%
X79102500Y29480000D03*
%TO.P,U1,54,QSPI_SD2*%
%TO.N,/SD2*%
X79102500Y29080000D03*
%TO.P,U1,55,QSPI_SD1*%
%TO.N,/SD1*%
X79102500Y28680000D03*
%TO.P,U1,56,QSPI_SS_N*%
%TO.N,/CS*%
X79102500Y28280000D03*
D23*
%TO.P,U1,57,GND*%
%TO.N,GND*%
X81265000Y29605000D03*
X82540000Y29605000D03*
X83815000Y29605000D03*
X81265000Y30880000D03*
X82540000Y30880000D03*
D24*
X82540000Y30880000D03*
D23*
X83815000Y30880000D03*
X81265000Y32155000D03*
X82540000Y32155000D03*
X83815000Y32155000D03*
%TD*%
D14*
%TO.P,C1,1*%
%TO.N,+5V*%
X62182214Y29592557D03*
%TO.P,C1,2*%
%TO.N,GND*%
X62182214Y30552557D03*
%TD*%
D25*
%TO.P,U2,1,IO1*%
%TO.N,unconnected-(U2-IO1-Pad1)*%
X57502048Y32731164D03*
%TO.P,U2,2,VN*%
%TO.N,GND*%
X57502048Y33681164D03*
%TO.P,U2,3,IO2*%
%TO.N,/USB_D-*%
X57502048Y34631164D03*
%TO.P,U2,4,IO3*%
%TO.N,/USB_D+*%
X55152048Y34631164D03*
%TO.P,U2,5,VP*%
%TO.N,VCC*%
X55152048Y33681164D03*
%TO.P,U2,6,IO4*%
%TO.N,unconnected-(U2-IO4-Pad6)*%
X55152048Y32731164D03*
%TD*%
D15*
%TO.P,C12,1*%
%TO.N,+3.3V*%
X75666995Y31249232D03*
%TO.P,C12,2*%
%TO.N,GND*%
X74706995Y31249232D03*
%TD*%
D26*
%TO.P,D1,1,K*%
%TO.N,/rsw1(0)*%
X4300000Y22605000D03*
%TO.P,D1,2,A*%
%TO.N,Net-(D1-A)*%
X3330000Y22605000D03*
%TD*%
D27*
%TO.P,U4,1,~{CS}*%
%TO.N,/CS*%
X66265000Y26905000D03*
%TO.P,U4,2,DO(IO1)*%
%TO.N,/SD1*%
X67535000Y26905000D03*
%TO.P,U4,3,IO2*%
%TO.N,/SD2*%
X68805000Y26905000D03*
%TO.P,U4,4,GND*%
%TO.N,GND*%
X70075000Y26905000D03*
%TO.P,U4,5,DI(IO0)*%
%TO.N,/SD0*%
X70075000Y34105000D03*
%TO.P,U4,6,CLK*%
%TO.N,/CLK*%
X68805000Y34105000D03*
%TO.P,U4,7,IO3*%
%TO.N,/SD3*%
X67535000Y34105000D03*
%TO.P,U4,8,VCC*%
%TO.N,+3.3V*%
X66265000Y34105000D03*
%TD*%
D28*
%TO.P,SW7,1,1*%
%TO.N,/reset*%
X48914999Y28154999D03*
%TO.P,SW7,2,2*%
%TO.N,GND*%
X42714999Y31854999D03*
%TO.P,SW7,3*%
%TO.N,N/C*%
X48914999Y31854999D03*
%TO.P,SW7,4*%
X42714999Y28154999D03*
%TD*%
D29*
%TO.P,U3,1,GND*%
%TO.N,GND*%
X57740000Y30555000D03*
%TO.P,U3,2,VO*%
%TO.N,+3.3V*%
X57740000Y28655000D03*
%TO.P,U3,3,VI*%
%TO.N,+5V*%
X60015000Y29605000D03*
%TD*%
D20*
%TO.P,C5,1*%
%TO.N,GND*%
X92135000Y32605000D03*
%TO.P,C5,2*%
%TO.N,Net-(C5-Pad2)*%
X93095000Y32605000D03*
%TD*%
D30*
%TO.P,J1,A1,GND*%
%TO.N,GND*%
X59004999Y37464999D03*
%TO.P,J1,A4,VBUS*%
%TO.N,VCC*%
X58254999Y37464999D03*
D31*
%TO.P,J1,A5,CC1*%
%TO.N,Net-(J1-CC1)*%
X57054999Y37464999D03*
%TO.P,J1,A6,D+*%
%TO.N,/USB_D+*%
X56054999Y37464999D03*
%TO.P,J1,A7,D-*%
%TO.N,/USB_D-*%
X55554999Y37464999D03*
%TO.P,J1,A8,SBU1*%
%TO.N,unconnected-(J1-SBU1-PadA8)*%
X54554999Y37464999D03*
D30*
%TO.P,J1,A9,VBUS*%
%TO.N,VCC*%
X53354999Y37464999D03*
%TO.P,J1,A12,GND*%
%TO.N,GND*%
X52604999Y37464999D03*
%TO.P,J1,B1,GND*%
X52604999Y37464999D03*
%TO.P,J1,B4,VBUS*%
%TO.N,VCC*%
X53354999Y37464999D03*
D31*
%TO.P,J1,B5,CC2*%
%TO.N,Net-(J1-CC2)*%
X54054999Y37464999D03*
%TO.P,J1,B6,D+*%
%TO.N,/USB_D+*%
X55054999Y37464999D03*
%TO.P,J1,B7,D-*%
%TO.N,/USB_D-*%
X56554999Y37464999D03*
%TO.P,J1,B8,SBU2*%
%TO.N,unconnected-(J1-SBU2-PadB8)*%
X57554999Y37464999D03*
D30*
%TO.P,J1,B9,VBUS*%
%TO.N,VCC*%
X58254999Y37464999D03*
%TO.P,J1,B12,GND*%
%TO.N,GND*%
X59004999Y37464999D03*
D32*
%TO.P,J1,S1,SHIELD*%
X61399999Y43344999D03*
X61379999Y38744999D03*
X50249999Y43344999D03*
X50229999Y38744999D03*
%TD*%
D19*
%TO.P,C3,1*%
%TO.N,+3.3V*%
X64815000Y31085000D03*
%TO.P,C3,2*%
%TO.N,GND*%
X64815000Y30125000D03*
%TD*%
D33*
%TO.P,R3,1*%
%TO.N,Net-(C5-Pad2)*%
X91125000Y32605000D03*
%TO.P,R3,2*%
%TO.N,Net-(U1-XTAL_OUT)*%
X90105000Y32605000D03*
%TD*%
D34*
%TO.P,D2,1,K*%
%TO.N,/rsw1(1)*%
X108830000Y22105000D03*
%TO.P,D2,2,A*%
%TO.N,Net-(D2-A)*%
X109800000Y22105000D03*
%TD*%
D15*
%TO.P,C14,1*%
%TO.N,+1V1*%
X77245000Y33105000D03*
%TO.P,C14,2*%
%TO.N,GND*%
X76285000Y33105000D03*
%TD*%
%TO.P,C10,1*%
%TO.N,+3.3V*%
X79406623Y26146343D03*
%TO.P,C10,2*%
%TO.N,GND*%
X78446623Y26146343D03*
%TD*%
D35*
%TO.P,F1,1*%
%TO.N,VCC*%
X61315000Y36505000D03*
%TO.P,F1,2*%
%TO.N,+5V*%
X61315000Y33705000D03*
%TD*%
D20*
%TO.P,C7,1*%
%TO.N,+3.3V*%
X87655000Y31605000D03*
%TO.P,C7,2*%
%TO.N,GND*%
X88615000Y31605000D03*
%TD*%
D36*
%TO.P,Y1,1,1*%
%TO.N,Net-(C5-Pad2)*%
X92714999Y30954999D03*
%TO.P,Y1,2,2*%
%TO.N,GND*%
X90514999Y30954999D03*
%TO.P,Y1,3,3*%
%TO.N,Net-(U1-XTAL_IN)*%
X90514999Y29254999D03*
%TO.P,Y1,4,4*%
%TO.N,GND*%
X92714999Y29254999D03*
%TD*%
D11*
%TO.P,J2,1,Pin_1*%
%TO.N,/col0(0)*%
X49815000Y24880000D03*
%TO.P,J2,2,Pin_2*%
%TO.N,/col1(0)*%
X51015000Y24880000D03*
%TO.P,J2,3,Pin_3*%
%TO.N,/row0(0)*%
X52215000Y24880000D03*
D12*
%TO.P,J2,MP*%
%TO.N,N/C*%
X48665000Y21105000D03*
X53365000Y21105000D03*
%TD*%
D15*
%TO.P,C15,1*%
%TO.N,+1V1*%
X75666995Y30249232D03*
%TO.P,C15,2*%
%TO.N,GND*%
X74706995Y30249232D03*
%TD*%
D10*
%TO.P,R2,1*%
%TO.N,Net-(J1-CC2)*%
X53715000Y36215000D03*
%TO.P,R2,2*%
%TO.N,GND*%
X53715000Y35195000D03*
%TD*%
%TO.P,R6,1*%
%TO.N,/USB_D-*%
X73815000Y36115000D03*
%TO.P,R6,2*%
%TO.N,Net-(U1-D-)*%
X73815000Y35095000D03*
%TD*%
D37*
%TO.P,SW5,1,1*%
%TO.N,Net-(D5-A)*%
X78085000Y12145000D03*
%TO.P,SW5,2,2*%
%TO.N,Net-(J5-Pin_3)*%
X84435000Y14685000D03*
%TD*%
%TO.P,SW6,1,1*%
%TO.N,Net-(D6-A)*%
X97005000Y12145000D03*
%TO.P,SW6,2,2*%
%TO.N,Net-(J5-Pin_2)*%
X103355000Y14685000D03*
%TD*%
%TO.P,SW4,1,1*%
%TO.N,Net-(D4-A)*%
X24715000Y12065000D03*
%TO.P,SW4,2,2*%
%TO.N,Net-(J4-Pin_1)*%
X31065000Y14605000D03*
%TD*%
%TO.P,SW3,1,1*%
%TO.N,Net-(D3-A)*%
X5715000Y12065000D03*
%TO.P,SW3,2,2*%
%TO.N,Net-(J4-Pin_2)*%
X12065000Y14605000D03*
%TD*%
D38*
%TO.N,+5V*%
X61315000Y31081683D03*
X61315000Y32730664D03*
%TO.N,GND*%
X73315000Y32254500D03*
X62629798Y31081683D03*
X87751064Y28816758D03*
X85815000Y23105000D03*
D39*
X53715000Y34405664D03*
D38*
X77815000Y26605000D03*
X91515498Y30605000D03*
X70815000Y26605000D03*
%TO.N,+3.3V*%
X76815000Y31280500D03*
X66815000Y31605000D03*
X80576124Y32731164D03*
%TO.N,+1V1*%
X84815000Y31605000D03*
X79921307Y30670478D03*
%TO.N,/rsw1(0)*%
X6315000Y22605000D03*
X87302919Y24318485D03*
%TO.N,/rsw0(0)*%
X6315000Y21605000D03*
X87815000Y23704500D03*
%TO.N,/reset*%
X54345053Y27975500D03*
X87015000Y33305000D03*
%TO.N,/rotA(0)*%
X17315000Y23204500D03*
X86613495Y24903500D03*
%TO.N,/rotB(0)*%
X18315000Y23804000D03*
X85950844Y25503000D03*
%TD*%
D40*
%TO.N,+3.3V*%
X52905101Y28625000D02*
X52538082Y28992019D01*
X56315000Y28625000D02*
X52905101Y28625000D01*
D41*
%TO.N,/reset*%
X52538082Y27972019D02*
X52355101Y28155000D01*
X52355101Y28155000D02*
X48915000Y28155000D01*
X52541563Y27975500D02*
X52538082Y27972019D01*
X54345053Y27975500D02*
X52541563Y27975500D01*
D40*
%TO.N,+5V*%
X61415000Y29585000D02*
X60035000Y29585000D01*
X61315000Y31081683D02*
X61315000Y29685000D01*
X61422557Y29592557D02*
X61415000Y29585000D01*
X60035000Y29585000D02*
X60015000Y29605000D01*
X61315000Y33705000D02*
X61315000Y32730664D01*
X62182214Y29592557D02*
X61422557Y29592557D01*
%TO.N,GND*%
X78273657Y26146343D02*
X77815000Y26605000D01*
X85318016Y23757345D02*
X85318016Y23601984D01*
X91515498Y30154502D02*
X92415000Y29255000D01*
D41*
X85977500Y29880000D02*
X86509975Y29880000D01*
D40*
X85318016Y23601984D02*
X85815000Y23105000D01*
X90615000Y30955000D02*
X90515000Y30955000D01*
X88615000Y31605000D02*
X88615000Y32585000D01*
X70075000Y26905000D02*
X70515000Y26905000D01*
X90965000Y30605000D02*
X90615000Y30955000D01*
X91515498Y30605000D02*
X90965000Y30605000D01*
X73315000Y32254500D02*
X73701727Y32254500D01*
X89009884Y28817420D02*
X87751726Y28817420D01*
X62182214Y30634099D02*
X62629798Y31081683D01*
X78446623Y26146343D02*
X78273657Y26146343D01*
X91515498Y30605000D02*
X91515498Y30154502D01*
X74706995Y30249232D02*
X74706995Y31249232D01*
X76285000Y33105000D02*
X76285000Y34105000D01*
X87751726Y28817420D02*
X87751064Y28816758D01*
X92315000Y29255000D02*
X92715000Y29255000D01*
D42*
X53715000Y35195000D02*
X53715000Y34405664D01*
D40*
X70515000Y26905000D02*
X70815000Y26605000D01*
X92415000Y29255000D02*
X92715000Y29255000D01*
D41*
X86509975Y29880000D02*
X87573217Y28816758D01*
D40*
X62182214Y30552557D02*
X62182214Y30634099D01*
X88615000Y32585000D02*
X88595000Y32605000D01*
D41*
X87573217Y28816758D02*
X87751064Y28816758D01*
D40*
X73701727Y32254500D02*
X74706995Y31249232D01*
D41*
%TO.N,+3.3V*%
X83540000Y27974975D02*
X83540000Y27442500D01*
X77870000Y33480000D02*
X77245000Y34105000D01*
X79940000Y34317500D02*
X79940000Y35480000D01*
X80570025Y28605000D02*
X83815000Y28605000D01*
X83540000Y25880000D02*
X84702655Y24717345D01*
D40*
X63315000Y30605000D02*
X63795000Y31085000D01*
D41*
X79800661Y33080000D02*
X78936815Y33080000D01*
X85977500Y31080000D02*
X85445025Y31080000D01*
X83540000Y33785025D02*
X83334975Y33580000D01*
D40*
X58400000Y27995000D02*
X62705000Y27995000D01*
D41*
X79102500Y31080000D02*
X78715000Y31080000D01*
D40*
X65575000Y31845000D02*
X66265000Y32535000D01*
D41*
X84702655Y24717345D02*
X85318016Y24717345D01*
D40*
X76815000Y31280500D02*
X75698263Y31280500D01*
D41*
X79940000Y35480000D02*
X79815000Y35605000D01*
X79102500Y31480000D02*
X78315000Y31480000D01*
X79940000Y27442500D02*
X79940000Y26679720D01*
X79102500Y33080000D02*
X78665000Y33080000D01*
X78315000Y31480000D02*
X77014500Y31480000D01*
X84815000Y30449975D02*
X84815000Y29249974D01*
D40*
X65815000Y31605000D02*
X66815000Y31605000D01*
D41*
X79940000Y26679720D02*
X79406623Y26146343D01*
X80570025Y32725065D02*
X80570025Y32310636D01*
D40*
X62705000Y27995000D02*
X63315000Y28605000D01*
D41*
X83539949Y34900051D02*
X83540000Y34900000D01*
X79940000Y33785025D02*
X79940000Y34317500D01*
X80570025Y28605000D02*
X80570025Y32310636D01*
X84815000Y29249974D02*
X83992513Y28427487D01*
D40*
X57740000Y28655000D02*
X56345000Y28655000D01*
X63315000Y28605000D02*
X63315000Y30605000D01*
X75698263Y31280500D02*
X75666995Y31249232D01*
D41*
X78715000Y31080000D02*
X78315000Y31480000D01*
X80576124Y32731164D02*
X80570025Y32725065D01*
D40*
X63795000Y31085000D02*
X64815000Y31085000D01*
D41*
X79800661Y33235636D02*
X80145025Y33580000D01*
X83539949Y35592638D02*
X83539949Y34900051D01*
D40*
X65575000Y31845000D02*
X65815000Y31605000D01*
D41*
X83540000Y34900000D02*
X83540000Y34317500D01*
X83540000Y34317500D02*
X83540000Y33785025D01*
X77014500Y31480000D02*
X76815000Y31280500D01*
X83992513Y28427487D02*
X83540000Y27974975D01*
X87130000Y31080000D02*
X87655000Y31605000D01*
X79940000Y27442500D02*
X79940000Y27974975D01*
X80145025Y33580000D02*
X79940000Y33785025D01*
X85445025Y31080000D02*
X84815000Y30449975D01*
D40*
X66265000Y32535000D02*
X66265000Y34105000D01*
X64815000Y31085000D02*
X65575000Y31845000D01*
D41*
X83815000Y28605000D02*
X83992513Y28427487D01*
X80570025Y32310636D02*
X79800661Y33080000D01*
X79800661Y33080000D02*
X79800661Y33235636D01*
D40*
X57740000Y28655000D02*
X58400000Y27995000D01*
D41*
X78665000Y33080000D02*
X78265000Y33480000D01*
X85977500Y31080000D02*
X87130000Y31080000D01*
X79102500Y33480000D02*
X78265000Y33480000D01*
X79940000Y27974975D02*
X80570025Y28605000D01*
X78265000Y33480000D02*
X77870000Y33480000D01*
X83334975Y33580000D02*
X80145025Y33580000D01*
D40*
X56345000Y28655000D02*
X56315000Y28625000D01*
D41*
X83540000Y27105000D02*
X83540000Y25880000D01*
%TO.N,Net-(U1-XTAL_IN)*%
X89532304Y29255000D02*
X89009884Y29777420D01*
X90515000Y29255000D02*
X89532304Y29255000D01*
X85977500Y30280000D02*
X88507304Y30280000D01*
X89009884Y29777420D02*
X88507304Y30280000D01*
%TO.N,Net-(C5-Pad2)*%
X92715000Y30955000D02*
X92715000Y32225000D01*
X92715000Y30955000D02*
X92715000Y31755000D01*
X92715000Y32225000D02*
X93095000Y32605000D01*
X92475000Y31995000D02*
X91735000Y31995000D01*
X91735000Y31995000D02*
X91125000Y32605000D01*
X92715000Y31755000D02*
X92475000Y31995000D01*
%TO.N,+1V1*%
X79634975Y32680000D02*
X79840000Y32474975D01*
X79634975Y30680000D02*
X79102500Y30680000D01*
X76097763Y30680000D02*
X79102500Y30680000D01*
X87635000Y32605000D02*
X87634975Y32605000D01*
X75666995Y30249232D02*
X76097763Y30680000D01*
X79840000Y32474975D02*
X79840000Y30885025D01*
X79840000Y30885025D02*
X79634975Y30680000D01*
X86509975Y31480000D02*
X85977500Y31480000D01*
X77670000Y32680000D02*
X79102500Y32680000D01*
X77245000Y33105000D02*
X77670000Y32680000D01*
X87634975Y32605000D02*
X86509975Y31480000D01*
X79634975Y30680000D02*
X79911785Y30680000D01*
X84815000Y31605000D02*
X84940000Y31480000D01*
X79102500Y32680000D02*
X79634975Y32680000D01*
X79911785Y30680000D02*
X79921307Y30670478D01*
X84940000Y31480000D02*
X85815000Y31480000D01*
%TO.N,/rsw1(0)*%
X4300000Y22605000D02*
X6315000Y22605000D01*
X85315000Y26505000D02*
X85145025Y26505000D01*
X87302919Y24318485D02*
X87302919Y25565139D01*
X84740000Y26910025D02*
X84740000Y27605000D01*
X87302919Y25565139D02*
X86363058Y26505000D01*
X86363058Y26505000D02*
X85315000Y26505000D01*
X85145025Y26505000D02*
X84740000Y26910025D01*
%TO.N,Net-(D1-A)*%
X3315000Y22620000D02*
X3330000Y22605000D01*
X1815000Y33105000D02*
X3315000Y31605000D01*
X3315000Y31605000D02*
X3315000Y31305000D01*
X3315000Y31305000D02*
X3315000Y22620000D01*
%TO.N,/rsw0(0)*%
X1815000Y23167139D02*
X3377139Y21605000D01*
X85140000Y27442500D02*
X85991244Y27442500D01*
X87902919Y23792419D02*
X87815000Y23704500D01*
X87902919Y25530825D02*
X87902919Y23792419D01*
X3377139Y21605000D02*
X6315000Y21605000D01*
X1815000Y28105000D02*
X1815000Y23167139D01*
X85991244Y27442500D02*
X87902919Y25530825D01*
%TO.N,Net-(D2-A)*%
X109815000Y22120000D02*
X109815000Y28105000D01*
X109800000Y22105000D02*
X109815000Y22120000D01*
D42*
%TO.N,VCC*%
X53355000Y36825538D02*
X52815000Y36285538D01*
X58415000Y36505000D02*
X61315000Y36505000D01*
X52815000Y34280359D02*
X53414195Y33681164D01*
X58255000Y38165000D02*
X58255000Y37465000D01*
X53355000Y37465000D02*
X53355000Y38265000D01*
X53355000Y38265000D02*
X53940223Y38850223D01*
X58255000Y36665000D02*
X58415000Y36505000D01*
X52815000Y36285538D02*
X52815000Y34280359D01*
X53355000Y37465000D02*
X53355000Y36825538D01*
X58255000Y37465000D02*
X58255000Y36665000D01*
X53940223Y38850223D02*
X57569777Y38850223D01*
X53414195Y33681164D02*
X55152048Y33681164D01*
X57569777Y38850223D02*
X58255000Y38165000D01*
%TO.N,Net-(J1-CC1)*%
X59015000Y35515000D02*
X57905000Y35515000D01*
X57055000Y36365000D02*
X57055000Y37465000D01*
X57905000Y35515000D02*
X57055000Y36365000D01*
D41*
%TO.N,/USB_D+*%
X55152048Y34631164D02*
X56102048Y35581164D01*
X56105000Y35584116D02*
X56105000Y36805000D01*
X55463444Y34631164D02*
X56102047Y33992561D01*
X55152048Y34631164D02*
X55463444Y34631164D01*
X64815000Y35105000D02*
X66484500Y36774500D01*
X64815000Y33286800D02*
X64815000Y35105000D01*
X56102047Y32233399D02*
X56654264Y31681183D01*
X72442736Y36774500D02*
X72825000Y36392236D01*
X56105000Y36805000D02*
X56105000Y37505000D01*
X56102047Y33992561D02*
X56102047Y32233399D01*
X55055000Y36665000D02*
X55105000Y36615000D01*
X63209383Y31681183D02*
X64815000Y33286800D01*
X56654264Y31681183D02*
X63209383Y31681183D01*
X72825000Y36392236D02*
X72825000Y36115000D01*
X55055000Y37465000D02*
X55055000Y36665000D01*
X55105000Y36615000D02*
X56005000Y36615000D01*
X66484500Y36774500D02*
X72442736Y36774500D01*
X56102048Y35581164D02*
X56105000Y35584116D01*
X56005000Y36615000D02*
X56105000Y36715000D01*
X56105000Y36715000D02*
X56105000Y36805000D01*
%TO.N,/USB_D-*%
X57190652Y34631164D02*
X56552049Y33992561D01*
X55555000Y37465000D02*
X55555000Y38265000D01*
X55555000Y38265000D02*
X55605000Y38315000D01*
X64415000Y33523200D02*
X64415000Y35270686D01*
X57502048Y34631164D02*
X56552048Y35581164D01*
X56505000Y38315000D02*
X56555000Y38265000D01*
X56552048Y36542048D02*
X56555000Y36545000D01*
X63022964Y32131164D02*
X64415000Y33523200D01*
X56840652Y32131164D02*
X63022964Y32131164D01*
X55605000Y38315000D02*
X56505000Y38315000D01*
X56555000Y36545000D02*
X56555000Y37465000D01*
X72651500Y37278500D02*
X73815000Y36115000D01*
X57502048Y34631164D02*
X57190652Y34631164D01*
X66422815Y37278500D02*
X72651500Y37278500D01*
X64415000Y35270686D02*
X66422815Y37278500D01*
X56555000Y38265000D02*
X56555000Y37465000D01*
X56552048Y35581164D02*
X56552048Y36542048D01*
X56552049Y32419767D02*
X56840652Y32131164D01*
X56552049Y33992561D02*
X56552049Y32419767D01*
D42*
%TO.N,Net-(J1-CC2)*%
X53715000Y36215000D02*
X54055000Y36555000D01*
X54055000Y36555000D02*
X54055000Y37465000D01*
D41*
%TO.N,/col0(0)*%
X82340000Y24801570D02*
X79643430Y22105000D01*
X82340000Y27442500D02*
X82340000Y24801570D01*
X52590000Y22105000D02*
X49815000Y24880000D01*
X79643430Y22105000D02*
X52590000Y22105000D01*
%TO.N,/col1(0)*%
X53290000Y22605000D02*
X51015000Y24880000D01*
X79577744Y22605000D02*
X53290000Y22605000D01*
X81940000Y24967256D02*
X79577744Y22605000D01*
X81940000Y27442500D02*
X81940000Y24967256D01*
%TO.N,/row0(0)*%
X53990000Y23105000D02*
X52215000Y24880000D01*
X81540000Y25132942D02*
X79512058Y23105000D01*
X81540000Y27442500D02*
X81540000Y25132942D01*
X79512058Y23105000D02*
X53990000Y23105000D01*
%TO.N,/row0(1)*%
X81140000Y27442500D02*
X81140000Y25298628D01*
X61090000Y23605000D02*
X59815000Y24880000D01*
X79446372Y23605000D02*
X61090000Y23605000D01*
X81140000Y25298628D02*
X79446372Y23605000D01*
%TO.N,/col1(1)*%
X61790000Y24105000D02*
X61015000Y24880000D01*
X80740000Y25464314D02*
X79380686Y24105000D01*
X79380686Y24105000D02*
X61790000Y24105000D01*
X80740000Y27442500D02*
X80740000Y25464314D01*
%TO.N,/col0(1)*%
X80340000Y27442500D02*
X80340000Y25630000D01*
X79515000Y24805000D02*
X62290000Y24805000D01*
X80340000Y25630000D02*
X79515000Y24805000D01*
X62290000Y24805000D02*
X62215000Y24880000D01*
%TO.N,Net-(U1-XTAL_OUT)*%
X85977500Y30680000D02*
X88672990Y30680000D01*
X89195000Y31185000D02*
X89195000Y31695000D01*
X88690000Y30680000D02*
X89195000Y31185000D01*
X89195000Y31695000D02*
X90105000Y32605000D01*
%TO.N,/reset*%
X86509975Y32680000D02*
X87015000Y33185025D01*
X85977500Y32680000D02*
X86509975Y32680000D01*
X87015000Y33185025D02*
X87015000Y33305000D01*
%TO.N,/rotA(1)*%
X93915000Y31705000D02*
X95315000Y33105000D01*
X93915000Y28555000D02*
X93915000Y31705000D01*
X87615000Y28105000D02*
X93465000Y28105000D01*
X93465000Y28105000D02*
X93915000Y28555000D01*
X87040000Y28680000D02*
X87615000Y28105000D01*
X85977500Y28680000D02*
X87040000Y28680000D01*
%TO.N,/rotB(1)*%
X87115000Y27705000D02*
X94915000Y27705000D01*
X86540000Y28280000D02*
X87115000Y27705000D01*
X85977500Y28280000D02*
X86540000Y28280000D01*
X94915000Y27705000D02*
X95315000Y28105000D01*
%TO.N,/rsw1(1)*%
X82740000Y27442500D02*
X82740000Y24765785D01*
X82740000Y24765785D02*
X85400786Y22105000D01*
X108830000Y22105000D02*
X85400786Y22105000D01*
%TO.N,/rotA(0)*%
X86197373Y26105000D02*
X84815000Y26105000D01*
X16315000Y24204500D02*
X16315000Y28105000D01*
X84340000Y26580000D02*
X84340000Y27105000D01*
X86613495Y24903500D02*
X86613495Y25688878D01*
X86613495Y25688878D02*
X86197373Y26105000D01*
X17315000Y23204500D02*
X16315000Y24204500D01*
X84815000Y26105000D02*
X84340000Y26580000D01*
%TO.N,/rotB(0)*%
X18315000Y31105000D02*
X16315000Y33105000D01*
X83940000Y26369686D02*
X83940000Y27105000D01*
X18315000Y23804000D02*
X18315000Y31105000D01*
X84644686Y25665000D02*
X83940000Y26369686D01*
X85950844Y25503000D02*
X85788844Y25665000D01*
X85788844Y25665000D02*
X84644686Y25665000D01*
%TO.N,/rsw0(1)*%
X83140000Y24931471D02*
X83140000Y27442500D01*
X108115000Y23205000D02*
X107415000Y22505000D01*
X85566471Y22505000D02*
X83140000Y24931471D01*
X107415000Y22505000D02*
X85566471Y22505000D01*
X109815000Y33105000D02*
X108115000Y31405000D01*
X108115000Y31405000D02*
X108115000Y23205000D01*
%TO.N,/SD3*%
X68765000Y36105000D02*
X67535000Y34875000D01*
X67535000Y34875000D02*
X67535000Y34105000D01*
X71797843Y35137843D02*
X71797843Y32137843D01*
X74330686Y29605000D02*
X76265000Y29605000D01*
X76940000Y30280000D02*
X79102500Y30280000D01*
X68765000Y36105000D02*
X70830686Y36105000D01*
X70830686Y36105000D02*
X71797843Y35137843D01*
X76265000Y29605000D02*
X76940000Y30280000D01*
X71797843Y32137843D02*
X74330686Y29605000D01*
%TO.N,/CLK*%
X77221061Y29880000D02*
X79102500Y29880000D01*
X71265000Y35105000D02*
X71265000Y32105000D01*
X68765000Y35105000D02*
X69265000Y35605000D01*
X69265000Y35605000D02*
X70765000Y35605000D01*
X74165001Y29205000D02*
X76546061Y29205000D01*
X68765000Y34311396D02*
X68765000Y35105000D01*
X71265000Y32105000D02*
X74165001Y29205000D01*
X68805000Y34105000D02*
X68805000Y34271396D01*
X76546061Y29205000D02*
X77221061Y29880000D01*
X70765000Y35605000D02*
X71265000Y35105000D01*
X68805000Y34271396D02*
X68765000Y34311396D01*
%TO.N,/SD0*%
X77386747Y29480000D02*
X77138373Y29231626D01*
X76711746Y28805000D02*
X77138374Y29231627D01*
X73324314Y29480000D02*
X73999316Y28805000D01*
X70075000Y32729314D02*
X70075000Y34105000D01*
X73324314Y29480000D02*
X70075000Y32729314D01*
X73999316Y28805000D02*
X76711746Y28805000D01*
X79102500Y29480000D02*
X77386747Y29480000D01*
%TO.N,/SD2*%
X68805000Y27071396D02*
X70138604Y28405000D01*
X77552433Y29080000D02*
X79102500Y29080000D01*
X68805000Y26905000D02*
X68805000Y27071396D01*
X70138604Y28405000D02*
X76877433Y28405000D01*
X76877433Y28405000D02*
X77552433Y29080000D01*
%TO.N,/SD1*%
X73165000Y28005000D02*
X77165000Y28005000D01*
X77840000Y28680000D02*
X79102500Y28680000D01*
X77165000Y28005000D02*
X77840000Y28680000D01*
X67535000Y26738604D02*
X68668604Y25605000D01*
X70765000Y25605000D02*
X73165000Y28005000D01*
X68668604Y25605000D02*
X70765000Y25605000D01*
X67535000Y26905000D02*
X67535000Y26738604D01*
%TO.N,/CS*%
X66265000Y26605000D02*
X66265000Y26905000D01*
X73330686Y27605000D02*
X77815000Y27605000D01*
X77765000Y27605000D02*
X78265000Y28105000D01*
X70930686Y25205000D02*
X73330686Y27605000D01*
X79102500Y28280000D02*
X78440000Y28280000D01*
X67665000Y25205000D02*
X66265000Y26605000D01*
X67665000Y25205000D02*
X70930686Y25205000D01*
X78440000Y28280000D02*
X78265000Y28105000D01*
%TO.N,Net-(U1-D+)*%
X73065000Y34355000D02*
X73065000Y33605000D01*
X72825000Y35095000D02*
X72815000Y35085000D01*
X73065000Y33605000D02*
X74790000Y31880000D01*
X72815000Y35085000D02*
X72815000Y34605000D01*
X72815000Y34605000D02*
X73065000Y34355000D01*
X74790000Y31880000D02*
X79102500Y31880000D01*
%TO.N,Net-(U1-D-)*%
X75140000Y32280000D02*
X73565000Y33855000D01*
X73815000Y34605000D02*
X73815000Y35095000D01*
X73565000Y34355000D02*
X73815000Y34605000D01*
X73565000Y33855000D02*
X73565000Y34355000D01*
X79102500Y32280000D02*
X75140000Y32280000D01*
%TD*%
%TA.AperFunction,Conductor*%
%TO.N,GND*%
G36*
X100708706Y37590376D02*
G01*
X100753087Y37551220D01*
X100774264Y37495954D01*
X100767413Y37437167D01*
X100723620Y37319753D01*
X100723619Y37319750D01*
X100720909Y37312483D01*
X100720079Y37304773D01*
X100720079Y37304768D01*
X100714855Y37256181D01*
X100714854Y37256169D01*
X100714500Y37252873D01*
X100714500Y37249552D01*
X100714500Y37249551D01*
X100714500Y35160440D01*
X100714500Y35160422D01*
X100714501Y35157128D01*
X100714853Y35153850D01*
X100714854Y35153839D01*
X100720079Y35105232D01*
X100720080Y35105227D01*
X100720909Y35097517D01*
X100723619Y35090251D01*
X100723620Y35090247D01*
X100731428Y35069313D01*
X100771204Y34962669D01*
X100776518Y34955570D01*
X100776519Y34955569D01*
X100830295Y34883733D01*
X100857454Y34847454D01*
X100972669Y34761204D01*
X101107517Y34710909D01*
X101167127Y34704500D01*
X104462872Y34704501D01*
X104522483Y34710909D01*
X104657331Y34761204D01*
X104772546Y34847454D01*
X104858796Y34962669D01*
X104909091Y35097517D01*
X104915500Y35157127D01*
X104915499Y37252872D01*
X104909091Y37312483D01*
X104862587Y37437167D01*
X104855736Y37495954D01*
X104876913Y37551220D01*
X104921294Y37590376D01*
X104978769Y37604500D01*
X108811755Y37604500D01*
X108818243Y37604331D01*
X108948379Y37597510D01*
X109128908Y37587372D01*
X109141309Y37586045D01*
X109289990Y37562496D01*
X109291245Y37562291D01*
X109450324Y37535262D01*
X109461606Y37532798D01*
X109610635Y37492866D01*
X109612761Y37492275D01*
X109764174Y37448653D01*
X109774260Y37445271D01*
X109919710Y37389438D01*
X109922599Y37388286D01*
X110066768Y37328570D01*
X110075594Y37324500D01*
X110215064Y37253435D01*
X110218748Y37251479D01*
X110288515Y37212921D01*
X110354548Y37176426D01*
X110362061Y37171919D01*
X110493754Y37086396D01*
X110497947Y37083548D01*
X110624147Y36994004D01*
X110630426Y36989243D01*
X110746881Y36894939D01*
X110752567Y36890335D01*
X110757154Y36886433D01*
X110815940Y36833898D01*
X110872424Y36783421D01*
X110877478Y36778642D01*
X110988640Y36667480D01*
X110993419Y36662426D01*
X111096427Y36547160D01*
X111100333Y36542569D01*
X111199239Y36420430D01*
X111204002Y36414149D01*
X111293546Y36287949D01*
X111296409Y36283734D01*
X111381907Y36152079D01*
X111386430Y36144540D01*
X111461477Y36008750D01*
X111463433Y36005066D01*
X111534498Y35865596D01*
X111538575Y35856753D01*
X111598259Y35712663D01*
X111599462Y35709647D01*
X111655265Y35564273D01*
X111658655Y35554164D01*
X111702258Y35402815D01*
X111702879Y35400581D01*
X111742791Y35251630D01*
X111745264Y35240306D01*
X111772282Y35081285D01*
X111772507Y35079913D01*
X111796040Y34931334D01*
X111797372Y34918889D01*
X111807498Y34738579D01*
X111807523Y34738116D01*
X111814330Y34608243D01*
X111814500Y34601753D01*
X111814500Y23108247D01*
X111814330Y23101757D01*
X111807523Y22971886D01*
X111807498Y22971423D01*
X111797372Y22791113D01*
X111796040Y22778668D01*
X111772507Y22630089D01*
X111772282Y22628717D01*
X111745264Y22469696D01*
X111742791Y22458372D01*
X111702879Y22309421D01*
X111702258Y22307187D01*
X111658655Y22155838D01*
X111655265Y22145729D01*
X111599462Y22000355D01*
X111598259Y21997339D01*
X111538575Y21853249D01*
X111534498Y21844406D01*
X111463433Y21704936D01*
X111461477Y21701252D01*
X111386430Y21565462D01*
X111381897Y21557906D01*
X111296412Y21426272D01*
X111293546Y21422053D01*
X111204002Y21295853D01*
X111199239Y21289572D01*
X111100333Y21167433D01*
X111096427Y21162842D01*
X110993419Y21047576D01*
X110988640Y21042522D01*
X110877478Y20931360D01*
X110872424Y20926581D01*
X110757158Y20823573D01*
X110752567Y20819667D01*
X110630428Y20720761D01*
X110624147Y20715998D01*
X110497947Y20626454D01*
X110493728Y20623588D01*
X110362094Y20538103D01*
X110354538Y20533570D01*
X110218748Y20458523D01*
X110215064Y20456567D01*
X110075594Y20385502D01*
X110066751Y20381425D01*
X109922661Y20321741D01*
X109919645Y20320538D01*
X109774271Y20264735D01*
X109764162Y20261345D01*
X109612813Y20217742D01*
X109610579Y20217121D01*
X109461628Y20177209D01*
X109450304Y20174736D01*
X109291283Y20147718D01*
X109289911Y20147493D01*
X109141332Y20123960D01*
X109128887Y20122628D01*
X108948577Y20112502D01*
X108948114Y20112477D01*
X108818243Y20105670D01*
X108811753Y20105500D01*
X94065500Y20105500D01*
X94065000Y20105500D01*
X93999108Y20105500D01*
X93991267Y20103400D01*
X93991259Y20103398D01*
X93879665Y20073496D01*
X93879662Y20073496D01*
X93871814Y20071392D01*
X93864777Y20067330D01*
X93864774Y20067328D01*
X93764723Y20009564D01*
X93764716Y20009560D01*
X93757686Y20005500D01*
X93751943Y19999758D01*
X93751939Y19999754D01*
X93670246Y19918061D01*
X93670242Y19918057D01*
X93664500Y19912314D01*
X93660440Y19905284D01*
X93660436Y19905277D01*
X93602672Y19805226D01*
X93602670Y19805223D01*
X93598608Y19798186D01*
X93596505Y19790341D01*
X93596504Y19790336D01*
X93571471Y19696907D01*
X93546686Y19649295D01*
X93504101Y19616618D01*
X93451696Y19605000D01*
X89178304Y19605000D01*
X89125899Y19616618D01*
X89083314Y19649295D01*
X89058529Y19696907D01*
X89033495Y19790336D01*
X89031392Y19798186D01*
X88965500Y19912314D01*
X88872314Y20005500D01*
X88865279Y20009562D01*
X88865276Y20009564D01*
X88765225Y20067328D01*
X88758186Y20071392D01*
X88750334Y20073496D01*
X88638740Y20103398D01*
X88638733Y20103399D01*
X88630892Y20105500D01*
X88565099Y20105500D01*
X64009353Y20105500D01*
X63947786Y20121864D01*
X63902468Y20166638D01*
X63885362Y20228003D01*
X63900982Y20289763D01*
X63945205Y20335618D01*
X63959653Y20344352D01*
X64075648Y20460347D01*
X64160512Y20600730D01*
X64209315Y20757343D01*
X64215500Y20825406D01*
X64215500Y21380500D01*
X64232113Y21442500D01*
X64277500Y21487887D01*
X64339500Y21504500D01*
X79595943Y21504500D01*
X79612128Y21503439D01*
X79643430Y21499318D01*
X79800192Y21519956D01*
X79946271Y21580464D01*
X79983812Y21609270D01*
X80071712Y21676718D01*
X80090940Y21701778D01*
X80101619Y21713956D01*
X82434428Y24046765D01*
X82490013Y24078857D01*
X82554201Y24078857D01*
X82609785Y24046765D01*
X83773113Y22883438D01*
X84942585Y21713966D01*
X84953275Y21701778D01*
X84972504Y21676718D01*
X85060404Y21609270D01*
X85097945Y21580464D01*
X85244024Y21519956D01*
X85400786Y21499318D01*
X85408845Y21500379D01*
X85432088Y21503439D01*
X85448273Y21504500D01*
X108142728Y21504500D01*
X108190181Y21495061D01*
X108230409Y21468182D01*
X108282180Y21416410D01*
X108423103Y21333069D01*
X108580325Y21287391D01*
X108617060Y21284500D01*
X109040495Y21284500D01*
X109042940Y21284500D01*
X109079675Y21287391D01*
X109236897Y21333069D01*
X109251878Y21341929D01*
X109315000Y21359198D01*
X109378121Y21341929D01*
X109393103Y21333069D01*
X109550325Y21287391D01*
X109587060Y21284500D01*
X110010495Y21284500D01*
X110012940Y21284500D01*
X110049675Y21287391D01*
X110206897Y21333069D01*
X110347820Y21416410D01*
X110463590Y21532180D01*
X110546931Y21673103D01*
X110592609Y21830325D01*
X110595500Y21867060D01*
X110595500Y22342940D01*
X110592609Y22379675D01*
X110546931Y22536897D01*
X110463590Y22677820D01*
X110451819Y22689592D01*
X110424939Y22729819D01*
X110415500Y22777272D01*
X110415500Y26649952D01*
X110432977Y26713426D01*
X110480482Y26759007D01*
X110638509Y26844526D01*
X110834744Y26997262D01*
X111003164Y27180215D01*
X111139173Y27388393D01*
X111239063Y27616119D01*
X111300108Y27857179D01*
X111320643Y28105000D01*
X111300108Y28352821D01*
X111239063Y28593881D01*
X111151313Y28793931D01*
X111141233Y28816911D01*
X111141232Y28816913D01*
X111139173Y28821607D01*
X111131545Y28833282D01*
X111063520Y28937403D01*
X111003164Y29029785D01*
X110978465Y29056615D01*
X110838215Y29208968D01*
X110838211Y29208971D01*
X110834744Y29212738D01*
X110698893Y29318475D01*
X110642559Y29362322D01*
X110642557Y29362324D01*
X110638509Y29365474D01*
X110622910Y29373916D01*
X110424316Y29481390D01*
X110424310Y29481393D01*
X110419810Y29483828D01*
X110414969Y29485490D01*
X110414962Y29485493D01*
X110189465Y29562906D01*
X110189461Y29562907D01*
X110184614Y29564571D01*
X110175768Y29566048D01*
X109944398Y29604656D01*
X109944387Y29604657D01*
X109939335Y29605500D01*
X109690665Y29605500D01*
X109685613Y29604657D01*
X109685601Y29604656D01*
X109450443Y29565415D01*
X109450441Y29565415D01*
X109445386Y29564571D01*
X109440541Y29562908D01*
X109440534Y29562906D01*
X109215037Y29485493D01*
X109215026Y29485489D01*
X109210190Y29483828D01*
X109205693Y29481395D01*
X109205683Y29481390D01*
X108996002Y29367916D01*
X108995995Y29367912D01*
X108991491Y29365474D01*
X108987448Y29362328D01*
X108987440Y29362322D01*
X108915662Y29306454D01*
X108852292Y29280969D01*
X108785040Y29292907D01*
X108734312Y29338645D01*
X108715500Y29404307D01*
X108715500Y31104903D01*
X108724939Y31152356D01*
X108751819Y31192584D01*
X108864138Y31304903D01*
X109211452Y31652219D01*
X109271182Y31685345D01*
X109339392Y31681818D01*
X109445386Y31645429D01*
X109690665Y31604500D01*
X109934201Y31604500D01*
X109939335Y31604500D01*
X110184614Y31645429D01*
X110419810Y31726172D01*
X110638509Y31844526D01*
X110834744Y31997262D01*
X111003164Y32180215D01*
X111139173Y32388393D01*
X111239063Y32616119D01*
X111300108Y32857179D01*
X111320643Y33105000D01*
X111300108Y33352821D01*
X111239063Y33593881D01*
X111142918Y33813070D01*
X111141233Y33816911D01*
X111141232Y33816913D01*
X111139173Y33821607D01*
X111135049Y33827919D01*
X111042016Y33970317D01*
X111003164Y34029785D01*
X110949509Y34088070D01*
X110838215Y34208968D01*
X110838211Y34208971D01*
X110834744Y34212738D01*
X110694398Y34321974D01*
X110642559Y34362322D01*
X110642557Y34362324D01*
X110638509Y34365474D01*
X110633997Y34367916D01*
X110424316Y34481390D01*
X110424310Y34481393D01*
X110419810Y34483828D01*
X110414969Y34485490D01*
X110414962Y34485493D01*
X110189465Y34562906D01*
X110189461Y34562907D01*
X110184614Y34564571D01*
X110175768Y34566048D01*
X109944398Y34604656D01*
X109944387Y34604657D01*
X109939335Y34605500D01*
X109690665Y34605500D01*
X109685613Y34604657D01*
X109685601Y34604656D01*
X109450443Y34565415D01*
X109450441Y34565415D01*
X109445386Y34564571D01*
X109440541Y34562908D01*
X109440534Y34562906D01*
X109215037Y34485493D01*
X109215026Y34485489D01*
X109210190Y34483828D01*
X109205693Y34481395D01*
X109205683Y34481390D01*
X108996002Y34367916D01*
X108995995Y34367912D01*
X108991491Y34365474D01*
X108987448Y34362328D01*
X108987440Y34362322D01*
X108799304Y34215889D01*
X108795256Y34212738D01*
X108791793Y34208977D01*
X108791784Y34208968D01*
X108630311Y34033561D01*
X108630305Y34033554D01*
X108626836Y34029785D01*
X108624031Y34025494D01*
X108624028Y34025488D01*
X108493631Y33825901D01*
X108493624Y33825889D01*
X108490827Y33821607D01*
X108488772Y33816923D01*
X108488766Y33816911D01*
X108396536Y33606646D01*
X108390937Y33593881D01*
X108389679Y33588916D01*
X108389678Y33588911D01*
X108331151Y33357796D01*
X108331149Y33357787D01*
X108329892Y33352821D01*
X108329468Y33347712D01*
X108329467Y33347702D01*
X108312132Y33138490D01*
X108309357Y33105000D01*
X108309781Y33099883D01*
X108329467Y32862299D01*
X108329468Y32862291D01*
X108329892Y32857179D01*
X108331149Y32852212D01*
X108331151Y32852205D01*
X108390937Y32616119D01*
X108388649Y32615540D01*
X108391617Y32557416D01*
X108358501Y32497738D01*
X107723965Y31863202D01*
X107711774Y31852510D01*
X107693165Y31838230D01*
X107693161Y31838227D01*
X107686718Y31833282D01*
X107681774Y31826840D01*
X107681772Y31826837D01*
X107609986Y31733282D01*
X107609985Y31733281D01*
X107595412Y31714291D01*
X107595407Y31714284D01*
X107590464Y31707841D01*
X107587355Y31700337D01*
X107587353Y31700332D01*
X107533066Y31569272D01*
X107533064Y31569267D01*
X107529956Y31561762D01*
X107528896Y31553711D01*
X107528894Y31553703D01*
X107513446Y31436358D01*
X107509318Y31405000D01*
X107510379Y31396941D01*
X107513439Y31373698D01*
X107514500Y31357513D01*
X107514500Y23505098D01*
X107505061Y23457645D01*
X107478181Y23417417D01*
X107202584Y23141819D01*
X107162356Y23114939D01*
X107114903Y23105500D01*
X88608393Y23105500D01*
X88545392Y23122697D01*
X88499865Y23169519D01*
X88484442Y23232978D01*
X88503399Y23295472D01*
X88516246Y23315918D01*
X88540789Y23354978D01*
X88600368Y23525245D01*
X88620565Y23704500D01*
X88600368Y23883755D01*
X88573541Y23960422D01*
X100714500Y23960422D01*
X100714501Y23957128D01*
X100714853Y23953850D01*
X100714854Y23953839D01*
X100720079Y23905232D01*
X100720080Y23905227D01*
X100720909Y23897517D01*
X100723619Y23890251D01*
X100723620Y23890247D01*
X100749029Y23822124D01*
X100771204Y23762669D01*
X100776518Y23755570D01*
X100776519Y23755569D01*
X100822910Y23693598D01*
X100857454Y23647454D01*
X100972669Y23561204D01*
X101107517Y23510909D01*
X101167127Y23504500D01*
X104462872Y23504501D01*
X104522483Y23510909D01*
X104657331Y23561204D01*
X104772546Y23647454D01*
X104858796Y23762669D01*
X104909091Y23897517D01*
X104915500Y23957127D01*
X104915499Y26052872D01*
X104909091Y26112483D01*
X104858796Y26247331D01*
X104772546Y26362546D01*
X104705590Y26412669D01*
X104664431Y26443481D01*
X104664430Y26443482D01*
X104657331Y26448796D01*
X104572328Y26480500D01*
X104529752Y26496380D01*
X104529750Y26496381D01*
X104522483Y26499091D01*
X104514770Y26499921D01*
X104514767Y26499921D01*
X104466180Y26505145D01*
X104466169Y26505146D01*
X104462873Y26505500D01*
X104459550Y26505500D01*
X101170439Y26505500D01*
X101170420Y26505500D01*
X101167128Y26505499D01*
X101163850Y26505147D01*
X101163838Y26505146D01*
X101115231Y26499921D01*
X101115225Y26499920D01*
X101107517Y26499091D01*
X101100252Y26496382D01*
X101100246Y26496380D01*
X100980980Y26451896D01*
X100980978Y26451896D01*
X100972669Y26448796D01*
X100965572Y26443484D01*
X100965568Y26443481D01*
X100864550Y26367859D01*
X100864546Y26367856D01*
X100857454Y26362546D01*
X100852144Y26355454D01*
X100852141Y26355450D01*
X100776519Y26254432D01*
X100776516Y26254428D01*
X100771204Y26247331D01*
X100768104Y26239022D01*
X100768104Y26239020D01*
X100723620Y26119753D01*
X100723619Y26119750D01*
X100720909Y26112483D01*
X100720079Y26104773D01*
X100720079Y26104768D01*
X100714855Y26056181D01*
X100714854Y26056169D01*
X100714500Y26052873D01*
X100714500Y26049552D01*
X100714500Y26049551D01*
X100714500Y23960440D01*
X100714500Y23960422D01*
X88573541Y23960422D01*
X88540789Y24054022D01*
X88522424Y24083249D01*
X88503419Y24149220D01*
X88503419Y25483338D01*
X88504480Y25499523D01*
X88507540Y25522766D01*
X88508601Y25530825D01*
X88487963Y25687587D01*
X88427455Y25833666D01*
X88389084Y25883672D01*
X88331201Y25959107D01*
X88306141Y25978336D01*
X88293953Y25989026D01*
X87390160Y26892819D01*
X87359910Y26942182D01*
X87355368Y26999898D01*
X87377523Y27053385D01*
X87421546Y27090985D01*
X87477841Y27104500D01*
X94142145Y27104500D01*
X94191955Y27094056D01*
X94233375Y27064483D01*
X94291784Y27001033D01*
X94291787Y27001030D01*
X94295256Y26997262D01*
X94491491Y26844526D01*
X94710190Y26726172D01*
X94945386Y26645429D01*
X95190665Y26604500D01*
X95434201Y26604500D01*
X95439335Y26604500D01*
X95684614Y26645429D01*
X95919810Y26726172D01*
X96138509Y26844526D01*
X96334744Y26997262D01*
X96503164Y27180215D01*
X96639173Y27388393D01*
X96739063Y27616119D01*
X96800108Y27857179D01*
X96820643Y28105000D01*
X96800108Y28352821D01*
X96739063Y28593881D01*
X96651313Y28793931D01*
X96641233Y28816911D01*
X96641232Y28816913D01*
X96639173Y28821607D01*
X96631545Y28833282D01*
X96563520Y28937403D01*
X96503164Y29029785D01*
X96468519Y29067420D01*
X96338212Y29208971D01*
X96338210Y29208973D01*
X96334744Y29212738D01*
X96274071Y29259962D01*
X96228927Y29295099D01*
X96192054Y29341972D01*
X96187535Y29366689D01*
X96172589Y29393858D01*
X95049128Y30517319D01*
X95017034Y30572906D01*
X95017034Y30637094D01*
X95049128Y30692681D01*
X95227319Y30870872D01*
X95282906Y30902966D01*
X95347094Y30902966D01*
X95402681Y30870872D01*
X96528653Y29744900D01*
X96538034Y29738976D01*
X96546002Y29746701D01*
X96635924Y29884336D01*
X96640792Y29893331D01*
X96736527Y30111586D01*
X96739846Y30121253D01*
X96798353Y30352288D01*
X96800037Y30362382D01*
X96819717Y30599883D01*
X96819717Y30610117D01*
X96800037Y30847619D01*
X96798353Y30857713D01*
X96739846Y31088748D01*
X96736527Y31098415D01*
X96640792Y31316672D01*
X96635927Y31325662D01*
X96526386Y31493327D01*
X96506246Y31557601D01*
X96522677Y31622922D01*
X96559229Y31658669D01*
X96557331Y31661204D01*
X96584866Y31681817D01*
X96672546Y31747454D01*
X96758796Y31862669D01*
X96809091Y31997517D01*
X96815500Y32057127D01*
X96815499Y34152872D01*
X96809091Y34212483D01*
X96758796Y34347331D01*
X96672546Y34462546D01*
X96557331Y34548796D01*
X96422483Y34599091D01*
X96414770Y34599921D01*
X96414767Y34599921D01*
X96366180Y34605145D01*
X96366169Y34605146D01*
X96362873Y34605500D01*
X96359550Y34605500D01*
X94270439Y34605500D01*
X94270420Y34605500D01*
X94267128Y34605499D01*
X94263850Y34605147D01*
X94263838Y34605146D01*
X94215231Y34599921D01*
X94215225Y34599920D01*
X94207517Y34599091D01*
X94200252Y34596382D01*
X94200246Y34596380D01*
X94080980Y34551896D01*
X94080978Y34551896D01*
X94072669Y34548796D01*
X94065572Y34543484D01*
X94065568Y34543481D01*
X93964550Y34467859D01*
X93964546Y34467856D01*
X93957454Y34462546D01*
X93952144Y34455454D01*
X93952141Y34455450D01*
X93876519Y34354432D01*
X93876516Y34354428D01*
X93871204Y34347331D01*
X93868104Y34339022D01*
X93868104Y34339020D01*
X93823620Y34219753D01*
X93823619Y34219750D01*
X93820909Y34212483D01*
X93820079Y34204773D01*
X93820079Y34204768D01*
X93814855Y34156181D01*
X93814854Y34156169D01*
X93814500Y34152873D01*
X93814500Y34149551D01*
X93814500Y33393805D01*
X93797724Y33331524D01*
X93751937Y33286095D01*
X93689526Y33269809D01*
X93627380Y33287073D01*
X93491395Y33367494D01*
X93483885Y33369676D01*
X93342081Y33410875D01*
X93342074Y33410877D01*
X93335993Y33412643D01*
X93329682Y33413140D01*
X93329675Y33413141D01*
X93302124Y33415309D01*
X93302110Y33415310D01*
X93299690Y33415500D01*
X92890310Y33415500D01*
X92887890Y33415310D01*
X92887875Y33415309D01*
X92860324Y33413141D01*
X92860315Y33413140D01*
X92854007Y33412643D01*
X92847927Y33410877D01*
X92847918Y33410875D01*
X92706097Y33369671D01*
X92706094Y33369670D01*
X92698605Y33367494D01*
X92691893Y33363525D01*
X92691887Y33363522D01*
X92677628Y33355089D01*
X92614508Y33337822D01*
X92551388Y33355090D01*
X92537908Y33363062D01*
X92523706Y33369208D01*
X92398857Y33405480D01*
X92387590Y33406055D01*
X92385000Y33395075D01*
X92385000Y33103353D01*
X92369160Y33045451D01*
X92369576Y33045271D01*
X92368311Y33042350D01*
X92367733Y33040234D01*
X92366478Y33038113D01*
X92366475Y33038107D01*
X92362506Y33031395D01*
X92360330Y33023906D01*
X92360329Y33023903D01*
X92319125Y32882082D01*
X92319123Y32882073D01*
X92317357Y32875993D01*
X92316860Y32869685D01*
X92316859Y32869676D01*
X92314691Y32842125D01*
X92314690Y32842110D01*
X92314500Y32839690D01*
X92314500Y32837245D01*
X92314500Y32730927D01*
X92305061Y32683474D01*
X92285509Y32654214D01*
X92286720Y32653285D01*
X92279608Y32644016D01*
X92236075Y32608288D01*
X92181230Y32595500D01*
X92035097Y32595500D01*
X91987644Y32604939D01*
X91947416Y32631819D01*
X91931818Y32647417D01*
X91904938Y32687645D01*
X91895499Y32735098D01*
X91895499Y32851757D01*
X91895499Y32854180D01*
X91892665Y32890204D01*
X91889922Y32899644D01*
X91885000Y32934234D01*
X91885000Y33395075D01*
X91882409Y33406055D01*
X91871142Y33405480D01*
X91746293Y33369208D01*
X91732087Y33363061D01*
X91698881Y33343422D01*
X91635761Y33326154D01*
X91572640Y33343422D01*
X91521108Y33373898D01*
X91521106Y33373899D01*
X91514393Y33377869D01*
X91499892Y33382082D01*
X91366292Y33420897D01*
X91366285Y33420899D01*
X91360204Y33422665D01*
X91353893Y33423162D01*
X91353886Y33423163D01*
X91326615Y33425309D01*
X91326600Y33425310D01*
X91324181Y33425500D01*
X91321735Y33425500D01*
X90928243Y33425500D01*
X90928217Y33425500D01*
X90925820Y33425499D01*
X90923406Y33425310D01*
X90923403Y33425309D01*
X90896111Y33423162D01*
X90896109Y33423162D01*
X90889796Y33422665D01*
X90883718Y33420900D01*
X90883711Y33420898D01*
X90743099Y33380046D01*
X90743096Y33380045D01*
X90735607Y33377869D01*
X90728895Y33373900D01*
X90728889Y33373897D01*
X90678118Y33343872D01*
X90614998Y33326605D01*
X90551879Y33343873D01*
X90501112Y33373896D01*
X90501108Y33373898D01*
X90494393Y33377869D01*
X90479892Y33382082D01*
X90346292Y33420897D01*
X90346285Y33420899D01*
X90340204Y33422665D01*
X90333893Y33423162D01*
X90333886Y33423163D01*
X90306615Y33425309D01*
X90306600Y33425310D01*
X90304181Y33425500D01*
X90301735Y33425500D01*
X89908243Y33425500D01*
X89908217Y33425500D01*
X89905820Y33425499D01*
X89903406Y33425310D01*
X89903403Y33425309D01*
X89876111Y33423162D01*
X89876109Y33423162D01*
X89869796Y33422665D01*
X89863718Y33420900D01*
X89863711Y33420898D01*
X89723099Y33380046D01*
X89723096Y33380045D01*
X89715607Y33377869D01*
X89708896Y33373901D01*
X89708891Y33373898D01*
X89584119Y33300108D01*
X89584115Y33300106D01*
X89577402Y33296135D01*
X89571887Y33290621D01*
X89571883Y33290617D01*
X89469383Y33188117D01*
X89469379Y33188113D01*
X89463865Y33182598D01*
X89459895Y33175887D01*
X89459890Y33175879D01*
X89457302Y33171502D01*
X89415359Y33128900D01*
X89358357Y33110874D01*
X89299546Y33121616D01*
X89252596Y33158628D01*
X89239201Y33175896D01*
X89135896Y33279201D01*
X89123660Y33288692D01*
X88997908Y33363062D01*
X88983706Y33369208D01*
X88858857Y33405480D01*
X88847590Y33406055D01*
X88845000Y33395075D01*
X88845000Y32471326D01*
X88853255Y32440517D01*
X88855561Y32437066D01*
X88865000Y32389613D01*
X88865000Y32265598D01*
X88855561Y32218144D01*
X88828679Y32177915D01*
X88803963Y32153200D01*
X88791774Y32142510D01*
X88773165Y32128230D01*
X88773161Y32128227D01*
X88766718Y32123282D01*
X88761774Y32116840D01*
X88761772Y32116837D01*
X88693549Y32027926D01*
X88675411Y32004289D01*
X88675408Y32004286D01*
X88670464Y31997841D01*
X88667356Y31990338D01*
X88667355Y31990336D01*
X88645002Y31936371D01*
X88608879Y31887786D01*
X88554058Y31862095D01*
X88493607Y31865422D01*
X88441937Y31896974D01*
X88411365Y31949230D01*
X88387494Y32031395D01*
X88370705Y32059784D01*
X88353682Y32115119D01*
X88363618Y32172053D01*
X88367494Y32178605D01*
X88412643Y32334007D01*
X88415500Y32370310D01*
X88415500Y32839690D01*
X88412643Y32875993D01*
X88410456Y32883519D01*
X88405835Y32899427D01*
X88367494Y33031395D01*
X88362267Y33040234D01*
X88361688Y33042350D01*
X88360424Y33045271D01*
X88360839Y33045451D01*
X88345000Y33103353D01*
X88345000Y33395075D01*
X88342409Y33406055D01*
X88331142Y33405480D01*
X88206293Y33369208D01*
X88192091Y33363062D01*
X88178608Y33355088D01*
X88115488Y33337822D01*
X88052369Y33355090D01*
X88046253Y33358707D01*
X88031395Y33367494D01*
X88023908Y33369670D01*
X88023904Y33369671D01*
X87881050Y33411174D01*
X87830357Y33440240D01*
X87798604Y33489296D01*
X87743087Y33647955D01*
X87743086Y33647956D01*
X87740789Y33654522D01*
X87644816Y33807262D01*
X87517262Y33934816D01*
X87506944Y33941299D01*
X87390419Y34014517D01*
X87364522Y34030789D01*
X87357959Y34033086D01*
X87357956Y34033087D01*
X87200824Y34088070D01*
X87200819Y34088072D01*
X87194255Y34090368D01*
X87187335Y34091148D01*
X87187334Y34091148D01*
X87021923Y34109785D01*
X87015000Y34110565D01*
X87008077Y34109785D01*
X86842665Y34091148D01*
X86842662Y34091148D01*
X86835745Y34090368D01*
X86829180Y34088071D01*
X86829172Y34088069D01*
X86672031Y34033083D01*
X86628657Y34026149D01*
X86585590Y34034770D01*
X86496564Y34069877D01*
X86488674Y34070825D01*
X86488668Y34070826D01*
X86411781Y34080059D01*
X86411767Y34080060D01*
X86408102Y34080500D01*
X86404401Y34080500D01*
X85864500Y34080500D01*
X85802500Y34097113D01*
X85757113Y34142500D01*
X85740500Y34204500D01*
X85740500Y34744405D01*
X85740500Y34748102D01*
X85729877Y34836564D01*
X85674361Y34977342D01*
X85582922Y35097922D01*
X85573282Y35105232D01*
X85536529Y35133103D01*
X85462342Y35189361D01*
X85321564Y35244877D01*
X85313674Y35245825D01*
X85313668Y35245826D01*
X85236781Y35255059D01*
X85236767Y35255060D01*
X85233102Y35255500D01*
X85046898Y35255500D01*
X85043233Y35255060D01*
X85043218Y35255059D01*
X84958436Y35244877D01*
X84958200Y35246842D01*
X84921800Y35246842D01*
X84921564Y35244877D01*
X84836781Y35255059D01*
X84836767Y35255060D01*
X84833102Y35255500D01*
X84646898Y35255500D01*
X84643233Y35255060D01*
X84643218Y35255059D01*
X84558436Y35244877D01*
X84558200Y35246842D01*
X84521799Y35246842D01*
X84521563Y35244878D01*
X84459067Y35252382D01*
X84400843Y35275269D01*
X84361203Y35323668D01*
X84350627Y35383066D01*
X84350162Y35383084D01*
X84350245Y35385213D01*
X84350237Y35385259D01*
X84350449Y35387948D01*
X84350449Y35797328D01*
X84347592Y35833631D01*
X84302443Y35989033D01*
X84298470Y35995751D01*
X84298470Y35995752D01*
X84290039Y36010007D01*
X84272770Y36073132D01*
X84290040Y36136255D01*
X84298012Y36149736D01*
X84304156Y36163932D01*
X84340428Y36288781D01*
X84341003Y36300048D01*
X84330024Y36302638D01*
X84038302Y36302638D01*
X83980399Y36318478D01*
X83980220Y36318062D01*
X83977298Y36319327D01*
X83975183Y36319905D01*
X83973061Y36321160D01*
X83973058Y36321162D01*
X83966344Y36325132D01*
X83948129Y36330424D01*
X83817030Y36368513D01*
X83817023Y36368515D01*
X83810942Y36370281D01*
X83804631Y36370778D01*
X83804624Y36370779D01*
X83777073Y36372947D01*
X83777059Y36372948D01*
X83774639Y36373138D01*
X83305259Y36373138D01*
X83302839Y36372948D01*
X83302824Y36372947D01*
X83275273Y36370779D01*
X83275264Y36370778D01*
X83268956Y36370281D01*
X83262876Y36368515D01*
X83262867Y36368513D01*
X83121046Y36327309D01*
X83121043Y36327308D01*
X83113554Y36325132D01*
X83106842Y36321163D01*
X83106836Y36321160D01*
X83104715Y36319905D01*
X83102599Y36319327D01*
X83099678Y36318062D01*
X83099498Y36318478D01*
X83041596Y36302638D01*
X82749874Y36302638D01*
X82738894Y36300048D01*
X82739469Y36288781D01*
X82775741Y36163932D01*
X82781887Y36149730D01*
X82789859Y36136250D01*
X82807127Y36073130D01*
X82789860Y36010010D01*
X82781427Y35995751D01*
X82781424Y35995745D01*
X82777455Y35989033D01*
X82775279Y35981544D01*
X82775278Y35981541D01*
X82734074Y35839720D01*
X82734072Y35839711D01*
X82732306Y35833631D01*
X82731809Y35827323D01*
X82731808Y35827314D01*
X82729640Y35799763D01*
X82729639Y35799748D01*
X82729449Y35797328D01*
X82729449Y35387948D01*
X82729640Y35385525D01*
X82729641Y35385494D01*
X82729664Y35385206D01*
X82729654Y35385154D01*
X82729736Y35383084D01*
X82729282Y35383067D01*
X82718683Y35323631D01*
X82679044Y35275249D01*
X82620831Y35252370D01*
X82577758Y35247198D01*
X82558436Y35244878D01*
X82558201Y35246842D01*
X82521800Y35246842D01*
X82521564Y35244877D01*
X82436781Y35255059D01*
X82436767Y35255060D01*
X82433102Y35255500D01*
X82246898Y35255500D01*
X82243233Y35255060D01*
X82243218Y35255059D01*
X82158436Y35244877D01*
X82158200Y35246842D01*
X82121800Y35246842D01*
X82121564Y35244877D01*
X82036781Y35255059D01*
X82036767Y35255060D01*
X82033102Y35255500D01*
X81846898Y35255500D01*
X81843233Y35255060D01*
X81843218Y35255059D01*
X81758436Y35244877D01*
X81758200Y35246842D01*
X81721800Y35246842D01*
X81721564Y35244877D01*
X81636781Y35255059D01*
X81636767Y35255060D01*
X81633102Y35255500D01*
X81446898Y35255500D01*
X81443233Y35255060D01*
X81443218Y35255059D01*
X81358436Y35244877D01*
X81358200Y35246842D01*
X81321800Y35246842D01*
X81321564Y35244877D01*
X81236781Y35255059D01*
X81236767Y35255060D01*
X81233102Y35255500D01*
X81046898Y35255500D01*
X81043233Y35255060D01*
X81043218Y35255059D01*
X80958436Y35244877D01*
X80958200Y35246842D01*
X80921800Y35246842D01*
X80921564Y35244877D01*
X80836781Y35255059D01*
X80836767Y35255060D01*
X80833102Y35255500D01*
X80748246Y35255500D01*
X80683456Y35273772D01*
X80637762Y35323205D01*
X80624628Y35389228D01*
X80625308Y35397873D01*
X80625308Y35397876D01*
X80625500Y35400310D01*
X80625500Y35809690D01*
X80622643Y35845993D01*
X80577494Y36001395D01*
X80573521Y36008113D01*
X80573521Y36008114D01*
X80565090Y36022369D01*
X80547821Y36085494D01*
X80565091Y36148617D01*
X80573063Y36162098D01*
X80579207Y36176294D01*
X80615479Y36301143D01*
X80616054Y36312410D01*
X80605075Y36315000D01*
X80313353Y36315000D01*
X80255450Y36330840D01*
X80255271Y36330424D01*
X80252349Y36331689D01*
X80250234Y36332267D01*
X80248112Y36333522D01*
X80248109Y36333524D01*
X80241395Y36337494D01*
X80219384Y36343889D01*
X80092081Y36380875D01*
X80092074Y36380877D01*
X80085993Y36382643D01*
X80079682Y36383140D01*
X80079675Y36383141D01*
X80052124Y36385309D01*
X80052110Y36385310D01*
X80049690Y36385500D01*
X79580310Y36385500D01*
X79577890Y36385310D01*
X79577875Y36385309D01*
X79550324Y36383141D01*
X79550315Y36383140D01*
X79544007Y36382643D01*
X79537927Y36380877D01*
X79537918Y36380875D01*
X79396097Y36339671D01*
X79396094Y36339670D01*
X79388605Y36337494D01*
X79381893Y36333525D01*
X79381887Y36333522D01*
X79379766Y36332267D01*
X79377650Y36331689D01*
X79374729Y36330424D01*
X79374549Y36330840D01*
X79316647Y36315000D01*
X79024925Y36315000D01*
X79013945Y36312410D01*
X79014520Y36301143D01*
X79050792Y36176294D01*
X79056938Y36162092D01*
X79064910Y36148612D01*
X79082178Y36085492D01*
X79064911Y36022372D01*
X79056478Y36008113D01*
X79056475Y36008107D01*
X79052506Y36001395D01*
X79050330Y35993906D01*
X79050329Y35993903D01*
X79009125Y35852082D01*
X79009123Y35852073D01*
X79007357Y35845993D01*
X79006860Y35839685D01*
X79006859Y35839676D01*
X79004691Y35812125D01*
X79004690Y35812110D01*
X79004500Y35809690D01*
X79004500Y35400310D01*
X79004690Y35397890D01*
X79004691Y35397876D01*
X79006859Y35370325D01*
X79006860Y35370318D01*
X79007357Y35364007D01*
X79009123Y35357926D01*
X79009125Y35357919D01*
X79039787Y35252382D01*
X79052506Y35208605D01*
X79134883Y35069313D01*
X79249313Y34954883D01*
X79272132Y34941388D01*
X79278622Y34937550D01*
X79323211Y34892254D01*
X79339500Y34830818D01*
X79339500Y34204500D01*
X79322887Y34142500D01*
X79277500Y34097113D01*
X79215500Y34080500D01*
X79141861Y34080500D01*
X78312487Y34080500D01*
X78296302Y34081561D01*
X78273059Y34084621D01*
X78265000Y34085682D01*
X78256941Y34084621D01*
X78233698Y34081561D01*
X78217513Y34080500D01*
X78170098Y34080500D01*
X78122645Y34089939D01*
X78082417Y34116819D01*
X78061819Y34137417D01*
X78034939Y34177645D01*
X78025500Y34225098D01*
X78025500Y34337245D01*
X78025500Y34339690D01*
X78022643Y34375993D01*
X77977494Y34531395D01*
X77895117Y34670687D01*
X77780687Y34785117D01*
X77641395Y34867494D01*
X77633902Y34869671D01*
X77492081Y34910875D01*
X77492074Y34910877D01*
X77485993Y34912643D01*
X77479682Y34913140D01*
X77479675Y34913141D01*
X77452124Y34915309D01*
X77452110Y34915310D01*
X77449690Y34915500D01*
X77040310Y34915500D01*
X77037890Y34915310D01*
X77037875Y34915309D01*
X77010324Y34913141D01*
X77010315Y34913140D01*
X77004007Y34912643D01*
X76997927Y34910877D01*
X76997918Y34910875D01*
X76856097Y34869671D01*
X76856094Y34869670D01*
X76848605Y34867494D01*
X76841893Y34863525D01*
X76841887Y34863522D01*
X76827628Y34855089D01*
X76764508Y34837822D01*
X76701388Y34855090D01*
X76687908Y34863062D01*
X76673706Y34869208D01*
X76548857Y34905480D01*
X76537590Y34906055D01*
X76535000Y34895075D01*
X76535000Y34603353D01*
X76519160Y34545451D01*
X76519576Y34545271D01*
X76518311Y34542350D01*
X76517733Y34540234D01*
X76516478Y34538113D01*
X76516477Y34538110D01*
X76512506Y34531395D01*
X76510330Y34523906D01*
X76510329Y34523903D01*
X76469125Y34382082D01*
X76469123Y34382073D01*
X76467357Y34375993D01*
X76466860Y34369685D01*
X76466859Y34369676D01*
X76464691Y34342125D01*
X76464690Y34342110D01*
X76464500Y34339690D01*
X76464500Y33870310D01*
X76464690Y33867890D01*
X76464691Y33867876D01*
X76466859Y33840325D01*
X76466860Y33840318D01*
X76467357Y33834007D01*
X76469123Y33827926D01*
X76469125Y33827919D01*
X76504354Y33706664D01*
X76512506Y33678605D01*
X76516474Y33671894D01*
X76516477Y33671889D01*
X76517734Y33669764D01*
X76518313Y33667646D01*
X76519576Y33664728D01*
X76519160Y33664549D01*
X76535000Y33606646D01*
X76535000Y33603354D01*
X76519160Y33545452D01*
X76519576Y33545272D01*
X76518313Y33542355D01*
X76517734Y33540236D01*
X76516477Y33538112D01*
X76516473Y33538104D01*
X76512506Y33531395D01*
X76510330Y33523906D01*
X76510329Y33523903D01*
X76469125Y33382082D01*
X76469123Y33382073D01*
X76467357Y33375993D01*
X76466860Y33369685D01*
X76466859Y33369676D01*
X76464691Y33342125D01*
X76464690Y33342110D01*
X76464500Y33339690D01*
X76464500Y33337245D01*
X76464500Y33004500D01*
X76447887Y32942500D01*
X76402500Y32897113D01*
X76340500Y32880500D01*
X75440097Y32880500D01*
X75392644Y32889939D01*
X75352416Y32916819D01*
X74897819Y33371416D01*
X75507689Y33371416D01*
X75510217Y33358707D01*
X75523359Y33355000D01*
X76018674Y33355000D01*
X76031549Y33358451D01*
X76035000Y33371326D01*
X76035000Y33838674D01*
X76031549Y33851550D01*
X76018674Y33855000D01*
X75523363Y33855000D01*
X75510218Y33851294D01*
X75507690Y33838586D01*
X75509624Y33827995D01*
X75550791Y33686298D01*
X75556941Y33672086D01*
X75559288Y33668117D01*
X75576554Y33605000D01*
X75559288Y33541883D01*
X75556941Y33537915D01*
X75550791Y33523703D01*
X75509623Y33382003D01*
X75507689Y33371416D01*
X74897819Y33371416D01*
X74254718Y34014517D01*
X74224138Y34064910D01*
X74220283Y34123730D01*
X74244023Y34177684D01*
X74253112Y34189529D01*
X74339536Y34302159D01*
X74356091Y34342125D01*
X74368223Y34371416D01*
X75507689Y34371416D01*
X75510217Y34358707D01*
X75523359Y34355000D01*
X76018674Y34355000D01*
X76031549Y34358451D01*
X76035000Y34371326D01*
X76035000Y34895075D01*
X76032409Y34906055D01*
X76021142Y34905480D01*
X75896293Y34869208D01*
X75882091Y34863062D01*
X75756339Y34788692D01*
X75744103Y34779201D01*
X75640799Y34675897D01*
X75631308Y34663661D01*
X75556939Y34537910D01*
X75550791Y34523703D01*
X75509623Y34382003D01*
X75507689Y34371416D01*
X74368223Y34371416D01*
X74371197Y34378595D01*
X74399849Y34447770D01*
X74426730Y34487998D01*
X74462436Y34523703D01*
X74506135Y34567402D01*
X74587869Y34705607D01*
X74632665Y34859796D01*
X74635500Y34895819D01*
X74635499Y35294180D01*
X74632665Y35330204D01*
X74587869Y35484393D01*
X74553871Y35541880D01*
X74536604Y35605000D01*
X74553872Y35668122D01*
X74568303Y35692523D01*
X74587869Y35725607D01*
X74632665Y35879796D01*
X74635500Y35915819D01*
X74635499Y36314180D01*
X74632665Y36350204D01*
X74587869Y36504393D01*
X74506135Y36642598D01*
X74392598Y36756135D01*
X74313966Y36802638D01*
X74309585Y36805229D01*
X82738894Y36805229D01*
X82749874Y36802638D01*
X83273623Y36802638D01*
X83286498Y36806089D01*
X83289949Y36818964D01*
X83789949Y36818964D01*
X83793399Y36806089D01*
X83806275Y36802638D01*
X84330024Y36802638D01*
X84341003Y36805229D01*
X84340428Y36816496D01*
X84304156Y36941345D01*
X84298010Y36955547D01*
X84223640Y37081299D01*
X84214149Y37093535D01*
X84110845Y37196839D01*
X84098609Y37206330D01*
X83972858Y37280699D01*
X83958651Y37286847D01*
X83816951Y37328015D01*
X83806364Y37329949D01*
X83793655Y37327421D01*
X83789949Y37314279D01*
X83789949Y36818964D01*
X83289949Y36818964D01*
X83289949Y37314275D01*
X83286242Y37327420D01*
X83273534Y37329948D01*
X83262943Y37328014D01*
X83121246Y37286847D01*
X83107039Y37280699D01*
X82981288Y37206330D01*
X82969052Y37196839D01*
X82865748Y37093535D01*
X82856257Y37081299D01*
X82781887Y36955547D01*
X82775741Y36941345D01*
X82739469Y36816496D01*
X82738894Y36805229D01*
X74309585Y36805229D01*
X74288682Y36817591D01*
X79013945Y36817591D01*
X79024925Y36815000D01*
X79548674Y36815000D01*
X79561549Y36818451D01*
X79565000Y36831326D01*
X80065000Y36831326D01*
X80068450Y36818451D01*
X80081326Y36815000D01*
X80605075Y36815000D01*
X80616054Y36817591D01*
X80615479Y36828858D01*
X80579207Y36953707D01*
X80573061Y36967909D01*
X80498691Y37093661D01*
X80489200Y37105897D01*
X80385896Y37209201D01*
X80373660Y37218692D01*
X80247909Y37293061D01*
X80233702Y37299209D01*
X80092002Y37340377D01*
X80081415Y37342311D01*
X80068706Y37339783D01*
X80065000Y37326641D01*
X80065000Y36831326D01*
X79565000Y36831326D01*
X79565000Y37326637D01*
X79561293Y37339782D01*
X79548585Y37342310D01*
X79537994Y37340376D01*
X79396297Y37299209D01*
X79382090Y37293061D01*
X79256339Y37218692D01*
X79244103Y37209201D01*
X79140799Y37105897D01*
X79131308Y37093661D01*
X79056938Y36967909D01*
X79050792Y36953707D01*
X79014520Y36828858D01*
X79013945Y36817591D01*
X74288682Y36817591D01*
X74261108Y36833898D01*
X74261106Y36833899D01*
X74254393Y36837869D01*
X74246900Y36840046D01*
X74106292Y36880897D01*
X74106285Y36880899D01*
X74100204Y36882665D01*
X74093893Y36883162D01*
X74093886Y36883163D01*
X74066615Y36885309D01*
X74066600Y36885310D01*
X74064181Y36885500D01*
X74061736Y36885500D01*
X73945098Y36885500D01*
X73897645Y36894939D01*
X73857417Y36921819D01*
X73627175Y37152061D01*
X73386415Y37392820D01*
X73356166Y37442182D01*
X73351624Y37499898D01*
X73373779Y37553385D01*
X73417802Y37590985D01*
X73474097Y37604500D01*
X100651231Y37604500D01*
X100708706Y37590376D01*
G37*
%TD.AperFunction*%
%TA.AperFunction,Conductor*%
G36*
X49094003Y44273554D02*
G01*
X49145694Y44242815D01*
X49176842Y44191371D01*
X49180120Y44131321D01*
X49151117Y43980837D01*
X49150000Y43969134D01*
X49150000Y43611326D01*
X49153450Y43598451D01*
X49166326Y43595000D01*
X50376000Y43595000D01*
X50438000Y43578387D01*
X50483387Y43533000D01*
X50500000Y43471000D01*
X50500000Y41762819D01*
X50502505Y41751928D01*
X50513679Y41752061D01*
X50605670Y41774378D01*
X50616788Y41778226D01*
X50797121Y41860581D01*
X50807319Y41866469D01*
X50968806Y41981464D01*
X50977703Y41989173D01*
X51045756Y42060544D01*
X51094942Y42092154D01*
X51153146Y42097712D01*
X51207426Y42075981D01*
X51245715Y42031794D01*
X51259499Y41974974D01*
X51259499Y40751811D01*
X51256681Y40725527D01*
X51247774Y40684461D01*
X51236595Y40653515D01*
X51236351Y40653046D01*
X51225771Y40636174D01*
X51207630Y40611834D01*
X51194439Y40596829D01*
X51194098Y40596499D01*
X51167677Y40576984D01*
X51130912Y40556740D01*
X51106377Y40546486D01*
X51062200Y40533377D01*
X51062193Y40533374D01*
X51054439Y40531073D01*
X51047541Y40526854D01*
X51047536Y40526851D01*
X50949975Y40467168D01*
X50949974Y40467167D01*
X50943107Y40462966D01*
X50937549Y40457149D01*
X50937543Y40457143D01*
X50858515Y40374414D01*
X50858512Y40374412D01*
X50852955Y40368593D01*
X50849076Y40361549D01*
X50849074Y40361545D01*
X50839019Y40343280D01*
X50833988Y40334141D01*
X50833916Y40334011D01*
X50795370Y40291517D01*
X50741821Y40270923D01*
X50684734Y40276636D01*
X50496095Y40341925D01*
X50490511Y40343280D01*
X50482318Y40342694D01*
X50480000Y40332036D01*
X50480000Y39011326D01*
X50483450Y38998451D01*
X50496326Y38995000D01*
X51313674Y38995000D01*
X51326549Y38998451D01*
X51330000Y39011326D01*
X51330000Y39319450D01*
X51329718Y39325360D01*
X51319372Y39433713D01*
X51331707Y39500564D01*
X51377434Y39550866D01*
X51442810Y39569500D01*
X52400237Y39569500D01*
X52419476Y39567998D01*
X52419616Y39567976D01*
X52419799Y39567947D01*
X52424715Y39567073D01*
X52461266Y39559802D01*
X52493359Y39548674D01*
X52496580Y39547032D01*
X52509162Y39539657D01*
X52528665Y39526626D01*
X52547457Y39511204D01*
X52551202Y39507459D01*
X52566624Y39488667D01*
X52579655Y39469164D01*
X52587030Y39456583D01*
X52588663Y39453379D01*
X52599802Y39421263D01*
X52607068Y39384735D01*
X52607924Y39379945D01*
X52607972Y39379642D01*
X52609499Y39360240D01*
X52609499Y39169901D01*
X52609501Y39169896D01*
X52609501Y39104108D01*
X52611602Y39096265D01*
X52611603Y39096262D01*
X52641506Y38984661D01*
X52641507Y38984657D01*
X52643609Y38976815D01*
X52647668Y38969784D01*
X52647670Y38969780D01*
X52705437Y38869724D01*
X52705439Y38869721D01*
X52709501Y38862686D01*
X52801888Y38770300D01*
X52801888Y38770299D01*
X52802686Y38769501D01*
X52802580Y38769396D01*
X52838903Y38721972D01*
X52847143Y38658109D01*
X52822245Y38598725D01*
X52817108Y38592103D01*
X52817100Y38592090D01*
X52812327Y38585936D01*
X52809234Y38578792D01*
X52809229Y38578781D01*
X52794974Y38545840D01*
X52789838Y38535357D01*
X52772560Y38503927D01*
X52768803Y38497092D01*
X52766864Y38489544D01*
X52766863Y38489539D01*
X52763822Y38477693D01*
X52757521Y38459289D01*
X52752658Y38448052D01*
X52752656Y38448048D01*
X52749562Y38440896D01*
X52748343Y38433201D01*
X52748342Y38433197D01*
X52746567Y38421988D01*
X52723361Y38367079D01*
X52646519Y38264432D01*
X52646516Y38264428D01*
X52641204Y38257331D01*
X52638104Y38249022D01*
X52638104Y38249020D01*
X52595182Y38133940D01*
X52554721Y38079077D01*
X52491375Y38053892D01*
X52424289Y38065996D01*
X52373738Y38111730D01*
X52355000Y38177273D01*
X52355000Y38498674D01*
X52351549Y38511550D01*
X52338674Y38515000D01*
X52290482Y38515000D01*
X52283885Y38514647D01*
X52235332Y38509427D01*
X52220358Y38505889D01*
X52101222Y38461453D01*
X52085810Y38453038D01*
X51984907Y38377502D01*
X51972498Y38365093D01*
X51896962Y38264190D01*
X51888547Y38248778D01*
X51844111Y38129642D01*
X51840573Y38114668D01*
X51835353Y38066115D01*
X51835000Y38059518D01*
X51835000Y37731326D01*
X51838450Y37718451D01*
X51851326Y37715000D01*
X52338674Y37715000D01*
X52352813Y37718789D01*
X52372819Y37738794D01*
X52422182Y37769044D01*
X52479898Y37773586D01*
X52533385Y37751431D01*
X52570985Y37707408D01*
X52584500Y37651113D01*
X52584500Y37339000D01*
X52567887Y37277000D01*
X52522500Y37231613D01*
X52460500Y37215000D01*
X51851326Y37215000D01*
X51838450Y37211550D01*
X51835000Y37198674D01*
X51835000Y36870482D01*
X51835353Y36863886D01*
X51840573Y36815333D01*
X51844111Y36800359D01*
X51888547Y36681223D01*
X51896962Y36665811D01*
X51972498Y36564908D01*
X51984907Y36552499D01*
X52085810Y36476963D01*
X52101221Y36468548D01*
X52108830Y36465710D01*
X52151068Y36439272D01*
X52179488Y36398341D01*
X52189500Y36349527D01*
X52189500Y36344521D01*
X52187974Y36325136D01*
X52184840Y36305342D01*
X52185574Y36297577D01*
X52185574Y36297574D01*
X52188950Y36261862D01*
X52189500Y36250193D01*
X52189500Y34358134D01*
X52188978Y34347079D01*
X52187327Y34339692D01*
X52187571Y34331906D01*
X52187571Y34331898D01*
X52189439Y34272486D01*
X52189500Y34268591D01*
X52189500Y34241009D01*
X52189988Y34237140D01*
X52189989Y34237134D01*
X52190004Y34237016D01*
X52190918Y34225393D01*
X52192045Y34189529D01*
X52192046Y34189522D01*
X52192291Y34181732D01*
X52194467Y34174240D01*
X52194468Y34174238D01*
X52197879Y34162497D01*
X52201825Y34143444D01*
X52204336Y34123567D01*
X52207206Y34116317D01*
X52207208Y34116311D01*
X52220414Y34082955D01*
X52224197Y34071908D01*
X52236382Y34029969D01*
X52240353Y34023254D01*
X52240354Y34023252D01*
X52246581Y34012722D01*
X52255136Y33995260D01*
X52259642Y33983879D01*
X52259643Y33983876D01*
X52262514Y33976627D01*
X52273001Y33962193D01*
X52288181Y33941299D01*
X52294593Y33931537D01*
X52312856Y33900657D01*
X52312859Y33900652D01*
X52316830Y33893939D01*
X52322345Y33888424D01*
X52330990Y33879779D01*
X52343626Y33864985D01*
X52350819Y33855084D01*
X52350823Y33855080D01*
X52355406Y33848772D01*
X52361415Y33843801D01*
X52361416Y33843800D01*
X52389058Y33820933D01*
X52397699Y33813070D01*
X52916902Y33293867D01*
X52924351Y33285681D01*
X52928409Y33279287D01*
X52934094Y33273949D01*
X52934096Y33273946D01*
X52977434Y33233249D01*
X52980230Y33230539D01*
X52999725Y33211044D01*
X53002810Y33208651D01*
X53002896Y33208584D01*
X53011768Y33201006D01*
X53025494Y33188117D01*
X53043613Y33171102D01*
X53050443Y33167347D01*
X53050446Y33167345D01*
X53061166Y33161452D01*
X53077417Y33150778D01*
X53093259Y33138490D01*
X53100416Y33135393D01*
X53100418Y33135392D01*
X53133350Y33121142D01*
X53143845Y33116000D01*
X53182103Y33094967D01*
X53201507Y33089985D01*
X53219909Y33083684D01*
X53231136Y33078826D01*
X53238300Y33075726D01*
X53275892Y33069773D01*
X53281434Y33068895D01*
X53292877Y33066525D01*
X53327620Y33057604D01*
X53327621Y33057604D01*
X53335176Y33055664D01*
X53355212Y33055664D01*
X53374597Y33054139D01*
X53394391Y33051004D01*
X53432471Y33054604D01*
X53437871Y33055114D01*
X53449540Y33055664D01*
X53902548Y33055664D01*
X53964548Y33039051D01*
X54009935Y32993664D01*
X54026548Y32931664D01*
X54026548Y32515470D01*
X54026738Y32513050D01*
X54026739Y32513036D01*
X54028952Y32484913D01*
X54028953Y32484906D01*
X54029450Y32478595D01*
X54031216Y32472514D01*
X54031218Y32472507D01*
X54072338Y32330974D01*
X54075304Y32320766D01*
X54079274Y32314053D01*
X54079275Y32314051D01*
X54154994Y32186016D01*
X54154996Y32186013D01*
X54158967Y32179299D01*
X54275183Y32063083D01*
X54281897Y32059112D01*
X54281899Y32059111D01*
X54325574Y32033282D01*
X54416650Y31979420D01*
X54574479Y31933566D01*
X54611354Y31930664D01*
X55516278Y31930664D01*
X55571121Y31917876D01*
X55614653Y31882151D01*
X55649594Y31836616D01*
X55649597Y31836613D01*
X55665303Y31816144D01*
X55673765Y31805117D01*
X55680211Y31800171D01*
X55698813Y31785897D01*
X55711008Y31775202D01*
X56196063Y31290149D01*
X56206753Y31277961D01*
X56225982Y31252901D01*
X56351423Y31156647D01*
X56497502Y31096139D01*
X56514933Y31093845D01*
X56564775Y31075866D01*
X56602565Y31038716D01*
X56621395Y30989183D01*
X56617826Y30936312D01*
X56582807Y30815775D01*
X56584213Y30808707D01*
X56597356Y30805000D01*
X58882644Y30805000D01*
X58895786Y30808707D01*
X58897192Y30815775D01*
X58866306Y30922089D01*
X58863401Y30978961D01*
X58886222Y31031135D01*
X58929958Y31067607D01*
X58985383Y31080683D01*
X60398735Y31080683D01*
X60456676Y31066313D01*
X60501189Y31026534D01*
X60521954Y30970567D01*
X60529632Y30902428D01*
X60531928Y30895864D01*
X60531930Y30895859D01*
X60586913Y30738727D01*
X60589211Y30732161D01*
X60592910Y30726274D01*
X60592912Y30726270D01*
X60645494Y30642587D01*
X60664500Y30576615D01*
X60664500Y30529500D01*
X60647887Y30467500D01*
X60602500Y30422113D01*
X60540500Y30405500D01*
X59436806Y30405500D01*
X59434386Y30405310D01*
X59434371Y30405309D01*
X59406248Y30403096D01*
X59406239Y30403095D01*
X59399931Y30402598D01*
X59393851Y30400832D01*
X59393842Y30400830D01*
X59249594Y30358921D01*
X59249591Y30358920D01*
X59242102Y30356744D01*
X59235391Y30352776D01*
X59235386Y30352773D01*
X59107351Y30277054D01*
X59107344Y30277050D01*
X59100635Y30273081D01*
X59095118Y30267565D01*
X59088955Y30262783D01*
X59087474Y30264692D01*
X59040919Y30238332D01*
X58974801Y30239965D01*
X58918927Y30275355D01*
X58916617Y30279944D01*
X58897267Y30300876D01*
X58882644Y30305000D01*
X58006326Y30305000D01*
X57993450Y30301550D01*
X57990000Y30288674D01*
X57990000Y29771326D01*
X57993450Y29758451D01*
X58006326Y29755000D01*
X58315697Y29755000D01*
X58320576Y29755192D01*
X58348673Y29757403D01*
X58361079Y29759669D01*
X58505205Y29801542D01*
X58519412Y29807690D01*
X58647342Y29883347D01*
X58652001Y29886960D01*
X58715362Y29912334D01*
X58782553Y29900335D01*
X58833215Y29854598D01*
X58852000Y29788980D01*
X58852000Y29421657D01*
X58833215Y29356038D01*
X58782551Y29310301D01*
X58715359Y29298303D01*
X58654947Y29322499D01*
X58654365Y29323081D01*
X58614561Y29346621D01*
X58519613Y29402773D01*
X58519611Y29402774D01*
X58512898Y29406744D01*
X58505405Y29408921D01*
X58361157Y29450830D01*
X58361150Y29450832D01*
X58355069Y29452598D01*
X58348758Y29453095D01*
X58348751Y29453096D01*
X58320628Y29455309D01*
X58320614Y29455310D01*
X58318194Y29455500D01*
X57161806Y29455500D01*
X57159386Y29455310D01*
X57159371Y29455309D01*
X57131248Y29453096D01*
X57131239Y29453095D01*
X57124931Y29452598D01*
X57118851Y29450832D01*
X57118842Y29450830D01*
X56974594Y29408921D01*
X56974591Y29408920D01*
X56967102Y29406744D01*
X56960389Y29402775D01*
X56960389Y29402774D01*
X56875729Y29352707D01*
X56812609Y29335440D01*
X56755542Y29351052D01*
X56755271Y29350424D01*
X56750863Y29352332D01*
X56749490Y29352707D01*
X56748112Y29353522D01*
X56748109Y29353524D01*
X56741395Y29357494D01*
X56721194Y29363363D01*
X56592081Y29400875D01*
X56592074Y29400877D01*
X56585993Y29402643D01*
X56579682Y29403140D01*
X56579675Y29403141D01*
X56552124Y29405309D01*
X56552110Y29405310D01*
X56549690Y29405500D01*
X56080310Y29405500D01*
X56077890Y29405310D01*
X56077875Y29405309D01*
X56050324Y29403141D01*
X56050315Y29403140D01*
X56044007Y29402643D01*
X56037927Y29400877D01*
X56037918Y29400875D01*
X55896097Y29359671D01*
X55896094Y29359670D01*
X55888605Y29357494D01*
X55881893Y29353525D01*
X55881887Y29353522D01*
X55879766Y29352267D01*
X55877650Y29351689D01*
X55874729Y29350424D01*
X55874549Y29350840D01*
X55816647Y29335000D01*
X55524925Y29335000D01*
X55512015Y29331955D01*
X55503067Y29324493D01*
X55493507Y29310679D01*
X55453683Y29284631D01*
X55406981Y29275500D01*
X53434824Y29275500D01*
X53383206Y29286754D01*
X53340957Y29318475D01*
X53315748Y29364903D01*
X53313129Y29373916D01*
X53313128Y29373918D01*
X53310951Y29381412D01*
X53229217Y29519617D01*
X53115680Y29633154D01*
X52977475Y29714888D01*
X52952679Y29722092D01*
X52829374Y29757916D01*
X52829367Y29757918D01*
X52823286Y29759684D01*
X52816975Y29760181D01*
X52816968Y29760182D01*
X52789697Y29762328D01*
X52789682Y29762329D01*
X52787263Y29762519D01*
X52784817Y29762519D01*
X52291325Y29762519D01*
X52291299Y29762519D01*
X52288902Y29762518D01*
X52286488Y29762329D01*
X52286485Y29762328D01*
X52259193Y29760181D01*
X52259191Y29760181D01*
X52252878Y29759684D01*
X52246800Y29757919D01*
X52246793Y29757917D01*
X52106181Y29717065D01*
X52106178Y29717064D01*
X52098689Y29714888D01*
X52091978Y29710920D01*
X52091973Y29710917D01*
X51967201Y29637127D01*
X51967197Y29637125D01*
X51960484Y29633154D01*
X51954969Y29627640D01*
X51954965Y29627636D01*
X51852465Y29525136D01*
X51852461Y29525132D01*
X51846947Y29519617D01*
X51842976Y29512904D01*
X51842974Y29512900D01*
X51769184Y29388128D01*
X51769181Y29388123D01*
X51765213Y29381412D01*
X51763037Y29373923D01*
X51763036Y29373920D01*
X51722185Y29233312D01*
X51722183Y29233303D01*
X51720417Y29227223D01*
X51719920Y29220915D01*
X51719919Y29220906D01*
X51717773Y29193635D01*
X51717772Y29193619D01*
X51717582Y29191200D01*
X51717582Y28996920D01*
X51717583Y28879500D01*
X51700970Y28817500D01*
X51655583Y28772113D01*
X51593583Y28755500D01*
X50416439Y28755500D01*
X50367626Y28765512D01*
X50326696Y28793931D01*
X50300257Y28836167D01*
X50293883Y28853256D01*
X50258796Y28947331D01*
X50172546Y29062546D01*
X50147523Y29081278D01*
X50064431Y29143481D01*
X50064430Y29143482D01*
X50057331Y29148796D01*
X49986965Y29175041D01*
X49929752Y29196380D01*
X49929750Y29196381D01*
X49922483Y29199091D01*
X49914770Y29199921D01*
X49914767Y29199921D01*
X49866180Y29205145D01*
X49866169Y29205146D01*
X49862873Y29205500D01*
X49859550Y29205500D01*
X47970439Y29205500D01*
X47970420Y29205500D01*
X47967128Y29205499D01*
X47963850Y29205147D01*
X47963838Y29205146D01*
X47915231Y29199921D01*
X47915225Y29199920D01*
X47907517Y29199091D01*
X47900252Y29196382D01*
X47900246Y29196380D01*
X47780980Y29151896D01*
X47780978Y29151896D01*
X47772669Y29148796D01*
X47765572Y29143484D01*
X47765568Y29143481D01*
X47664550Y29067859D01*
X47664546Y29067856D01*
X47657454Y29062546D01*
X47652144Y29055454D01*
X47652141Y29055450D01*
X47576519Y28954432D01*
X47576516Y28954428D01*
X47571204Y28947331D01*
X47568104Y28939022D01*
X47568104Y28939020D01*
X47523620Y28819753D01*
X47523619Y28819750D01*
X47520909Y28812483D01*
X47520079Y28804773D01*
X47520079Y28804768D01*
X47514855Y28756181D01*
X47514854Y28756169D01*
X47514500Y28752873D01*
X47514500Y28749552D01*
X47514500Y28749551D01*
X47514500Y27560440D01*
X47514500Y27560422D01*
X47514501Y27557128D01*
X47514853Y27553850D01*
X47514854Y27553839D01*
X47520079Y27505232D01*
X47520080Y27505227D01*
X47520909Y27497517D01*
X47523619Y27490251D01*
X47523620Y27490247D01*
X47553481Y27410187D01*
X47571204Y27362669D01*
X47576518Y27355570D01*
X47576519Y27355569D01*
X47587883Y27340388D01*
X47657454Y27247454D01*
X47772669Y27161204D01*
X47907517Y27110909D01*
X47967127Y27104500D01*
X49862872Y27104501D01*
X49922483Y27110909D01*
X50057331Y27161204D01*
X50172546Y27247454D01*
X50258796Y27362669D01*
X50300258Y27473835D01*
X50326696Y27516069D01*
X50367626Y27544488D01*
X50416439Y27554500D01*
X51711118Y27554500D01*
X51772555Y27538210D01*
X51817850Y27493621D01*
X51824464Y27482438D01*
X51846947Y27444421D01*
X51960484Y27330884D01*
X52098689Y27249150D01*
X52252878Y27204354D01*
X52288901Y27201519D01*
X52787262Y27201520D01*
X52823286Y27204354D01*
X52977475Y27249150D01*
X53115680Y27330884D01*
X53123476Y27338681D01*
X53163705Y27365561D01*
X53211158Y27375000D01*
X53763891Y27375000D01*
X53804846Y27368041D01*
X53839693Y27348782D01*
X53842791Y27345684D01*
X53995531Y27249711D01*
X54165798Y27190132D01*
X54345053Y27169935D01*
X54524308Y27190132D01*
X54694575Y27249711D01*
X54847315Y27345684D01*
X54974869Y27473238D01*
X55070842Y27625978D01*
X55130421Y27796245D01*
X55138098Y27864384D01*
X55158864Y27920351D01*
X55203377Y27960130D01*
X55261318Y27974500D01*
X55716039Y27974500D01*
X55779159Y27957233D01*
X55888605Y27892506D01*
X56044007Y27847357D01*
X56080310Y27844500D01*
X56547245Y27844500D01*
X56549690Y27844500D01*
X56585993Y27847357D01*
X56741395Y27892506D01*
X56748114Y27896480D01*
X56748117Y27896481D01*
X56800215Y27927292D01*
X56863336Y27944561D01*
X56926456Y27927294D01*
X56967102Y27903256D01*
X57124931Y27857402D01*
X57161806Y27854500D01*
X57569192Y27854500D01*
X57616645Y27845061D01*
X57656873Y27818181D01*
X57882694Y27592360D01*
X57890554Y27583723D01*
X57890619Y27583644D01*
X57894798Y27577060D01*
X57900481Y27571723D01*
X57900483Y27571721D01*
X57945832Y27529136D01*
X57948628Y27526426D01*
X57968965Y27506089D01*
X57972036Y27503707D01*
X57972437Y27503396D01*
X57981323Y27495808D01*
X58014607Y27464552D01*
X58021438Y27460797D01*
X58021439Y27460796D01*
X58033204Y27454328D01*
X58049469Y27443644D01*
X58060069Y27435421D01*
X58060072Y27435419D01*
X58066236Y27430638D01*
X58108128Y27412510D01*
X58118620Y27407370D01*
X58158632Y27385373D01*
X58177526Y27380522D01*
X58179193Y27380094D01*
X58197594Y27373795D01*
X58217074Y27365365D01*
X58224780Y27364145D01*
X58224782Y27364144D01*
X58239211Y27361859D01*
X58262166Y27358224D01*
X58273582Y27355860D01*
X58317823Y27344500D01*
X58339046Y27344500D01*
X58358444Y27342974D01*
X58379405Y27339653D01*
X58424859Y27343950D01*
X58436530Y27344500D01*
X62623927Y27344500D01*
X62635596Y27343950D01*
X62635681Y27343942D01*
X62643296Y27342240D01*
X62713262Y27344440D01*
X62717157Y27344500D01*
X62742025Y27344500D01*
X62745925Y27344500D01*
X62750294Y27345053D01*
X62761939Y27345970D01*
X62807569Y27347403D01*
X62827951Y27353326D01*
X62846991Y27357269D01*
X62868058Y27359929D01*
X62888546Y27368041D01*
X62910508Y27376736D01*
X62921557Y27380520D01*
X62965398Y27393256D01*
X62983660Y27404058D01*
X63001136Y27412620D01*
X63020871Y27420432D01*
X63057816Y27447275D01*
X63067558Y27453674D01*
X63106865Y27476919D01*
X63121869Y27491924D01*
X63136664Y27504562D01*
X63153837Y27517037D01*
X63182947Y27552228D01*
X63190790Y27560846D01*
X63717656Y28087712D01*
X63726291Y28095568D01*
X63726347Y28095615D01*
X63732940Y28099798D01*
X63780897Y28150869D01*
X63783515Y28153571D01*
X63803911Y28173965D01*
X63806610Y28177446D01*
X63814174Y28186305D01*
X63845448Y28219607D01*
X63855674Y28238210D01*
X63866346Y28254458D01*
X63879362Y28271236D01*
X63897495Y28313143D01*
X63902625Y28323614D01*
X63924627Y28363632D01*
X63929906Y28384198D01*
X63936210Y28402605D01*
X63937785Y28406247D01*
X63944635Y28422073D01*
X63951777Y28467171D01*
X63954139Y28478578D01*
X63965500Y28522823D01*
X63965500Y28544052D01*
X63967027Y28563450D01*
X63969125Y28576697D01*
X63970346Y28584405D01*
X63966050Y28629853D01*
X63965500Y28641522D01*
X63965500Y29460041D01*
X63979015Y29516336D01*
X64016615Y29560359D01*
X64070102Y29582514D01*
X64127818Y29577972D01*
X64177181Y29547722D01*
X64244103Y29480800D01*
X64256339Y29471309D01*
X64382090Y29396940D01*
X64396297Y29390792D01*
X64537997Y29349624D01*
X64548584Y29347690D01*
X64561293Y29350218D01*
X64565000Y29363359D01*
X64565000Y29363363D01*
X65065000Y29363363D01*
X65068706Y29350219D01*
X65081414Y29347691D01*
X65092005Y29349625D01*
X65233702Y29390792D01*
X65247909Y29396940D01*
X65373660Y29471309D01*
X65385896Y29480800D01*
X65489200Y29584104D01*
X65498691Y29596340D01*
X65573061Y29722092D01*
X65579207Y29736294D01*
X65615479Y29861143D01*
X65616054Y29872410D01*
X65605075Y29875000D01*
X65081326Y29875000D01*
X65068450Y29871550D01*
X65065000Y29858674D01*
X65065000Y29363363D01*
X64565000Y29363363D01*
X64565000Y30180500D01*
X64581613Y30242500D01*
X64627000Y30287887D01*
X64689000Y30304500D01*
X65047245Y30304500D01*
X65049690Y30304500D01*
X65085993Y30307357D01*
X65241395Y30352506D01*
X65249412Y30357248D01*
X65250234Y30357733D01*
X65252349Y30358312D01*
X65255271Y30359576D01*
X65255450Y30359161D01*
X65313353Y30375000D01*
X65605075Y30375000D01*
X65616054Y30377591D01*
X65615479Y30388858D01*
X65579208Y30513704D01*
X65573058Y30527916D01*
X65565090Y30541389D01*
X65547821Y30604513D01*
X65565090Y30667633D01*
X65577494Y30688605D01*
X65622643Y30844007D01*
X65623140Y30850327D01*
X65623589Y30852782D01*
X65646412Y30904954D01*
X65690147Y30941424D01*
X65745571Y30954500D01*
X65754052Y30954500D01*
X65773449Y30952974D01*
X65794405Y30949654D01*
X65834045Y30953402D01*
X65839853Y30953950D01*
X65851522Y30954500D01*
X66309932Y30954500D01*
X66375904Y30935494D01*
X66417513Y30909349D01*
X66465478Y30879211D01*
X66635745Y30819632D01*
X66815000Y30799435D01*
X66994255Y30819632D01*
X67164522Y30879211D01*
X67317262Y30975184D01*
X67444816Y31102738D01*
X67540789Y31255478D01*
X67600368Y31425745D01*
X67620565Y31605000D01*
X67600368Y31784255D01*
X67540789Y31954522D01*
X67444816Y32107262D01*
X67317262Y32234816D01*
X67164522Y32330789D01*
X67157956Y32333087D01*
X67157949Y32333090D01*
X67002166Y32387601D01*
X66957830Y32414634D01*
X66928452Y32457452D01*
X66919307Y32507851D01*
X66920346Y32514405D01*
X66916280Y32557416D01*
X66916050Y32559853D01*
X66915500Y32571522D01*
X66915500Y32759523D01*
X66932275Y32821803D01*
X66978062Y32867233D01*
X67040472Y32883519D01*
X67102619Y32866256D01*
X67115704Y32858518D01*
X67124602Y32853256D01*
X67282431Y32807402D01*
X67319306Y32804500D01*
X67748249Y32804500D01*
X67750694Y32804500D01*
X67787569Y32807402D01*
X67945398Y32853256D01*
X68086865Y32936919D01*
X68092384Y32942439D01*
X68093998Y32943690D01*
X68142950Y32966726D01*
X68197050Y32966726D01*
X68246002Y32943690D01*
X68247615Y32942439D01*
X68253135Y32936919D01*
X68394602Y32853256D01*
X68552431Y32807402D01*
X68589306Y32804500D01*
X69018249Y32804500D01*
X69020694Y32804500D01*
X69057569Y32807402D01*
X69215398Y32853256D01*
X69287378Y32895825D01*
X69349527Y32913089D01*
X69411937Y32896803D01*
X69457725Y32851374D01*
X69474500Y32789093D01*
X69474500Y32776801D01*
X69473438Y32760616D01*
X69469318Y32729314D01*
X69470379Y32721255D01*
X69474500Y32689953D01*
X69488894Y32580612D01*
X69488895Y32580606D01*
X69489956Y32572552D01*
X69493065Y32565046D01*
X69493066Y32565043D01*
X69538166Y32456162D01*
X69550464Y32426473D01*
X69555411Y32420026D01*
X69616567Y32340325D01*
X69646718Y32301032D01*
X69664012Y32287762D01*
X69671769Y32281810D01*
X69683964Y32271115D01*
X72737898Y29217181D01*
X72768148Y29167818D01*
X72772690Y29110102D01*
X72750535Y29056615D01*
X72706512Y29019015D01*
X72650217Y29005500D01*
X70186091Y29005500D01*
X70169906Y29006561D01*
X70146663Y29009621D01*
X70138604Y29010682D01*
X70130545Y29009621D01*
X70034071Y28996920D01*
X69989901Y28991106D01*
X69989893Y28991104D01*
X69981842Y28990044D01*
X69974337Y28986936D01*
X69974332Y28986934D01*
X69843270Y28932646D01*
X69843266Y28932645D01*
X69835763Y28929536D01*
X69829318Y28924592D01*
X69829315Y28924589D01*
X69716768Y28838229D01*
X69716764Y28838226D01*
X69710322Y28833282D01*
X69705378Y28826840D01*
X69705375Y28826836D01*
X69691098Y28808229D01*
X69680404Y28796036D01*
X69125243Y28240876D01*
X69080487Y28212224D01*
X69027848Y28204938D01*
X69023140Y28205308D01*
X69023127Y28205309D01*
X69020694Y28205500D01*
X68589306Y28205500D01*
X68586886Y28205310D01*
X68586871Y28205309D01*
X68558748Y28203096D01*
X68558739Y28203095D01*
X68552431Y28202598D01*
X68546351Y28200832D01*
X68546342Y28200830D01*
X68402094Y28158921D01*
X68402091Y28158920D01*
X68394602Y28156744D01*
X68387891Y28152776D01*
X68387886Y28152773D01*
X68259847Y28077051D01*
X68259844Y28077049D01*
X68253135Y28073081D01*
X68247621Y28067568D01*
X68245999Y28066309D01*
X68197049Y28043275D01*
X68142951Y28043275D01*
X68094001Y28066309D01*
X68092378Y28067568D01*
X68086865Y28073081D01*
X67955393Y28150833D01*
X67952113Y28152773D01*
X67952111Y28152774D01*
X67945398Y28156744D01*
X67937905Y28158921D01*
X67793657Y28200830D01*
X67793650Y28200832D01*
X67787569Y28202598D01*
X67781258Y28203095D01*
X67781251Y28203096D01*
X67753128Y28205309D01*
X67753114Y28205310D01*
X67750694Y28205500D01*
X67319306Y28205500D01*
X67316886Y28205310D01*
X67316871Y28205309D01*
X67288748Y28203096D01*
X67288739Y28203095D01*
X67282431Y28202598D01*
X67276351Y28200832D01*
X67276342Y28200830D01*
X67132094Y28158921D01*
X67132091Y28158920D01*
X67124602Y28156744D01*
X67117891Y28152776D01*
X67117886Y28152773D01*
X66989847Y28077051D01*
X66989844Y28077049D01*
X66983135Y28073081D01*
X66977621Y28067568D01*
X66975999Y28066309D01*
X66927049Y28043275D01*
X66872951Y28043275D01*
X66824001Y28066309D01*
X66822378Y28067568D01*
X66816865Y28073081D01*
X66685393Y28150833D01*
X66682113Y28152773D01*
X66682111Y28152774D01*
X66675398Y28156744D01*
X66667905Y28158921D01*
X66523657Y28200830D01*
X66523650Y28200832D01*
X66517569Y28202598D01*
X66511258Y28203095D01*
X66511251Y28203096D01*
X66483128Y28205309D01*
X66483114Y28205310D01*
X66480694Y28205500D01*
X66049306Y28205500D01*
X66046886Y28205310D01*
X66046871Y28205309D01*
X66018748Y28203096D01*
X66018739Y28203095D01*
X66012431Y28202598D01*
X66006351Y28200832D01*
X66006342Y28200830D01*
X65862094Y28158921D01*
X65862091Y28158920D01*
X65854602Y28156744D01*
X65847891Y28152776D01*
X65847886Y28152773D01*
X65719851Y28077054D01*
X65719844Y28077050D01*
X65713135Y28073081D01*
X65707620Y28067567D01*
X65707616Y28067563D01*
X65602437Y27962384D01*
X65602433Y27962380D01*
X65596919Y27956865D01*
X65592950Y27950156D01*
X65592946Y27950149D01*
X65517227Y27822114D01*
X65517224Y27822109D01*
X65513256Y27815398D01*
X65511080Y27807909D01*
X65511079Y27807906D01*
X65469170Y27663658D01*
X65469168Y27663649D01*
X65467402Y27657569D01*
X65466905Y27651261D01*
X65466904Y27651252D01*
X65464691Y27623129D01*
X65464690Y27623114D01*
X65464500Y27620694D01*
X65464500Y26189306D01*
X65464690Y26186886D01*
X65464691Y26186872D01*
X65466904Y26158749D01*
X65466905Y26158742D01*
X65467402Y26152431D01*
X65469168Y26146350D01*
X65469170Y26146343D01*
X65505777Y26020343D01*
X65513256Y25994602D01*
X65517226Y25987889D01*
X65517227Y25987887D01*
X65592946Y25859852D01*
X65592948Y25859849D01*
X65596919Y25853135D01*
X65713135Y25736919D01*
X65719849Y25732948D01*
X65719851Y25732947D01*
X65752839Y25713438D01*
X65854602Y25653256D01*
X65870713Y25648576D01*
X65921472Y25619447D01*
X65953219Y25570280D01*
X65958879Y25512029D01*
X65937192Y25457669D01*
X65892989Y25419312D01*
X65836116Y25405500D01*
X63043326Y25405500D01*
X62981889Y25421790D01*
X62936594Y25466379D01*
X62887053Y25550149D01*
X62887052Y25550151D01*
X62883081Y25556865D01*
X62766865Y25673081D01*
X62760151Y25677052D01*
X62760148Y25677054D01*
X62632113Y25752773D01*
X62632111Y25752774D01*
X62625398Y25756744D01*
X62617905Y25758921D01*
X62473657Y25800830D01*
X62473650Y25800832D01*
X62467569Y25802598D01*
X62461258Y25803095D01*
X62461251Y25803096D01*
X62433128Y25805309D01*
X62433114Y25805310D01*
X62430694Y25805500D01*
X61999306Y25805500D01*
X61996886Y25805310D01*
X61996871Y25805309D01*
X61968748Y25803096D01*
X61968739Y25803095D01*
X61962431Y25802598D01*
X61956351Y25800832D01*
X61956342Y25800830D01*
X61812094Y25758921D01*
X61812091Y25758920D01*
X61804602Y25756744D01*
X61797891Y25752776D01*
X61797886Y25752773D01*
X61678121Y25681944D01*
X61615000Y25664676D01*
X61551879Y25681944D01*
X61432113Y25752773D01*
X61432111Y25752774D01*
X61425398Y25756744D01*
X61417905Y25758921D01*
X61273657Y25800830D01*
X61273650Y25800832D01*
X61267569Y25802598D01*
X61261258Y25803095D01*
X61261251Y25803096D01*
X61233128Y25805309D01*
X61233114Y25805310D01*
X61230694Y25805500D01*
X60799306Y25805500D01*
X60796886Y25805310D01*
X60796871Y25805309D01*
X60768748Y25803096D01*
X60768739Y25803095D01*
X60762431Y25802598D01*
X60756351Y25800832D01*
X60756342Y25800830D01*
X60612094Y25758921D01*
X60612091Y25758920D01*
X60604602Y25756744D01*
X60597891Y25752776D01*
X60597886Y25752773D01*
X60478121Y25681944D01*
X60415000Y25664676D01*
X60351879Y25681944D01*
X60232113Y25752773D01*
X60232111Y25752774D01*
X60225398Y25756744D01*
X60217905Y25758921D01*
X60073657Y25800830D01*
X60073650Y25800832D01*
X60067569Y25802598D01*
X60061258Y25803095D01*
X60061251Y25803096D01*
X60033128Y25805309D01*
X60033114Y25805310D01*
X60030694Y25805500D01*
X59599306Y25805500D01*
X59596886Y25805310D01*
X59596871Y25805309D01*
X59568748Y25803096D01*
X59568739Y25803095D01*
X59562431Y25802598D01*
X59556351Y25800832D01*
X59556342Y25800830D01*
X59412094Y25758921D01*
X59412091Y25758920D01*
X59404602Y25756744D01*
X59397891Y25752776D01*
X59397886Y25752773D01*
X59269851Y25677054D01*
X59269844Y25677050D01*
X59263135Y25673081D01*
X59257620Y25667567D01*
X59257616Y25667563D01*
X59152437Y25562384D01*
X59152433Y25562380D01*
X59146919Y25556865D01*
X59142950Y25550156D01*
X59142946Y25550149D01*
X59067227Y25422114D01*
X59067224Y25422109D01*
X59063256Y25415398D01*
X59061080Y25407909D01*
X59061079Y25407906D01*
X59019170Y25263658D01*
X59019168Y25263649D01*
X59017402Y25257569D01*
X59016905Y25251261D01*
X59016904Y25251252D01*
X59014691Y25223129D01*
X59014690Y25223114D01*
X59014500Y25220694D01*
X59014500Y24539306D01*
X59014690Y24536886D01*
X59014691Y24536872D01*
X59016904Y24508749D01*
X59016905Y24508742D01*
X59017402Y24502431D01*
X59019168Y24496350D01*
X59019170Y24496343D01*
X59051472Y24385162D01*
X59063256Y24344602D01*
X59067226Y24337889D01*
X59067227Y24337887D01*
X59142946Y24209852D01*
X59142948Y24209849D01*
X59146919Y24203135D01*
X59263135Y24086919D01*
X59404602Y24003256D01*
X59562431Y23957402D01*
X59599306Y23954500D01*
X59839903Y23954500D01*
X59887356Y23945061D01*
X59927584Y23918181D01*
X59928584Y23917181D01*
X59958834Y23867818D01*
X59963376Y23810102D01*
X59941221Y23756615D01*
X59897198Y23719015D01*
X59840903Y23705500D01*
X54290097Y23705500D01*
X54242644Y23714939D01*
X54202416Y23741819D01*
X53051819Y24892416D01*
X53024939Y24932644D01*
X53015500Y24980097D01*
X53015500Y25218249D01*
X53015500Y25220694D01*
X53012598Y25257569D01*
X52966744Y25415398D01*
X52916993Y25499523D01*
X52887053Y25550149D01*
X52887052Y25550151D01*
X52883081Y25556865D01*
X52766865Y25673081D01*
X52760151Y25677052D01*
X52760148Y25677054D01*
X52632113Y25752773D01*
X52632111Y25752774D01*
X52625398Y25756744D01*
X52617905Y25758921D01*
X52473657Y25800830D01*
X52473650Y25800832D01*
X52467569Y25802598D01*
X52461258Y25803095D01*
X52461251Y25803096D01*
X52433128Y25805309D01*
X52433114Y25805310D01*
X52430694Y25805500D01*
X51999306Y25805500D01*
X51996886Y25805310D01*
X51996871Y25805309D01*
X51968748Y25803096D01*
X51968739Y25803095D01*
X51962431Y25802598D01*
X51956351Y25800832D01*
X51956342Y25800830D01*
X51812094Y25758921D01*
X51812091Y25758920D01*
X51804602Y25756744D01*
X51797891Y25752776D01*
X51797886Y25752773D01*
X51678121Y25681944D01*
X51615000Y25664676D01*
X51551879Y25681944D01*
X51432113Y25752773D01*
X51432111Y25752774D01*
X51425398Y25756744D01*
X51417905Y25758921D01*
X51273657Y25800830D01*
X51273650Y25800832D01*
X51267569Y25802598D01*
X51261258Y25803095D01*
X51261251Y25803096D01*
X51233128Y25805309D01*
X51233114Y25805310D01*
X51230694Y25805500D01*
X50799306Y25805500D01*
X50796886Y25805310D01*
X50796871Y25805309D01*
X50768748Y25803096D01*
X50768739Y25803095D01*
X50762431Y25802598D01*
X50756351Y25800832D01*
X50756342Y25800830D01*
X50612094Y25758921D01*
X50612091Y25758920D01*
X50604602Y25756744D01*
X50597891Y25752776D01*
X50597886Y25752773D01*
X50478121Y25681944D01*
X50415000Y25664676D01*
X50351879Y25681944D01*
X50232113Y25752773D01*
X50232111Y25752774D01*
X50225398Y25756744D01*
X50217905Y25758921D01*
X50073657Y25800830D01*
X50073650Y25800832D01*
X50067569Y25802598D01*
X50061258Y25803095D01*
X50061251Y25803096D01*
X50033128Y25805309D01*
X50033114Y25805310D01*
X50030694Y25805500D01*
X49599306Y25805500D01*
X49596886Y25805310D01*
X49596871Y25805309D01*
X49568748Y25803096D01*
X49568739Y25803095D01*
X49562431Y25802598D01*
X49556351Y25800832D01*
X49556342Y25800830D01*
X49412094Y25758921D01*
X49412091Y25758920D01*
X49404602Y25756744D01*
X49397891Y25752776D01*
X49397886Y25752773D01*
X49269851Y25677054D01*
X49269844Y25677050D01*
X49263135Y25673081D01*
X49257620Y25667567D01*
X49257616Y25667563D01*
X49152437Y25562384D01*
X49152433Y25562380D01*
X49146919Y25556865D01*
X49142950Y25550156D01*
X49142946Y25550149D01*
X49067227Y25422114D01*
X49067224Y25422109D01*
X49063256Y25415398D01*
X49061080Y25407909D01*
X49061079Y25407906D01*
X49019170Y25263658D01*
X49019168Y25263649D01*
X49017402Y25257569D01*
X49016905Y25251261D01*
X49016904Y25251252D01*
X49014691Y25223129D01*
X49014690Y25223114D01*
X49014500Y25220694D01*
X49014500Y24539306D01*
X49014690Y24536886D01*
X49014691Y24536872D01*
X49016904Y24508749D01*
X49016905Y24508742D01*
X49017402Y24502431D01*
X49019168Y24496350D01*
X49019170Y24496343D01*
X49051472Y24385162D01*
X49063256Y24344602D01*
X49067226Y24337889D01*
X49067227Y24337887D01*
X49142946Y24209852D01*
X49142948Y24209849D01*
X49146919Y24203135D01*
X49263135Y24086919D01*
X49404602Y24003256D01*
X49562431Y23957402D01*
X49599306Y23954500D01*
X49839903Y23954500D01*
X49887356Y23945061D01*
X49927584Y23918181D01*
X52131799Y21713966D01*
X52142489Y21701778D01*
X52161718Y21676718D01*
X52249618Y21609270D01*
X52287159Y21580464D01*
X52403727Y21532180D01*
X52433238Y21519956D01*
X52432743Y21518763D01*
X52474270Y21496342D01*
X52507073Y21449331D01*
X52515226Y21392589D01*
X52514755Y21387406D01*
X52514755Y21387404D01*
X52514500Y21384594D01*
X52514500Y20825406D01*
X52514754Y20822603D01*
X52514755Y20822597D01*
X52515095Y20818853D01*
X52520685Y20757343D01*
X52522634Y20751088D01*
X52522636Y20751079D01*
X52567256Y20607891D01*
X52567257Y20607888D01*
X52569488Y20600730D01*
X52573366Y20594315D01*
X52573367Y20594313D01*
X52650472Y20466764D01*
X52650475Y20466760D01*
X52654352Y20460347D01*
X52770347Y20344352D01*
X52776765Y20340473D01*
X52776764Y20340473D01*
X52784795Y20335618D01*
X52829018Y20289763D01*
X52844638Y20228003D01*
X52827532Y20166638D01*
X52782214Y20121864D01*
X52720647Y20105500D01*
X49309353Y20105500D01*
X49247786Y20121864D01*
X49202468Y20166638D01*
X49185362Y20228003D01*
X49200982Y20289763D01*
X49245205Y20335618D01*
X49259653Y20344352D01*
X49375648Y20460347D01*
X49460512Y20600730D01*
X49509315Y20757343D01*
X49515500Y20825406D01*
X49515500Y21384594D01*
X49509315Y21452657D01*
X49504477Y21468181D01*
X49469488Y21580464D01*
X49460512Y21609270D01*
X49422729Y21671771D01*
X49379527Y21743237D01*
X49379525Y21743240D01*
X49375648Y21749653D01*
X49259653Y21865648D01*
X49253240Y21869525D01*
X49253236Y21869528D01*
X49125687Y21946633D01*
X49125685Y21946634D01*
X49119270Y21950512D01*
X49112112Y21952743D01*
X49112109Y21952744D01*
X48968921Y21997364D01*
X48968912Y21997366D01*
X48962657Y21999315D01*
X48956125Y21999909D01*
X48956123Y21999909D01*
X48897403Y22005245D01*
X48897397Y22005246D01*
X48894594Y22005500D01*
X48435406Y22005500D01*
X48432603Y22005246D01*
X48432596Y22005245D01*
X48373876Y21999909D01*
X48373872Y21999909D01*
X48367343Y21999315D01*
X48361089Y21997367D01*
X48361078Y21997364D01*
X48217890Y21952744D01*
X48217883Y21952742D01*
X48210730Y21950512D01*
X48204317Y21946636D01*
X48204312Y21946633D01*
X48076763Y21869528D01*
X48076755Y21869522D01*
X48070347Y21865648D01*
X48065047Y21860349D01*
X48065043Y21860345D01*
X47959655Y21754957D01*
X47959651Y21754953D01*
X47954352Y21749653D01*
X47950478Y21743245D01*
X47950472Y21743237D01*
X47873367Y21615688D01*
X47873364Y21615683D01*
X47869488Y21609270D01*
X47867258Y21602117D01*
X47867256Y21602110D01*
X47822636Y21458922D01*
X47822633Y21458911D01*
X47820685Y21452657D01*
X47820091Y21446128D01*
X47820091Y21446124D01*
X47814756Y21387406D01*
X47814500Y21384594D01*
X47814500Y20825406D01*
X47814754Y20822603D01*
X47814755Y20822597D01*
X47815095Y20818853D01*
X47820685Y20757343D01*
X47822634Y20751088D01*
X47822636Y20751079D01*
X47867256Y20607891D01*
X47867257Y20607888D01*
X47869488Y20600730D01*
X47873366Y20594315D01*
X47873367Y20594313D01*
X47950472Y20466764D01*
X47950475Y20466760D01*
X47954352Y20460347D01*
X48070347Y20344352D01*
X48076765Y20340473D01*
X48076764Y20340473D01*
X48084795Y20335618D01*
X48129018Y20289763D01*
X48144638Y20228003D01*
X48127532Y20166638D01*
X48082214Y20121864D01*
X48020647Y20105500D01*
X21745500Y20105500D01*
X21745000Y20105500D01*
X21679108Y20105500D01*
X21671267Y20103400D01*
X21671259Y20103398D01*
X21559665Y20073496D01*
X21559662Y20073496D01*
X21551814Y20071392D01*
X21544777Y20067330D01*
X21544774Y20067328D01*
X21444723Y20009564D01*
X21444716Y20009560D01*
X21437686Y20005500D01*
X21431943Y19999758D01*
X21431939Y19999754D01*
X21350246Y19918061D01*
X21350242Y19918057D01*
X21344500Y19912314D01*
X21340440Y19905284D01*
X21340436Y19905277D01*
X21282672Y19805226D01*
X21282670Y19805223D01*
X21278608Y19798186D01*
X21276505Y19790341D01*
X21276504Y19790336D01*
X21251471Y19696907D01*
X21226686Y19649295D01*
X21184101Y19616618D01*
X21131696Y19605000D01*
X16858304Y19605000D01*
X16805899Y19616618D01*
X16763314Y19649295D01*
X16738529Y19696907D01*
X16713495Y19790336D01*
X16711392Y19798186D01*
X16645500Y19912314D01*
X16552314Y20005500D01*
X16545279Y20009562D01*
X16545276Y20009564D01*
X16445225Y20067328D01*
X16438186Y20071392D01*
X16430334Y20073496D01*
X16318740Y20103398D01*
X16318733Y20103399D01*
X16310892Y20105500D01*
X16302766Y20105500D01*
X2818247Y20105500D01*
X2811757Y20105670D01*
X2681884Y20112477D01*
X2681421Y20112502D01*
X2501111Y20122628D01*
X2488666Y20123960D01*
X2340087Y20147493D01*
X2338715Y20147718D01*
X2179694Y20174736D01*
X2168370Y20177209D01*
X2019419Y20217121D01*
X2017185Y20217742D01*
X1865836Y20261345D01*
X1855727Y20264735D01*
X1710353Y20320538D01*
X1707337Y20321741D01*
X1563247Y20381425D01*
X1554404Y20385502D01*
X1414934Y20456567D01*
X1411250Y20458523D01*
X1275460Y20533570D01*
X1267921Y20538093D01*
X1136266Y20623591D01*
X1132051Y20626454D01*
X1005851Y20715998D01*
X999570Y20720761D01*
X877431Y20819667D01*
X872840Y20823573D01*
X757574Y20926581D01*
X752520Y20931360D01*
X641358Y21042522D01*
X636579Y21047576D01*
X533571Y21162842D01*
X529665Y21167433D01*
X526151Y21171772D01*
X430757Y21289574D01*
X425996Y21295853D01*
X336452Y21422053D01*
X333604Y21426246D01*
X248081Y21557939D01*
X243568Y21565462D01*
X232542Y21585412D01*
X184814Y21671771D01*
X168521Y21701252D01*
X166565Y21704936D01*
X95500Y21844406D01*
X91430Y21853232D01*
X31714Y21997401D01*
X30562Y22000290D01*
X-25271Y22145740D01*
X-28653Y22155826D01*
X-72275Y22307239D01*
X-72866Y22309365D01*
X-112798Y22458394D01*
X-115262Y22469676D01*
X-142291Y22628755D01*
X-142509Y22630089D01*
X-166045Y22778691D01*
X-167372Y22791092D01*
X-177515Y22971715D01*
X-177524Y22971886D01*
X-184331Y23101757D01*
X-184500Y23108245D01*
X-184500Y28105000D01*
X309357Y28105000D01*
X309781Y28099883D01*
X329467Y27862299D01*
X329468Y27862291D01*
X329892Y27857179D01*
X331149Y27852212D01*
X331151Y27852205D01*
X388440Y27625978D01*
X390937Y27616119D01*
X392997Y27611423D01*
X488766Y27393090D01*
X488769Y27393084D01*
X490827Y27388393D01*
X493627Y27384107D01*
X493631Y27384100D01*
X609910Y27206122D01*
X626836Y27180215D01*
X630310Y27176441D01*
X630311Y27176440D01*
X791784Y27001033D01*
X791787Y27001030D01*
X795256Y26997262D01*
X991491Y26844526D01*
X1149517Y26759007D01*
X1197023Y26713426D01*
X1214500Y26649952D01*
X1214500Y23214626D01*
X1213438Y23198441D01*
X1209318Y23167139D01*
X1210379Y23159080D01*
X1214500Y23127778D01*
X1228894Y23018437D01*
X1228895Y23018431D01*
X1229956Y23010377D01*
X1233065Y23002871D01*
X1233066Y23002868D01*
X1265113Y22925500D01*
X1290464Y22864298D01*
X1386718Y22738857D01*
X1393164Y22733911D01*
X1411769Y22719635D01*
X1423964Y22708940D01*
X2918938Y21213966D01*
X2929628Y21201778D01*
X2948857Y21176718D01*
X3045270Y21102738D01*
X3074298Y21080464D01*
X3220377Y21019956D01*
X3377139Y20999318D01*
X3385198Y21000379D01*
X3408441Y21003439D01*
X3424626Y21004500D01*
X5733838Y21004500D01*
X5774793Y20997541D01*
X5809640Y20978282D01*
X5812738Y20975184D01*
X5965478Y20879211D01*
X6135745Y20819632D01*
X6315000Y20799435D01*
X6494255Y20819632D01*
X6664522Y20879211D01*
X6817262Y20975184D01*
X6944816Y21102738D01*
X7040789Y21255478D01*
X7100368Y21425745D01*
X7120565Y21605000D01*
X7100368Y21784255D01*
X7040789Y21954522D01*
X6987689Y22039029D01*
X6968684Y22105000D01*
X6987690Y22170972D01*
X6992171Y22178104D01*
X7040789Y22255478D01*
X7100368Y22425745D01*
X7120565Y22605000D01*
X7100368Y22784255D01*
X7040789Y22954522D01*
X6944816Y23107262D01*
X6817262Y23234816D01*
X6723448Y23293763D01*
X6670412Y23327088D01*
X6664522Y23330789D01*
X6657959Y23333086D01*
X6657956Y23333087D01*
X6500824Y23388070D01*
X6500819Y23388072D01*
X6494255Y23390368D01*
X6487335Y23391148D01*
X6487334Y23391148D01*
X6321923Y23409785D01*
X6315000Y23410565D01*
X6308077Y23409785D01*
X6142665Y23391148D01*
X6142662Y23391148D01*
X6135745Y23390368D01*
X6129182Y23388072D01*
X6129175Y23388070D01*
X5972043Y23333087D01*
X5972036Y23333085D01*
X5965478Y23330789D01*
X5959590Y23327090D01*
X5959587Y23327088D01*
X5818633Y23238521D01*
X5818627Y23238517D01*
X5812738Y23234816D01*
X5809640Y23231719D01*
X5774793Y23212459D01*
X5733838Y23205500D01*
X4987272Y23205500D01*
X4939819Y23214939D01*
X4899591Y23241819D01*
X4853338Y23288072D01*
X4847820Y23293590D01*
X4841106Y23297561D01*
X4841103Y23297563D01*
X4713612Y23372960D01*
X4713610Y23372961D01*
X4706897Y23376931D01*
X4697865Y23379555D01*
X4555763Y23420841D01*
X4555755Y23420843D01*
X4549675Y23422609D01*
X4543364Y23423106D01*
X4543357Y23423107D01*
X4515374Y23425309D01*
X4515360Y23425310D01*
X4512940Y23425500D01*
X4087060Y23425500D01*
X4084640Y23425310D01*
X4084625Y23425309D01*
X4050325Y23422609D01*
X4050177Y23424487D01*
X4007942Y23426110D01*
X3960078Y23450800D01*
X3927196Y23493455D01*
X3915500Y23546027D01*
X3915500Y23960422D01*
X6714500Y23960422D01*
X6714501Y23957128D01*
X6714853Y23953850D01*
X6714854Y23953839D01*
X6720079Y23905232D01*
X6720080Y23905227D01*
X6720909Y23897517D01*
X6723619Y23890251D01*
X6723620Y23890247D01*
X6749029Y23822124D01*
X6771204Y23762669D01*
X6776518Y23755570D01*
X6776519Y23755569D01*
X6822910Y23693598D01*
X6857454Y23647454D01*
X6972669Y23561204D01*
X7107517Y23510909D01*
X7167127Y23504500D01*
X10462872Y23504501D01*
X10522483Y23510909D01*
X10657331Y23561204D01*
X10772546Y23647454D01*
X10858796Y23762669D01*
X10909091Y23897517D01*
X10915500Y23957127D01*
X10915499Y26052872D01*
X10909091Y26112483D01*
X10858796Y26247331D01*
X10772546Y26362546D01*
X10705590Y26412669D01*
X10664431Y26443481D01*
X10664430Y26443482D01*
X10657331Y26448796D01*
X10572328Y26480500D01*
X10529752Y26496380D01*
X10529750Y26496381D01*
X10522483Y26499091D01*
X10514770Y26499921D01*
X10514767Y26499921D01*
X10466180Y26505145D01*
X10466169Y26505146D01*
X10462873Y26505500D01*
X10459550Y26505500D01*
X7170439Y26505500D01*
X7170420Y26505500D01*
X7167128Y26505499D01*
X7163850Y26505147D01*
X7163838Y26505146D01*
X7115231Y26499921D01*
X7115225Y26499920D01*
X7107517Y26499091D01*
X7100252Y26496382D01*
X7100246Y26496380D01*
X6980980Y26451896D01*
X6980978Y26451896D01*
X6972669Y26448796D01*
X6965572Y26443484D01*
X6965568Y26443481D01*
X6864550Y26367859D01*
X6864546Y26367856D01*
X6857454Y26362546D01*
X6852144Y26355454D01*
X6852141Y26355450D01*
X6776519Y26254432D01*
X6776516Y26254428D01*
X6771204Y26247331D01*
X6768104Y26239022D01*
X6768104Y26239020D01*
X6723620Y26119753D01*
X6723619Y26119750D01*
X6720909Y26112483D01*
X6720079Y26104773D01*
X6720079Y26104768D01*
X6714855Y26056181D01*
X6714854Y26056169D01*
X6714500Y26052873D01*
X6714500Y26049552D01*
X6714500Y26049551D01*
X6714500Y23960440D01*
X6714500Y23960422D01*
X3915500Y23960422D01*
X3915500Y31557513D01*
X3916561Y31573698D01*
X3919621Y31596941D01*
X3920682Y31605000D01*
X3900044Y31761762D01*
X3839536Y31907841D01*
X3826459Y31924883D01*
X3743282Y32033282D01*
X3718222Y32052511D01*
X3706034Y32063201D01*
X3271498Y32497737D01*
X3238351Y32557551D01*
X3241408Y32615525D01*
X3239063Y32616119D01*
X3244862Y32639020D01*
X3300108Y32857179D01*
X3320643Y33105000D01*
X14809357Y33105000D01*
X14809781Y33099883D01*
X14829467Y32862299D01*
X14829468Y32862291D01*
X14829892Y32857179D01*
X14831149Y32852212D01*
X14831151Y32852205D01*
X14885199Y32638778D01*
X14890937Y32616119D01*
X14892997Y32611423D01*
X14988766Y32393090D01*
X14988769Y32393084D01*
X14990827Y32388393D01*
X14993627Y32384107D01*
X14993631Y32384100D01*
X15094383Y32229888D01*
X15126836Y32180215D01*
X15130310Y32176441D01*
X15130311Y32176440D01*
X15291784Y32001033D01*
X15295256Y31997262D01*
X15299302Y31994113D01*
X15299303Y31994112D01*
X15401070Y31914903D01*
X15437942Y31868034D01*
X15442462Y31843315D01*
X15457409Y31816144D01*
X16580872Y30692681D01*
X16612966Y30637094D01*
X16612966Y30572906D01*
X16580872Y30517319D01*
X16402681Y30339128D01*
X16347094Y30307034D01*
X16282906Y30307034D01*
X16227319Y30339128D01*
X15101345Y31465102D01*
X15091964Y31471026D01*
X15083997Y31463301D01*
X14994072Y31325662D01*
X14989207Y31316672D01*
X14893472Y31098415D01*
X14890153Y31088748D01*
X14831646Y30857713D01*
X14829962Y30847619D01*
X14810283Y30610117D01*
X14810283Y30599883D01*
X14829962Y30362382D01*
X14831646Y30352288D01*
X14890153Y30121253D01*
X14893472Y30111586D01*
X14989207Y29893329D01*
X14994073Y29884339D01*
X15103613Y29716674D01*
X15123752Y29652434D01*
X15107355Y29587138D01*
X15070779Y29551320D01*
X15072669Y29548796D01*
X14964550Y29467859D01*
X14964546Y29467856D01*
X14957454Y29462546D01*
X14952144Y29455454D01*
X14952141Y29455450D01*
X14876519Y29354432D01*
X14876516Y29354428D01*
X14871204Y29347331D01*
X14868104Y29339022D01*
X14868104Y29339020D01*
X14823620Y29219753D01*
X14823619Y29219750D01*
X14820909Y29212483D01*
X14820079Y29204773D01*
X14820079Y29204768D01*
X14814855Y29156181D01*
X14814854Y29156169D01*
X14814500Y29152873D01*
X14814500Y29149552D01*
X14814500Y29149551D01*
X14814500Y27060440D01*
X14814500Y27060422D01*
X14814501Y27057128D01*
X14814853Y27053850D01*
X14814854Y27053839D01*
X14820079Y27005232D01*
X14820080Y27005227D01*
X14820909Y26997517D01*
X14823619Y26990251D01*
X14823620Y26990247D01*
X14850905Y26917093D01*
X14871204Y26862669D01*
X14876518Y26855570D01*
X14876519Y26855569D01*
X14933838Y26779000D01*
X14957454Y26747454D01*
X15072669Y26661204D01*
X15207517Y26610909D01*
X15267127Y26604500D01*
X15590500Y26604500D01*
X15652500Y26587887D01*
X15697887Y26542500D01*
X15714500Y26480500D01*
X15714500Y24251987D01*
X15713438Y24235802D01*
X15709318Y24204500D01*
X15710379Y24196441D01*
X15714500Y24165139D01*
X15728894Y24055798D01*
X15728895Y24055792D01*
X15729956Y24047738D01*
X15733065Y24040232D01*
X15733066Y24040229D01*
X15787354Y23909167D01*
X15790464Y23901659D01*
X15886718Y23776218D01*
X15893164Y23771272D01*
X15911769Y23756996D01*
X15923964Y23746301D01*
X16484299Y23185966D01*
X16508338Y23152087D01*
X16519838Y23112169D01*
X16525075Y23065685D01*
X16529632Y23025245D01*
X16534835Y23010377D01*
X16586912Y22861546D01*
X16589211Y22854978D01*
X16592912Y22849088D01*
X16665282Y22733911D01*
X16685184Y22702238D01*
X16812738Y22574684D01*
X16965478Y22478711D01*
X17135745Y22419132D01*
X17315000Y22398935D01*
X17494255Y22419132D01*
X17664522Y22478711D01*
X17817262Y22574684D01*
X17944816Y22702238D01*
X18040789Y22854978D01*
X18066823Y22929382D01*
X18096183Y22976107D01*
X18142910Y23005467D01*
X18197748Y23011646D01*
X18275655Y23002868D01*
X18315000Y22998435D01*
X18494255Y23018632D01*
X18664522Y23078211D01*
X18817262Y23174184D01*
X18944816Y23301738D01*
X19040789Y23454478D01*
X19100368Y23624745D01*
X19120565Y23804000D01*
X19100368Y23983255D01*
X19040789Y24153522D01*
X18944816Y24306262D01*
X18941718Y24309360D01*
X18922459Y24344207D01*
X18915500Y24385162D01*
X18915500Y27560422D01*
X41314500Y27560422D01*
X41314501Y27557128D01*
X41314853Y27553850D01*
X41314854Y27553839D01*
X41320079Y27505232D01*
X41320080Y27505227D01*
X41320909Y27497517D01*
X41323619Y27490251D01*
X41323620Y27490247D01*
X41353481Y27410187D01*
X41371204Y27362669D01*
X41376518Y27355570D01*
X41376519Y27355569D01*
X41387883Y27340388D01*
X41457454Y27247454D01*
X41572669Y27161204D01*
X41707517Y27110909D01*
X41767127Y27104500D01*
X43662872Y27104501D01*
X43722483Y27110909D01*
X43857331Y27161204D01*
X43972546Y27247454D01*
X44058796Y27362669D01*
X44109091Y27497517D01*
X44115500Y27557127D01*
X44115499Y28752872D01*
X44109091Y28812483D01*
X44058796Y28947331D01*
X43972546Y29062546D01*
X43947523Y29081278D01*
X43864431Y29143481D01*
X43864430Y29143482D01*
X43857331Y29148796D01*
X43786965Y29175041D01*
X43729752Y29196380D01*
X43729750Y29196381D01*
X43722483Y29199091D01*
X43714770Y29199921D01*
X43714767Y29199921D01*
X43666180Y29205145D01*
X43666169Y29205146D01*
X43662873Y29205500D01*
X43659550Y29205500D01*
X41770439Y29205500D01*
X41770420Y29205500D01*
X41767128Y29205499D01*
X41763850Y29205147D01*
X41763838Y29205146D01*
X41715231Y29199921D01*
X41715225Y29199920D01*
X41707517Y29199091D01*
X41700252Y29196382D01*
X41700246Y29196380D01*
X41580980Y29151896D01*
X41580978Y29151896D01*
X41572669Y29148796D01*
X41565572Y29143484D01*
X41565568Y29143481D01*
X41464550Y29067859D01*
X41464546Y29067856D01*
X41457454Y29062546D01*
X41452144Y29055454D01*
X41452141Y29055450D01*
X41376519Y28954432D01*
X41376516Y28954428D01*
X41371204Y28947331D01*
X41368104Y28939022D01*
X41368104Y28939020D01*
X41323620Y28819753D01*
X41323619Y28819750D01*
X41320909Y28812483D01*
X41320079Y28804773D01*
X41320079Y28804768D01*
X41314855Y28756181D01*
X41314854Y28756169D01*
X41314500Y28752873D01*
X41314500Y28749552D01*
X41314500Y28749551D01*
X41314500Y27560440D01*
X41314500Y27560422D01*
X18915500Y27560422D01*
X18915500Y29837591D01*
X55513945Y29837591D01*
X55524925Y29835000D01*
X56048674Y29835000D01*
X56061549Y29838451D01*
X56065000Y29851326D01*
X56565000Y29851326D01*
X56568450Y29838451D01*
X56581326Y29835000D01*
X57052790Y29835000D01*
X57105195Y29823382D01*
X57147780Y29790705D01*
X57161363Y29764612D01*
X57167186Y29758789D01*
X57181326Y29755000D01*
X57473674Y29755000D01*
X57486549Y29758451D01*
X57490000Y29771326D01*
X57490000Y30288674D01*
X57486549Y30301550D01*
X57473674Y30305000D01*
X56581326Y30305000D01*
X56568450Y30301550D01*
X56565000Y30288674D01*
X56565000Y29851326D01*
X56065000Y29851326D01*
X56065000Y30346637D01*
X56061293Y30359782D01*
X56048585Y30362310D01*
X56037994Y30360376D01*
X55896297Y30319209D01*
X55882090Y30313061D01*
X55756339Y30238692D01*
X55744103Y30229201D01*
X55640799Y30125897D01*
X55631308Y30113661D01*
X55556938Y29987909D01*
X55550792Y29973707D01*
X55514520Y29848858D01*
X55513945Y29837591D01*
X18915500Y29837591D01*
X18915500Y31057513D01*
X18916561Y31073698D01*
X18919621Y31096941D01*
X18920682Y31105000D01*
X18900213Y31260482D01*
X41315000Y31260482D01*
X41315353Y31253886D01*
X41320573Y31205333D01*
X41324111Y31190359D01*
X41368547Y31071223D01*
X41376962Y31055811D01*
X41452498Y30954908D01*
X41464907Y30942499D01*
X41565810Y30866963D01*
X41581222Y30858548D01*
X41700358Y30814112D01*
X41715332Y30810574D01*
X41763885Y30805354D01*
X41770482Y30805000D01*
X42448674Y30805000D01*
X42461549Y30808451D01*
X42465000Y30821326D01*
X42965000Y30821326D01*
X42968450Y30808451D01*
X42981326Y30805000D01*
X43659518Y30805000D01*
X43666114Y30805354D01*
X43714667Y30810574D01*
X43729641Y30814112D01*
X43848777Y30858548D01*
X43864189Y30866963D01*
X43965092Y30942499D01*
X43977501Y30954908D01*
X44053037Y31055811D01*
X44061452Y31071223D01*
X44105888Y31190359D01*
X44109426Y31205333D01*
X44114646Y31253886D01*
X44114997Y31260422D01*
X47514500Y31260422D01*
X47514501Y31257128D01*
X47514853Y31253850D01*
X47514854Y31253839D01*
X47520079Y31205232D01*
X47520080Y31205227D01*
X47520909Y31197517D01*
X47523619Y31190251D01*
X47523620Y31190247D01*
X47537753Y31152356D01*
X47571204Y31062669D01*
X47576518Y31055570D01*
X47576519Y31055569D01*
X47645633Y30963244D01*
X47657454Y30947454D01*
X47772669Y30861204D01*
X47907517Y30810909D01*
X47967127Y30804500D01*
X49862872Y30804501D01*
X49922483Y30810909D01*
X50057331Y30861204D01*
X50172546Y30947454D01*
X50258796Y31062669D01*
X50309091Y31197517D01*
X50315500Y31257127D01*
X50315499Y32452872D01*
X50309091Y32512483D01*
X50258796Y32647331D01*
X50172546Y32762546D01*
X50057331Y32848796D01*
X49963242Y32883889D01*
X49929752Y32896380D01*
X49929750Y32896381D01*
X49922483Y32899091D01*
X49914770Y32899921D01*
X49914767Y32899921D01*
X49866180Y32905145D01*
X49866169Y32905146D01*
X49862873Y32905500D01*
X49859550Y32905500D01*
X47970439Y32905500D01*
X47970420Y32905500D01*
X47967128Y32905499D01*
X47963850Y32905147D01*
X47963838Y32905146D01*
X47915231Y32899921D01*
X47915225Y32899920D01*
X47907517Y32899091D01*
X47900252Y32896382D01*
X47900246Y32896380D01*
X47780980Y32851896D01*
X47780978Y32851896D01*
X47772669Y32848796D01*
X47765572Y32843484D01*
X47765568Y32843481D01*
X47664550Y32767859D01*
X47664546Y32767856D01*
X47657454Y32762546D01*
X47652144Y32755454D01*
X47652141Y32755450D01*
X47576519Y32654432D01*
X47576516Y32654428D01*
X47571204Y32647331D01*
X47568104Y32639022D01*
X47568104Y32639020D01*
X47523620Y32519753D01*
X47523619Y32519750D01*
X47520909Y32512483D01*
X47520079Y32504773D01*
X47520079Y32504768D01*
X47514855Y32456181D01*
X47514854Y32456169D01*
X47514500Y32452873D01*
X47514500Y32449552D01*
X47514500Y32449551D01*
X47514500Y31260440D01*
X47514500Y31260422D01*
X44114997Y31260422D01*
X44115000Y31260482D01*
X44115000Y31588674D01*
X44111549Y31601550D01*
X44098674Y31605000D01*
X42981326Y31605000D01*
X42968450Y31601550D01*
X42965000Y31588674D01*
X42965000Y30821326D01*
X42465000Y30821326D01*
X42465000Y31588674D01*
X42461549Y31601550D01*
X42448674Y31605000D01*
X41331326Y31605000D01*
X41318450Y31601550D01*
X41315000Y31588674D01*
X41315000Y31260482D01*
X18900213Y31260482D01*
X18900044Y31261762D01*
X18839536Y31407841D01*
X18834837Y31413965D01*
X18830838Y31419176D01*
X18748228Y31526836D01*
X18743282Y31533282D01*
X18718222Y31552511D01*
X18706034Y31563201D01*
X18147909Y32121326D01*
X41315000Y32121326D01*
X41318450Y32108451D01*
X41331326Y32105000D01*
X42448674Y32105000D01*
X42461549Y32108451D01*
X42465000Y32121326D01*
X42965000Y32121326D01*
X42968450Y32108451D01*
X42981326Y32105000D01*
X44098674Y32105000D01*
X44111549Y32108451D01*
X44115000Y32121326D01*
X44115000Y32449518D01*
X44114646Y32456115D01*
X44109426Y32504668D01*
X44105888Y32519642D01*
X44061452Y32638778D01*
X44053037Y32654190D01*
X43977501Y32755093D01*
X43965092Y32767502D01*
X43864189Y32843038D01*
X43848777Y32851453D01*
X43729641Y32895889D01*
X43714667Y32899427D01*
X43666114Y32904647D01*
X43659518Y32905000D01*
X42981326Y32905000D01*
X42968450Y32901550D01*
X42965000Y32888674D01*
X42965000Y32121326D01*
X42465000Y32121326D01*
X42465000Y32888674D01*
X42461549Y32901550D01*
X42448674Y32905000D01*
X41770482Y32905000D01*
X41763885Y32904647D01*
X41715332Y32899427D01*
X41700358Y32895889D01*
X41581222Y32851453D01*
X41565810Y32843038D01*
X41464907Y32767502D01*
X41452498Y32755093D01*
X41376962Y32654190D01*
X41368547Y32638778D01*
X41324111Y32519642D01*
X41320573Y32504668D01*
X41315353Y32456115D01*
X41315000Y32449518D01*
X41315000Y32121326D01*
X18147909Y32121326D01*
X17771498Y32497737D01*
X17738351Y32557551D01*
X17741408Y32615525D01*
X17739063Y32616119D01*
X17744862Y32639020D01*
X17800108Y32857179D01*
X17820643Y33105000D01*
X17800108Y33352821D01*
X17739063Y33593881D01*
X17642918Y33813070D01*
X17641233Y33816911D01*
X17641232Y33816913D01*
X17639173Y33821607D01*
X17635049Y33827919D01*
X17542016Y33970317D01*
X17503164Y34029785D01*
X17449509Y34088070D01*
X17338215Y34208968D01*
X17338211Y34208971D01*
X17334744Y34212738D01*
X17194398Y34321974D01*
X17142559Y34362322D01*
X17142557Y34362324D01*
X17138509Y34365474D01*
X17133997Y34367916D01*
X16924316Y34481390D01*
X16924310Y34481393D01*
X16919810Y34483828D01*
X16914969Y34485490D01*
X16914962Y34485493D01*
X16689465Y34562906D01*
X16689461Y34562907D01*
X16684614Y34564571D01*
X16675768Y34566048D01*
X16444398Y34604656D01*
X16444387Y34604657D01*
X16439335Y34605500D01*
X16190665Y34605500D01*
X16185613Y34604657D01*
X16185601Y34604656D01*
X15950443Y34565415D01*
X15950441Y34565415D01*
X15945386Y34564571D01*
X15940541Y34562908D01*
X15940534Y34562906D01*
X15715037Y34485493D01*
X15715026Y34485489D01*
X15710190Y34483828D01*
X15705693Y34481395D01*
X15705683Y34481390D01*
X15496002Y34367916D01*
X15495995Y34367912D01*
X15491491Y34365474D01*
X15487448Y34362328D01*
X15487440Y34362322D01*
X15299304Y34215889D01*
X15295256Y34212738D01*
X15291793Y34208977D01*
X15291784Y34208968D01*
X15130311Y34033561D01*
X15130305Y34033554D01*
X15126836Y34029785D01*
X15124031Y34025494D01*
X15124028Y34025488D01*
X14993631Y33825901D01*
X14993624Y33825889D01*
X14990827Y33821607D01*
X14988772Y33816923D01*
X14988766Y33816911D01*
X14896536Y33606646D01*
X14890937Y33593881D01*
X14889679Y33588916D01*
X14889678Y33588911D01*
X14831151Y33357796D01*
X14831149Y33357787D01*
X14829892Y33352821D01*
X14829468Y33347712D01*
X14829467Y33347702D01*
X14812132Y33138490D01*
X14809357Y33105000D01*
X3320643Y33105000D01*
X3300108Y33352821D01*
X3239063Y33593881D01*
X3142918Y33813070D01*
X3141233Y33816911D01*
X3141232Y33816913D01*
X3139173Y33821607D01*
X3135049Y33827919D01*
X3042016Y33970317D01*
X3003164Y34029785D01*
X2949509Y34088070D01*
X2838215Y34208968D01*
X2838211Y34208971D01*
X2834744Y34212738D01*
X2694398Y34321974D01*
X2642559Y34362322D01*
X2642557Y34362324D01*
X2638509Y34365474D01*
X2633997Y34367916D01*
X2424316Y34481390D01*
X2424310Y34481393D01*
X2419810Y34483828D01*
X2414969Y34485490D01*
X2414962Y34485493D01*
X2189465Y34562906D01*
X2189461Y34562907D01*
X2184614Y34564571D01*
X2175768Y34566048D01*
X1944398Y34604656D01*
X1944387Y34604657D01*
X1939335Y34605500D01*
X1690665Y34605500D01*
X1685613Y34604657D01*
X1685601Y34604656D01*
X1450443Y34565415D01*
X1450441Y34565415D01*
X1445386Y34564571D01*
X1440541Y34562908D01*
X1440534Y34562906D01*
X1215037Y34485493D01*
X1215026Y34485489D01*
X1210190Y34483828D01*
X1205693Y34481395D01*
X1205683Y34481390D01*
X996002Y34367916D01*
X995995Y34367912D01*
X991491Y34365474D01*
X987448Y34362328D01*
X987440Y34362322D01*
X799304Y34215889D01*
X795256Y34212738D01*
X791793Y34208977D01*
X791784Y34208968D01*
X630311Y34033561D01*
X630305Y34033554D01*
X626836Y34029785D01*
X624031Y34025494D01*
X624028Y34025488D01*
X493631Y33825901D01*
X493624Y33825889D01*
X490827Y33821607D01*
X488772Y33816923D01*
X488766Y33816911D01*
X396536Y33606646D01*
X390937Y33593881D01*
X389679Y33588916D01*
X389678Y33588911D01*
X331151Y33357796D01*
X331149Y33357787D01*
X329892Y33352821D01*
X329468Y33347712D01*
X329467Y33347702D01*
X312132Y33138490D01*
X309357Y33105000D01*
X309781Y33099883D01*
X329467Y32862299D01*
X329468Y32862291D01*
X329892Y32857179D01*
X331149Y32852212D01*
X331151Y32852205D01*
X385199Y32638778D01*
X390937Y32616119D01*
X392997Y32611423D01*
X488766Y32393090D01*
X488769Y32393084D01*
X490827Y32388393D01*
X493627Y32384107D01*
X493631Y32384100D01*
X594383Y32229888D01*
X626836Y32180215D01*
X630310Y32176441D01*
X630311Y32176440D01*
X791784Y32001033D01*
X791787Y32001030D01*
X795256Y31997262D01*
X991491Y31844526D01*
X1210190Y31726172D01*
X1445386Y31645429D01*
X1690665Y31604500D01*
X1934201Y31604500D01*
X1939335Y31604500D01*
X2184614Y31645429D01*
X2290607Y31681818D01*
X2358816Y31685345D01*
X2418548Y31652217D01*
X2678181Y31392584D01*
X2705061Y31352356D01*
X2714500Y31304903D01*
X2714500Y29532449D01*
X2698312Y29471190D01*
X2653974Y29425926D01*
X2593063Y29408475D01*
X2531483Y29423394D01*
X2424316Y29481390D01*
X2424310Y29481393D01*
X2419810Y29483828D01*
X2414969Y29485490D01*
X2414962Y29485493D01*
X2189465Y29562906D01*
X2189461Y29562907D01*
X2184614Y29564571D01*
X2175768Y29566048D01*
X1944398Y29604656D01*
X1944387Y29604657D01*
X1939335Y29605500D01*
X1690665Y29605500D01*
X1685613Y29604657D01*
X1685601Y29604656D01*
X1450443Y29565415D01*
X1450441Y29565415D01*
X1445386Y29564571D01*
X1440541Y29562908D01*
X1440534Y29562906D01*
X1215037Y29485493D01*
X1215026Y29485489D01*
X1210190Y29483828D01*
X1205693Y29481395D01*
X1205683Y29481390D01*
X996002Y29367916D01*
X995995Y29367912D01*
X991491Y29365474D01*
X987448Y29362328D01*
X987440Y29362322D01*
X800964Y29217181D01*
X795256Y29212738D01*
X791793Y29208977D01*
X791784Y29208968D01*
X630311Y29033561D01*
X630305Y29033554D01*
X626836Y29029785D01*
X624031Y29025494D01*
X624028Y29025488D01*
X493631Y28825901D01*
X493624Y28825889D01*
X490827Y28821607D01*
X488772Y28816923D01*
X488766Y28816911D01*
X404692Y28625239D01*
X390937Y28593881D01*
X389679Y28588916D01*
X389678Y28588911D01*
X331151Y28357796D01*
X331149Y28357787D01*
X329892Y28352821D01*
X329468Y28347712D01*
X329467Y28347702D01*
X313272Y28152245D01*
X309357Y28105000D01*
X-184500Y28105000D01*
X-184500Y34601755D01*
X-184330Y34608244D01*
X-181426Y34663661D01*
X-177499Y34738579D01*
X-167372Y34918913D01*
X-166046Y34931306D01*
X-142487Y35080053D01*
X-142300Y35081191D01*
X-115261Y35240334D01*
X-112801Y35251598D01*
X-72850Y35400695D01*
X-72291Y35402707D01*
X-28649Y35554189D01*
X-25276Y35564247D01*
X30583Y35709767D01*
X31692Y35712548D01*
X91439Y35856788D01*
X95488Y35865571D01*
X166569Y36005075D01*
X168521Y36008750D01*
X169216Y36010007D01*
X243588Y36144574D01*
X248065Y36152038D01*
X333633Y36283801D01*
X336434Y36287923D01*
X426010Y36414168D01*
X430733Y36420397D01*
X529702Y36542614D01*
X533532Y36547115D01*
X636613Y36662463D01*
X641323Y36667444D01*
X752556Y36778677D01*
X757537Y36783387D01*
X872885Y36886468D01*
X877386Y36890298D01*
X999603Y36989267D01*
X1005832Y36993990D01*
X1132077Y37083566D01*
X1136199Y37086367D01*
X1267962Y37171935D01*
X1275426Y37176412D01*
X1411255Y37251483D01*
X1414934Y37253435D01*
X1420286Y37256162D01*
X1554429Y37324512D01*
X1563212Y37328561D01*
X1707452Y37388308D01*
X1710233Y37389417D01*
X1855753Y37445276D01*
X1865811Y37448649D01*
X2017293Y37492291D01*
X2019305Y37492850D01*
X2168402Y37532801D01*
X2179666Y37535261D01*
X2338809Y37562300D01*
X2339947Y37562487D01*
X2488694Y37586046D01*
X2501087Y37587372D01*
X2681554Y37597507D01*
X2811756Y37604331D01*
X2818245Y37604500D01*
X6651231Y37604500D01*
X6708706Y37590376D01*
X6753087Y37551220D01*
X6774264Y37495954D01*
X6767413Y37437167D01*
X6723620Y37319753D01*
X6723619Y37319750D01*
X6720909Y37312483D01*
X6720079Y37304773D01*
X6720079Y37304768D01*
X6714855Y37256181D01*
X6714854Y37256169D01*
X6714500Y37252873D01*
X6714500Y37249552D01*
X6714500Y37249551D01*
X6714500Y35160440D01*
X6714500Y35160422D01*
X6714501Y35157128D01*
X6714853Y35153850D01*
X6714854Y35153839D01*
X6720079Y35105232D01*
X6720080Y35105227D01*
X6720909Y35097517D01*
X6723619Y35090251D01*
X6723620Y35090247D01*
X6731428Y35069313D01*
X6771204Y34962669D01*
X6776518Y34955570D01*
X6776519Y34955569D01*
X6830295Y34883733D01*
X6857454Y34847454D01*
X6972669Y34761204D01*
X7107517Y34710909D01*
X7167127Y34704500D01*
X10462872Y34704501D01*
X10522483Y34710909D01*
X10657331Y34761204D01*
X10772546Y34847454D01*
X10858796Y34962669D01*
X10909091Y35097517D01*
X10915500Y35157127D01*
X10915499Y37252872D01*
X10909091Y37312483D01*
X10862587Y37437167D01*
X10855736Y37495954D01*
X10876913Y37551220D01*
X10921294Y37590376D01*
X10978769Y37604500D01*
X47417892Y37604500D01*
X47422318Y37604500D01*
X47634769Y37635046D01*
X47840710Y37695516D01*
X48035950Y37784679D01*
X48216513Y37900719D01*
X48378724Y38041276D01*
X48490741Y38170550D01*
X49130000Y38170550D01*
X49130280Y38164661D01*
X49144403Y38016758D01*
X49146630Y38005207D01*
X49202487Y37814974D01*
X49206853Y37804068D01*
X49297704Y37627841D01*
X49304064Y37617945D01*
X49426617Y37462106D01*
X49434735Y37453592D01*
X49584572Y37323757D01*
X49594149Y37316938D01*
X49765846Y37217809D01*
X49776549Y37212921D01*
X49963904Y37148076D01*
X49969488Y37146721D01*
X49977681Y37147307D01*
X49980000Y37157964D01*
X49980000Y37162819D01*
X50480000Y37162819D01*
X50482505Y37151928D01*
X50493679Y37152061D01*
X50585670Y37174378D01*
X50596788Y37178226D01*
X50777121Y37260581D01*
X50787319Y37266469D01*
X50948806Y37381464D01*
X50957703Y37389173D01*
X51094517Y37532659D01*
X51101784Y37541900D01*
X51208971Y37708686D01*
X51214363Y37719144D01*
X51288049Y37903202D01*
X51291362Y37914485D01*
X51328882Y38109166D01*
X51330000Y38120866D01*
X51330000Y38478674D01*
X51326549Y38491550D01*
X51313674Y38495000D01*
X50496326Y38495000D01*
X50483450Y38491550D01*
X50480000Y38478674D01*
X50480000Y37162819D01*
X49980000Y37162819D01*
X49980000Y38478674D01*
X49976549Y38491550D01*
X49963674Y38495000D01*
X49146326Y38495000D01*
X49133450Y38491550D01*
X49130000Y38478674D01*
X49130000Y38170550D01*
X48490741Y38170550D01*
X48519281Y38203487D01*
X48635321Y38384050D01*
X48724484Y38579290D01*
X48784954Y38785231D01*
X48815500Y38997682D01*
X48815500Y39011326D01*
X49130000Y39011326D01*
X49133450Y38998451D01*
X49146326Y38995000D01*
X49963674Y38995000D01*
X49976549Y38998451D01*
X49980000Y39011326D01*
X49980000Y40327181D01*
X49977494Y40338073D01*
X49966320Y40337940D01*
X49874329Y40315623D01*
X49863211Y40311775D01*
X49682878Y40229420D01*
X49672680Y40223532D01*
X49511193Y40108537D01*
X49502296Y40100828D01*
X49365482Y39957342D01*
X49358215Y39948101D01*
X49251028Y39781315D01*
X49245636Y39770857D01*
X49171950Y39586799D01*
X49168637Y39575516D01*
X49131117Y39380835D01*
X49130000Y39369134D01*
X49130000Y39011326D01*
X48815500Y39011326D01*
X48815500Y39105000D01*
X48815500Y39105500D01*
X48815500Y42770550D01*
X49150000Y42770550D01*
X49150280Y42764661D01*
X49164403Y42616758D01*
X49166630Y42605207D01*
X49222487Y42414974D01*
X49226853Y42404068D01*
X49317704Y42227841D01*
X49324064Y42217945D01*
X49446617Y42062106D01*
X49454735Y42053592D01*
X49604572Y41923757D01*
X49614149Y41916938D01*
X49785846Y41817809D01*
X49796549Y41812921D01*
X49983904Y41748076D01*
X49989488Y41746721D01*
X49997681Y41747307D01*
X50000000Y41757964D01*
X50000000Y43078674D01*
X49996549Y43091550D01*
X49983674Y43095000D01*
X49166326Y43095000D01*
X49153450Y43091550D01*
X49150000Y43078674D01*
X49150000Y42770550D01*
X48815500Y42770550D01*
X48815500Y43600574D01*
X48815816Y43609418D01*
X48815952Y43611326D01*
X48820490Y43674773D01*
X48831719Y43817445D01*
X48834170Y43834065D01*
X48853631Y43923529D01*
X48854181Y43925935D01*
X48880984Y44037576D01*
X48885365Y44051926D01*
X48919250Y44142774D01*
X48920798Y44146706D01*
X48943802Y44202244D01*
X48979602Y44250563D01*
X49033929Y44276356D01*
X49094003Y44273554D01*
G37*
%TD.AperFunction*%
%TA.AperFunction,Conductor*%
G36*
X86278598Y24172593D02*
G01*
X86427661Y24120434D01*
X86434240Y24118132D01*
X86451231Y24116218D01*
X86514658Y24089947D01*
X86554388Y24033954D01*
X86577130Y23968963D01*
X86673103Y23816223D01*
X86800657Y23688669D01*
X86953397Y23592696D01*
X86959966Y23590398D01*
X86966244Y23587374D01*
X86965598Y23586034D01*
X87003732Y23562075D01*
X87033094Y23515346D01*
X87086909Y23361552D01*
X87086913Y23361544D01*
X87089211Y23354978D01*
X87092910Y23349091D01*
X87092912Y23349087D01*
X87126601Y23295472D01*
X87145558Y23232978D01*
X87130135Y23169519D01*
X87084608Y23122697D01*
X87021607Y23105500D01*
X86146252Y23105500D01*
X86083971Y23122276D01*
X86038542Y23168063D01*
X86022256Y23230474D01*
X86039520Y23292621D01*
X86076077Y23354437D01*
X86082223Y23368639D01*
X86118495Y23493488D01*
X86119070Y23504755D01*
X86108091Y23507345D01*
X85464723Y23507345D01*
X85417270Y23516784D01*
X85377042Y23543664D01*
X85195542Y23725164D01*
X85165292Y23774527D01*
X85160750Y23832243D01*
X85182905Y23885730D01*
X85226928Y23923330D01*
X85283223Y23936845D01*
X85550261Y23936845D01*
X85552706Y23936845D01*
X85589009Y23939702D01*
X85744411Y23984851D01*
X85752822Y23989825D01*
X85753250Y23990078D01*
X85755365Y23990657D01*
X85758287Y23991921D01*
X85758466Y23991506D01*
X85816369Y24007345D01*
X86108091Y24007345D01*
X86119070Y24009936D01*
X86117759Y24035613D01*
X86118435Y24035648D01*
X86117965Y24088004D01*
X86152354Y24145562D01*
X86211681Y24176804D01*
X86278598Y24172593D01*
G37*
%TD.AperFunction*%
%TA.AperFunction,Conductor*%
G36*
X79277500Y27662887D02*
G01*
X79322887Y27617500D01*
X79339500Y27555500D01*
X79339500Y27080843D01*
X79322887Y27018843D01*
X79277500Y26973456D01*
X79215500Y26956843D01*
X79201933Y26956843D01*
X79199513Y26956653D01*
X79199498Y26956652D01*
X79171947Y26954484D01*
X79171938Y26954483D01*
X79165630Y26953986D01*
X79159550Y26952220D01*
X79159541Y26952218D01*
X79017720Y26911014D01*
X79017717Y26911013D01*
X79010228Y26908837D01*
X79003516Y26904868D01*
X79003510Y26904865D01*
X78989251Y26896432D01*
X78926131Y26879165D01*
X78863011Y26896433D01*
X78849531Y26904405D01*
X78835329Y26910551D01*
X78710480Y26946823D01*
X78699213Y26947398D01*
X78696623Y26936418D01*
X78696623Y26644696D01*
X78680783Y26586794D01*
X78681199Y26586614D01*
X78679934Y26583693D01*
X78679356Y26581577D01*
X78678101Y26579456D01*
X78678098Y26579450D01*
X78674129Y26572738D01*
X78671953Y26565249D01*
X78671952Y26565246D01*
X78630748Y26423425D01*
X78630746Y26423416D01*
X78628980Y26417336D01*
X78628483Y26411028D01*
X78628482Y26411019D01*
X78626314Y26383468D01*
X78626313Y26383453D01*
X78626123Y26381033D01*
X78626123Y26378588D01*
X78626123Y26020343D01*
X78609510Y25958343D01*
X78564123Y25912956D01*
X78502123Y25896343D01*
X77684986Y25896343D01*
X77671841Y25892637D01*
X77669313Y25879929D01*
X77671247Y25869338D01*
X77712414Y25727641D01*
X77718560Y25713438D01*
X77790011Y25592622D01*
X77807275Y25530474D01*
X77790989Y25468063D01*
X77745560Y25422276D01*
X77683279Y25405500D01*
X72279783Y25405500D01*
X72223488Y25419015D01*
X72179465Y25456615D01*
X72157310Y25510102D01*
X72161852Y25567818D01*
X72192102Y25617181D01*
X73543102Y26968181D01*
X73583330Y26995061D01*
X73630783Y27004500D01*
X77717513Y27004500D01*
X77733698Y27003439D01*
X77765000Y26999318D01*
X77773059Y27000379D01*
X77781185Y27000379D01*
X77781185Y26998844D01*
X77831386Y26992908D01*
X77881244Y26957679D01*
X77908249Y26902927D01*
X77905855Y26841926D01*
X77874642Y26789459D01*
X77802419Y26717236D01*
X77792931Y26705004D01*
X77718562Y26579253D01*
X77712414Y26565046D01*
X77671246Y26423346D01*
X77669312Y26412759D01*
X77671840Y26400050D01*
X77684982Y26396343D01*
X78180297Y26396343D01*
X78193172Y26399794D01*
X78196623Y26412669D01*
X78196623Y26936418D01*
X78193577Y26949327D01*
X78180044Y26965555D01*
X78152820Y27025467D01*
X78160084Y27090871D01*
X78199788Y27143345D01*
X78243282Y27176718D01*
X78339536Y27302159D01*
X78349997Y27327416D01*
X78376872Y27367639D01*
X78652418Y27643184D01*
X78692644Y27670061D01*
X78740097Y27679500D01*
X79141861Y27679500D01*
X79215500Y27679500D01*
X79277500Y27662887D01*
G37*
%TD.AperFunction*%
%TA.AperFunction,Conductor*%
G36*
X71872198Y27790985D02*
G01*
X71916221Y27753385D01*
X71938376Y27699898D01*
X71933834Y27642182D01*
X71903584Y27592819D01*
X70993757Y26682993D01*
X70938171Y26650900D01*
X70873985Y26650898D01*
X70858675Y26655000D01*
X69949000Y26655000D01*
X69887000Y26671613D01*
X69841613Y26717000D01*
X69825000Y26779000D01*
X69825000Y27031000D01*
X69841613Y27093000D01*
X69887000Y27138387D01*
X69949000Y27155000D01*
X70858674Y27155000D01*
X70871549Y27158451D01*
X70875000Y27171326D01*
X70875000Y27618197D01*
X70874808Y27623077D01*
X70872596Y27651177D01*
X70871311Y27658216D01*
X70873370Y27712040D01*
X70898058Y27759913D01*
X70940714Y27792801D01*
X70993292Y27804500D01*
X71815903Y27804500D01*
X71872198Y27790985D01*
G37*
%TD.AperFunction*%
%TA.AperFunction,Conductor*%
G36*
X88135523Y29664473D02*
G01*
X88180351Y29623036D01*
X88199974Y29565230D01*
X88201743Y29542745D01*
X88201744Y29542738D01*
X88202241Y29536427D01*
X88204007Y29530346D01*
X88204009Y29530339D01*
X88241109Y29402643D01*
X88247390Y29381025D01*
X88255143Y29367916D01*
X88259794Y29360051D01*
X88277062Y29296932D01*
X88259796Y29233812D01*
X88251822Y29220329D01*
X88245676Y29206127D01*
X88209404Y29081278D01*
X88208829Y29070011D01*
X88219809Y29067420D01*
X88511531Y29067420D01*
X88569433Y29051581D01*
X88569613Y29051996D01*
X88572534Y29050732D01*
X88574650Y29050153D01*
X88576771Y29048899D01*
X88583489Y29044926D01*
X88738891Y28999777D01*
X88775194Y28996920D01*
X88889786Y28996920D01*
X88937239Y28987481D01*
X88977467Y28960601D01*
X89020887Y28917181D01*
X89051137Y28867818D01*
X89055679Y28810102D01*
X89033524Y28756615D01*
X88989501Y28719015D01*
X88933206Y28705500D01*
X87915097Y28705500D01*
X87867644Y28714939D01*
X87827416Y28741819D01*
X87498199Y29071036D01*
X87487504Y29083231D01*
X87473228Y29101836D01*
X87468282Y29108282D01*
X87342841Y29204536D01*
X87315432Y29215889D01*
X87209195Y29259894D01*
X87196762Y29265044D01*
X87196761Y29265045D01*
X87186683Y29266372D01*
X87186679Y29266373D01*
X87048059Y29284621D01*
X87040000Y29285682D01*
X87037009Y29285289D01*
X86977500Y29301234D01*
X86932113Y29346621D01*
X86915500Y29408621D01*
X86915500Y29555500D01*
X86932113Y29617500D01*
X86977500Y29662887D01*
X87039500Y29679500D01*
X88076356Y29679500D01*
X88135523Y29664473D01*
G37*
%TD.AperFunction*%
%TA.AperFunction,Conductor*%
G36*
X72572778Y33235362D02*
G01*
X72620718Y33197569D01*
X72631769Y33183167D01*
X72631771Y33183165D01*
X72636718Y33176718D01*
X72643164Y33171772D01*
X72661769Y33157496D01*
X72673964Y33146801D01*
X73970265Y31850500D01*
X73999253Y31804823D01*
X74006034Y31751152D01*
X73989318Y31699701D01*
X73978934Y31682142D01*
X73972786Y31667935D01*
X73931618Y31526235D01*
X73929684Y31515648D01*
X73932212Y31502939D01*
X73945354Y31499232D01*
X74264342Y31499232D01*
X74311795Y31489793D01*
X74352023Y31462913D01*
X74356771Y31458165D01*
X74361718Y31451718D01*
X74447095Y31386206D01*
X74487159Y31355464D01*
X74633238Y31294956D01*
X74641296Y31293896D01*
X74641297Y31293895D01*
X74778680Y31275808D01*
X74833619Y31254444D01*
X74872484Y31210126D01*
X74886495Y31152869D01*
X74886495Y31014542D01*
X74886685Y31012122D01*
X74886686Y31012108D01*
X74888854Y30984557D01*
X74888855Y30984550D01*
X74889352Y30978239D01*
X74891118Y30972158D01*
X74891120Y30972151D01*
X74932324Y30830330D01*
X74934501Y30822837D01*
X74938469Y30816126D01*
X74938472Y30816121D01*
X74939729Y30813996D01*
X74940308Y30811878D01*
X74941571Y30808960D01*
X74941155Y30808781D01*
X74956995Y30750878D01*
X74956995Y30747586D01*
X74941155Y30689684D01*
X74941571Y30689504D01*
X74940308Y30686587D01*
X74939729Y30684468D01*
X74938472Y30682344D01*
X74938468Y30682336D01*
X74934501Y30675627D01*
X74932325Y30668138D01*
X74932324Y30668135D01*
X74891120Y30526314D01*
X74891118Y30526305D01*
X74889352Y30520225D01*
X74888855Y30513917D01*
X74888854Y30513908D01*
X74886686Y30486357D01*
X74886685Y30486342D01*
X74886495Y30483922D01*
X74886495Y30481477D01*
X74886495Y30329500D01*
X74869882Y30267500D01*
X74824495Y30222113D01*
X74762495Y30205500D01*
X74630783Y30205500D01*
X74583330Y30214939D01*
X74543102Y30241819D01*
X74493314Y30291607D01*
X74466434Y30331835D01*
X74456995Y30379288D01*
X74456995Y30982906D01*
X74453544Y30995782D01*
X74440669Y30999232D01*
X73945358Y30999232D01*
X73903846Y30987525D01*
X73894726Y30981856D01*
X73828995Y30980573D01*
X73771847Y31013074D01*
X72434662Y32350259D01*
X72407782Y32390487D01*
X72398343Y32437940D01*
X72398343Y33122082D01*
X72413370Y33181250D01*
X72454807Y33226077D01*
X72512614Y33245700D01*
X72572778Y33235362D01*
G37*
%TD.AperFunction*%
%TA.AperFunction,Conductor*%
G36*
X62643305Y44172287D02*
G01*
X62695209Y44144346D01*
X62728345Y44095595D01*
X62744626Y44051945D01*
X62749019Y44037558D01*
X62775793Y43926036D01*
X62776385Y43923447D01*
X62795828Y43834067D01*
X62798280Y43817438D01*
X62809485Y43675066D01*
X62809551Y43674185D01*
X62814184Y43609420D01*
X62814500Y43600574D01*
X62814500Y39105500D01*
X62814500Y39105000D01*
X62814500Y38997682D01*
X62815128Y38993313D01*
X62815129Y38993302D01*
X62844415Y38789617D01*
X62845046Y38785231D01*
X62846292Y38780986D01*
X62846294Y38780979D01*
X62888987Y38635582D01*
X62905516Y38579290D01*
X62907354Y38575264D01*
X62907358Y38575255D01*
X62992235Y38389401D01*
X62994679Y38384050D01*
X62997069Y38380330D01*
X62997073Y38380324D01*
X63081457Y38249020D01*
X63110719Y38203487D01*
X63113613Y38200147D01*
X63113614Y38200146D01*
X63180909Y38122483D01*
X63251276Y38041276D01*
X63413487Y37900719D01*
X63594050Y37784679D01*
X63694522Y37738795D01*
X63781461Y37699091D01*
X63789290Y37695516D01*
X63995231Y37635046D01*
X64207682Y37604500D01*
X64314901Y37604500D01*
X64315000Y37604500D01*
X64315500Y37604500D01*
X65600218Y37604500D01*
X65656513Y37590985D01*
X65700536Y37553385D01*
X65722691Y37499898D01*
X65718149Y37442182D01*
X65687899Y37392820D01*
X65400976Y37105897D01*
X64023965Y35728888D01*
X64011774Y35718196D01*
X63993165Y35703916D01*
X63993161Y35703913D01*
X63986718Y35698968D01*
X63981774Y35692526D01*
X63981772Y35692523D01*
X63927507Y35621802D01*
X63895410Y35579974D01*
X63895406Y35579969D01*
X63890464Y35573527D01*
X63887355Y35566023D01*
X63887353Y35566018D01*
X63833066Y35434958D01*
X63833064Y35434953D01*
X63829956Y35427448D01*
X63828896Y35419397D01*
X63828894Y35419389D01*
X63816322Y35323889D01*
X63809318Y35270686D01*
X63810379Y35262627D01*
X63813439Y35239384D01*
X63814500Y35223199D01*
X63814500Y33823297D01*
X63805061Y33775844D01*
X63778181Y33735616D01*
X62810548Y32767983D01*
X62770320Y32741103D01*
X62722867Y32731664D01*
X62674899Y32731664D01*
X62612120Y32748730D01*
X62566622Y32795232D01*
X62550928Y32858368D01*
X62569360Y32920760D01*
X62586959Y32949293D01*
X62624814Y33010666D01*
X62679999Y33177203D01*
X62690500Y33279991D01*
X62690499Y34130008D01*
X62679999Y34232797D01*
X62624814Y34399334D01*
X62539215Y34538113D01*
X62536502Y34542512D01*
X62536500Y34542515D01*
X62532712Y34548656D01*
X62408656Y34672712D01*
X62402515Y34676500D01*
X62402511Y34676503D01*
X62265480Y34761023D01*
X62259334Y34764814D01*
X62222435Y34777041D01*
X62099225Y34817869D01*
X62099224Y34817870D01*
X62092797Y34819999D01*
X62086064Y34820687D01*
X62086059Y34820688D01*
X61993140Y34830181D01*
X61993123Y34830182D01*
X61990009Y34830500D01*
X61986860Y34830500D01*
X60643140Y34830500D01*
X60643120Y34830500D01*
X60639992Y34830499D01*
X60636860Y34830180D01*
X60636858Y34830179D01*
X60543938Y34820688D01*
X60543928Y34820687D01*
X60537203Y34819999D01*
X60530781Y34817872D01*
X60530776Y34817870D01*
X60377521Y34767086D01*
X60377517Y34767085D01*
X60370666Y34764814D01*
X60364522Y34761025D01*
X60364519Y34761023D01*
X60227488Y34676503D01*
X60227480Y34676497D01*
X60221344Y34672712D01*
X60216242Y34667611D01*
X60216238Y34667607D01*
X60102393Y34553762D01*
X60102389Y34553758D01*
X60097288Y34548656D01*
X60093503Y34542520D01*
X60093497Y34542512D01*
X60008977Y34405481D01*
X60005186Y34399334D01*
X60002915Y34392483D01*
X60002915Y34392481D01*
X59979551Y34321974D01*
X59946969Y34270813D01*
X59894021Y34241226D01*
X59833373Y34240292D01*
X59813416Y34245000D01*
X59281326Y34245000D01*
X59268450Y34241550D01*
X59265000Y34228674D01*
X59265000Y33742221D01*
X59268706Y33729079D01*
X59282098Y33726415D01*
X59293808Y33727336D01*
X59306212Y33729602D01*
X59446700Y33770418D01*
X59460907Y33776566D01*
X59585571Y33850292D01*
X59597807Y33859783D01*
X59700217Y33962193D01*
X59714489Y33980591D01*
X59715707Y33979646D01*
X59754393Y34017616D01*
X59816272Y34033716D01*
X59877945Y34016847D01*
X59923015Y33971495D01*
X59939500Y33909718D01*
X59939500Y33283142D01*
X59939500Y33283123D01*
X59939501Y33279992D01*
X59939820Y33276860D01*
X59939821Y33276859D01*
X59949312Y33183939D01*
X59949313Y33183931D01*
X59950001Y33177203D01*
X59952129Y33170781D01*
X59952130Y33170777D01*
X59991576Y33051739D01*
X60005186Y33010666D01*
X60032288Y32966726D01*
X60060640Y32920760D01*
X60079072Y32858368D01*
X60063378Y32795232D01*
X60017880Y32748730D01*
X59955101Y32731664D01*
X58751548Y32731664D01*
X58689548Y32748277D01*
X58644161Y32793664D01*
X58627548Y32855664D01*
X58627548Y32944413D01*
X58627548Y32946858D01*
X58624646Y32983733D01*
X58578792Y33141562D01*
X58574820Y33148279D01*
X58571722Y33155438D01*
X58574088Y33156463D01*
X58560358Y33206692D01*
X58573858Y33255963D01*
X58571259Y33257088D01*
X58580507Y33278462D01*
X58621740Y33420388D01*
X58620334Y33427458D01*
X58607192Y33431164D01*
X58358863Y33431164D01*
X58295742Y33448432D01*
X58244161Y33478937D01*
X58244159Y33478938D01*
X58237446Y33482908D01*
X58215459Y33489296D01*
X58085705Y33526994D01*
X58085698Y33526996D01*
X58079617Y33528762D01*
X58073306Y33529259D01*
X58073299Y33529260D01*
X58045176Y33531473D01*
X58045162Y33531474D01*
X58042742Y33531664D01*
X58040297Y33531664D01*
X57376048Y33531664D01*
X57314048Y33548277D01*
X57268661Y33593664D01*
X57252048Y33655664D01*
X57252048Y33706664D01*
X57268661Y33768664D01*
X57314048Y33814051D01*
X57376048Y33830664D01*
X58040297Y33830664D01*
X58042742Y33830664D01*
X58079617Y33833566D01*
X58237446Y33879420D01*
X58295741Y33913896D01*
X58358863Y33931164D01*
X58543048Y33931164D01*
X58605048Y33914551D01*
X58650435Y33869164D01*
X58667048Y33807164D01*
X58667048Y33759449D01*
X58669551Y33747966D01*
X58679879Y33742359D01*
X58723787Y33729602D01*
X58736191Y33727336D01*
X58747901Y33726415D01*
X58761293Y33729079D01*
X58765000Y33742221D01*
X58765000Y34620500D01*
X58781613Y34682500D01*
X58827000Y34727887D01*
X58889000Y34744500D01*
X59254562Y34744501D01*
X59264180Y34744501D01*
X59266596Y34744692D01*
X59269038Y34744787D01*
X59269039Y34744751D01*
X59275392Y34745000D01*
X59813415Y34745000D01*
X59824394Y34747591D01*
X59823819Y34758857D01*
X59789582Y34876701D01*
X59783434Y34890908D01*
X59753581Y34941388D01*
X59736313Y35004510D01*
X59753581Y35067630D01*
X59787869Y35125607D01*
X59832665Y35279796D01*
X59835500Y35315819D01*
X59835499Y35648535D01*
X59851753Y35709908D01*
X59896254Y35755193D01*
X59957335Y35772515D01*
X60018984Y35757334D01*
X60065037Y35713631D01*
X60097288Y35661344D01*
X60221344Y35537288D01*
X60227485Y35533500D01*
X60227488Y35533498D01*
X60247639Y35521069D01*
X60370666Y35445186D01*
X60537203Y35390001D01*
X60639991Y35379500D01*
X61990008Y35379501D01*
X62092797Y35390001D01*
X62259334Y35445186D01*
X62408656Y35537288D01*
X62532712Y35661344D01*
X62624814Y35810666D01*
X62679999Y35977203D01*
X62690500Y36079991D01*
X62690499Y36930008D01*
X62679999Y37032797D01*
X62624814Y37199334D01*
X62552276Y37316938D01*
X62536502Y37342512D01*
X62536500Y37342515D01*
X62532712Y37348656D01*
X62408656Y37472712D01*
X62398712Y37478846D01*
X62371984Y37495332D01*
X62327575Y37542694D01*
X62313187Y37606006D01*
X62332766Y37667910D01*
X62358971Y37708686D01*
X62364363Y37719144D01*
X62438049Y37903202D01*
X62441362Y37914485D01*
X62478882Y38109166D01*
X62480000Y38120866D01*
X62480000Y38478674D01*
X62476549Y38491550D01*
X62463674Y38495000D01*
X60296326Y38495000D01*
X60283450Y38491550D01*
X60280000Y38478674D01*
X60280000Y38170550D01*
X60280280Y38164661D01*
X60294403Y38016758D01*
X60296630Y38005207D01*
X60352487Y37814974D01*
X60356853Y37804068D01*
X60401149Y37718145D01*
X60414903Y37658592D01*
X60398538Y37599704D01*
X60356031Y37555788D01*
X60277320Y37507238D01*
X60227492Y37476504D01*
X60221344Y37472712D01*
X60216242Y37467611D01*
X60216238Y37467607D01*
X60102393Y37353762D01*
X60102389Y37353758D01*
X60097288Y37348656D01*
X60093503Y37342520D01*
X60093497Y37342512D01*
X60012512Y37211212D01*
X60005685Y37200144D01*
X60005683Y37200141D01*
X60005186Y37199334D01*
X60005049Y37199418D01*
X59961644Y37149921D01*
X59895017Y37130500D01*
X59888416Y37130500D01*
X59836012Y37142118D01*
X59793427Y37174794D01*
X59776265Y37207760D01*
X59772813Y37211212D01*
X59758674Y37215000D01*
X59149500Y37215000D01*
X59087500Y37231613D01*
X59042113Y37277000D01*
X59025500Y37339000D01*
X59025500Y37492881D01*
X59025499Y37651116D01*
X59039014Y37707409D01*
X59076613Y37751432D01*
X59130101Y37773587D01*
X59187817Y37769045D01*
X59237180Y37738795D01*
X59257186Y37718789D01*
X59271326Y37715000D01*
X59758674Y37715000D01*
X59771549Y37718451D01*
X59775000Y37731326D01*
X59775000Y38059518D01*
X59774646Y38066115D01*
X59769426Y38114668D01*
X59765888Y38129642D01*
X59721452Y38248778D01*
X59713037Y38264190D01*
X59637501Y38365093D01*
X59625092Y38377502D01*
X59524189Y38453038D01*
X59508777Y38461453D01*
X59389641Y38505889D01*
X59374667Y38509427D01*
X59326114Y38514647D01*
X59319518Y38515000D01*
X59271326Y38515000D01*
X59258450Y38511550D01*
X59255000Y38498674D01*
X59255000Y38177273D01*
X59236262Y38111730D01*
X59185711Y38065996D01*
X59118625Y38053892D01*
X59055279Y38079077D01*
X59014818Y38133940D01*
X59001163Y38170550D01*
X58968796Y38257331D01*
X58925098Y38315703D01*
X58887859Y38365449D01*
X58887858Y38365450D01*
X58882546Y38372546D01*
X58860031Y38389401D01*
X58827620Y38425531D01*
X58823417Y38432639D01*
X58814863Y38450099D01*
X58807486Y38468732D01*
X58781808Y38504075D01*
X58775401Y38513829D01*
X58774708Y38515000D01*
X58753170Y38551420D01*
X58747651Y38556939D01*
X58742872Y38563100D01*
X58744788Y38564587D01*
X58722919Y38599755D01*
X58717400Y38655800D01*
X58737238Y38708506D01*
X58778338Y38746999D01*
X58817314Y38769501D01*
X58910499Y38862686D01*
X58976391Y38976814D01*
X59010499Y39104108D01*
X59010499Y39170000D01*
X59010499Y39170500D01*
X59010499Y39360250D01*
X59012015Y39379580D01*
X59012065Y39379900D01*
X59012917Y39384676D01*
X59020196Y39421271D01*
X59031315Y39453343D01*
X59032971Y39456593D01*
X59040325Y39469142D01*
X59053386Y39488688D01*
X59068786Y39507452D01*
X59072545Y39511211D01*
X59091312Y39526613D01*
X59110853Y39539670D01*
X59123401Y39547026D01*
X59126625Y39548669D01*
X59158727Y39559802D01*
X59195365Y39567090D01*
X59200297Y39567966D01*
X59200567Y39568009D01*
X59219739Y39569500D01*
X60167299Y39569500D01*
X60220149Y39557673D01*
X60262918Y39524449D01*
X60287447Y39476166D01*
X60289058Y39422032D01*
X60281117Y39380832D01*
X60280000Y39369134D01*
X60280000Y39011326D01*
X60283450Y38998451D01*
X60296326Y38995000D01*
X61113674Y38995000D01*
X61126549Y38998451D01*
X61130000Y39011326D01*
X61630000Y39011326D01*
X61633450Y38998451D01*
X61646326Y38995000D01*
X62463674Y38995000D01*
X62476549Y38998451D01*
X62480000Y39011326D01*
X62480000Y39319450D01*
X62479719Y39325340D01*
X62465596Y39473243D01*
X62463369Y39484794D01*
X62407512Y39675027D01*
X62403146Y39685933D01*
X62312295Y39862160D01*
X62305935Y39872056D01*
X62183382Y40027895D01*
X62175264Y40036409D01*
X62025427Y40166244D01*
X62015850Y40173063D01*
X61844153Y40272192D01*
X61833450Y40277080D01*
X61646095Y40341925D01*
X61640511Y40343280D01*
X61632318Y40342694D01*
X61630000Y40332036D01*
X61630000Y39011326D01*
X61130000Y39011326D01*
X61130000Y40327181D01*
X61127494Y40338073D01*
X61116320Y40337940D01*
X61024327Y40315623D01*
X61013211Y40311775D01*
X60946145Y40281148D01*
X60885931Y40270249D01*
X60827836Y40289474D01*
X60786011Y40334140D01*
X60767043Y40368593D01*
X60676891Y40462965D01*
X60665782Y40469761D01*
X60572460Y40526850D01*
X60572456Y40526852D01*
X60565559Y40531071D01*
X60528280Y40542134D01*
X60513615Y40546486D01*
X60489090Y40556736D01*
X60452403Y40576934D01*
X60425818Y40596605D01*
X60425298Y40597110D01*
X60412266Y40611960D01*
X60394310Y40636050D01*
X60383778Y40652833D01*
X60383423Y40653515D01*
X60383420Y40653520D01*
X60372200Y40684545D01*
X60363312Y40725537D01*
X60360499Y40751799D01*
X60360499Y42004081D01*
X60375385Y42062989D01*
X60416470Y42107754D01*
X60473888Y42127626D01*
X60533854Y42117836D01*
X60581970Y42080732D01*
X60596618Y42062105D01*
X60604735Y42053592D01*
X60754572Y41923757D01*
X60764149Y41916938D01*
X60935846Y41817809D01*
X60946549Y41812921D01*
X61133904Y41748076D01*
X61139488Y41746721D01*
X61147681Y41747307D01*
X61150000Y41757964D01*
X61150000Y41762819D01*
X61650000Y41762819D01*
X61652505Y41751928D01*
X61663679Y41752061D01*
X61755670Y41774378D01*
X61766788Y41778226D01*
X61947121Y41860581D01*
X61957319Y41866469D01*
X62118806Y41981464D01*
X62127703Y41989173D01*
X62264517Y42132659D01*
X62271784Y42141900D01*
X62378971Y42308686D01*
X62384363Y42319144D01*
X62458049Y42503202D01*
X62461362Y42514485D01*
X62498882Y42709166D01*
X62500000Y42720866D01*
X62500000Y43078674D01*
X62496549Y43091550D01*
X62483674Y43095000D01*
X61666326Y43095000D01*
X61653450Y43091550D01*
X61650000Y43078674D01*
X61650000Y41762819D01*
X61150000Y41762819D01*
X61150000Y43471000D01*
X61166613Y43533000D01*
X61212000Y43578387D01*
X61274000Y43595000D01*
X62483674Y43595000D01*
X62496549Y43598451D01*
X62500000Y43611326D01*
X62500000Y43919450D01*
X62499718Y43925358D01*
X62488726Y44040473D01*
X62497230Y44098803D01*
X62531707Y44146615D01*
X62584365Y44173105D01*
X62643305Y44172287D01*
G37*
%TD.AperFunction*%
%TD*%
M02*
