%TF.GenerationSoftware,KiCad,Pcbnew,(7.0.0)*%
%TF.CreationDate,2023-02-23T19:51:54-08:00*%
%TF.ProjectId,4k-mania-keypad,346b2d6d-616e-4696-912d-6b6579706164,rev?*%
%TF.SameCoordinates,PX5ac6868PY7028288*%
%TF.FileFunction,Soldermask,Top*%
%TF.FilePolarity,Negative*%
%FSLAX46Y46*%
G04 Gerber Fmt 4.6, Leading zero omitted, Abs format (unit mm)*
G04 Created by KiCad (PCBNEW (7.0.0)) date 2023-02-23 19:51:54*
%MOMM*%
%LPD*%
G01*
G04 APERTURE LIST*
G04 Aperture macros list*
%AMRoundRect*
0 Rectangle with rounded corners*
0 $1 Rounding radius*
0 $2 $3 $4 $5 $6 $7 $8 $9 X,Y pos of 4 corners*
0 Add a 4 corners polygon primitive as box body*
4,1,4,$2,$3,$4,$5,$6,$7,$8,$9,$2,$3,0*
0 Add four circle primitives for the rounded corners*
1,1,$1+$1,$2,$3*
1,1,$1+$1,$4,$5*
1,1,$1+$1,$6,$7*
1,1,$1+$1,$8,$9*
0 Add four rect primitives between the rounded corners*
20,1,$1+$1,$2,$3,$4,$5,0*
20,1,$1+$1,$4,$5,$6,$7,0*
20,1,$1+$1,$6,$7,$8,$9,0*
20,1,$1+$1,$8,$9,$2,$3,0*%
G04 Aperture macros list end*
%ADD10RoundRect,0.135000X-0.185000X0.135000X-0.185000X-0.135000X0.185000X-0.135000X0.185000X0.135000X0*%
%ADD11RoundRect,0.150000X-0.150000X-0.275000X0.150000X-0.275000X0.150000X0.275000X-0.150000X0.275000X0*%
%ADD12RoundRect,0.175000X-0.175000X-0.225000X0.175000X-0.225000X0.175000X0.225000X-0.175000X0.225000X0*%
%ADD13RoundRect,0.135000X0.185000X-0.135000X0.185000X0.135000X-0.185000X0.135000X-0.185000X-0.135000X0*%
%ADD14RoundRect,0.140000X0.170000X-0.140000X0.170000X0.140000X-0.170000X0.140000X-0.170000X-0.140000X0*%
%ADD15RoundRect,0.140000X0.140000X0.170000X-0.140000X0.170000X-0.140000X-0.170000X0.140000X-0.170000X0*%
%ADD16R,2.000000X2.000000*%
%ADD17C,2.000000*%
%ADD18R,3.200000X2.000000*%
%ADD19C,0.750000*%
%ADD20RoundRect,0.140000X-0.170000X0.140000X-0.170000X-0.140000X0.170000X-0.140000X0.170000X0.140000X0*%
%ADD21RoundRect,0.140000X-0.140000X-0.170000X0.140000X-0.170000X0.140000X0.170000X-0.140000X0.170000X0*%
%ADD22RoundRect,0.050000X0.050000X-0.387500X0.050000X0.387500X-0.050000X0.387500X-0.050000X-0.387500X0*%
%ADD23RoundRect,0.050000X0.387500X-0.050000X0.387500X0.050000X-0.387500X0.050000X-0.387500X-0.050000X0*%
%ADD24RoundRect,0.144000X1.456000X-1.456000X1.456000X1.456000X-1.456000X1.456000X-1.456000X-1.456000X0*%
%ADD25RoundRect,0.150000X0.475000X0.150000X-0.475000X0.150000X-0.475000X-0.150000X0.475000X-0.150000X0*%
%ADD26RoundRect,0.147500X0.147500X0.172500X-0.147500X0.172500X-0.147500X-0.172500X0.147500X-0.172500X0*%
%ADD27RoundRect,0.150000X0.150000X-0.650000X0.150000X0.650000X-0.150000X0.650000X-0.150000X-0.650000X0*%
%ADD28R,1.800000X1.100000*%
%ADD29RoundRect,0.150000X-0.512500X-0.150000X0.512500X-0.150000X0.512500X0.150000X-0.512500X0.150000X0*%
%ADD30C,0.650000*%
%ADD31R,0.540000X1.100000*%
%ADD32R,0.300000X1.100000*%
%ADD33O,1.200000X2.250000*%
%ADD34RoundRect,0.135000X0.135000X0.185000X-0.135000X0.185000X-0.135000X-0.185000X0.135000X-0.185000X0*%
%ADD35RoundRect,0.147500X-0.147500X-0.172500X0.147500X-0.172500X0.147500X0.172500X-0.147500X0.172500X0*%
%ADD36RoundRect,0.250000X-0.625000X0.375000X-0.625000X-0.375000X0.625000X-0.375000X0.625000X0.375000X0*%
%ADD37R,1.400000X1.200000*%
%ADD38C,1.750000*%
%ADD39C,3.987800*%
%ADD40C,3.300000*%
G04 APERTURE END LIST*
D10*
%TO.C,R4*%
X52538082Y28992019D03*
X52538082Y27972019D03*
%TD*%
%TO.C,R5*%
X72825000Y36115000D03*
X72825000Y35095000D03*
%TD*%
D11*
%TO.C,J3*%
X59815000Y24880000D03*
X61015000Y24880000D03*
X62215000Y24880000D03*
D12*
X58665000Y21105000D03*
X63365000Y21105000D03*
%TD*%
D13*
%TO.C,R1*%
X59015000Y34495000D03*
X59015000Y35515000D03*
%TD*%
D14*
%TO.C,C11*%
X83539949Y35592638D03*
X83539949Y36552638D03*
%TD*%
%TO.C,C9*%
X79815000Y35605000D03*
X79815000Y36565000D03*
%TD*%
D15*
%TO.C,C6*%
X77245000Y34105000D03*
X76285000Y34105000D03*
%TD*%
D16*
%TO.C,SW1*%
X16314999Y28104999D03*
D17*
X16315000Y33105000D03*
X16315000Y30605000D03*
D18*
X8814999Y25004999D03*
X8814999Y36204999D03*
D17*
X1815000Y33105000D03*
X1815000Y28105000D03*
%TD*%
D19*
%TO.C,REF\u002A\u002A*%
X17090000Y20355000D03*
X18360000Y20355000D03*
X19630000Y20355000D03*
X20900000Y20355000D03*
%TD*%
D20*
%TO.C,C8*%
X85318016Y24717345D03*
X85318016Y23757345D03*
%TD*%
D16*
%TO.C,SW2*%
X95314999Y33104999D03*
D17*
X95315000Y28105000D03*
X95315000Y30605000D03*
D18*
X102814999Y36204999D03*
X102814999Y25004999D03*
D17*
X109815000Y28105000D03*
X109815000Y33105000D03*
%TD*%
D14*
%TO.C,C2*%
X56315000Y28625000D03*
X56315000Y29585000D03*
%TD*%
%TO.C,C4*%
X89009884Y28817420D03*
X89009884Y29777420D03*
%TD*%
D21*
%TO.C,C13*%
X87635000Y32605000D03*
X88595000Y32605000D03*
%TD*%
D22*
%TO.C,U1*%
X79940000Y27442500D03*
X80340000Y27442500D03*
X80740000Y27442500D03*
X81140000Y27442500D03*
X81540000Y27442500D03*
X81940000Y27442500D03*
X82340000Y27442500D03*
X82740000Y27442500D03*
X83140000Y27442500D03*
X83540000Y27442500D03*
X83940000Y27442500D03*
X84340000Y27442500D03*
X84740000Y27442500D03*
X85140000Y27442500D03*
D23*
X85977500Y28280000D03*
X85977500Y28680000D03*
X85977500Y29080000D03*
X85977500Y29480000D03*
X85977500Y29880000D03*
X85977500Y30280000D03*
X85977500Y30680000D03*
X85977500Y31080000D03*
X85977500Y31480000D03*
X85977500Y31880000D03*
X85977500Y32280000D03*
X85977500Y32680000D03*
X85977500Y33080000D03*
X85977500Y33480000D03*
D22*
X85140000Y34317500D03*
X84740000Y34317500D03*
X84340000Y34317500D03*
X83940000Y34317500D03*
X83540000Y34317500D03*
X83140000Y34317500D03*
X82740000Y34317500D03*
X82340000Y34317500D03*
X81940000Y34317500D03*
X81540000Y34317500D03*
X81140000Y34317500D03*
X80740000Y34317500D03*
X80340000Y34317500D03*
X79940000Y34317500D03*
D23*
X79102500Y33480000D03*
X79102500Y33080000D03*
X79102500Y32680000D03*
X79102500Y32280000D03*
X79102500Y31880000D03*
X79102500Y31480000D03*
X79102500Y31080000D03*
X79102500Y30680000D03*
X79102500Y30280000D03*
X79102500Y29880000D03*
X79102500Y29480000D03*
X79102500Y29080000D03*
X79102500Y28680000D03*
X79102500Y28280000D03*
D24*
X82540000Y30880000D03*
%TD*%
D14*
%TO.C,C1*%
X62182214Y29592557D03*
X62182214Y30552557D03*
%TD*%
D25*
%TO.C,U2*%
X57502048Y32731164D03*
X57502048Y33681164D03*
X57502048Y34631164D03*
X55152048Y34631164D03*
X55152048Y33681164D03*
X55152048Y32731164D03*
%TD*%
D15*
%TO.C,C12*%
X75666995Y31249232D03*
X74706995Y31249232D03*
%TD*%
D26*
%TO.C,D1*%
X4300000Y22605000D03*
X3330000Y22605000D03*
%TD*%
D27*
%TO.C,U4*%
X66265000Y26905000D03*
X67535000Y26905000D03*
X68805000Y26905000D03*
X70075000Y26905000D03*
X70075000Y34105000D03*
X68805000Y34105000D03*
X67535000Y34105000D03*
X66265000Y34105000D03*
%TD*%
D28*
%TO.C,SW7*%
X48914999Y28154999D03*
X42714999Y31854999D03*
X48914999Y31854999D03*
X42714999Y28154999D03*
%TD*%
D29*
%TO.C,U3*%
X57740000Y30555000D03*
X57740000Y28655000D03*
X60015000Y29605000D03*
%TD*%
D21*
%TO.C,C5*%
X92135000Y32605000D03*
X93095000Y32605000D03*
%TD*%
D30*
%TO.C,J1*%
X59555000Y38665000D03*
X52055000Y38665000D03*
D31*
X59004999Y37464999D03*
X58254999Y37464999D03*
D32*
X57054999Y37464999D03*
X56054999Y37464999D03*
X55554999Y37464999D03*
X54554999Y37464999D03*
D31*
X53354999Y37464999D03*
X52604999Y37464999D03*
X52604999Y37464999D03*
X53354999Y37464999D03*
D32*
X54054999Y37464999D03*
X55054999Y37464999D03*
X56554999Y37464999D03*
X57554999Y37464999D03*
D31*
X58254999Y37464999D03*
X59004999Y37464999D03*
D33*
X61399999Y43344999D03*
X61379999Y38744999D03*
X50249999Y43344999D03*
X50229999Y38744999D03*
%TD*%
D20*
%TO.C,C3*%
X64815000Y31085000D03*
X64815000Y30125000D03*
%TD*%
D34*
%TO.C,R3*%
X91125000Y32605000D03*
X90105000Y32605000D03*
%TD*%
D35*
%TO.C,D2*%
X108830000Y22105000D03*
X109800000Y22105000D03*
%TD*%
D15*
%TO.C,C14*%
X77245000Y33105000D03*
X76285000Y33105000D03*
%TD*%
%TO.C,C10*%
X79406623Y26146343D03*
X78446623Y26146343D03*
%TD*%
D36*
%TO.C,F1*%
X61315000Y36505000D03*
X61315000Y33705000D03*
%TD*%
D21*
%TO.C,C7*%
X87655000Y31605000D03*
X88615000Y31605000D03*
%TD*%
D37*
%TO.C,Y1*%
X92714999Y30954999D03*
X90514999Y30954999D03*
X90514999Y29254999D03*
X92714999Y29254999D03*
%TD*%
D11*
%TO.C,J2*%
X49815000Y24880000D03*
X51015000Y24880000D03*
X52215000Y24880000D03*
D12*
X48665000Y21105000D03*
X53365000Y21105000D03*
%TD*%
D15*
%TO.C,C15*%
X75666995Y30249232D03*
X74706995Y30249232D03*
%TD*%
D10*
%TO.C,R2*%
X53715000Y36215000D03*
X53715000Y35195000D03*
%TD*%
D19*
%TO.C,REF\u002A\u002A*%
X89410000Y20355000D03*
X90680000Y20355000D03*
X91950000Y20355000D03*
X93220000Y20355000D03*
%TD*%
D10*
%TO.C,R6*%
X73815000Y36115000D03*
X73815000Y35095000D03*
%TD*%
D38*
%TO.C,SW5*%
X86975000Y9605000D03*
D39*
X81895000Y9605000D03*
D38*
X76815000Y9605000D03*
D40*
X78085000Y12145000D03*
X84435000Y14685000D03*
%TD*%
D38*
%TO.C,SW6*%
X105895000Y9605000D03*
D39*
X100815000Y9605000D03*
D38*
X95735000Y9605000D03*
D40*
X97005000Y12145000D03*
X103355000Y14685000D03*
%TD*%
D38*
%TO.C,SW4*%
X33605000Y9525000D03*
D39*
X28525000Y9525000D03*
D38*
X23445000Y9525000D03*
D40*
X24715000Y12065000D03*
X31065000Y14605000D03*
%TD*%
D38*
%TO.C,SW3*%
X14605000Y9525000D03*
D39*
X9525000Y9525000D03*
D38*
X4445000Y9525000D03*
D40*
X5715000Y12065000D03*
X12065000Y14605000D03*
%TD*%
M02*
