M48
; DRILL file {KiCad (7.0.0)} date Thu Feb 23 19:52:01 2023
; FORMAT={-:-/ absolute / inch / decimal}
; #@! TF.CreationDate,2023-02-23T19:52:01-08:00
; #@! TF.GenerationSoftware,Kicad,Pcbnew,(7.0.0)
; #@! TF.FileFunction,Plated,1,2,PTH
FMAT,2
INCH
; #@! TA.AperFunction,Plated,PTH,ViaDrill
T1C0.0118
; #@! TA.AperFunction,Plated,PTH,ComponentDrill
T2C0.0138
; #@! TA.AperFunction,Plated,PTH,ViaDrill
T3C0.0157
; #@! TA.AperFunction,Plated,PTH,ComponentDrill
T4C0.0236
; #@! TA.AperFunction,Plated,PTH,ComponentDrill
T5C0.0394
; #@! TA.AperFunction,Plated,PTH,ComponentDrill
T6C0.0591
; #@! TA.AperFunction,Plated,PTH,ComponentDrill
T7C0.1181
%
G90
G05
T1
X0.2486Y0.89
X0.2486Y0.8506
X0.6817Y0.9136
X0.7211Y0.9372
X2.1396Y1.1014
X2.414Y1.2886
X2.414Y1.2237
X2.4657Y1.2237
X2.6305Y1.2443
X2.788Y1.0474
X2.8864Y1.2699
X3.0242Y1.2315
X3.0636Y1.0474
X3.1465Y1.2075
X3.1723Y1.2886
X3.3392Y1.2443
X3.3785Y0.9096
X3.3839Y1.0041
X3.41Y0.9805
X3.4258Y1.3112
X3.4371Y0.9574
X3.4548Y1.1345
X3.4573Y0.9332
X3.603Y1.2049
T2
X3.1994Y1.2659
X3.1994Y1.2157
X3.1994Y1.1656
X3.2496Y1.2659
X3.2496Y1.2157
X3.2496Y1.1656
X3.2998Y1.2659
X3.2998Y1.2157
X3.2998Y1.1656
T3
X2.1148Y1.3546
T5
X0.0715Y1.3033
X0.0715Y1.1065
X0.6423Y1.3033
X0.6423Y1.2049
X0.6423Y1.1065
X3.7526Y1.3033
X3.7526Y1.2049
X3.7526Y1.1065
X4.3234Y1.3033
X4.3234Y1.1065
T7
X0.225Y0.475
X0.475Y0.575
X0.973Y0.475
X1.223Y0.575
X3.0742Y0.4781
X3.3242Y0.5781
X3.8191Y0.4781
X4.0691Y0.5781
T4
G00X1.9776Y1.5461
M15
G01X1.9776Y1.5047
M16
G05
G00X1.9783Y1.7272
M15
G01X1.9783Y1.6858
M16
G05
G00X2.4165Y1.5461
M15
G01X2.4165Y1.5047
M16
G05
G00X2.4173Y1.7272
M15
G01X2.4173Y1.6858
M16
G05
T6
G00X0.3726Y1.4254
M15
G01X0.3215Y1.4254
M16
G05
G00X0.3726Y0.9844
M15
G01X0.3215Y0.9844
M16
G05
G00X4.0222Y1.4254
M15
G01X4.0734Y1.4254
M16
G05
G00X4.0222Y0.9844
M15
G01X4.0734Y0.9844
M16
G05
T0
M30
