%TF.GenerationSoftware,KiCad,Pcbnew,(7.0.0)*%
%TF.CreationDate,2023-02-23T19:52:02-08:00*%
%TF.ProjectId,4k-mania-keypad,346b2d6d-616e-4696-912d-6b6579706164,rev?*%
%TF.SameCoordinates,PX5ac6868PY7028288*%
%TF.FileFunction,Drillmap*%
%TF.FilePolarity,Positive*%
%FSLAX45Y45*%
G04 Gerber Fmt 4.5, Leading zero omitted, Abs format (unit mm)*
G04 Created by KiCad (PCBNEW (7.0.0)) date 2023-02-23 19:52:02*
%MOMM*%
%LPD*%
G01*
G04 APERTURE LIST*
%ADD10C,0.100000*%
%ADD11C,0.200000*%
%ADD12C,0.030000*%
%ADD13C,0.035000*%
%ADD14C,0.040000*%
%ADD15C,0.060000*%
%ADD16C,0.150000*%
%ADD17C,0.300000*%
G04 APERTURE END LIST*
D10*
X6281500Y4360500D02*
X6281500Y3910500D01*
X5031500Y4510500D02*
G75*
G03*
X4881500Y4360500I0J-150000D01*
G01*
X8856500Y1910500D02*
X7388500Y1910500D01*
X11038500Y1760500D02*
G75*
G03*
X10888500Y1910500I-150000J0D01*
G01*
X3806500Y160500D02*
X3806500Y1760500D01*
X4731500Y3760500D02*
G75*
G03*
X4881500Y3910500I0J150000D01*
G01*
X5031500Y4510500D02*
X5126000Y4510000D01*
X156500Y10500D02*
X3656500Y10500D01*
X6500Y1760500D02*
X6500Y160500D01*
X4881500Y4360500D02*
X4881500Y3910500D01*
X6431500Y3760500D02*
X10881500Y3760500D01*
X7238500Y1760500D02*
X7238500Y160500D01*
X10888500Y1910500D02*
X9406500Y1910500D01*
X7388500Y1910500D02*
G75*
G03*
X7238500Y1760500I0J-150000D01*
G01*
X6281500Y4360500D02*
G75*
G03*
X6131500Y4510500I-150000J0D01*
G01*
X11181500Y2310500D02*
X11181500Y3460500D01*
X6131500Y4510500D02*
X6036000Y4510000D01*
X10888500Y10500D02*
G75*
G03*
X11038500Y160500I0J150000D01*
G01*
X156500Y1910500D02*
X1624500Y1910500D01*
X-18500Y2310500D02*
G75*
G03*
X281500Y2010500I300000J0D01*
G01*
X281500Y3760500D02*
X4731500Y3760500D01*
X11038500Y160500D02*
X11038500Y1760500D01*
X6281500Y3910500D02*
G75*
G03*
X6431500Y3760500I150000J0D01*
G01*
X10881500Y2010500D02*
G75*
G03*
X11181500Y2310500I0J300000D01*
G01*
X7238500Y160500D02*
G75*
G03*
X7388500Y10500I150000J0D01*
G01*
X2174500Y2010500D02*
X8856500Y2010500D01*
X3806500Y1760500D02*
G75*
G03*
X3656500Y1910500I-150000J0D01*
G01*
X7388500Y10500D02*
X10888500Y10500D01*
X3656500Y10500D02*
G75*
G03*
X3806500Y160500I0J150000D01*
G01*
X10881500Y2010500D02*
X9406500Y2010500D01*
X156500Y1910500D02*
G75*
G03*
X6500Y1760500I0J-150000D01*
G01*
X-18500Y2310500D02*
X-18500Y3460500D01*
X281500Y3760500D02*
G75*
G03*
X-18500Y3460500I0J-300000D01*
G01*
X6500Y160500D02*
G75*
G03*
X156500Y10500I150000J0D01*
G01*
X1624500Y2010500D02*
X281500Y2010500D01*
X11181500Y3460500D02*
G75*
G03*
X10881500Y3760500I-300000J0D01*
G01*
X3656500Y1910500D02*
X2174500Y1910500D01*
D11*
D12*
X616500Y2275500D02*
X646500Y2245500D01*
X646500Y2275500D02*
X616500Y2245500D01*
X616500Y2175500D02*
X646500Y2145500D01*
X646500Y2175500D02*
X616500Y2145500D01*
X1716500Y2335450D02*
X1746500Y2305450D01*
X1746500Y2335450D02*
X1716500Y2305450D01*
X1816500Y2395400D02*
X1846500Y2365400D01*
X1846500Y2395400D02*
X1816500Y2365400D01*
X5419505Y2812550D02*
X5449505Y2782550D01*
X5449505Y2812550D02*
X5419505Y2782550D01*
X6116500Y3288066D02*
X6146500Y3258066D01*
X6146500Y3288066D02*
X6116500Y3258066D01*
X6116500Y3123168D02*
X6146500Y3093168D01*
X6146500Y3123168D02*
X6116500Y3093168D01*
X6247980Y3123168D02*
X6277980Y3093168D01*
X6277980Y3123168D02*
X6247980Y3093168D01*
X6666500Y3175500D02*
X6696500Y3145500D01*
X6696500Y3175500D02*
X6666500Y3145500D01*
X7066500Y2675500D02*
X7096500Y2645500D01*
X7096500Y2675500D02*
X7066500Y2645500D01*
X7316500Y3240450D02*
X7346500Y3210450D01*
X7346500Y3240450D02*
X7316500Y3210450D01*
X7666500Y3143050D02*
X7696500Y3113050D01*
X7696500Y3143050D02*
X7666500Y3113050D01*
X7766500Y2675500D02*
X7796500Y2645500D01*
X7796500Y2675500D02*
X7766500Y2645500D01*
X7977131Y3082048D02*
X8007131Y3052048D01*
X8007131Y3082048D02*
X7977131Y3052048D01*
X8042612Y3288116D02*
X8072612Y3258116D01*
X8072612Y3288116D02*
X8042612Y3258116D01*
X8466500Y3175500D02*
X8496500Y3145500D01*
X8496500Y3175500D02*
X8466500Y3145500D01*
X8566500Y2325500D02*
X8596500Y2295500D01*
X8596500Y2325500D02*
X8566500Y2295500D01*
X8580084Y2565300D02*
X8610084Y2535300D01*
X8610084Y2565300D02*
X8580084Y2535300D01*
X8646350Y2505350D02*
X8676350Y2475350D01*
X8676350Y2505350D02*
X8646350Y2475350D01*
X8686500Y3345500D02*
X8716500Y3315500D01*
X8716500Y3345500D02*
X8686500Y3315500D01*
X8715292Y2446849D02*
X8745292Y2416849D01*
X8745292Y2446849D02*
X8715292Y2416849D01*
X8760106Y2896676D02*
X8790106Y2866676D01*
X8790106Y2896676D02*
X8760106Y2866676D01*
X8766500Y2385450D02*
X8796500Y2355450D01*
X8796500Y2385450D02*
X8766500Y2355450D01*
X9136550Y3075500D02*
X9166550Y3045500D01*
X9166550Y3075500D02*
X9136550Y3045500D01*
D13*
X8144000Y3215500D02*
G75*
G03*
X8144000Y3215500I-17500J0D01*
G01*
X8144000Y3088000D02*
G75*
G03*
X8144000Y3088000I-17500J0D01*
G01*
X8144000Y2960500D02*
G75*
G03*
X8144000Y2960500I-17500J0D01*
G01*
X8271500Y3215500D02*
G75*
G03*
X8271500Y3215500I-17500J0D01*
G01*
X8271500Y3088000D02*
G75*
G03*
X8271500Y3088000I-17500J0D01*
G01*
X8271500Y2960500D02*
G75*
G03*
X8271500Y2960500I-17500J0D01*
G01*
X8399000Y3215500D02*
G75*
G03*
X8399000Y3215500I-17500J0D01*
G01*
X8399000Y3088000D02*
G75*
G03*
X8399000Y3088000I-17500J0D01*
G01*
X8399000Y2960500D02*
G75*
G03*
X8399000Y2960500I-17500J0D01*
G01*
D14*
X5371500Y3460566D02*
X5371500Y3420566D01*
X5351500Y3440566D02*
X5391500Y3440566D01*
D15*
X5044213Y3853287D02*
X5044213Y3895713D01*
X5001787Y3895713D01*
X5001787Y3853287D01*
X5044213Y3853287D01*
D11*
X4993000Y3927000D02*
X4993000Y3822000D01*
X4993000Y3822000D02*
G75*
G03*
X5053000Y3822000I30000J0D01*
G01*
X5053000Y3822000D02*
X5053000Y3927000D01*
X5053000Y3927000D02*
G75*
G03*
X4993000Y3927000I-30000J0D01*
G01*
D15*
X5046213Y4313287D02*
X5046213Y4355713D01*
X5003787Y4355713D01*
X5003787Y4313287D01*
X5046213Y4313287D01*
D11*
X4995000Y4387000D02*
X4995000Y4282000D01*
X4995000Y4282000D02*
G75*
G03*
X5055000Y4282000I30000J0D01*
G01*
X5055000Y4282000D02*
X5055000Y4387000D01*
X5055000Y4387000D02*
G75*
G03*
X4995000Y4387000I-30000J0D01*
G01*
D15*
X6159213Y3853287D02*
X6159213Y3895713D01*
X6116787Y3895713D01*
X6116787Y3853287D01*
X6159213Y3853287D01*
D11*
X6108000Y3927000D02*
X6108000Y3822000D01*
X6108000Y3822000D02*
G75*
G03*
X6168000Y3822000I30000J0D01*
G01*
X6168000Y3822000D02*
X6168000Y3927000D01*
X6168000Y3927000D02*
G75*
G03*
X6108000Y3927000I-30000J0D01*
G01*
D15*
X6161213Y4313287D02*
X6161213Y4355713D01*
X6118787Y4355713D01*
X6118787Y4313287D01*
X6161213Y4313287D01*
D11*
X6110000Y4387000D02*
X6110000Y4282000D01*
X6110000Y4282000D02*
G75*
G03*
X6170000Y4282000I30000J0D01*
G01*
X6170000Y4282000D02*
X6170000Y4387000D01*
X6170000Y4387000D02*
G75*
G03*
X6110000Y4387000I-30000J0D01*
G01*
D10*
X181500Y3260500D02*
X231500Y3310500D01*
X181500Y3360500D01*
X131500Y3310500D01*
X181500Y3260500D01*
X181500Y2760500D02*
X231500Y2810500D01*
X181500Y2860500D01*
X131500Y2810500D01*
X181500Y2760500D01*
X1631500Y3260500D02*
X1681500Y3310500D01*
X1631500Y3360500D01*
X1581500Y3310500D01*
X1631500Y3260500D01*
X1631500Y3010500D02*
X1681500Y3060500D01*
X1631500Y3110500D01*
X1581500Y3060500D01*
X1631500Y3010500D01*
X1631500Y2760500D02*
X1681500Y2810500D01*
X1631500Y2860500D01*
X1581500Y2810500D01*
X1631500Y2760500D01*
X9531500Y3260500D02*
X9581500Y3310500D01*
X9531500Y3360500D01*
X9481500Y3310500D01*
X9531500Y3260500D01*
X9531500Y3010500D02*
X9581500Y3060500D01*
X9531500Y3110500D01*
X9481500Y3060500D01*
X9531500Y3010500D01*
X9531500Y2760500D02*
X9581500Y2810500D01*
X9531500Y2860500D01*
X9481500Y2810500D01*
X9531500Y2760500D01*
X10981500Y3260500D02*
X11031500Y3310500D01*
X10981500Y3360500D01*
X10931500Y3310500D01*
X10981500Y3260500D01*
X10981500Y2760500D02*
X11031500Y2810500D01*
X10981500Y2860500D01*
X10931500Y2810500D01*
X10981500Y2760500D01*
D16*
X806500Y3695500D02*
X956500Y3545500D01*
X956500Y3695500D02*
X806500Y3545500D01*
X956500Y3620500D02*
G75*
G03*
X956500Y3620500I-75000J0D01*
G01*
D11*
X946500Y3695500D02*
X816500Y3695500D01*
X816500Y3695500D02*
G75*
G03*
X816500Y3545500I0J-75000D01*
G01*
X816500Y3545500D02*
X946500Y3545500D01*
X946500Y3545500D02*
G75*
G03*
X946500Y3695500I0J75000D01*
G01*
D16*
X806500Y2575500D02*
X956500Y2425500D01*
X956500Y2575500D02*
X806500Y2425500D01*
X956500Y2500500D02*
G75*
G03*
X956500Y2500500I-75000J0D01*
G01*
D11*
X946500Y2575500D02*
X816500Y2575500D01*
X816500Y2575500D02*
G75*
G03*
X816500Y2425500I0J-75000D01*
G01*
X816500Y2425500D02*
X946500Y2425500D01*
X946500Y2425500D02*
G75*
G03*
X946500Y2575500I0J75000D01*
G01*
D16*
X10206500Y3695500D02*
X10356500Y3545500D01*
X10356500Y3695500D02*
X10206500Y3545500D01*
X10356500Y3620500D02*
G75*
G03*
X10356500Y3620500I-75000J0D01*
G01*
D11*
X10216500Y3545500D02*
X10346500Y3545500D01*
X10346500Y3545500D02*
G75*
G03*
X10346500Y3695500I0J75000D01*
G01*
X10346500Y3695500D02*
X10216500Y3695500D01*
X10216500Y3695500D02*
G75*
G03*
X10216500Y3545500I0J-75000D01*
G01*
D16*
X10206500Y2575500D02*
X10356500Y2425500D01*
X10356500Y2575500D02*
X10206500Y2425500D01*
X10356500Y2500500D02*
G75*
G03*
X10356500Y2500500I-75000J0D01*
G01*
D11*
X10216500Y2425500D02*
X10346500Y2425500D01*
X10346500Y2425500D02*
G75*
G03*
X10346500Y2575500I0J75000D01*
G01*
X10346500Y2575500D02*
X10216500Y2575500D01*
X10216500Y2575500D02*
G75*
G03*
X10216500Y2425500I0J-75000D01*
G01*
D17*
X421500Y1356500D02*
X721500Y1056500D01*
X721500Y1356500D02*
X421500Y1056500D01*
X571500Y1356500D02*
X571500Y1056500D01*
X421500Y1206500D02*
X721500Y1206500D01*
X1056500Y1610500D02*
X1356500Y1310500D01*
X1356500Y1610500D02*
X1056500Y1310500D01*
X1206500Y1610500D02*
X1206500Y1310500D01*
X1056500Y1460500D02*
X1356500Y1460500D01*
X2321500Y1356500D02*
X2621500Y1056500D01*
X2621500Y1356500D02*
X2321500Y1056500D01*
X2471500Y1356500D02*
X2471500Y1056500D01*
X2321500Y1206500D02*
X2621500Y1206500D01*
X2956500Y1610500D02*
X3256500Y1310500D01*
X3256500Y1610500D02*
X2956500Y1310500D01*
X3106500Y1610500D02*
X3106500Y1310500D01*
X2956500Y1460500D02*
X3256500Y1460500D01*
X7658500Y1364500D02*
X7958500Y1064500D01*
X7958500Y1364500D02*
X7658500Y1064500D01*
X7808500Y1364500D02*
X7808500Y1064500D01*
X7658500Y1214500D02*
X7958500Y1214500D01*
X8293500Y1618500D02*
X8593500Y1318500D01*
X8593500Y1618500D02*
X8293500Y1318500D01*
X8443500Y1618500D02*
X8443500Y1318500D01*
X8293500Y1468500D02*
X8593500Y1468500D01*
X9550500Y1364500D02*
X9850500Y1064500D01*
X9850500Y1364500D02*
X9550500Y1064500D01*
X9700500Y1364500D02*
X9700500Y1064500D01*
X9550500Y1214500D02*
X9850500Y1214500D01*
X10185500Y1618500D02*
X10485500Y1318500D01*
X10485500Y1618500D02*
X10185500Y1318500D01*
X10335500Y1618500D02*
X10335500Y1318500D01*
X10185500Y1468500D02*
X10485500Y1468500D01*
D11*
X224119Y-287976D02*
X224119Y-87976D01*
X224119Y-87976D02*
X271738Y-87976D01*
X271738Y-87976D02*
X300310Y-97500D01*
X300310Y-97500D02*
X319357Y-116548D01*
X319357Y-116548D02*
X328881Y-135595D01*
X328881Y-135595D02*
X338405Y-173690D01*
X338405Y-173690D02*
X338405Y-202262D01*
X338405Y-202262D02*
X328881Y-240357D01*
X328881Y-240357D02*
X319357Y-259405D01*
X319357Y-259405D02*
X300310Y-278452D01*
X300310Y-278452D02*
X271738Y-287976D01*
X271738Y-287976D02*
X224119Y-287976D01*
X424119Y-287976D02*
X424119Y-154643D01*
X424119Y-192738D02*
X433643Y-173690D01*
X433643Y-173690D02*
X443167Y-164167D01*
X443167Y-164167D02*
X462214Y-154643D01*
X462214Y-154643D02*
X481262Y-154643D01*
X547929Y-287976D02*
X547929Y-154643D01*
X547929Y-87976D02*
X538405Y-97500D01*
X538405Y-97500D02*
X547929Y-107024D01*
X547929Y-107024D02*
X557452Y-97500D01*
X557452Y-97500D02*
X547929Y-87976D01*
X547929Y-87976D02*
X547929Y-107024D01*
X671738Y-287976D02*
X652690Y-278452D01*
X652690Y-278452D02*
X643167Y-259405D01*
X643167Y-259405D02*
X643167Y-87976D01*
X776500Y-287976D02*
X757452Y-278452D01*
X757452Y-278452D02*
X747928Y-259405D01*
X747928Y-259405D02*
X747928Y-87976D01*
X972690Y-287976D02*
X972690Y-87976D01*
X972690Y-87976D02*
X1039357Y-230833D01*
X1039357Y-230833D02*
X1106024Y-87976D01*
X1106024Y-87976D02*
X1106024Y-287976D01*
X1286976Y-287976D02*
X1286976Y-183214D01*
X1286976Y-183214D02*
X1277452Y-164167D01*
X1277452Y-164167D02*
X1258405Y-154643D01*
X1258405Y-154643D02*
X1220309Y-154643D01*
X1220309Y-154643D02*
X1201262Y-164167D01*
X1286976Y-278452D02*
X1267929Y-287976D01*
X1267929Y-287976D02*
X1220309Y-287976D01*
X1220309Y-287976D02*
X1201262Y-278452D01*
X1201262Y-278452D02*
X1191738Y-259405D01*
X1191738Y-259405D02*
X1191738Y-240357D01*
X1191738Y-240357D02*
X1201262Y-221309D01*
X1201262Y-221309D02*
X1220309Y-211786D01*
X1220309Y-211786D02*
X1267929Y-211786D01*
X1267929Y-211786D02*
X1286976Y-202262D01*
X1382214Y-154643D02*
X1382214Y-354643D01*
X1382214Y-164167D02*
X1401262Y-154643D01*
X1401262Y-154643D02*
X1439357Y-154643D01*
X1439357Y-154643D02*
X1458405Y-164167D01*
X1458405Y-164167D02*
X1467928Y-173690D01*
X1467928Y-173690D02*
X1477452Y-192738D01*
X1477452Y-192738D02*
X1477452Y-249881D01*
X1477452Y-249881D02*
X1467928Y-268929D01*
X1467928Y-268929D02*
X1458405Y-278452D01*
X1458405Y-278452D02*
X1439357Y-287976D01*
X1439357Y-287976D02*
X1401262Y-287976D01*
X1401262Y-287976D02*
X1382214Y-278452D01*
X1563167Y-268929D02*
X1572690Y-278452D01*
X1572690Y-278452D02*
X1563167Y-287976D01*
X1563167Y-287976D02*
X1553643Y-278452D01*
X1553643Y-278452D02*
X1563167Y-268929D01*
X1563167Y-268929D02*
X1563167Y-287976D01*
X1563167Y-164167D02*
X1572690Y-173690D01*
X1572690Y-173690D02*
X1563167Y-183214D01*
X1563167Y-183214D02*
X1553643Y-173690D01*
X1553643Y-173690D02*
X1563167Y-164167D01*
X1563167Y-164167D02*
X1563167Y-183214D01*
D12*
X-53500Y-619500D02*
X-23500Y-649500D01*
X-23500Y-619500D02*
X-53500Y-649500D01*
D11*
X262214Y-507976D02*
X281262Y-507976D01*
X281262Y-507976D02*
X300310Y-517500D01*
X300310Y-517500D02*
X309833Y-527024D01*
X309833Y-527024D02*
X319357Y-546071D01*
X319357Y-546071D02*
X328881Y-584167D01*
X328881Y-584167D02*
X328881Y-631786D01*
X328881Y-631786D02*
X319357Y-669881D01*
X319357Y-669881D02*
X309833Y-688929D01*
X309833Y-688929D02*
X300310Y-698452D01*
X300310Y-698452D02*
X281262Y-707976D01*
X281262Y-707976D02*
X262214Y-707976D01*
X262214Y-707976D02*
X243167Y-698452D01*
X243167Y-698452D02*
X233643Y-688929D01*
X233643Y-688929D02*
X224119Y-669881D01*
X224119Y-669881D02*
X214595Y-631786D01*
X214595Y-631786D02*
X214595Y-584167D01*
X214595Y-584167D02*
X224119Y-546071D01*
X224119Y-546071D02*
X233643Y-527024D01*
X233643Y-527024D02*
X243167Y-517500D01*
X243167Y-517500D02*
X262214Y-507976D01*
X414595Y-688929D02*
X424119Y-698452D01*
X424119Y-698452D02*
X414595Y-707976D01*
X414595Y-707976D02*
X405071Y-698452D01*
X405071Y-698452D02*
X414595Y-688929D01*
X414595Y-688929D02*
X414595Y-707976D01*
X490786Y-507976D02*
X614595Y-507976D01*
X614595Y-507976D02*
X547929Y-584167D01*
X547929Y-584167D02*
X576500Y-584167D01*
X576500Y-584167D02*
X595548Y-593690D01*
X595548Y-593690D02*
X605071Y-603214D01*
X605071Y-603214D02*
X614595Y-622262D01*
X614595Y-622262D02*
X614595Y-669881D01*
X614595Y-669881D02*
X605071Y-688929D01*
X605071Y-688929D02*
X595548Y-698452D01*
X595548Y-698452D02*
X576500Y-707976D01*
X576500Y-707976D02*
X519357Y-707976D01*
X519357Y-707976D02*
X500309Y-698452D01*
X500309Y-698452D02*
X490786Y-688929D01*
X738405Y-507976D02*
X757452Y-507976D01*
X757452Y-507976D02*
X776500Y-517500D01*
X776500Y-517500D02*
X786024Y-527024D01*
X786024Y-527024D02*
X795548Y-546071D01*
X795548Y-546071D02*
X805071Y-584167D01*
X805071Y-584167D02*
X805071Y-631786D01*
X805071Y-631786D02*
X795548Y-669881D01*
X795548Y-669881D02*
X786024Y-688929D01*
X786024Y-688929D02*
X776500Y-698452D01*
X776500Y-698452D02*
X757452Y-707976D01*
X757452Y-707976D02*
X738405Y-707976D01*
X738405Y-707976D02*
X719357Y-698452D01*
X719357Y-698452D02*
X709833Y-688929D01*
X709833Y-688929D02*
X700309Y-669881D01*
X700309Y-669881D02*
X690786Y-631786D01*
X690786Y-631786D02*
X690786Y-584167D01*
X690786Y-584167D02*
X700309Y-546071D01*
X700309Y-546071D02*
X709833Y-527024D01*
X709833Y-527024D02*
X719357Y-517500D01*
X719357Y-517500D02*
X738405Y-507976D01*
X928881Y-507976D02*
X947929Y-507976D01*
X947929Y-507976D02*
X966976Y-517500D01*
X966976Y-517500D02*
X976500Y-527024D01*
X976500Y-527024D02*
X986024Y-546071D01*
X986024Y-546071D02*
X995548Y-584167D01*
X995548Y-584167D02*
X995548Y-631786D01*
X995548Y-631786D02*
X986024Y-669881D01*
X986024Y-669881D02*
X976500Y-688929D01*
X976500Y-688929D02*
X966976Y-698452D01*
X966976Y-698452D02*
X947929Y-707976D01*
X947929Y-707976D02*
X928881Y-707976D01*
X928881Y-707976D02*
X909833Y-698452D01*
X909833Y-698452D02*
X900309Y-688929D01*
X900309Y-688929D02*
X890786Y-669881D01*
X890786Y-669881D02*
X881262Y-631786D01*
X881262Y-631786D02*
X881262Y-584167D01*
X881262Y-584167D02*
X890786Y-546071D01*
X890786Y-546071D02*
X900309Y-527024D01*
X900309Y-527024D02*
X909833Y-517500D01*
X909833Y-517500D02*
X928881Y-507976D01*
X1081262Y-707976D02*
X1081262Y-574643D01*
X1081262Y-593690D02*
X1090786Y-584167D01*
X1090786Y-584167D02*
X1109833Y-574643D01*
X1109833Y-574643D02*
X1138405Y-574643D01*
X1138405Y-574643D02*
X1157452Y-584167D01*
X1157452Y-584167D02*
X1166976Y-603214D01*
X1166976Y-603214D02*
X1166976Y-707976D01*
X1166976Y-603214D02*
X1176500Y-584167D01*
X1176500Y-584167D02*
X1195548Y-574643D01*
X1195548Y-574643D02*
X1224119Y-574643D01*
X1224119Y-574643D02*
X1243167Y-584167D01*
X1243167Y-584167D02*
X1252691Y-603214D01*
X1252691Y-603214D02*
X1252691Y-707976D01*
X1347929Y-707976D02*
X1347929Y-574643D01*
X1347929Y-593690D02*
X1357452Y-584167D01*
X1357452Y-584167D02*
X1376500Y-574643D01*
X1376500Y-574643D02*
X1405071Y-574643D01*
X1405071Y-574643D02*
X1424119Y-584167D01*
X1424119Y-584167D02*
X1433643Y-603214D01*
X1433643Y-603214D02*
X1433643Y-707976D01*
X1433643Y-603214D02*
X1443167Y-584167D01*
X1443167Y-584167D02*
X1462214Y-574643D01*
X1462214Y-574643D02*
X1490786Y-574643D01*
X1490786Y-574643D02*
X1509833Y-584167D01*
X1509833Y-584167D02*
X1519357Y-603214D01*
X1519357Y-603214D02*
X1519357Y-707976D01*
X1877452Y-498452D02*
X1706024Y-755595D01*
X2102214Y-507976D02*
X2121262Y-507976D01*
X2121262Y-507976D02*
X2140310Y-517500D01*
X2140310Y-517500D02*
X2149833Y-527024D01*
X2149833Y-527024D02*
X2159357Y-546071D01*
X2159357Y-546071D02*
X2168881Y-584167D01*
X2168881Y-584167D02*
X2168881Y-631786D01*
X2168881Y-631786D02*
X2159357Y-669881D01*
X2159357Y-669881D02*
X2149833Y-688929D01*
X2149833Y-688929D02*
X2140310Y-698452D01*
X2140310Y-698452D02*
X2121262Y-707976D01*
X2121262Y-707976D02*
X2102214Y-707976D01*
X2102214Y-707976D02*
X2083167Y-698452D01*
X2083167Y-698452D02*
X2073643Y-688929D01*
X2073643Y-688929D02*
X2064119Y-669881D01*
X2064119Y-669881D02*
X2054595Y-631786D01*
X2054595Y-631786D02*
X2054595Y-584167D01*
X2054595Y-584167D02*
X2064119Y-546071D01*
X2064119Y-546071D02*
X2073643Y-527024D01*
X2073643Y-527024D02*
X2083167Y-517500D01*
X2083167Y-517500D02*
X2102214Y-507976D01*
X2254595Y-688929D02*
X2264119Y-698452D01*
X2264119Y-698452D02*
X2254595Y-707976D01*
X2254595Y-707976D02*
X2245072Y-698452D01*
X2245072Y-698452D02*
X2254595Y-688929D01*
X2254595Y-688929D02*
X2254595Y-707976D01*
X2387929Y-507976D02*
X2406976Y-507976D01*
X2406976Y-507976D02*
X2426024Y-517500D01*
X2426024Y-517500D02*
X2435548Y-527024D01*
X2435548Y-527024D02*
X2445072Y-546071D01*
X2445072Y-546071D02*
X2454595Y-584167D01*
X2454595Y-584167D02*
X2454595Y-631786D01*
X2454595Y-631786D02*
X2445072Y-669881D01*
X2445072Y-669881D02*
X2435548Y-688929D01*
X2435548Y-688929D02*
X2426024Y-698452D01*
X2426024Y-698452D02*
X2406976Y-707976D01*
X2406976Y-707976D02*
X2387929Y-707976D01*
X2387929Y-707976D02*
X2368881Y-698452D01*
X2368881Y-698452D02*
X2359357Y-688929D01*
X2359357Y-688929D02*
X2349833Y-669881D01*
X2349833Y-669881D02*
X2340310Y-631786D01*
X2340310Y-631786D02*
X2340310Y-584167D01*
X2340310Y-584167D02*
X2349833Y-546071D01*
X2349833Y-546071D02*
X2359357Y-527024D01*
X2359357Y-527024D02*
X2368881Y-517500D01*
X2368881Y-517500D02*
X2387929Y-507976D01*
X2645072Y-707976D02*
X2530786Y-707976D01*
X2587929Y-707976D02*
X2587929Y-507976D01*
X2587929Y-507976D02*
X2568881Y-536548D01*
X2568881Y-536548D02*
X2549833Y-555595D01*
X2549833Y-555595D02*
X2530786Y-565119D01*
X2835548Y-707976D02*
X2721262Y-707976D01*
X2778405Y-707976D02*
X2778405Y-507976D01*
X2778405Y-507976D02*
X2759357Y-536548D01*
X2759357Y-536548D02*
X2740310Y-555595D01*
X2740310Y-555595D02*
X2721262Y-565119D01*
X2949833Y-593690D02*
X2930786Y-584167D01*
X2930786Y-584167D02*
X2921262Y-574643D01*
X2921262Y-574643D02*
X2911738Y-555595D01*
X2911738Y-555595D02*
X2911738Y-546071D01*
X2911738Y-546071D02*
X2921262Y-527024D01*
X2921262Y-527024D02*
X2930786Y-517500D01*
X2930786Y-517500D02*
X2949833Y-507976D01*
X2949833Y-507976D02*
X2987929Y-507976D01*
X2987929Y-507976D02*
X3006976Y-517500D01*
X3006976Y-517500D02*
X3016500Y-527024D01*
X3016500Y-527024D02*
X3026024Y-546071D01*
X3026024Y-546071D02*
X3026024Y-555595D01*
X3026024Y-555595D02*
X3016500Y-574643D01*
X3016500Y-574643D02*
X3006976Y-584167D01*
X3006976Y-584167D02*
X2987929Y-593690D01*
X2987929Y-593690D02*
X2949833Y-593690D01*
X2949833Y-593690D02*
X2930786Y-603214D01*
X2930786Y-603214D02*
X2921262Y-612738D01*
X2921262Y-612738D02*
X2911738Y-631786D01*
X2911738Y-631786D02*
X2911738Y-669881D01*
X2911738Y-669881D02*
X2921262Y-688929D01*
X2921262Y-688929D02*
X2930786Y-698452D01*
X2930786Y-698452D02*
X2949833Y-707976D01*
X2949833Y-707976D02*
X2987929Y-707976D01*
X2987929Y-707976D02*
X3006976Y-698452D01*
X3006976Y-698452D02*
X3016500Y-688929D01*
X3016500Y-688929D02*
X3026024Y-669881D01*
X3026024Y-669881D02*
X3026024Y-631786D01*
X3026024Y-631786D02*
X3016500Y-612738D01*
X3016500Y-612738D02*
X3006976Y-603214D01*
X3006976Y-603214D02*
X2987929Y-593690D01*
X3102214Y-507976D02*
X3102214Y-546071D01*
X3178405Y-507976D02*
X3178405Y-546071D01*
X3441262Y-784167D02*
X3431738Y-774643D01*
X3431738Y-774643D02*
X3412691Y-746071D01*
X3412691Y-746071D02*
X3403167Y-727024D01*
X3403167Y-727024D02*
X3393643Y-698452D01*
X3393643Y-698452D02*
X3384119Y-650833D01*
X3384119Y-650833D02*
X3384119Y-612738D01*
X3384119Y-612738D02*
X3393643Y-565119D01*
X3393643Y-565119D02*
X3403167Y-536548D01*
X3403167Y-536548D02*
X3412691Y-517500D01*
X3412691Y-517500D02*
X3431738Y-488928D01*
X3431738Y-488928D02*
X3441262Y-479405D01*
X3507929Y-527024D02*
X3517452Y-517500D01*
X3517452Y-517500D02*
X3536500Y-507976D01*
X3536500Y-507976D02*
X3584119Y-507976D01*
X3584119Y-507976D02*
X3603167Y-517500D01*
X3603167Y-517500D02*
X3612691Y-527024D01*
X3612691Y-527024D02*
X3622214Y-546071D01*
X3622214Y-546071D02*
X3622214Y-565119D01*
X3622214Y-565119D02*
X3612691Y-593690D01*
X3612691Y-593690D02*
X3498405Y-707976D01*
X3498405Y-707976D02*
X3622214Y-707976D01*
X3793643Y-574643D02*
X3793643Y-707976D01*
X3746024Y-498452D02*
X3698405Y-641310D01*
X3698405Y-641310D02*
X3822214Y-641310D01*
X4018405Y-707976D02*
X4018405Y-507976D01*
X4104119Y-707976D02*
X4104119Y-603214D01*
X4104119Y-603214D02*
X4094595Y-584167D01*
X4094595Y-584167D02*
X4075548Y-574643D01*
X4075548Y-574643D02*
X4046976Y-574643D01*
X4046976Y-574643D02*
X4027929Y-584167D01*
X4027929Y-584167D02*
X4018405Y-593690D01*
X4227929Y-707976D02*
X4208881Y-698452D01*
X4208881Y-698452D02*
X4199357Y-688929D01*
X4199357Y-688929D02*
X4189833Y-669881D01*
X4189833Y-669881D02*
X4189833Y-612738D01*
X4189833Y-612738D02*
X4199357Y-593690D01*
X4199357Y-593690D02*
X4208881Y-584167D01*
X4208881Y-584167D02*
X4227929Y-574643D01*
X4227929Y-574643D02*
X4256500Y-574643D01*
X4256500Y-574643D02*
X4275548Y-584167D01*
X4275548Y-584167D02*
X4285072Y-593690D01*
X4285072Y-593690D02*
X4294595Y-612738D01*
X4294595Y-612738D02*
X4294595Y-669881D01*
X4294595Y-669881D02*
X4285072Y-688929D01*
X4285072Y-688929D02*
X4275548Y-698452D01*
X4275548Y-698452D02*
X4256500Y-707976D01*
X4256500Y-707976D02*
X4227929Y-707976D01*
X4408881Y-707976D02*
X4389834Y-698452D01*
X4389834Y-698452D02*
X4380310Y-679405D01*
X4380310Y-679405D02*
X4380310Y-507976D01*
X4561262Y-698452D02*
X4542215Y-707976D01*
X4542215Y-707976D02*
X4504119Y-707976D01*
X4504119Y-707976D02*
X4485072Y-698452D01*
X4485072Y-698452D02*
X4475548Y-679405D01*
X4475548Y-679405D02*
X4475548Y-603214D01*
X4475548Y-603214D02*
X4485072Y-584167D01*
X4485072Y-584167D02*
X4504119Y-574643D01*
X4504119Y-574643D02*
X4542215Y-574643D01*
X4542215Y-574643D02*
X4561262Y-584167D01*
X4561262Y-584167D02*
X4570786Y-603214D01*
X4570786Y-603214D02*
X4570786Y-622262D01*
X4570786Y-622262D02*
X4475548Y-641310D01*
X4646976Y-698452D02*
X4666024Y-707976D01*
X4666024Y-707976D02*
X4704119Y-707976D01*
X4704119Y-707976D02*
X4723167Y-698452D01*
X4723167Y-698452D02*
X4732691Y-679405D01*
X4732691Y-679405D02*
X4732691Y-669881D01*
X4732691Y-669881D02*
X4723167Y-650833D01*
X4723167Y-650833D02*
X4704119Y-641310D01*
X4704119Y-641310D02*
X4675548Y-641310D01*
X4675548Y-641310D02*
X4656500Y-631786D01*
X4656500Y-631786D02*
X4646976Y-612738D01*
X4646976Y-612738D02*
X4646976Y-603214D01*
X4646976Y-603214D02*
X4656500Y-584167D01*
X4656500Y-584167D02*
X4675548Y-574643D01*
X4675548Y-574643D02*
X4704119Y-574643D01*
X4704119Y-574643D02*
X4723167Y-584167D01*
X4799357Y-784167D02*
X4808881Y-774643D01*
X4808881Y-774643D02*
X4827929Y-746071D01*
X4827929Y-746071D02*
X4837453Y-727024D01*
X4837453Y-727024D02*
X4846976Y-698452D01*
X4846976Y-698452D02*
X4856500Y-650833D01*
X4856500Y-650833D02*
X4856500Y-612738D01*
X4856500Y-612738D02*
X4846976Y-565119D01*
X4846976Y-565119D02*
X4837453Y-536548D01*
X4837453Y-536548D02*
X4827929Y-517500D01*
X4827929Y-517500D02*
X4808881Y-488928D01*
X4808881Y-488928D02*
X4799357Y-479405D01*
D13*
X-23500Y-898500D02*
G75*
G03*
X-23500Y-898500I-17500J0D01*
G01*
D11*
X262214Y-771976D02*
X281262Y-771976D01*
X281262Y-771976D02*
X300310Y-781500D01*
X300310Y-781500D02*
X309833Y-791024D01*
X309833Y-791024D02*
X319357Y-810071D01*
X319357Y-810071D02*
X328881Y-848167D01*
X328881Y-848167D02*
X328881Y-895786D01*
X328881Y-895786D02*
X319357Y-933881D01*
X319357Y-933881D02*
X309833Y-952928D01*
X309833Y-952928D02*
X300310Y-962452D01*
X300310Y-962452D02*
X281262Y-971976D01*
X281262Y-971976D02*
X262214Y-971976D01*
X262214Y-971976D02*
X243167Y-962452D01*
X243167Y-962452D02*
X233643Y-952928D01*
X233643Y-952928D02*
X224119Y-933881D01*
X224119Y-933881D02*
X214595Y-895786D01*
X214595Y-895786D02*
X214595Y-848167D01*
X214595Y-848167D02*
X224119Y-810071D01*
X224119Y-810071D02*
X233643Y-791024D01*
X233643Y-791024D02*
X243167Y-781500D01*
X243167Y-781500D02*
X262214Y-771976D01*
X414595Y-952928D02*
X424119Y-962452D01*
X424119Y-962452D02*
X414595Y-971976D01*
X414595Y-971976D02*
X405071Y-962452D01*
X405071Y-962452D02*
X414595Y-952928D01*
X414595Y-952928D02*
X414595Y-971976D01*
X490786Y-771976D02*
X614595Y-771976D01*
X614595Y-771976D02*
X547929Y-848167D01*
X547929Y-848167D02*
X576500Y-848167D01*
X576500Y-848167D02*
X595548Y-857690D01*
X595548Y-857690D02*
X605071Y-867214D01*
X605071Y-867214D02*
X614595Y-886262D01*
X614595Y-886262D02*
X614595Y-933881D01*
X614595Y-933881D02*
X605071Y-952928D01*
X605071Y-952928D02*
X595548Y-962452D01*
X595548Y-962452D02*
X576500Y-971976D01*
X576500Y-971976D02*
X519357Y-971976D01*
X519357Y-971976D02*
X500309Y-962452D01*
X500309Y-962452D02*
X490786Y-952928D01*
X795548Y-771976D02*
X700309Y-771976D01*
X700309Y-771976D02*
X690786Y-867214D01*
X690786Y-867214D02*
X700309Y-857690D01*
X700309Y-857690D02*
X719357Y-848167D01*
X719357Y-848167D02*
X766976Y-848167D01*
X766976Y-848167D02*
X786024Y-857690D01*
X786024Y-857690D02*
X795548Y-867214D01*
X795548Y-867214D02*
X805071Y-886262D01*
X805071Y-886262D02*
X805071Y-933881D01*
X805071Y-933881D02*
X795548Y-952928D01*
X795548Y-952928D02*
X786024Y-962452D01*
X786024Y-962452D02*
X766976Y-971976D01*
X766976Y-971976D02*
X719357Y-971976D01*
X719357Y-971976D02*
X700309Y-962452D01*
X700309Y-962452D02*
X690786Y-952928D01*
X928881Y-771976D02*
X947929Y-771976D01*
X947929Y-771976D02*
X966976Y-781500D01*
X966976Y-781500D02*
X976500Y-791024D01*
X976500Y-791024D02*
X986024Y-810071D01*
X986024Y-810071D02*
X995548Y-848167D01*
X995548Y-848167D02*
X995548Y-895786D01*
X995548Y-895786D02*
X986024Y-933881D01*
X986024Y-933881D02*
X976500Y-952928D01*
X976500Y-952928D02*
X966976Y-962452D01*
X966976Y-962452D02*
X947929Y-971976D01*
X947929Y-971976D02*
X928881Y-971976D01*
X928881Y-971976D02*
X909833Y-962452D01*
X909833Y-962452D02*
X900309Y-952928D01*
X900309Y-952928D02*
X890786Y-933881D01*
X890786Y-933881D02*
X881262Y-895786D01*
X881262Y-895786D02*
X881262Y-848167D01*
X881262Y-848167D02*
X890786Y-810071D01*
X890786Y-810071D02*
X900309Y-791024D01*
X900309Y-791024D02*
X909833Y-781500D01*
X909833Y-781500D02*
X928881Y-771976D01*
X1081262Y-971976D02*
X1081262Y-838643D01*
X1081262Y-857690D02*
X1090786Y-848167D01*
X1090786Y-848167D02*
X1109833Y-838643D01*
X1109833Y-838643D02*
X1138405Y-838643D01*
X1138405Y-838643D02*
X1157452Y-848167D01*
X1157452Y-848167D02*
X1166976Y-867214D01*
X1166976Y-867214D02*
X1166976Y-971976D01*
X1166976Y-867214D02*
X1176500Y-848167D01*
X1176500Y-848167D02*
X1195548Y-838643D01*
X1195548Y-838643D02*
X1224119Y-838643D01*
X1224119Y-838643D02*
X1243167Y-848167D01*
X1243167Y-848167D02*
X1252691Y-867214D01*
X1252691Y-867214D02*
X1252691Y-971976D01*
X1347929Y-971976D02*
X1347929Y-838643D01*
X1347929Y-857690D02*
X1357452Y-848167D01*
X1357452Y-848167D02*
X1376500Y-838643D01*
X1376500Y-838643D02*
X1405071Y-838643D01*
X1405071Y-838643D02*
X1424119Y-848167D01*
X1424119Y-848167D02*
X1433643Y-867214D01*
X1433643Y-867214D02*
X1433643Y-971976D01*
X1433643Y-867214D02*
X1443167Y-848167D01*
X1443167Y-848167D02*
X1462214Y-838643D01*
X1462214Y-838643D02*
X1490786Y-838643D01*
X1490786Y-838643D02*
X1509833Y-848167D01*
X1509833Y-848167D02*
X1519357Y-867214D01*
X1519357Y-867214D02*
X1519357Y-971976D01*
X1877452Y-762452D02*
X1706024Y-1019595D01*
X2102214Y-771976D02*
X2121262Y-771976D01*
X2121262Y-771976D02*
X2140310Y-781500D01*
X2140310Y-781500D02*
X2149833Y-791024D01*
X2149833Y-791024D02*
X2159357Y-810071D01*
X2159357Y-810071D02*
X2168881Y-848167D01*
X2168881Y-848167D02*
X2168881Y-895786D01*
X2168881Y-895786D02*
X2159357Y-933881D01*
X2159357Y-933881D02*
X2149833Y-952928D01*
X2149833Y-952928D02*
X2140310Y-962452D01*
X2140310Y-962452D02*
X2121262Y-971976D01*
X2121262Y-971976D02*
X2102214Y-971976D01*
X2102214Y-971976D02*
X2083167Y-962452D01*
X2083167Y-962452D02*
X2073643Y-952928D01*
X2073643Y-952928D02*
X2064119Y-933881D01*
X2064119Y-933881D02*
X2054595Y-895786D01*
X2054595Y-895786D02*
X2054595Y-848167D01*
X2054595Y-848167D02*
X2064119Y-810071D01*
X2064119Y-810071D02*
X2073643Y-791024D01*
X2073643Y-791024D02*
X2083167Y-781500D01*
X2083167Y-781500D02*
X2102214Y-771976D01*
X2254595Y-952928D02*
X2264119Y-962452D01*
X2264119Y-962452D02*
X2254595Y-971976D01*
X2254595Y-971976D02*
X2245072Y-962452D01*
X2245072Y-962452D02*
X2254595Y-952928D01*
X2254595Y-952928D02*
X2254595Y-971976D01*
X2387929Y-771976D02*
X2406976Y-771976D01*
X2406976Y-771976D02*
X2426024Y-781500D01*
X2426024Y-781500D02*
X2435548Y-791024D01*
X2435548Y-791024D02*
X2445072Y-810071D01*
X2445072Y-810071D02*
X2454595Y-848167D01*
X2454595Y-848167D02*
X2454595Y-895786D01*
X2454595Y-895786D02*
X2445072Y-933881D01*
X2445072Y-933881D02*
X2435548Y-952928D01*
X2435548Y-952928D02*
X2426024Y-962452D01*
X2426024Y-962452D02*
X2406976Y-971976D01*
X2406976Y-971976D02*
X2387929Y-971976D01*
X2387929Y-971976D02*
X2368881Y-962452D01*
X2368881Y-962452D02*
X2359357Y-952928D01*
X2359357Y-952928D02*
X2349833Y-933881D01*
X2349833Y-933881D02*
X2340310Y-895786D01*
X2340310Y-895786D02*
X2340310Y-848167D01*
X2340310Y-848167D02*
X2349833Y-810071D01*
X2349833Y-810071D02*
X2359357Y-791024D01*
X2359357Y-791024D02*
X2368881Y-781500D01*
X2368881Y-781500D02*
X2387929Y-771976D01*
X2645072Y-971976D02*
X2530786Y-971976D01*
X2587929Y-971976D02*
X2587929Y-771976D01*
X2587929Y-771976D02*
X2568881Y-800548D01*
X2568881Y-800548D02*
X2549833Y-819595D01*
X2549833Y-819595D02*
X2530786Y-829119D01*
X2711738Y-771976D02*
X2835548Y-771976D01*
X2835548Y-771976D02*
X2768881Y-848167D01*
X2768881Y-848167D02*
X2797452Y-848167D01*
X2797452Y-848167D02*
X2816500Y-857690D01*
X2816500Y-857690D02*
X2826024Y-867214D01*
X2826024Y-867214D02*
X2835548Y-886262D01*
X2835548Y-886262D02*
X2835548Y-933881D01*
X2835548Y-933881D02*
X2826024Y-952928D01*
X2826024Y-952928D02*
X2816500Y-962452D01*
X2816500Y-962452D02*
X2797452Y-971976D01*
X2797452Y-971976D02*
X2740310Y-971976D01*
X2740310Y-971976D02*
X2721262Y-962452D01*
X2721262Y-962452D02*
X2711738Y-952928D01*
X2949833Y-857690D02*
X2930786Y-848167D01*
X2930786Y-848167D02*
X2921262Y-838643D01*
X2921262Y-838643D02*
X2911738Y-819595D01*
X2911738Y-819595D02*
X2911738Y-810071D01*
X2911738Y-810071D02*
X2921262Y-791024D01*
X2921262Y-791024D02*
X2930786Y-781500D01*
X2930786Y-781500D02*
X2949833Y-771976D01*
X2949833Y-771976D02*
X2987929Y-771976D01*
X2987929Y-771976D02*
X3006976Y-781500D01*
X3006976Y-781500D02*
X3016500Y-791024D01*
X3016500Y-791024D02*
X3026024Y-810071D01*
X3026024Y-810071D02*
X3026024Y-819595D01*
X3026024Y-819595D02*
X3016500Y-838643D01*
X3016500Y-838643D02*
X3006976Y-848167D01*
X3006976Y-848167D02*
X2987929Y-857690D01*
X2987929Y-857690D02*
X2949833Y-857690D01*
X2949833Y-857690D02*
X2930786Y-867214D01*
X2930786Y-867214D02*
X2921262Y-876738D01*
X2921262Y-876738D02*
X2911738Y-895786D01*
X2911738Y-895786D02*
X2911738Y-933881D01*
X2911738Y-933881D02*
X2921262Y-952928D01*
X2921262Y-952928D02*
X2930786Y-962452D01*
X2930786Y-962452D02*
X2949833Y-971976D01*
X2949833Y-971976D02*
X2987929Y-971976D01*
X2987929Y-971976D02*
X3006976Y-962452D01*
X3006976Y-962452D02*
X3016500Y-952928D01*
X3016500Y-952928D02*
X3026024Y-933881D01*
X3026024Y-933881D02*
X3026024Y-895786D01*
X3026024Y-895786D02*
X3016500Y-876738D01*
X3016500Y-876738D02*
X3006976Y-867214D01*
X3006976Y-867214D02*
X2987929Y-857690D01*
X3102214Y-771976D02*
X3102214Y-810071D01*
X3178405Y-771976D02*
X3178405Y-810071D01*
X3441262Y-1048167D02*
X3431738Y-1038643D01*
X3431738Y-1038643D02*
X3412691Y-1010071D01*
X3412691Y-1010071D02*
X3403167Y-991024D01*
X3403167Y-991024D02*
X3393643Y-962452D01*
X3393643Y-962452D02*
X3384119Y-914833D01*
X3384119Y-914833D02*
X3384119Y-876738D01*
X3384119Y-876738D02*
X3393643Y-829119D01*
X3393643Y-829119D02*
X3403167Y-800548D01*
X3403167Y-800548D02*
X3412691Y-781500D01*
X3412691Y-781500D02*
X3431738Y-752928D01*
X3431738Y-752928D02*
X3441262Y-743405D01*
X3526976Y-971976D02*
X3565071Y-971976D01*
X3565071Y-971976D02*
X3584119Y-962452D01*
X3584119Y-962452D02*
X3593643Y-952928D01*
X3593643Y-952928D02*
X3612691Y-924357D01*
X3612691Y-924357D02*
X3622214Y-886262D01*
X3622214Y-886262D02*
X3622214Y-810071D01*
X3622214Y-810071D02*
X3612691Y-791024D01*
X3612691Y-791024D02*
X3603167Y-781500D01*
X3603167Y-781500D02*
X3584119Y-771976D01*
X3584119Y-771976D02*
X3546024Y-771976D01*
X3546024Y-771976D02*
X3526976Y-781500D01*
X3526976Y-781500D02*
X3517452Y-791024D01*
X3517452Y-791024D02*
X3507929Y-810071D01*
X3507929Y-810071D02*
X3507929Y-857690D01*
X3507929Y-857690D02*
X3517452Y-876738D01*
X3517452Y-876738D02*
X3526976Y-886262D01*
X3526976Y-886262D02*
X3546024Y-895786D01*
X3546024Y-895786D02*
X3584119Y-895786D01*
X3584119Y-895786D02*
X3603167Y-886262D01*
X3603167Y-886262D02*
X3612691Y-876738D01*
X3612691Y-876738D02*
X3622214Y-857690D01*
X3827929Y-971976D02*
X3827929Y-771976D01*
X3913643Y-971976D02*
X3913643Y-867214D01*
X3913643Y-867214D02*
X3904119Y-848167D01*
X3904119Y-848167D02*
X3885072Y-838643D01*
X3885072Y-838643D02*
X3856500Y-838643D01*
X3856500Y-838643D02*
X3837452Y-848167D01*
X3837452Y-848167D02*
X3827929Y-857690D01*
X4037452Y-971976D02*
X4018405Y-962452D01*
X4018405Y-962452D02*
X4008881Y-952928D01*
X4008881Y-952928D02*
X3999357Y-933881D01*
X3999357Y-933881D02*
X3999357Y-876738D01*
X3999357Y-876738D02*
X4008881Y-857690D01*
X4008881Y-857690D02*
X4018405Y-848167D01*
X4018405Y-848167D02*
X4037452Y-838643D01*
X4037452Y-838643D02*
X4066024Y-838643D01*
X4066024Y-838643D02*
X4085072Y-848167D01*
X4085072Y-848167D02*
X4094595Y-857690D01*
X4094595Y-857690D02*
X4104119Y-876738D01*
X4104119Y-876738D02*
X4104119Y-933881D01*
X4104119Y-933881D02*
X4094595Y-952928D01*
X4094595Y-952928D02*
X4085072Y-962452D01*
X4085072Y-962452D02*
X4066024Y-971976D01*
X4066024Y-971976D02*
X4037452Y-971976D01*
X4218405Y-971976D02*
X4199357Y-962452D01*
X4199357Y-962452D02*
X4189833Y-943405D01*
X4189833Y-943405D02*
X4189833Y-771976D01*
X4370786Y-962452D02*
X4351738Y-971976D01*
X4351738Y-971976D02*
X4313643Y-971976D01*
X4313643Y-971976D02*
X4294595Y-962452D01*
X4294595Y-962452D02*
X4285072Y-943405D01*
X4285072Y-943405D02*
X4285072Y-867214D01*
X4285072Y-867214D02*
X4294595Y-848167D01*
X4294595Y-848167D02*
X4313643Y-838643D01*
X4313643Y-838643D02*
X4351738Y-838643D01*
X4351738Y-838643D02*
X4370786Y-848167D01*
X4370786Y-848167D02*
X4380310Y-867214D01*
X4380310Y-867214D02*
X4380310Y-886262D01*
X4380310Y-886262D02*
X4285072Y-905309D01*
X4456500Y-962452D02*
X4475548Y-971976D01*
X4475548Y-971976D02*
X4513643Y-971976D01*
X4513643Y-971976D02*
X4532691Y-962452D01*
X4532691Y-962452D02*
X4542215Y-943405D01*
X4542215Y-943405D02*
X4542215Y-933881D01*
X4542215Y-933881D02*
X4532691Y-914833D01*
X4532691Y-914833D02*
X4513643Y-905309D01*
X4513643Y-905309D02*
X4485072Y-905309D01*
X4485072Y-905309D02*
X4466024Y-895786D01*
X4466024Y-895786D02*
X4456500Y-876738D01*
X4456500Y-876738D02*
X4456500Y-867214D01*
X4456500Y-867214D02*
X4466024Y-848167D01*
X4466024Y-848167D02*
X4485072Y-838643D01*
X4485072Y-838643D02*
X4513643Y-838643D01*
X4513643Y-838643D02*
X4532691Y-848167D01*
X4608881Y-1048167D02*
X4618405Y-1038643D01*
X4618405Y-1038643D02*
X4637453Y-1010071D01*
X4637453Y-1010071D02*
X4646976Y-991024D01*
X4646976Y-991024D02*
X4656500Y-962452D01*
X4656500Y-962452D02*
X4666024Y-914833D01*
X4666024Y-914833D02*
X4666024Y-876738D01*
X4666024Y-876738D02*
X4656500Y-829119D01*
X4656500Y-829119D02*
X4646976Y-800548D01*
X4646976Y-800548D02*
X4637453Y-781500D01*
X4637453Y-781500D02*
X4618405Y-752928D01*
X4618405Y-752928D02*
X4608881Y-743405D01*
D14*
X-43500Y-1142500D02*
X-43500Y-1182500D01*
X-63500Y-1162500D02*
X-23500Y-1162500D01*
D11*
X262214Y-1035976D02*
X281262Y-1035976D01*
X281262Y-1035976D02*
X300310Y-1045500D01*
X300310Y-1045500D02*
X309833Y-1055024D01*
X309833Y-1055024D02*
X319357Y-1074071D01*
X319357Y-1074071D02*
X328881Y-1112167D01*
X328881Y-1112167D02*
X328881Y-1159786D01*
X328881Y-1159786D02*
X319357Y-1197881D01*
X319357Y-1197881D02*
X309833Y-1216929D01*
X309833Y-1216929D02*
X300310Y-1226452D01*
X300310Y-1226452D02*
X281262Y-1235976D01*
X281262Y-1235976D02*
X262214Y-1235976D01*
X262214Y-1235976D02*
X243167Y-1226452D01*
X243167Y-1226452D02*
X233643Y-1216929D01*
X233643Y-1216929D02*
X224119Y-1197881D01*
X224119Y-1197881D02*
X214595Y-1159786D01*
X214595Y-1159786D02*
X214595Y-1112167D01*
X214595Y-1112167D02*
X224119Y-1074071D01*
X224119Y-1074071D02*
X233643Y-1055024D01*
X233643Y-1055024D02*
X243167Y-1045500D01*
X243167Y-1045500D02*
X262214Y-1035976D01*
X414595Y-1216929D02*
X424119Y-1226452D01*
X424119Y-1226452D02*
X414595Y-1235976D01*
X414595Y-1235976D02*
X405071Y-1226452D01*
X405071Y-1226452D02*
X414595Y-1216929D01*
X414595Y-1216929D02*
X414595Y-1235976D01*
X595548Y-1102643D02*
X595548Y-1235976D01*
X547929Y-1026452D02*
X500309Y-1169310D01*
X500309Y-1169310D02*
X624119Y-1169310D01*
X738405Y-1035976D02*
X757452Y-1035976D01*
X757452Y-1035976D02*
X776500Y-1045500D01*
X776500Y-1045500D02*
X786024Y-1055024D01*
X786024Y-1055024D02*
X795548Y-1074071D01*
X795548Y-1074071D02*
X805071Y-1112167D01*
X805071Y-1112167D02*
X805071Y-1159786D01*
X805071Y-1159786D02*
X795548Y-1197881D01*
X795548Y-1197881D02*
X786024Y-1216929D01*
X786024Y-1216929D02*
X776500Y-1226452D01*
X776500Y-1226452D02*
X757452Y-1235976D01*
X757452Y-1235976D02*
X738405Y-1235976D01*
X738405Y-1235976D02*
X719357Y-1226452D01*
X719357Y-1226452D02*
X709833Y-1216929D01*
X709833Y-1216929D02*
X700309Y-1197881D01*
X700309Y-1197881D02*
X690786Y-1159786D01*
X690786Y-1159786D02*
X690786Y-1112167D01*
X690786Y-1112167D02*
X700309Y-1074071D01*
X700309Y-1074071D02*
X709833Y-1055024D01*
X709833Y-1055024D02*
X719357Y-1045500D01*
X719357Y-1045500D02*
X738405Y-1035976D01*
X928881Y-1035976D02*
X947929Y-1035976D01*
X947929Y-1035976D02*
X966976Y-1045500D01*
X966976Y-1045500D02*
X976500Y-1055024D01*
X976500Y-1055024D02*
X986024Y-1074071D01*
X986024Y-1074071D02*
X995548Y-1112167D01*
X995548Y-1112167D02*
X995548Y-1159786D01*
X995548Y-1159786D02*
X986024Y-1197881D01*
X986024Y-1197881D02*
X976500Y-1216929D01*
X976500Y-1216929D02*
X966976Y-1226452D01*
X966976Y-1226452D02*
X947929Y-1235976D01*
X947929Y-1235976D02*
X928881Y-1235976D01*
X928881Y-1235976D02*
X909833Y-1226452D01*
X909833Y-1226452D02*
X900309Y-1216929D01*
X900309Y-1216929D02*
X890786Y-1197881D01*
X890786Y-1197881D02*
X881262Y-1159786D01*
X881262Y-1159786D02*
X881262Y-1112167D01*
X881262Y-1112167D02*
X890786Y-1074071D01*
X890786Y-1074071D02*
X900309Y-1055024D01*
X900309Y-1055024D02*
X909833Y-1045500D01*
X909833Y-1045500D02*
X928881Y-1035976D01*
X1081262Y-1235976D02*
X1081262Y-1102643D01*
X1081262Y-1121690D02*
X1090786Y-1112167D01*
X1090786Y-1112167D02*
X1109833Y-1102643D01*
X1109833Y-1102643D02*
X1138405Y-1102643D01*
X1138405Y-1102643D02*
X1157452Y-1112167D01*
X1157452Y-1112167D02*
X1166976Y-1131214D01*
X1166976Y-1131214D02*
X1166976Y-1235976D01*
X1166976Y-1131214D02*
X1176500Y-1112167D01*
X1176500Y-1112167D02*
X1195548Y-1102643D01*
X1195548Y-1102643D02*
X1224119Y-1102643D01*
X1224119Y-1102643D02*
X1243167Y-1112167D01*
X1243167Y-1112167D02*
X1252691Y-1131214D01*
X1252691Y-1131214D02*
X1252691Y-1235976D01*
X1347929Y-1235976D02*
X1347929Y-1102643D01*
X1347929Y-1121690D02*
X1357452Y-1112167D01*
X1357452Y-1112167D02*
X1376500Y-1102643D01*
X1376500Y-1102643D02*
X1405071Y-1102643D01*
X1405071Y-1102643D02*
X1424119Y-1112167D01*
X1424119Y-1112167D02*
X1433643Y-1131214D01*
X1433643Y-1131214D02*
X1433643Y-1235976D01*
X1433643Y-1131214D02*
X1443167Y-1112167D01*
X1443167Y-1112167D02*
X1462214Y-1102643D01*
X1462214Y-1102643D02*
X1490786Y-1102643D01*
X1490786Y-1102643D02*
X1509833Y-1112167D01*
X1509833Y-1112167D02*
X1519357Y-1131214D01*
X1519357Y-1131214D02*
X1519357Y-1235976D01*
X1877452Y-1026452D02*
X1706024Y-1283595D01*
X2102214Y-1035976D02*
X2121262Y-1035976D01*
X2121262Y-1035976D02*
X2140310Y-1045500D01*
X2140310Y-1045500D02*
X2149833Y-1055024D01*
X2149833Y-1055024D02*
X2159357Y-1074071D01*
X2159357Y-1074071D02*
X2168881Y-1112167D01*
X2168881Y-1112167D02*
X2168881Y-1159786D01*
X2168881Y-1159786D02*
X2159357Y-1197881D01*
X2159357Y-1197881D02*
X2149833Y-1216929D01*
X2149833Y-1216929D02*
X2140310Y-1226452D01*
X2140310Y-1226452D02*
X2121262Y-1235976D01*
X2121262Y-1235976D02*
X2102214Y-1235976D01*
X2102214Y-1235976D02*
X2083167Y-1226452D01*
X2083167Y-1226452D02*
X2073643Y-1216929D01*
X2073643Y-1216929D02*
X2064119Y-1197881D01*
X2064119Y-1197881D02*
X2054595Y-1159786D01*
X2054595Y-1159786D02*
X2054595Y-1112167D01*
X2054595Y-1112167D02*
X2064119Y-1074071D01*
X2064119Y-1074071D02*
X2073643Y-1055024D01*
X2073643Y-1055024D02*
X2083167Y-1045500D01*
X2083167Y-1045500D02*
X2102214Y-1035976D01*
X2254595Y-1216929D02*
X2264119Y-1226452D01*
X2264119Y-1226452D02*
X2254595Y-1235976D01*
X2254595Y-1235976D02*
X2245072Y-1226452D01*
X2245072Y-1226452D02*
X2254595Y-1216929D01*
X2254595Y-1216929D02*
X2254595Y-1235976D01*
X2387929Y-1035976D02*
X2406976Y-1035976D01*
X2406976Y-1035976D02*
X2426024Y-1045500D01*
X2426024Y-1045500D02*
X2435548Y-1055024D01*
X2435548Y-1055024D02*
X2445072Y-1074071D01*
X2445072Y-1074071D02*
X2454595Y-1112167D01*
X2454595Y-1112167D02*
X2454595Y-1159786D01*
X2454595Y-1159786D02*
X2445072Y-1197881D01*
X2445072Y-1197881D02*
X2435548Y-1216929D01*
X2435548Y-1216929D02*
X2426024Y-1226452D01*
X2426024Y-1226452D02*
X2406976Y-1235976D01*
X2406976Y-1235976D02*
X2387929Y-1235976D01*
X2387929Y-1235976D02*
X2368881Y-1226452D01*
X2368881Y-1226452D02*
X2359357Y-1216929D01*
X2359357Y-1216929D02*
X2349833Y-1197881D01*
X2349833Y-1197881D02*
X2340310Y-1159786D01*
X2340310Y-1159786D02*
X2340310Y-1112167D01*
X2340310Y-1112167D02*
X2349833Y-1074071D01*
X2349833Y-1074071D02*
X2359357Y-1055024D01*
X2359357Y-1055024D02*
X2368881Y-1045500D01*
X2368881Y-1045500D02*
X2387929Y-1035976D01*
X2645072Y-1235976D02*
X2530786Y-1235976D01*
X2587929Y-1235976D02*
X2587929Y-1035976D01*
X2587929Y-1035976D02*
X2568881Y-1064548D01*
X2568881Y-1064548D02*
X2549833Y-1083595D01*
X2549833Y-1083595D02*
X2530786Y-1093119D01*
X2826024Y-1035976D02*
X2730786Y-1035976D01*
X2730786Y-1035976D02*
X2721262Y-1131214D01*
X2721262Y-1131214D02*
X2730786Y-1121690D01*
X2730786Y-1121690D02*
X2749833Y-1112167D01*
X2749833Y-1112167D02*
X2797452Y-1112167D01*
X2797452Y-1112167D02*
X2816500Y-1121690D01*
X2816500Y-1121690D02*
X2826024Y-1131214D01*
X2826024Y-1131214D02*
X2835548Y-1150262D01*
X2835548Y-1150262D02*
X2835548Y-1197881D01*
X2835548Y-1197881D02*
X2826024Y-1216929D01*
X2826024Y-1216929D02*
X2816500Y-1226452D01*
X2816500Y-1226452D02*
X2797452Y-1235976D01*
X2797452Y-1235976D02*
X2749833Y-1235976D01*
X2749833Y-1235976D02*
X2730786Y-1226452D01*
X2730786Y-1226452D02*
X2721262Y-1216929D01*
X2902214Y-1035976D02*
X3035548Y-1035976D01*
X3035548Y-1035976D02*
X2949833Y-1235976D01*
X3102214Y-1035976D02*
X3102214Y-1074071D01*
X3178405Y-1035976D02*
X3178405Y-1074071D01*
X3441262Y-1312167D02*
X3431738Y-1302643D01*
X3431738Y-1302643D02*
X3412691Y-1274071D01*
X3412691Y-1274071D02*
X3403167Y-1255024D01*
X3403167Y-1255024D02*
X3393643Y-1226452D01*
X3393643Y-1226452D02*
X3384119Y-1178833D01*
X3384119Y-1178833D02*
X3384119Y-1140738D01*
X3384119Y-1140738D02*
X3393643Y-1093119D01*
X3393643Y-1093119D02*
X3403167Y-1064548D01*
X3403167Y-1064548D02*
X3412691Y-1045500D01*
X3412691Y-1045500D02*
X3431738Y-1016928D01*
X3431738Y-1016928D02*
X3441262Y-1007405D01*
X3622214Y-1235976D02*
X3507929Y-1235976D01*
X3565071Y-1235976D02*
X3565071Y-1035976D01*
X3565071Y-1035976D02*
X3546024Y-1064548D01*
X3546024Y-1064548D02*
X3526976Y-1083595D01*
X3526976Y-1083595D02*
X3507929Y-1093119D01*
X3827929Y-1235976D02*
X3827929Y-1035976D01*
X3913643Y-1235976D02*
X3913643Y-1131214D01*
X3913643Y-1131214D02*
X3904119Y-1112167D01*
X3904119Y-1112167D02*
X3885072Y-1102643D01*
X3885072Y-1102643D02*
X3856500Y-1102643D01*
X3856500Y-1102643D02*
X3837452Y-1112167D01*
X3837452Y-1112167D02*
X3827929Y-1121690D01*
X4037452Y-1235976D02*
X4018405Y-1226452D01*
X4018405Y-1226452D02*
X4008881Y-1216929D01*
X4008881Y-1216929D02*
X3999357Y-1197881D01*
X3999357Y-1197881D02*
X3999357Y-1140738D01*
X3999357Y-1140738D02*
X4008881Y-1121690D01*
X4008881Y-1121690D02*
X4018405Y-1112167D01*
X4018405Y-1112167D02*
X4037452Y-1102643D01*
X4037452Y-1102643D02*
X4066024Y-1102643D01*
X4066024Y-1102643D02*
X4085072Y-1112167D01*
X4085072Y-1112167D02*
X4094595Y-1121690D01*
X4094595Y-1121690D02*
X4104119Y-1140738D01*
X4104119Y-1140738D02*
X4104119Y-1197881D01*
X4104119Y-1197881D02*
X4094595Y-1216929D01*
X4094595Y-1216929D02*
X4085072Y-1226452D01*
X4085072Y-1226452D02*
X4066024Y-1235976D01*
X4066024Y-1235976D02*
X4037452Y-1235976D01*
X4218405Y-1235976D02*
X4199357Y-1226452D01*
X4199357Y-1226452D02*
X4189833Y-1207405D01*
X4189833Y-1207405D02*
X4189833Y-1035976D01*
X4370786Y-1226452D02*
X4351738Y-1235976D01*
X4351738Y-1235976D02*
X4313643Y-1235976D01*
X4313643Y-1235976D02*
X4294595Y-1226452D01*
X4294595Y-1226452D02*
X4285072Y-1207405D01*
X4285072Y-1207405D02*
X4285072Y-1131214D01*
X4285072Y-1131214D02*
X4294595Y-1112167D01*
X4294595Y-1112167D02*
X4313643Y-1102643D01*
X4313643Y-1102643D02*
X4351738Y-1102643D01*
X4351738Y-1102643D02*
X4370786Y-1112167D01*
X4370786Y-1112167D02*
X4380310Y-1131214D01*
X4380310Y-1131214D02*
X4380310Y-1150262D01*
X4380310Y-1150262D02*
X4285072Y-1169310D01*
X4446976Y-1312167D02*
X4456500Y-1302643D01*
X4456500Y-1302643D02*
X4475548Y-1274071D01*
X4475548Y-1274071D02*
X4485072Y-1255024D01*
X4485072Y-1255024D02*
X4494595Y-1226452D01*
X4494595Y-1226452D02*
X4504119Y-1178833D01*
X4504119Y-1178833D02*
X4504119Y-1140738D01*
X4504119Y-1140738D02*
X4494595Y-1093119D01*
X4494595Y-1093119D02*
X4485072Y-1064548D01*
X4485072Y-1064548D02*
X4475548Y-1045500D01*
X4475548Y-1045500D02*
X4456500Y-1016928D01*
X4456500Y-1016928D02*
X4446976Y-1007405D01*
D15*
X-32287Y-1447713D02*
X-32287Y-1405287D01*
X-74713Y-1405287D01*
X-74713Y-1447713D01*
X-32287Y-1447713D01*
D11*
X262214Y-1299976D02*
X281262Y-1299976D01*
X281262Y-1299976D02*
X300310Y-1309500D01*
X300310Y-1309500D02*
X309833Y-1319024D01*
X309833Y-1319024D02*
X319357Y-1338071D01*
X319357Y-1338071D02*
X328881Y-1376167D01*
X328881Y-1376167D02*
X328881Y-1423786D01*
X328881Y-1423786D02*
X319357Y-1461881D01*
X319357Y-1461881D02*
X309833Y-1480928D01*
X309833Y-1480928D02*
X300310Y-1490452D01*
X300310Y-1490452D02*
X281262Y-1499976D01*
X281262Y-1499976D02*
X262214Y-1499976D01*
X262214Y-1499976D02*
X243167Y-1490452D01*
X243167Y-1490452D02*
X233643Y-1480928D01*
X233643Y-1480928D02*
X224119Y-1461881D01*
X224119Y-1461881D02*
X214595Y-1423786D01*
X214595Y-1423786D02*
X214595Y-1376167D01*
X214595Y-1376167D02*
X224119Y-1338071D01*
X224119Y-1338071D02*
X233643Y-1319024D01*
X233643Y-1319024D02*
X243167Y-1309500D01*
X243167Y-1309500D02*
X262214Y-1299976D01*
X414595Y-1480928D02*
X424119Y-1490452D01*
X424119Y-1490452D02*
X414595Y-1499976D01*
X414595Y-1499976D02*
X405071Y-1490452D01*
X405071Y-1490452D02*
X414595Y-1480928D01*
X414595Y-1480928D02*
X414595Y-1499976D01*
X595548Y-1299976D02*
X557452Y-1299976D01*
X557452Y-1299976D02*
X538405Y-1309500D01*
X538405Y-1309500D02*
X528881Y-1319024D01*
X528881Y-1319024D02*
X509833Y-1347595D01*
X509833Y-1347595D02*
X500309Y-1385690D01*
X500309Y-1385690D02*
X500309Y-1461881D01*
X500309Y-1461881D02*
X509833Y-1480928D01*
X509833Y-1480928D02*
X519357Y-1490452D01*
X519357Y-1490452D02*
X538405Y-1499976D01*
X538405Y-1499976D02*
X576500Y-1499976D01*
X576500Y-1499976D02*
X595548Y-1490452D01*
X595548Y-1490452D02*
X605071Y-1480928D01*
X605071Y-1480928D02*
X614595Y-1461881D01*
X614595Y-1461881D02*
X614595Y-1414262D01*
X614595Y-1414262D02*
X605071Y-1395214D01*
X605071Y-1395214D02*
X595548Y-1385690D01*
X595548Y-1385690D02*
X576500Y-1376167D01*
X576500Y-1376167D02*
X538405Y-1376167D01*
X538405Y-1376167D02*
X519357Y-1385690D01*
X519357Y-1385690D02*
X509833Y-1395214D01*
X509833Y-1395214D02*
X500309Y-1414262D01*
X738405Y-1299976D02*
X757452Y-1299976D01*
X757452Y-1299976D02*
X776500Y-1309500D01*
X776500Y-1309500D02*
X786024Y-1319024D01*
X786024Y-1319024D02*
X795548Y-1338071D01*
X795548Y-1338071D02*
X805071Y-1376167D01*
X805071Y-1376167D02*
X805071Y-1423786D01*
X805071Y-1423786D02*
X795548Y-1461881D01*
X795548Y-1461881D02*
X786024Y-1480928D01*
X786024Y-1480928D02*
X776500Y-1490452D01*
X776500Y-1490452D02*
X757452Y-1499976D01*
X757452Y-1499976D02*
X738405Y-1499976D01*
X738405Y-1499976D02*
X719357Y-1490452D01*
X719357Y-1490452D02*
X709833Y-1480928D01*
X709833Y-1480928D02*
X700309Y-1461881D01*
X700309Y-1461881D02*
X690786Y-1423786D01*
X690786Y-1423786D02*
X690786Y-1376167D01*
X690786Y-1376167D02*
X700309Y-1338071D01*
X700309Y-1338071D02*
X709833Y-1319024D01*
X709833Y-1319024D02*
X719357Y-1309500D01*
X719357Y-1309500D02*
X738405Y-1299976D01*
X928881Y-1299976D02*
X947929Y-1299976D01*
X947929Y-1299976D02*
X966976Y-1309500D01*
X966976Y-1309500D02*
X976500Y-1319024D01*
X976500Y-1319024D02*
X986024Y-1338071D01*
X986024Y-1338071D02*
X995548Y-1376167D01*
X995548Y-1376167D02*
X995548Y-1423786D01*
X995548Y-1423786D02*
X986024Y-1461881D01*
X986024Y-1461881D02*
X976500Y-1480928D01*
X976500Y-1480928D02*
X966976Y-1490452D01*
X966976Y-1490452D02*
X947929Y-1499976D01*
X947929Y-1499976D02*
X928881Y-1499976D01*
X928881Y-1499976D02*
X909833Y-1490452D01*
X909833Y-1490452D02*
X900309Y-1480928D01*
X900309Y-1480928D02*
X890786Y-1461881D01*
X890786Y-1461881D02*
X881262Y-1423786D01*
X881262Y-1423786D02*
X881262Y-1376167D01*
X881262Y-1376167D02*
X890786Y-1338071D01*
X890786Y-1338071D02*
X900309Y-1319024D01*
X900309Y-1319024D02*
X909833Y-1309500D01*
X909833Y-1309500D02*
X928881Y-1299976D01*
X1081262Y-1499976D02*
X1081262Y-1366643D01*
X1081262Y-1385690D02*
X1090786Y-1376167D01*
X1090786Y-1376167D02*
X1109833Y-1366643D01*
X1109833Y-1366643D02*
X1138405Y-1366643D01*
X1138405Y-1366643D02*
X1157452Y-1376167D01*
X1157452Y-1376167D02*
X1166976Y-1395214D01*
X1166976Y-1395214D02*
X1166976Y-1499976D01*
X1166976Y-1395214D02*
X1176500Y-1376167D01*
X1176500Y-1376167D02*
X1195548Y-1366643D01*
X1195548Y-1366643D02*
X1224119Y-1366643D01*
X1224119Y-1366643D02*
X1243167Y-1376167D01*
X1243167Y-1376167D02*
X1252691Y-1395214D01*
X1252691Y-1395214D02*
X1252691Y-1499976D01*
X1347929Y-1499976D02*
X1347929Y-1366643D01*
X1347929Y-1385690D02*
X1357452Y-1376167D01*
X1357452Y-1376167D02*
X1376500Y-1366643D01*
X1376500Y-1366643D02*
X1405071Y-1366643D01*
X1405071Y-1366643D02*
X1424119Y-1376167D01*
X1424119Y-1376167D02*
X1433643Y-1395214D01*
X1433643Y-1395214D02*
X1433643Y-1499976D01*
X1433643Y-1395214D02*
X1443167Y-1376167D01*
X1443167Y-1376167D02*
X1462214Y-1366643D01*
X1462214Y-1366643D02*
X1490786Y-1366643D01*
X1490786Y-1366643D02*
X1509833Y-1376167D01*
X1509833Y-1376167D02*
X1519357Y-1395214D01*
X1519357Y-1395214D02*
X1519357Y-1499976D01*
X1877452Y-1290452D02*
X1706024Y-1547595D01*
X2102214Y-1299976D02*
X2121262Y-1299976D01*
X2121262Y-1299976D02*
X2140310Y-1309500D01*
X2140310Y-1309500D02*
X2149833Y-1319024D01*
X2149833Y-1319024D02*
X2159357Y-1338071D01*
X2159357Y-1338071D02*
X2168881Y-1376167D01*
X2168881Y-1376167D02*
X2168881Y-1423786D01*
X2168881Y-1423786D02*
X2159357Y-1461881D01*
X2159357Y-1461881D02*
X2149833Y-1480928D01*
X2149833Y-1480928D02*
X2140310Y-1490452D01*
X2140310Y-1490452D02*
X2121262Y-1499976D01*
X2121262Y-1499976D02*
X2102214Y-1499976D01*
X2102214Y-1499976D02*
X2083167Y-1490452D01*
X2083167Y-1490452D02*
X2073643Y-1480928D01*
X2073643Y-1480928D02*
X2064119Y-1461881D01*
X2064119Y-1461881D02*
X2054595Y-1423786D01*
X2054595Y-1423786D02*
X2054595Y-1376167D01*
X2054595Y-1376167D02*
X2064119Y-1338071D01*
X2064119Y-1338071D02*
X2073643Y-1319024D01*
X2073643Y-1319024D02*
X2083167Y-1309500D01*
X2083167Y-1309500D02*
X2102214Y-1299976D01*
X2254595Y-1480928D02*
X2264119Y-1490452D01*
X2264119Y-1490452D02*
X2254595Y-1499976D01*
X2254595Y-1499976D02*
X2245072Y-1490452D01*
X2245072Y-1490452D02*
X2254595Y-1480928D01*
X2254595Y-1480928D02*
X2254595Y-1499976D01*
X2387929Y-1299976D02*
X2406976Y-1299976D01*
X2406976Y-1299976D02*
X2426024Y-1309500D01*
X2426024Y-1309500D02*
X2435548Y-1319024D01*
X2435548Y-1319024D02*
X2445072Y-1338071D01*
X2445072Y-1338071D02*
X2454595Y-1376167D01*
X2454595Y-1376167D02*
X2454595Y-1423786D01*
X2454595Y-1423786D02*
X2445072Y-1461881D01*
X2445072Y-1461881D02*
X2435548Y-1480928D01*
X2435548Y-1480928D02*
X2426024Y-1490452D01*
X2426024Y-1490452D02*
X2406976Y-1499976D01*
X2406976Y-1499976D02*
X2387929Y-1499976D01*
X2387929Y-1499976D02*
X2368881Y-1490452D01*
X2368881Y-1490452D02*
X2359357Y-1480928D01*
X2359357Y-1480928D02*
X2349833Y-1461881D01*
X2349833Y-1461881D02*
X2340310Y-1423786D01*
X2340310Y-1423786D02*
X2340310Y-1376167D01*
X2340310Y-1376167D02*
X2349833Y-1338071D01*
X2349833Y-1338071D02*
X2359357Y-1319024D01*
X2359357Y-1319024D02*
X2368881Y-1309500D01*
X2368881Y-1309500D02*
X2387929Y-1299976D01*
X2530786Y-1319024D02*
X2540310Y-1309500D01*
X2540310Y-1309500D02*
X2559357Y-1299976D01*
X2559357Y-1299976D02*
X2606976Y-1299976D01*
X2606976Y-1299976D02*
X2626024Y-1309500D01*
X2626024Y-1309500D02*
X2635548Y-1319024D01*
X2635548Y-1319024D02*
X2645072Y-1338071D01*
X2645072Y-1338071D02*
X2645072Y-1357119D01*
X2645072Y-1357119D02*
X2635548Y-1385690D01*
X2635548Y-1385690D02*
X2521262Y-1499976D01*
X2521262Y-1499976D02*
X2645072Y-1499976D01*
X2711738Y-1299976D02*
X2835548Y-1299976D01*
X2835548Y-1299976D02*
X2768881Y-1376167D01*
X2768881Y-1376167D02*
X2797452Y-1376167D01*
X2797452Y-1376167D02*
X2816500Y-1385690D01*
X2816500Y-1385690D02*
X2826024Y-1395214D01*
X2826024Y-1395214D02*
X2835548Y-1414262D01*
X2835548Y-1414262D02*
X2835548Y-1461881D01*
X2835548Y-1461881D02*
X2826024Y-1480928D01*
X2826024Y-1480928D02*
X2816500Y-1490452D01*
X2816500Y-1490452D02*
X2797452Y-1499976D01*
X2797452Y-1499976D02*
X2740310Y-1499976D01*
X2740310Y-1499976D02*
X2721262Y-1490452D01*
X2721262Y-1490452D02*
X2711738Y-1480928D01*
X3006976Y-1299976D02*
X2968881Y-1299976D01*
X2968881Y-1299976D02*
X2949833Y-1309500D01*
X2949833Y-1309500D02*
X2940310Y-1319024D01*
X2940310Y-1319024D02*
X2921262Y-1347595D01*
X2921262Y-1347595D02*
X2911738Y-1385690D01*
X2911738Y-1385690D02*
X2911738Y-1461881D01*
X2911738Y-1461881D02*
X2921262Y-1480928D01*
X2921262Y-1480928D02*
X2930786Y-1490452D01*
X2930786Y-1490452D02*
X2949833Y-1499976D01*
X2949833Y-1499976D02*
X2987929Y-1499976D01*
X2987929Y-1499976D02*
X3006976Y-1490452D01*
X3006976Y-1490452D02*
X3016500Y-1480928D01*
X3016500Y-1480928D02*
X3026024Y-1461881D01*
X3026024Y-1461881D02*
X3026024Y-1414262D01*
X3026024Y-1414262D02*
X3016500Y-1395214D01*
X3016500Y-1395214D02*
X3006976Y-1385690D01*
X3006976Y-1385690D02*
X2987929Y-1376167D01*
X2987929Y-1376167D02*
X2949833Y-1376167D01*
X2949833Y-1376167D02*
X2930786Y-1385690D01*
X2930786Y-1385690D02*
X2921262Y-1395214D01*
X2921262Y-1395214D02*
X2911738Y-1414262D01*
X3102214Y-1299976D02*
X3102214Y-1338071D01*
X3178405Y-1299976D02*
X3178405Y-1338071D01*
X3441262Y-1576167D02*
X3431738Y-1566643D01*
X3431738Y-1566643D02*
X3412691Y-1538071D01*
X3412691Y-1538071D02*
X3403167Y-1519024D01*
X3403167Y-1519024D02*
X3393643Y-1490452D01*
X3393643Y-1490452D02*
X3384119Y-1442833D01*
X3384119Y-1442833D02*
X3384119Y-1404738D01*
X3384119Y-1404738D02*
X3393643Y-1357119D01*
X3393643Y-1357119D02*
X3403167Y-1328548D01*
X3403167Y-1328548D02*
X3412691Y-1309500D01*
X3412691Y-1309500D02*
X3431738Y-1280929D01*
X3431738Y-1280929D02*
X3441262Y-1271405D01*
X3555548Y-1299976D02*
X3574595Y-1299976D01*
X3574595Y-1299976D02*
X3593643Y-1309500D01*
X3593643Y-1309500D02*
X3603167Y-1319024D01*
X3603167Y-1319024D02*
X3612691Y-1338071D01*
X3612691Y-1338071D02*
X3622214Y-1376167D01*
X3622214Y-1376167D02*
X3622214Y-1423786D01*
X3622214Y-1423786D02*
X3612691Y-1461881D01*
X3612691Y-1461881D02*
X3603167Y-1480928D01*
X3603167Y-1480928D02*
X3593643Y-1490452D01*
X3593643Y-1490452D02*
X3574595Y-1499976D01*
X3574595Y-1499976D02*
X3555548Y-1499976D01*
X3555548Y-1499976D02*
X3536500Y-1490452D01*
X3536500Y-1490452D02*
X3526976Y-1480928D01*
X3526976Y-1480928D02*
X3517452Y-1461881D01*
X3517452Y-1461881D02*
X3507929Y-1423786D01*
X3507929Y-1423786D02*
X3507929Y-1376167D01*
X3507929Y-1376167D02*
X3517452Y-1338071D01*
X3517452Y-1338071D02*
X3526976Y-1319024D01*
X3526976Y-1319024D02*
X3536500Y-1309500D01*
X3536500Y-1309500D02*
X3555548Y-1299976D01*
X3827929Y-1499976D02*
X3827929Y-1299976D01*
X3913643Y-1499976D02*
X3913643Y-1395214D01*
X3913643Y-1395214D02*
X3904119Y-1376167D01*
X3904119Y-1376167D02*
X3885072Y-1366643D01*
X3885072Y-1366643D02*
X3856500Y-1366643D01*
X3856500Y-1366643D02*
X3837452Y-1376167D01*
X3837452Y-1376167D02*
X3827929Y-1385690D01*
X4037452Y-1499976D02*
X4018405Y-1490452D01*
X4018405Y-1490452D02*
X4008881Y-1480928D01*
X4008881Y-1480928D02*
X3999357Y-1461881D01*
X3999357Y-1461881D02*
X3999357Y-1404738D01*
X3999357Y-1404738D02*
X4008881Y-1385690D01*
X4008881Y-1385690D02*
X4018405Y-1376167D01*
X4018405Y-1376167D02*
X4037452Y-1366643D01*
X4037452Y-1366643D02*
X4066024Y-1366643D01*
X4066024Y-1366643D02*
X4085072Y-1376167D01*
X4085072Y-1376167D02*
X4094595Y-1385690D01*
X4094595Y-1385690D02*
X4104119Y-1404738D01*
X4104119Y-1404738D02*
X4104119Y-1461881D01*
X4104119Y-1461881D02*
X4094595Y-1480928D01*
X4094595Y-1480928D02*
X4085072Y-1490452D01*
X4085072Y-1490452D02*
X4066024Y-1499976D01*
X4066024Y-1499976D02*
X4037452Y-1499976D01*
X4218405Y-1499976D02*
X4199357Y-1490452D01*
X4199357Y-1490452D02*
X4189833Y-1471405D01*
X4189833Y-1471405D02*
X4189833Y-1299976D01*
X4370786Y-1490452D02*
X4351738Y-1499976D01*
X4351738Y-1499976D02*
X4313643Y-1499976D01*
X4313643Y-1499976D02*
X4294595Y-1490452D01*
X4294595Y-1490452D02*
X4285072Y-1471405D01*
X4285072Y-1471405D02*
X4285072Y-1395214D01*
X4285072Y-1395214D02*
X4294595Y-1376167D01*
X4294595Y-1376167D02*
X4313643Y-1366643D01*
X4313643Y-1366643D02*
X4351738Y-1366643D01*
X4351738Y-1366643D02*
X4370786Y-1376167D01*
X4370786Y-1376167D02*
X4380310Y-1395214D01*
X4380310Y-1395214D02*
X4380310Y-1414262D01*
X4380310Y-1414262D02*
X4285072Y-1433309D01*
X4456500Y-1490452D02*
X4475548Y-1499976D01*
X4475548Y-1499976D02*
X4513643Y-1499976D01*
X4513643Y-1499976D02*
X4532691Y-1490452D01*
X4532691Y-1490452D02*
X4542215Y-1471405D01*
X4542215Y-1471405D02*
X4542215Y-1461881D01*
X4542215Y-1461881D02*
X4532691Y-1442833D01*
X4532691Y-1442833D02*
X4513643Y-1433309D01*
X4513643Y-1433309D02*
X4485072Y-1433309D01*
X4485072Y-1433309D02*
X4466024Y-1423786D01*
X4466024Y-1423786D02*
X4456500Y-1404738D01*
X4456500Y-1404738D02*
X4456500Y-1395214D01*
X4456500Y-1395214D02*
X4466024Y-1376167D01*
X4466024Y-1376167D02*
X4485072Y-1366643D01*
X4485072Y-1366643D02*
X4513643Y-1366643D01*
X4513643Y-1366643D02*
X4532691Y-1376167D01*
X4747929Y-1423786D02*
X4900310Y-1423786D01*
X4824119Y-1499976D02*
X4824119Y-1347595D01*
X5201262Y-1366643D02*
X5201262Y-1499976D01*
X5153643Y-1290452D02*
X5106024Y-1433309D01*
X5106024Y-1433309D02*
X5229834Y-1433309D01*
X5416500Y-1490452D02*
X5435548Y-1499976D01*
X5435548Y-1499976D02*
X5473643Y-1499976D01*
X5473643Y-1499976D02*
X5492691Y-1490452D01*
X5492691Y-1490452D02*
X5502215Y-1471405D01*
X5502215Y-1471405D02*
X5502215Y-1461881D01*
X5502215Y-1461881D02*
X5492691Y-1442833D01*
X5492691Y-1442833D02*
X5473643Y-1433309D01*
X5473643Y-1433309D02*
X5445072Y-1433309D01*
X5445072Y-1433309D02*
X5426024Y-1423786D01*
X5426024Y-1423786D02*
X5416500Y-1404738D01*
X5416500Y-1404738D02*
X5416500Y-1395214D01*
X5416500Y-1395214D02*
X5426024Y-1376167D01*
X5426024Y-1376167D02*
X5445072Y-1366643D01*
X5445072Y-1366643D02*
X5473643Y-1366643D01*
X5473643Y-1366643D02*
X5492691Y-1376167D01*
X5616500Y-1499976D02*
X5597453Y-1490452D01*
X5597453Y-1490452D02*
X5587929Y-1471405D01*
X5587929Y-1471405D02*
X5587929Y-1299976D01*
X5721262Y-1499976D02*
X5702214Y-1490452D01*
X5702214Y-1490452D02*
X5692691Y-1480928D01*
X5692691Y-1480928D02*
X5683167Y-1461881D01*
X5683167Y-1461881D02*
X5683167Y-1404738D01*
X5683167Y-1404738D02*
X5692691Y-1385690D01*
X5692691Y-1385690D02*
X5702214Y-1376167D01*
X5702214Y-1376167D02*
X5721262Y-1366643D01*
X5721262Y-1366643D02*
X5749834Y-1366643D01*
X5749834Y-1366643D02*
X5768881Y-1376167D01*
X5768881Y-1376167D02*
X5778405Y-1385690D01*
X5778405Y-1385690D02*
X5787929Y-1404738D01*
X5787929Y-1404738D02*
X5787929Y-1461881D01*
X5787929Y-1461881D02*
X5778405Y-1480928D01*
X5778405Y-1480928D02*
X5768881Y-1490452D01*
X5768881Y-1490452D02*
X5749834Y-1499976D01*
X5749834Y-1499976D02*
X5721262Y-1499976D01*
X5845072Y-1366643D02*
X5921262Y-1366643D01*
X5873643Y-1299976D02*
X5873643Y-1471405D01*
X5873643Y-1471405D02*
X5883167Y-1490452D01*
X5883167Y-1490452D02*
X5902214Y-1499976D01*
X5902214Y-1499976D02*
X5921262Y-1499976D01*
X5978405Y-1490452D02*
X5997453Y-1499976D01*
X5997453Y-1499976D02*
X6035548Y-1499976D01*
X6035548Y-1499976D02*
X6054595Y-1490452D01*
X6054595Y-1490452D02*
X6064119Y-1471405D01*
X6064119Y-1471405D02*
X6064119Y-1461881D01*
X6064119Y-1461881D02*
X6054595Y-1442833D01*
X6054595Y-1442833D02*
X6035548Y-1433309D01*
X6035548Y-1433309D02*
X6006976Y-1433309D01*
X6006976Y-1433309D02*
X5987929Y-1423786D01*
X5987929Y-1423786D02*
X5978405Y-1404738D01*
X5978405Y-1404738D02*
X5978405Y-1395214D01*
X5978405Y-1395214D02*
X5987929Y-1376167D01*
X5987929Y-1376167D02*
X6006976Y-1366643D01*
X6006976Y-1366643D02*
X6035548Y-1366643D01*
X6035548Y-1366643D02*
X6054595Y-1376167D01*
X6130786Y-1576167D02*
X6140310Y-1566643D01*
X6140310Y-1566643D02*
X6159357Y-1538071D01*
X6159357Y-1538071D02*
X6168881Y-1519024D01*
X6168881Y-1519024D02*
X6178405Y-1490452D01*
X6178405Y-1490452D02*
X6187929Y-1442833D01*
X6187929Y-1442833D02*
X6187929Y-1404738D01*
X6187929Y-1404738D02*
X6178405Y-1357119D01*
X6178405Y-1357119D02*
X6168881Y-1328548D01*
X6168881Y-1328548D02*
X6159357Y-1309500D01*
X6159357Y-1309500D02*
X6140310Y-1280929D01*
X6140310Y-1280929D02*
X6130786Y-1271405D01*
D10*
X-73500Y-1740500D02*
X-23500Y-1690500D01*
X-73500Y-1640500D01*
X-123500Y-1690500D01*
X-73500Y-1740500D01*
D11*
X328881Y-1763976D02*
X214595Y-1763976D01*
X271738Y-1763976D02*
X271738Y-1563976D01*
X271738Y-1563976D02*
X252690Y-1592548D01*
X252690Y-1592548D02*
X233643Y-1611595D01*
X233643Y-1611595D02*
X214595Y-1621119D01*
X414595Y-1744928D02*
X424119Y-1754452D01*
X424119Y-1754452D02*
X414595Y-1763976D01*
X414595Y-1763976D02*
X405071Y-1754452D01*
X405071Y-1754452D02*
X414595Y-1744928D01*
X414595Y-1744928D02*
X414595Y-1763976D01*
X547929Y-1563976D02*
X566976Y-1563976D01*
X566976Y-1563976D02*
X586024Y-1573500D01*
X586024Y-1573500D02*
X595548Y-1583024D01*
X595548Y-1583024D02*
X605071Y-1602071D01*
X605071Y-1602071D02*
X614595Y-1640167D01*
X614595Y-1640167D02*
X614595Y-1687786D01*
X614595Y-1687786D02*
X605071Y-1725881D01*
X605071Y-1725881D02*
X595548Y-1744928D01*
X595548Y-1744928D02*
X586024Y-1754452D01*
X586024Y-1754452D02*
X566976Y-1763976D01*
X566976Y-1763976D02*
X547929Y-1763976D01*
X547929Y-1763976D02*
X528881Y-1754452D01*
X528881Y-1754452D02*
X519357Y-1744928D01*
X519357Y-1744928D02*
X509833Y-1725881D01*
X509833Y-1725881D02*
X500309Y-1687786D01*
X500309Y-1687786D02*
X500309Y-1640167D01*
X500309Y-1640167D02*
X509833Y-1602071D01*
X509833Y-1602071D02*
X519357Y-1583024D01*
X519357Y-1583024D02*
X528881Y-1573500D01*
X528881Y-1573500D02*
X547929Y-1563976D01*
X738405Y-1563976D02*
X757452Y-1563976D01*
X757452Y-1563976D02*
X776500Y-1573500D01*
X776500Y-1573500D02*
X786024Y-1583024D01*
X786024Y-1583024D02*
X795548Y-1602071D01*
X795548Y-1602071D02*
X805071Y-1640167D01*
X805071Y-1640167D02*
X805071Y-1687786D01*
X805071Y-1687786D02*
X795548Y-1725881D01*
X795548Y-1725881D02*
X786024Y-1744928D01*
X786024Y-1744928D02*
X776500Y-1754452D01*
X776500Y-1754452D02*
X757452Y-1763976D01*
X757452Y-1763976D02*
X738405Y-1763976D01*
X738405Y-1763976D02*
X719357Y-1754452D01*
X719357Y-1754452D02*
X709833Y-1744928D01*
X709833Y-1744928D02*
X700309Y-1725881D01*
X700309Y-1725881D02*
X690786Y-1687786D01*
X690786Y-1687786D02*
X690786Y-1640167D01*
X690786Y-1640167D02*
X700309Y-1602071D01*
X700309Y-1602071D02*
X709833Y-1583024D01*
X709833Y-1583024D02*
X719357Y-1573500D01*
X719357Y-1573500D02*
X738405Y-1563976D01*
X928881Y-1563976D02*
X947929Y-1563976D01*
X947929Y-1563976D02*
X966976Y-1573500D01*
X966976Y-1573500D02*
X976500Y-1583024D01*
X976500Y-1583024D02*
X986024Y-1602071D01*
X986024Y-1602071D02*
X995548Y-1640167D01*
X995548Y-1640167D02*
X995548Y-1687786D01*
X995548Y-1687786D02*
X986024Y-1725881D01*
X986024Y-1725881D02*
X976500Y-1744928D01*
X976500Y-1744928D02*
X966976Y-1754452D01*
X966976Y-1754452D02*
X947929Y-1763976D01*
X947929Y-1763976D02*
X928881Y-1763976D01*
X928881Y-1763976D02*
X909833Y-1754452D01*
X909833Y-1754452D02*
X900309Y-1744928D01*
X900309Y-1744928D02*
X890786Y-1725881D01*
X890786Y-1725881D02*
X881262Y-1687786D01*
X881262Y-1687786D02*
X881262Y-1640167D01*
X881262Y-1640167D02*
X890786Y-1602071D01*
X890786Y-1602071D02*
X900309Y-1583024D01*
X900309Y-1583024D02*
X909833Y-1573500D01*
X909833Y-1573500D02*
X928881Y-1563976D01*
X1081262Y-1763976D02*
X1081262Y-1630643D01*
X1081262Y-1649690D02*
X1090786Y-1640167D01*
X1090786Y-1640167D02*
X1109833Y-1630643D01*
X1109833Y-1630643D02*
X1138405Y-1630643D01*
X1138405Y-1630643D02*
X1157452Y-1640167D01*
X1157452Y-1640167D02*
X1166976Y-1659214D01*
X1166976Y-1659214D02*
X1166976Y-1763976D01*
X1166976Y-1659214D02*
X1176500Y-1640167D01*
X1176500Y-1640167D02*
X1195548Y-1630643D01*
X1195548Y-1630643D02*
X1224119Y-1630643D01*
X1224119Y-1630643D02*
X1243167Y-1640167D01*
X1243167Y-1640167D02*
X1252691Y-1659214D01*
X1252691Y-1659214D02*
X1252691Y-1763976D01*
X1347929Y-1763976D02*
X1347929Y-1630643D01*
X1347929Y-1649690D02*
X1357452Y-1640167D01*
X1357452Y-1640167D02*
X1376500Y-1630643D01*
X1376500Y-1630643D02*
X1405071Y-1630643D01*
X1405071Y-1630643D02*
X1424119Y-1640167D01*
X1424119Y-1640167D02*
X1433643Y-1659214D01*
X1433643Y-1659214D02*
X1433643Y-1763976D01*
X1433643Y-1659214D02*
X1443167Y-1640167D01*
X1443167Y-1640167D02*
X1462214Y-1630643D01*
X1462214Y-1630643D02*
X1490786Y-1630643D01*
X1490786Y-1630643D02*
X1509833Y-1640167D01*
X1509833Y-1640167D02*
X1519357Y-1659214D01*
X1519357Y-1659214D02*
X1519357Y-1763976D01*
X1877452Y-1554452D02*
X1706024Y-1811595D01*
X2102214Y-1563976D02*
X2121262Y-1563976D01*
X2121262Y-1563976D02*
X2140310Y-1573500D01*
X2140310Y-1573500D02*
X2149833Y-1583024D01*
X2149833Y-1583024D02*
X2159357Y-1602071D01*
X2159357Y-1602071D02*
X2168881Y-1640167D01*
X2168881Y-1640167D02*
X2168881Y-1687786D01*
X2168881Y-1687786D02*
X2159357Y-1725881D01*
X2159357Y-1725881D02*
X2149833Y-1744928D01*
X2149833Y-1744928D02*
X2140310Y-1754452D01*
X2140310Y-1754452D02*
X2121262Y-1763976D01*
X2121262Y-1763976D02*
X2102214Y-1763976D01*
X2102214Y-1763976D02*
X2083167Y-1754452D01*
X2083167Y-1754452D02*
X2073643Y-1744928D01*
X2073643Y-1744928D02*
X2064119Y-1725881D01*
X2064119Y-1725881D02*
X2054595Y-1687786D01*
X2054595Y-1687786D02*
X2054595Y-1640167D01*
X2054595Y-1640167D02*
X2064119Y-1602071D01*
X2064119Y-1602071D02*
X2073643Y-1583024D01*
X2073643Y-1583024D02*
X2083167Y-1573500D01*
X2083167Y-1573500D02*
X2102214Y-1563976D01*
X2254595Y-1744928D02*
X2264119Y-1754452D01*
X2264119Y-1754452D02*
X2254595Y-1763976D01*
X2254595Y-1763976D02*
X2245072Y-1754452D01*
X2245072Y-1754452D02*
X2254595Y-1744928D01*
X2254595Y-1744928D02*
X2254595Y-1763976D01*
X2387929Y-1563976D02*
X2406976Y-1563976D01*
X2406976Y-1563976D02*
X2426024Y-1573500D01*
X2426024Y-1573500D02*
X2435548Y-1583024D01*
X2435548Y-1583024D02*
X2445072Y-1602071D01*
X2445072Y-1602071D02*
X2454595Y-1640167D01*
X2454595Y-1640167D02*
X2454595Y-1687786D01*
X2454595Y-1687786D02*
X2445072Y-1725881D01*
X2445072Y-1725881D02*
X2435548Y-1744928D01*
X2435548Y-1744928D02*
X2426024Y-1754452D01*
X2426024Y-1754452D02*
X2406976Y-1763976D01*
X2406976Y-1763976D02*
X2387929Y-1763976D01*
X2387929Y-1763976D02*
X2368881Y-1754452D01*
X2368881Y-1754452D02*
X2359357Y-1744928D01*
X2359357Y-1744928D02*
X2349833Y-1725881D01*
X2349833Y-1725881D02*
X2340310Y-1687786D01*
X2340310Y-1687786D02*
X2340310Y-1640167D01*
X2340310Y-1640167D02*
X2349833Y-1602071D01*
X2349833Y-1602071D02*
X2359357Y-1583024D01*
X2359357Y-1583024D02*
X2368881Y-1573500D01*
X2368881Y-1573500D02*
X2387929Y-1563976D01*
X2521262Y-1563976D02*
X2645072Y-1563976D01*
X2645072Y-1563976D02*
X2578405Y-1640167D01*
X2578405Y-1640167D02*
X2606976Y-1640167D01*
X2606976Y-1640167D02*
X2626024Y-1649690D01*
X2626024Y-1649690D02*
X2635548Y-1659214D01*
X2635548Y-1659214D02*
X2645072Y-1678262D01*
X2645072Y-1678262D02*
X2645072Y-1725881D01*
X2645072Y-1725881D02*
X2635548Y-1744928D01*
X2635548Y-1744928D02*
X2626024Y-1754452D01*
X2626024Y-1754452D02*
X2606976Y-1763976D01*
X2606976Y-1763976D02*
X2549833Y-1763976D01*
X2549833Y-1763976D02*
X2530786Y-1754452D01*
X2530786Y-1754452D02*
X2521262Y-1744928D01*
X2740310Y-1763976D02*
X2778405Y-1763976D01*
X2778405Y-1763976D02*
X2797452Y-1754452D01*
X2797452Y-1754452D02*
X2806976Y-1744928D01*
X2806976Y-1744928D02*
X2826024Y-1716357D01*
X2826024Y-1716357D02*
X2835548Y-1678262D01*
X2835548Y-1678262D02*
X2835548Y-1602071D01*
X2835548Y-1602071D02*
X2826024Y-1583024D01*
X2826024Y-1583024D02*
X2816500Y-1573500D01*
X2816500Y-1573500D02*
X2797452Y-1563976D01*
X2797452Y-1563976D02*
X2759357Y-1563976D01*
X2759357Y-1563976D02*
X2740310Y-1573500D01*
X2740310Y-1573500D02*
X2730786Y-1583024D01*
X2730786Y-1583024D02*
X2721262Y-1602071D01*
X2721262Y-1602071D02*
X2721262Y-1649690D01*
X2721262Y-1649690D02*
X2730786Y-1668738D01*
X2730786Y-1668738D02*
X2740310Y-1678262D01*
X2740310Y-1678262D02*
X2759357Y-1687786D01*
X2759357Y-1687786D02*
X2797452Y-1687786D01*
X2797452Y-1687786D02*
X2816500Y-1678262D01*
X2816500Y-1678262D02*
X2826024Y-1668738D01*
X2826024Y-1668738D02*
X2835548Y-1649690D01*
X3006976Y-1630643D02*
X3006976Y-1763976D01*
X2959357Y-1554452D02*
X2911738Y-1697309D01*
X2911738Y-1697309D02*
X3035548Y-1697309D01*
X3102214Y-1563976D02*
X3102214Y-1602071D01*
X3178405Y-1563976D02*
X3178405Y-1602071D01*
X3441262Y-1840167D02*
X3431738Y-1830643D01*
X3431738Y-1830643D02*
X3412691Y-1802071D01*
X3412691Y-1802071D02*
X3403167Y-1783024D01*
X3403167Y-1783024D02*
X3393643Y-1754452D01*
X3393643Y-1754452D02*
X3384119Y-1706833D01*
X3384119Y-1706833D02*
X3384119Y-1668738D01*
X3384119Y-1668738D02*
X3393643Y-1621119D01*
X3393643Y-1621119D02*
X3403167Y-1592548D01*
X3403167Y-1592548D02*
X3412691Y-1573500D01*
X3412691Y-1573500D02*
X3431738Y-1544928D01*
X3431738Y-1544928D02*
X3441262Y-1535405D01*
X3622214Y-1763976D02*
X3507929Y-1763976D01*
X3565071Y-1763976D02*
X3565071Y-1563976D01*
X3565071Y-1563976D02*
X3546024Y-1592548D01*
X3546024Y-1592548D02*
X3526976Y-1611595D01*
X3526976Y-1611595D02*
X3507929Y-1621119D01*
X3746024Y-1563976D02*
X3765072Y-1563976D01*
X3765072Y-1563976D02*
X3784119Y-1573500D01*
X3784119Y-1573500D02*
X3793643Y-1583024D01*
X3793643Y-1583024D02*
X3803167Y-1602071D01*
X3803167Y-1602071D02*
X3812691Y-1640167D01*
X3812691Y-1640167D02*
X3812691Y-1687786D01*
X3812691Y-1687786D02*
X3803167Y-1725881D01*
X3803167Y-1725881D02*
X3793643Y-1744928D01*
X3793643Y-1744928D02*
X3784119Y-1754452D01*
X3784119Y-1754452D02*
X3765072Y-1763976D01*
X3765072Y-1763976D02*
X3746024Y-1763976D01*
X3746024Y-1763976D02*
X3726976Y-1754452D01*
X3726976Y-1754452D02*
X3717452Y-1744928D01*
X3717452Y-1744928D02*
X3707929Y-1725881D01*
X3707929Y-1725881D02*
X3698405Y-1687786D01*
X3698405Y-1687786D02*
X3698405Y-1640167D01*
X3698405Y-1640167D02*
X3707929Y-1602071D01*
X3707929Y-1602071D02*
X3717452Y-1583024D01*
X3717452Y-1583024D02*
X3726976Y-1573500D01*
X3726976Y-1573500D02*
X3746024Y-1563976D01*
X4018405Y-1763976D02*
X4018405Y-1563976D01*
X4104119Y-1763976D02*
X4104119Y-1659214D01*
X4104119Y-1659214D02*
X4094595Y-1640167D01*
X4094595Y-1640167D02*
X4075548Y-1630643D01*
X4075548Y-1630643D02*
X4046976Y-1630643D01*
X4046976Y-1630643D02*
X4027929Y-1640167D01*
X4027929Y-1640167D02*
X4018405Y-1649690D01*
X4227929Y-1763976D02*
X4208881Y-1754452D01*
X4208881Y-1754452D02*
X4199357Y-1744928D01*
X4199357Y-1744928D02*
X4189833Y-1725881D01*
X4189833Y-1725881D02*
X4189833Y-1668738D01*
X4189833Y-1668738D02*
X4199357Y-1649690D01*
X4199357Y-1649690D02*
X4208881Y-1640167D01*
X4208881Y-1640167D02*
X4227929Y-1630643D01*
X4227929Y-1630643D02*
X4256500Y-1630643D01*
X4256500Y-1630643D02*
X4275548Y-1640167D01*
X4275548Y-1640167D02*
X4285072Y-1649690D01*
X4285072Y-1649690D02*
X4294595Y-1668738D01*
X4294595Y-1668738D02*
X4294595Y-1725881D01*
X4294595Y-1725881D02*
X4285072Y-1744928D01*
X4285072Y-1744928D02*
X4275548Y-1754452D01*
X4275548Y-1754452D02*
X4256500Y-1763976D01*
X4256500Y-1763976D02*
X4227929Y-1763976D01*
X4408881Y-1763976D02*
X4389834Y-1754452D01*
X4389834Y-1754452D02*
X4380310Y-1735405D01*
X4380310Y-1735405D02*
X4380310Y-1563976D01*
X4561262Y-1754452D02*
X4542215Y-1763976D01*
X4542215Y-1763976D02*
X4504119Y-1763976D01*
X4504119Y-1763976D02*
X4485072Y-1754452D01*
X4485072Y-1754452D02*
X4475548Y-1735405D01*
X4475548Y-1735405D02*
X4475548Y-1659214D01*
X4475548Y-1659214D02*
X4485072Y-1640167D01*
X4485072Y-1640167D02*
X4504119Y-1630643D01*
X4504119Y-1630643D02*
X4542215Y-1630643D01*
X4542215Y-1630643D02*
X4561262Y-1640167D01*
X4561262Y-1640167D02*
X4570786Y-1659214D01*
X4570786Y-1659214D02*
X4570786Y-1678262D01*
X4570786Y-1678262D02*
X4475548Y-1697309D01*
X4646976Y-1754452D02*
X4666024Y-1763976D01*
X4666024Y-1763976D02*
X4704119Y-1763976D01*
X4704119Y-1763976D02*
X4723167Y-1754452D01*
X4723167Y-1754452D02*
X4732691Y-1735405D01*
X4732691Y-1735405D02*
X4732691Y-1725881D01*
X4732691Y-1725881D02*
X4723167Y-1706833D01*
X4723167Y-1706833D02*
X4704119Y-1697309D01*
X4704119Y-1697309D02*
X4675548Y-1697309D01*
X4675548Y-1697309D02*
X4656500Y-1687786D01*
X4656500Y-1687786D02*
X4646976Y-1668738D01*
X4646976Y-1668738D02*
X4646976Y-1659214D01*
X4646976Y-1659214D02*
X4656500Y-1640167D01*
X4656500Y-1640167D02*
X4675548Y-1630643D01*
X4675548Y-1630643D02*
X4704119Y-1630643D01*
X4704119Y-1630643D02*
X4723167Y-1640167D01*
X4799357Y-1840167D02*
X4808881Y-1830643D01*
X4808881Y-1830643D02*
X4827929Y-1802071D01*
X4827929Y-1802071D02*
X4837453Y-1783024D01*
X4837453Y-1783024D02*
X4846976Y-1754452D01*
X4846976Y-1754452D02*
X4856500Y-1706833D01*
X4856500Y-1706833D02*
X4856500Y-1668738D01*
X4856500Y-1668738D02*
X4846976Y-1621119D01*
X4846976Y-1621119D02*
X4837453Y-1592548D01*
X4837453Y-1592548D02*
X4827929Y-1573500D01*
X4827929Y-1573500D02*
X4808881Y-1544928D01*
X4808881Y-1544928D02*
X4799357Y-1535405D01*
D16*
X-173500Y-1879500D02*
X-23500Y-2029500D01*
X-23500Y-1879500D02*
X-173500Y-2029500D01*
X-23500Y-1954500D02*
G75*
G03*
X-23500Y-1954500I-75000J0D01*
G01*
D11*
X328881Y-2027976D02*
X214595Y-2027976D01*
X271738Y-2027976D02*
X271738Y-1827976D01*
X271738Y-1827976D02*
X252690Y-1856548D01*
X252690Y-1856548D02*
X233643Y-1875595D01*
X233643Y-1875595D02*
X214595Y-1885119D01*
X414595Y-2008928D02*
X424119Y-2018452D01*
X424119Y-2018452D02*
X414595Y-2027976D01*
X414595Y-2027976D02*
X405071Y-2018452D01*
X405071Y-2018452D02*
X414595Y-2008928D01*
X414595Y-2008928D02*
X414595Y-2027976D01*
X605071Y-1827976D02*
X509833Y-1827976D01*
X509833Y-1827976D02*
X500309Y-1923214D01*
X500309Y-1923214D02*
X509833Y-1913690D01*
X509833Y-1913690D02*
X528881Y-1904167D01*
X528881Y-1904167D02*
X576500Y-1904167D01*
X576500Y-1904167D02*
X595548Y-1913690D01*
X595548Y-1913690D02*
X605071Y-1923214D01*
X605071Y-1923214D02*
X614595Y-1942262D01*
X614595Y-1942262D02*
X614595Y-1989881D01*
X614595Y-1989881D02*
X605071Y-2008928D01*
X605071Y-2008928D02*
X595548Y-2018452D01*
X595548Y-2018452D02*
X576500Y-2027976D01*
X576500Y-2027976D02*
X528881Y-2027976D01*
X528881Y-2027976D02*
X509833Y-2018452D01*
X509833Y-2018452D02*
X500309Y-2008928D01*
X738405Y-1827976D02*
X757452Y-1827976D01*
X757452Y-1827976D02*
X776500Y-1837500D01*
X776500Y-1837500D02*
X786024Y-1847024D01*
X786024Y-1847024D02*
X795548Y-1866071D01*
X795548Y-1866071D02*
X805071Y-1904167D01*
X805071Y-1904167D02*
X805071Y-1951786D01*
X805071Y-1951786D02*
X795548Y-1989881D01*
X795548Y-1989881D02*
X786024Y-2008928D01*
X786024Y-2008928D02*
X776500Y-2018452D01*
X776500Y-2018452D02*
X757452Y-2027976D01*
X757452Y-2027976D02*
X738405Y-2027976D01*
X738405Y-2027976D02*
X719357Y-2018452D01*
X719357Y-2018452D02*
X709833Y-2008928D01*
X709833Y-2008928D02*
X700309Y-1989881D01*
X700309Y-1989881D02*
X690786Y-1951786D01*
X690786Y-1951786D02*
X690786Y-1904167D01*
X690786Y-1904167D02*
X700309Y-1866071D01*
X700309Y-1866071D02*
X709833Y-1847024D01*
X709833Y-1847024D02*
X719357Y-1837500D01*
X719357Y-1837500D02*
X738405Y-1827976D01*
X928881Y-1827976D02*
X947929Y-1827976D01*
X947929Y-1827976D02*
X966976Y-1837500D01*
X966976Y-1837500D02*
X976500Y-1847024D01*
X976500Y-1847024D02*
X986024Y-1866071D01*
X986024Y-1866071D02*
X995548Y-1904167D01*
X995548Y-1904167D02*
X995548Y-1951786D01*
X995548Y-1951786D02*
X986024Y-1989881D01*
X986024Y-1989881D02*
X976500Y-2008928D01*
X976500Y-2008928D02*
X966976Y-2018452D01*
X966976Y-2018452D02*
X947929Y-2027976D01*
X947929Y-2027976D02*
X928881Y-2027976D01*
X928881Y-2027976D02*
X909833Y-2018452D01*
X909833Y-2018452D02*
X900309Y-2008928D01*
X900309Y-2008928D02*
X890786Y-1989881D01*
X890786Y-1989881D02*
X881262Y-1951786D01*
X881262Y-1951786D02*
X881262Y-1904167D01*
X881262Y-1904167D02*
X890786Y-1866071D01*
X890786Y-1866071D02*
X900309Y-1847024D01*
X900309Y-1847024D02*
X909833Y-1837500D01*
X909833Y-1837500D02*
X928881Y-1827976D01*
X1081262Y-2027976D02*
X1081262Y-1894643D01*
X1081262Y-1913690D02*
X1090786Y-1904167D01*
X1090786Y-1904167D02*
X1109833Y-1894643D01*
X1109833Y-1894643D02*
X1138405Y-1894643D01*
X1138405Y-1894643D02*
X1157452Y-1904167D01*
X1157452Y-1904167D02*
X1166976Y-1923214D01*
X1166976Y-1923214D02*
X1166976Y-2027976D01*
X1166976Y-1923214D02*
X1176500Y-1904167D01*
X1176500Y-1904167D02*
X1195548Y-1894643D01*
X1195548Y-1894643D02*
X1224119Y-1894643D01*
X1224119Y-1894643D02*
X1243167Y-1904167D01*
X1243167Y-1904167D02*
X1252691Y-1923214D01*
X1252691Y-1923214D02*
X1252691Y-2027976D01*
X1347929Y-2027976D02*
X1347929Y-1894643D01*
X1347929Y-1913690D02*
X1357452Y-1904167D01*
X1357452Y-1904167D02*
X1376500Y-1894643D01*
X1376500Y-1894643D02*
X1405071Y-1894643D01*
X1405071Y-1894643D02*
X1424119Y-1904167D01*
X1424119Y-1904167D02*
X1433643Y-1923214D01*
X1433643Y-1923214D02*
X1433643Y-2027976D01*
X1433643Y-1923214D02*
X1443167Y-1904167D01*
X1443167Y-1904167D02*
X1462214Y-1894643D01*
X1462214Y-1894643D02*
X1490786Y-1894643D01*
X1490786Y-1894643D02*
X1509833Y-1904167D01*
X1509833Y-1904167D02*
X1519357Y-1923214D01*
X1519357Y-1923214D02*
X1519357Y-2027976D01*
X1877452Y-1818452D02*
X1706024Y-2075595D01*
X2102214Y-1827976D02*
X2121262Y-1827976D01*
X2121262Y-1827976D02*
X2140310Y-1837500D01*
X2140310Y-1837500D02*
X2149833Y-1847024D01*
X2149833Y-1847024D02*
X2159357Y-1866071D01*
X2159357Y-1866071D02*
X2168881Y-1904167D01*
X2168881Y-1904167D02*
X2168881Y-1951786D01*
X2168881Y-1951786D02*
X2159357Y-1989881D01*
X2159357Y-1989881D02*
X2149833Y-2008928D01*
X2149833Y-2008928D02*
X2140310Y-2018452D01*
X2140310Y-2018452D02*
X2121262Y-2027976D01*
X2121262Y-2027976D02*
X2102214Y-2027976D01*
X2102214Y-2027976D02*
X2083167Y-2018452D01*
X2083167Y-2018452D02*
X2073643Y-2008928D01*
X2073643Y-2008928D02*
X2064119Y-1989881D01*
X2064119Y-1989881D02*
X2054595Y-1951786D01*
X2054595Y-1951786D02*
X2054595Y-1904167D01*
X2054595Y-1904167D02*
X2064119Y-1866071D01*
X2064119Y-1866071D02*
X2073643Y-1847024D01*
X2073643Y-1847024D02*
X2083167Y-1837500D01*
X2083167Y-1837500D02*
X2102214Y-1827976D01*
X2254595Y-2008928D02*
X2264119Y-2018452D01*
X2264119Y-2018452D02*
X2254595Y-2027976D01*
X2254595Y-2027976D02*
X2245072Y-2018452D01*
X2245072Y-2018452D02*
X2254595Y-2008928D01*
X2254595Y-2008928D02*
X2254595Y-2027976D01*
X2387929Y-1827976D02*
X2406976Y-1827976D01*
X2406976Y-1827976D02*
X2426024Y-1837500D01*
X2426024Y-1837500D02*
X2435548Y-1847024D01*
X2435548Y-1847024D02*
X2445072Y-1866071D01*
X2445072Y-1866071D02*
X2454595Y-1904167D01*
X2454595Y-1904167D02*
X2454595Y-1951786D01*
X2454595Y-1951786D02*
X2445072Y-1989881D01*
X2445072Y-1989881D02*
X2435548Y-2008928D01*
X2435548Y-2008928D02*
X2426024Y-2018452D01*
X2426024Y-2018452D02*
X2406976Y-2027976D01*
X2406976Y-2027976D02*
X2387929Y-2027976D01*
X2387929Y-2027976D02*
X2368881Y-2018452D01*
X2368881Y-2018452D02*
X2359357Y-2008928D01*
X2359357Y-2008928D02*
X2349833Y-1989881D01*
X2349833Y-1989881D02*
X2340310Y-1951786D01*
X2340310Y-1951786D02*
X2340310Y-1904167D01*
X2340310Y-1904167D02*
X2349833Y-1866071D01*
X2349833Y-1866071D02*
X2359357Y-1847024D01*
X2359357Y-1847024D02*
X2368881Y-1837500D01*
X2368881Y-1837500D02*
X2387929Y-1827976D01*
X2635548Y-1827976D02*
X2540310Y-1827976D01*
X2540310Y-1827976D02*
X2530786Y-1923214D01*
X2530786Y-1923214D02*
X2540310Y-1913690D01*
X2540310Y-1913690D02*
X2559357Y-1904167D01*
X2559357Y-1904167D02*
X2606976Y-1904167D01*
X2606976Y-1904167D02*
X2626024Y-1913690D01*
X2626024Y-1913690D02*
X2635548Y-1923214D01*
X2635548Y-1923214D02*
X2645072Y-1942262D01*
X2645072Y-1942262D02*
X2645072Y-1989881D01*
X2645072Y-1989881D02*
X2635548Y-2008928D01*
X2635548Y-2008928D02*
X2626024Y-2018452D01*
X2626024Y-2018452D02*
X2606976Y-2027976D01*
X2606976Y-2027976D02*
X2559357Y-2027976D01*
X2559357Y-2027976D02*
X2540310Y-2018452D01*
X2540310Y-2018452D02*
X2530786Y-2008928D01*
X2740310Y-2027976D02*
X2778405Y-2027976D01*
X2778405Y-2027976D02*
X2797452Y-2018452D01*
X2797452Y-2018452D02*
X2806976Y-2008928D01*
X2806976Y-2008928D02*
X2826024Y-1980357D01*
X2826024Y-1980357D02*
X2835548Y-1942262D01*
X2835548Y-1942262D02*
X2835548Y-1866071D01*
X2835548Y-1866071D02*
X2826024Y-1847024D01*
X2826024Y-1847024D02*
X2816500Y-1837500D01*
X2816500Y-1837500D02*
X2797452Y-1827976D01*
X2797452Y-1827976D02*
X2759357Y-1827976D01*
X2759357Y-1827976D02*
X2740310Y-1837500D01*
X2740310Y-1837500D02*
X2730786Y-1847024D01*
X2730786Y-1847024D02*
X2721262Y-1866071D01*
X2721262Y-1866071D02*
X2721262Y-1913690D01*
X2721262Y-1913690D02*
X2730786Y-1932738D01*
X2730786Y-1932738D02*
X2740310Y-1942262D01*
X2740310Y-1942262D02*
X2759357Y-1951786D01*
X2759357Y-1951786D02*
X2797452Y-1951786D01*
X2797452Y-1951786D02*
X2816500Y-1942262D01*
X2816500Y-1942262D02*
X2826024Y-1932738D01*
X2826024Y-1932738D02*
X2835548Y-1913690D01*
X3026024Y-2027976D02*
X2911738Y-2027976D01*
X2968881Y-2027976D02*
X2968881Y-1827976D01*
X2968881Y-1827976D02*
X2949833Y-1856548D01*
X2949833Y-1856548D02*
X2930786Y-1875595D01*
X2930786Y-1875595D02*
X2911738Y-1885119D01*
X3102214Y-1827976D02*
X3102214Y-1866071D01*
X3178405Y-1827976D02*
X3178405Y-1866071D01*
X3441262Y-2104167D02*
X3431738Y-2094643D01*
X3431738Y-2094643D02*
X3412691Y-2066071D01*
X3412691Y-2066071D02*
X3403167Y-2047024D01*
X3403167Y-2047024D02*
X3393643Y-2018452D01*
X3393643Y-2018452D02*
X3384119Y-1970833D01*
X3384119Y-1970833D02*
X3384119Y-1932738D01*
X3384119Y-1932738D02*
X3393643Y-1885119D01*
X3393643Y-1885119D02*
X3403167Y-1856548D01*
X3403167Y-1856548D02*
X3412691Y-1837500D01*
X3412691Y-1837500D02*
X3431738Y-1808928D01*
X3431738Y-1808928D02*
X3441262Y-1799405D01*
X3555548Y-1827976D02*
X3574595Y-1827976D01*
X3574595Y-1827976D02*
X3593643Y-1837500D01*
X3593643Y-1837500D02*
X3603167Y-1847024D01*
X3603167Y-1847024D02*
X3612691Y-1866071D01*
X3612691Y-1866071D02*
X3622214Y-1904167D01*
X3622214Y-1904167D02*
X3622214Y-1951786D01*
X3622214Y-1951786D02*
X3612691Y-1989881D01*
X3612691Y-1989881D02*
X3603167Y-2008928D01*
X3603167Y-2008928D02*
X3593643Y-2018452D01*
X3593643Y-2018452D02*
X3574595Y-2027976D01*
X3574595Y-2027976D02*
X3555548Y-2027976D01*
X3555548Y-2027976D02*
X3536500Y-2018452D01*
X3536500Y-2018452D02*
X3526976Y-2008928D01*
X3526976Y-2008928D02*
X3517452Y-1989881D01*
X3517452Y-1989881D02*
X3507929Y-1951786D01*
X3507929Y-1951786D02*
X3507929Y-1904167D01*
X3507929Y-1904167D02*
X3517452Y-1866071D01*
X3517452Y-1866071D02*
X3526976Y-1847024D01*
X3526976Y-1847024D02*
X3536500Y-1837500D01*
X3536500Y-1837500D02*
X3555548Y-1827976D01*
X3827929Y-2027976D02*
X3827929Y-1827976D01*
X3913643Y-2027976D02*
X3913643Y-1923214D01*
X3913643Y-1923214D02*
X3904119Y-1904167D01*
X3904119Y-1904167D02*
X3885072Y-1894643D01*
X3885072Y-1894643D02*
X3856500Y-1894643D01*
X3856500Y-1894643D02*
X3837452Y-1904167D01*
X3837452Y-1904167D02*
X3827929Y-1913690D01*
X4037452Y-2027976D02*
X4018405Y-2018452D01*
X4018405Y-2018452D02*
X4008881Y-2008928D01*
X4008881Y-2008928D02*
X3999357Y-1989881D01*
X3999357Y-1989881D02*
X3999357Y-1932738D01*
X3999357Y-1932738D02*
X4008881Y-1913690D01*
X4008881Y-1913690D02*
X4018405Y-1904167D01*
X4018405Y-1904167D02*
X4037452Y-1894643D01*
X4037452Y-1894643D02*
X4066024Y-1894643D01*
X4066024Y-1894643D02*
X4085072Y-1904167D01*
X4085072Y-1904167D02*
X4094595Y-1913690D01*
X4094595Y-1913690D02*
X4104119Y-1932738D01*
X4104119Y-1932738D02*
X4104119Y-1989881D01*
X4104119Y-1989881D02*
X4094595Y-2008928D01*
X4094595Y-2008928D02*
X4085072Y-2018452D01*
X4085072Y-2018452D02*
X4066024Y-2027976D01*
X4066024Y-2027976D02*
X4037452Y-2027976D01*
X4218405Y-2027976D02*
X4199357Y-2018452D01*
X4199357Y-2018452D02*
X4189833Y-1999405D01*
X4189833Y-1999405D02*
X4189833Y-1827976D01*
X4370786Y-2018452D02*
X4351738Y-2027976D01*
X4351738Y-2027976D02*
X4313643Y-2027976D01*
X4313643Y-2027976D02*
X4294595Y-2018452D01*
X4294595Y-2018452D02*
X4285072Y-1999405D01*
X4285072Y-1999405D02*
X4285072Y-1923214D01*
X4285072Y-1923214D02*
X4294595Y-1904167D01*
X4294595Y-1904167D02*
X4313643Y-1894643D01*
X4313643Y-1894643D02*
X4351738Y-1894643D01*
X4351738Y-1894643D02*
X4370786Y-1904167D01*
X4370786Y-1904167D02*
X4380310Y-1923214D01*
X4380310Y-1923214D02*
X4380310Y-1942262D01*
X4380310Y-1942262D02*
X4285072Y-1961309D01*
X4456500Y-2018452D02*
X4475548Y-2027976D01*
X4475548Y-2027976D02*
X4513643Y-2027976D01*
X4513643Y-2027976D02*
X4532691Y-2018452D01*
X4532691Y-2018452D02*
X4542215Y-1999405D01*
X4542215Y-1999405D02*
X4542215Y-1989881D01*
X4542215Y-1989881D02*
X4532691Y-1970833D01*
X4532691Y-1970833D02*
X4513643Y-1961309D01*
X4513643Y-1961309D02*
X4485072Y-1961309D01*
X4485072Y-1961309D02*
X4466024Y-1951786D01*
X4466024Y-1951786D02*
X4456500Y-1932738D01*
X4456500Y-1932738D02*
X4456500Y-1923214D01*
X4456500Y-1923214D02*
X4466024Y-1904167D01*
X4466024Y-1904167D02*
X4485072Y-1894643D01*
X4485072Y-1894643D02*
X4513643Y-1894643D01*
X4513643Y-1894643D02*
X4532691Y-1904167D01*
X4747929Y-1951786D02*
X4900310Y-1951786D01*
X4824119Y-2027976D02*
X4824119Y-1875595D01*
X5201262Y-1894643D02*
X5201262Y-2027976D01*
X5153643Y-1818452D02*
X5106024Y-1961309D01*
X5106024Y-1961309D02*
X5229834Y-1961309D01*
X5416500Y-2018452D02*
X5435548Y-2027976D01*
X5435548Y-2027976D02*
X5473643Y-2027976D01*
X5473643Y-2027976D02*
X5492691Y-2018452D01*
X5492691Y-2018452D02*
X5502215Y-1999405D01*
X5502215Y-1999405D02*
X5502215Y-1989881D01*
X5502215Y-1989881D02*
X5492691Y-1970833D01*
X5492691Y-1970833D02*
X5473643Y-1961309D01*
X5473643Y-1961309D02*
X5445072Y-1961309D01*
X5445072Y-1961309D02*
X5426024Y-1951786D01*
X5426024Y-1951786D02*
X5416500Y-1932738D01*
X5416500Y-1932738D02*
X5416500Y-1923214D01*
X5416500Y-1923214D02*
X5426024Y-1904167D01*
X5426024Y-1904167D02*
X5445072Y-1894643D01*
X5445072Y-1894643D02*
X5473643Y-1894643D01*
X5473643Y-1894643D02*
X5492691Y-1904167D01*
X5616500Y-2027976D02*
X5597453Y-2018452D01*
X5597453Y-2018452D02*
X5587929Y-1999405D01*
X5587929Y-1999405D02*
X5587929Y-1827976D01*
X5721262Y-2027976D02*
X5702214Y-2018452D01*
X5702214Y-2018452D02*
X5692691Y-2008928D01*
X5692691Y-2008928D02*
X5683167Y-1989881D01*
X5683167Y-1989881D02*
X5683167Y-1932738D01*
X5683167Y-1932738D02*
X5692691Y-1913690D01*
X5692691Y-1913690D02*
X5702214Y-1904167D01*
X5702214Y-1904167D02*
X5721262Y-1894643D01*
X5721262Y-1894643D02*
X5749834Y-1894643D01*
X5749834Y-1894643D02*
X5768881Y-1904167D01*
X5768881Y-1904167D02*
X5778405Y-1913690D01*
X5778405Y-1913690D02*
X5787929Y-1932738D01*
X5787929Y-1932738D02*
X5787929Y-1989881D01*
X5787929Y-1989881D02*
X5778405Y-2008928D01*
X5778405Y-2008928D02*
X5768881Y-2018452D01*
X5768881Y-2018452D02*
X5749834Y-2027976D01*
X5749834Y-2027976D02*
X5721262Y-2027976D01*
X5845072Y-1894643D02*
X5921262Y-1894643D01*
X5873643Y-1827976D02*
X5873643Y-1999405D01*
X5873643Y-1999405D02*
X5883167Y-2018452D01*
X5883167Y-2018452D02*
X5902214Y-2027976D01*
X5902214Y-2027976D02*
X5921262Y-2027976D01*
X5978405Y-2018452D02*
X5997453Y-2027976D01*
X5997453Y-2027976D02*
X6035548Y-2027976D01*
X6035548Y-2027976D02*
X6054595Y-2018452D01*
X6054595Y-2018452D02*
X6064119Y-1999405D01*
X6064119Y-1999405D02*
X6064119Y-1989881D01*
X6064119Y-1989881D02*
X6054595Y-1970833D01*
X6054595Y-1970833D02*
X6035548Y-1961309D01*
X6035548Y-1961309D02*
X6006976Y-1961309D01*
X6006976Y-1961309D02*
X5987929Y-1951786D01*
X5987929Y-1951786D02*
X5978405Y-1932738D01*
X5978405Y-1932738D02*
X5978405Y-1923214D01*
X5978405Y-1923214D02*
X5987929Y-1904167D01*
X5987929Y-1904167D02*
X6006976Y-1894643D01*
X6006976Y-1894643D02*
X6035548Y-1894643D01*
X6035548Y-1894643D02*
X6054595Y-1904167D01*
X6130786Y-2104167D02*
X6140310Y-2094643D01*
X6140310Y-2094643D02*
X6159357Y-2066071D01*
X6159357Y-2066071D02*
X6168881Y-2047024D01*
X6168881Y-2047024D02*
X6178405Y-2018452D01*
X6178405Y-2018452D02*
X6187929Y-1970833D01*
X6187929Y-1970833D02*
X6187929Y-1932738D01*
X6187929Y-1932738D02*
X6178405Y-1885119D01*
X6178405Y-1885119D02*
X6168881Y-1856548D01*
X6168881Y-1856548D02*
X6159357Y-1837500D01*
X6159357Y-1837500D02*
X6140310Y-1808928D01*
X6140310Y-1808928D02*
X6130786Y-1799405D01*
X-223500Y-2124500D02*
X-23500Y-2324500D01*
X-23500Y-2124500D02*
X-223500Y-2324500D01*
X-123500Y-2124500D02*
X-123500Y-2324500D01*
X-223500Y-2224500D02*
X-23500Y-2224500D01*
X205071Y-2097976D02*
X328881Y-2097976D01*
X328881Y-2097976D02*
X262214Y-2174167D01*
X262214Y-2174167D02*
X290786Y-2174167D01*
X290786Y-2174167D02*
X309833Y-2183690D01*
X309833Y-2183690D02*
X319357Y-2193214D01*
X319357Y-2193214D02*
X328881Y-2212262D01*
X328881Y-2212262D02*
X328881Y-2259881D01*
X328881Y-2259881D02*
X319357Y-2278929D01*
X319357Y-2278929D02*
X309833Y-2288452D01*
X309833Y-2288452D02*
X290786Y-2297976D01*
X290786Y-2297976D02*
X233643Y-2297976D01*
X233643Y-2297976D02*
X214595Y-2288452D01*
X214595Y-2288452D02*
X205071Y-2278929D01*
X414595Y-2278929D02*
X424119Y-2288452D01*
X424119Y-2288452D02*
X414595Y-2297976D01*
X414595Y-2297976D02*
X405071Y-2288452D01*
X405071Y-2288452D02*
X414595Y-2278929D01*
X414595Y-2278929D02*
X414595Y-2297976D01*
X547929Y-2097976D02*
X566976Y-2097976D01*
X566976Y-2097976D02*
X586024Y-2107500D01*
X586024Y-2107500D02*
X595548Y-2117024D01*
X595548Y-2117024D02*
X605071Y-2136071D01*
X605071Y-2136071D02*
X614595Y-2174167D01*
X614595Y-2174167D02*
X614595Y-2221786D01*
X614595Y-2221786D02*
X605071Y-2259881D01*
X605071Y-2259881D02*
X595548Y-2278929D01*
X595548Y-2278929D02*
X586024Y-2288452D01*
X586024Y-2288452D02*
X566976Y-2297976D01*
X566976Y-2297976D02*
X547929Y-2297976D01*
X547929Y-2297976D02*
X528881Y-2288452D01*
X528881Y-2288452D02*
X519357Y-2278929D01*
X519357Y-2278929D02*
X509833Y-2259881D01*
X509833Y-2259881D02*
X500309Y-2221786D01*
X500309Y-2221786D02*
X500309Y-2174167D01*
X500309Y-2174167D02*
X509833Y-2136071D01*
X509833Y-2136071D02*
X519357Y-2117024D01*
X519357Y-2117024D02*
X528881Y-2107500D01*
X528881Y-2107500D02*
X547929Y-2097976D01*
X738405Y-2097976D02*
X757452Y-2097976D01*
X757452Y-2097976D02*
X776500Y-2107500D01*
X776500Y-2107500D02*
X786024Y-2117024D01*
X786024Y-2117024D02*
X795548Y-2136071D01*
X795548Y-2136071D02*
X805071Y-2174167D01*
X805071Y-2174167D02*
X805071Y-2221786D01*
X805071Y-2221786D02*
X795548Y-2259881D01*
X795548Y-2259881D02*
X786024Y-2278929D01*
X786024Y-2278929D02*
X776500Y-2288452D01*
X776500Y-2288452D02*
X757452Y-2297976D01*
X757452Y-2297976D02*
X738405Y-2297976D01*
X738405Y-2297976D02*
X719357Y-2288452D01*
X719357Y-2288452D02*
X709833Y-2278929D01*
X709833Y-2278929D02*
X700309Y-2259881D01*
X700309Y-2259881D02*
X690786Y-2221786D01*
X690786Y-2221786D02*
X690786Y-2174167D01*
X690786Y-2174167D02*
X700309Y-2136071D01*
X700309Y-2136071D02*
X709833Y-2117024D01*
X709833Y-2117024D02*
X719357Y-2107500D01*
X719357Y-2107500D02*
X738405Y-2097976D01*
X928881Y-2097976D02*
X947929Y-2097976D01*
X947929Y-2097976D02*
X966976Y-2107500D01*
X966976Y-2107500D02*
X976500Y-2117024D01*
X976500Y-2117024D02*
X986024Y-2136071D01*
X986024Y-2136071D02*
X995548Y-2174167D01*
X995548Y-2174167D02*
X995548Y-2221786D01*
X995548Y-2221786D02*
X986024Y-2259881D01*
X986024Y-2259881D02*
X976500Y-2278929D01*
X976500Y-2278929D02*
X966976Y-2288452D01*
X966976Y-2288452D02*
X947929Y-2297976D01*
X947929Y-2297976D02*
X928881Y-2297976D01*
X928881Y-2297976D02*
X909833Y-2288452D01*
X909833Y-2288452D02*
X900309Y-2278929D01*
X900309Y-2278929D02*
X890786Y-2259881D01*
X890786Y-2259881D02*
X881262Y-2221786D01*
X881262Y-2221786D02*
X881262Y-2174167D01*
X881262Y-2174167D02*
X890786Y-2136071D01*
X890786Y-2136071D02*
X900309Y-2117024D01*
X900309Y-2117024D02*
X909833Y-2107500D01*
X909833Y-2107500D02*
X928881Y-2097976D01*
X1081262Y-2297976D02*
X1081262Y-2164643D01*
X1081262Y-2183690D02*
X1090786Y-2174167D01*
X1090786Y-2174167D02*
X1109833Y-2164643D01*
X1109833Y-2164643D02*
X1138405Y-2164643D01*
X1138405Y-2164643D02*
X1157452Y-2174167D01*
X1157452Y-2174167D02*
X1166976Y-2193214D01*
X1166976Y-2193214D02*
X1166976Y-2297976D01*
X1166976Y-2193214D02*
X1176500Y-2174167D01*
X1176500Y-2174167D02*
X1195548Y-2164643D01*
X1195548Y-2164643D02*
X1224119Y-2164643D01*
X1224119Y-2164643D02*
X1243167Y-2174167D01*
X1243167Y-2174167D02*
X1252691Y-2193214D01*
X1252691Y-2193214D02*
X1252691Y-2297976D01*
X1347929Y-2297976D02*
X1347929Y-2164643D01*
X1347929Y-2183690D02*
X1357452Y-2174167D01*
X1357452Y-2174167D02*
X1376500Y-2164643D01*
X1376500Y-2164643D02*
X1405071Y-2164643D01*
X1405071Y-2164643D02*
X1424119Y-2174167D01*
X1424119Y-2174167D02*
X1433643Y-2193214D01*
X1433643Y-2193214D02*
X1433643Y-2297976D01*
X1433643Y-2193214D02*
X1443167Y-2174167D01*
X1443167Y-2174167D02*
X1462214Y-2164643D01*
X1462214Y-2164643D02*
X1490786Y-2164643D01*
X1490786Y-2164643D02*
X1509833Y-2174167D01*
X1509833Y-2174167D02*
X1519357Y-2193214D01*
X1519357Y-2193214D02*
X1519357Y-2297976D01*
X1877452Y-2088452D02*
X1706024Y-2345595D01*
X2102214Y-2097976D02*
X2121262Y-2097976D01*
X2121262Y-2097976D02*
X2140310Y-2107500D01*
X2140310Y-2107500D02*
X2149833Y-2117024D01*
X2149833Y-2117024D02*
X2159357Y-2136071D01*
X2159357Y-2136071D02*
X2168881Y-2174167D01*
X2168881Y-2174167D02*
X2168881Y-2221786D01*
X2168881Y-2221786D02*
X2159357Y-2259881D01*
X2159357Y-2259881D02*
X2149833Y-2278929D01*
X2149833Y-2278929D02*
X2140310Y-2288452D01*
X2140310Y-2288452D02*
X2121262Y-2297976D01*
X2121262Y-2297976D02*
X2102214Y-2297976D01*
X2102214Y-2297976D02*
X2083167Y-2288452D01*
X2083167Y-2288452D02*
X2073643Y-2278929D01*
X2073643Y-2278929D02*
X2064119Y-2259881D01*
X2064119Y-2259881D02*
X2054595Y-2221786D01*
X2054595Y-2221786D02*
X2054595Y-2174167D01*
X2054595Y-2174167D02*
X2064119Y-2136071D01*
X2064119Y-2136071D02*
X2073643Y-2117024D01*
X2073643Y-2117024D02*
X2083167Y-2107500D01*
X2083167Y-2107500D02*
X2102214Y-2097976D01*
X2254595Y-2278929D02*
X2264119Y-2288452D01*
X2264119Y-2288452D02*
X2254595Y-2297976D01*
X2254595Y-2297976D02*
X2245072Y-2288452D01*
X2245072Y-2288452D02*
X2254595Y-2278929D01*
X2254595Y-2278929D02*
X2254595Y-2297976D01*
X2454595Y-2297976D02*
X2340310Y-2297976D01*
X2397452Y-2297976D02*
X2397452Y-2097976D01*
X2397452Y-2097976D02*
X2378405Y-2126548D01*
X2378405Y-2126548D02*
X2359357Y-2145595D01*
X2359357Y-2145595D02*
X2340310Y-2155119D01*
X2645072Y-2297976D02*
X2530786Y-2297976D01*
X2587929Y-2297976D02*
X2587929Y-2097976D01*
X2587929Y-2097976D02*
X2568881Y-2126548D01*
X2568881Y-2126548D02*
X2549833Y-2145595D01*
X2549833Y-2145595D02*
X2530786Y-2155119D01*
X2759357Y-2183690D02*
X2740310Y-2174167D01*
X2740310Y-2174167D02*
X2730786Y-2164643D01*
X2730786Y-2164643D02*
X2721262Y-2145595D01*
X2721262Y-2145595D02*
X2721262Y-2136071D01*
X2721262Y-2136071D02*
X2730786Y-2117024D01*
X2730786Y-2117024D02*
X2740310Y-2107500D01*
X2740310Y-2107500D02*
X2759357Y-2097976D01*
X2759357Y-2097976D02*
X2797452Y-2097976D01*
X2797452Y-2097976D02*
X2816500Y-2107500D01*
X2816500Y-2107500D02*
X2826024Y-2117024D01*
X2826024Y-2117024D02*
X2835548Y-2136071D01*
X2835548Y-2136071D02*
X2835548Y-2145595D01*
X2835548Y-2145595D02*
X2826024Y-2164643D01*
X2826024Y-2164643D02*
X2816500Y-2174167D01*
X2816500Y-2174167D02*
X2797452Y-2183690D01*
X2797452Y-2183690D02*
X2759357Y-2183690D01*
X2759357Y-2183690D02*
X2740310Y-2193214D01*
X2740310Y-2193214D02*
X2730786Y-2202738D01*
X2730786Y-2202738D02*
X2721262Y-2221786D01*
X2721262Y-2221786D02*
X2721262Y-2259881D01*
X2721262Y-2259881D02*
X2730786Y-2278929D01*
X2730786Y-2278929D02*
X2740310Y-2288452D01*
X2740310Y-2288452D02*
X2759357Y-2297976D01*
X2759357Y-2297976D02*
X2797452Y-2297976D01*
X2797452Y-2297976D02*
X2816500Y-2288452D01*
X2816500Y-2288452D02*
X2826024Y-2278929D01*
X2826024Y-2278929D02*
X2835548Y-2259881D01*
X2835548Y-2259881D02*
X2835548Y-2221786D01*
X2835548Y-2221786D02*
X2826024Y-2202738D01*
X2826024Y-2202738D02*
X2816500Y-2193214D01*
X2816500Y-2193214D02*
X2797452Y-2183690D01*
X3026024Y-2297976D02*
X2911738Y-2297976D01*
X2968881Y-2297976D02*
X2968881Y-2097976D01*
X2968881Y-2097976D02*
X2949833Y-2126548D01*
X2949833Y-2126548D02*
X2930786Y-2145595D01*
X2930786Y-2145595D02*
X2911738Y-2155119D01*
X3102214Y-2097976D02*
X3102214Y-2136071D01*
X3178405Y-2097976D02*
X3178405Y-2136071D01*
X3441262Y-2374167D02*
X3431738Y-2364643D01*
X3431738Y-2364643D02*
X3412691Y-2336071D01*
X3412691Y-2336071D02*
X3403167Y-2317024D01*
X3403167Y-2317024D02*
X3393643Y-2288452D01*
X3393643Y-2288452D02*
X3384119Y-2240833D01*
X3384119Y-2240833D02*
X3384119Y-2202738D01*
X3384119Y-2202738D02*
X3393643Y-2155119D01*
X3393643Y-2155119D02*
X3403167Y-2126548D01*
X3403167Y-2126548D02*
X3412691Y-2107500D01*
X3412691Y-2107500D02*
X3431738Y-2078928D01*
X3431738Y-2078928D02*
X3441262Y-2069405D01*
X3546024Y-2183690D02*
X3526976Y-2174167D01*
X3526976Y-2174167D02*
X3517452Y-2164643D01*
X3517452Y-2164643D02*
X3507929Y-2145595D01*
X3507929Y-2145595D02*
X3507929Y-2136071D01*
X3507929Y-2136071D02*
X3517452Y-2117024D01*
X3517452Y-2117024D02*
X3526976Y-2107500D01*
X3526976Y-2107500D02*
X3546024Y-2097976D01*
X3546024Y-2097976D02*
X3584119Y-2097976D01*
X3584119Y-2097976D02*
X3603167Y-2107500D01*
X3603167Y-2107500D02*
X3612691Y-2117024D01*
X3612691Y-2117024D02*
X3622214Y-2136071D01*
X3622214Y-2136071D02*
X3622214Y-2145595D01*
X3622214Y-2145595D02*
X3612691Y-2164643D01*
X3612691Y-2164643D02*
X3603167Y-2174167D01*
X3603167Y-2174167D02*
X3584119Y-2183690D01*
X3584119Y-2183690D02*
X3546024Y-2183690D01*
X3546024Y-2183690D02*
X3526976Y-2193214D01*
X3526976Y-2193214D02*
X3517452Y-2202738D01*
X3517452Y-2202738D02*
X3507929Y-2221786D01*
X3507929Y-2221786D02*
X3507929Y-2259881D01*
X3507929Y-2259881D02*
X3517452Y-2278929D01*
X3517452Y-2278929D02*
X3526976Y-2288452D01*
X3526976Y-2288452D02*
X3546024Y-2297976D01*
X3546024Y-2297976D02*
X3584119Y-2297976D01*
X3584119Y-2297976D02*
X3603167Y-2288452D01*
X3603167Y-2288452D02*
X3612691Y-2278929D01*
X3612691Y-2278929D02*
X3622214Y-2259881D01*
X3622214Y-2259881D02*
X3622214Y-2221786D01*
X3622214Y-2221786D02*
X3612691Y-2202738D01*
X3612691Y-2202738D02*
X3603167Y-2193214D01*
X3603167Y-2193214D02*
X3584119Y-2183690D01*
X3827929Y-2297976D02*
X3827929Y-2097976D01*
X3913643Y-2297976D02*
X3913643Y-2193214D01*
X3913643Y-2193214D02*
X3904119Y-2174167D01*
X3904119Y-2174167D02*
X3885072Y-2164643D01*
X3885072Y-2164643D02*
X3856500Y-2164643D01*
X3856500Y-2164643D02*
X3837452Y-2174167D01*
X3837452Y-2174167D02*
X3827929Y-2183690D01*
X4037452Y-2297976D02*
X4018405Y-2288452D01*
X4018405Y-2288452D02*
X4008881Y-2278929D01*
X4008881Y-2278929D02*
X3999357Y-2259881D01*
X3999357Y-2259881D02*
X3999357Y-2202738D01*
X3999357Y-2202738D02*
X4008881Y-2183690D01*
X4008881Y-2183690D02*
X4018405Y-2174167D01*
X4018405Y-2174167D02*
X4037452Y-2164643D01*
X4037452Y-2164643D02*
X4066024Y-2164643D01*
X4066024Y-2164643D02*
X4085072Y-2174167D01*
X4085072Y-2174167D02*
X4094595Y-2183690D01*
X4094595Y-2183690D02*
X4104119Y-2202738D01*
X4104119Y-2202738D02*
X4104119Y-2259881D01*
X4104119Y-2259881D02*
X4094595Y-2278929D01*
X4094595Y-2278929D02*
X4085072Y-2288452D01*
X4085072Y-2288452D02*
X4066024Y-2297976D01*
X4066024Y-2297976D02*
X4037452Y-2297976D01*
X4218405Y-2297976D02*
X4199357Y-2288452D01*
X4199357Y-2288452D02*
X4189833Y-2269405D01*
X4189833Y-2269405D02*
X4189833Y-2097976D01*
X4370786Y-2288452D02*
X4351738Y-2297976D01*
X4351738Y-2297976D02*
X4313643Y-2297976D01*
X4313643Y-2297976D02*
X4294595Y-2288452D01*
X4294595Y-2288452D02*
X4285072Y-2269405D01*
X4285072Y-2269405D02*
X4285072Y-2193214D01*
X4285072Y-2193214D02*
X4294595Y-2174167D01*
X4294595Y-2174167D02*
X4313643Y-2164643D01*
X4313643Y-2164643D02*
X4351738Y-2164643D01*
X4351738Y-2164643D02*
X4370786Y-2174167D01*
X4370786Y-2174167D02*
X4380310Y-2193214D01*
X4380310Y-2193214D02*
X4380310Y-2212262D01*
X4380310Y-2212262D02*
X4285072Y-2231310D01*
X4456500Y-2288452D02*
X4475548Y-2297976D01*
X4475548Y-2297976D02*
X4513643Y-2297976D01*
X4513643Y-2297976D02*
X4532691Y-2288452D01*
X4532691Y-2288452D02*
X4542215Y-2269405D01*
X4542215Y-2269405D02*
X4542215Y-2259881D01*
X4542215Y-2259881D02*
X4532691Y-2240833D01*
X4532691Y-2240833D02*
X4513643Y-2231310D01*
X4513643Y-2231310D02*
X4485072Y-2231310D01*
X4485072Y-2231310D02*
X4466024Y-2221786D01*
X4466024Y-2221786D02*
X4456500Y-2202738D01*
X4456500Y-2202738D02*
X4456500Y-2193214D01*
X4456500Y-2193214D02*
X4466024Y-2174167D01*
X4466024Y-2174167D02*
X4485072Y-2164643D01*
X4485072Y-2164643D02*
X4513643Y-2164643D01*
X4513643Y-2164643D02*
X4532691Y-2174167D01*
X4608881Y-2374167D02*
X4618405Y-2364643D01*
X4618405Y-2364643D02*
X4637453Y-2336071D01*
X4637453Y-2336071D02*
X4646976Y-2317024D01*
X4646976Y-2317024D02*
X4656500Y-2288452D01*
X4656500Y-2288452D02*
X4666024Y-2240833D01*
X4666024Y-2240833D02*
X4666024Y-2202738D01*
X4666024Y-2202738D02*
X4656500Y-2155119D01*
X4656500Y-2155119D02*
X4646976Y-2126548D01*
X4646976Y-2126548D02*
X4637453Y-2107500D01*
X4637453Y-2107500D02*
X4618405Y-2078928D01*
X4618405Y-2078928D02*
X4608881Y-2069405D01*
M02*
