M48
; DRILL file {KiCad (7.0.0)} date Thu Feb 23 19:52:01 2023
; FORMAT={-:-/ absolute / inch / decimal}
; #@! TF.CreationDate,2023-02-23T19:52:01-08:00
; #@! TF.GenerationSoftware,Kicad,Pcbnew,(7.0.0)
; #@! TF.FileFunction,NonPlated,1,2,NPTH
FMAT,2
INCH
; #@! TA.AperFunction,NonPlated,NPTH,ComponentDrill
T1C0.0256
; #@! TA.AperFunction,NonPlated,NPTH,ComponentDrill
T2C0.0295
; #@! TA.AperFunction,NonPlated,NPTH,ComponentDrill
T3C0.0689
; #@! TA.AperFunction,NonPlated,NPTH,ComponentDrill
T4C0.1570
%
G90
G05
T1
X2.0494Y1.5222
X2.3447Y1.5222
T2
X0.6728Y0.8014
X0.7228Y0.8014
X0.7728Y0.8014
X0.8228Y0.8014
X3.5201Y0.8014
X3.5701Y0.8014
X3.6201Y0.8014
X3.6701Y0.8014
T3
X0.175Y0.375
X0.575Y0.375
X0.923Y0.375
X1.323Y0.375
X3.0242Y0.3781
X3.4242Y0.3781
X3.7691Y0.3781
X4.1691Y0.3781
T4
X0.375Y0.375
X1.123Y0.375
X3.2242Y0.3781
X3.9691Y0.3781
T0
M30
