%TF.GenerationSoftware,KiCad,Pcbnew,(7.0.0)*%
%TF.CreationDate,2023-02-23T19:51:54-08:00*%
%TF.ProjectId,4k-mania-keypad,346b2d6d-616e-4696-912d-6b6579706164,rev?*%
%TF.SameCoordinates,PX5ac6868PY7028288*%
%TF.FileFunction,Legend,Bot*%
%TF.FilePolarity,Positive*%
%FSLAX46Y46*%
G04 Gerber Fmt 4.6, Leading zero omitted, Abs format (unit mm)*
G04 Created by KiCad (PCBNEW (7.0.0)) date 2023-02-23 19:51:54*
%MOMM*%
%LPD*%
G01*
G04 APERTURE LIST*
%ADD10C,0.150000*%
%ADD11C,0.100000*%
%ADD12C,0.120000*%
G04 APERTURE END LIST*
D10*
%TO.C,D3*%
X3482380Y7263095D02*
X2482380Y7263095D01*
X2482380Y7263095D02*
X2482380Y7025000D01*
X2482380Y7025000D02*
X2530000Y6882143D01*
X2530000Y6882143D02*
X2625238Y6786905D01*
X2625238Y6786905D02*
X2720476Y6739286D01*
X2720476Y6739286D02*
X2910952Y6691667D01*
X2910952Y6691667D02*
X3053809Y6691667D01*
X3053809Y6691667D02*
X3244285Y6739286D01*
X3244285Y6739286D02*
X3339523Y6786905D01*
X3339523Y6786905D02*
X3434761Y6882143D01*
X3434761Y6882143D02*
X3482380Y7025000D01*
X3482380Y7025000D02*
X3482380Y7263095D01*
X2482380Y6358333D02*
X2482380Y5739286D01*
X2482380Y5739286D02*
X2863333Y6072619D01*
X2863333Y6072619D02*
X2863333Y5929762D01*
X2863333Y5929762D02*
X2910952Y5834524D01*
X2910952Y5834524D02*
X2958571Y5786905D01*
X2958571Y5786905D02*
X3053809Y5739286D01*
X3053809Y5739286D02*
X3291904Y5739286D01*
X3291904Y5739286D02*
X3387142Y5786905D01*
X3387142Y5786905D02*
X3434761Y5834524D01*
X3434761Y5834524D02*
X3482380Y5929762D01*
X3482380Y5929762D02*
X3482380Y6215476D01*
X3482380Y6215476D02*
X3434761Y6310714D01*
X3434761Y6310714D02*
X3387142Y6358333D01*
%TO.C,SW5*%
X87478332Y11035239D02*
X87335475Y10987620D01*
X87335475Y10987620D02*
X87097380Y10987620D01*
X87097380Y10987620D02*
X87002142Y11035239D01*
X87002142Y11035239D02*
X86954523Y11082858D01*
X86954523Y11082858D02*
X86906904Y11178096D01*
X86906904Y11178096D02*
X86906904Y11273334D01*
X86906904Y11273334D02*
X86954523Y11368572D01*
X86954523Y11368572D02*
X87002142Y11416191D01*
X87002142Y11416191D02*
X87097380Y11463810D01*
X87097380Y11463810D02*
X87287856Y11511429D01*
X87287856Y11511429D02*
X87383094Y11559048D01*
X87383094Y11559048D02*
X87430713Y11606667D01*
X87430713Y11606667D02*
X87478332Y11701905D01*
X87478332Y11701905D02*
X87478332Y11797143D01*
X87478332Y11797143D02*
X87430713Y11892381D01*
X87430713Y11892381D02*
X87383094Y11940000D01*
X87383094Y11940000D02*
X87287856Y11987620D01*
X87287856Y11987620D02*
X87049761Y11987620D01*
X87049761Y11987620D02*
X86906904Y11940000D01*
X86573570Y11987620D02*
X86335475Y10987620D01*
X86335475Y10987620D02*
X86144999Y11701905D01*
X86144999Y11701905D02*
X85954523Y10987620D01*
X85954523Y10987620D02*
X85716428Y11987620D01*
X84859285Y11987620D02*
X85335475Y11987620D01*
X85335475Y11987620D02*
X85383094Y11511429D01*
X85383094Y11511429D02*
X85335475Y11559048D01*
X85335475Y11559048D02*
X85240237Y11606667D01*
X85240237Y11606667D02*
X85002142Y11606667D01*
X85002142Y11606667D02*
X84906904Y11559048D01*
X84906904Y11559048D02*
X84859285Y11511429D01*
X84859285Y11511429D02*
X84811666Y11416191D01*
X84811666Y11416191D02*
X84811666Y11178096D01*
X84811666Y11178096D02*
X84859285Y11082858D01*
X84859285Y11082858D02*
X84906904Y11035239D01*
X84906904Y11035239D02*
X85002142Y10987620D01*
X85002142Y10987620D02*
X85240237Y10987620D01*
X85240237Y10987620D02*
X85335475Y11035239D01*
X85335475Y11035239D02*
X85383094Y11082858D01*
%TO.C,J4*%
X30912380Y5708334D02*
X31626666Y5708334D01*
X31626666Y5708334D02*
X31769523Y5755953D01*
X31769523Y5755953D02*
X31864761Y5851191D01*
X31864761Y5851191D02*
X31912380Y5994048D01*
X31912380Y5994048D02*
X31912380Y6089286D01*
X31245714Y4803572D02*
X31912380Y4803572D01*
X30864761Y5041667D02*
X31579047Y5279762D01*
X31579047Y5279762D02*
X31579047Y4660715D01*
%TO.C,D6*%
X94990120Y6905433D02*
X93990120Y6905433D01*
X93990120Y6905433D02*
X93990120Y6667338D01*
X93990120Y6667338D02*
X94037740Y6524481D01*
X94037740Y6524481D02*
X94132978Y6429243D01*
X94132978Y6429243D02*
X94228216Y6381624D01*
X94228216Y6381624D02*
X94418692Y6334005D01*
X94418692Y6334005D02*
X94561549Y6334005D01*
X94561549Y6334005D02*
X94752025Y6381624D01*
X94752025Y6381624D02*
X94847263Y6429243D01*
X94847263Y6429243D02*
X94942501Y6524481D01*
X94942501Y6524481D02*
X94990120Y6667338D01*
X94990120Y6667338D02*
X94990120Y6905433D01*
X93990120Y5476862D02*
X93990120Y5667338D01*
X93990120Y5667338D02*
X94037740Y5762576D01*
X94037740Y5762576D02*
X94085359Y5810195D01*
X94085359Y5810195D02*
X94228216Y5905433D01*
X94228216Y5905433D02*
X94418692Y5953052D01*
X94418692Y5953052D02*
X94799644Y5953052D01*
X94799644Y5953052D02*
X94894882Y5905433D01*
X94894882Y5905433D02*
X94942501Y5857814D01*
X94942501Y5857814D02*
X94990120Y5762576D01*
X94990120Y5762576D02*
X94990120Y5572100D01*
X94990120Y5572100D02*
X94942501Y5476862D01*
X94942501Y5476862D02*
X94894882Y5429243D01*
X94894882Y5429243D02*
X94799644Y5381624D01*
X94799644Y5381624D02*
X94561549Y5381624D01*
X94561549Y5381624D02*
X94466311Y5429243D01*
X94466311Y5429243D02*
X94418692Y5476862D01*
X94418692Y5476862D02*
X94371073Y5572100D01*
X94371073Y5572100D02*
X94371073Y5762576D01*
X94371073Y5762576D02*
X94418692Y5857814D01*
X94418692Y5857814D02*
X94466311Y5905433D01*
X94466311Y5905433D02*
X94561549Y5953052D01*
%TO.C,SW6*%
X106398332Y11035239D02*
X106255475Y10987620D01*
X106255475Y10987620D02*
X106017380Y10987620D01*
X106017380Y10987620D02*
X105922142Y11035239D01*
X105922142Y11035239D02*
X105874523Y11082858D01*
X105874523Y11082858D02*
X105826904Y11178096D01*
X105826904Y11178096D02*
X105826904Y11273334D01*
X105826904Y11273334D02*
X105874523Y11368572D01*
X105874523Y11368572D02*
X105922142Y11416191D01*
X105922142Y11416191D02*
X106017380Y11463810D01*
X106017380Y11463810D02*
X106207856Y11511429D01*
X106207856Y11511429D02*
X106303094Y11559048D01*
X106303094Y11559048D02*
X106350713Y11606667D01*
X106350713Y11606667D02*
X106398332Y11701905D01*
X106398332Y11701905D02*
X106398332Y11797143D01*
X106398332Y11797143D02*
X106350713Y11892381D01*
X106350713Y11892381D02*
X106303094Y11940000D01*
X106303094Y11940000D02*
X106207856Y11987620D01*
X106207856Y11987620D02*
X105969761Y11987620D01*
X105969761Y11987620D02*
X105826904Y11940000D01*
X105493570Y11987620D02*
X105255475Y10987620D01*
X105255475Y10987620D02*
X105064999Y11701905D01*
X105064999Y11701905D02*
X104874523Y10987620D01*
X104874523Y10987620D02*
X104636428Y11987620D01*
X103826904Y11987620D02*
X104017380Y11987620D01*
X104017380Y11987620D02*
X104112618Y11940000D01*
X104112618Y11940000D02*
X104160237Y11892381D01*
X104160237Y11892381D02*
X104255475Y11749524D01*
X104255475Y11749524D02*
X104303094Y11559048D01*
X104303094Y11559048D02*
X104303094Y11178096D01*
X104303094Y11178096D02*
X104255475Y11082858D01*
X104255475Y11082858D02*
X104207856Y11035239D01*
X104207856Y11035239D02*
X104112618Y10987620D01*
X104112618Y10987620D02*
X103922142Y10987620D01*
X103922142Y10987620D02*
X103826904Y11035239D01*
X103826904Y11035239D02*
X103779285Y11082858D01*
X103779285Y11082858D02*
X103731666Y11178096D01*
X103731666Y11178096D02*
X103731666Y11416191D01*
X103731666Y11416191D02*
X103779285Y11511429D01*
X103779285Y11511429D02*
X103826904Y11559048D01*
X103826904Y11559048D02*
X103922142Y11606667D01*
X103922142Y11606667D02*
X104112618Y11606667D01*
X104112618Y11606667D02*
X104207856Y11559048D01*
X104207856Y11559048D02*
X104255475Y11511429D01*
X104255475Y11511429D02*
X104303094Y11416191D01*
%TO.C,SW4*%
X34108332Y10955239D02*
X33965475Y10907620D01*
X33965475Y10907620D02*
X33727380Y10907620D01*
X33727380Y10907620D02*
X33632142Y10955239D01*
X33632142Y10955239D02*
X33584523Y11002858D01*
X33584523Y11002858D02*
X33536904Y11098096D01*
X33536904Y11098096D02*
X33536904Y11193334D01*
X33536904Y11193334D02*
X33584523Y11288572D01*
X33584523Y11288572D02*
X33632142Y11336191D01*
X33632142Y11336191D02*
X33727380Y11383810D01*
X33727380Y11383810D02*
X33917856Y11431429D01*
X33917856Y11431429D02*
X34013094Y11479048D01*
X34013094Y11479048D02*
X34060713Y11526667D01*
X34060713Y11526667D02*
X34108332Y11621905D01*
X34108332Y11621905D02*
X34108332Y11717143D01*
X34108332Y11717143D02*
X34060713Y11812381D01*
X34060713Y11812381D02*
X34013094Y11860000D01*
X34013094Y11860000D02*
X33917856Y11907620D01*
X33917856Y11907620D02*
X33679761Y11907620D01*
X33679761Y11907620D02*
X33536904Y11860000D01*
X33203570Y11907620D02*
X32965475Y10907620D01*
X32965475Y10907620D02*
X32774999Y11621905D01*
X32774999Y11621905D02*
X32584523Y10907620D01*
X32584523Y10907620D02*
X32346428Y11907620D01*
X31536904Y11574286D02*
X31536904Y10907620D01*
X31774999Y11955239D02*
X32013094Y11240953D01*
X32013094Y11240953D02*
X31394047Y11240953D01*
%TO.C,J5*%
X78172380Y5438334D02*
X78886666Y5438334D01*
X78886666Y5438334D02*
X79029523Y5485953D01*
X79029523Y5485953D02*
X79124761Y5581191D01*
X79124761Y5581191D02*
X79172380Y5724048D01*
X79172380Y5724048D02*
X79172380Y5819286D01*
X78172380Y4485953D02*
X78172380Y4962143D01*
X78172380Y4962143D02*
X78648571Y5009762D01*
X78648571Y5009762D02*
X78600952Y4962143D01*
X78600952Y4962143D02*
X78553333Y4866905D01*
X78553333Y4866905D02*
X78553333Y4628810D01*
X78553333Y4628810D02*
X78600952Y4533572D01*
X78600952Y4533572D02*
X78648571Y4485953D01*
X78648571Y4485953D02*
X78743809Y4438334D01*
X78743809Y4438334D02*
X78981904Y4438334D01*
X78981904Y4438334D02*
X79077142Y4485953D01*
X79077142Y4485953D02*
X79124761Y4533572D01*
X79124761Y4533572D02*
X79172380Y4628810D01*
X79172380Y4628810D02*
X79172380Y4866905D01*
X79172380Y4866905D02*
X79124761Y4962143D01*
X79124761Y4962143D02*
X79077142Y5009762D01*
%TO.C,D5*%
X73951677Y10292430D02*
X72951677Y10292430D01*
X72951677Y10292430D02*
X72951677Y10054335D01*
X72951677Y10054335D02*
X72999297Y9911478D01*
X72999297Y9911478D02*
X73094535Y9816240D01*
X73094535Y9816240D02*
X73189773Y9768621D01*
X73189773Y9768621D02*
X73380249Y9721002D01*
X73380249Y9721002D02*
X73523106Y9721002D01*
X73523106Y9721002D02*
X73713582Y9768621D01*
X73713582Y9768621D02*
X73808820Y9816240D01*
X73808820Y9816240D02*
X73904058Y9911478D01*
X73904058Y9911478D02*
X73951677Y10054335D01*
X73951677Y10054335D02*
X73951677Y10292430D01*
X72951677Y8816240D02*
X72951677Y9292430D01*
X72951677Y9292430D02*
X73427868Y9340049D01*
X73427868Y9340049D02*
X73380249Y9292430D01*
X73380249Y9292430D02*
X73332630Y9197192D01*
X73332630Y9197192D02*
X73332630Y8959097D01*
X73332630Y8959097D02*
X73380249Y8863859D01*
X73380249Y8863859D02*
X73427868Y8816240D01*
X73427868Y8816240D02*
X73523106Y8768621D01*
X73523106Y8768621D02*
X73761201Y8768621D01*
X73761201Y8768621D02*
X73856439Y8816240D01*
X73856439Y8816240D02*
X73904058Y8863859D01*
X73904058Y8863859D02*
X73951677Y8959097D01*
X73951677Y8959097D02*
X73951677Y9197192D01*
X73951677Y9197192D02*
X73904058Y9292430D01*
X73904058Y9292430D02*
X73856439Y9340049D01*
%TO.C,D4*%
X22699318Y7208447D02*
X21699318Y7208447D01*
X21699318Y7208447D02*
X21699318Y6970352D01*
X21699318Y6970352D02*
X21746938Y6827495D01*
X21746938Y6827495D02*
X21842176Y6732257D01*
X21842176Y6732257D02*
X21937414Y6684638D01*
X21937414Y6684638D02*
X22127890Y6637019D01*
X22127890Y6637019D02*
X22270747Y6637019D01*
X22270747Y6637019D02*
X22461223Y6684638D01*
X22461223Y6684638D02*
X22556461Y6732257D01*
X22556461Y6732257D02*
X22651699Y6827495D01*
X22651699Y6827495D02*
X22699318Y6970352D01*
X22699318Y6970352D02*
X22699318Y7208447D01*
X22032652Y5779876D02*
X22699318Y5779876D01*
X21651699Y6017971D02*
X22365985Y6256066D01*
X22365985Y6256066D02*
X22365985Y5637019D01*
%TO.C,SW3*%
X15108332Y10955239D02*
X14965475Y10907620D01*
X14965475Y10907620D02*
X14727380Y10907620D01*
X14727380Y10907620D02*
X14632142Y10955239D01*
X14632142Y10955239D02*
X14584523Y11002858D01*
X14584523Y11002858D02*
X14536904Y11098096D01*
X14536904Y11098096D02*
X14536904Y11193334D01*
X14536904Y11193334D02*
X14584523Y11288572D01*
X14584523Y11288572D02*
X14632142Y11336191D01*
X14632142Y11336191D02*
X14727380Y11383810D01*
X14727380Y11383810D02*
X14917856Y11431429D01*
X14917856Y11431429D02*
X15013094Y11479048D01*
X15013094Y11479048D02*
X15060713Y11526667D01*
X15060713Y11526667D02*
X15108332Y11621905D01*
X15108332Y11621905D02*
X15108332Y11717143D01*
X15108332Y11717143D02*
X15060713Y11812381D01*
X15060713Y11812381D02*
X15013094Y11860000D01*
X15013094Y11860000D02*
X14917856Y11907620D01*
X14917856Y11907620D02*
X14679761Y11907620D01*
X14679761Y11907620D02*
X14536904Y11860000D01*
X14203570Y11907620D02*
X13965475Y10907620D01*
X13965475Y10907620D02*
X13774999Y11621905D01*
X13774999Y11621905D02*
X13584523Y10907620D01*
X13584523Y10907620D02*
X13346428Y11907620D01*
X13060713Y11907620D02*
X12441666Y11907620D01*
X12441666Y11907620D02*
X12774999Y11526667D01*
X12774999Y11526667D02*
X12632142Y11526667D01*
X12632142Y11526667D02*
X12536904Y11479048D01*
X12536904Y11479048D02*
X12489285Y11431429D01*
X12489285Y11431429D02*
X12441666Y11336191D01*
X12441666Y11336191D02*
X12441666Y11098096D01*
X12441666Y11098096D02*
X12489285Y11002858D01*
X12489285Y11002858D02*
X12536904Y10955239D01*
X12536904Y10955239D02*
X12632142Y10907620D01*
X12632142Y10907620D02*
X12917856Y10907620D01*
X12917856Y10907620D02*
X13013094Y10955239D01*
X13013094Y10955239D02*
X13060713Y11002858D01*
D11*
%TO.C,D3*%
X1995000Y5435000D02*
G75*
G03*
X1995000Y5435000I-50000J0D01*
G01*
D10*
%TO.C,SW5*%
X86759824Y13275220D02*
X86759824Y12805220D01*
X86759824Y16355220D02*
X86759824Y16125220D01*
X86259824Y12305220D02*
X81695000Y12305220D01*
X85209824Y16355220D02*
X86759824Y16355220D01*
X77809824Y16355220D02*
X83709824Y16355220D01*
X75809824Y10705220D02*
X75809824Y10465220D01*
X75809824Y13555220D02*
X75809824Y14355220D01*
X86259824Y12305220D02*
G75*
G03*
X86759824Y12805220I-1J500001D01*
G01*
X81695000Y12305219D02*
G75*
G03*
X79400679Y10465220I-866J-2349331D01*
G01*
X77809824Y16355220D02*
G75*
G03*
X75809824Y14355220I-15J-1999985D01*
G01*
D12*
%TO.C,J4*%
X36285000Y8185000D02*
X32955000Y8185000D01*
X32955000Y8185000D02*
X32955000Y7135000D01*
X32955000Y7135000D02*
X32745000Y7135000D01*
X37675000Y7115000D02*
X37675000Y6615000D01*
X31891447Y6825000D02*
X32245000Y6575000D01*
X37675000Y6615000D02*
X37175000Y6315000D01*
X32245000Y6575000D02*
X31891447Y6325000D01*
X31891447Y6325000D02*
X31891447Y6825000D01*
X37175000Y6315000D02*
X37175000Y4435000D01*
X37175000Y4435000D02*
X37675000Y4135000D01*
X37675000Y4135000D02*
X37675000Y3635000D01*
X36285000Y2565000D02*
X32955000Y2565000D01*
X32955000Y2565000D02*
X32955000Y3615000D01*
D11*
%TO.C,D6*%
X93502740Y5077338D02*
G75*
G03*
X93502740Y5077338I-50000J0D01*
G01*
D10*
%TO.C,SW6*%
X105679824Y13275220D02*
X105679824Y12805220D01*
X105679824Y16355220D02*
X105679824Y16125220D01*
X105179824Y12305220D02*
X100615000Y12305220D01*
X104129824Y16355220D02*
X105679824Y16355220D01*
X96729824Y16355220D02*
X102629824Y16355220D01*
X94729824Y10705220D02*
X94729824Y10465220D01*
X94729824Y13555220D02*
X94729824Y14355220D01*
X105179824Y12305220D02*
G75*
G03*
X105679824Y12805220I-1J500001D01*
G01*
X100615000Y12305219D02*
G75*
G03*
X98320679Y10465220I-866J-2349331D01*
G01*
X96729824Y16355220D02*
G75*
G03*
X94729824Y14355220I-15J-1999985D01*
G01*
%TO.C,SW4*%
X33389824Y13195220D02*
X33389824Y12725220D01*
X33389824Y16275220D02*
X33389824Y16045220D01*
X32889824Y12225220D02*
X28325000Y12225220D01*
X31839824Y16275220D02*
X33389824Y16275220D01*
X24439824Y16275220D02*
X30339824Y16275220D01*
X22439824Y10625220D02*
X22439824Y10385220D01*
X22439824Y13475220D02*
X22439824Y14275220D01*
X32889824Y12225220D02*
G75*
G03*
X33389824Y12725220I-1J500001D01*
G01*
X28325000Y12225219D02*
G75*
G03*
X26030679Y10385220I-866J-2349331D01*
G01*
X24439824Y16275220D02*
G75*
G03*
X22439824Y14275220I-15J-1999985D01*
G01*
D12*
%TO.C,J5*%
X74065000Y2295000D02*
X77395000Y2295000D01*
X77395000Y2295000D02*
X77395000Y3345000D01*
X77395000Y3345000D02*
X77605000Y3345000D01*
X72675000Y3365000D02*
X72675000Y3865000D01*
X78458553Y3655000D02*
X78105000Y3905000D01*
X72675000Y3865000D02*
X73175000Y4165000D01*
X78105000Y3905000D02*
X78458553Y4155000D01*
X78458553Y4155000D02*
X78458553Y3655000D01*
X73175000Y4165000D02*
X73175000Y6045000D01*
X73175000Y6045000D02*
X72675000Y6345000D01*
X72675000Y6345000D02*
X72675000Y6845000D01*
X74065000Y7915000D02*
X77395000Y7915000D01*
X77395000Y7915000D02*
X77395000Y6865000D01*
D11*
%TO.C,D5*%
X74600091Y8487676D02*
G75*
G03*
X74600091Y8487676I-50000J0D01*
G01*
%TO.C,D4*%
X21211938Y5380352D02*
G75*
G03*
X21211938Y5380352I-50000J0D01*
G01*
D10*
%TO.C,SW3*%
X14389824Y13195220D02*
X14389824Y12725220D01*
X14389824Y16275220D02*
X14389824Y16045220D01*
X13889824Y12225220D02*
X9325000Y12225220D01*
X12839824Y16275220D02*
X14389824Y16275220D01*
X5439824Y16275220D02*
X11339824Y16275220D01*
X3439824Y10625220D02*
X3439824Y10385220D01*
X3439824Y13475220D02*
X3439824Y14275220D01*
X13889824Y12225220D02*
G75*
G03*
X14389824Y12725220I-1J500001D01*
G01*
X9325000Y12225219D02*
G75*
G03*
X7030679Y10385220I-866J-2349331D01*
G01*
X5439824Y16275220D02*
G75*
G03*
X3439824Y14275220I-15J-1999985D01*
G01*
%TD*%
M02*
