%TF.GenerationSoftware,KiCad,Pcbnew,(7.0.0)*%
%TF.CreationDate,2023-02-23T19:51:54-08:00*%
%TF.ProjectId,4k-mania-keypad,346b2d6d-616e-4696-912d-6b6579706164,rev?*%
%TF.SameCoordinates,PX5ac6868PY7028288*%
%TF.FileFunction,Copper,L2,Bot*%
%TF.FilePolarity,Positive*%
%FSLAX46Y46*%
G04 Gerber Fmt 4.6, Leading zero omitted, Abs format (unit mm)*
G04 Created by KiCad (PCBNEW (7.0.0)) date 2023-02-23 19:51:54*
%MOMM*%
%LPD*%
G01*
G04 APERTURE LIST*
G04 Aperture macros list*
%AMRoundRect*
0 Rectangle with rounded corners*
0 $1 Rounding radius*
0 $2 $3 $4 $5 $6 $7 $8 $9 X,Y pos of 4 corners*
0 Add a 4 corners polygon primitive as box body*
4,1,4,$2,$3,$4,$5,$6,$7,$8,$9,$2,$3,0*
0 Add four circle primitives for the rounded corners*
1,1,$1+$1,$2,$3*
1,1,$1+$1,$4,$5*
1,1,$1+$1,$6,$7*
1,1,$1+$1,$8,$9*
0 Add four rect primitives between the rounded corners*
20,1,$1+$1,$2,$3,$4,$5,0*
20,1,$1+$1,$4,$5,$6,$7,0*
20,1,$1+$1,$6,$7,$8,$9,0*
20,1,$1+$1,$8,$9,$2,$3,0*%
G04 Aperture macros list end*
%TA.AperFunction,ComponentPad*%
%ADD10R,2.000000X2.000000*%
%TD*%
%TA.AperFunction,ComponentPad*%
%ADD11C,2.000000*%
%TD*%
%TA.AperFunction,ComponentPad*%
%ADD12R,3.200000X2.000000*%
%TD*%
%TA.AperFunction,ComponentPad*%
%ADD13C,0.600000*%
%TD*%
%TA.AperFunction,ComponentPad*%
%ADD14O,1.200000X2.250000*%
%TD*%
%TA.AperFunction,SMDPad,CuDef*%
%ADD15RoundRect,0.147500X0.172500X-0.147500X0.172500X0.147500X-0.172500X0.147500X-0.172500X-0.147500X0*%
%TD*%
%TA.AperFunction,ComponentPad*%
%ADD16C,3.300000*%
%TD*%
%TA.AperFunction,SMDPad,CuDef*%
%ADD17R,1.650000X2.500000*%
%TD*%
%TA.AperFunction,SMDPad,CuDef*%
%ADD18RoundRect,0.250000X1.025000X1.000000X-1.025000X1.000000X-1.025000X-1.000000X1.025000X-1.000000X0*%
%TD*%
%TA.AperFunction,SMDPad,CuDef*%
%ADD19RoundRect,0.150000X-0.275000X0.150000X-0.275000X-0.150000X0.275000X-0.150000X0.275000X0.150000X0*%
%TD*%
%TA.AperFunction,SMDPad,CuDef*%
%ADD20RoundRect,0.175000X-0.225000X0.175000X-0.225000X-0.175000X0.225000X-0.175000X0.225000X0.175000X0*%
%TD*%
%TA.AperFunction,SMDPad,CuDef*%
%ADD21RoundRect,0.150000X0.275000X-0.150000X0.275000X0.150000X-0.275000X0.150000X-0.275000X-0.150000X0*%
%TD*%
%TA.AperFunction,SMDPad,CuDef*%
%ADD22RoundRect,0.175000X0.225000X-0.175000X0.225000X0.175000X-0.225000X0.175000X-0.225000X-0.175000X0*%
%TD*%
%TA.AperFunction,ViaPad*%
%ADD23C,0.600000*%
%TD*%
%TA.AperFunction,ViaPad*%
%ADD24C,0.800000*%
%TD*%
%TA.AperFunction,Conductor*%
%ADD25C,0.300000*%
%TD*%
%TA.AperFunction,Conductor*%
%ADD26C,0.200000*%
%TD*%
G04 APERTURE END LIST*
D10*
%TO.P,SW1,A,A*%
%TO.N,/rotA(0)*%
X16314999Y28104999D03*
D11*
%TO.P,SW1,B,B*%
%TO.N,/rotB(0)*%
X16315000Y33105000D03*
%TO.P,SW1,C,C*%
%TO.N,GND*%
X16315000Y30605000D03*
D12*
%TO.P,SW1,MP*%
%TO.N,N/C*%
X8814999Y25004999D03*
X8814999Y36204999D03*
D11*
%TO.P,SW1,S1,S1*%
%TO.N,Net-(D1-A)*%
X1815000Y33105000D03*
%TO.P,SW1,S2,S2*%
%TO.N,/rsw0(0)*%
X1815000Y28105000D03*
%TD*%
D10*
%TO.P,SW2,A,A*%
%TO.N,/rotA(1)*%
X95314999Y33104999D03*
D11*
%TO.P,SW2,B,B*%
%TO.N,/rotB(1)*%
X95315000Y28105000D03*
%TO.P,SW2,C,C*%
%TO.N,GND*%
X95315000Y30605000D03*
D12*
%TO.P,SW2,MP*%
%TO.N,N/C*%
X102814999Y36204999D03*
X102814999Y25004999D03*
D11*
%TO.P,SW2,S1,S1*%
%TO.N,Net-(D2-A)*%
X109815000Y28105000D03*
%TO.P,SW2,S2,S2*%
%TO.N,/rsw0(1)*%
X109815000Y33105000D03*
%TD*%
D13*
%TO.P,U1,57,GND*%
%TO.N,GND*%
X81265000Y29605000D03*
X82540000Y29605000D03*
X83815000Y29605000D03*
X81265000Y30880000D03*
X82540000Y30880000D03*
X83815000Y30880000D03*
X81265000Y32155000D03*
X82540000Y32155000D03*
X83815000Y32155000D03*
%TD*%
D14*
%TO.P,J1,S1,SHIELD*%
%TO.N,GND*%
X61399999Y43344999D03*
X61379999Y38744999D03*
X50249999Y43344999D03*
X50229999Y38744999D03*
%TD*%
D15*
%TO.P,D3,1,K*%
%TO.N,Net-(D3-K)*%
X1945000Y6040000D03*
%TO.P,D3,2,A*%
%TO.N,Net-(D3-A)*%
X1945000Y7010000D03*
%TD*%
D16*
%TO.P,SW5,1,1*%
%TO.N,Net-(D5-A)*%
X78085000Y12145000D03*
D17*
X76259999Y12144999D03*
D18*
X74535000Y12145000D03*
%TO.P,SW5,2,2*%
%TO.N,Net-(J5-Pin_3)*%
X87985000Y14685000D03*
D17*
X86234999Y14684999D03*
D16*
X84435000Y14685000D03*
%TD*%
D19*
%TO.P,J4,1,Pin_1*%
%TO.N,Net-(J4-Pin_1)*%
X33170000Y6575000D03*
%TO.P,J4,2,Pin_2*%
%TO.N,Net-(J4-Pin_2)*%
X33170000Y5375000D03*
%TO.P,J4,3,Pin_3*%
%TO.N,Net-(D3-K)*%
X33170000Y4175000D03*
D20*
%TO.P,J4,MP*%
%TO.N,N/C*%
X36945000Y7725000D03*
X36945000Y3025000D03*
%TD*%
D15*
%TO.P,D6,1,K*%
%TO.N,Net-(D5-K)*%
X93452740Y5682338D03*
%TO.P,D6,2,A*%
%TO.N,Net-(D6-A)*%
X93452740Y6652338D03*
%TD*%
D16*
%TO.P,SW6,1,1*%
%TO.N,Net-(D6-A)*%
X97005000Y12145000D03*
D17*
X95179999Y12144999D03*
D18*
X93455000Y12145000D03*
%TO.P,SW6,2,2*%
%TO.N,Net-(J5-Pin_2)*%
X106905000Y14685000D03*
D17*
X105154999Y14684999D03*
D16*
X103355000Y14685000D03*
%TD*%
%TO.P,SW4,1,1*%
%TO.N,Net-(D4-A)*%
X24715000Y12065000D03*
D17*
X22889999Y12064999D03*
D18*
X21165000Y12065000D03*
%TO.P,SW4,2,2*%
%TO.N,Net-(J4-Pin_1)*%
X34615000Y14605000D03*
D17*
X32864999Y14604999D03*
D16*
X31065000Y14605000D03*
%TD*%
D21*
%TO.P,J5,1,Pin_1*%
%TO.N,Net-(D5-K)*%
X77180000Y3905000D03*
%TO.P,J5,2,Pin_2*%
%TO.N,Net-(J5-Pin_2)*%
X77180000Y5105000D03*
%TO.P,J5,3,Pin_3*%
%TO.N,Net-(J5-Pin_3)*%
X77180000Y6305000D03*
D22*
%TO.P,J5,MP*%
%TO.N,N/C*%
X73405000Y2755000D03*
X73405000Y7455000D03*
%TD*%
D15*
%TO.P,D5,1,K*%
%TO.N,Net-(D5-K)*%
X74550091Y9092676D03*
%TO.P,D5,2,A*%
%TO.N,Net-(D5-A)*%
X74550091Y10062676D03*
%TD*%
%TO.P,D4,1,K*%
%TO.N,Net-(D3-K)*%
X21161938Y5985352D03*
%TO.P,D4,2,A*%
%TO.N,Net-(D4-A)*%
X21161938Y6955352D03*
%TD*%
D16*
%TO.P,SW3,1,1*%
%TO.N,Net-(D3-A)*%
X5715000Y12065000D03*
D17*
X3889999Y12064999D03*
D18*
X2165000Y12065000D03*
%TO.P,SW3,2,2*%
%TO.N,Net-(J4-Pin_2)*%
X15615000Y14605000D03*
D17*
X13864999Y14604999D03*
D16*
X12065000Y14605000D03*
%TD*%
D23*
%TO.N,+5V*%
X61315000Y31081683D03*
X61315000Y32730664D03*
%TO.N,GND*%
X73315000Y32254500D03*
X62629798Y31081683D03*
X87751064Y28816758D03*
X85815000Y23105000D03*
D24*
X53715000Y34405664D03*
D23*
X77815000Y26605000D03*
X91515498Y30605000D03*
X70815000Y26605000D03*
%TO.N,+3.3V*%
X76815000Y31280500D03*
X66815000Y31605000D03*
X80576124Y32731164D03*
%TO.N,+1V1*%
X84815000Y31605000D03*
X79921307Y30670478D03*
%TO.N,/rsw1(0)*%
X6315000Y22605000D03*
X87302919Y24318485D03*
%TO.N,/rsw0(0)*%
X6315000Y21605000D03*
X87815000Y23704500D03*
%TO.N,/reset*%
X54345053Y27975500D03*
X87015000Y33305000D03*
%TO.N,/rotA(0)*%
X17315000Y23204500D03*
X86613495Y24903500D03*
%TO.N,/rotB(0)*%
X18315000Y23804000D03*
X85950844Y25503000D03*
%TD*%
D25*
%TO.N,+5V*%
X61315000Y32730664D02*
X61315000Y31081683D01*
%TO.N,+3.3V*%
X76490500Y31605000D02*
X76815000Y31280500D01*
D26*
X79125460Y31280500D02*
X80576124Y32731164D01*
X76815000Y31280500D02*
X79125460Y31280500D01*
D25*
X66815000Y31605000D02*
X76490500Y31605000D01*
D26*
%TO.N,+1V1*%
X84815000Y31031471D02*
X84063529Y30280000D01*
X80311785Y30280000D02*
X79921307Y30670478D01*
X84815000Y31605000D02*
X84815000Y31031471D01*
X84063529Y30280000D02*
X80311785Y30280000D01*
%TO.N,/rsw1(0)*%
X87288434Y24304000D02*
X83014000Y24304000D01*
X87302919Y24318485D02*
X87288434Y24304000D01*
X83014000Y24304000D02*
X81315000Y22605000D01*
X81315000Y22605000D02*
X6315000Y22605000D01*
%TO.N,/rsw0(0)*%
X87815000Y23704500D02*
X83414500Y23704500D01*
X83315000Y23605000D02*
X81315000Y21605000D01*
X83414500Y23704500D02*
X83315000Y23605000D01*
X81315000Y21605000D02*
X6315000Y21605000D01*
X83391089Y23681089D02*
X83315000Y23605000D01*
%TO.N,Net-(D3-K)*%
X1945000Y6040000D02*
X20945000Y6040000D01*
X21161938Y5985352D02*
X28984648Y5985352D01*
X30795000Y4175000D02*
X33170000Y4175000D01*
X28984648Y5985352D02*
X30795000Y4175000D01*
%TO.N,Net-(D3-A)*%
X1945000Y7010000D02*
X1945000Y11845000D01*
X1945000Y11845000D02*
X2165000Y12065000D01*
%TO.N,Net-(D4-A)*%
X21161938Y6955352D02*
X21161938Y12061938D01*
X21161938Y12061938D02*
X21165000Y12065000D01*
%TO.N,Net-(D5-K)*%
X74550091Y5359909D02*
X74550091Y9092676D01*
X76005000Y3905000D02*
X74550091Y5359909D01*
X93452740Y5682338D02*
X91675402Y3905000D01*
X76005000Y3905000D02*
X77180000Y3905000D01*
X91675402Y3905000D02*
X77180000Y3905000D01*
%TO.N,Net-(D5-A)*%
X74550091Y10062676D02*
X74550091Y12129909D01*
%TO.N,Net-(D6-A)*%
X93452740Y6652338D02*
X93452740Y12142740D01*
%TO.N,Net-(J4-Pin_1)*%
X34780000Y7360000D02*
X34780000Y14440000D01*
X33995000Y6575000D02*
X34780000Y7360000D01*
X34780000Y14440000D02*
X34615000Y14605000D01*
X33170000Y6575000D02*
X33995000Y6575000D01*
%TO.N,Net-(J4-Pin_2)*%
X26689064Y14605000D02*
X30818900Y10475164D01*
X30818900Y6151100D02*
X31595000Y5375000D01*
X30818900Y10475164D02*
X30818900Y6151100D01*
X15615000Y14605000D02*
X26689064Y14605000D01*
X31595000Y5375000D02*
X33170000Y5375000D01*
%TO.N,Net-(J5-Pin_2)*%
X106905000Y14685000D02*
X106905000Y16505000D01*
X89805000Y11605000D02*
X89805000Y7105000D01*
X106905000Y16505000D02*
X105805000Y17605000D01*
X105805000Y17605000D02*
X95805000Y17605000D01*
X89805000Y7105000D02*
X87805000Y5105000D01*
X87805000Y5105000D02*
X77180000Y5105000D01*
X95805000Y17605000D02*
X89805000Y11605000D01*
%TO.N,/reset*%
X86989336Y33330664D02*
X59700217Y33330664D01*
X59700217Y33330664D02*
X54345053Y27975500D01*
X87015000Y33305000D02*
X86989336Y33330664D01*
%TO.N,/rotA(0)*%
X82602200Y24903500D02*
X80903200Y23204500D01*
X86613495Y24903500D02*
X82602200Y24903500D01*
X80903200Y23204500D02*
X17315000Y23204500D01*
%TO.N,/rotB(0)*%
X82213000Y25503000D02*
X85950844Y25503000D01*
X18315000Y23804000D02*
X80514000Y23804000D01*
X80514000Y23804000D02*
X82213000Y25503000D01*
%TO.N,Net-(J5-Pin_3)*%
X87985000Y12450936D02*
X81839064Y6305000D01*
X87985000Y14685000D02*
X87985000Y12450936D01*
X81839064Y6305000D02*
X77180000Y6305000D01*
%TD*%
%TA.AperFunction,Conductor*%
%TO.N,GND*%
G36*
X81399864Y32356324D02*
G01*
X81446590Y32326963D01*
X81530872Y32242681D01*
X81562966Y32187094D01*
X81562966Y32122906D01*
X81530872Y32067319D01*
X80992595Y31529043D01*
X80985931Y31517500D01*
X80992595Y31505958D01*
X81406372Y31092181D01*
X81436622Y31042818D01*
X81441164Y30985102D01*
X81419009Y30931615D01*
X81374986Y30894015D01*
X81318691Y30880500D01*
X80962309Y30880500D01*
X80914856Y30889939D01*
X80874628Y30916819D01*
X80558219Y31233228D01*
X80547284Y31240099D01*
X80520570Y31243108D01*
X80520883Y31245890D01*
X80505685Y31245040D01*
X80445618Y31278245D01*
X80428497Y31295366D01*
X80423569Y31300294D01*
X80383196Y31325662D01*
X80291718Y31383142D01*
X80252696Y31422164D01*
X80234470Y31474253D01*
X80240648Y31529091D01*
X80270005Y31575812D01*
X80451031Y31756838D01*
X80484906Y31780873D01*
X80524826Y31792373D01*
X80547286Y31794903D01*
X80558214Y31801770D01*
X80664812Y31908368D01*
X80698696Y31932409D01*
X80738615Y31943908D01*
X80755379Y31945796D01*
X80925646Y32005375D01*
X81078386Y32101348D01*
X81205940Y32228902D01*
X81253915Y32305255D01*
X81292937Y32344276D01*
X81345025Y32362502D01*
X81399864Y32356324D01*
G37*
%TD.AperFunction*%
%TA.AperFunction,Conductor*%
G36*
X49094003Y44273554D02*
G01*
X49145694Y44242815D01*
X49176842Y44191371D01*
X49180120Y44131321D01*
X49151117Y43980837D01*
X49150000Y43969134D01*
X49150000Y43611326D01*
X49153450Y43598451D01*
X49166326Y43595000D01*
X50376000Y43595000D01*
X50438000Y43578387D01*
X50483387Y43533000D01*
X50500000Y43471000D01*
X50500000Y41762819D01*
X50502505Y41751928D01*
X50513679Y41752061D01*
X50605670Y41774378D01*
X50616788Y41778226D01*
X50797121Y41860581D01*
X50807319Y41866469D01*
X50968806Y41981464D01*
X50977703Y41989173D01*
X51045756Y42060544D01*
X51094942Y42092154D01*
X51153146Y42097712D01*
X51207426Y42075981D01*
X51245715Y42031794D01*
X51259499Y41974974D01*
X51259499Y40751811D01*
X51256681Y40725527D01*
X51247774Y40684461D01*
X51236595Y40653515D01*
X51236351Y40653046D01*
X51225771Y40636174D01*
X51207630Y40611834D01*
X51194439Y40596829D01*
X51194098Y40596499D01*
X51167677Y40576984D01*
X51130912Y40556740D01*
X51106377Y40546486D01*
X51062200Y40533377D01*
X51062193Y40533374D01*
X51054439Y40531073D01*
X51047541Y40526854D01*
X51047536Y40526851D01*
X50949975Y40467168D01*
X50949974Y40467167D01*
X50943107Y40462966D01*
X50937549Y40457149D01*
X50937543Y40457143D01*
X50858515Y40374414D01*
X50858512Y40374412D01*
X50852955Y40368593D01*
X50849076Y40361549D01*
X50849074Y40361545D01*
X50839019Y40343280D01*
X50833988Y40334141D01*
X50833916Y40334011D01*
X50795370Y40291517D01*
X50741821Y40270923D01*
X50684734Y40276636D01*
X50496095Y40341925D01*
X50490511Y40343280D01*
X50482318Y40342694D01*
X50480000Y40332036D01*
X50480000Y39011326D01*
X50483450Y38998451D01*
X50496326Y38995000D01*
X51313674Y38995000D01*
X51326549Y38998451D01*
X51330000Y39011326D01*
X51330000Y39319450D01*
X51329718Y39325360D01*
X51319372Y39433713D01*
X51331707Y39500564D01*
X51377434Y39550866D01*
X51442810Y39569500D01*
X52400237Y39569500D01*
X52419476Y39567998D01*
X52419616Y39567976D01*
X52419799Y39567947D01*
X52424715Y39567073D01*
X52461266Y39559802D01*
X52493359Y39548674D01*
X52496580Y39547032D01*
X52509162Y39539657D01*
X52528665Y39526626D01*
X52547457Y39511204D01*
X52551202Y39507459D01*
X52566624Y39488667D01*
X52579655Y39469164D01*
X52587030Y39456583D01*
X52588663Y39453379D01*
X52599802Y39421263D01*
X52607068Y39384735D01*
X52607924Y39379945D01*
X52607972Y39379642D01*
X52609499Y39360240D01*
X52609499Y39169901D01*
X52609501Y39169896D01*
X52609501Y39104108D01*
X52611602Y39096265D01*
X52611603Y39096262D01*
X52641506Y38984661D01*
X52641507Y38984657D01*
X52643609Y38976815D01*
X52647668Y38969784D01*
X52647670Y38969780D01*
X52705437Y38869724D01*
X52705438Y38869723D01*
X52709501Y38862686D01*
X52802686Y38769501D01*
X52916814Y38703609D01*
X53044108Y38669501D01*
X53167768Y38669501D01*
X53175892Y38669501D01*
X53303185Y38703609D01*
X53417313Y38769501D01*
X53510499Y38862686D01*
X53536216Y38907230D01*
X53555919Y38932906D01*
X53592730Y38969714D01*
X53648304Y39001799D01*
X53683853Y39011326D01*
X53698581Y39015273D01*
X53730680Y39019500D01*
X55809900Y39019500D01*
X55810098Y39019500D01*
X57889323Y39019500D01*
X57921413Y39015276D01*
X57971688Y39001805D01*
X58027275Y38969711D01*
X58064080Y38932906D01*
X58083786Y38907226D01*
X58105436Y38869726D01*
X58105439Y38869721D01*
X58109501Y38862687D01*
X58202686Y38769501D01*
X58316814Y38703609D01*
X58444108Y38669501D01*
X58567768Y38669501D01*
X58575892Y38669501D01*
X58703185Y38703609D01*
X58817314Y38769501D01*
X58910499Y38862686D01*
X58976391Y38976814D01*
X59010499Y39104108D01*
X59010499Y39170000D01*
X59010499Y39170500D01*
X59010499Y39360250D01*
X59012015Y39379580D01*
X59012065Y39379900D01*
X59012917Y39384676D01*
X59020196Y39421271D01*
X59031315Y39453343D01*
X59032971Y39456593D01*
X59040325Y39469142D01*
X59053386Y39488688D01*
X59068786Y39507452D01*
X59072545Y39511211D01*
X59091312Y39526613D01*
X59110853Y39539670D01*
X59123401Y39547026D01*
X59126625Y39548669D01*
X59158727Y39559802D01*
X59195365Y39567090D01*
X59200297Y39567966D01*
X59200567Y39568009D01*
X59219739Y39569500D01*
X60167299Y39569500D01*
X60220149Y39557673D01*
X60262918Y39524449D01*
X60287447Y39476166D01*
X60289058Y39422032D01*
X60281117Y39380832D01*
X60280000Y39369134D01*
X60280000Y39011326D01*
X60283450Y38998451D01*
X60296326Y38995000D01*
X61113674Y38995000D01*
X61126549Y38998451D01*
X61130000Y39011326D01*
X61630000Y39011326D01*
X61633450Y38998451D01*
X61646326Y38995000D01*
X62463674Y38995000D01*
X62476549Y38998451D01*
X62480000Y39011326D01*
X62480000Y39319450D01*
X62479719Y39325340D01*
X62465596Y39473243D01*
X62463369Y39484794D01*
X62407512Y39675027D01*
X62403146Y39685933D01*
X62312295Y39862160D01*
X62305935Y39872056D01*
X62183382Y40027895D01*
X62175264Y40036409D01*
X62025427Y40166244D01*
X62015850Y40173063D01*
X61844153Y40272192D01*
X61833450Y40277080D01*
X61646095Y40341925D01*
X61640511Y40343280D01*
X61632318Y40342694D01*
X61630000Y40332036D01*
X61630000Y39011326D01*
X61130000Y39011326D01*
X61130000Y40327181D01*
X61127494Y40338073D01*
X61116320Y40337940D01*
X61024327Y40315623D01*
X61013211Y40311775D01*
X60946145Y40281148D01*
X60885931Y40270249D01*
X60827836Y40289474D01*
X60786011Y40334140D01*
X60767043Y40368593D01*
X60676891Y40462965D01*
X60665782Y40469761D01*
X60572460Y40526850D01*
X60572456Y40526852D01*
X60565559Y40531071D01*
X60528280Y40542134D01*
X60513615Y40546486D01*
X60489090Y40556736D01*
X60452403Y40576934D01*
X60425818Y40596605D01*
X60425298Y40597110D01*
X60412266Y40611960D01*
X60394310Y40636050D01*
X60383778Y40652833D01*
X60383423Y40653515D01*
X60383420Y40653520D01*
X60372200Y40684545D01*
X60363312Y40725537D01*
X60360499Y40751799D01*
X60360499Y42004081D01*
X60375385Y42062989D01*
X60416470Y42107754D01*
X60473888Y42127626D01*
X60533854Y42117836D01*
X60581970Y42080732D01*
X60596618Y42062105D01*
X60604735Y42053592D01*
X60754572Y41923757D01*
X60764149Y41916938D01*
X60935846Y41817809D01*
X60946549Y41812921D01*
X61133904Y41748076D01*
X61139488Y41746721D01*
X61147681Y41747307D01*
X61150000Y41757964D01*
X61150000Y41762819D01*
X61650000Y41762819D01*
X61652505Y41751928D01*
X61663679Y41752061D01*
X61755670Y41774378D01*
X61766788Y41778226D01*
X61947121Y41860581D01*
X61957319Y41866469D01*
X62118806Y41981464D01*
X62127703Y41989173D01*
X62264517Y42132659D01*
X62271784Y42141900D01*
X62378971Y42308686D01*
X62384363Y42319144D01*
X62458049Y42503202D01*
X62461362Y42514485D01*
X62498882Y42709166D01*
X62500000Y42720866D01*
X62500000Y43078674D01*
X62496549Y43091550D01*
X62483674Y43095000D01*
X61666326Y43095000D01*
X61653450Y43091550D01*
X61650000Y43078674D01*
X61650000Y41762819D01*
X61150000Y41762819D01*
X61150000Y43471000D01*
X61166613Y43533000D01*
X61212000Y43578387D01*
X61274000Y43595000D01*
X62483674Y43595000D01*
X62496549Y43598451D01*
X62500000Y43611326D01*
X62500000Y43919450D01*
X62499718Y43925358D01*
X62488726Y44040473D01*
X62497230Y44098803D01*
X62531707Y44146615D01*
X62584365Y44173105D01*
X62643305Y44172287D01*
X62695209Y44144346D01*
X62728345Y44095595D01*
X62744626Y44051945D01*
X62749019Y44037558D01*
X62775793Y43926036D01*
X62776385Y43923447D01*
X62795828Y43834067D01*
X62798280Y43817438D01*
X62809485Y43675066D01*
X62809551Y43674185D01*
X62814184Y43609420D01*
X62814500Y43600574D01*
X62814500Y39105500D01*
X62814500Y39105000D01*
X62814500Y38997682D01*
X62815128Y38993313D01*
X62815129Y38993302D01*
X62844415Y38789617D01*
X62845046Y38785231D01*
X62846292Y38780986D01*
X62846294Y38780979D01*
X62895288Y38614121D01*
X62905516Y38579290D01*
X62907354Y38575264D01*
X62907358Y38575255D01*
X62992836Y38388085D01*
X62994679Y38384050D01*
X62997069Y38380330D01*
X62997073Y38380324D01*
X63108328Y38207207D01*
X63110719Y38203487D01*
X63251276Y38041276D01*
X63413487Y37900719D01*
X63594050Y37784679D01*
X63710072Y37731694D01*
X63781461Y37699091D01*
X63789290Y37695516D01*
X63995231Y37635046D01*
X64207682Y37604500D01*
X64314901Y37604500D01*
X64315000Y37604500D01*
X64315500Y37604500D01*
X100651231Y37604500D01*
X100708706Y37590376D01*
X100753087Y37551220D01*
X100774264Y37495954D01*
X100767413Y37437167D01*
X100723620Y37319753D01*
X100723619Y37319750D01*
X100720909Y37312483D01*
X100720079Y37304773D01*
X100720079Y37304768D01*
X100714855Y37256181D01*
X100714854Y37256169D01*
X100714500Y37252873D01*
X100714500Y37249552D01*
X100714500Y37249551D01*
X100714500Y35160440D01*
X100714500Y35160422D01*
X100714501Y35157128D01*
X100714853Y35153850D01*
X100714854Y35153839D01*
X100720079Y35105232D01*
X100720080Y35105227D01*
X100720909Y35097517D01*
X100723619Y35090251D01*
X100723620Y35090247D01*
X100757217Y35000169D01*
X100771204Y34962669D01*
X100857454Y34847454D01*
X100972669Y34761204D01*
X101107517Y34710909D01*
X101167127Y34704500D01*
X104462872Y34704501D01*
X104522483Y34710909D01*
X104657331Y34761204D01*
X104772546Y34847454D01*
X104858796Y34962669D01*
X104909091Y35097517D01*
X104915500Y35157127D01*
X104915499Y37252872D01*
X104909091Y37312483D01*
X104862587Y37437167D01*
X104855736Y37495954D01*
X104876913Y37551220D01*
X104921294Y37590376D01*
X104978769Y37604500D01*
X108811755Y37604500D01*
X108818243Y37604331D01*
X108948379Y37597510D01*
X109128908Y37587372D01*
X109141309Y37586045D01*
X109289990Y37562496D01*
X109291245Y37562291D01*
X109450324Y37535262D01*
X109461606Y37532798D01*
X109610635Y37492866D01*
X109612761Y37492275D01*
X109764174Y37448653D01*
X109774260Y37445271D01*
X109919710Y37389438D01*
X109922599Y37388286D01*
X110066768Y37328570D01*
X110075594Y37324500D01*
X110215064Y37253435D01*
X110218748Y37251479D01*
X110288515Y37212921D01*
X110354548Y37176426D01*
X110362061Y37171919D01*
X110493754Y37086396D01*
X110497947Y37083548D01*
X110624147Y36994004D01*
X110630428Y36989241D01*
X110752567Y36890335D01*
X110757158Y36886429D01*
X110872424Y36783421D01*
X110877478Y36778642D01*
X110988640Y36667480D01*
X110993419Y36662426D01*
X111096427Y36547160D01*
X111100333Y36542569D01*
X111199239Y36420430D01*
X111204002Y36414149D01*
X111293546Y36287949D01*
X111296409Y36283734D01*
X111381907Y36152079D01*
X111386430Y36144540D01*
X111461477Y36008750D01*
X111463433Y36005066D01*
X111534498Y35865596D01*
X111538575Y35856753D01*
X111598259Y35712663D01*
X111599462Y35709647D01*
X111655265Y35564273D01*
X111658655Y35554164D01*
X111702258Y35402815D01*
X111702879Y35400581D01*
X111742791Y35251630D01*
X111745264Y35240306D01*
X111772282Y35081285D01*
X111772507Y35079913D01*
X111796040Y34931334D01*
X111797372Y34918889D01*
X111807498Y34738579D01*
X111807523Y34738116D01*
X111814330Y34608243D01*
X111814500Y34601753D01*
X111814500Y23108247D01*
X111814330Y23101757D01*
X111807523Y22971886D01*
X111807498Y22971423D01*
X111797372Y22791113D01*
X111796040Y22778668D01*
X111772507Y22630089D01*
X111772282Y22628717D01*
X111745264Y22469696D01*
X111742791Y22458372D01*
X111702879Y22309421D01*
X111702258Y22307187D01*
X111658655Y22155838D01*
X111655265Y22145729D01*
X111599462Y22000355D01*
X111598259Y21997339D01*
X111538575Y21853249D01*
X111534498Y21844406D01*
X111463433Y21704936D01*
X111461477Y21701252D01*
X111386430Y21565462D01*
X111381897Y21557906D01*
X111296412Y21426272D01*
X111293546Y21422053D01*
X111204002Y21295853D01*
X111199239Y21289572D01*
X111100333Y21167433D01*
X111096427Y21162842D01*
X110993419Y21047576D01*
X110988640Y21042522D01*
X110877478Y20931360D01*
X110872424Y20926581D01*
X110757158Y20823573D01*
X110752567Y20819667D01*
X110630428Y20720761D01*
X110624147Y20715998D01*
X110497947Y20626454D01*
X110493728Y20623588D01*
X110362094Y20538103D01*
X110354538Y20533570D01*
X110218748Y20458523D01*
X110215064Y20456567D01*
X110075594Y20385502D01*
X110066751Y20381425D01*
X109922661Y20321741D01*
X109919645Y20320538D01*
X109774271Y20264735D01*
X109764162Y20261345D01*
X109612813Y20217742D01*
X109610579Y20217121D01*
X109461628Y20177209D01*
X109450304Y20174736D01*
X109291283Y20147718D01*
X109289911Y20147493D01*
X109141332Y20123960D01*
X109128887Y20122628D01*
X108948577Y20112502D01*
X108948114Y20112477D01*
X108818243Y20105670D01*
X108811753Y20105500D01*
X94065500Y20105500D01*
X94065000Y20105500D01*
X93999108Y20105500D01*
X93991267Y20103400D01*
X93991259Y20103398D01*
X93879665Y20073496D01*
X93879662Y20073496D01*
X93871814Y20071392D01*
X93864777Y20067330D01*
X93864774Y20067328D01*
X93764723Y20009564D01*
X93764716Y20009560D01*
X93757686Y20005500D01*
X93751943Y19999758D01*
X93751939Y19999754D01*
X93670246Y19918061D01*
X93670242Y19918057D01*
X93664500Y19912314D01*
X93660440Y19905284D01*
X93660436Y19905277D01*
X93602672Y19805226D01*
X93602670Y19805223D01*
X93598608Y19798186D01*
X93596505Y19790341D01*
X93596504Y19790336D01*
X93571471Y19696907D01*
X93546686Y19649295D01*
X93504101Y19616618D01*
X93451696Y19605000D01*
X89178304Y19605000D01*
X89125899Y19616618D01*
X89083314Y19649295D01*
X89058529Y19696907D01*
X89033495Y19790336D01*
X89031392Y19798186D01*
X88965500Y19912314D01*
X88872314Y20005500D01*
X88865279Y20009562D01*
X88865276Y20009564D01*
X88765225Y20067328D01*
X88758186Y20071392D01*
X88750334Y20073496D01*
X88638740Y20103398D01*
X88638733Y20103399D01*
X88630892Y20105500D01*
X88565099Y20105500D01*
X21745500Y20105500D01*
X21745000Y20105500D01*
X21679108Y20105500D01*
X21671267Y20103400D01*
X21671259Y20103398D01*
X21559665Y20073496D01*
X21559662Y20073496D01*
X21551814Y20071392D01*
X21544777Y20067330D01*
X21544774Y20067328D01*
X21444723Y20009564D01*
X21444716Y20009560D01*
X21437686Y20005500D01*
X21431943Y19999758D01*
X21431939Y19999754D01*
X21350246Y19918061D01*
X21350242Y19918057D01*
X21344500Y19912314D01*
X21340440Y19905284D01*
X21340436Y19905277D01*
X21282672Y19805226D01*
X21282670Y19805223D01*
X21278608Y19798186D01*
X21276505Y19790341D01*
X21276504Y19790336D01*
X21251471Y19696907D01*
X21226686Y19649295D01*
X21184101Y19616618D01*
X21131696Y19605000D01*
X16858304Y19605000D01*
X16805899Y19616618D01*
X16763314Y19649295D01*
X16738529Y19696907D01*
X16713495Y19790336D01*
X16711392Y19798186D01*
X16645500Y19912314D01*
X16552314Y20005500D01*
X16545279Y20009562D01*
X16545276Y20009564D01*
X16445225Y20067328D01*
X16438186Y20071392D01*
X16430334Y20073496D01*
X16318740Y20103398D01*
X16318733Y20103399D01*
X16310892Y20105500D01*
X16302766Y20105500D01*
X2818247Y20105500D01*
X2811757Y20105670D01*
X2681884Y20112477D01*
X2681421Y20112502D01*
X2501111Y20122628D01*
X2488666Y20123960D01*
X2340087Y20147493D01*
X2338715Y20147718D01*
X2179694Y20174736D01*
X2168370Y20177209D01*
X2019419Y20217121D01*
X2017185Y20217742D01*
X1865836Y20261345D01*
X1855727Y20264735D01*
X1710353Y20320538D01*
X1707337Y20321741D01*
X1563247Y20381425D01*
X1554404Y20385502D01*
X1414934Y20456567D01*
X1411250Y20458523D01*
X1275460Y20533570D01*
X1267921Y20538093D01*
X1136266Y20623591D01*
X1132051Y20626454D01*
X1005851Y20715998D01*
X999570Y20720761D01*
X877431Y20819667D01*
X872840Y20823573D01*
X757574Y20926581D01*
X752520Y20931360D01*
X641358Y21042522D01*
X636579Y21047576D01*
X533571Y21162842D01*
X529665Y21167433D01*
X430759Y21289572D01*
X425996Y21295853D01*
X336452Y21422053D01*
X333604Y21426246D01*
X248081Y21557939D01*
X243568Y21565462D01*
X221717Y21605000D01*
X5509435Y21605000D01*
X5529632Y21425745D01*
X5531928Y21419181D01*
X5531930Y21419176D01*
X5558957Y21341938D01*
X5589211Y21255478D01*
X5685184Y21102738D01*
X5812738Y20975184D01*
X5965478Y20879211D01*
X6135745Y20819632D01*
X6315000Y20799435D01*
X6494255Y20819632D01*
X6664522Y20879211D01*
X6817262Y20975184D01*
X6820359Y20978282D01*
X6855207Y20997541D01*
X6896162Y21004500D01*
X81267513Y21004500D01*
X81283698Y21003439D01*
X81315000Y20999318D01*
X81471762Y21019956D01*
X81617841Y21080464D01*
X81646869Y21102738D01*
X81743282Y21176718D01*
X81762510Y21201778D01*
X81773189Y21213956D01*
X83626915Y23067681D01*
X83667144Y23094561D01*
X83714597Y23104000D01*
X87233838Y23104000D01*
X87274793Y23097041D01*
X87309640Y23077782D01*
X87312738Y23074684D01*
X87465478Y22978711D01*
X87635745Y22919132D01*
X87815000Y22898935D01*
X87994255Y22919132D01*
X88164522Y22978711D01*
X88317262Y23074684D01*
X88444816Y23202238D01*
X88540789Y23354978D01*
X88600368Y23525245D01*
X88620565Y23704500D01*
X88600368Y23883755D01*
X88573541Y23960422D01*
X100714500Y23960422D01*
X100714501Y23957128D01*
X100714853Y23953850D01*
X100714854Y23953839D01*
X100720079Y23905232D01*
X100720080Y23905227D01*
X100720909Y23897517D01*
X100723619Y23890251D01*
X100723620Y23890247D01*
X100743098Y23838024D01*
X100771204Y23762669D01*
X100857454Y23647454D01*
X100972669Y23561204D01*
X101107517Y23510909D01*
X101167127Y23504500D01*
X104462872Y23504501D01*
X104522483Y23510909D01*
X104657331Y23561204D01*
X104772546Y23647454D01*
X104858796Y23762669D01*
X104909091Y23897517D01*
X104915500Y23957127D01*
X104915499Y26052872D01*
X104909091Y26112483D01*
X104858796Y26247331D01*
X104772546Y26362546D01*
X104657331Y26448796D01*
X104522483Y26499091D01*
X104514770Y26499921D01*
X104514767Y26499921D01*
X104466180Y26505145D01*
X104466169Y26505146D01*
X104462873Y26505500D01*
X104459550Y26505500D01*
X101170439Y26505500D01*
X101170420Y26505500D01*
X101167128Y26505499D01*
X101163850Y26505147D01*
X101163838Y26505146D01*
X101115231Y26499921D01*
X101115225Y26499920D01*
X101107517Y26499091D01*
X101100252Y26496382D01*
X101100246Y26496380D01*
X100980980Y26451896D01*
X100980978Y26451896D01*
X100972669Y26448796D01*
X100965572Y26443484D01*
X100965568Y26443481D01*
X100864550Y26367859D01*
X100864546Y26367856D01*
X100857454Y26362546D01*
X100852144Y26355454D01*
X100852141Y26355450D01*
X100776519Y26254432D01*
X100776516Y26254428D01*
X100771204Y26247331D01*
X100768104Y26239022D01*
X100768104Y26239020D01*
X100723620Y26119753D01*
X100723619Y26119750D01*
X100720909Y26112483D01*
X100720079Y26104773D01*
X100720079Y26104768D01*
X100714855Y26056181D01*
X100714854Y26056169D01*
X100714500Y26052873D01*
X100714500Y26049552D01*
X100714500Y26049551D01*
X100714500Y23960440D01*
X100714500Y23960422D01*
X88573541Y23960422D01*
X88540789Y24054022D01*
X88444816Y24206762D01*
X88317262Y24334316D01*
X88164522Y24430289D01*
X88157945Y24432591D01*
X88151677Y24435609D01*
X88152322Y24436949D01*
X88114183Y24460914D01*
X88084823Y24507640D01*
X88031006Y24661440D01*
X88031005Y24661441D01*
X88028708Y24668007D01*
X87932735Y24820747D01*
X87805181Y24948301D01*
X87652441Y25044274D01*
X87645878Y25046571D01*
X87645875Y25046572D01*
X87488746Y25101554D01*
X87488740Y25101556D01*
X87482174Y25103853D01*
X87475258Y25104633D01*
X87475251Y25104634D01*
X87465180Y25105768D01*
X87401751Y25132042D01*
X87362025Y25188031D01*
X87339284Y25253022D01*
X87243311Y25405762D01*
X87115757Y25533316D01*
X86963017Y25629289D01*
X86956454Y25631586D01*
X86956451Y25631587D01*
X86799322Y25686569D01*
X86799316Y25686571D01*
X86792750Y25688868D01*
X86792750Y25688869D01*
X86792783Y25688963D01*
X86740874Y25715779D01*
X86706459Y25767284D01*
X86676633Y25852522D01*
X86580660Y26005262D01*
X86453106Y26132816D01*
X86300366Y26228789D01*
X86293803Y26231086D01*
X86293800Y26231087D01*
X86136668Y26286070D01*
X86136663Y26286072D01*
X86130099Y26288368D01*
X86123179Y26289148D01*
X86123178Y26289148D01*
X85957767Y26307785D01*
X85950844Y26308565D01*
X85943921Y26307785D01*
X85778509Y26289148D01*
X85778506Y26289148D01*
X85771589Y26288368D01*
X85765026Y26286072D01*
X85765019Y26286070D01*
X85607887Y26231087D01*
X85607880Y26231085D01*
X85601322Y26228789D01*
X85595434Y26225090D01*
X85595431Y26225088D01*
X85454477Y26136521D01*
X85454471Y26136517D01*
X85448582Y26132816D01*
X85445484Y26129719D01*
X85410637Y26110459D01*
X85369682Y26103500D01*
X82260487Y26103500D01*
X82244302Y26104561D01*
X82221059Y26107621D01*
X82213000Y26108682D01*
X82204941Y26107621D01*
X82173639Y26103500D01*
X82064297Y26089106D01*
X82064289Y26089104D01*
X82056238Y26088044D01*
X82048733Y26084936D01*
X82048728Y26084934D01*
X81917666Y26030646D01*
X81917662Y26030645D01*
X81910159Y26027536D01*
X81903714Y26022592D01*
X81903711Y26022589D01*
X81791163Y25936228D01*
X81791160Y25936226D01*
X81784718Y25931282D01*
X81779773Y25924839D01*
X81779770Y25924835D01*
X81765490Y25906226D01*
X81754798Y25894035D01*
X80301584Y24440819D01*
X80261356Y24413939D01*
X80213903Y24404500D01*
X18896162Y24404500D01*
X18855207Y24411459D01*
X18820359Y24430719D01*
X18817262Y24433816D01*
X18783083Y24455292D01*
X18670412Y24526088D01*
X18664522Y24529789D01*
X18657959Y24532086D01*
X18657956Y24532087D01*
X18500824Y24587070D01*
X18500819Y24587072D01*
X18494255Y24589368D01*
X18487335Y24590148D01*
X18487334Y24590148D01*
X18321923Y24608785D01*
X18315000Y24609565D01*
X18308077Y24608785D01*
X18142665Y24590148D01*
X18142662Y24590148D01*
X18135745Y24589368D01*
X18129182Y24587072D01*
X18129175Y24587070D01*
X17972043Y24532087D01*
X17972036Y24532085D01*
X17965478Y24529789D01*
X17959590Y24526090D01*
X17959587Y24526088D01*
X17818638Y24437524D01*
X17818633Y24437521D01*
X17812738Y24433816D01*
X17807813Y24428892D01*
X17807809Y24428888D01*
X17690112Y24311191D01*
X17690108Y24311187D01*
X17685184Y24306262D01*
X17681479Y24300367D01*
X17681476Y24300362D01*
X17592912Y24159413D01*
X17592910Y24159410D01*
X17589211Y24153522D01*
X17586916Y24146965D01*
X17586909Y24146949D01*
X17563175Y24079120D01*
X17533815Y24032394D01*
X17487089Y24003034D01*
X17432251Y23996855D01*
X17321923Y24009285D01*
X17315000Y24010065D01*
X17308077Y24009285D01*
X17142665Y23990648D01*
X17142662Y23990648D01*
X17135745Y23989868D01*
X17129182Y23987572D01*
X17129175Y23987570D01*
X16972043Y23932587D01*
X16972036Y23932585D01*
X16965478Y23930289D01*
X16959590Y23926590D01*
X16959587Y23926588D01*
X16818638Y23838024D01*
X16818633Y23838021D01*
X16812738Y23834316D01*
X16807813Y23829392D01*
X16807809Y23829388D01*
X16690112Y23711691D01*
X16690108Y23711687D01*
X16685184Y23706762D01*
X16681479Y23700867D01*
X16681476Y23700862D01*
X16592912Y23559913D01*
X16592910Y23559910D01*
X16589211Y23554022D01*
X16586915Y23547464D01*
X16586913Y23547457D01*
X16531930Y23390325D01*
X16531928Y23390318D01*
X16529632Y23383755D01*
X16528852Y23376838D01*
X16528852Y23376835D01*
X16521955Y23315617D01*
X16501189Y23259649D01*
X16456676Y23219870D01*
X16398735Y23205500D01*
X6896162Y23205500D01*
X6855207Y23212459D01*
X6820359Y23231719D01*
X6817262Y23234816D01*
X6664522Y23330789D01*
X6657959Y23333086D01*
X6657956Y23333087D01*
X6500824Y23388070D01*
X6500819Y23388072D01*
X6494255Y23390368D01*
X6487335Y23391148D01*
X6487334Y23391148D01*
X6321923Y23409785D01*
X6315000Y23410565D01*
X6308077Y23409785D01*
X6142665Y23391148D01*
X6142662Y23391148D01*
X6135745Y23390368D01*
X6129182Y23388072D01*
X6129175Y23388070D01*
X5972043Y23333087D01*
X5972036Y23333085D01*
X5965478Y23330789D01*
X5959590Y23327090D01*
X5959587Y23327088D01*
X5818638Y23238524D01*
X5818633Y23238521D01*
X5812738Y23234816D01*
X5807813Y23229892D01*
X5807809Y23229888D01*
X5690112Y23112191D01*
X5690108Y23112187D01*
X5685184Y23107262D01*
X5681479Y23101367D01*
X5681476Y23101362D01*
X5592912Y22960413D01*
X5592910Y22960410D01*
X5589211Y22954522D01*
X5586915Y22947964D01*
X5586913Y22947957D01*
X5531930Y22790825D01*
X5531928Y22790818D01*
X5529632Y22784255D01*
X5528852Y22777338D01*
X5528852Y22777335D01*
X5512107Y22628717D01*
X5509435Y22605000D01*
X5529632Y22425745D01*
X5531928Y22419181D01*
X5531930Y22419176D01*
X5571099Y22307239D01*
X5589211Y22255478D01*
X5592910Y22249591D01*
X5592914Y22249583D01*
X5642309Y22170971D01*
X5661315Y22105000D01*
X5642309Y22039029D01*
X5592914Y21960418D01*
X5592908Y21960407D01*
X5589211Y21954522D01*
X5586915Y21947964D01*
X5586913Y21947957D01*
X5531930Y21790825D01*
X5531928Y21790818D01*
X5529632Y21784255D01*
X5528852Y21777338D01*
X5528852Y21777335D01*
X5520695Y21704936D01*
X5509435Y21605000D01*
X221717Y21605000D01*
X168521Y21701252D01*
X166565Y21704936D01*
X95500Y21844406D01*
X91430Y21853232D01*
X31714Y21997401D01*
X30562Y22000290D01*
X-25271Y22145740D01*
X-28653Y22155826D01*
X-72275Y22307239D01*
X-72866Y22309365D01*
X-112798Y22458394D01*
X-115262Y22469676D01*
X-142291Y22628755D01*
X-142509Y22630089D01*
X-166045Y22778691D01*
X-167372Y22791092D01*
X-177515Y22971715D01*
X-177524Y22971886D01*
X-184331Y23101757D01*
X-184500Y23108245D01*
X-184500Y23960422D01*
X6714500Y23960422D01*
X6714501Y23957128D01*
X6714853Y23953850D01*
X6714854Y23953839D01*
X6720079Y23905232D01*
X6720080Y23905227D01*
X6720909Y23897517D01*
X6723619Y23890251D01*
X6723620Y23890247D01*
X6743098Y23838024D01*
X6771204Y23762669D01*
X6857454Y23647454D01*
X6972669Y23561204D01*
X7107517Y23510909D01*
X7167127Y23504500D01*
X10462872Y23504501D01*
X10522483Y23510909D01*
X10657331Y23561204D01*
X10772546Y23647454D01*
X10858796Y23762669D01*
X10909091Y23897517D01*
X10915500Y23957127D01*
X10915499Y26052872D01*
X10909091Y26112483D01*
X10858796Y26247331D01*
X10772546Y26362546D01*
X10657331Y26448796D01*
X10522483Y26499091D01*
X10514770Y26499921D01*
X10514767Y26499921D01*
X10466180Y26505145D01*
X10466169Y26505146D01*
X10462873Y26505500D01*
X10459550Y26505500D01*
X7170439Y26505500D01*
X7170420Y26505500D01*
X7167128Y26505499D01*
X7163850Y26505147D01*
X7163838Y26505146D01*
X7115231Y26499921D01*
X7115225Y26499920D01*
X7107517Y26499091D01*
X7100252Y26496382D01*
X7100246Y26496380D01*
X6980980Y26451896D01*
X6980978Y26451896D01*
X6972669Y26448796D01*
X6965572Y26443484D01*
X6965568Y26443481D01*
X6864550Y26367859D01*
X6864546Y26367856D01*
X6857454Y26362546D01*
X6852144Y26355454D01*
X6852141Y26355450D01*
X6776519Y26254432D01*
X6776516Y26254428D01*
X6771204Y26247331D01*
X6768104Y26239022D01*
X6768104Y26239020D01*
X6723620Y26119753D01*
X6723619Y26119750D01*
X6720909Y26112483D01*
X6720079Y26104773D01*
X6720079Y26104768D01*
X6714855Y26056181D01*
X6714854Y26056169D01*
X6714500Y26052873D01*
X6714500Y26049552D01*
X6714500Y26049551D01*
X6714500Y23960440D01*
X6714500Y23960422D01*
X-184500Y23960422D01*
X-184500Y28105000D01*
X309357Y28105000D01*
X309781Y28099883D01*
X329467Y27862299D01*
X329468Y27862291D01*
X329892Y27857179D01*
X331149Y27852212D01*
X331151Y27852205D01*
X388440Y27625978D01*
X390937Y27616119D01*
X392997Y27611423D01*
X488766Y27393090D01*
X488769Y27393084D01*
X490827Y27388393D01*
X493627Y27384107D01*
X493631Y27384100D01*
X581432Y27249711D01*
X626836Y27180215D01*
X630310Y27176441D01*
X630311Y27176440D01*
X791784Y27001033D01*
X791787Y27001030D01*
X795256Y26997262D01*
X991491Y26844526D01*
X1210190Y26726172D01*
X1445386Y26645429D01*
X1690665Y26604500D01*
X1934201Y26604500D01*
X1939335Y26604500D01*
X2184614Y26645429D01*
X2419810Y26726172D01*
X2638509Y26844526D01*
X2834744Y26997262D01*
X3003164Y27180215D01*
X3139173Y27388393D01*
X3239063Y27616119D01*
X3300108Y27857179D01*
X3320643Y28105000D01*
X3300108Y28352821D01*
X3239063Y28593881D01*
X3139173Y28821607D01*
X3089119Y28898220D01*
X3005971Y29025488D01*
X3003164Y29029785D01*
X2892912Y29149551D01*
X2838215Y29208968D01*
X2838211Y29208971D01*
X2834744Y29212738D01*
X2668708Y29341969D01*
X2642559Y29362322D01*
X2642557Y29362324D01*
X2638509Y29365474D01*
X2586062Y29393857D01*
X2424316Y29481390D01*
X2424310Y29481393D01*
X2419810Y29483828D01*
X2414969Y29485490D01*
X2414962Y29485493D01*
X2189465Y29562906D01*
X2189461Y29562907D01*
X2184614Y29564571D01*
X2170183Y29566979D01*
X1944398Y29604656D01*
X1944387Y29604657D01*
X1939335Y29605500D01*
X1690665Y29605500D01*
X1685613Y29604657D01*
X1685601Y29604656D01*
X1450443Y29565415D01*
X1450441Y29565415D01*
X1445386Y29564571D01*
X1440541Y29562908D01*
X1440534Y29562906D01*
X1215037Y29485493D01*
X1215026Y29485489D01*
X1210190Y29483828D01*
X1205693Y29481395D01*
X1205683Y29481390D01*
X996002Y29367916D01*
X995995Y29367912D01*
X991491Y29365474D01*
X987448Y29362328D01*
X987440Y29362322D01*
X799304Y29215889D01*
X795256Y29212738D01*
X791793Y29208977D01*
X791784Y29208968D01*
X630311Y29033561D01*
X630305Y29033554D01*
X626836Y29029785D01*
X624031Y29025494D01*
X624028Y29025488D01*
X493631Y28825901D01*
X493624Y28825889D01*
X490827Y28821607D01*
X488772Y28816923D01*
X488766Y28816911D01*
X397579Y28609024D01*
X390937Y28593881D01*
X389679Y28588916D01*
X389678Y28588911D01*
X331151Y28357796D01*
X331149Y28357787D01*
X329892Y28352821D01*
X329468Y28347712D01*
X329467Y28347702D01*
X314024Y28161325D01*
X309357Y28105000D01*
X-184500Y28105000D01*
X-184500Y30599883D01*
X14810283Y30599883D01*
X14829962Y30362382D01*
X14831646Y30352288D01*
X14890153Y30121253D01*
X14893472Y30111586D01*
X14989207Y29893329D01*
X14994073Y29884339D01*
X15103613Y29716674D01*
X15123752Y29652434D01*
X15107355Y29587138D01*
X15070779Y29551320D01*
X15072669Y29548796D01*
X14964550Y29467859D01*
X14964546Y29467856D01*
X14957454Y29462546D01*
X14952144Y29455454D01*
X14952141Y29455450D01*
X14876519Y29354432D01*
X14876516Y29354428D01*
X14871204Y29347331D01*
X14868104Y29339022D01*
X14868104Y29339020D01*
X14823620Y29219753D01*
X14823619Y29219750D01*
X14820909Y29212483D01*
X14820079Y29204773D01*
X14820079Y29204768D01*
X14814855Y29156181D01*
X14814854Y29156169D01*
X14814500Y29152873D01*
X14814500Y29149552D01*
X14814500Y29149551D01*
X14814500Y27060440D01*
X14814500Y27060422D01*
X14814501Y27057128D01*
X14814853Y27053850D01*
X14814854Y27053839D01*
X14820079Y27005232D01*
X14820080Y27005227D01*
X14820909Y26997517D01*
X14823619Y26990251D01*
X14823620Y26990247D01*
X14857217Y26900169D01*
X14871204Y26862669D01*
X14876518Y26855570D01*
X14876519Y26855569D01*
X14882425Y26847679D01*
X14957454Y26747454D01*
X15072669Y26661204D01*
X15207517Y26610909D01*
X15267127Y26604500D01*
X17362872Y26604501D01*
X17422483Y26610909D01*
X17557331Y26661204D01*
X17672546Y26747454D01*
X17758796Y26862669D01*
X17809091Y26997517D01*
X17815500Y27057127D01*
X17815500Y27975500D01*
X53539488Y27975500D01*
X53540268Y27968577D01*
X53552242Y27862299D01*
X53559685Y27796245D01*
X53561981Y27789681D01*
X53561983Y27789676D01*
X53616966Y27632544D01*
X53619264Y27625978D01*
X53715237Y27473238D01*
X53842791Y27345684D01*
X53995531Y27249711D01*
X54165798Y27190132D01*
X54345053Y27169935D01*
X54524308Y27190132D01*
X54694575Y27249711D01*
X54847315Y27345684D01*
X54974869Y27473238D01*
X55070842Y27625978D01*
X55130421Y27796245D01*
X55140214Y27883170D01*
X55151714Y27923087D01*
X55175750Y27956964D01*
X55323786Y28105000D01*
X93809357Y28105000D01*
X93809781Y28099883D01*
X93829467Y27862299D01*
X93829468Y27862291D01*
X93829892Y27857179D01*
X93831149Y27852212D01*
X93831151Y27852205D01*
X93888440Y27625978D01*
X93890937Y27616119D01*
X93892997Y27611423D01*
X93988766Y27393090D01*
X93988769Y27393084D01*
X93990827Y27388393D01*
X93993627Y27384107D01*
X93993631Y27384100D01*
X94081432Y27249711D01*
X94126836Y27180215D01*
X94130310Y27176441D01*
X94130311Y27176440D01*
X94291784Y27001033D01*
X94291787Y27001030D01*
X94295256Y26997262D01*
X94491491Y26844526D01*
X94710190Y26726172D01*
X94945386Y26645429D01*
X95190665Y26604500D01*
X95434201Y26604500D01*
X95439335Y26604500D01*
X95684614Y26645429D01*
X95919810Y26726172D01*
X96138509Y26844526D01*
X96334744Y26997262D01*
X96503164Y27180215D01*
X96639173Y27388393D01*
X96739063Y27616119D01*
X96800108Y27857179D01*
X96820643Y28105000D01*
X108309357Y28105000D01*
X108309781Y28099883D01*
X108329467Y27862299D01*
X108329468Y27862291D01*
X108329892Y27857179D01*
X108331149Y27852212D01*
X108331151Y27852205D01*
X108388440Y27625978D01*
X108390937Y27616119D01*
X108392997Y27611423D01*
X108488766Y27393090D01*
X108488769Y27393084D01*
X108490827Y27388393D01*
X108493627Y27384107D01*
X108493631Y27384100D01*
X108581432Y27249711D01*
X108626836Y27180215D01*
X108630310Y27176441D01*
X108630311Y27176440D01*
X108791784Y27001033D01*
X108791787Y27001030D01*
X108795256Y26997262D01*
X108991491Y26844526D01*
X109210190Y26726172D01*
X109445386Y26645429D01*
X109690665Y26604500D01*
X109934201Y26604500D01*
X109939335Y26604500D01*
X110184614Y26645429D01*
X110419810Y26726172D01*
X110638509Y26844526D01*
X110834744Y26997262D01*
X111003164Y27180215D01*
X111139173Y27388393D01*
X111239063Y27616119D01*
X111300108Y27857179D01*
X111320643Y28105000D01*
X111300108Y28352821D01*
X111239063Y28593881D01*
X111139173Y28821607D01*
X111089119Y28898220D01*
X111005971Y29025488D01*
X111003164Y29029785D01*
X110892912Y29149551D01*
X110838215Y29208968D01*
X110838211Y29208971D01*
X110834744Y29212738D01*
X110668708Y29341969D01*
X110642559Y29362322D01*
X110642557Y29362324D01*
X110638509Y29365474D01*
X110586062Y29393857D01*
X110424316Y29481390D01*
X110424310Y29481393D01*
X110419810Y29483828D01*
X110414969Y29485490D01*
X110414962Y29485493D01*
X110189465Y29562906D01*
X110189461Y29562907D01*
X110184614Y29564571D01*
X110170183Y29566979D01*
X109944398Y29604656D01*
X109944387Y29604657D01*
X109939335Y29605500D01*
X109690665Y29605500D01*
X109685613Y29604657D01*
X109685601Y29604656D01*
X109450443Y29565415D01*
X109450441Y29565415D01*
X109445386Y29564571D01*
X109440541Y29562908D01*
X109440534Y29562906D01*
X109215037Y29485493D01*
X109215026Y29485489D01*
X109210190Y29483828D01*
X109205693Y29481395D01*
X109205683Y29481390D01*
X108996002Y29367916D01*
X108995995Y29367912D01*
X108991491Y29365474D01*
X108987448Y29362328D01*
X108987440Y29362322D01*
X108799304Y29215889D01*
X108795256Y29212738D01*
X108791793Y29208977D01*
X108791784Y29208968D01*
X108630311Y29033561D01*
X108630305Y29033554D01*
X108626836Y29029785D01*
X108624031Y29025494D01*
X108624028Y29025488D01*
X108493631Y28825901D01*
X108493624Y28825889D01*
X108490827Y28821607D01*
X108488772Y28816923D01*
X108488766Y28816911D01*
X108397579Y28609024D01*
X108390937Y28593881D01*
X108389679Y28588916D01*
X108389678Y28588911D01*
X108331151Y28357796D01*
X108331149Y28357787D01*
X108329892Y28352821D01*
X108329468Y28347712D01*
X108329467Y28347702D01*
X108314024Y28161325D01*
X108309357Y28105000D01*
X96820643Y28105000D01*
X96800108Y28352821D01*
X96739063Y28593881D01*
X96639173Y28821607D01*
X96589119Y28898220D01*
X96505971Y29025488D01*
X96503164Y29029785D01*
X96392912Y29149551D01*
X96338212Y29208971D01*
X96338210Y29208973D01*
X96334744Y29212738D01*
X96299840Y29239905D01*
X96228927Y29295099D01*
X96192054Y29341972D01*
X96187535Y29366689D01*
X96172589Y29393858D01*
X95326542Y30239905D01*
X95315000Y30246569D01*
X95303457Y30239905D01*
X94457408Y29393857D01*
X94442462Y29366688D01*
X94437942Y29341969D01*
X94401071Y29295099D01*
X94299298Y29215885D01*
X94299291Y29215879D01*
X94295256Y29212738D01*
X94291795Y29208979D01*
X94291787Y29208971D01*
X94130311Y29033561D01*
X94130305Y29033554D01*
X94126836Y29029785D01*
X94124031Y29025494D01*
X94124028Y29025488D01*
X93993631Y28825901D01*
X93993624Y28825889D01*
X93990827Y28821607D01*
X93988772Y28816923D01*
X93988766Y28816911D01*
X93897579Y28609024D01*
X93890937Y28593881D01*
X93889679Y28588916D01*
X93889678Y28588911D01*
X93831151Y28357796D01*
X93831149Y28357787D01*
X93829892Y28352821D01*
X93829468Y28347712D01*
X93829467Y28347702D01*
X93814024Y28161325D01*
X93809357Y28105000D01*
X55323786Y28105000D01*
X56107570Y28888784D01*
X80905842Y28888784D01*
X80912611Y28882016D01*
X80922265Y28877366D01*
X81079282Y28822424D01*
X81092780Y28819343D01*
X81258077Y28800718D01*
X81271923Y28800718D01*
X81437219Y28819343D01*
X81450717Y28822424D01*
X81607733Y28877366D01*
X81617388Y28882016D01*
X81624156Y28888784D01*
X82180842Y28888784D01*
X82187611Y28882016D01*
X82197265Y28877366D01*
X82354282Y28822424D01*
X82367780Y28819343D01*
X82533077Y28800718D01*
X82546923Y28800718D01*
X82712219Y28819343D01*
X82725717Y28822424D01*
X82882733Y28877366D01*
X82892388Y28882016D01*
X82899156Y28888784D01*
X83455842Y28888784D01*
X83462611Y28882016D01*
X83472265Y28877366D01*
X83629282Y28822424D01*
X83642780Y28819343D01*
X83808077Y28800718D01*
X83821923Y28800718D01*
X83987219Y28819343D01*
X84000717Y28822424D01*
X84157733Y28877366D01*
X84167388Y28882016D01*
X84174156Y28888784D01*
X84168228Y28898219D01*
X83826542Y29239905D01*
X83815000Y29246569D01*
X83803456Y29239904D01*
X83461771Y28898220D01*
X83455842Y28888784D01*
X82899156Y28888784D01*
X82893228Y28898219D01*
X82551542Y29239905D01*
X82540000Y29246569D01*
X82528456Y29239904D01*
X82186771Y28898220D01*
X82180842Y28888784D01*
X81624156Y28888784D01*
X81618228Y28898219D01*
X81276542Y29239905D01*
X81265000Y29246569D01*
X81253456Y29239904D01*
X80911771Y28898220D01*
X80905842Y28888784D01*
X56107570Y28888784D01*
X59912632Y32693845D01*
X59952861Y32720725D01*
X60000314Y32730164D01*
X60398678Y32730164D01*
X60456619Y32715794D01*
X60501131Y32676016D01*
X60521898Y32620048D01*
X60526082Y32582913D01*
X60529632Y32551409D01*
X60531931Y32544839D01*
X60586786Y32388070D01*
X60589211Y32381142D01*
X60592910Y32375255D01*
X60592912Y32375251D01*
X60645494Y32291568D01*
X60664500Y32225596D01*
X60664500Y31586751D01*
X60645494Y31520779D01*
X60592912Y31437097D01*
X60592908Y31437089D01*
X60589211Y31431205D01*
X60586915Y31424647D01*
X60586913Y31424640D01*
X60531930Y31267508D01*
X60531928Y31267501D01*
X60529632Y31260938D01*
X60528852Y31254021D01*
X60528852Y31254018D01*
X60512472Y31108639D01*
X60509435Y31081683D01*
X60510215Y31074760D01*
X60528010Y30916819D01*
X60529632Y30902428D01*
X60531928Y30895864D01*
X60531930Y30895859D01*
X60574812Y30773310D01*
X60589211Y30732161D01*
X60592912Y30726271D01*
X60670249Y30603189D01*
X60685184Y30579421D01*
X60812738Y30451867D01*
X60965478Y30355894D01*
X61135745Y30296315D01*
X61315000Y30276118D01*
X61494255Y30296315D01*
X61664522Y30355894D01*
X61817262Y30451867D01*
X61944816Y30579421D01*
X62040789Y30732161D01*
X62100368Y30902428D01*
X62120565Y31081683D01*
X62100368Y31260938D01*
X62040789Y31431205D01*
X61984505Y31520780D01*
X61965500Y31586751D01*
X61965500Y32225596D01*
X61984506Y32291568D01*
X62040789Y32381142D01*
X62100368Y32551409D01*
X62108101Y32620048D01*
X62128869Y32676016D01*
X62173381Y32715794D01*
X62231322Y32730164D01*
X79426527Y32730164D01*
X79482822Y32716649D01*
X79526845Y32679049D01*
X79549000Y32625562D01*
X79544458Y32567846D01*
X79514208Y32518483D01*
X78913044Y31917319D01*
X78872816Y31890439D01*
X78825363Y31881000D01*
X77396162Y31881000D01*
X77355207Y31887959D01*
X77320359Y31907219D01*
X77317262Y31910316D01*
X77282101Y31932409D01*
X77178888Y31997262D01*
X77164522Y32006289D01*
X77157959Y32008586D01*
X77157956Y32008587D01*
X77000825Y32063569D01*
X76994255Y32065868D01*
X76987336Y32066648D01*
X76987330Y32066649D01*
X76985731Y32066829D01*
X76981440Y32067993D01*
X76980550Y32068196D01*
X76980558Y32068233D01*
X76949354Y32076696D01*
X76921854Y32094324D01*
X76921535Y32093912D01*
X76918048Y32096617D01*
X76909169Y32104201D01*
X76881585Y32130104D01*
X76881579Y32130108D01*
X76875893Y32135448D01*
X76869057Y32139206D01*
X76869056Y32139207D01*
X76857294Y32145673D01*
X76841031Y32156356D01*
X76830424Y32164584D01*
X76830422Y32164585D01*
X76824264Y32169362D01*
X76817112Y32172457D01*
X76817107Y32172460D01*
X76782369Y32187492D01*
X76771879Y32192631D01*
X76738707Y32210868D01*
X76738702Y32210870D01*
X76731868Y32214627D01*
X76711296Y32219910D01*
X76692897Y32226210D01*
X76680587Y32231537D01*
X76680581Y32231539D01*
X76673426Y32234635D01*
X76665727Y32235855D01*
X76665722Y32235856D01*
X76628337Y32241777D01*
X76616899Y32244146D01*
X76580235Y32253560D01*
X76580230Y32253561D01*
X76572677Y32255500D01*
X76564875Y32255500D01*
X76551454Y32255500D01*
X76532055Y32257027D01*
X76518802Y32259127D01*
X76518796Y32259128D01*
X76511095Y32260347D01*
X76503329Y32259613D01*
X76503327Y32259613D01*
X76465640Y32256050D01*
X76453970Y32255500D01*
X67320068Y32255500D01*
X67254096Y32274506D01*
X67170413Y32327088D01*
X67170409Y32327090D01*
X67164522Y32330789D01*
X67157959Y32333086D01*
X67157956Y32333087D01*
X67000824Y32388070D01*
X67000819Y32388072D01*
X66994255Y32390368D01*
X66987335Y32391148D01*
X66987334Y32391148D01*
X66821923Y32409785D01*
X66815000Y32410565D01*
X66808077Y32409785D01*
X66642665Y32391148D01*
X66642662Y32391148D01*
X66635745Y32390368D01*
X66629182Y32388072D01*
X66629175Y32388070D01*
X66472043Y32333087D01*
X66472036Y32333085D01*
X66465478Y32330789D01*
X66459590Y32327090D01*
X66459587Y32327088D01*
X66318638Y32238524D01*
X66318633Y32238521D01*
X66312738Y32234816D01*
X66307813Y32229892D01*
X66307809Y32229888D01*
X66190112Y32112191D01*
X66190108Y32112187D01*
X66185184Y32107262D01*
X66181479Y32101367D01*
X66181476Y32101362D01*
X66092912Y31960413D01*
X66092910Y31960410D01*
X66089211Y31954522D01*
X66086915Y31947964D01*
X66086913Y31947957D01*
X66031930Y31790825D01*
X66031928Y31790818D01*
X66029632Y31784255D01*
X66028852Y31777338D01*
X66028852Y31777335D01*
X66015482Y31658672D01*
X66009435Y31605000D01*
X66010215Y31598077D01*
X66025197Y31465102D01*
X66029632Y31425745D01*
X66031928Y31419181D01*
X66031930Y31419176D01*
X66086913Y31262044D01*
X66089211Y31255478D01*
X66185184Y31102738D01*
X66312738Y30975184D01*
X66465478Y30879211D01*
X66635745Y30819632D01*
X66815000Y30799435D01*
X66994255Y30819632D01*
X67164522Y30879211D01*
X67254096Y30935495D01*
X67320068Y30954500D01*
X76005899Y30954500D01*
X76065880Y30939028D01*
X76110891Y30896473D01*
X76185184Y30778238D01*
X76312738Y30650684D01*
X76465478Y30554711D01*
X76635745Y30495132D01*
X76815000Y30474935D01*
X76994255Y30495132D01*
X77164522Y30554711D01*
X77317262Y30650684D01*
X77320359Y30653782D01*
X77355207Y30673041D01*
X77396162Y30680000D01*
X79003856Y30680000D01*
X79061797Y30665630D01*
X79106310Y30625852D01*
X79127076Y30569884D01*
X79128368Y30558413D01*
X79135939Y30491223D01*
X79138235Y30484659D01*
X79138237Y30484654D01*
X79184096Y30353597D01*
X79195518Y30320956D01*
X79291491Y30168216D01*
X79419045Y30040662D01*
X79571785Y29944689D01*
X79742052Y29885110D01*
X79822583Y29876037D01*
X79884187Y29851193D01*
X79963000Y29790718D01*
X80008943Y29755465D01*
X80008944Y29755464D01*
X80155023Y29694956D01*
X80311785Y29674318D01*
X80324816Y29676034D01*
X80389166Y29667359D01*
X80440311Y29627350D01*
X80464222Y29566979D01*
X80479342Y29432781D01*
X80482423Y29419283D01*
X80537364Y29262269D01*
X80542015Y29252611D01*
X80548782Y29245844D01*
X80558217Y29251772D01*
X80949628Y29643181D01*
X80989856Y29670061D01*
X81037309Y29679500D01*
X81492691Y29679500D01*
X81540144Y29670061D01*
X81580372Y29643181D01*
X81890957Y29332596D01*
X81902500Y29325932D01*
X81914042Y29332596D01*
X82224628Y29643181D01*
X82264856Y29670061D01*
X82312309Y29679500D01*
X82767691Y29679500D01*
X82815144Y29670061D01*
X82855372Y29643181D01*
X83165957Y29332596D01*
X83177500Y29325932D01*
X83189042Y29332596D01*
X83499628Y29643181D01*
X83539856Y29670061D01*
X83587309Y29679500D01*
X84016042Y29679500D01*
X84032226Y29678439D01*
X84046251Y29676593D01*
X84062915Y29674399D01*
X84101574Y29662672D01*
X84134412Y29639141D01*
X84521781Y29251772D01*
X84531216Y29245844D01*
X84537984Y29252612D01*
X84542634Y29262267D01*
X84597576Y29419283D01*
X84600657Y29432781D01*
X84619282Y29598077D01*
X84619282Y29611923D01*
X84600657Y29777219D01*
X84597576Y29790718D01*
X84578181Y29846143D01*
X84574331Y29914691D01*
X84607538Y29974776D01*
X85206044Y30573281D01*
X85218222Y30583962D01*
X85238973Y30599883D01*
X93810283Y30599883D01*
X93829962Y30362382D01*
X93831646Y30352288D01*
X93890153Y30121253D01*
X93893472Y30111586D01*
X93989208Y29893327D01*
X93994070Y29884344D01*
X94083999Y29746696D01*
X94091963Y29738976D01*
X94101345Y29744900D01*
X95227318Y30870873D01*
X95282905Y30902967D01*
X95347093Y30902967D01*
X95402680Y30870873D01*
X96528653Y29744900D01*
X96538034Y29738976D01*
X96546002Y29746701D01*
X96635924Y29884336D01*
X96640792Y29893331D01*
X96736527Y30111586D01*
X96739846Y30121253D01*
X96798353Y30352288D01*
X96800037Y30362382D01*
X96819717Y30599883D01*
X96819717Y30610117D01*
X96800037Y30847619D01*
X96798353Y30857713D01*
X96739846Y31088748D01*
X96736527Y31098415D01*
X96640792Y31316672D01*
X96635927Y31325662D01*
X96526386Y31493327D01*
X96506246Y31557601D01*
X96522677Y31622922D01*
X96559229Y31658669D01*
X96557331Y31661204D01*
X96557330Y31661204D01*
X96672546Y31747454D01*
X96758796Y31862669D01*
X96809091Y31997517D01*
X96815500Y32057127D01*
X96815499Y33105000D01*
X108309357Y33105000D01*
X108309781Y33099883D01*
X108329467Y32862299D01*
X108329468Y32862291D01*
X108329892Y32857179D01*
X108331149Y32852212D01*
X108331151Y32852205D01*
X108388546Y32625562D01*
X108390937Y32616119D01*
X108392997Y32611423D01*
X108488766Y32393090D01*
X108488769Y32393084D01*
X108490827Y32388393D01*
X108493627Y32384107D01*
X108493631Y32384100D01*
X108606809Y32210868D01*
X108626836Y32180215D01*
X108630310Y32176441D01*
X108630311Y32176440D01*
X108791784Y32001033D01*
X108791787Y32001030D01*
X108795256Y31997262D01*
X108991491Y31844526D01*
X109210190Y31726172D01*
X109445386Y31645429D01*
X109690665Y31604500D01*
X109934201Y31604500D01*
X109939335Y31604500D01*
X110184614Y31645429D01*
X110419810Y31726172D01*
X110638509Y31844526D01*
X110834744Y31997262D01*
X111003164Y32180215D01*
X111139173Y32388393D01*
X111239063Y32616119D01*
X111300108Y32857179D01*
X111320643Y33105000D01*
X111300108Y33352821D01*
X111239063Y33593881D01*
X111139173Y33821607D01*
X111079726Y33912597D01*
X111005971Y34025488D01*
X111003164Y34029785D01*
X110949509Y34088070D01*
X110838215Y34208968D01*
X110838211Y34208971D01*
X110834744Y34212738D01*
X110638509Y34365474D01*
X110633997Y34367916D01*
X110424316Y34481390D01*
X110424310Y34481393D01*
X110419810Y34483828D01*
X110414969Y34485490D01*
X110414962Y34485493D01*
X110189465Y34562906D01*
X110189461Y34562907D01*
X110184614Y34564571D01*
X110175768Y34566048D01*
X109944398Y34604656D01*
X109944387Y34604657D01*
X109939335Y34605500D01*
X109690665Y34605500D01*
X109685613Y34604657D01*
X109685601Y34604656D01*
X109450443Y34565415D01*
X109450441Y34565415D01*
X109445386Y34564571D01*
X109440541Y34562908D01*
X109440534Y34562906D01*
X109215037Y34485493D01*
X109215026Y34485489D01*
X109210190Y34483828D01*
X109205693Y34481395D01*
X109205683Y34481390D01*
X108996002Y34367916D01*
X108995995Y34367912D01*
X108991491Y34365474D01*
X108987448Y34362328D01*
X108987440Y34362322D01*
X108799304Y34215889D01*
X108795256Y34212738D01*
X108791793Y34208977D01*
X108791784Y34208968D01*
X108630311Y34033561D01*
X108630305Y34033554D01*
X108626836Y34029785D01*
X108624031Y34025494D01*
X108624028Y34025488D01*
X108493631Y33825901D01*
X108493624Y33825889D01*
X108490827Y33821607D01*
X108488772Y33816923D01*
X108488766Y33816911D01*
X108392997Y33598578D01*
X108390937Y33593881D01*
X108389679Y33588916D01*
X108389678Y33588911D01*
X108331151Y33357796D01*
X108331149Y33357787D01*
X108329892Y33352821D01*
X108329468Y33347712D01*
X108329467Y33347702D01*
X108311649Y33132666D01*
X108309357Y33105000D01*
X96815499Y33105000D01*
X96815499Y34152872D01*
X96809091Y34212483D01*
X96758796Y34347331D01*
X96672546Y34462546D01*
X96557331Y34548796D01*
X96422483Y34599091D01*
X96414770Y34599921D01*
X96414767Y34599921D01*
X96366180Y34605145D01*
X96366169Y34605146D01*
X96362873Y34605500D01*
X96359550Y34605500D01*
X94270439Y34605500D01*
X94270420Y34605500D01*
X94267128Y34605499D01*
X94263850Y34605147D01*
X94263838Y34605146D01*
X94215231Y34599921D01*
X94215225Y34599920D01*
X94207517Y34599091D01*
X94200252Y34596382D01*
X94200246Y34596380D01*
X94080980Y34551896D01*
X94080978Y34551896D01*
X94072669Y34548796D01*
X94065572Y34543484D01*
X94065568Y34543481D01*
X93964550Y34467859D01*
X93964546Y34467856D01*
X93957454Y34462546D01*
X93952144Y34455454D01*
X93952141Y34455450D01*
X93876519Y34354432D01*
X93876516Y34354428D01*
X93871204Y34347331D01*
X93868104Y34339022D01*
X93868104Y34339020D01*
X93823620Y34219753D01*
X93823619Y34219750D01*
X93820909Y34212483D01*
X93820079Y34204773D01*
X93820079Y34204768D01*
X93814855Y34156181D01*
X93814854Y34156169D01*
X93814500Y34152873D01*
X93814500Y34149552D01*
X93814500Y34149551D01*
X93814500Y32060440D01*
X93814500Y32060422D01*
X93814501Y32057128D01*
X93814853Y32053850D01*
X93814854Y32053839D01*
X93820079Y32005232D01*
X93820080Y32005227D01*
X93820909Y31997517D01*
X93823619Y31990251D01*
X93823620Y31990247D01*
X93857217Y31900169D01*
X93871204Y31862669D01*
X93876518Y31855570D01*
X93876519Y31855569D01*
X93932436Y31780873D01*
X93957454Y31747454D01*
X93964550Y31742142D01*
X94072669Y31661204D01*
X94070773Y31658672D01*
X94107333Y31622901D01*
X94123753Y31557589D01*
X94103613Y31493327D01*
X93994073Y31325662D01*
X93989207Y31316672D01*
X93893472Y31098415D01*
X93890153Y31088748D01*
X93831646Y30857713D01*
X93829962Y30847619D01*
X93810283Y30610117D01*
X93810283Y30599883D01*
X85238973Y30599883D01*
X85243282Y30603189D01*
X85323923Y30708282D01*
X85339536Y30728630D01*
X85400044Y30874709D01*
X85420682Y31031471D01*
X85420401Y31033601D01*
X85426580Y31069963D01*
X85444548Y31102471D01*
X85444816Y31102738D01*
X85540789Y31255478D01*
X85600368Y31425745D01*
X85620565Y31605000D01*
X85600368Y31784255D01*
X85540789Y31954522D01*
X85444816Y32107262D01*
X85317262Y32234816D01*
X85302413Y32244146D01*
X85170412Y32327088D01*
X85164522Y32330789D01*
X85157959Y32333086D01*
X85157956Y32333087D01*
X85000824Y32388070D01*
X85000819Y32388072D01*
X84994255Y32390368D01*
X84987335Y32391148D01*
X84987334Y32391148D01*
X84821923Y32409785D01*
X84815000Y32410565D01*
X84808077Y32409785D01*
X84680574Y32395420D01*
X84625735Y32401599D01*
X84579008Y32430960D01*
X84549649Y32477688D01*
X84542636Y32497731D01*
X84536632Y32510198D01*
X84517786Y32540191D01*
X84498828Y32602685D01*
X84514251Y32666145D01*
X84559777Y32712967D01*
X84622779Y32730164D01*
X86406396Y32730164D01*
X86453849Y32720725D01*
X86494077Y32693845D01*
X86512738Y32675184D01*
X86665478Y32579211D01*
X86835745Y32519632D01*
X87015000Y32499435D01*
X87194255Y32519632D01*
X87364522Y32579211D01*
X87517262Y32675184D01*
X87644816Y32802738D01*
X87740789Y32955478D01*
X87800368Y33125745D01*
X87820565Y33305000D01*
X87800368Y33484255D01*
X87740789Y33654522D01*
X87644816Y33807262D01*
X87517262Y33934816D01*
X87364522Y34030789D01*
X87357959Y34033086D01*
X87357956Y34033087D01*
X87200824Y34088070D01*
X87200819Y34088072D01*
X87194255Y34090368D01*
X87187335Y34091148D01*
X87187334Y34091148D01*
X87021923Y34109785D01*
X87015000Y34110565D01*
X87008077Y34109785D01*
X86842665Y34091148D01*
X86842662Y34091148D01*
X86835745Y34090368D01*
X86829182Y34088072D01*
X86829175Y34088070D01*
X86672043Y34033087D01*
X86672036Y34033085D01*
X86665478Y34030789D01*
X86659590Y34027090D01*
X86659587Y34027088D01*
X86537174Y33950170D01*
X86471202Y33931164D01*
X59747711Y33931164D01*
X59731525Y33932225D01*
X59708276Y33935286D01*
X59700217Y33936347D01*
X59692158Y33935286D01*
X59558555Y33917696D01*
X59551515Y33916770D01*
X59551508Y33916769D01*
X59543455Y33915708D01*
X59535945Y33912598D01*
X59535944Y33912597D01*
X59404883Y33858310D01*
X59404879Y33858309D01*
X59397376Y33855200D01*
X59390931Y33850256D01*
X59390928Y33850253D01*
X59278380Y33763892D01*
X59278377Y33763890D01*
X59271935Y33758946D01*
X59266990Y33752503D01*
X59266987Y33752499D01*
X59252707Y33733890D01*
X59242015Y33721699D01*
X54326517Y28806201D01*
X54292638Y28782162D01*
X54252720Y28770662D01*
X54172719Y28761648D01*
X54172717Y28761648D01*
X54165798Y28760868D01*
X54159229Y28758570D01*
X54159227Y28758569D01*
X54002096Y28703587D01*
X54002089Y28703585D01*
X53995531Y28701289D01*
X53989643Y28697590D01*
X53989640Y28697588D01*
X53848691Y28609024D01*
X53848686Y28609021D01*
X53842791Y28605316D01*
X53837866Y28600392D01*
X53837862Y28600388D01*
X53720165Y28482691D01*
X53720161Y28482687D01*
X53715237Y28477762D01*
X53711532Y28471867D01*
X53711529Y28471862D01*
X53622965Y28330913D01*
X53622963Y28330910D01*
X53619264Y28325022D01*
X53616968Y28318464D01*
X53616966Y28318457D01*
X53561983Y28161325D01*
X53561981Y28161318D01*
X53559685Y28154755D01*
X53558905Y28147838D01*
X53558905Y28147835D01*
X53554079Y28105000D01*
X53539488Y27975500D01*
X17815500Y27975500D01*
X17815499Y29152872D01*
X17809091Y29212483D01*
X17758796Y29347331D01*
X17672546Y29462546D01*
X17557331Y29548796D01*
X17557331Y29548797D01*
X17559223Y29551325D01*
X17522656Y29587118D01*
X17506246Y29652422D01*
X17526386Y29716675D01*
X17635930Y29884345D01*
X17640792Y29893329D01*
X17736527Y30111586D01*
X17739846Y30121253D01*
X17798353Y30352288D01*
X17800037Y30362382D01*
X17819717Y30599883D01*
X17819717Y30610117D01*
X17800037Y30847619D01*
X17798353Y30857713D01*
X17739846Y31088748D01*
X17736527Y31098415D01*
X17640792Y31316670D01*
X17635924Y31325665D01*
X17546002Y31463301D01*
X17538034Y31471026D01*
X17528653Y31465102D01*
X16402680Y30339129D01*
X16347093Y30307035D01*
X16282905Y30307035D01*
X16227318Y30339129D01*
X15101345Y31465102D01*
X15091964Y31471026D01*
X15083997Y31463301D01*
X14994072Y31325662D01*
X14989207Y31316672D01*
X14893472Y31098415D01*
X14890153Y31088748D01*
X14831646Y30857713D01*
X14829962Y30847619D01*
X14810283Y30610117D01*
X14810283Y30599883D01*
X-184500Y30599883D01*
X-184500Y33105000D01*
X309357Y33105000D01*
X309781Y33099883D01*
X329467Y32862299D01*
X329468Y32862291D01*
X329892Y32857179D01*
X331149Y32852212D01*
X331151Y32852205D01*
X388546Y32625562D01*
X390937Y32616119D01*
X392997Y32611423D01*
X488766Y32393090D01*
X488769Y32393084D01*
X490827Y32388393D01*
X493627Y32384107D01*
X493631Y32384100D01*
X606809Y32210868D01*
X626836Y32180215D01*
X630310Y32176441D01*
X630311Y32176440D01*
X791784Y32001033D01*
X791787Y32001030D01*
X795256Y31997262D01*
X991491Y31844526D01*
X1210190Y31726172D01*
X1445386Y31645429D01*
X1690665Y31604500D01*
X1934201Y31604500D01*
X1939335Y31604500D01*
X2184614Y31645429D01*
X2419810Y31726172D01*
X2638509Y31844526D01*
X2834744Y31997262D01*
X3003164Y32180215D01*
X3139173Y32388393D01*
X3239063Y32616119D01*
X3300108Y32857179D01*
X3320643Y33105000D01*
X14809357Y33105000D01*
X14809781Y33099883D01*
X14829467Y32862299D01*
X14829468Y32862291D01*
X14829892Y32857179D01*
X14831149Y32852212D01*
X14831151Y32852205D01*
X14888546Y32625562D01*
X14890937Y32616119D01*
X14892997Y32611423D01*
X14988766Y32393090D01*
X14988769Y32393084D01*
X14990827Y32388393D01*
X14993627Y32384107D01*
X14993631Y32384100D01*
X15106809Y32210868D01*
X15126836Y32180215D01*
X15130310Y32176441D01*
X15130311Y32176440D01*
X15291784Y32001033D01*
X15295256Y31997262D01*
X15299302Y31994113D01*
X15299303Y31994112D01*
X15401070Y31914903D01*
X15437942Y31868034D01*
X15442462Y31843315D01*
X15457409Y31816144D01*
X16303457Y30970096D01*
X16315000Y30963432D01*
X16326542Y30970096D01*
X17172589Y31816143D01*
X17187535Y31843313D01*
X17192054Y31868029D01*
X17228925Y31914901D01*
X17334744Y31997262D01*
X17503164Y32180215D01*
X17639173Y32388393D01*
X17739063Y32616119D01*
X17800108Y32857179D01*
X17820643Y33105000D01*
X17800108Y33352821D01*
X17739063Y33593881D01*
X17639173Y33821607D01*
X17579726Y33912597D01*
X17505971Y34025488D01*
X17503164Y34029785D01*
X17449509Y34088070D01*
X17338215Y34208968D01*
X17338211Y34208971D01*
X17334744Y34212738D01*
X17138509Y34365474D01*
X17133997Y34367916D01*
X16924316Y34481390D01*
X16924310Y34481393D01*
X16919810Y34483828D01*
X16914969Y34485490D01*
X16914962Y34485493D01*
X16689465Y34562906D01*
X16689461Y34562907D01*
X16684614Y34564571D01*
X16675768Y34566048D01*
X16444398Y34604656D01*
X16444387Y34604657D01*
X16439335Y34605500D01*
X16190665Y34605500D01*
X16185613Y34604657D01*
X16185601Y34604656D01*
X15950443Y34565415D01*
X15950441Y34565415D01*
X15945386Y34564571D01*
X15940541Y34562908D01*
X15940534Y34562906D01*
X15715037Y34485493D01*
X15715026Y34485489D01*
X15710190Y34483828D01*
X15705693Y34481395D01*
X15705683Y34481390D01*
X15496002Y34367916D01*
X15495995Y34367912D01*
X15491491Y34365474D01*
X15487448Y34362328D01*
X15487440Y34362322D01*
X15299304Y34215889D01*
X15295256Y34212738D01*
X15291793Y34208977D01*
X15291784Y34208968D01*
X15130311Y34033561D01*
X15130305Y34033554D01*
X15126836Y34029785D01*
X15124031Y34025494D01*
X15124028Y34025488D01*
X14993631Y33825901D01*
X14993624Y33825889D01*
X14990827Y33821607D01*
X14988772Y33816923D01*
X14988766Y33816911D01*
X14892997Y33598578D01*
X14890937Y33593881D01*
X14889679Y33588916D01*
X14889678Y33588911D01*
X14831151Y33357796D01*
X14831149Y33357787D01*
X14829892Y33352821D01*
X14829468Y33347712D01*
X14829467Y33347702D01*
X14811649Y33132666D01*
X14809357Y33105000D01*
X3320643Y33105000D01*
X3300108Y33352821D01*
X3239063Y33593881D01*
X3139173Y33821607D01*
X3079726Y33912597D01*
X3005971Y34025488D01*
X3003164Y34029785D01*
X2949509Y34088070D01*
X2838215Y34208968D01*
X2838211Y34208971D01*
X2834744Y34212738D01*
X2638509Y34365474D01*
X2633997Y34367916D01*
X2424316Y34481390D01*
X2424310Y34481393D01*
X2419810Y34483828D01*
X2414969Y34485490D01*
X2414962Y34485493D01*
X2189465Y34562906D01*
X2189461Y34562907D01*
X2184614Y34564571D01*
X2175768Y34566048D01*
X1944398Y34604656D01*
X1944387Y34604657D01*
X1939335Y34605500D01*
X1690665Y34605500D01*
X1685613Y34604657D01*
X1685601Y34604656D01*
X1450443Y34565415D01*
X1450441Y34565415D01*
X1445386Y34564571D01*
X1440541Y34562908D01*
X1440534Y34562906D01*
X1215037Y34485493D01*
X1215026Y34485489D01*
X1210190Y34483828D01*
X1205693Y34481395D01*
X1205683Y34481390D01*
X996002Y34367916D01*
X995995Y34367912D01*
X991491Y34365474D01*
X987448Y34362328D01*
X987440Y34362322D01*
X799304Y34215889D01*
X795256Y34212738D01*
X791793Y34208977D01*
X791784Y34208968D01*
X630311Y34033561D01*
X630305Y34033554D01*
X626836Y34029785D01*
X624031Y34025494D01*
X624028Y34025488D01*
X493631Y33825901D01*
X493624Y33825889D01*
X490827Y33821607D01*
X488772Y33816923D01*
X488766Y33816911D01*
X392997Y33598578D01*
X390937Y33593881D01*
X389679Y33588916D01*
X389678Y33588911D01*
X331151Y33357796D01*
X331149Y33357787D01*
X329892Y33352821D01*
X329468Y33347712D01*
X329467Y33347702D01*
X311649Y33132666D01*
X309357Y33105000D01*
X-184500Y33105000D01*
X-184500Y34601755D01*
X-184330Y34608244D01*
X-177499Y34738579D01*
X-167372Y34918913D01*
X-166046Y34931306D01*
X-142487Y35080053D01*
X-142300Y35081191D01*
X-115261Y35240334D01*
X-112801Y35251598D01*
X-72850Y35400695D01*
X-72291Y35402707D01*
X-28649Y35554189D01*
X-25276Y35564247D01*
X30583Y35709767D01*
X31692Y35712548D01*
X91439Y35856788D01*
X95488Y35865571D01*
X166569Y36005075D01*
X168521Y36008750D01*
X243588Y36144574D01*
X248065Y36152038D01*
X333633Y36283801D01*
X336434Y36287923D01*
X426010Y36414168D01*
X430733Y36420397D01*
X529702Y36542614D01*
X533532Y36547115D01*
X636613Y36662463D01*
X641323Y36667444D01*
X752556Y36778677D01*
X757537Y36783387D01*
X872885Y36886468D01*
X877386Y36890298D01*
X999603Y36989267D01*
X1005832Y36993990D01*
X1132077Y37083566D01*
X1136199Y37086367D01*
X1267962Y37171935D01*
X1275426Y37176412D01*
X1411255Y37251483D01*
X1414934Y37253435D01*
X1420286Y37256162D01*
X1554429Y37324512D01*
X1563212Y37328561D01*
X1707452Y37388308D01*
X1710233Y37389417D01*
X1855753Y37445276D01*
X1865811Y37448649D01*
X2017293Y37492291D01*
X2019305Y37492850D01*
X2168402Y37532801D01*
X2179666Y37535261D01*
X2338809Y37562300D01*
X2339947Y37562487D01*
X2488694Y37586046D01*
X2501087Y37587372D01*
X2681554Y37597507D01*
X2811756Y37604331D01*
X2818245Y37604500D01*
X6651231Y37604500D01*
X6708706Y37590376D01*
X6753087Y37551220D01*
X6774264Y37495954D01*
X6767413Y37437167D01*
X6723620Y37319753D01*
X6723619Y37319750D01*
X6720909Y37312483D01*
X6720079Y37304773D01*
X6720079Y37304768D01*
X6714855Y37256181D01*
X6714854Y37256169D01*
X6714500Y37252873D01*
X6714500Y37249552D01*
X6714500Y37249551D01*
X6714500Y35160440D01*
X6714500Y35160422D01*
X6714501Y35157128D01*
X6714853Y35153850D01*
X6714854Y35153839D01*
X6720079Y35105232D01*
X6720080Y35105227D01*
X6720909Y35097517D01*
X6723619Y35090251D01*
X6723620Y35090247D01*
X6757217Y35000169D01*
X6771204Y34962669D01*
X6857454Y34847454D01*
X6972669Y34761204D01*
X7107517Y34710909D01*
X7167127Y34704500D01*
X10462872Y34704501D01*
X10522483Y34710909D01*
X10657331Y34761204D01*
X10772546Y34847454D01*
X10858796Y34962669D01*
X10909091Y35097517D01*
X10915500Y35157127D01*
X10915499Y37252872D01*
X10909091Y37312483D01*
X10862587Y37437167D01*
X10855736Y37495954D01*
X10876913Y37551220D01*
X10921294Y37590376D01*
X10978769Y37604500D01*
X47417892Y37604500D01*
X47422318Y37604500D01*
X47634769Y37635046D01*
X47840710Y37695516D01*
X48035950Y37784679D01*
X48216513Y37900719D01*
X48378724Y38041276D01*
X48490741Y38170550D01*
X49130000Y38170550D01*
X49130280Y38164661D01*
X49144403Y38016758D01*
X49146630Y38005207D01*
X49202487Y37814974D01*
X49206853Y37804068D01*
X49297704Y37627841D01*
X49304064Y37617945D01*
X49426617Y37462106D01*
X49434735Y37453592D01*
X49584572Y37323757D01*
X49594149Y37316938D01*
X49765846Y37217809D01*
X49776549Y37212921D01*
X49963904Y37148076D01*
X49969488Y37146721D01*
X49977681Y37147307D01*
X49980000Y37157964D01*
X49980000Y37162819D01*
X50480000Y37162819D01*
X50482505Y37151928D01*
X50493679Y37152061D01*
X50585670Y37174378D01*
X50596788Y37178226D01*
X50777121Y37260581D01*
X50787319Y37266469D01*
X50948806Y37381464D01*
X50957703Y37389173D01*
X51094517Y37532659D01*
X51101784Y37541900D01*
X51208971Y37708686D01*
X51214363Y37719144D01*
X51288049Y37903202D01*
X51291362Y37914485D01*
X51328882Y38109166D01*
X51330000Y38120866D01*
X51330000Y38170550D01*
X60280000Y38170550D01*
X60280280Y38164661D01*
X60294403Y38016758D01*
X60296630Y38005207D01*
X60352487Y37814974D01*
X60356853Y37804068D01*
X60447704Y37627841D01*
X60454064Y37617945D01*
X60576617Y37462106D01*
X60584735Y37453592D01*
X60734572Y37323757D01*
X60744149Y37316938D01*
X60915846Y37217809D01*
X60926549Y37212921D01*
X61113904Y37148076D01*
X61119488Y37146721D01*
X61127681Y37147307D01*
X61130000Y37157964D01*
X61130000Y37162819D01*
X61630000Y37162819D01*
X61632505Y37151928D01*
X61643679Y37152061D01*
X61735670Y37174378D01*
X61746788Y37178226D01*
X61927121Y37260581D01*
X61937319Y37266469D01*
X62098806Y37381464D01*
X62107703Y37389173D01*
X62244517Y37532659D01*
X62251784Y37541900D01*
X62358971Y37708686D01*
X62364363Y37719144D01*
X62438049Y37903202D01*
X62441362Y37914485D01*
X62478882Y38109166D01*
X62480000Y38120866D01*
X62480000Y38478674D01*
X62476549Y38491550D01*
X62463674Y38495000D01*
X61646326Y38495000D01*
X61633450Y38491550D01*
X61630000Y38478674D01*
X61630000Y37162819D01*
X61130000Y37162819D01*
X61130000Y38478674D01*
X61126549Y38491550D01*
X61113674Y38495000D01*
X60296326Y38495000D01*
X60283450Y38491550D01*
X60280000Y38478674D01*
X60280000Y38170550D01*
X51330000Y38170550D01*
X51330000Y38478674D01*
X51326549Y38491550D01*
X51313674Y38495000D01*
X50496326Y38495000D01*
X50483450Y38491550D01*
X50480000Y38478674D01*
X50480000Y37162819D01*
X49980000Y37162819D01*
X49980000Y38478674D01*
X49976549Y38491550D01*
X49963674Y38495000D01*
X49146326Y38495000D01*
X49133450Y38491550D01*
X49130000Y38478674D01*
X49130000Y38170550D01*
X48490741Y38170550D01*
X48519281Y38203487D01*
X48635321Y38384050D01*
X48724484Y38579290D01*
X48784954Y38785231D01*
X48815500Y38997682D01*
X48815500Y39011326D01*
X49130000Y39011326D01*
X49133450Y38998451D01*
X49146326Y38995000D01*
X49963674Y38995000D01*
X49976549Y38998451D01*
X49980000Y39011326D01*
X49980000Y40327181D01*
X49977494Y40338073D01*
X49966320Y40337940D01*
X49874329Y40315623D01*
X49863211Y40311775D01*
X49682878Y40229420D01*
X49672680Y40223532D01*
X49511193Y40108537D01*
X49502296Y40100828D01*
X49365482Y39957342D01*
X49358215Y39948101D01*
X49251028Y39781315D01*
X49245636Y39770857D01*
X49171950Y39586799D01*
X49168637Y39575516D01*
X49131117Y39380835D01*
X49130000Y39369134D01*
X49130000Y39011326D01*
X48815500Y39011326D01*
X48815500Y39105000D01*
X48815500Y39105500D01*
X48815500Y42770550D01*
X49150000Y42770550D01*
X49150280Y42764661D01*
X49164403Y42616758D01*
X49166630Y42605207D01*
X49222487Y42414974D01*
X49226853Y42404068D01*
X49317704Y42227841D01*
X49324064Y42217945D01*
X49446617Y42062106D01*
X49454735Y42053592D01*
X49604572Y41923757D01*
X49614149Y41916938D01*
X49785846Y41817809D01*
X49796549Y41812921D01*
X49983904Y41748076D01*
X49989488Y41746721D01*
X49997681Y41747307D01*
X50000000Y41757964D01*
X50000000Y43078674D01*
X49996549Y43091550D01*
X49983674Y43095000D01*
X49166326Y43095000D01*
X49153450Y43091550D01*
X49150000Y43078674D01*
X49150000Y42770550D01*
X48815500Y42770550D01*
X48815500Y43600574D01*
X48815816Y43609418D01*
X48815952Y43611326D01*
X48820490Y43674773D01*
X48831719Y43817445D01*
X48834170Y43834065D01*
X48853631Y43923529D01*
X48854181Y43925935D01*
X48880984Y44037576D01*
X48885365Y44051926D01*
X48919250Y44142774D01*
X48920798Y44146706D01*
X48943802Y44202244D01*
X48979602Y44250563D01*
X49033929Y44276356D01*
X49094003Y44273554D01*
G37*
%TD.AperFunction*%
%TD*%
M02*
