G04 #@! TF.GenerationSoftware,KiCad,Pcbnew,7.0.9*
G04 #@! TF.CreationDate,2023-12-24T20:12:45-08:00*
G04 #@! TF.ProjectId,4k-mania-keypad,346b2d6d-616e-4696-912d-6b6579706164,rev?*
G04 #@! TF.SameCoordinates,Original*
G04 #@! TF.FileFunction,Soldermask,Bot*
G04 #@! TF.FilePolarity,Negative*
%FSLAX46Y46*%
G04 Gerber Fmt 4.6, Leading zero omitted, Abs format (unit mm)*
G04 Created by KiCad (PCBNEW 7.0.9) date 2023-12-24 20:12:45*
%MOMM*%
%LPD*%
G01*
G04 APERTURE LIST*
G04 Aperture macros list*
%AMRoundRect*
0 Rectangle with rounded corners*
0 $1 Rounding radius*
0 $2 $3 $4 $5 $6 $7 $8 $9 X,Y pos of 4 corners*
0 Add a 4 corners polygon primitive as box body*
4,1,4,$2,$3,$4,$5,$6,$7,$8,$9,$2,$3,0*
0 Add four circle primitives for the rounded corners*
1,1,$1+$1,$2,$3*
1,1,$1+$1,$4,$5*
1,1,$1+$1,$6,$7*
1,1,$1+$1,$8,$9*
0 Add four rect primitives between the rounded corners*
20,1,$1+$1,$2,$3,$4,$5,0*
20,1,$1+$1,$4,$5,$6,$7,0*
20,1,$1+$1,$6,$7,$8,$9,0*
20,1,$1+$1,$8,$9,$2,$3,0*%
G04 Aperture macros list end*
%ADD10R,2.000000X2.000000*%
%ADD11C,2.000000*%
%ADD12R,3.200000X2.000000*%
%ADD13C,0.750000*%
%ADD14C,0.650000*%
%ADD15O,1.200000X2.250000*%
%ADD16RoundRect,0.147500X0.172500X-0.147500X0.172500X0.147500X-0.172500X0.147500X-0.172500X-0.147500X0*%
%ADD17C,1.750000*%
%ADD18C,3.987800*%
%ADD19C,3.300000*%
%ADD20RoundRect,0.250000X1.025000X1.000000X-1.025000X1.000000X-1.025000X-1.000000X1.025000X-1.000000X0*%
%ADD21RoundRect,0.150000X-0.275000X0.150000X-0.275000X-0.150000X0.275000X-0.150000X0.275000X0.150000X0*%
%ADD22RoundRect,0.175000X-0.225000X0.175000X-0.225000X-0.175000X0.225000X-0.175000X0.225000X0.175000X0*%
%ADD23RoundRect,0.150000X0.275000X-0.150000X0.275000X0.150000X-0.275000X0.150000X-0.275000X-0.150000X0*%
%ADD24RoundRect,0.175000X0.225000X-0.175000X0.225000X0.175000X-0.225000X0.175000X-0.225000X-0.175000X0*%
G04 APERTURE END LIST*
D10*
X111500000Y-89500000D03*
D11*
X111500000Y-84500000D03*
X111500000Y-87000000D03*
D12*
X104000000Y-92600000D03*
X104000000Y-81400000D03*
D11*
X97000000Y-84500000D03*
X97000000Y-89500000D03*
D13*
X112275000Y-97250000D03*
X113545000Y-97250000D03*
X114815000Y-97250000D03*
X116085000Y-97250000D03*
D10*
X190500000Y-84500000D03*
D11*
X190500000Y-89500000D03*
X190500000Y-87000000D03*
D12*
X198000000Y-81400000D03*
X198000000Y-92600000D03*
D11*
X205000000Y-89500000D03*
X205000000Y-84500000D03*
D14*
X154740000Y-78940000D03*
X147240000Y-78940000D03*
D15*
X156585000Y-74260000D03*
X156565000Y-78860000D03*
X145435000Y-74260000D03*
X145415000Y-78860000D03*
D13*
X184595000Y-97250000D03*
X185865000Y-97250000D03*
X187135000Y-97250000D03*
X188405000Y-97250000D03*
D16*
X97130000Y-111565000D03*
X97130000Y-110595000D03*
D17*
X182160000Y-108000000D03*
D18*
X177080000Y-108000000D03*
D17*
X172000000Y-108000000D03*
D19*
X173270000Y-105460000D03*
D20*
X169720000Y-105460000D03*
X183170000Y-102920000D03*
D19*
X179620000Y-102920000D03*
D21*
X128355000Y-111030000D03*
X128355000Y-112230000D03*
X128355000Y-113430000D03*
D22*
X132130000Y-109880000D03*
X132130000Y-114580000D03*
D16*
X188637740Y-111922662D03*
X188637740Y-110952662D03*
D17*
X201080000Y-108000000D03*
D18*
X196000000Y-108000000D03*
D17*
X190920000Y-108000000D03*
D19*
X192190000Y-105460000D03*
D20*
X188640000Y-105460000D03*
X202090000Y-102920000D03*
D19*
X198540000Y-102920000D03*
D17*
X128790000Y-108080000D03*
D18*
X123710000Y-108080000D03*
D17*
X118630000Y-108080000D03*
D19*
X119900000Y-105540000D03*
D20*
X116350000Y-105540000D03*
X129800000Y-103000000D03*
D19*
X126250000Y-103000000D03*
D23*
X172365000Y-113700000D03*
X172365000Y-112500000D03*
X172365000Y-111300000D03*
D24*
X168590000Y-114850000D03*
X168590000Y-110150000D03*
D16*
X169735091Y-108512324D03*
X169735091Y-107542324D03*
X116346938Y-111619648D03*
X116346938Y-110649648D03*
D17*
X109790000Y-108080000D03*
D18*
X104710000Y-108080000D03*
D17*
X99630000Y-108080000D03*
D19*
X100900000Y-105540000D03*
D20*
X97350000Y-105540000D03*
X110800000Y-103000000D03*
D19*
X107250000Y-103000000D03*
M02*
