G04 #@! TF.GenerationSoftware,KiCad,Pcbnew,7.0.9*
G04 #@! TF.CreationDate,2023-12-24T11:08:21-08:00*
G04 #@! TF.ProjectId,4k-mania-keypad,346b2d6d-616e-4696-912d-6b6579706164,rev?*
G04 #@! TF.SameCoordinates,PX5ac6868PY7028288*
G04 #@! TF.FileFunction,Paste,Top*
G04 #@! TF.FilePolarity,Positive*
%FSLAX46Y46*%
G04 Gerber Fmt 4.6, Leading zero omitted, Abs format (unit mm)*
G04 Created by KiCad (PCBNEW 7.0.9) date 2023-12-24 11:08:21*
%MOMM*%
%LPD*%
G01*
G04 APERTURE LIST*
G04 Aperture macros list*
%AMRoundRect*
0 Rectangle with rounded corners*
0 $1 Rounding radius*
0 $2 $3 $4 $5 $6 $7 $8 $9 X,Y pos of 4 corners*
0 Add a 4 corners polygon primitive as box body*
4,1,4,$2,$3,$4,$5,$6,$7,$8,$9,$2,$3,0*
0 Add four circle primitives for the rounded corners*
1,1,$1+$1,$2,$3*
1,1,$1+$1,$4,$5*
1,1,$1+$1,$6,$7*
1,1,$1+$1,$8,$9*
0 Add four rect primitives between the rounded corners*
20,1,$1+$1,$2,$3,$4,$5,0*
20,1,$1+$1,$4,$5,$6,$7,0*
20,1,$1+$1,$6,$7,$8,$9,0*
20,1,$1+$1,$8,$9,$2,$3,0*%
G04 Aperture macros list end*
%ADD10RoundRect,0.135000X-0.185000X0.135000X-0.185000X-0.135000X0.185000X-0.135000X0.185000X0.135000X0*%
%ADD11RoundRect,0.150000X-0.150000X-0.275000X0.150000X-0.275000X0.150000X0.275000X-0.150000X0.275000X0*%
%ADD12RoundRect,0.175000X-0.175000X-0.225000X0.175000X-0.225000X0.175000X0.225000X-0.175000X0.225000X0*%
%ADD13RoundRect,0.135000X0.185000X-0.135000X0.185000X0.135000X-0.185000X0.135000X-0.185000X-0.135000X0*%
%ADD14RoundRect,0.140000X0.170000X-0.140000X0.170000X0.140000X-0.170000X0.140000X-0.170000X-0.140000X0*%
%ADD15RoundRect,0.140000X0.140000X0.170000X-0.140000X0.170000X-0.140000X-0.170000X0.140000X-0.170000X0*%
%ADD16RoundRect,0.140000X-0.170000X0.140000X-0.170000X-0.140000X0.170000X-0.140000X0.170000X0.140000X0*%
%ADD17RoundRect,0.140000X-0.140000X-0.170000X0.140000X-0.170000X0.140000X0.170000X-0.140000X0.170000X0*%
%ADD18RoundRect,0.250000X0.292217X-0.292217X0.292217X0.292217X-0.292217X0.292217X-0.292217X-0.292217X0*%
%ADD19RoundRect,0.050000X0.050000X-0.387500X0.050000X0.387500X-0.050000X0.387500X-0.050000X-0.387500X0*%
%ADD20RoundRect,0.050000X0.387500X-0.050000X0.387500X0.050000X-0.387500X0.050000X-0.387500X-0.050000X0*%
%ADD21RoundRect,0.150000X0.475000X0.150000X-0.475000X0.150000X-0.475000X-0.150000X0.475000X-0.150000X0*%
%ADD22RoundRect,0.147500X0.147500X0.172500X-0.147500X0.172500X-0.147500X-0.172500X0.147500X-0.172500X0*%
%ADD23RoundRect,0.150000X0.150000X-0.650000X0.150000X0.650000X-0.150000X0.650000X-0.150000X-0.650000X0*%
%ADD24R,1.800000X1.100000*%
%ADD25RoundRect,0.150000X-0.512500X-0.150000X0.512500X-0.150000X0.512500X0.150000X-0.512500X0.150000X0*%
%ADD26R,0.540000X1.100000*%
%ADD27R,0.300000X1.100000*%
%ADD28RoundRect,0.135000X0.135000X0.185000X-0.135000X0.185000X-0.135000X-0.185000X0.135000X-0.185000X0*%
%ADD29RoundRect,0.147500X-0.147500X-0.172500X0.147500X-0.172500X0.147500X0.172500X-0.147500X0.172500X0*%
%ADD30RoundRect,0.250000X-0.625000X0.375000X-0.625000X-0.375000X0.625000X-0.375000X0.625000X0.375000X0*%
%ADD31R,1.400000X1.200000*%
G04 APERTURE END LIST*
D10*
X72825000Y36115000D03*
X72825000Y35095000D03*
D11*
X59815000Y24880000D03*
X61015000Y24880000D03*
X62215000Y24880000D03*
D12*
X58665000Y21105000D03*
X63365000Y21105000D03*
D13*
X59015000Y34495000D03*
X59015000Y35515000D03*
D14*
X83539949Y35592638D03*
X83539949Y36552638D03*
X79815000Y35605000D03*
X79815000Y36565000D03*
D15*
X77245000Y34105000D03*
X76285000Y34105000D03*
D16*
X85318016Y24717345D03*
X85318016Y23757345D03*
D14*
X56315000Y28625000D03*
X56315000Y29585000D03*
X89009884Y28817420D03*
X89009884Y29777420D03*
D17*
X87635000Y32605000D03*
X88595000Y32605000D03*
D18*
X81902500Y30242500D03*
X83177500Y30242500D03*
X81902500Y31517500D03*
X83177500Y31517500D03*
D19*
X79940000Y27442500D03*
X80340000Y27442500D03*
X80740000Y27442500D03*
X81140000Y27442500D03*
X81540000Y27442500D03*
X81940000Y27442500D03*
X82340000Y27442500D03*
X82740000Y27442500D03*
X83140000Y27442500D03*
X83540000Y27442500D03*
X83940000Y27442500D03*
X84340000Y27442500D03*
X84740000Y27442500D03*
X85140000Y27442500D03*
D20*
X85977500Y28280000D03*
X85977500Y28680000D03*
X85977500Y29080000D03*
X85977500Y29480000D03*
X85977500Y29880000D03*
X85977500Y30280000D03*
X85977500Y30680000D03*
X85977500Y31080000D03*
X85977500Y31480000D03*
X85977500Y31880000D03*
X85977500Y32280000D03*
X85977500Y32680000D03*
X85977500Y33080000D03*
X85977500Y33480000D03*
D19*
X85140000Y34317500D03*
X84740000Y34317500D03*
X84340000Y34317500D03*
X83940000Y34317500D03*
X83540000Y34317500D03*
X83140000Y34317500D03*
X82740000Y34317500D03*
X82340000Y34317500D03*
X81940000Y34317500D03*
X81540000Y34317500D03*
X81140000Y34317500D03*
X80740000Y34317500D03*
X80340000Y34317500D03*
X79940000Y34317500D03*
D20*
X79102500Y33480000D03*
X79102500Y33080000D03*
X79102500Y32680000D03*
X79102500Y32280000D03*
X79102500Y31880000D03*
X79102500Y31480000D03*
X79102500Y31080000D03*
X79102500Y30680000D03*
X79102500Y30280000D03*
X79102500Y29880000D03*
X79102500Y29480000D03*
X79102500Y29080000D03*
X79102500Y28680000D03*
X79102500Y28280000D03*
D14*
X62182214Y29592557D03*
X62182214Y30552557D03*
D21*
X57502048Y32731164D03*
X57502048Y33681164D03*
X57502048Y34631164D03*
X55152048Y34631164D03*
X55152048Y33681164D03*
X55152048Y32731164D03*
D15*
X75666995Y31249232D03*
X74706995Y31249232D03*
D22*
X4300000Y22605000D03*
X3330000Y22605000D03*
D23*
X66265000Y26905000D03*
X67535000Y26905000D03*
X68805000Y26905000D03*
X70075000Y26905000D03*
X70075000Y34105000D03*
X68805000Y34105000D03*
X67535000Y34105000D03*
X66265000Y34105000D03*
D24*
X48915000Y28155000D03*
X42715000Y31855000D03*
X48915000Y31855000D03*
X42715000Y28155000D03*
D25*
X57740000Y30555000D03*
X57740000Y28655000D03*
X60015000Y29605000D03*
D17*
X92135000Y32605000D03*
X93095000Y32605000D03*
D26*
X59005000Y37465000D03*
X58255000Y37465000D03*
D27*
X57055000Y37465000D03*
X56055000Y37465000D03*
X55555000Y37465000D03*
X54555000Y37465000D03*
D26*
X53355000Y37465000D03*
X52605000Y37465000D03*
X52605000Y37465000D03*
X53355000Y37465000D03*
D27*
X54055000Y37465000D03*
X55055000Y37465000D03*
X56555000Y37465000D03*
X57555000Y37465000D03*
D26*
X58255000Y37465000D03*
X59005000Y37465000D03*
D16*
X64815000Y31085000D03*
X64815000Y30125000D03*
D28*
X91125000Y32605000D03*
X90105000Y32605000D03*
D29*
X108830000Y22105000D03*
X109800000Y22105000D03*
D15*
X77245000Y33105000D03*
X76285000Y33105000D03*
X79406623Y26146343D03*
X78446623Y26146343D03*
D30*
X61315000Y36505000D03*
X61315000Y33705000D03*
D17*
X87655000Y31605000D03*
X88615000Y31605000D03*
D31*
X92715000Y30955000D03*
X90515000Y30955000D03*
X90515000Y29255000D03*
X92715000Y29255000D03*
D11*
X49815000Y24880000D03*
X51015000Y24880000D03*
X52215000Y24880000D03*
D12*
X48665000Y21105000D03*
X53365000Y21105000D03*
D10*
X52538082Y28992019D03*
X52538082Y27972019D03*
D15*
X75666995Y30249232D03*
X74706995Y30249232D03*
D10*
X53715000Y36215000D03*
X53715000Y35195000D03*
X73815000Y36115000D03*
X73815000Y35095000D03*
M02*
