G04 #@! TF.GenerationSoftware,KiCad,Pcbnew,7.0.9*
G04 #@! TF.CreationDate,2023-12-24T11:08:21-08:00*
G04 #@! TF.ProjectId,4k-mania-keypad,346b2d6d-616e-4696-912d-6b6579706164,rev?*
G04 #@! TF.SameCoordinates,PX5ac6868PY7028288*
G04 #@! TF.FileFunction,Legend,Bot*
G04 #@! TF.FilePolarity,Positive*
%FSLAX46Y46*%
G04 Gerber Fmt 4.6, Leading zero omitted, Abs format (unit mm)*
G04 Created by KiCad (PCBNEW 7.0.9) date 2023-12-24 11:08:21*
%MOMM*%
%LPD*%
G01*
G04 APERTURE LIST*
G04 Aperture macros list*
%AMRoundRect*
0 Rectangle with rounded corners*
0 $1 Rounding radius*
0 $2 $3 $4 $5 $6 $7 $8 $9 X,Y pos of 4 corners*
0 Add a 4 corners polygon primitive as box body*
4,1,4,$2,$3,$4,$5,$6,$7,$8,$9,$2,$3,0*
0 Add four circle primitives for the rounded corners*
1,1,$1+$1,$2,$3*
1,1,$1+$1,$4,$5*
1,1,$1+$1,$6,$7*
1,1,$1+$1,$8,$9*
0 Add four rect primitives between the rounded corners*
20,1,$1+$1,$2,$3,$4,$5,0*
20,1,$1+$1,$4,$5,$6,$7,0*
20,1,$1+$1,$6,$7,$8,$9,0*
20,1,$1+$1,$8,$9,$2,$3,0*%
G04 Aperture macros list end*
%ADD10C,0.150000*%
%ADD11C,0.100000*%
%ADD12C,0.120000*%
%ADD13R,2.000000X2.000000*%
%ADD14C,2.000000*%
%ADD15R,3.200000X2.000000*%
%ADD16C,0.750000*%
%ADD17C,0.650000*%
%ADD18O,1.200000X2.250000*%
%ADD19RoundRect,0.147500X0.172500X-0.147500X0.172500X0.147500X-0.172500X0.147500X-0.172500X-0.147500X0*%
%ADD20C,1.750000*%
%ADD21C,3.987800*%
%ADD22C,3.300000*%
%ADD23RoundRect,0.250000X1.025000X1.000000X-1.025000X1.000000X-1.025000X-1.000000X1.025000X-1.000000X0*%
%ADD24RoundRect,0.150000X-0.275000X0.150000X-0.275000X-0.150000X0.275000X-0.150000X0.275000X0.150000X0*%
%ADD25RoundRect,0.175000X-0.225000X0.175000X-0.225000X-0.175000X0.225000X-0.175000X0.225000X0.175000X0*%
%ADD26RoundRect,0.150000X0.275000X-0.150000X0.275000X0.150000X-0.275000X0.150000X-0.275000X-0.150000X0*%
%ADD27RoundRect,0.175000X0.225000X-0.175000X0.225000X0.175000X-0.225000X0.175000X-0.225000X-0.175000X0*%
G04 APERTURE END LIST*
D10*
X3569819Y7263095D02*
X2569819Y7263095D01*
X2569819Y7263095D02*
X2569819Y7025000D01*
X2569819Y7025000D02*
X2617438Y6882143D01*
X2617438Y6882143D02*
X2712676Y6786905D01*
X2712676Y6786905D02*
X2807914Y6739286D01*
X2807914Y6739286D02*
X2998390Y6691667D01*
X2998390Y6691667D02*
X3141247Y6691667D01*
X3141247Y6691667D02*
X3331723Y6739286D01*
X3331723Y6739286D02*
X3426961Y6786905D01*
X3426961Y6786905D02*
X3522200Y6882143D01*
X3522200Y6882143D02*
X3569819Y7025000D01*
X3569819Y7025000D02*
X3569819Y7263095D01*
X2569819Y6358333D02*
X2569819Y5739286D01*
X2569819Y5739286D02*
X2950771Y6072619D01*
X2950771Y6072619D02*
X2950771Y5929762D01*
X2950771Y5929762D02*
X2998390Y5834524D01*
X2998390Y5834524D02*
X3046009Y5786905D01*
X3046009Y5786905D02*
X3141247Y5739286D01*
X3141247Y5739286D02*
X3379342Y5739286D01*
X3379342Y5739286D02*
X3474580Y5786905D01*
X3474580Y5786905D02*
X3522200Y5834524D01*
X3522200Y5834524D02*
X3569819Y5929762D01*
X3569819Y5929762D02*
X3569819Y6215476D01*
X3569819Y6215476D02*
X3522200Y6310714D01*
X3522200Y6310714D02*
X3474580Y6358333D01*
X87478332Y10947800D02*
X87335475Y10900181D01*
X87335475Y10900181D02*
X87097380Y10900181D01*
X87097380Y10900181D02*
X87002142Y10947800D01*
X87002142Y10947800D02*
X86954523Y10995420D01*
X86954523Y10995420D02*
X86906904Y11090658D01*
X86906904Y11090658D02*
X86906904Y11185896D01*
X86906904Y11185896D02*
X86954523Y11281134D01*
X86954523Y11281134D02*
X87002142Y11328753D01*
X87002142Y11328753D02*
X87097380Y11376372D01*
X87097380Y11376372D02*
X87287856Y11423991D01*
X87287856Y11423991D02*
X87383094Y11471610D01*
X87383094Y11471610D02*
X87430713Y11519229D01*
X87430713Y11519229D02*
X87478332Y11614467D01*
X87478332Y11614467D02*
X87478332Y11709705D01*
X87478332Y11709705D02*
X87430713Y11804943D01*
X87430713Y11804943D02*
X87383094Y11852562D01*
X87383094Y11852562D02*
X87287856Y11900181D01*
X87287856Y11900181D02*
X87049761Y11900181D01*
X87049761Y11900181D02*
X86906904Y11852562D01*
X86573570Y11900181D02*
X86335475Y10900181D01*
X86335475Y10900181D02*
X86144999Y11614467D01*
X86144999Y11614467D02*
X85954523Y10900181D01*
X85954523Y10900181D02*
X85716428Y11900181D01*
X84859285Y11900181D02*
X85335475Y11900181D01*
X85335475Y11900181D02*
X85383094Y11423991D01*
X85383094Y11423991D02*
X85335475Y11471610D01*
X85335475Y11471610D02*
X85240237Y11519229D01*
X85240237Y11519229D02*
X85002142Y11519229D01*
X85002142Y11519229D02*
X84906904Y11471610D01*
X84906904Y11471610D02*
X84859285Y11423991D01*
X84859285Y11423991D02*
X84811666Y11328753D01*
X84811666Y11328753D02*
X84811666Y11090658D01*
X84811666Y11090658D02*
X84859285Y10995420D01*
X84859285Y10995420D02*
X84906904Y10947800D01*
X84906904Y10947800D02*
X85002142Y10900181D01*
X85002142Y10900181D02*
X85240237Y10900181D01*
X85240237Y10900181D02*
X85335475Y10947800D01*
X85335475Y10947800D02*
X85383094Y10995420D01*
X30999819Y5708334D02*
X31714104Y5708334D01*
X31714104Y5708334D02*
X31856961Y5755953D01*
X31856961Y5755953D02*
X31952200Y5851191D01*
X31952200Y5851191D02*
X31999819Y5994048D01*
X31999819Y5994048D02*
X31999819Y6089286D01*
X31333152Y4803572D02*
X31999819Y4803572D01*
X30952200Y5041667D02*
X31666485Y5279762D01*
X31666485Y5279762D02*
X31666485Y4660715D01*
X95077559Y6905433D02*
X94077559Y6905433D01*
X94077559Y6905433D02*
X94077559Y6667338D01*
X94077559Y6667338D02*
X94125178Y6524481D01*
X94125178Y6524481D02*
X94220416Y6429243D01*
X94220416Y6429243D02*
X94315654Y6381624D01*
X94315654Y6381624D02*
X94506130Y6334005D01*
X94506130Y6334005D02*
X94648987Y6334005D01*
X94648987Y6334005D02*
X94839463Y6381624D01*
X94839463Y6381624D02*
X94934701Y6429243D01*
X94934701Y6429243D02*
X95029940Y6524481D01*
X95029940Y6524481D02*
X95077559Y6667338D01*
X95077559Y6667338D02*
X95077559Y6905433D01*
X94077559Y5476862D02*
X94077559Y5667338D01*
X94077559Y5667338D02*
X94125178Y5762576D01*
X94125178Y5762576D02*
X94172797Y5810195D01*
X94172797Y5810195D02*
X94315654Y5905433D01*
X94315654Y5905433D02*
X94506130Y5953052D01*
X94506130Y5953052D02*
X94887082Y5953052D01*
X94887082Y5953052D02*
X94982320Y5905433D01*
X94982320Y5905433D02*
X95029940Y5857814D01*
X95029940Y5857814D02*
X95077559Y5762576D01*
X95077559Y5762576D02*
X95077559Y5572100D01*
X95077559Y5572100D02*
X95029940Y5476862D01*
X95029940Y5476862D02*
X94982320Y5429243D01*
X94982320Y5429243D02*
X94887082Y5381624D01*
X94887082Y5381624D02*
X94648987Y5381624D01*
X94648987Y5381624D02*
X94553749Y5429243D01*
X94553749Y5429243D02*
X94506130Y5476862D01*
X94506130Y5476862D02*
X94458511Y5572100D01*
X94458511Y5572100D02*
X94458511Y5762576D01*
X94458511Y5762576D02*
X94506130Y5857814D01*
X94506130Y5857814D02*
X94553749Y5905433D01*
X94553749Y5905433D02*
X94648987Y5953052D01*
X106398332Y10947800D02*
X106255475Y10900181D01*
X106255475Y10900181D02*
X106017380Y10900181D01*
X106017380Y10900181D02*
X105922142Y10947800D01*
X105922142Y10947800D02*
X105874523Y10995420D01*
X105874523Y10995420D02*
X105826904Y11090658D01*
X105826904Y11090658D02*
X105826904Y11185896D01*
X105826904Y11185896D02*
X105874523Y11281134D01*
X105874523Y11281134D02*
X105922142Y11328753D01*
X105922142Y11328753D02*
X106017380Y11376372D01*
X106017380Y11376372D02*
X106207856Y11423991D01*
X106207856Y11423991D02*
X106303094Y11471610D01*
X106303094Y11471610D02*
X106350713Y11519229D01*
X106350713Y11519229D02*
X106398332Y11614467D01*
X106398332Y11614467D02*
X106398332Y11709705D01*
X106398332Y11709705D02*
X106350713Y11804943D01*
X106350713Y11804943D02*
X106303094Y11852562D01*
X106303094Y11852562D02*
X106207856Y11900181D01*
X106207856Y11900181D02*
X105969761Y11900181D01*
X105969761Y11900181D02*
X105826904Y11852562D01*
X105493570Y11900181D02*
X105255475Y10900181D01*
X105255475Y10900181D02*
X105064999Y11614467D01*
X105064999Y11614467D02*
X104874523Y10900181D01*
X104874523Y10900181D02*
X104636428Y11900181D01*
X103826904Y11900181D02*
X104017380Y11900181D01*
X104017380Y11900181D02*
X104112618Y11852562D01*
X104112618Y11852562D02*
X104160237Y11804943D01*
X104160237Y11804943D02*
X104255475Y11662086D01*
X104255475Y11662086D02*
X104303094Y11471610D01*
X104303094Y11471610D02*
X104303094Y11090658D01*
X104303094Y11090658D02*
X104255475Y10995420D01*
X104255475Y10995420D02*
X104207856Y10947800D01*
X104207856Y10947800D02*
X104112618Y10900181D01*
X104112618Y10900181D02*
X103922142Y10900181D01*
X103922142Y10900181D02*
X103826904Y10947800D01*
X103826904Y10947800D02*
X103779285Y10995420D01*
X103779285Y10995420D02*
X103731666Y11090658D01*
X103731666Y11090658D02*
X103731666Y11328753D01*
X103731666Y11328753D02*
X103779285Y11423991D01*
X103779285Y11423991D02*
X103826904Y11471610D01*
X103826904Y11471610D02*
X103922142Y11519229D01*
X103922142Y11519229D02*
X104112618Y11519229D01*
X104112618Y11519229D02*
X104207856Y11471610D01*
X104207856Y11471610D02*
X104255475Y11423991D01*
X104255475Y11423991D02*
X104303094Y11328753D01*
X34108332Y10867800D02*
X33965475Y10820181D01*
X33965475Y10820181D02*
X33727380Y10820181D01*
X33727380Y10820181D02*
X33632142Y10867800D01*
X33632142Y10867800D02*
X33584523Y10915420D01*
X33584523Y10915420D02*
X33536904Y11010658D01*
X33536904Y11010658D02*
X33536904Y11105896D01*
X33536904Y11105896D02*
X33584523Y11201134D01*
X33584523Y11201134D02*
X33632142Y11248753D01*
X33632142Y11248753D02*
X33727380Y11296372D01*
X33727380Y11296372D02*
X33917856Y11343991D01*
X33917856Y11343991D02*
X34013094Y11391610D01*
X34013094Y11391610D02*
X34060713Y11439229D01*
X34060713Y11439229D02*
X34108332Y11534467D01*
X34108332Y11534467D02*
X34108332Y11629705D01*
X34108332Y11629705D02*
X34060713Y11724943D01*
X34060713Y11724943D02*
X34013094Y11772562D01*
X34013094Y11772562D02*
X33917856Y11820181D01*
X33917856Y11820181D02*
X33679761Y11820181D01*
X33679761Y11820181D02*
X33536904Y11772562D01*
X33203570Y11820181D02*
X32965475Y10820181D01*
X32965475Y10820181D02*
X32774999Y11534467D01*
X32774999Y11534467D02*
X32584523Y10820181D01*
X32584523Y10820181D02*
X32346428Y11820181D01*
X31536904Y11486848D02*
X31536904Y10820181D01*
X31774999Y11867800D02*
X32013094Y11153515D01*
X32013094Y11153515D02*
X31394047Y11153515D01*
X78259819Y5438334D02*
X78974104Y5438334D01*
X78974104Y5438334D02*
X79116961Y5485953D01*
X79116961Y5485953D02*
X79212200Y5581191D01*
X79212200Y5581191D02*
X79259819Y5724048D01*
X79259819Y5724048D02*
X79259819Y5819286D01*
X78259819Y4485953D02*
X78259819Y4962143D01*
X78259819Y4962143D02*
X78736009Y5009762D01*
X78736009Y5009762D02*
X78688390Y4962143D01*
X78688390Y4962143D02*
X78640771Y4866905D01*
X78640771Y4866905D02*
X78640771Y4628810D01*
X78640771Y4628810D02*
X78688390Y4533572D01*
X78688390Y4533572D02*
X78736009Y4485953D01*
X78736009Y4485953D02*
X78831247Y4438334D01*
X78831247Y4438334D02*
X79069342Y4438334D01*
X79069342Y4438334D02*
X79164580Y4485953D01*
X79164580Y4485953D02*
X79212200Y4533572D01*
X79212200Y4533572D02*
X79259819Y4628810D01*
X79259819Y4628810D02*
X79259819Y4866905D01*
X79259819Y4866905D02*
X79212200Y4962143D01*
X79212200Y4962143D02*
X79164580Y5009762D01*
X74039116Y10292430D02*
X73039116Y10292430D01*
X73039116Y10292430D02*
X73039116Y10054335D01*
X73039116Y10054335D02*
X73086735Y9911478D01*
X73086735Y9911478D02*
X73181973Y9816240D01*
X73181973Y9816240D02*
X73277211Y9768621D01*
X73277211Y9768621D02*
X73467687Y9721002D01*
X73467687Y9721002D02*
X73610544Y9721002D01*
X73610544Y9721002D02*
X73801020Y9768621D01*
X73801020Y9768621D02*
X73896258Y9816240D01*
X73896258Y9816240D02*
X73991497Y9911478D01*
X73991497Y9911478D02*
X74039116Y10054335D01*
X74039116Y10054335D02*
X74039116Y10292430D01*
X73039116Y8816240D02*
X73039116Y9292430D01*
X73039116Y9292430D02*
X73515306Y9340049D01*
X73515306Y9340049D02*
X73467687Y9292430D01*
X73467687Y9292430D02*
X73420068Y9197192D01*
X73420068Y9197192D02*
X73420068Y8959097D01*
X73420068Y8959097D02*
X73467687Y8863859D01*
X73467687Y8863859D02*
X73515306Y8816240D01*
X73515306Y8816240D02*
X73610544Y8768621D01*
X73610544Y8768621D02*
X73848639Y8768621D01*
X73848639Y8768621D02*
X73943877Y8816240D01*
X73943877Y8816240D02*
X73991497Y8863859D01*
X73991497Y8863859D02*
X74039116Y8959097D01*
X74039116Y8959097D02*
X74039116Y9197192D01*
X74039116Y9197192D02*
X73991497Y9292430D01*
X73991497Y9292430D02*
X73943877Y9340049D01*
X22786757Y7208447D02*
X21786757Y7208447D01*
X21786757Y7208447D02*
X21786757Y6970352D01*
X21786757Y6970352D02*
X21834376Y6827495D01*
X21834376Y6827495D02*
X21929614Y6732257D01*
X21929614Y6732257D02*
X22024852Y6684638D01*
X22024852Y6684638D02*
X22215328Y6637019D01*
X22215328Y6637019D02*
X22358185Y6637019D01*
X22358185Y6637019D02*
X22548661Y6684638D01*
X22548661Y6684638D02*
X22643899Y6732257D01*
X22643899Y6732257D02*
X22739138Y6827495D01*
X22739138Y6827495D02*
X22786757Y6970352D01*
X22786757Y6970352D02*
X22786757Y7208447D01*
X22120090Y5779876D02*
X22786757Y5779876D01*
X21739138Y6017971D02*
X22453423Y6256066D01*
X22453423Y6256066D02*
X22453423Y5637019D01*
X15108332Y10867800D02*
X14965475Y10820181D01*
X14965475Y10820181D02*
X14727380Y10820181D01*
X14727380Y10820181D02*
X14632142Y10867800D01*
X14632142Y10867800D02*
X14584523Y10915420D01*
X14584523Y10915420D02*
X14536904Y11010658D01*
X14536904Y11010658D02*
X14536904Y11105896D01*
X14536904Y11105896D02*
X14584523Y11201134D01*
X14584523Y11201134D02*
X14632142Y11248753D01*
X14632142Y11248753D02*
X14727380Y11296372D01*
X14727380Y11296372D02*
X14917856Y11343991D01*
X14917856Y11343991D02*
X15013094Y11391610D01*
X15013094Y11391610D02*
X15060713Y11439229D01*
X15060713Y11439229D02*
X15108332Y11534467D01*
X15108332Y11534467D02*
X15108332Y11629705D01*
X15108332Y11629705D02*
X15060713Y11724943D01*
X15060713Y11724943D02*
X15013094Y11772562D01*
X15013094Y11772562D02*
X14917856Y11820181D01*
X14917856Y11820181D02*
X14679761Y11820181D01*
X14679761Y11820181D02*
X14536904Y11772562D01*
X14203570Y11820181D02*
X13965475Y10820181D01*
X13965475Y10820181D02*
X13774999Y11534467D01*
X13774999Y11534467D02*
X13584523Y10820181D01*
X13584523Y10820181D02*
X13346428Y11820181D01*
X13060713Y11820181D02*
X12441666Y11820181D01*
X12441666Y11820181D02*
X12774999Y11439229D01*
X12774999Y11439229D02*
X12632142Y11439229D01*
X12632142Y11439229D02*
X12536904Y11391610D01*
X12536904Y11391610D02*
X12489285Y11343991D01*
X12489285Y11343991D02*
X12441666Y11248753D01*
X12441666Y11248753D02*
X12441666Y11010658D01*
X12441666Y11010658D02*
X12489285Y10915420D01*
X12489285Y10915420D02*
X12536904Y10867800D01*
X12536904Y10867800D02*
X12632142Y10820181D01*
X12632142Y10820181D02*
X12917856Y10820181D01*
X12917856Y10820181D02*
X13013094Y10867800D01*
X13013094Y10867800D02*
X13060713Y10915420D01*
D11*
X1995000Y5435000D02*
G75*
G03*
X1995000Y5435000I-50000J0D01*
G01*
D10*
X86759824Y13275220D02*
X86759824Y12805220D01*
X86759824Y16355220D02*
X86759824Y16125220D01*
X86259824Y12305220D02*
X81695000Y12305220D01*
X85209824Y16355220D02*
X86759824Y16355220D01*
X77809824Y16355220D02*
X83709824Y16355220D01*
X75809824Y10705220D02*
X75809824Y10465220D01*
X75809824Y13555220D02*
X75809824Y14355220D01*
X86259824Y12305220D02*
G75*
G03*
X86759824Y12805220I-1J500001D01*
G01*
X81695000Y12305219D02*
G75*
G03*
X79400679Y10465220I-866J-2349331D01*
G01*
X77809824Y16355220D02*
G75*
G03*
X75809824Y14355220I-15J-1999985D01*
G01*
D12*
X36285000Y8185000D02*
X32955000Y8185000D01*
X32955000Y8185000D02*
X32955000Y7135000D01*
X32955000Y7135000D02*
X32745000Y7135000D01*
X37675000Y7115000D02*
X37675000Y6615000D01*
X31891447Y6825000D02*
X32245000Y6575000D01*
X37675000Y6615000D02*
X37175000Y6315000D01*
X32245000Y6575000D02*
X31891447Y6325000D01*
X31891447Y6325000D02*
X31891447Y6825000D01*
X37175000Y6315000D02*
X37175000Y4435000D01*
X37175000Y4435000D02*
X37675000Y4135000D01*
X37675000Y4135000D02*
X37675000Y3635000D01*
X36285000Y2565000D02*
X32955000Y2565000D01*
X32955000Y2565000D02*
X32955000Y3615000D01*
D11*
X93502740Y5077338D02*
G75*
G03*
X93502740Y5077338I-50000J0D01*
G01*
D10*
X105679824Y13275220D02*
X105679824Y12805220D01*
X105679824Y16355220D02*
X105679824Y16125220D01*
X105179824Y12305220D02*
X100615000Y12305220D01*
X104129824Y16355220D02*
X105679824Y16355220D01*
X96729824Y16355220D02*
X102629824Y16355220D01*
X94729824Y10705220D02*
X94729824Y10465220D01*
X94729824Y13555220D02*
X94729824Y14355220D01*
X105179824Y12305220D02*
G75*
G03*
X105679824Y12805220I-1J500001D01*
G01*
X100615000Y12305219D02*
G75*
G03*
X98320679Y10465220I-866J-2349331D01*
G01*
X96729824Y16355220D02*
G75*
G03*
X94729824Y14355220I-15J-1999985D01*
G01*
X33389824Y13195220D02*
X33389824Y12725220D01*
X33389824Y16275220D02*
X33389824Y16045220D01*
X32889824Y12225220D02*
X28325000Y12225220D01*
X31839824Y16275220D02*
X33389824Y16275220D01*
X24439824Y16275220D02*
X30339824Y16275220D01*
X22439824Y10625220D02*
X22439824Y10385220D01*
X22439824Y13475220D02*
X22439824Y14275220D01*
X32889824Y12225220D02*
G75*
G03*
X33389824Y12725220I-1J500001D01*
G01*
X28325000Y12225219D02*
G75*
G03*
X26030679Y10385220I-866J-2349331D01*
G01*
X24439824Y16275220D02*
G75*
G03*
X22439824Y14275220I-15J-1999985D01*
G01*
D12*
X74065000Y2295000D02*
X77395000Y2295000D01*
X77395000Y2295000D02*
X77395000Y3345000D01*
X77395000Y3345000D02*
X77605000Y3345000D01*
X72675000Y3365000D02*
X72675000Y3865000D01*
X78458553Y3655000D02*
X78105000Y3905000D01*
X72675000Y3865000D02*
X73175000Y4165000D01*
X78105000Y3905000D02*
X78458553Y4155000D01*
X78458553Y4155000D02*
X78458553Y3655000D01*
X73175000Y4165000D02*
X73175000Y6045000D01*
X73175000Y6045000D02*
X72675000Y6345000D01*
X72675000Y6345000D02*
X72675000Y6845000D01*
X74065000Y7915000D02*
X77395000Y7915000D01*
X77395000Y7915000D02*
X77395000Y6865000D01*
D11*
X74600091Y8487676D02*
G75*
G03*
X74600091Y8487676I-50000J0D01*
G01*
X21211938Y5380352D02*
G75*
G03*
X21211938Y5380352I-50000J0D01*
G01*
D10*
X14389824Y13195220D02*
X14389824Y12725220D01*
X14389824Y16275220D02*
X14389824Y16045220D01*
X13889824Y12225220D02*
X9325000Y12225220D01*
X12839824Y16275220D02*
X14389824Y16275220D01*
X5439824Y16275220D02*
X11339824Y16275220D01*
X3439824Y10625220D02*
X3439824Y10385220D01*
X3439824Y13475220D02*
X3439824Y14275220D01*
X13889824Y12225220D02*
G75*
G03*
X14389824Y12725220I-1J500001D01*
G01*
X9325000Y12225219D02*
G75*
G03*
X7030679Y10385220I-866J-2349331D01*
G01*
X5439824Y16275220D02*
G75*
G03*
X3439824Y14275220I-15J-1999985D01*
G01*
%LPC*%
D13*
X16315000Y28105000D03*
D14*
X16315000Y33105000D03*
X16315000Y30605000D03*
D15*
X8815000Y25005000D03*
X8815000Y36205000D03*
D14*
X1815000Y33105000D03*
X1815000Y28105000D03*
D16*
X17090000Y20355000D03*
X18360000Y20355000D03*
X19630000Y20355000D03*
X20900000Y20355000D03*
D13*
X95315000Y33105000D03*
D14*
X95315000Y28105000D03*
X95315000Y30605000D03*
D15*
X102815000Y36205000D03*
X102815000Y25005000D03*
D14*
X109815000Y28105000D03*
X109815000Y33105000D03*
D17*
X59555000Y38665000D03*
X52055000Y38665000D03*
D18*
X61400000Y43345000D03*
X61380000Y38745000D03*
X50250000Y43345000D03*
X50230000Y38745000D03*
D16*
X89410000Y20355000D03*
X90680000Y20355000D03*
X91950000Y20355000D03*
X93220000Y20355000D03*
D19*
X1945000Y6040000D03*
X1945000Y7010000D03*
D20*
X86975000Y9605000D03*
D21*
X81895000Y9605000D03*
D20*
X76815000Y9605000D03*
D22*
X78085000Y12145000D03*
D23*
X74535000Y12145000D03*
X87985000Y14685000D03*
D22*
X84435000Y14685000D03*
D24*
X33170000Y6575000D03*
X33170000Y5375000D03*
X33170000Y4175000D03*
D25*
X36945000Y7725000D03*
X36945000Y3025000D03*
D19*
X93452740Y5682338D03*
X93452740Y6652338D03*
D20*
X105895000Y9605000D03*
D21*
X100815000Y9605000D03*
D20*
X95735000Y9605000D03*
D22*
X97005000Y12145000D03*
D23*
X93455000Y12145000D03*
X106905000Y14685000D03*
D22*
X103355000Y14685000D03*
D20*
X33605000Y9525000D03*
D21*
X28525000Y9525000D03*
D20*
X23445000Y9525000D03*
D22*
X24715000Y12065000D03*
D23*
X21165000Y12065000D03*
X34615000Y14605000D03*
D22*
X31065000Y14605000D03*
D26*
X77180000Y3905000D03*
X77180000Y5105000D03*
X77180000Y6305000D03*
D27*
X73405000Y2755000D03*
X73405000Y7455000D03*
D19*
X74550091Y9092676D03*
X74550091Y10062676D03*
X21161938Y5985352D03*
X21161938Y6955352D03*
D20*
X14605000Y9525000D03*
D21*
X9525000Y9525000D03*
D20*
X4445000Y9525000D03*
D22*
X5715000Y12065000D03*
D23*
X2165000Y12065000D03*
X15615000Y14605000D03*
D22*
X12065000Y14605000D03*
%LPD*%
M02*
