G04 #@! TF.GenerationSoftware,KiCad,Pcbnew,7.0.9*
G04 #@! TF.CreationDate,2023-12-24T11:08:21-08:00*
G04 #@! TF.ProjectId,4k-mania-keypad,346b2d6d-616e-4696-912d-6b6579706164,rev?*
G04 #@! TF.SameCoordinates,PX5ac6868PY7028288*
G04 #@! TF.FileFunction,Copper,L2,Bot*
G04 #@! TF.FilePolarity,Positive*
%FSLAX46Y46*%
G04 Gerber Fmt 4.6, Leading zero omitted, Abs format (unit mm)*
G04 Created by KiCad (PCBNEW 7.0.9) date 2023-12-24 11:08:21*
%MOMM*%
%LPD*%
G01*
G04 APERTURE LIST*
G04 Aperture macros list*
%AMRoundRect*
0 Rectangle with rounded corners*
0 $1 Rounding radius*
0 $2 $3 $4 $5 $6 $7 $8 $9 X,Y pos of 4 corners*
0 Add a 4 corners polygon primitive as box body*
4,1,4,$2,$3,$4,$5,$6,$7,$8,$9,$2,$3,0*
0 Add four circle primitives for the rounded corners*
1,1,$1+$1,$2,$3*
1,1,$1+$1,$4,$5*
1,1,$1+$1,$6,$7*
1,1,$1+$1,$8,$9*
0 Add four rect primitives between the rounded corners*
20,1,$1+$1,$2,$3,$4,$5,0*
20,1,$1+$1,$4,$5,$6,$7,0*
20,1,$1+$1,$6,$7,$8,$9,0*
20,1,$1+$1,$8,$9,$2,$3,0*%
G04 Aperture macros list end*
G04 #@! TA.AperFunction,ComponentPad*
%ADD10R,2.000000X2.000000*%
G04 #@! TD*
G04 #@! TA.AperFunction,ComponentPad*
%ADD11C,2.000000*%
G04 #@! TD*
G04 #@! TA.AperFunction,ComponentPad*
%ADD12R,3.200000X2.000000*%
G04 #@! TD*
G04 #@! TA.AperFunction,ComponentPad*
%ADD13C,0.600000*%
G04 #@! TD*
G04 #@! TA.AperFunction,ComponentPad*
%ADD14O,1.200000X2.250000*%
G04 #@! TD*
G04 #@! TA.AperFunction,SMDPad,CuDef*
%ADD15RoundRect,0.147500X0.172500X-0.147500X0.172500X0.147500X-0.172500X0.147500X-0.172500X-0.147500X0*%
G04 #@! TD*
G04 #@! TA.AperFunction,ComponentPad*
%ADD16C,3.300000*%
G04 #@! TD*
G04 #@! TA.AperFunction,SMDPad,CuDef*
%ADD17R,1.650000X2.500000*%
G04 #@! TD*
G04 #@! TA.AperFunction,SMDPad,CuDef*
%ADD18RoundRect,0.250000X1.025000X1.000000X-1.025000X1.000000X-1.025000X-1.000000X1.025000X-1.000000X0*%
G04 #@! TD*
G04 #@! TA.AperFunction,SMDPad,CuDef*
%ADD19RoundRect,0.150000X-0.275000X0.150000X-0.275000X-0.150000X0.275000X-0.150000X0.275000X0.150000X0*%
G04 #@! TD*
G04 #@! TA.AperFunction,SMDPad,CuDef*
%ADD20RoundRect,0.175000X-0.225000X0.175000X-0.225000X-0.175000X0.225000X-0.175000X0.225000X0.175000X0*%
G04 #@! TD*
G04 #@! TA.AperFunction,SMDPad,CuDef*
%ADD21RoundRect,0.150000X0.275000X-0.150000X0.275000X0.150000X-0.275000X0.150000X-0.275000X-0.150000X0*%
G04 #@! TD*
G04 #@! TA.AperFunction,SMDPad,CuDef*
%ADD22RoundRect,0.175000X0.225000X-0.175000X0.225000X0.175000X-0.225000X0.175000X-0.225000X-0.175000X0*%
G04 #@! TD*
G04 #@! TA.AperFunction,ViaPad*
%ADD23C,0.600000*%
G04 #@! TD*
G04 #@! TA.AperFunction,ViaPad*
%ADD24C,0.800000*%
G04 #@! TD*
G04 #@! TA.AperFunction,Conductor*
%ADD25C,0.300000*%
G04 #@! TD*
G04 #@! TA.AperFunction,Conductor*
%ADD26C,0.200000*%
G04 #@! TD*
G04 APERTURE END LIST*
D10*
X16315000Y28105000D03*
D11*
X16315000Y33105000D03*
X16315000Y30605000D03*
D12*
X8815000Y25005000D03*
X8815000Y36205000D03*
D11*
X1815000Y33105000D03*
X1815000Y28105000D03*
D10*
X95315000Y33105000D03*
D11*
X95315000Y28105000D03*
X95315000Y30605000D03*
D12*
X102815000Y36205000D03*
X102815000Y25005000D03*
D11*
X109815000Y28105000D03*
X109815000Y33105000D03*
D13*
X81265000Y29605000D03*
X82540000Y29605000D03*
X83815000Y29605000D03*
X81265000Y30880000D03*
X82540000Y30880000D03*
X83815000Y30880000D03*
X81265000Y32155000D03*
X82540000Y32155000D03*
X83815000Y32155000D03*
D14*
X61400000Y43345000D03*
X61380000Y38745000D03*
X50250000Y43345000D03*
X50230000Y38745000D03*
D15*
X1945000Y6040000D03*
X1945000Y7010000D03*
D16*
X78085000Y12145000D03*
D17*
X76260000Y12145000D03*
D18*
X74535000Y12145000D03*
X87985000Y14685000D03*
D17*
X86235000Y14685000D03*
D16*
X84435000Y14685000D03*
D19*
X33170000Y6575000D03*
X33170000Y5375000D03*
X33170000Y4175000D03*
D20*
X36945000Y7725000D03*
X36945000Y3025000D03*
D15*
X93452740Y5682338D03*
X93452740Y6652338D03*
D16*
X97005000Y12145000D03*
D17*
X95180000Y12145000D03*
D18*
X93455000Y12145000D03*
X106905000Y14685000D03*
D17*
X105155000Y14685000D03*
D16*
X103355000Y14685000D03*
X24715000Y12065000D03*
D17*
X22890000Y12065000D03*
D18*
X21165000Y12065000D03*
X34615000Y14605000D03*
D17*
X32865000Y14605000D03*
D16*
X31065000Y14605000D03*
D21*
X77180000Y3905000D03*
X77180000Y5105000D03*
X77180000Y6305000D03*
D22*
X73405000Y2755000D03*
X73405000Y7455000D03*
D15*
X74550091Y9092676D03*
X74550091Y10062676D03*
X21161938Y5985352D03*
X21161938Y6955352D03*
D16*
X5715000Y12065000D03*
D17*
X3890000Y12065000D03*
D18*
X2165000Y12065000D03*
X15615000Y14605000D03*
D17*
X13865000Y14605000D03*
D16*
X12065000Y14605000D03*
D23*
X61315000Y31081683D03*
X61315000Y32730664D03*
X73315000Y32254500D03*
X62629798Y31081683D03*
X87751064Y28816758D03*
X85815000Y23105000D03*
D24*
X53715000Y34405664D03*
D23*
X77815000Y26605000D03*
X91515498Y30605000D03*
X70815000Y26605000D03*
X76815000Y31280500D03*
X66815000Y31605000D03*
X80576124Y32731164D03*
X84815000Y31605000D03*
X79921307Y30670478D03*
X6315000Y22605000D03*
X87302919Y24318485D03*
X6315000Y21605000D03*
X87815000Y23704500D03*
X54345053Y27975500D03*
X87015000Y33305000D03*
X17315000Y23204500D03*
X86613495Y24903500D03*
X18315000Y23804000D03*
X85950844Y25503000D03*
D25*
X61315000Y32730664D02*
X61315000Y31081683D01*
X76490500Y31605000D02*
X76815000Y31280500D01*
D26*
X79125460Y31280500D02*
X80576124Y32731164D01*
X76815000Y31280500D02*
X79125460Y31280500D01*
D25*
X66815000Y31605000D02*
X76490500Y31605000D01*
D26*
X84815000Y31031471D02*
X84063529Y30280000D01*
X80311785Y30280000D02*
X79921307Y30670478D01*
X84815000Y31605000D02*
X84815000Y31031471D01*
X84063529Y30280000D02*
X80311785Y30280000D01*
X87288434Y24304000D02*
X83014000Y24304000D01*
X87302919Y24318485D02*
X87288434Y24304000D01*
X83014000Y24304000D02*
X81315000Y22605000D01*
X81315000Y22605000D02*
X6315000Y22605000D01*
X87815000Y23704500D02*
X83414500Y23704500D01*
X83315000Y23605000D02*
X81315000Y21605000D01*
X83414500Y23704500D02*
X83315000Y23605000D01*
X81315000Y21605000D02*
X6315000Y21605000D01*
X83391089Y23681089D02*
X83315000Y23605000D01*
X1945000Y6040000D02*
X20945000Y6040000D01*
X21161938Y5985352D02*
X28984648Y5985352D01*
X30795000Y4175000D02*
X33170000Y4175000D01*
X28984648Y5985352D02*
X30795000Y4175000D01*
X1945000Y7010000D02*
X1945000Y11845000D01*
X1945000Y11845000D02*
X2165000Y12065000D01*
X21161938Y6955352D02*
X21161938Y12061938D01*
X21161938Y12061938D02*
X21165000Y12065000D01*
X74550091Y5359909D02*
X74550091Y9092676D01*
X76005000Y3905000D02*
X74550091Y5359909D01*
X93452740Y5682338D02*
X91675402Y3905000D01*
X76005000Y3905000D02*
X77180000Y3905000D01*
X91675402Y3905000D02*
X77180000Y3905000D01*
X74550091Y10062676D02*
X74550091Y12129909D01*
X93452740Y6652338D02*
X93452740Y12142740D01*
X34780000Y7360000D02*
X34780000Y14440000D01*
X33995000Y6575000D02*
X34780000Y7360000D01*
X34780000Y14440000D02*
X34615000Y14605000D01*
X33170000Y6575000D02*
X33995000Y6575000D01*
X26689064Y14605000D02*
X30818900Y10475164D01*
X30818900Y6151100D02*
X31595000Y5375000D01*
X30818900Y10475164D02*
X30818900Y6151100D01*
X15615000Y14605000D02*
X26689064Y14605000D01*
X31595000Y5375000D02*
X33170000Y5375000D01*
X106905000Y14685000D02*
X106905000Y16505000D01*
X89805000Y11605000D02*
X89805000Y7105000D01*
X106905000Y16505000D02*
X105805000Y17605000D01*
X105805000Y17605000D02*
X95805000Y17605000D01*
X89805000Y7105000D02*
X87805000Y5105000D01*
X87805000Y5105000D02*
X77180000Y5105000D01*
X95805000Y17605000D02*
X89805000Y11605000D01*
X86989336Y33330664D02*
X59700217Y33330664D01*
X59700217Y33330664D02*
X54345053Y27975500D01*
X87015000Y33305000D02*
X86989336Y33330664D01*
X82602200Y24903500D02*
X80903200Y23204500D01*
X86613495Y24903500D02*
X82602200Y24903500D01*
X80903200Y23204500D02*
X17315000Y23204500D01*
X82213000Y25503000D02*
X85950844Y25503000D01*
X18315000Y23804000D02*
X80514000Y23804000D01*
X80514000Y23804000D02*
X82213000Y25503000D01*
X87985000Y12450936D02*
X81839064Y6305000D01*
X87985000Y14685000D02*
X87985000Y12450936D01*
X81839064Y6305000D02*
X77180000Y6305000D01*
G04 #@! TA.AperFunction,Conductor*
G36*
X81439149Y32333820D02*
G01*
X81446589Y32326964D01*
X81530872Y32242681D01*
X81564357Y32181358D01*
X81559373Y32111666D01*
X81530872Y32067319D01*
X80981053Y31517500D01*
X81406372Y31092181D01*
X81439857Y31030858D01*
X81434873Y30961166D01*
X81427975Y30951953D01*
X81384519Y31014909D01*
X81308134Y31055000D01*
X81243753Y31055000D01*
X81181240Y31039592D01*
X81116668Y30982386D01*
X81086077Y30901725D01*
X81088654Y30880500D01*
X80962309Y30880500D01*
X80895270Y30900185D01*
X80874628Y30916819D01*
X80548338Y31243110D01*
X80546939Y31242952D01*
X80478117Y31255005D01*
X80445372Y31278491D01*
X80423569Y31300294D01*
X80291718Y31383142D01*
X80245427Y31435477D01*
X80234779Y31504531D01*
X80263154Y31568379D01*
X80269985Y31575792D01*
X80450167Y31755974D01*
X80511486Y31789456D01*
X80547752Y31791307D01*
X80664812Y31908368D01*
X80726135Y31941853D01*
X80738601Y31943906D01*
X80755379Y31945796D01*
X80925646Y32005375D01*
X81078386Y32101348D01*
X81093405Y32116368D01*
X81096475Y32091087D01*
X81145481Y32020091D01*
X81221866Y31980000D01*
X81286247Y31980000D01*
X81348760Y31995408D01*
X81413332Y32052614D01*
X81443923Y32133275D01*
X81433525Y32218913D01*
X81384519Y32289909D01*
X81308134Y32330000D01*
X81281889Y32330000D01*
X81306247Y32351545D01*
X81375301Y32362195D01*
X81439149Y32333820D01*
G37*
G04 #@! TD.AperFunction*
G04 #@! TA.AperFunction,Conductor*
G36*
X49121634Y44261429D02*
G01*
X49169245Y44210292D01*
X49181651Y44141532D01*
X49180120Y44131321D01*
X49150000Y43975039D01*
X49150000Y43595000D01*
X49950000Y43595000D01*
X49950000Y43095000D01*
X49150000Y43095000D01*
X49150000Y42767602D01*
X49164965Y42610878D01*
X49164966Y42610874D01*
X49224149Y42409314D01*
X49320413Y42222586D01*
X49450268Y42057463D01*
X49450271Y42057460D01*
X49609030Y41919895D01*
X49609041Y41919886D01*
X49790960Y41814856D01*
X49790967Y41814853D01*
X49989487Y41746144D01*
X50000000Y41744633D01*
X50000000Y42653890D01*
X50024457Y42614390D01*
X50113962Y42546799D01*
X50221840Y42516105D01*
X50333521Y42526454D01*
X50433922Y42576448D01*
X50500000Y42648931D01*
X50500000Y41748743D01*
X50611409Y41775771D01*
X50802507Y41863041D01*
X50973619Y41984890D01*
X50973625Y41984896D01*
X51045756Y42060544D01*
X51106265Y42095479D01*
X51176055Y42092154D01*
X51232969Y42051626D01*
X51258937Y41986761D01*
X51259499Y41974974D01*
X51259499Y40751806D01*
X51256684Y40725532D01*
X51247784Y40684482D01*
X51236474Y40653280D01*
X51236225Y40652804D01*
X51225759Y40636159D01*
X51207589Y40611790D01*
X51194443Y40596835D01*
X51194158Y40596559D01*
X51167724Y40577023D01*
X51130910Y40556744D01*
X51106356Y40546479D01*
X51054439Y40531074D01*
X50943107Y40462966D01*
X50852952Y40368591D01*
X50833915Y40334011D01*
X50784338Y40284778D01*
X50716014Y40270163D01*
X50684733Y40276636D01*
X50490516Y40343856D01*
X50480000Y40345368D01*
X50480000Y39436111D01*
X50455543Y39475610D01*
X50366038Y39543201D01*
X50258160Y39573895D01*
X50146479Y39563546D01*
X50046078Y39513552D01*
X49980000Y39441070D01*
X49980000Y40341260D01*
X49979999Y40341260D01*
X49868594Y40314232D01*
X49868582Y40314228D01*
X49677497Y40226963D01*
X49677496Y40226962D01*
X49506380Y40105111D01*
X49506374Y40105105D01*
X49361407Y39953068D01*
X49247833Y39776343D01*
X49169755Y39581315D01*
X49130000Y39375038D01*
X49130000Y38995000D01*
X49930000Y38995000D01*
X49930000Y38495000D01*
X49130000Y38495000D01*
X49130000Y38167602D01*
X49144965Y38010878D01*
X49144966Y38010874D01*
X49204149Y37809314D01*
X49300413Y37622586D01*
X49430268Y37457463D01*
X49430271Y37457460D01*
X49589030Y37319895D01*
X49589041Y37319886D01*
X49770960Y37214856D01*
X49770967Y37214853D01*
X49969487Y37146144D01*
X49980000Y37144633D01*
X49980000Y38053890D01*
X50004457Y38014390D01*
X50093962Y37946799D01*
X50201840Y37916105D01*
X50313521Y37926454D01*
X50413922Y37976448D01*
X50480000Y38048931D01*
X50480000Y37148743D01*
X50591409Y37175771D01*
X50782507Y37263041D01*
X50953619Y37384890D01*
X50953625Y37384896D01*
X51098592Y37536933D01*
X51212166Y37713658D01*
X51290244Y37908686D01*
X51330000Y38114963D01*
X51330000Y38495000D01*
X50530000Y38495000D01*
X50530000Y38995000D01*
X51330000Y38995000D01*
X51330000Y39322399D01*
X51319371Y39433713D01*
X51332595Y39502320D01*
X51380810Y39552887D01*
X51442810Y39569500D01*
X52358137Y39569500D01*
X52358140Y39569499D01*
X52400244Y39569499D01*
X52419655Y39567970D01*
X52421916Y39567612D01*
X52422368Y39567540D01*
X52461270Y39559801D01*
X52493381Y39548662D01*
X52497749Y39546437D01*
X52499842Y39545369D01*
X52506131Y39541682D01*
X52528665Y39526626D01*
X52547457Y39511204D01*
X52551202Y39507459D01*
X52566624Y39488667D01*
X52581683Y39466130D01*
X52585373Y39459834D01*
X52588663Y39453379D01*
X52599802Y39421262D01*
X52607543Y39382349D01*
X52607968Y39379668D01*
X52609499Y39360242D01*
X52609499Y39155472D01*
X52609501Y39155455D01*
X52609501Y39104108D01*
X52638737Y38995000D01*
X52643609Y38976816D01*
X52643610Y38976813D01*
X52709498Y38862690D01*
X52709500Y38862687D01*
X52709501Y38862686D01*
X52802686Y38769501D01*
X52901521Y38712438D01*
X52916810Y38703611D01*
X52916814Y38703609D01*
X53044108Y38669501D01*
X53044110Y38669501D01*
X53175890Y38669501D01*
X53175892Y38669501D01*
X53303185Y38703609D01*
X53417313Y38769501D01*
X53510499Y38862686D01*
X53536218Y38907233D01*
X53555922Y38932909D01*
X53592729Y38969714D01*
X53648304Y39001799D01*
X53671315Y39007966D01*
X53698581Y39015273D01*
X53730680Y39019500D01*
X55809900Y39019500D01*
X57889323Y39019500D01*
X57921413Y39015276D01*
X57971688Y39001805D01*
X58027275Y38969711D01*
X58064077Y38932909D01*
X58083782Y38907229D01*
X58109495Y38862694D01*
X58109498Y38862690D01*
X58202682Y38769504D01*
X58202684Y38769503D01*
X58202686Y38769501D01*
X58295924Y38715670D01*
X58316810Y38703611D01*
X58316814Y38703609D01*
X58444108Y38669501D01*
X58444110Y38669501D01*
X58575890Y38669501D01*
X58575892Y38669501D01*
X58703185Y38703609D01*
X58817314Y38769501D01*
X58910499Y38862686D01*
X58976391Y38976814D01*
X59010499Y39104108D01*
X59010499Y39170000D01*
X59010499Y39170500D01*
X59010499Y39360249D01*
X59012028Y39379660D01*
X59012450Y39382321D01*
X59015277Y39396537D01*
X59020195Y39421266D01*
X59031309Y39453332D01*
X59034633Y39459856D01*
X59038288Y39466092D01*
X59053386Y39488688D01*
X59068786Y39507452D01*
X59072545Y39511211D01*
X59091312Y39526613D01*
X59113883Y39541695D01*
X59120157Y39545373D01*
X59126625Y39548669D01*
X59158725Y39559802D01*
X59197700Y39567555D01*
X59200377Y39567979D01*
X59219741Y39569500D01*
X60167298Y39569500D01*
X60234337Y39549815D01*
X60280092Y39497011D01*
X60290036Y39427853D01*
X60289057Y39422034D01*
X60280000Y39375040D01*
X60280000Y38995000D01*
X61080000Y38995000D01*
X61080000Y38495000D01*
X60280000Y38495000D01*
X60280000Y38167602D01*
X60294965Y38010878D01*
X60294966Y38010874D01*
X60354149Y37809314D01*
X60450413Y37622586D01*
X60580268Y37457463D01*
X60580271Y37457460D01*
X60739030Y37319895D01*
X60739041Y37319886D01*
X60920960Y37214856D01*
X60920967Y37214853D01*
X61119487Y37146144D01*
X61130000Y37144633D01*
X61130000Y38053890D01*
X61154457Y38014390D01*
X61243962Y37946799D01*
X61351840Y37916105D01*
X61463521Y37926454D01*
X61563922Y37976448D01*
X61630000Y38048931D01*
X61630000Y37148743D01*
X61741409Y37175771D01*
X61932507Y37263041D01*
X62103619Y37384890D01*
X62103625Y37384896D01*
X62248592Y37536933D01*
X62362166Y37713658D01*
X62440244Y37908686D01*
X62480000Y38114963D01*
X62480000Y38495000D01*
X61680000Y38495000D01*
X61680000Y38995000D01*
X62480000Y38995000D01*
X62480000Y39322399D01*
X62465034Y39479123D01*
X62465033Y39479127D01*
X62405850Y39680687D01*
X62309586Y39867415D01*
X62179731Y40032538D01*
X62179728Y40032541D01*
X62020969Y40170106D01*
X62020958Y40170115D01*
X61839039Y40275145D01*
X61839032Y40275148D01*
X61640516Y40343856D01*
X61630000Y40345368D01*
X61630000Y39436111D01*
X61605543Y39475610D01*
X61516038Y39543201D01*
X61408160Y39573895D01*
X61296479Y39563546D01*
X61196078Y39513552D01*
X61130000Y39441070D01*
X61130000Y40341260D01*
X61129999Y40341260D01*
X61018599Y40314234D01*
X61018585Y40314229D01*
X60946147Y40281148D01*
X60876988Y40271205D01*
X60813433Y40300231D01*
X60786011Y40334140D01*
X60779829Y40345368D01*
X60767043Y40368593D01*
X60676891Y40462965D01*
X60676889Y40462966D01*
X60676890Y40462966D01*
X60565559Y40531071D01*
X60513615Y40546486D01*
X60489090Y40556736D01*
X60452403Y40576934D01*
X60425818Y40596605D01*
X60425298Y40597110D01*
X60412266Y40611960D01*
X60394310Y40636050D01*
X60383778Y40652833D01*
X60383420Y40653520D01*
X60372200Y40684545D01*
X60363312Y40725537D01*
X60360499Y40751799D01*
X60360499Y42004081D01*
X60380184Y42071120D01*
X60432988Y42116875D01*
X60502146Y42126819D01*
X60565702Y42097794D01*
X60581970Y42080732D01*
X60600270Y42057461D01*
X60600271Y42057460D01*
X60759030Y41919895D01*
X60759041Y41919886D01*
X60940960Y41814856D01*
X60940967Y41814853D01*
X61139487Y41746144D01*
X61150000Y41744633D01*
X61150000Y42653890D01*
X61174457Y42614390D01*
X61263962Y42546799D01*
X61371840Y42516105D01*
X61483521Y42526454D01*
X61583922Y42576448D01*
X61650000Y42648931D01*
X61650000Y41748743D01*
X61761409Y41775771D01*
X61952507Y41863041D01*
X62123619Y41984890D01*
X62123625Y41984896D01*
X62268592Y42136933D01*
X62382166Y42313658D01*
X62460244Y42508686D01*
X62500000Y42714963D01*
X62500000Y43095000D01*
X61700000Y43095000D01*
X61700000Y43595000D01*
X62500000Y43595000D01*
X62500000Y43922408D01*
X62488725Y44040475D01*
X62501947Y44109082D01*
X62550162Y44159650D01*
X62618062Y44176123D01*
X62684089Y44153271D01*
X62727280Y44098350D01*
X62728344Y44095598D01*
X62745942Y44048419D01*
X62748140Y44041219D01*
X62776098Y43924769D01*
X62796723Y43829956D01*
X62797950Y43821633D01*
X62809517Y43674669D01*
X62814342Y43607211D01*
X62814500Y43602787D01*
X62814500Y38997683D01*
X62845044Y38785236D01*
X62845047Y38785226D01*
X62905517Y38579285D01*
X62994672Y38384062D01*
X62994679Y38384049D01*
X63110720Y38203486D01*
X63251275Y38041276D01*
X63326091Y37976448D01*
X63413487Y37900719D01*
X63502460Y37843540D01*
X63594048Y37784680D01*
X63594061Y37784673D01*
X63789284Y37695518D01*
X63789288Y37695517D01*
X63789290Y37695516D01*
X63995231Y37635046D01*
X63995232Y37635046D01*
X63995235Y37635045D01*
X64058584Y37625938D01*
X64207682Y37604500D01*
X64314901Y37604500D01*
X100651231Y37604500D01*
X100718270Y37584815D01*
X100764025Y37532011D01*
X100773969Y37462853D01*
X100767413Y37437167D01*
X100720908Y37312483D01*
X100715593Y37263041D01*
X100714501Y37252877D01*
X100714500Y37252865D01*
X100714500Y35157130D01*
X100714501Y35157124D01*
X100720908Y35097517D01*
X100771202Y34962672D01*
X100771206Y34962665D01*
X100857452Y34847456D01*
X100857455Y34847453D01*
X100972664Y34761207D01*
X100972671Y34761203D01*
X101107517Y34710909D01*
X101107516Y34710909D01*
X101114444Y34710165D01*
X101167127Y34704500D01*
X104462872Y34704501D01*
X104522483Y34710909D01*
X104657331Y34761204D01*
X104772546Y34847454D01*
X104858796Y34962669D01*
X104909091Y35097517D01*
X104915500Y35157127D01*
X104915499Y37252872D01*
X104909091Y37312483D01*
X104904196Y37325606D01*
X104862587Y37437167D01*
X104857603Y37506859D01*
X104891088Y37568182D01*
X104952411Y37601666D01*
X104978769Y37604500D01*
X108813378Y37604500D01*
X108816619Y37604416D01*
X108948628Y37597497D01*
X109132027Y37587197D01*
X109138212Y37586535D01*
X109290647Y37562392D01*
X109453194Y37534774D01*
X109458811Y37533547D01*
X109611693Y37492582D01*
X109704122Y37465954D01*
X109766724Y37447918D01*
X109771759Y37446231D01*
X109921183Y37388873D01*
X110069007Y37327642D01*
X110073412Y37325612D01*
X110139180Y37292101D01*
X110216921Y37252489D01*
X110292428Y37210759D01*
X110356480Y37175359D01*
X110360215Y37173118D01*
X110434487Y37124885D01*
X110495872Y37085020D01*
X110583357Y37022947D01*
X110625764Y36992858D01*
X110628886Y36990490D01*
X110753748Y36889379D01*
X110756034Y36887433D01*
X110873721Y36782262D01*
X110876248Y36779872D01*
X110989870Y36666250D01*
X110992260Y36663723D01*
X111097431Y36546036D01*
X111099385Y36543740D01*
X111200480Y36418898D01*
X111202862Y36415757D01*
X111295019Y36285873D01*
X111348758Y36203125D01*
X111383106Y36150233D01*
X111385364Y36146469D01*
X111462488Y36006922D01*
X111535604Y35863425D01*
X111537643Y35859003D01*
X111598877Y35711171D01*
X111656221Y35561783D01*
X111657916Y35556727D01*
X111702579Y35401703D01*
X111743541Y35248829D01*
X111744778Y35243165D01*
X111772394Y35080631D01*
X111796530Y34928242D01*
X111797196Y34922015D01*
X111807509Y34738383D01*
X111814415Y34606623D01*
X111814500Y34603377D01*
X111814500Y23106624D01*
X111814415Y23103378D01*
X111807509Y22971618D01*
X111797196Y22787987D01*
X111796530Y22781760D01*
X111772394Y22629370D01*
X111744778Y22466837D01*
X111743541Y22461173D01*
X111702579Y22308298D01*
X111657916Y22153275D01*
X111656221Y22148219D01*
X111598877Y21998830D01*
X111537643Y21850999D01*
X111535604Y21846577D01*
X111462488Y21703079D01*
X111385364Y21563533D01*
X111383097Y21559754D01*
X111295019Y21424128D01*
X111202862Y21294245D01*
X111200480Y21291104D01*
X111099385Y21166262D01*
X111097431Y21163966D01*
X110992260Y21046279D01*
X110989870Y21043752D01*
X110876248Y20930130D01*
X110873721Y20927740D01*
X110756034Y20822569D01*
X110753738Y20820615D01*
X110628896Y20719520D01*
X110625755Y20717138D01*
X110495872Y20624981D01*
X110360246Y20536903D01*
X110356467Y20534636D01*
X110216921Y20457512D01*
X110073423Y20384396D01*
X110069001Y20382357D01*
X109921170Y20321123D01*
X109771781Y20263779D01*
X109766725Y20262084D01*
X109611702Y20217421D01*
X109458827Y20176459D01*
X109453163Y20175222D01*
X109290630Y20147606D01*
X109138240Y20123470D01*
X109132013Y20122804D01*
X108948382Y20112491D01*
X108816622Y20105585D01*
X108813376Y20105500D01*
X93999108Y20105500D01*
X93871812Y20071392D01*
X93757686Y20005500D01*
X93757683Y20005498D01*
X93664502Y19912317D01*
X93664500Y19912314D01*
X93598608Y19798188D01*
X93571471Y19696907D01*
X93535106Y19637246D01*
X93472259Y19606717D01*
X93451696Y19605000D01*
X89178304Y19605000D01*
X89111265Y19624685D01*
X89065510Y19677489D01*
X89058529Y19696907D01*
X89031391Y19798188D01*
X89022563Y19813479D01*
X88965500Y19912314D01*
X88872314Y20005500D01*
X88815250Y20038446D01*
X88758187Y20071392D01*
X88694539Y20088446D01*
X88630892Y20105500D01*
X88565099Y20105500D01*
X21745500Y20105500D01*
X21745000Y20105500D01*
X21679108Y20105500D01*
X21551812Y20071392D01*
X21437686Y20005500D01*
X21437683Y20005498D01*
X21344502Y19912317D01*
X21344500Y19912314D01*
X21278608Y19798188D01*
X21251471Y19696907D01*
X21215106Y19637246D01*
X21152259Y19606717D01*
X21131696Y19605000D01*
X16858304Y19605000D01*
X16791265Y19624685D01*
X16745510Y19677489D01*
X16738529Y19696907D01*
X16711391Y19798188D01*
X16702563Y19813479D01*
X16645500Y19912314D01*
X16552314Y20005500D01*
X16495250Y20038446D01*
X16438187Y20071392D01*
X16374539Y20088446D01*
X16310892Y20105500D01*
X16310891Y20105500D01*
X2816624Y20105500D01*
X2813378Y20105585D01*
X2681617Y20112491D01*
X2497985Y20122804D01*
X2491758Y20123470D01*
X2339369Y20147606D01*
X2176835Y20175222D01*
X2171171Y20176459D01*
X2018297Y20217421D01*
X1863273Y20262084D01*
X1858217Y20263779D01*
X1708829Y20321123D01*
X1560997Y20382357D01*
X1556575Y20384396D01*
X1413078Y20457512D01*
X1273531Y20534636D01*
X1269767Y20536894D01*
X1216875Y20571242D01*
X1134127Y20624981D01*
X1004243Y20717138D01*
X1001102Y20719520D01*
X876260Y20820615D01*
X873964Y20822569D01*
X756277Y20927740D01*
X753750Y20930130D01*
X640128Y21043752D01*
X637738Y21046279D01*
X532567Y21163966D01*
X530613Y21166262D01*
X522146Y21176718D01*
X429510Y21291114D01*
X427136Y21294245D01*
X334980Y21424128D01*
X302406Y21474285D01*
X246882Y21559785D01*
X244641Y21563520D01*
X221718Y21604997D01*
X5509435Y21604997D01*
X5529630Y21425751D01*
X5529631Y21425746D01*
X5589211Y21255477D01*
X5638699Y21176718D01*
X5685184Y21102738D01*
X5812738Y20975184D01*
X5965478Y20879211D01*
X5974835Y20875937D01*
X6135745Y20819632D01*
X6135750Y20819631D01*
X6314996Y20799435D01*
X6315000Y20799435D01*
X6315004Y20799435D01*
X6494249Y20819631D01*
X6494252Y20819632D01*
X6494255Y20819632D01*
X6664522Y20879211D01*
X6817262Y20975184D01*
X6817267Y20975190D01*
X6820097Y20977445D01*
X6822275Y20978335D01*
X6823158Y20978889D01*
X6823255Y20978735D01*
X6884783Y21003855D01*
X6897412Y21004500D01*
X81271572Y21004500D01*
X81279670Y21003970D01*
X81315000Y20999318D01*
X81315001Y20999318D01*
X81367254Y21006198D01*
X81471762Y21019956D01*
X81617841Y21080464D01*
X81646869Y21102738D01*
X81743282Y21176718D01*
X81764984Y21205002D01*
X81770310Y21211077D01*
X83626916Y23067681D01*
X83688239Y23101166D01*
X83714597Y23104000D01*
X87232588Y23104000D01*
X87299627Y23084315D01*
X87309903Y23076945D01*
X87312736Y23074686D01*
X87312738Y23074684D01*
X87465478Y22978711D01*
X87635745Y22919132D01*
X87635750Y22919131D01*
X87814996Y22898935D01*
X87815000Y22898935D01*
X87815004Y22898935D01*
X87994249Y22919131D01*
X87994252Y22919132D01*
X87994255Y22919132D01*
X88164522Y22978711D01*
X88317262Y23074684D01*
X88444816Y23202238D01*
X88540789Y23354978D01*
X88600368Y23525245D01*
X88600369Y23525251D01*
X88620565Y23704497D01*
X88620565Y23704504D01*
X88600369Y23883750D01*
X88600368Y23883755D01*
X88584085Y23930289D01*
X88574693Y23957130D01*
X100714500Y23957130D01*
X100714501Y23957124D01*
X100720908Y23897517D01*
X100771202Y23762672D01*
X100771206Y23762665D01*
X100857452Y23647456D01*
X100857455Y23647453D01*
X100972664Y23561207D01*
X100972671Y23561203D01*
X101107517Y23510909D01*
X101107516Y23510909D01*
X101114444Y23510165D01*
X101167127Y23504500D01*
X104462872Y23504501D01*
X104522483Y23510909D01*
X104657331Y23561204D01*
X104772546Y23647454D01*
X104858796Y23762669D01*
X104909091Y23897517D01*
X104915500Y23957127D01*
X104915499Y26052872D01*
X104909091Y26112483D01*
X104902889Y26129111D01*
X104858797Y26247329D01*
X104858793Y26247336D01*
X104772547Y26362545D01*
X104772544Y26362548D01*
X104657335Y26448794D01*
X104657328Y26448798D01*
X104522482Y26499092D01*
X104522483Y26499092D01*
X104462883Y26505499D01*
X104462881Y26505500D01*
X104462873Y26505500D01*
X104462864Y26505500D01*
X101167129Y26505500D01*
X101167123Y26505499D01*
X101107516Y26499092D01*
X100972671Y26448798D01*
X100972664Y26448794D01*
X100857455Y26362548D01*
X100857452Y26362545D01*
X100771206Y26247336D01*
X100771202Y26247329D01*
X100720908Y26112483D01*
X100718281Y26088044D01*
X100714501Y26052877D01*
X100714500Y26052865D01*
X100714500Y23957130D01*
X88574693Y23957130D01*
X88540789Y24054022D01*
X88444816Y24206762D01*
X88317262Y24334316D01*
X88201055Y24407334D01*
X88164524Y24430288D01*
X88164523Y24430289D01*
X88164522Y24430289D01*
X88160911Y24431553D01*
X88158895Y24432998D01*
X88158254Y24433307D01*
X88158308Y24433420D01*
X88104135Y24472272D01*
X88084824Y24507636D01*
X88028708Y24668007D01*
X87932735Y24820747D01*
X87805181Y24948301D01*
X87652440Y25044275D01*
X87541752Y25083006D01*
X87482174Y25103853D01*
X87465178Y25105769D01*
X87400765Y25132837D01*
X87362024Y25188034D01*
X87339284Y25253022D01*
X87243310Y25405763D01*
X87115757Y25533316D01*
X86963016Y25629290D01*
X86874061Y25660416D01*
X86792750Y25688868D01*
X86792747Y25688869D01*
X86786178Y25691167D01*
X86786856Y25693106D01*
X86734612Y25722339D01*
X86706155Y25768153D01*
X86676633Y25852522D01*
X86580660Y26005262D01*
X86453106Y26132816D01*
X86300367Y26228789D01*
X86130098Y26288369D01*
X86130093Y26288370D01*
X85950848Y26308565D01*
X85950840Y26308565D01*
X85771594Y26288370D01*
X85771589Y26288369D01*
X85601320Y26228789D01*
X85448580Y26132815D01*
X85445747Y26130555D01*
X85443568Y26129666D01*
X85442686Y26129111D01*
X85442588Y26129266D01*
X85381061Y26104145D01*
X85368432Y26103500D01*
X82256428Y26103500D01*
X82248329Y26104031D01*
X82213000Y26108682D01*
X82173639Y26103500D01*
X82056239Y26088045D01*
X82056237Y26088044D01*
X81910157Y26027536D01*
X81784719Y25931284D01*
X81763019Y25903006D01*
X81757668Y25896904D01*
X80301584Y24440819D01*
X80240261Y24407334D01*
X80213903Y24404500D01*
X18897412Y24404500D01*
X18830373Y24424185D01*
X18820097Y24431555D01*
X18817263Y24433815D01*
X18817262Y24433816D01*
X18715528Y24497740D01*
X18664523Y24529789D01*
X18494254Y24589369D01*
X18494249Y24589370D01*
X18315004Y24609565D01*
X18314996Y24609565D01*
X18135750Y24589370D01*
X18135745Y24589369D01*
X17965476Y24529789D01*
X17812737Y24433816D01*
X17685184Y24306263D01*
X17589208Y24153520D01*
X17563175Y24079120D01*
X17522453Y24022344D01*
X17457500Y23996597D01*
X17432251Y23996855D01*
X17315004Y24010065D01*
X17314996Y24010065D01*
X17135750Y23989870D01*
X17135745Y23989869D01*
X16965476Y23930289D01*
X16812737Y23834316D01*
X16685184Y23706763D01*
X16589211Y23554024D01*
X16529631Y23383755D01*
X16529630Y23383751D01*
X16521954Y23315616D01*
X16494887Y23251202D01*
X16437293Y23211647D01*
X16398734Y23205500D01*
X6897412Y23205500D01*
X6830373Y23225185D01*
X6820097Y23232555D01*
X6817263Y23234815D01*
X6817262Y23234816D01*
X6688670Y23315616D01*
X6664523Y23330789D01*
X6494254Y23390369D01*
X6494249Y23390370D01*
X6315004Y23410565D01*
X6314996Y23410565D01*
X6135750Y23390370D01*
X6135745Y23390369D01*
X5965476Y23330789D01*
X5812737Y23234816D01*
X5685184Y23107263D01*
X5589211Y22954524D01*
X5529631Y22784255D01*
X5529630Y22784250D01*
X5509435Y22605004D01*
X5509435Y22604997D01*
X5529630Y22425751D01*
X5529633Y22425738D01*
X5589209Y22255480D01*
X5642309Y22170971D01*
X5661309Y22103734D01*
X5642309Y22039029D01*
X5589209Y21954521D01*
X5529633Y21784263D01*
X5529630Y21784250D01*
X5509435Y21605004D01*
X5509435Y21604997D01*
X221718Y21604997D01*
X209241Y21627572D01*
X167511Y21703079D01*
X126145Y21784263D01*
X94388Y21846588D01*
X92358Y21850993D01*
X31122Y21998830D01*
X-26231Y22148241D01*
X-27918Y22153276D01*
X-72580Y22308298D01*
X-104050Y22425745D01*
X-113547Y22461189D01*
X-114774Y22466806D01*
X-142399Y22629394D01*
X-166535Y22781788D01*
X-167197Y22787973D01*
X-177510Y22971618D01*
X-184416Y23103380D01*
X-184500Y23106623D01*
X-184500Y23957130D01*
X6714500Y23957130D01*
X6714501Y23957124D01*
X6720908Y23897517D01*
X6771202Y23762672D01*
X6771206Y23762665D01*
X6857452Y23647456D01*
X6857455Y23647453D01*
X6972664Y23561207D01*
X6972671Y23561203D01*
X7107517Y23510909D01*
X7107516Y23510909D01*
X7114444Y23510165D01*
X7167127Y23504500D01*
X10462872Y23504501D01*
X10522483Y23510909D01*
X10657331Y23561204D01*
X10772546Y23647454D01*
X10858796Y23762669D01*
X10909091Y23897517D01*
X10915500Y23957127D01*
X10915499Y26052872D01*
X10909091Y26112483D01*
X10902889Y26129111D01*
X10858797Y26247329D01*
X10858793Y26247336D01*
X10772547Y26362545D01*
X10772544Y26362548D01*
X10657335Y26448794D01*
X10657328Y26448798D01*
X10522482Y26499092D01*
X10522483Y26499092D01*
X10462883Y26505499D01*
X10462881Y26505500D01*
X10462873Y26505500D01*
X10462864Y26505500D01*
X7167129Y26505500D01*
X7167123Y26505499D01*
X7107516Y26499092D01*
X6972671Y26448798D01*
X6972664Y26448794D01*
X6857455Y26362548D01*
X6857452Y26362545D01*
X6771206Y26247336D01*
X6771202Y26247329D01*
X6720908Y26112483D01*
X6718281Y26088044D01*
X6714501Y26052877D01*
X6714500Y26052865D01*
X6714500Y23957130D01*
X-184500Y23957130D01*
X-184500Y28104995D01*
X309357Y28104995D01*
X329890Y27857188D01*
X329892Y27857176D01*
X390936Y27616119D01*
X490826Y27388394D01*
X626833Y27180218D01*
X626836Y27180215D01*
X795256Y26997262D01*
X991491Y26844526D01*
X1210190Y26726172D01*
X1445386Y26645429D01*
X1690665Y26604500D01*
X1939335Y26604500D01*
X2184614Y26645429D01*
X2419810Y26726172D01*
X2638509Y26844526D01*
X2834744Y26997262D01*
X3003164Y27180215D01*
X3139173Y27388393D01*
X3239063Y27616119D01*
X3300108Y27857179D01*
X3300109Y27857188D01*
X3320643Y28104995D01*
X3320643Y28105006D01*
X3300109Y28352813D01*
X3300107Y28352825D01*
X3239063Y28593882D01*
X3139173Y28821607D01*
X3003166Y29029783D01*
X2981557Y29053256D01*
X2834744Y29212738D01*
X2638509Y29365474D01*
X2638507Y29365475D01*
X2638506Y29365476D01*
X2419811Y29483828D01*
X2419802Y29483831D01*
X2184616Y29564571D01*
X1939335Y29605500D01*
X1690665Y29605500D01*
X1445383Y29564571D01*
X1210197Y29483831D01*
X1210188Y29483828D01*
X991493Y29365476D01*
X795257Y29212739D01*
X626833Y29029783D01*
X490826Y28821607D01*
X390936Y28593882D01*
X329892Y28352825D01*
X329890Y28352813D01*
X309357Y28105006D01*
X309357Y28104995D01*
X-184500Y28104995D01*
X-184500Y33104995D01*
X309357Y33104995D01*
X329890Y32857188D01*
X329892Y32857176D01*
X390936Y32616119D01*
X490826Y32388394D01*
X626833Y32180218D01*
X626836Y32180215D01*
X795256Y31997262D01*
X991491Y31844526D01*
X1210190Y31726172D01*
X1445386Y31645429D01*
X1690665Y31604500D01*
X1939335Y31604500D01*
X2184614Y31645429D01*
X2419810Y31726172D01*
X2638509Y31844526D01*
X2834744Y31997262D01*
X3003164Y32180215D01*
X3139173Y32388393D01*
X3239063Y32616119D01*
X3300108Y32857179D01*
X3300109Y32857188D01*
X3320643Y33104995D01*
X14809357Y33104995D01*
X14829890Y32857188D01*
X14829892Y32857176D01*
X14890936Y32616119D01*
X14990826Y32388394D01*
X15126833Y32180218D01*
X15126836Y32180215D01*
X15295256Y31997262D01*
X15295259Y31997260D01*
X15295262Y31997257D01*
X15396374Y31918558D01*
X15437187Y31861848D01*
X15441300Y31832252D01*
X16182466Y31091087D01*
X16172685Y31089680D01*
X16041900Y31029952D01*
X15933239Y30935798D01*
X15855507Y30814844D01*
X15831923Y30734525D01*
X15091564Y31474884D01*
X14991267Y31321368D01*
X14891412Y31093718D01*
X14830387Y30852739D01*
X14830385Y30852730D01*
X14809859Y30605006D01*
X14809859Y30604995D01*
X14830385Y30357271D01*
X14830387Y30357262D01*
X14891412Y30116283D01*
X14991267Y29888633D01*
X15103484Y29716871D01*
X15123672Y29649982D01*
X15104491Y29582796D01*
X15073987Y29549784D01*
X14957452Y29462545D01*
X14871206Y29347336D01*
X14871202Y29347329D01*
X14820908Y29212483D01*
X14814501Y29152884D01*
X14814501Y29152877D01*
X14814500Y29152865D01*
X14814500Y27057130D01*
X14814501Y27057124D01*
X14820908Y26997517D01*
X14871202Y26862672D01*
X14871206Y26862665D01*
X14957452Y26747456D01*
X14957455Y26747453D01*
X15072664Y26661207D01*
X15072671Y26661203D01*
X15207517Y26610909D01*
X15207516Y26610909D01*
X15214444Y26610165D01*
X15267127Y26604500D01*
X17362872Y26604501D01*
X17422483Y26610909D01*
X17557331Y26661204D01*
X17672546Y26747454D01*
X17758796Y26862669D01*
X17809091Y26997517D01*
X17815500Y27057127D01*
X17815500Y27975497D01*
X53539488Y27975497D01*
X53559683Y27796251D01*
X53559684Y27796246D01*
X53619264Y27625977D01*
X53715237Y27473238D01*
X53842791Y27345684D01*
X53995531Y27249711D01*
X54165798Y27190132D01*
X54165803Y27190131D01*
X54345049Y27169935D01*
X54345053Y27169935D01*
X54345057Y27169935D01*
X54524302Y27190131D01*
X54524305Y27190132D01*
X54524308Y27190132D01*
X54694575Y27249711D01*
X54847315Y27345684D01*
X54974869Y27473238D01*
X55070842Y27625978D01*
X55130421Y27796245D01*
X55140214Y27883171D01*
X55167279Y27947582D01*
X55175743Y27956957D01*
X55323781Y28104995D01*
X93809357Y28104995D01*
X93829890Y27857188D01*
X93829892Y27857176D01*
X93890936Y27616119D01*
X93990826Y27388394D01*
X94126833Y27180218D01*
X94126836Y27180215D01*
X94295256Y26997262D01*
X94491491Y26844526D01*
X94710190Y26726172D01*
X94945386Y26645429D01*
X95190665Y26604500D01*
X95439335Y26604500D01*
X95684614Y26645429D01*
X95919810Y26726172D01*
X96138509Y26844526D01*
X96334744Y26997262D01*
X96503164Y27180215D01*
X96639173Y27388393D01*
X96739063Y27616119D01*
X96800108Y27857179D01*
X96800109Y27857188D01*
X96820643Y28104995D01*
X108309357Y28104995D01*
X108329890Y27857188D01*
X108329892Y27857176D01*
X108390936Y27616119D01*
X108490826Y27388394D01*
X108626833Y27180218D01*
X108626836Y27180215D01*
X108795256Y26997262D01*
X108991491Y26844526D01*
X109210190Y26726172D01*
X109445386Y26645429D01*
X109690665Y26604500D01*
X109939335Y26604500D01*
X110184614Y26645429D01*
X110419810Y26726172D01*
X110638509Y26844526D01*
X110834744Y26997262D01*
X111003164Y27180215D01*
X111139173Y27388393D01*
X111239063Y27616119D01*
X111300108Y27857179D01*
X111300109Y27857188D01*
X111320643Y28104995D01*
X111320643Y28105006D01*
X111300109Y28352813D01*
X111300107Y28352825D01*
X111239063Y28593882D01*
X111139173Y28821607D01*
X111003166Y29029783D01*
X110981557Y29053256D01*
X110834744Y29212738D01*
X110638509Y29365474D01*
X110638507Y29365475D01*
X110638506Y29365476D01*
X110419811Y29483828D01*
X110419802Y29483831D01*
X110184616Y29564571D01*
X109939335Y29605500D01*
X109690665Y29605500D01*
X109445383Y29564571D01*
X109210197Y29483831D01*
X109210188Y29483828D01*
X108991493Y29365476D01*
X108795257Y29212739D01*
X108626833Y29029783D01*
X108490826Y28821607D01*
X108390936Y28593882D01*
X108329892Y28352825D01*
X108329890Y28352813D01*
X108309357Y28105006D01*
X108309357Y28104995D01*
X96820643Y28104995D01*
X96820643Y28105006D01*
X96800109Y28352813D01*
X96800107Y28352825D01*
X96739063Y28593882D01*
X96639173Y28821607D01*
X96503166Y29029783D01*
X96482860Y29051841D01*
X96334744Y29212738D01*
X96233623Y29291444D01*
X96192810Y29348154D01*
X96188697Y29377751D01*
X95447533Y30118914D01*
X95457315Y30120320D01*
X95588100Y30180048D01*
X95696761Y30274202D01*
X95774493Y30395156D01*
X95798076Y30475476D01*
X96538434Y29735118D01*
X96638731Y29888631D01*
X96738587Y30116283D01*
X96799612Y30357262D01*
X96799614Y30357271D01*
X96820141Y30604995D01*
X96820141Y30605006D01*
X96799614Y30852730D01*
X96799612Y30852739D01*
X96738587Y31093718D01*
X96638732Y31321368D01*
X96526515Y31493130D01*
X96506328Y31560019D01*
X96525508Y31627205D01*
X96556013Y31660218D01*
X96557329Y31661204D01*
X96557331Y31661204D01*
X96672546Y31747454D01*
X96758796Y31862669D01*
X96809091Y31997517D01*
X96815500Y32057127D01*
X96815500Y33104995D01*
X108309357Y33104995D01*
X108329890Y32857188D01*
X108329892Y32857176D01*
X108390936Y32616119D01*
X108490826Y32388394D01*
X108626833Y32180218D01*
X108626836Y32180215D01*
X108795256Y31997262D01*
X108991491Y31844526D01*
X109210190Y31726172D01*
X109445386Y31645429D01*
X109690665Y31604500D01*
X109939335Y31604500D01*
X110184614Y31645429D01*
X110419810Y31726172D01*
X110638509Y31844526D01*
X110834744Y31997262D01*
X111003164Y32180215D01*
X111139173Y32388393D01*
X111239063Y32616119D01*
X111300108Y32857179D01*
X111300109Y32857188D01*
X111320643Y33104995D01*
X111320643Y33105006D01*
X111300109Y33352813D01*
X111300107Y33352825D01*
X111239063Y33593882D01*
X111139173Y33821607D01*
X111003166Y34029783D01*
X110947393Y34090368D01*
X110834744Y34212738D01*
X110638509Y34365474D01*
X110638507Y34365475D01*
X110638506Y34365476D01*
X110419811Y34483828D01*
X110419802Y34483831D01*
X110184616Y34564571D01*
X109939335Y34605500D01*
X109690665Y34605500D01*
X109445383Y34564571D01*
X109210197Y34483831D01*
X109210188Y34483828D01*
X108991493Y34365476D01*
X108795257Y34212739D01*
X108626833Y34029783D01*
X108490826Y33821607D01*
X108390936Y33593882D01*
X108329892Y33352825D01*
X108329890Y33352813D01*
X108309357Y33105006D01*
X108309357Y33104995D01*
X96815500Y33104995D01*
X96815499Y34152872D01*
X96809091Y34212483D01*
X96758796Y34347331D01*
X96758795Y34347332D01*
X96758793Y34347336D01*
X96672547Y34462545D01*
X96672544Y34462548D01*
X96557335Y34548794D01*
X96557328Y34548798D01*
X96422482Y34599092D01*
X96422483Y34599092D01*
X96362883Y34605499D01*
X96362881Y34605500D01*
X96362873Y34605500D01*
X96362864Y34605500D01*
X94267129Y34605500D01*
X94267123Y34605499D01*
X94207516Y34599092D01*
X94072671Y34548798D01*
X94072664Y34548794D01*
X93957455Y34462548D01*
X93957452Y34462545D01*
X93871206Y34347336D01*
X93871202Y34347329D01*
X93820908Y34212483D01*
X93814501Y34152884D01*
X93814501Y34152877D01*
X93814500Y34152865D01*
X93814500Y32057130D01*
X93814501Y32057124D01*
X93820908Y31997517D01*
X93871202Y31862672D01*
X93871206Y31862665D01*
X93957452Y31747456D01*
X93957455Y31747453D01*
X94073986Y31660217D01*
X94115857Y31604283D01*
X94120841Y31534592D01*
X94103484Y31493130D01*
X93991267Y31321369D01*
X93891412Y31093718D01*
X93830387Y30852739D01*
X93830385Y30852730D01*
X93809859Y30605006D01*
X93809859Y30604995D01*
X93830385Y30357271D01*
X93830387Y30357262D01*
X93891412Y30116283D01*
X93991266Y29888636D01*
X94091564Y29735118D01*
X94831922Y30475477D01*
X94855507Y30395156D01*
X94933239Y30274202D01*
X95041900Y30180048D01*
X95172685Y30120320D01*
X95182466Y30118914D01*
X94439100Y29375550D01*
X94428482Y29328852D01*
X94396376Y29291444D01*
X94295255Y29212738D01*
X94126833Y29029783D01*
X93990826Y28821607D01*
X93890936Y28593882D01*
X93829892Y28352825D01*
X93829890Y28352813D01*
X93809357Y28105006D01*
X93809357Y28104995D01*
X55323781Y28104995D01*
X56107126Y28888340D01*
X80901891Y28888340D01*
X80915697Y28879665D01*
X80915701Y28879663D01*
X81085858Y28820123D01*
X81085861Y28820122D01*
X81264997Y28799938D01*
X81265003Y28799938D01*
X81444138Y28820122D01*
X81614307Y28879667D01*
X81628107Y28888339D01*
X81628107Y28888340D01*
X82176891Y28888340D01*
X82190697Y28879665D01*
X82190701Y28879663D01*
X82360858Y28820123D01*
X82360861Y28820122D01*
X82539997Y28799938D01*
X82540003Y28799938D01*
X82719138Y28820122D01*
X82889307Y28879667D01*
X82903107Y28888339D01*
X82903107Y28888340D01*
X83451891Y28888340D01*
X83465697Y28879665D01*
X83465701Y28879663D01*
X83635858Y28820123D01*
X83635861Y28820122D01*
X83814997Y28799938D01*
X83815003Y28799938D01*
X83994138Y28820122D01*
X84164307Y28879667D01*
X84178107Y28888339D01*
X84178107Y28888340D01*
X83815001Y29251447D01*
X83815000Y29251447D01*
X83451891Y28888340D01*
X82903107Y28888340D01*
X82540001Y29251447D01*
X82540000Y29251447D01*
X82176891Y28888340D01*
X81628107Y28888340D01*
X81265001Y29251447D01*
X81265000Y29251447D01*
X80901891Y28888340D01*
X56107126Y28888340D01*
X59912633Y32693845D01*
X59973956Y32727330D01*
X60000314Y32730164D01*
X60398678Y32730164D01*
X60465717Y32710479D01*
X60511472Y32657675D01*
X60521898Y32620047D01*
X60529630Y32551415D01*
X60589211Y32381141D01*
X60645493Y32291570D01*
X60664500Y32225597D01*
X60664500Y31586752D01*
X60645494Y31520780D01*
X60589211Y31431206D01*
X60589209Y31431202D01*
X60529633Y31260946D01*
X60529630Y31260933D01*
X60509435Y31081687D01*
X60509435Y31081680D01*
X60529630Y30902434D01*
X60529631Y30902429D01*
X60589211Y30732160D01*
X60683878Y30581499D01*
X60685184Y30579421D01*
X60812738Y30451867D01*
X60902993Y30395156D01*
X60963300Y30357262D01*
X60965478Y30355894D01*
X61013390Y30339129D01*
X61135745Y30296315D01*
X61135750Y30296314D01*
X61314996Y30276118D01*
X61315000Y30276118D01*
X61315004Y30276118D01*
X61494249Y30296314D01*
X61494252Y30296315D01*
X61494255Y30296315D01*
X61664522Y30355894D01*
X61817262Y30451867D01*
X61944816Y30579421D01*
X62040789Y30732161D01*
X62100368Y30902428D01*
X62100369Y30902434D01*
X62120565Y31081680D01*
X62120565Y31081687D01*
X62100369Y31260933D01*
X62100366Y31260946D01*
X62040790Y31431202D01*
X62040789Y31431205D01*
X62001879Y31493130D01*
X61984506Y31520780D01*
X61965500Y31586752D01*
X61965500Y32225597D01*
X61984507Y32291570D01*
X62009150Y32330789D01*
X62040789Y32381142D01*
X62100368Y32551409D01*
X62100425Y32551909D01*
X62108102Y32620047D01*
X62135168Y32684461D01*
X62192763Y32724016D01*
X62231322Y32730164D01*
X79426527Y32730164D01*
X79493566Y32710479D01*
X79539321Y32657675D01*
X79549265Y32588517D01*
X79520240Y32524961D01*
X79514208Y32518483D01*
X78913044Y31917319D01*
X78851721Y31883834D01*
X78825363Y31881000D01*
X77397412Y31881000D01*
X77330373Y31900685D01*
X77320097Y31908055D01*
X77317263Y31910315D01*
X77317262Y31910316D01*
X77181839Y31995408D01*
X77164521Y32006290D01*
X77085437Y32033962D01*
X76994255Y32065868D01*
X76994251Y32065869D01*
X76994250Y32065869D01*
X76986070Y32066791D01*
X76923960Y32092030D01*
X76915745Y32098403D01*
X76911309Y32102190D01*
X76893029Y32119357D01*
X76875895Y32135447D01*
X76875888Y32135452D01*
X76857292Y32145675D01*
X76841031Y32156356D01*
X76824263Y32169363D01*
X76796543Y32181358D01*
X76779678Y32188657D01*
X76774456Y32191214D01*
X76731868Y32214627D01*
X76731865Y32214628D01*
X76711301Y32219908D01*
X76692896Y32226210D01*
X76673427Y32234635D01*
X76673421Y32234637D01*
X76625451Y32242234D01*
X76619736Y32243418D01*
X76603272Y32247645D01*
X76572680Y32255500D01*
X76572677Y32255500D01*
X76551455Y32255500D01*
X76532055Y32257027D01*
X76511096Y32260347D01*
X76511095Y32260347D01*
X76487286Y32258097D01*
X76462730Y32255775D01*
X76456892Y32255500D01*
X67320068Y32255500D01*
X67254096Y32274506D01*
X67164522Y32330790D01*
X67164518Y32330791D01*
X66994262Y32390367D01*
X66994249Y32390370D01*
X66815004Y32410565D01*
X66814996Y32410565D01*
X66635750Y32390370D01*
X66635745Y32390369D01*
X66465476Y32330789D01*
X66312737Y32234816D01*
X66185184Y32107263D01*
X66089211Y31954524D01*
X66029631Y31784255D01*
X66029630Y31784250D01*
X66009435Y31605004D01*
X66009435Y31604997D01*
X66029630Y31425751D01*
X66029631Y31425746D01*
X66089211Y31255477D01*
X66183763Y31105000D01*
X66185184Y31102738D01*
X66312738Y30975184D01*
X66403080Y30918418D01*
X66463426Y30880500D01*
X66465478Y30879211D01*
X66635739Y30819634D01*
X66635745Y30819632D01*
X66635750Y30819631D01*
X66814996Y30799435D01*
X66815000Y30799435D01*
X66815004Y30799435D01*
X66994249Y30819631D01*
X66994251Y30819632D01*
X66994255Y30819632D01*
X66994258Y30819634D01*
X66994262Y30819634D01*
X67104690Y30858275D01*
X67164522Y30879211D01*
X67254096Y30935495D01*
X67320068Y30954500D01*
X76005898Y30954500D01*
X76072937Y30934815D01*
X76110891Y30896473D01*
X76185182Y30778240D01*
X76185184Y30778238D01*
X76312738Y30650684D01*
X76465478Y30554711D01*
X76635745Y30495132D01*
X76635750Y30495131D01*
X76814996Y30474935D01*
X76815000Y30474935D01*
X76815004Y30474935D01*
X76994249Y30495131D01*
X76994252Y30495132D01*
X76994255Y30495132D01*
X77164522Y30554711D01*
X77317262Y30650684D01*
X77317267Y30650690D01*
X77320097Y30652945D01*
X77322275Y30653835D01*
X77323158Y30654389D01*
X77323255Y30654235D01*
X77384783Y30679355D01*
X77397412Y30680000D01*
X79003856Y30680000D01*
X79070895Y30660315D01*
X79116650Y30607511D01*
X79127076Y30569883D01*
X79135937Y30491229D01*
X79135938Y30491224D01*
X79195518Y30320955D01*
X79239193Y30251447D01*
X79291491Y30168216D01*
X79419045Y30040662D01*
X79571785Y29944689D01*
X79742052Y29885110D01*
X79822586Y29876037D01*
X79884185Y29851195D01*
X80008944Y29755464D01*
X80155023Y29694956D01*
X80311785Y29674318D01*
X80324815Y29676034D01*
X80393848Y29665270D01*
X80446105Y29618891D01*
X80464221Y29566979D01*
X80480121Y29425862D01*
X80480122Y29425859D01*
X80539662Y29255702D01*
X80539667Y29255692D01*
X80548338Y29241892D01*
X80949628Y29643181D01*
X81010951Y29676666D01*
X81037309Y29679500D01*
X81106092Y29679500D01*
X81086077Y29626725D01*
X81096475Y29541087D01*
X81145481Y29470091D01*
X81221866Y29430000D01*
X81286247Y29430000D01*
X81348760Y29445408D01*
X81413332Y29502614D01*
X81443923Y29583275D01*
X81433525Y29668913D01*
X81426217Y29679500D01*
X81492691Y29679500D01*
X81559730Y29659815D01*
X81580372Y29643181D01*
X81902500Y29321053D01*
X82224628Y29643181D01*
X82285951Y29676666D01*
X82312309Y29679500D01*
X82381092Y29679500D01*
X82361077Y29626725D01*
X82371475Y29541087D01*
X82420481Y29470091D01*
X82496866Y29430000D01*
X82561247Y29430000D01*
X82623760Y29445408D01*
X82688332Y29502614D01*
X82718923Y29583275D01*
X82708525Y29668913D01*
X82701217Y29679500D01*
X82767691Y29679500D01*
X82834730Y29659815D01*
X82855372Y29643181D01*
X83177500Y29321053D01*
X83499628Y29643181D01*
X83560951Y29676666D01*
X83587309Y29679500D01*
X83656092Y29679500D01*
X83636077Y29626725D01*
X83646475Y29541087D01*
X83695481Y29470091D01*
X83771866Y29430000D01*
X83836247Y29430000D01*
X83898760Y29445408D01*
X83963332Y29502614D01*
X83993923Y29583275D01*
X83983525Y29668913D01*
X83976217Y29679500D01*
X84020101Y29679500D01*
X84028200Y29678970D01*
X84062915Y29674399D01*
X84126812Y29646133D01*
X84134412Y29639141D01*
X84531660Y29241893D01*
X84531661Y29241893D01*
X84540333Y29255693D01*
X84599878Y29425862D01*
X84620062Y29604998D01*
X84620062Y29605003D01*
X84599878Y29784139D01*
X84578181Y29846143D01*
X84574618Y29915922D01*
X84607538Y29974776D01*
X85208916Y30576153D01*
X85215006Y30581494D01*
X85243282Y30603189D01*
X85323923Y30708282D01*
X85339536Y30728630D01*
X85400044Y30874709D01*
X85420682Y31031471D01*
X85421743Y31039529D01*
X85423673Y31039275D01*
X85440367Y31096125D01*
X85442735Y31099427D01*
X85444814Y31102737D01*
X85444816Y31102738D01*
X85540789Y31255478D01*
X85600368Y31425745D01*
X85600983Y31431202D01*
X85620565Y31604997D01*
X85620565Y31605004D01*
X85600369Y31784250D01*
X85600368Y31784255D01*
X85559627Y31900685D01*
X85540789Y31954522D01*
X85513773Y31997517D01*
X85476312Y32057136D01*
X85444816Y32107262D01*
X85317262Y32234816D01*
X85304729Y32242691D01*
X85164523Y32330789D01*
X84994254Y32390369D01*
X84994249Y32390370D01*
X84815004Y32410565D01*
X84814996Y32410565D01*
X84680574Y32395420D01*
X84611752Y32407475D01*
X84560373Y32454824D01*
X84549649Y32477688D01*
X84540337Y32504300D01*
X84517785Y32540192D01*
X84498785Y32607429D01*
X84519153Y32674264D01*
X84572420Y32719478D01*
X84622779Y32730164D01*
X86406396Y32730164D01*
X86473435Y32710479D01*
X86494077Y32693845D01*
X86512738Y32675184D01*
X86600488Y32620047D01*
X86650667Y32588517D01*
X86665478Y32579211D01*
X86744932Y32551409D01*
X86835745Y32519632D01*
X86835750Y32519631D01*
X87014996Y32499435D01*
X87015000Y32499435D01*
X87015004Y32499435D01*
X87194249Y32519631D01*
X87194252Y32519632D01*
X87194255Y32519632D01*
X87364522Y32579211D01*
X87517262Y32675184D01*
X87644816Y32802738D01*
X87740789Y32955478D01*
X87800368Y33125745D01*
X87820565Y33305000D01*
X87815176Y33352825D01*
X87800369Y33484250D01*
X87800368Y33484255D01*
X87740788Y33654524D01*
X87696776Y33724568D01*
X87644816Y33807262D01*
X87517262Y33934816D01*
X87492826Y33950170D01*
X87364523Y34030789D01*
X87194254Y34090369D01*
X87194249Y34090370D01*
X87015004Y34110565D01*
X87014996Y34110565D01*
X86835750Y34090370D01*
X86835745Y34090369D01*
X86665476Y34030789D01*
X86537174Y33950170D01*
X86471202Y33931164D01*
X59743651Y33931164D01*
X59735551Y33931695D01*
X59700217Y33936347D01*
X59700216Y33936347D01*
X59558555Y33917696D01*
X59543455Y33915708D01*
X59543454Y33915708D01*
X59397374Y33855200D01*
X59271936Y33758948D01*
X59250236Y33730670D01*
X59244885Y33724568D01*
X54326518Y28806202D01*
X54265195Y28772717D01*
X54252721Y28770663D01*
X54165803Y28760870D01*
X53995531Y28701290D01*
X53842790Y28605316D01*
X53715237Y28477763D01*
X53619264Y28325024D01*
X53559684Y28154755D01*
X53559683Y28154750D01*
X53539488Y27975504D01*
X53539488Y27975497D01*
X17815500Y27975497D01*
X17815499Y29152872D01*
X17809091Y29212483D01*
X17808995Y29212740D01*
X17758797Y29347329D01*
X17758793Y29347336D01*
X17696910Y29430000D01*
X17672546Y29462546D01*
X17557331Y29548796D01*
X17557329Y29548797D01*
X17556012Y29549783D01*
X17514141Y29605717D01*
X17509157Y29675409D01*
X17526515Y29716872D01*
X17638731Y29888631D01*
X17738587Y30116283D01*
X17799612Y30357262D01*
X17799614Y30357271D01*
X17820141Y30604995D01*
X17820141Y30605006D01*
X17799614Y30852730D01*
X17799612Y30852739D01*
X17738587Y31093718D01*
X17638731Y31321370D01*
X17538434Y31474884D01*
X16798076Y30734526D01*
X16774493Y30814844D01*
X16696761Y30935798D01*
X16588100Y31029952D01*
X16457315Y31089680D01*
X16447534Y31091087D01*
X17190898Y31834452D01*
X17201515Y31881148D01*
X17233621Y31918556D01*
X17334744Y31997262D01*
X17503164Y32180215D01*
X17639173Y32388393D01*
X17739063Y32616119D01*
X17800108Y32857179D01*
X17800109Y32857188D01*
X17820643Y33104995D01*
X17820643Y33105006D01*
X17800109Y33352813D01*
X17800107Y33352825D01*
X17739063Y33593882D01*
X17639173Y33821607D01*
X17503166Y34029783D01*
X17447393Y34090368D01*
X17334744Y34212738D01*
X17138509Y34365474D01*
X17138507Y34365475D01*
X17138506Y34365476D01*
X16919811Y34483828D01*
X16919802Y34483831D01*
X16684616Y34564571D01*
X16439335Y34605500D01*
X16190665Y34605500D01*
X15945383Y34564571D01*
X15710197Y34483831D01*
X15710188Y34483828D01*
X15491493Y34365476D01*
X15295257Y34212739D01*
X15126833Y34029783D01*
X14990826Y33821607D01*
X14890936Y33593882D01*
X14829892Y33352825D01*
X14829890Y33352813D01*
X14809357Y33105006D01*
X14809357Y33104995D01*
X3320643Y33104995D01*
X3320643Y33105006D01*
X3300109Y33352813D01*
X3300107Y33352825D01*
X3239063Y33593882D01*
X3139173Y33821607D01*
X3003166Y34029783D01*
X2947393Y34090368D01*
X2834744Y34212738D01*
X2638509Y34365474D01*
X2638507Y34365475D01*
X2638506Y34365476D01*
X2419811Y34483828D01*
X2419802Y34483831D01*
X2184616Y34564571D01*
X1939335Y34605500D01*
X1690665Y34605500D01*
X1445383Y34564571D01*
X1210197Y34483831D01*
X1210188Y34483828D01*
X991493Y34365476D01*
X795257Y34212739D01*
X626833Y34029783D01*
X490826Y33821607D01*
X390936Y33593882D01*
X329892Y33352825D01*
X329890Y33352813D01*
X309357Y33105006D01*
X309357Y33104995D01*
X-184500Y33104995D01*
X-184500Y34603378D01*
X-184415Y34606624D01*
X-177503Y34738514D01*
X-167197Y34922032D01*
X-166536Y34928209D01*
X-142389Y35080669D01*
X-139526Y35097517D01*
X-114773Y35243204D01*
X-113549Y35248804D01*
X-72575Y35401721D01*
X-27917Y35556732D01*
X-26236Y35561746D01*
X31127Y35711185D01*
X92366Y35859028D01*
X94379Y35863394D01*
X167511Y36006922D01*
X174688Y36019910D01*
X244655Y36146506D01*
X246867Y36150192D01*
X334980Y36285873D01*
X349130Y36305818D01*
X427154Y36415780D01*
X429486Y36418857D01*
X530655Y36543791D01*
X532537Y36546002D01*
X637773Y36663761D01*
X640092Y36666213D01*
X753787Y36779908D01*
X756239Y36782227D01*
X873998Y36887463D01*
X876209Y36889345D01*
X1001143Y36990514D01*
X1004220Y36992846D01*
X1134127Y37085020D01*
X1144046Y37091463D01*
X1269808Y37173133D01*
X1273494Y37175345D01*
X1413078Y37252489D01*
X1433787Y37263041D01*
X1556606Y37325621D01*
X1560972Y37327634D01*
X1708815Y37388873D01*
X1858254Y37446236D01*
X1863268Y37447917D01*
X2018279Y37492575D01*
X2171196Y37533549D01*
X2176796Y37534773D01*
X2339284Y37562382D01*
X2491791Y37586536D01*
X2497968Y37587197D01*
X2681566Y37597507D01*
X2813380Y37604416D01*
X2816622Y37604500D01*
X6651231Y37604500D01*
X6718270Y37584815D01*
X6764025Y37532011D01*
X6773969Y37462853D01*
X6767413Y37437167D01*
X6720908Y37312483D01*
X6715593Y37263041D01*
X6714501Y37252877D01*
X6714500Y37252865D01*
X6714500Y35157130D01*
X6714501Y35157124D01*
X6720908Y35097517D01*
X6771202Y34962672D01*
X6771206Y34962665D01*
X6857452Y34847456D01*
X6857455Y34847453D01*
X6972664Y34761207D01*
X6972671Y34761203D01*
X7107517Y34710909D01*
X7107516Y34710909D01*
X7114444Y34710165D01*
X7167127Y34704500D01*
X10462872Y34704501D01*
X10522483Y34710909D01*
X10657331Y34761204D01*
X10772546Y34847454D01*
X10858796Y34962669D01*
X10909091Y35097517D01*
X10915500Y35157127D01*
X10915499Y37252872D01*
X10909091Y37312483D01*
X10904196Y37325606D01*
X10862587Y37437167D01*
X10857603Y37506859D01*
X10891088Y37568182D01*
X10952411Y37601666D01*
X10978769Y37604500D01*
X47422317Y37604500D01*
X47422318Y37604500D01*
X47592851Y37629020D01*
X47634764Y37635045D01*
X47634765Y37635046D01*
X47634769Y37635046D01*
X47840710Y37695516D01*
X47840713Y37695518D01*
X47840715Y37695518D01*
X48035938Y37784673D01*
X48035944Y37784677D01*
X48035950Y37784679D01*
X48216513Y37900719D01*
X48378724Y38041276D01*
X48519281Y38203487D01*
X48635321Y38384050D01*
X48635323Y38384056D01*
X48635327Y38384062D01*
X48724482Y38579285D01*
X48724482Y38579287D01*
X48724484Y38579290D01*
X48784954Y38785231D01*
X48815500Y38997682D01*
X48815500Y39105000D01*
X48815500Y39105500D01*
X48815500Y43602788D01*
X48815658Y43607212D01*
X48820492Y43674797D01*
X48832049Y43821640D01*
X48833276Y43829955D01*
X48833277Y43829956D01*
X48844169Y43880029D01*
X48853902Y43924769D01*
X48865971Y43975039D01*
X48881860Y44041226D01*
X48884051Y44048402D01*
X48919986Y44144748D01*
X48943801Y44202242D01*
X48987641Y44256643D01*
X49053935Y44278708D01*
X49121634Y44261429D01*
G37*
G04 #@! TD.AperFunction*
M02*
