G04 #@! TF.GenerationSoftware,KiCad,Pcbnew,7.0.9*
G04 #@! TF.CreationDate,2023-12-24T20:12:45-08:00*
G04 #@! TF.ProjectId,4k-mania-keypad,346b2d6d-616e-4696-912d-6b6579706164,rev?*
G04 #@! TF.SameCoordinates,Original*
G04 #@! TF.FileFunction,Copper,L1,Top*
G04 #@! TF.FilePolarity,Positive*
%FSLAX46Y46*%
G04 Gerber Fmt 4.6, Leading zero omitted, Abs format (unit mm)*
G04 Created by KiCad (PCBNEW 7.0.9) date 2023-12-24 20:12:45*
%MOMM*%
%LPD*%
G01*
G04 APERTURE LIST*
G04 Aperture macros list*
%AMRoundRect*
0 Rectangle with rounded corners*
0 $1 Rounding radius*
0 $2 $3 $4 $5 $6 $7 $8 $9 X,Y pos of 4 corners*
0 Add a 4 corners polygon primitive as box body*
4,1,4,$2,$3,$4,$5,$6,$7,$8,$9,$2,$3,0*
0 Add four circle primitives for the rounded corners*
1,1,$1+$1,$2,$3*
1,1,$1+$1,$4,$5*
1,1,$1+$1,$6,$7*
1,1,$1+$1,$8,$9*
0 Add four rect primitives between the rounded corners*
20,1,$1+$1,$2,$3,$4,$5,0*
20,1,$1+$1,$4,$5,$6,$7,0*
20,1,$1+$1,$6,$7,$8,$9,0*
20,1,$1+$1,$8,$9,$2,$3,0*%
G04 Aperture macros list end*
G04 #@! TA.AperFunction,SMDPad,CuDef*
%ADD10RoundRect,0.135000X-0.185000X0.135000X-0.185000X-0.135000X0.185000X-0.135000X0.185000X0.135000X0*%
G04 #@! TD*
G04 #@! TA.AperFunction,SMDPad,CuDef*
%ADD11RoundRect,0.150000X-0.150000X-0.275000X0.150000X-0.275000X0.150000X0.275000X-0.150000X0.275000X0*%
G04 #@! TD*
G04 #@! TA.AperFunction,SMDPad,CuDef*
%ADD12RoundRect,0.175000X-0.175000X-0.225000X0.175000X-0.225000X0.175000X0.225000X-0.175000X0.225000X0*%
G04 #@! TD*
G04 #@! TA.AperFunction,SMDPad,CuDef*
%ADD13RoundRect,0.135000X0.185000X-0.135000X0.185000X0.135000X-0.185000X0.135000X-0.185000X-0.135000X0*%
G04 #@! TD*
G04 #@! TA.AperFunction,SMDPad,CuDef*
%ADD14RoundRect,0.140000X0.170000X-0.140000X0.170000X0.140000X-0.170000X0.140000X-0.170000X-0.140000X0*%
G04 #@! TD*
G04 #@! TA.AperFunction,SMDPad,CuDef*
%ADD15RoundRect,0.140000X0.140000X0.170000X-0.140000X0.170000X-0.140000X-0.170000X0.140000X-0.170000X0*%
G04 #@! TD*
G04 #@! TA.AperFunction,ComponentPad*
%ADD16R,2.000000X2.000000*%
G04 #@! TD*
G04 #@! TA.AperFunction,ComponentPad*
%ADD17C,2.000000*%
G04 #@! TD*
G04 #@! TA.AperFunction,ComponentPad*
%ADD18R,3.200000X2.000000*%
G04 #@! TD*
G04 #@! TA.AperFunction,SMDPad,CuDef*
%ADD19RoundRect,0.140000X-0.170000X0.140000X-0.170000X-0.140000X0.170000X-0.140000X0.170000X0.140000X0*%
G04 #@! TD*
G04 #@! TA.AperFunction,SMDPad,CuDef*
%ADD20RoundRect,0.140000X-0.140000X-0.170000X0.140000X-0.170000X0.140000X0.170000X-0.140000X0.170000X0*%
G04 #@! TD*
G04 #@! TA.AperFunction,SMDPad,CuDef*
%ADD21RoundRect,0.050000X0.050000X-0.387500X0.050000X0.387500X-0.050000X0.387500X-0.050000X-0.387500X0*%
G04 #@! TD*
G04 #@! TA.AperFunction,SMDPad,CuDef*
%ADD22RoundRect,0.050000X0.387500X-0.050000X0.387500X0.050000X-0.387500X0.050000X-0.387500X-0.050000X0*%
G04 #@! TD*
G04 #@! TA.AperFunction,ComponentPad*
%ADD23C,0.600000*%
G04 #@! TD*
G04 #@! TA.AperFunction,SMDPad,CuDef*
%ADD24RoundRect,0.144000X1.456000X-1.456000X1.456000X1.456000X-1.456000X1.456000X-1.456000X-1.456000X0*%
G04 #@! TD*
G04 #@! TA.AperFunction,SMDPad,CuDef*
%ADD25RoundRect,0.150000X0.475000X0.150000X-0.475000X0.150000X-0.475000X-0.150000X0.475000X-0.150000X0*%
G04 #@! TD*
G04 #@! TA.AperFunction,SMDPad,CuDef*
%ADD26RoundRect,0.147500X0.147500X0.172500X-0.147500X0.172500X-0.147500X-0.172500X0.147500X-0.172500X0*%
G04 #@! TD*
G04 #@! TA.AperFunction,SMDPad,CuDef*
%ADD27RoundRect,0.150000X0.150000X-0.650000X0.150000X0.650000X-0.150000X0.650000X-0.150000X-0.650000X0*%
G04 #@! TD*
G04 #@! TA.AperFunction,SMDPad,CuDef*
%ADD28R,1.800000X1.100000*%
G04 #@! TD*
G04 #@! TA.AperFunction,SMDPad,CuDef*
%ADD29RoundRect,0.150000X0.150000X-0.512500X0.150000X0.512500X-0.150000X0.512500X-0.150000X-0.512500X0*%
G04 #@! TD*
G04 #@! TA.AperFunction,SMDPad,CuDef*
%ADD30R,0.540000X1.100000*%
G04 #@! TD*
G04 #@! TA.AperFunction,SMDPad,CuDef*
%ADD31R,0.300000X1.100000*%
G04 #@! TD*
G04 #@! TA.AperFunction,ComponentPad*
%ADD32O,1.200000X2.250000*%
G04 #@! TD*
G04 #@! TA.AperFunction,SMDPad,CuDef*
%ADD33RoundRect,0.135000X0.135000X0.185000X-0.135000X0.185000X-0.135000X-0.185000X0.135000X-0.185000X0*%
G04 #@! TD*
G04 #@! TA.AperFunction,SMDPad,CuDef*
%ADD34RoundRect,0.147500X-0.147500X-0.172500X0.147500X-0.172500X0.147500X0.172500X-0.147500X0.172500X0*%
G04 #@! TD*
G04 #@! TA.AperFunction,SMDPad,CuDef*
%ADD35RoundRect,0.250000X-0.625000X0.375000X-0.625000X-0.375000X0.625000X-0.375000X0.625000X0.375000X0*%
G04 #@! TD*
G04 #@! TA.AperFunction,SMDPad,CuDef*
%ADD36R,1.400000X1.200000*%
G04 #@! TD*
G04 #@! TA.AperFunction,ComponentPad*
%ADD37C,3.300000*%
G04 #@! TD*
G04 #@! TA.AperFunction,ViaPad*
%ADD38C,0.600000*%
G04 #@! TD*
G04 #@! TA.AperFunction,Conductor*
%ADD39C,0.300000*%
G04 #@! TD*
G04 #@! TA.AperFunction,Conductor*
%ADD40C,0.200000*%
G04 #@! TD*
G04 #@! TA.AperFunction,Conductor*
%ADD41C,0.250000*%
G04 #@! TD*
G04 #@! TA.AperFunction,Conductor*
%ADD42C,0.254000*%
G04 #@! TD*
G04 APERTURE END LIST*
D10*
X168010000Y-81490000D03*
X168010000Y-82510000D03*
D11*
X155000000Y-92725000D03*
X156200000Y-92725000D03*
X157400000Y-92725000D03*
D12*
X153850000Y-96500000D03*
X158550000Y-96500000D03*
D13*
X154076971Y-82288492D03*
X154076971Y-81268492D03*
D14*
X178724949Y-82012362D03*
X178724949Y-81052362D03*
X175000000Y-82000000D03*
X175000000Y-81040000D03*
D15*
X172430000Y-83500000D03*
X171470000Y-83500000D03*
D16*
X111500000Y-89500000D03*
D17*
X111500000Y-84500000D03*
X111500000Y-87000000D03*
D18*
X104000000Y-92600000D03*
X104000000Y-81400000D03*
D17*
X97000000Y-84500000D03*
X97000000Y-89500000D03*
D19*
X180503016Y-92887655D03*
X180503016Y-93847655D03*
D16*
X190500000Y-84500000D03*
D17*
X190500000Y-89500000D03*
X190500000Y-87000000D03*
D18*
X198000000Y-81400000D03*
X198000000Y-92600000D03*
D17*
X205000000Y-89500000D03*
X205000000Y-84500000D03*
D14*
X150598623Y-89273878D03*
X150598623Y-88313878D03*
X184194884Y-88787580D03*
X184194884Y-87827580D03*
D20*
X182820000Y-85000000D03*
X183780000Y-85000000D03*
D21*
X175125000Y-90162500D03*
X175525000Y-90162500D03*
X175925000Y-90162500D03*
X176325000Y-90162500D03*
X176725000Y-90162500D03*
X177125000Y-90162500D03*
X177525000Y-90162500D03*
X177925000Y-90162500D03*
X178325000Y-90162500D03*
X178725000Y-90162500D03*
X179125000Y-90162500D03*
X179525000Y-90162500D03*
X179925000Y-90162500D03*
X180325000Y-90162500D03*
D22*
X181162500Y-89325000D03*
X181162500Y-88925000D03*
X181162500Y-88525000D03*
X181162500Y-88125000D03*
X181162500Y-87725000D03*
X181162500Y-87325000D03*
X181162500Y-86925000D03*
X181162500Y-86525000D03*
X181162500Y-86125000D03*
X181162500Y-85725000D03*
X181162500Y-85325000D03*
X181162500Y-84925000D03*
X181162500Y-84525000D03*
X181162500Y-84125000D03*
D21*
X180325000Y-83287500D03*
X179925000Y-83287500D03*
X179525000Y-83287500D03*
X179125000Y-83287500D03*
X178725000Y-83287500D03*
X178325000Y-83287500D03*
X177925000Y-83287500D03*
X177525000Y-83287500D03*
X177125000Y-83287500D03*
X176725000Y-83287500D03*
X176325000Y-83287500D03*
X175925000Y-83287500D03*
X175525000Y-83287500D03*
X175125000Y-83287500D03*
D22*
X174287500Y-84125000D03*
X174287500Y-84525000D03*
X174287500Y-84925000D03*
X174287500Y-85325000D03*
X174287500Y-85725000D03*
X174287500Y-86125000D03*
X174287500Y-86525000D03*
X174287500Y-86925000D03*
X174287500Y-87325000D03*
X174287500Y-87725000D03*
X174287500Y-88125000D03*
X174287500Y-88525000D03*
X174287500Y-88925000D03*
X174287500Y-89325000D03*
D23*
X176450000Y-88000000D03*
X177725000Y-88000000D03*
X179000000Y-88000000D03*
X176450000Y-86725000D03*
X177725000Y-86725000D03*
D24*
X177725000Y-86725000D03*
D23*
X179000000Y-86725000D03*
X176450000Y-85450000D03*
X177725000Y-85450000D03*
X179000000Y-85450000D03*
D20*
X148032333Y-85002567D03*
X148992333Y-85002567D03*
D25*
X152670811Y-83790097D03*
X152670811Y-82840097D03*
X152670811Y-81890097D03*
X150320811Y-81890097D03*
X150320811Y-82840097D03*
X150320811Y-83790097D03*
D15*
X170851995Y-86355768D03*
X169891995Y-86355768D03*
D26*
X99485000Y-95000000D03*
X98515000Y-95000000D03*
D27*
X161298268Y-90441352D03*
X162568268Y-90441352D03*
X163838268Y-90441352D03*
X165108268Y-90441352D03*
X165108268Y-83241352D03*
X163838268Y-83241352D03*
X162568268Y-83241352D03*
X161298268Y-83241352D03*
D28*
X140260000Y-90750000D03*
X134060000Y-87050000D03*
X140260000Y-87050000D03*
X134060000Y-90750000D03*
D29*
X147060236Y-89262469D03*
X148960236Y-89262469D03*
X148010236Y-86987469D03*
D20*
X187320000Y-85000000D03*
X188280000Y-85000000D03*
D30*
X154190000Y-80140000D03*
X153440000Y-80140000D03*
D31*
X152240000Y-80140000D03*
X151240000Y-80140000D03*
X150740000Y-80140000D03*
X149740000Y-80140000D03*
D30*
X148540000Y-80140000D03*
X147790000Y-80140000D03*
X147790000Y-80140000D03*
X148540000Y-80140000D03*
D31*
X149240000Y-80140000D03*
X150240000Y-80140000D03*
X151740000Y-80140000D03*
X152740000Y-80140000D03*
D30*
X153440000Y-80140000D03*
X154190000Y-80140000D03*
D32*
X156585000Y-74260000D03*
X156565000Y-78860000D03*
X145435000Y-74260000D03*
X145415000Y-78860000D03*
D14*
X152144211Y-89276155D03*
X152144211Y-88316155D03*
D33*
X186310000Y-85000000D03*
X185290000Y-85000000D03*
D34*
X204015000Y-95500000D03*
X204985000Y-95500000D03*
D15*
X172430000Y-84500000D03*
X171470000Y-84500000D03*
X174591623Y-91458657D03*
X173631623Y-91458657D03*
D35*
X146448102Y-81170030D03*
X146448102Y-83970030D03*
D20*
X182840000Y-86000000D03*
X183800000Y-86000000D03*
D36*
X187900000Y-86650000D03*
X185700000Y-86650000D03*
X185700000Y-88350000D03*
X187900000Y-88350000D03*
D11*
X145000000Y-92725000D03*
X146200000Y-92725000D03*
X147400000Y-92725000D03*
D12*
X143850000Y-96500000D03*
X148550000Y-96500000D03*
D10*
X143287931Y-89751573D03*
X143287931Y-90771573D03*
D15*
X170851995Y-87355768D03*
X169891995Y-87355768D03*
D10*
X148642794Y-81840130D03*
X148642794Y-82860130D03*
X169000000Y-81490000D03*
X169000000Y-82510000D03*
D37*
X173270000Y-105460000D03*
X179620000Y-102920000D03*
X192190000Y-105460000D03*
X198540000Y-102920000D03*
X119900000Y-105540000D03*
X126250000Y-103000000D03*
X100900000Y-105540000D03*
X107250000Y-103000000D03*
D38*
X149891273Y-85030860D03*
X165100000Y-84923250D03*
X182936064Y-88788242D03*
X181000000Y-94500000D03*
X168774399Y-85833732D03*
X148634149Y-83577919D03*
X173000000Y-91000000D03*
X186700498Y-87000000D03*
X161816386Y-85572750D03*
X172000000Y-86324500D03*
X175761124Y-84873836D03*
X180000000Y-86000000D03*
X175106307Y-86934522D03*
X101500000Y-95000000D03*
X182487919Y-93286515D03*
X101500000Y-96000000D03*
X183000000Y-93900500D03*
X182200000Y-84300000D03*
X152400000Y-91440000D03*
X112500000Y-94400500D03*
X181798495Y-92701500D03*
X113500000Y-93801000D03*
X181135844Y-92102000D03*
D39*
X148010236Y-86987469D02*
X148010236Y-85024664D01*
X148032333Y-85002567D02*
X147480639Y-85002567D01*
X148010236Y-85024664D02*
X148032333Y-85002567D01*
X147480639Y-85002567D02*
X146448102Y-83970030D01*
X173458657Y-91458657D02*
X173000000Y-91000000D01*
X180503016Y-93847655D02*
X180503016Y-94003016D01*
X186700498Y-87450498D02*
X187600000Y-88350000D01*
D40*
X181162500Y-87725000D02*
X181694975Y-87725000D01*
D39*
X180503016Y-94003016D02*
X181000000Y-94500000D01*
X148992333Y-85002567D02*
X149862980Y-85002567D01*
X185800000Y-86650000D02*
X185700000Y-86650000D01*
X147790000Y-80140000D02*
X146695000Y-80140000D01*
X183800000Y-86000000D02*
X183800000Y-85020000D01*
X186150000Y-87000000D02*
X185800000Y-86650000D01*
X186700498Y-87000000D02*
X186150000Y-87000000D01*
X148642794Y-82860130D02*
X148642794Y-83569274D01*
X168774399Y-85833732D02*
X169369959Y-85833732D01*
X149862980Y-85002567D02*
X149891273Y-85030860D01*
X184194884Y-88787580D02*
X182936726Y-88787580D01*
X173631623Y-91458657D02*
X173458657Y-91458657D01*
X153525366Y-82840097D02*
X154076971Y-82288492D01*
X186700498Y-87000000D02*
X186700498Y-87450498D01*
X148642794Y-83569274D02*
X148634149Y-83577919D01*
X169891995Y-87355768D02*
X169891995Y-86355768D01*
X171470000Y-84500000D02*
X171470000Y-83500000D01*
X182936726Y-88787580D02*
X182936064Y-88788242D01*
X187500000Y-88350000D02*
X187900000Y-88350000D01*
X146695000Y-80140000D02*
X145415000Y-78860000D01*
X187600000Y-88350000D02*
X187900000Y-88350000D01*
X169369959Y-85833732D02*
X169891995Y-86355768D01*
D40*
X181694975Y-87725000D02*
X182758217Y-88788242D01*
D39*
X183800000Y-85020000D02*
X183780000Y-85000000D01*
D40*
X182758217Y-88788242D02*
X182936064Y-88788242D01*
D39*
X152670811Y-82840097D02*
X153525366Y-82840097D01*
D40*
X178725000Y-89630025D02*
X178725000Y-90162500D01*
X173055000Y-84125000D02*
X172430000Y-83500000D01*
X175125000Y-83287500D02*
X175125000Y-82125000D01*
X175755025Y-89000000D02*
X179000000Y-89000000D01*
D39*
X143844985Y-89751573D02*
X145083412Y-90990000D01*
D40*
X178725000Y-91725000D02*
X179887655Y-92887655D01*
D39*
X150587214Y-89262469D02*
X150598623Y-89273878D01*
D40*
X174985661Y-84525000D02*
X174121815Y-84525000D01*
D39*
X150598623Y-89273878D02*
X152141934Y-89273878D01*
X152141934Y-89273878D02*
X152144211Y-89276155D01*
D40*
X181162500Y-86525000D02*
X180630025Y-86525000D01*
X178725000Y-83819975D02*
X178519975Y-84025000D01*
X174287500Y-86525000D02*
X173900000Y-86525000D01*
D39*
X145083412Y-90990000D02*
X149860000Y-90990000D01*
D40*
X179887655Y-92887655D02*
X180503016Y-92887655D01*
D39*
X172000000Y-86324500D02*
X170883263Y-86324500D01*
X149860000Y-90990000D02*
X150598623Y-90251377D01*
D40*
X175125000Y-82125000D02*
X175000000Y-82000000D01*
X174287500Y-86125000D02*
X173500000Y-86125000D01*
X175125000Y-90162500D02*
X175125000Y-90925280D01*
X174287500Y-84525000D02*
X173850000Y-84525000D01*
X173500000Y-86125000D02*
X172199500Y-86125000D01*
X180000000Y-87155025D02*
X180000000Y-88355026D01*
D39*
X161298268Y-83241352D02*
X159040258Y-83241352D01*
D40*
X175125000Y-90925280D02*
X174591623Y-91458657D01*
X175755025Y-84879935D02*
X175755025Y-85294364D01*
D39*
X148960236Y-89262469D02*
X150587214Y-89262469D01*
D40*
X178724949Y-82704949D02*
X178725000Y-82705000D01*
X175125000Y-83819975D02*
X175125000Y-83287500D01*
X175755025Y-89000000D02*
X175755025Y-85294364D01*
X180000000Y-88355026D02*
X179177513Y-89177513D01*
D39*
X170883263Y-86324500D02*
X170851995Y-86355768D01*
D40*
X173900000Y-86525000D02*
X173500000Y-86125000D01*
X175761124Y-84873836D02*
X175755025Y-84879935D01*
X174985661Y-84369364D02*
X175330025Y-84025000D01*
X178724949Y-82012362D02*
X178724949Y-82704949D01*
X178725000Y-82705000D02*
X178725000Y-83287500D01*
D39*
X153005455Y-89276155D02*
X152144211Y-89276155D01*
X161298268Y-83241352D02*
X161298268Y-85054632D01*
D40*
X178725000Y-83287500D02*
X178725000Y-83819975D01*
X172199500Y-86125000D02*
X172000000Y-86324500D01*
X179177513Y-89177513D02*
X178725000Y-89630025D01*
X182315000Y-86525000D02*
X182840000Y-86000000D01*
D39*
X159040258Y-83241352D02*
X153005455Y-89276155D01*
D40*
X175125000Y-90162500D02*
X175125000Y-89630025D01*
X175330025Y-84025000D02*
X175125000Y-83819975D01*
X180630025Y-86525000D02*
X180000000Y-87155025D01*
X179000000Y-89000000D02*
X179177513Y-89177513D01*
X175755025Y-85294364D02*
X174985661Y-84525000D01*
X174985661Y-84525000D02*
X174985661Y-84369364D01*
D39*
X143287931Y-89751573D02*
X143844985Y-89751573D01*
D40*
X173850000Y-84525000D02*
X173450000Y-84125000D01*
X181162500Y-86525000D02*
X182315000Y-86525000D01*
X174287500Y-84125000D02*
X173450000Y-84125000D01*
D39*
X161298268Y-85054632D02*
X161816386Y-85572750D01*
D40*
X175125000Y-89630025D02*
X175755025Y-89000000D01*
D39*
X150598623Y-90251377D02*
X150598623Y-89273878D01*
D40*
X173450000Y-84125000D02*
X173055000Y-84125000D01*
X178519975Y-84025000D02*
X175330025Y-84025000D01*
X178725000Y-90500000D02*
X178725000Y-91725000D01*
X184717304Y-88350000D02*
X184194884Y-87827580D01*
X185700000Y-88350000D02*
X184717304Y-88350000D01*
X181162500Y-87325000D02*
X183692304Y-87325000D01*
X184194884Y-87827580D02*
X183692304Y-87325000D01*
X187900000Y-86650000D02*
X187900000Y-85380000D01*
X187900000Y-86650000D02*
X187900000Y-85850000D01*
X187900000Y-85380000D02*
X188280000Y-85000000D01*
X187660000Y-85610000D02*
X186920000Y-85610000D01*
X186920000Y-85610000D02*
X186310000Y-85000000D01*
X187900000Y-85850000D02*
X187660000Y-85610000D01*
X174819975Y-84925000D02*
X175025000Y-85130025D01*
X174819975Y-86925000D02*
X174287500Y-86925000D01*
X171282763Y-86925000D02*
X174287500Y-86925000D01*
X182820000Y-85000000D02*
X182819975Y-85000000D01*
X170851995Y-87355768D02*
X171282763Y-86925000D01*
X175025000Y-85130025D02*
X175025000Y-86719975D01*
X175025000Y-86719975D02*
X174819975Y-86925000D01*
X181694975Y-86125000D02*
X181162500Y-86125000D01*
X172855000Y-84925000D02*
X174287500Y-84925000D01*
X172430000Y-84500000D02*
X172855000Y-84925000D01*
X182819975Y-85000000D02*
X181694975Y-86125000D01*
X174819975Y-86925000D02*
X175096785Y-86925000D01*
X180000000Y-86000000D02*
X180125000Y-86125000D01*
X174287500Y-84925000D02*
X174819975Y-84925000D01*
X175096785Y-86925000D02*
X175106307Y-86934522D01*
X180125000Y-86125000D02*
X181000000Y-86125000D01*
X99485000Y-95000000D02*
X101500000Y-95000000D01*
X180500000Y-91100000D02*
X180330025Y-91100000D01*
X182487919Y-93286515D02*
X182487919Y-92039861D01*
X179925000Y-90694975D02*
X179925000Y-90000000D01*
X182487919Y-92039861D02*
X181548058Y-91100000D01*
X181548058Y-91100000D02*
X180500000Y-91100000D01*
X180330025Y-91100000D02*
X179925000Y-90694975D01*
X98500000Y-94985000D02*
X98515000Y-95000000D01*
X97000000Y-84500000D02*
X98500000Y-86000000D01*
X98500000Y-86000000D02*
X98500000Y-86300000D01*
X98500000Y-86300000D02*
X98500000Y-94985000D01*
X97000000Y-94437861D02*
X98562139Y-96000000D01*
X180325000Y-90162500D02*
X181176244Y-90162500D01*
X183087919Y-93812581D02*
X183000000Y-93900500D01*
X183087919Y-92074175D02*
X183087919Y-93812581D01*
X98562139Y-96000000D02*
X101500000Y-96000000D01*
X97000000Y-89500000D02*
X97000000Y-94437861D01*
X181176244Y-90162500D02*
X183087919Y-92074175D01*
X205000000Y-95485000D02*
X205000000Y-89500000D01*
X204985000Y-95500000D02*
X205000000Y-95485000D01*
D41*
X148540000Y-79340000D02*
X149125223Y-78754777D01*
X149370811Y-83820000D02*
X149370811Y-83165098D01*
D40*
X150337048Y-82973836D02*
X150648444Y-82973836D01*
D41*
X152754777Y-78754777D02*
X153440000Y-79440000D01*
X148987892Y-84202919D02*
X149370811Y-83820000D01*
D39*
X146440247Y-81012932D02*
X146467315Y-81040000D01*
D41*
X153440000Y-79440000D02*
X153440000Y-80140000D01*
X149695812Y-82840097D02*
X150320811Y-82840097D01*
X148540000Y-80140000D02*
X148540000Y-80940000D01*
X147701336Y-83528990D02*
X148375265Y-84202919D01*
X148540000Y-80140000D02*
X148540000Y-79340000D01*
X147320000Y-81170030D02*
X146448102Y-81170030D01*
X147701336Y-81551366D02*
X147701336Y-83528990D01*
X148540000Y-80940000D02*
X148309970Y-81170030D01*
X149370811Y-83165098D02*
X149695812Y-82840097D01*
X149125223Y-78754777D02*
X152754777Y-78754777D01*
X148375265Y-84202919D02*
X148987892Y-84202919D01*
X148309970Y-81170030D02*
X147320000Y-81170030D01*
D39*
X150320811Y-82840097D02*
X149934549Y-82840097D01*
D41*
X147320000Y-81170030D02*
X147701336Y-81551366D01*
D40*
X152240000Y-80140000D02*
X152240000Y-80893600D01*
X152240000Y-80893600D02*
X152614892Y-81268492D01*
X152614892Y-81268492D02*
X154076971Y-81268492D01*
X150945810Y-81890097D02*
X150320811Y-81890097D01*
X157891197Y-83026607D02*
X157891197Y-81420696D01*
X151220908Y-80990000D02*
X151240000Y-80970908D01*
X151240000Y-80970908D02*
X151240000Y-80140000D01*
X167620000Y-81100000D02*
X168010000Y-81490000D01*
X157891197Y-81420696D02*
X158211893Y-81100000D01*
X151345811Y-82290098D02*
X151345811Y-84798566D01*
X151345811Y-82290098D02*
X150945810Y-81890097D01*
X151345811Y-84798566D02*
X151899024Y-85351778D01*
X150240000Y-80140000D02*
X150240000Y-80940000D01*
X158211893Y-81100000D02*
X167620000Y-81100000D01*
X150240000Y-80940000D02*
X150290000Y-80990000D01*
X155566026Y-85351778D02*
X157891197Y-83026607D01*
X150290000Y-80990000D02*
X151220908Y-80990000D01*
X151240000Y-80970908D02*
X150320811Y-81890097D01*
X151899024Y-85351778D02*
X155566026Y-85351778D01*
X157480000Y-82872118D02*
X157480000Y-81266208D01*
X150740000Y-80140000D02*
X150740000Y-79340000D01*
X150740000Y-79340000D02*
X150790000Y-79290000D01*
X151745811Y-82190098D02*
X152045812Y-81890097D01*
X151690000Y-79290000D02*
X151740000Y-79340000D01*
X168210000Y-80700000D02*
X169000000Y-81490000D01*
X151740000Y-80140000D02*
X151740000Y-80959286D01*
X150790000Y-79290000D02*
X151690000Y-79290000D01*
X158046208Y-80700000D02*
X168210000Y-80700000D01*
X157480000Y-81266208D02*
X158046208Y-80700000D01*
X151745811Y-82190098D02*
X151745811Y-84632880D01*
X151740000Y-79340000D02*
X151740000Y-80140000D01*
D42*
X169000000Y-81490000D02*
X168987108Y-81490000D01*
D40*
X155400340Y-84951778D02*
X157480000Y-82872118D01*
X152064709Y-84951778D02*
X155400340Y-84951778D01*
X152045812Y-81890097D02*
X152670811Y-81890097D01*
X151740000Y-80959286D02*
X152670811Y-81890097D01*
X151745811Y-84632880D02*
X152064709Y-84951778D01*
X148642794Y-81840130D02*
X149240000Y-81242924D01*
X149240000Y-81242924D02*
X149240000Y-80140000D01*
X177525000Y-92803430D02*
X174828430Y-95500000D01*
X177525000Y-90162500D02*
X177525000Y-92803430D01*
X147775000Y-95500000D02*
X145000000Y-92725000D01*
X174828430Y-95500000D02*
X147775000Y-95500000D01*
X148475000Y-95000000D02*
X146200000Y-92725000D01*
X174762744Y-95000000D02*
X148475000Y-95000000D01*
X177125000Y-92637744D02*
X174762744Y-95000000D01*
X177125000Y-90162500D02*
X177125000Y-92637744D01*
X149175000Y-94500000D02*
X147400000Y-92725000D01*
X176725000Y-92472058D02*
X174697058Y-94500000D01*
X176725000Y-90162500D02*
X176725000Y-92472058D01*
X174697058Y-94500000D02*
X149175000Y-94500000D01*
X176325000Y-90162500D02*
X176325000Y-92306372D01*
X156275000Y-94000000D02*
X155000000Y-92725000D01*
X174631372Y-94000000D02*
X156275000Y-94000000D01*
X176325000Y-92306372D02*
X174631372Y-94000000D01*
X156975000Y-93500000D02*
X156200000Y-92725000D01*
X175925000Y-92140686D02*
X174565686Y-93500000D01*
X174565686Y-93500000D02*
X156975000Y-93500000D01*
X175925000Y-90162500D02*
X175925000Y-92140686D01*
X175525000Y-90162500D02*
X175525000Y-91975000D01*
X174700000Y-92800000D02*
X157475000Y-92800000D01*
X175525000Y-91975000D02*
X174700000Y-92800000D01*
X157475000Y-92800000D02*
X157400000Y-92725000D01*
X181162500Y-86925000D02*
X183857990Y-86925000D01*
X184380000Y-86420000D02*
X184380000Y-85910000D01*
X183875000Y-86925000D02*
X184380000Y-86420000D01*
X184380000Y-85910000D02*
X185290000Y-85000000D01*
X143287931Y-90771573D02*
X144111573Y-90771573D01*
X181694975Y-84925000D02*
X182200000Y-84419975D01*
X143266358Y-90750000D02*
X143287931Y-90771573D01*
X181162500Y-84925000D02*
X181694975Y-84925000D01*
X140260000Y-90750000D02*
X143266358Y-90750000D01*
X144780000Y-91440000D02*
X152400000Y-91440000D01*
X144111573Y-90771573D02*
X144780000Y-91440000D01*
X182200000Y-84419975D02*
X182200000Y-84300000D01*
X189100000Y-85900000D02*
X190500000Y-84500000D01*
X189100000Y-89050000D02*
X189100000Y-85900000D01*
X182800000Y-89500000D02*
X188650000Y-89500000D01*
X188650000Y-89500000D02*
X189100000Y-89050000D01*
X182225000Y-88925000D02*
X182800000Y-89500000D01*
X181162500Y-88925000D02*
X182225000Y-88925000D01*
X182300000Y-89900000D02*
X190100000Y-89900000D01*
X181725000Y-89325000D02*
X182300000Y-89900000D01*
X181162500Y-89325000D02*
X181725000Y-89325000D01*
X190100000Y-89900000D02*
X190500000Y-89500000D01*
X177925000Y-90162500D02*
X177925000Y-92839215D01*
X177925000Y-92839215D02*
X180585786Y-95500000D01*
X204015000Y-95500000D02*
X180585786Y-95500000D01*
X181382373Y-91500000D02*
X180000000Y-91500000D01*
X111500000Y-93400500D02*
X111500000Y-89500000D01*
X179525000Y-91025000D02*
X179525000Y-90500000D01*
X181798495Y-92701500D02*
X181798495Y-91916122D01*
X181798495Y-91916122D02*
X181382373Y-91500000D01*
X112500000Y-94400500D02*
X111500000Y-93400500D01*
X180000000Y-91500000D02*
X179525000Y-91025000D01*
X113500000Y-86500000D02*
X111500000Y-84500000D01*
X179125000Y-91235314D02*
X179125000Y-90500000D01*
X113500000Y-93801000D02*
X113500000Y-86500000D01*
X179829686Y-91940000D02*
X179125000Y-91235314D01*
X181135844Y-92102000D02*
X180973844Y-91940000D01*
X180973844Y-91940000D02*
X179829686Y-91940000D01*
X178325000Y-92673529D02*
X178325000Y-90162500D01*
X203300000Y-94400000D02*
X202600000Y-95100000D01*
X180751471Y-95100000D02*
X178325000Y-92673529D01*
X202600000Y-95100000D02*
X180751471Y-95100000D01*
X205000000Y-84500000D02*
X203300000Y-86200000D01*
X203300000Y-86200000D02*
X203300000Y-94400000D01*
X162568268Y-83070800D02*
X163897716Y-81741352D01*
X169600093Y-88000000D02*
X171450000Y-88000000D01*
X171450000Y-88000000D02*
X172125000Y-87325000D01*
X162568268Y-83241352D02*
X162568268Y-83070800D01*
X172125000Y-87325000D02*
X174287500Y-87325000D01*
X163897716Y-81741352D02*
X166175666Y-81741352D01*
X166175666Y-81741352D02*
X167640000Y-83205686D01*
X167640000Y-83205686D02*
X167640000Y-86039907D01*
X167640000Y-86039907D02*
X169600093Y-88000000D01*
X172406061Y-87725000D02*
X171731061Y-88400000D01*
X174287500Y-87725000D02*
X172406061Y-87725000D01*
X167240000Y-86205592D02*
X167240000Y-83371372D01*
X171731061Y-88400000D02*
X169434407Y-88400000D01*
X164767716Y-82141352D02*
X166009980Y-82141352D01*
X163838268Y-83241352D02*
X163838268Y-83070800D01*
X169434407Y-88400000D02*
X167240000Y-86205592D01*
X163838268Y-83070800D02*
X164767716Y-82141352D01*
X166009980Y-82141352D02*
X167240000Y-83371372D01*
X172571747Y-88125000D02*
X172323373Y-88373374D01*
X165108268Y-83241352D02*
X165423934Y-82925686D01*
X165423934Y-82925686D02*
X166228628Y-82925686D01*
X171896746Y-88800000D02*
X172323374Y-88373373D01*
X174287500Y-88125000D02*
X172571747Y-88125000D01*
X166228628Y-82925686D02*
X166840000Y-83537058D01*
X169268721Y-88800000D02*
X171896746Y-88800000D01*
X166840000Y-86371277D02*
X169268721Y-88800000D01*
X166840000Y-83537058D02*
X166840000Y-86371277D01*
X169721081Y-91541352D02*
X164138269Y-91541352D01*
X164138269Y-91541352D02*
X163838268Y-91241351D01*
X174287500Y-88525000D02*
X172737433Y-88525000D01*
X172737433Y-88525000D02*
X169721081Y-91541352D01*
X163838268Y-91241351D02*
X163838268Y-90441352D01*
X163061352Y-91941352D02*
X162568268Y-91448268D01*
X170008648Y-91941352D02*
X163061352Y-91941352D01*
X173025000Y-88925000D02*
X170008648Y-91941352D01*
X162568268Y-91448268D02*
X162568268Y-90441352D01*
X174287500Y-88925000D02*
X173025000Y-88925000D01*
X174287500Y-89325000D02*
X173190686Y-89325000D01*
X162398269Y-92341352D02*
X161298268Y-91241351D01*
X161298268Y-91241351D02*
X161298268Y-90441352D01*
X173190686Y-89325000D02*
X170174333Y-92341352D01*
X170174333Y-92341352D02*
X162398269Y-92341352D01*
X168250000Y-83250000D02*
X168250000Y-84000000D01*
X168010000Y-82510000D02*
X168000000Y-82520000D01*
X168250000Y-84000000D02*
X169975000Y-85725000D01*
X168000000Y-82520000D02*
X168000000Y-83000000D01*
X168000000Y-83000000D02*
X168250000Y-83250000D01*
X169975000Y-85725000D02*
X174287500Y-85725000D01*
X168750000Y-83934314D02*
X170140686Y-85325000D01*
X168750000Y-83250000D02*
X168750000Y-83934314D01*
X169000000Y-82510000D02*
X169000000Y-83000000D01*
X170140686Y-85325000D02*
X174287500Y-85325000D01*
X169000000Y-83000000D02*
X168750000Y-83250000D01*
G04 #@! TA.AperFunction,Conductor*
G36*
X144306634Y-73343571D02*
G01*
X144354245Y-73394708D01*
X144366651Y-73463468D01*
X144365120Y-73473679D01*
X144335000Y-73629961D01*
X144335000Y-74010000D01*
X145135000Y-74010000D01*
X145135000Y-74510000D01*
X144335000Y-74510000D01*
X144335000Y-74837398D01*
X144349965Y-74994122D01*
X144349966Y-74994126D01*
X144409149Y-75195686D01*
X144505413Y-75382414D01*
X144635268Y-75547537D01*
X144635271Y-75547540D01*
X144794030Y-75685105D01*
X144794041Y-75685114D01*
X144975960Y-75790144D01*
X144975967Y-75790147D01*
X145174487Y-75858856D01*
X145185000Y-75860367D01*
X145185000Y-74951110D01*
X145209457Y-74990610D01*
X145298962Y-75058201D01*
X145406840Y-75088895D01*
X145518521Y-75078546D01*
X145618922Y-75028552D01*
X145685000Y-74956069D01*
X145685000Y-75856257D01*
X145796409Y-75829229D01*
X145987507Y-75741959D01*
X146158619Y-75620110D01*
X146158625Y-75620104D01*
X146230756Y-75544456D01*
X146291265Y-75509521D01*
X146361055Y-75512846D01*
X146417969Y-75553374D01*
X146443937Y-75618239D01*
X146444499Y-75630026D01*
X146444499Y-76853237D01*
X146441699Y-76879437D01*
X146432860Y-76920326D01*
X146421623Y-76951433D01*
X146421167Y-76952308D01*
X146410613Y-76969121D01*
X146392819Y-76992986D01*
X146379771Y-77007848D01*
X146379160Y-77008441D01*
X146352561Y-77028107D01*
X146315890Y-77048278D01*
X146291403Y-77058507D01*
X146239439Y-77073926D01*
X146128107Y-77142034D01*
X146037952Y-77236409D01*
X146018915Y-77270989D01*
X145969338Y-77320222D01*
X145901014Y-77334837D01*
X145869733Y-77328364D01*
X145675516Y-77261144D01*
X145665000Y-77259632D01*
X145665000Y-78168889D01*
X145640543Y-78129390D01*
X145551038Y-78061799D01*
X145443160Y-78031105D01*
X145331479Y-78041454D01*
X145231078Y-78091448D01*
X145165000Y-78163930D01*
X145165000Y-77263740D01*
X145164999Y-77263740D01*
X145053594Y-77290768D01*
X145053582Y-77290772D01*
X144862497Y-77378037D01*
X144862496Y-77378038D01*
X144691380Y-77499889D01*
X144691374Y-77499895D01*
X144546407Y-77651932D01*
X144432833Y-77828657D01*
X144354755Y-78023685D01*
X144315000Y-78229962D01*
X144315000Y-78610000D01*
X145115000Y-78610000D01*
X145115000Y-79110000D01*
X144315000Y-79110000D01*
X144315000Y-79437398D01*
X144329965Y-79594122D01*
X144329966Y-79594126D01*
X144389149Y-79795686D01*
X144485413Y-79982414D01*
X144615268Y-80147537D01*
X144615271Y-80147540D01*
X144774030Y-80285105D01*
X144774041Y-80285114D01*
X144955960Y-80390144D01*
X145029318Y-80415533D01*
X145086233Y-80456061D01*
X145112201Y-80520926D01*
X145106469Y-80571717D01*
X145083103Y-80642230D01*
X145083102Y-80642234D01*
X145072602Y-80745013D01*
X145072602Y-81595031D01*
X145072603Y-81595049D01*
X145083102Y-81697826D01*
X145083103Y-81697829D01*
X145115664Y-81796090D01*
X145138288Y-81864364D01*
X145230390Y-82013686D01*
X145354446Y-82137742D01*
X145503768Y-82229844D01*
X145670305Y-82285029D01*
X145773093Y-82295530D01*
X146951836Y-82295529D01*
X147018875Y-82315214D01*
X147064630Y-82368017D01*
X147075836Y-82419529D01*
X147075836Y-82720530D01*
X147056151Y-82787569D01*
X147003347Y-82833324D01*
X146951836Y-82844530D01*
X145773100Y-82844530D01*
X145773083Y-82844531D01*
X145670305Y-82855030D01*
X145670302Y-82855031D01*
X145503770Y-82910215D01*
X145503765Y-82910217D01*
X145354444Y-83002319D01*
X145230391Y-83126372D01*
X145138289Y-83275693D01*
X145138288Y-83275696D01*
X145083103Y-83442233D01*
X145083103Y-83442234D01*
X145083102Y-83442234D01*
X145072602Y-83545013D01*
X145072602Y-84395031D01*
X145072603Y-84395049D01*
X145083102Y-84497826D01*
X145083103Y-84497829D01*
X145138287Y-84664361D01*
X145138289Y-84664366D01*
X145173171Y-84720918D01*
X145230390Y-84813686D01*
X145354446Y-84937742D01*
X145503768Y-85029844D01*
X145670305Y-85085029D01*
X145773093Y-85095530D01*
X146602293Y-85095529D01*
X146669332Y-85115213D01*
X146689974Y-85131848D01*
X146960203Y-85402076D01*
X146970279Y-85414653D01*
X146970466Y-85414499D01*
X146975434Y-85420504D01*
X146975436Y-85420506D01*
X146975437Y-85420507D01*
X146984228Y-85428762D01*
X147027899Y-85469772D01*
X147049600Y-85491474D01*
X147049604Y-85491477D01*
X147049605Y-85491478D01*
X147055398Y-85495971D01*
X147059830Y-85499757D01*
X147095246Y-85533015D01*
X147102156Y-85536814D01*
X147113846Y-85543241D01*
X147130107Y-85553922D01*
X147146876Y-85566930D01*
X147191466Y-85586225D01*
X147196695Y-85588787D01*
X147239271Y-85612194D01*
X147259832Y-85617472D01*
X147278232Y-85623772D01*
X147284988Y-85626696D01*
X147338693Y-85671388D01*
X147359711Y-85738021D01*
X147359736Y-85740495D01*
X147359736Y-86009453D01*
X147342468Y-86072574D01*
X147258491Y-86214572D01*
X147258490Y-86214575D01*
X147212638Y-86372395D01*
X147212637Y-86372401D01*
X147209736Y-86409273D01*
X147209736Y-87565665D01*
X147212637Y-87602536D01*
X147212638Y-87602542D01*
X147258490Y-87760362D01*
X147258491Y-87760365D01*
X147258492Y-87760367D01*
X147290009Y-87813660D01*
X147342153Y-87901831D01*
X147346938Y-87908000D01*
X147345254Y-87909305D01*
X147373482Y-87961000D01*
X147368498Y-88030692D01*
X147336470Y-88078430D01*
X147310236Y-88102671D01*
X147310236Y-89012469D01*
X147860236Y-89012469D01*
X147860236Y-88684325D01*
X147857336Y-88647479D01*
X147857335Y-88647473D01*
X147811519Y-88489775D01*
X147811518Y-88489772D01*
X147723948Y-88341698D01*
X147725669Y-88340680D01*
X147703979Y-88285424D01*
X147717664Y-88216907D01*
X147766219Y-88166666D01*
X147827494Y-88150469D01*
X148192341Y-88150469D01*
X148259380Y-88170154D01*
X148305135Y-88222958D01*
X148315079Y-88292116D01*
X148294564Y-88340465D01*
X148296126Y-88341389D01*
X148208491Y-88489572D01*
X148208490Y-88489575D01*
X148162638Y-88647395D01*
X148162637Y-88647401D01*
X148159736Y-88684273D01*
X148159736Y-89840665D01*
X148162637Y-89877536D01*
X148162638Y-89877542D01*
X148208490Y-90035362D01*
X148208491Y-90035365D01*
X148208492Y-90035367D01*
X148219392Y-90053798D01*
X148277692Y-90152379D01*
X148294875Y-90220104D01*
X148272715Y-90286366D01*
X148218248Y-90330129D01*
X148170960Y-90339500D01*
X147848931Y-90339500D01*
X147781892Y-90319815D01*
X147736137Y-90267011D01*
X147726193Y-90197853D01*
X147742199Y-90152379D01*
X147811518Y-90035165D01*
X147811519Y-90035162D01*
X147857335Y-89877464D01*
X147857336Y-89877458D01*
X147860236Y-89840613D01*
X147860236Y-89512469D01*
X146260236Y-89512469D01*
X146260236Y-89840613D01*
X146263135Y-89877458D01*
X146263136Y-89877464D01*
X146308952Y-90035162D01*
X146308953Y-90035165D01*
X146378273Y-90152379D01*
X146395456Y-90220103D01*
X146373296Y-90286366D01*
X146318830Y-90330129D01*
X146271541Y-90339500D01*
X145404220Y-90339500D01*
X145337181Y-90319815D01*
X145316539Y-90303181D01*
X144365419Y-89352061D01*
X144355346Y-89339487D01*
X144355159Y-89339643D01*
X144350186Y-89333632D01*
X144297741Y-89284383D01*
X144276020Y-89262662D01*
X144270225Y-89258167D01*
X144265783Y-89254372D01*
X144230381Y-89221127D01*
X144230373Y-89221121D01*
X144211777Y-89210898D01*
X144195516Y-89200217D01*
X144178748Y-89187210D01*
X144155280Y-89177055D01*
X144134163Y-89167916D01*
X144128941Y-89165359D01*
X144086353Y-89141946D01*
X144086350Y-89141945D01*
X144065786Y-89136665D01*
X144047381Y-89130363D01*
X144027912Y-89121938D01*
X144027906Y-89121936D01*
X143979936Y-89114339D01*
X143974221Y-89113155D01*
X143957757Y-89108928D01*
X143927165Y-89101073D01*
X143927162Y-89101073D01*
X143905940Y-89101073D01*
X143886541Y-89099546D01*
X143873106Y-89097418D01*
X143857873Y-89095005D01*
X143858276Y-89092459D01*
X143812741Y-89079219D01*
X143727325Y-89028704D01*
X143727319Y-89028702D01*
X143671445Y-89012469D01*
X146260236Y-89012469D01*
X146810236Y-89012469D01*
X146810236Y-88102672D01*
X146807739Y-88102869D01*
X146650042Y-88148685D01*
X146650039Y-88148686D01*
X146508683Y-88232283D01*
X146508674Y-88232290D01*
X146392557Y-88348407D01*
X146392550Y-88348416D01*
X146308953Y-88489772D01*
X146308952Y-88489775D01*
X146263136Y-88647473D01*
X146263135Y-88647479D01*
X146260236Y-88684325D01*
X146260236Y-89012469D01*
X143671445Y-89012469D01*
X143573139Y-88983908D01*
X143573133Y-88983907D01*
X143537114Y-88981073D01*
X143537112Y-88981073D01*
X143204871Y-88981073D01*
X143038750Y-88981074D01*
X143002725Y-88983908D01*
X142848542Y-89028702D01*
X142848537Y-89028704D01*
X142710335Y-89110436D01*
X142710327Y-89110442D01*
X142596800Y-89223969D01*
X142596794Y-89223977D01*
X142515062Y-89362179D01*
X142515060Y-89362184D01*
X142470266Y-89516364D01*
X142470265Y-89516370D01*
X142467431Y-89552390D01*
X142467432Y-89950754D01*
X142470266Y-89986776D01*
X142471466Y-89990907D01*
X142471265Y-90060776D01*
X142433322Y-90119446D01*
X142369684Y-90148288D01*
X142352389Y-90149500D01*
X141761440Y-90149500D01*
X141694401Y-90129815D01*
X141648646Y-90077011D01*
X141645258Y-90068833D01*
X141603797Y-89957671D01*
X141603793Y-89957664D01*
X141517547Y-89842455D01*
X141517544Y-89842452D01*
X141402335Y-89756206D01*
X141402328Y-89756202D01*
X141267482Y-89705908D01*
X141267483Y-89705908D01*
X141207883Y-89699501D01*
X141207881Y-89699500D01*
X141207873Y-89699500D01*
X141207864Y-89699500D01*
X139312129Y-89699500D01*
X139312123Y-89699501D01*
X139252516Y-89705908D01*
X139117671Y-89756202D01*
X139117664Y-89756206D01*
X139002455Y-89842452D01*
X139002452Y-89842455D01*
X138916206Y-89957664D01*
X138916202Y-89957671D01*
X138865908Y-90092517D01*
X138860700Y-90140966D01*
X138859501Y-90152123D01*
X138859500Y-90152135D01*
X138859500Y-91347870D01*
X138859501Y-91347876D01*
X138865908Y-91407483D01*
X138916202Y-91542328D01*
X138916206Y-91542335D01*
X139002452Y-91657544D01*
X139002455Y-91657547D01*
X139117664Y-91743793D01*
X139117671Y-91743797D01*
X139252517Y-91794091D01*
X139252516Y-91794091D01*
X139259444Y-91794835D01*
X139312127Y-91800500D01*
X141207872Y-91800499D01*
X141267483Y-91794091D01*
X141402331Y-91743796D01*
X141517546Y-91657546D01*
X141603796Y-91542331D01*
X141621657Y-91494443D01*
X141645258Y-91431167D01*
X141687129Y-91375233D01*
X141752593Y-91350816D01*
X141761440Y-91350500D01*
X142596762Y-91350500D01*
X142663801Y-91370185D01*
X142684443Y-91386819D01*
X142710327Y-91412703D01*
X142710331Y-91412706D01*
X142710333Y-91412708D01*
X142848538Y-91494442D01*
X142889199Y-91506255D01*
X143002722Y-91539237D01*
X143002725Y-91539237D01*
X143002727Y-91539238D01*
X143014734Y-91540183D01*
X143038748Y-91542073D01*
X143038749Y-91542072D01*
X143038750Y-91542073D01*
X143370990Y-91542072D01*
X143537112Y-91542072D01*
X143539946Y-91541848D01*
X143573135Y-91539238D01*
X143727324Y-91494442D01*
X143806585Y-91447566D01*
X143874305Y-91430385D01*
X143940568Y-91452544D01*
X143957384Y-91466619D01*
X144324677Y-91833912D01*
X144330020Y-91840004D01*
X144351718Y-91868282D01*
X144351719Y-91868283D01*
X144355009Y-91872570D01*
X144380203Y-91937740D01*
X144366165Y-92006184D01*
X144344319Y-92035733D01*
X144331924Y-92048128D01*
X144331915Y-92048140D01*
X144248255Y-92189603D01*
X144248254Y-92189606D01*
X144202402Y-92347426D01*
X144202401Y-92347432D01*
X144199500Y-92384304D01*
X144199500Y-93065696D01*
X144202401Y-93102567D01*
X144202402Y-93102573D01*
X144248254Y-93260393D01*
X144248255Y-93260396D01*
X144331917Y-93401862D01*
X144331923Y-93401870D01*
X144448129Y-93518076D01*
X144448133Y-93518079D01*
X144448135Y-93518081D01*
X144589602Y-93601744D01*
X144601969Y-93605337D01*
X144747426Y-93647597D01*
X144747429Y-93647597D01*
X144747431Y-93647598D01*
X144759722Y-93648565D01*
X144784304Y-93650500D01*
X144784306Y-93650500D01*
X145024903Y-93650500D01*
X145091942Y-93670185D01*
X145112584Y-93686819D01*
X147319669Y-95893904D01*
X147325020Y-95900005D01*
X147346718Y-95928282D01*
X147434618Y-95995730D01*
X147472159Y-96024536D01*
X147618238Y-96085044D01*
X147624110Y-96087476D01*
X147678514Y-96131317D01*
X147700579Y-96197611D01*
X147700150Y-96213250D01*
X147699500Y-96220406D01*
X147699500Y-96779594D01*
X147705685Y-96847657D01*
X147705686Y-96847662D01*
X147705687Y-96847664D01*
X147754485Y-97004263D01*
X147754488Y-97004272D01*
X147839348Y-97144648D01*
X147839351Y-97144652D01*
X147955347Y-97260648D01*
X147955352Y-97260652D01*
X147969795Y-97269383D01*
X148016983Y-97320910D01*
X148028822Y-97389770D01*
X148001554Y-97454098D01*
X147943835Y-97493473D01*
X147905646Y-97499500D01*
X144494354Y-97499500D01*
X144427315Y-97479815D01*
X144381560Y-97427011D01*
X144371616Y-97357853D01*
X144400641Y-97294297D01*
X144430205Y-97269383D01*
X144444647Y-97260652D01*
X144444648Y-97260650D01*
X144444653Y-97260648D01*
X144560648Y-97144653D01*
X144605557Y-97070364D01*
X144645511Y-97004272D01*
X144645514Y-97004263D01*
X144653069Y-96980019D01*
X144694315Y-96847657D01*
X144700500Y-96779594D01*
X144700500Y-96220406D01*
X144694315Y-96152343D01*
X144645512Y-95995730D01*
X144645511Y-95995727D01*
X144560651Y-95855351D01*
X144560648Y-95855347D01*
X144444652Y-95739351D01*
X144444648Y-95739348D01*
X144304272Y-95654488D01*
X144304263Y-95654485D01*
X144147664Y-95605687D01*
X144147662Y-95605686D01*
X144147657Y-95605685D01*
X144079594Y-95599500D01*
X143620406Y-95599500D01*
X143552343Y-95605685D01*
X143552339Y-95605686D01*
X143552335Y-95605687D01*
X143395736Y-95654485D01*
X143395727Y-95654488D01*
X143255351Y-95739348D01*
X143255347Y-95739351D01*
X143139351Y-95855347D01*
X143139348Y-95855351D01*
X143054488Y-95995727D01*
X143054485Y-95995736D01*
X143010643Y-96136432D01*
X143005685Y-96152343D01*
X142999500Y-96220406D01*
X142999500Y-96779594D01*
X143005685Y-96847657D01*
X143005686Y-96847662D01*
X143005687Y-96847664D01*
X143054485Y-97004263D01*
X143054488Y-97004272D01*
X143139348Y-97144648D01*
X143139351Y-97144652D01*
X143255347Y-97260648D01*
X143255352Y-97260652D01*
X143269795Y-97269383D01*
X143316983Y-97320910D01*
X143328822Y-97389770D01*
X143301554Y-97454098D01*
X143243835Y-97493473D01*
X143205646Y-97499500D01*
X116864108Y-97499500D01*
X116736812Y-97533608D01*
X116622686Y-97599500D01*
X116622683Y-97599502D01*
X116529502Y-97692683D01*
X116529500Y-97692686D01*
X116463608Y-97806812D01*
X116436471Y-97908093D01*
X116400106Y-97967754D01*
X116337259Y-97998283D01*
X116316696Y-98000000D01*
X112043304Y-98000000D01*
X111976265Y-97980315D01*
X111930510Y-97927511D01*
X111923529Y-97908093D01*
X111896391Y-97806812D01*
X111887563Y-97791521D01*
X111830500Y-97692686D01*
X111737314Y-97599500D01*
X111680250Y-97566554D01*
X111623187Y-97533608D01*
X111559539Y-97516554D01*
X111495892Y-97499500D01*
X111495891Y-97499500D01*
X98001624Y-97499500D01*
X97998378Y-97499415D01*
X97866617Y-97492509D01*
X97682985Y-97482196D01*
X97676758Y-97481530D01*
X97524369Y-97457394D01*
X97361835Y-97429778D01*
X97356171Y-97428541D01*
X97203297Y-97387579D01*
X97048273Y-97342916D01*
X97043217Y-97341221D01*
X96893829Y-97283877D01*
X96745997Y-97222643D01*
X96741575Y-97220604D01*
X96598078Y-97147488D01*
X96458531Y-97070364D01*
X96454767Y-97068106D01*
X96401875Y-97033758D01*
X96319127Y-96980019D01*
X96189243Y-96887862D01*
X96186102Y-96885480D01*
X96139394Y-96847657D01*
X96061258Y-96784383D01*
X96058964Y-96782431D01*
X95941277Y-96677260D01*
X95938750Y-96674870D01*
X95825128Y-96561248D01*
X95822738Y-96558721D01*
X95717567Y-96441034D01*
X95715613Y-96438738D01*
X95707146Y-96428282D01*
X95614510Y-96313886D01*
X95612136Y-96310755D01*
X95519980Y-96180872D01*
X95471150Y-96105682D01*
X95431882Y-96045215D01*
X95429641Y-96041480D01*
X95394241Y-95977428D01*
X95352511Y-95901921D01*
X95287677Y-95774679D01*
X95279388Y-95758412D01*
X95277358Y-95754007D01*
X95216122Y-95606170D01*
X95158769Y-95456759D01*
X95157082Y-95451724D01*
X95112420Y-95296702D01*
X95103138Y-95262060D01*
X95071453Y-95143811D01*
X95070226Y-95138194D01*
X95042601Y-94975606D01*
X95018465Y-94823212D01*
X95017803Y-94817027D01*
X95007490Y-94633382D01*
X95000584Y-94501620D01*
X95000500Y-94498377D01*
X95000500Y-89500005D01*
X95494357Y-89500005D01*
X95514890Y-89747812D01*
X95514892Y-89747824D01*
X95575936Y-89988881D01*
X95675826Y-90216606D01*
X95811833Y-90424782D01*
X95811836Y-90424785D01*
X95980256Y-90607738D01*
X96176491Y-90760474D01*
X96176494Y-90760476D01*
X96176496Y-90760477D01*
X96179551Y-90762130D01*
X96334517Y-90845993D01*
X96384108Y-90895212D01*
X96399500Y-90955048D01*
X96399500Y-94394432D01*
X96398969Y-94402530D01*
X96394318Y-94437861D01*
X96397651Y-94463181D01*
X96399500Y-94477221D01*
X96414955Y-94594621D01*
X96414956Y-94594623D01*
X96467535Y-94721561D01*
X96475464Y-94740702D01*
X96571718Y-94866143D01*
X96599995Y-94887841D01*
X96606085Y-94893181D01*
X97363379Y-95650475D01*
X98106808Y-96393904D01*
X98112159Y-96400005D01*
X98133857Y-96428282D01*
X98230270Y-96502262D01*
X98259298Y-96524536D01*
X98259301Y-96524537D01*
X98259302Y-96524538D01*
X98332337Y-96554790D01*
X98405377Y-96585044D01*
X98483758Y-96595363D01*
X98562138Y-96605682D01*
X98562139Y-96605682D01*
X98597468Y-96601030D01*
X98605567Y-96600500D01*
X100917588Y-96600500D01*
X100984627Y-96620185D01*
X100994903Y-96627555D01*
X100997736Y-96629814D01*
X100997738Y-96629816D01*
X101150478Y-96725789D01*
X101159835Y-96729063D01*
X101320745Y-96785368D01*
X101320750Y-96785369D01*
X101499996Y-96805565D01*
X101500000Y-96805565D01*
X101500004Y-96805565D01*
X101679249Y-96785369D01*
X101679252Y-96785368D01*
X101679255Y-96785368D01*
X101849522Y-96725789D01*
X102002262Y-96629816D01*
X102129816Y-96502262D01*
X102225789Y-96349522D01*
X102285368Y-96179255D01*
X102288400Y-96152345D01*
X102305565Y-96000003D01*
X102305565Y-95999996D01*
X102285369Y-95820750D01*
X102285368Y-95820745D01*
X102225788Y-95650475D01*
X102172691Y-95565973D01*
X102153690Y-95498736D01*
X102172691Y-95434027D01*
X102225788Y-95349524D01*
X102225789Y-95349522D01*
X102285368Y-95179255D01*
X102289360Y-95143827D01*
X102305565Y-95000003D01*
X102305565Y-94999996D01*
X102285369Y-94820750D01*
X102285368Y-94820745D01*
X102260621Y-94750022D01*
X102225789Y-94650478D01*
X102210344Y-94625898D01*
X102166903Y-94556762D01*
X102129816Y-94497738D01*
X102002262Y-94370184D01*
X101980597Y-94356571D01*
X101849523Y-94274211D01*
X101679254Y-94214631D01*
X101679249Y-94214630D01*
X101500004Y-94194435D01*
X101499996Y-94194435D01*
X101320750Y-94214630D01*
X101320745Y-94214631D01*
X101150476Y-94274211D01*
X100997736Y-94370185D01*
X100994903Y-94372445D01*
X100992724Y-94373334D01*
X100991842Y-94373889D01*
X100991744Y-94373734D01*
X100930217Y-94398855D01*
X100917588Y-94399500D01*
X100172272Y-94399500D01*
X100105233Y-94379815D01*
X100084590Y-94363180D01*
X100032825Y-94311414D01*
X100032817Y-94311408D01*
X99891895Y-94228068D01*
X99891892Y-94228066D01*
X99734679Y-94182391D01*
X99734673Y-94182390D01*
X99697942Y-94179500D01*
X99697940Y-94179500D01*
X99272060Y-94179500D01*
X99272057Y-94179500D01*
X99234228Y-94182477D01*
X99165850Y-94168112D01*
X99116094Y-94119060D01*
X99100500Y-94058859D01*
X99100500Y-93647870D01*
X101899500Y-93647870D01*
X101899501Y-93647876D01*
X101905908Y-93707483D01*
X101956202Y-93842328D01*
X101956206Y-93842335D01*
X102042452Y-93957544D01*
X102042455Y-93957547D01*
X102157664Y-94043793D01*
X102157671Y-94043797D01*
X102292517Y-94094091D01*
X102292516Y-94094091D01*
X102299444Y-94094835D01*
X102352127Y-94100500D01*
X105647872Y-94100499D01*
X105707483Y-94094091D01*
X105842331Y-94043796D01*
X105957546Y-93957546D01*
X106043796Y-93842331D01*
X106094091Y-93707483D01*
X106100500Y-93647873D01*
X106100499Y-91552128D01*
X106094091Y-91492517D01*
X106074503Y-91440000D01*
X106043797Y-91357671D01*
X106043793Y-91357664D01*
X105957547Y-91242455D01*
X105957544Y-91242452D01*
X105842335Y-91156206D01*
X105842328Y-91156202D01*
X105707482Y-91105908D01*
X105707483Y-91105908D01*
X105647883Y-91099501D01*
X105647881Y-91099500D01*
X105647873Y-91099500D01*
X105647864Y-91099500D01*
X102352129Y-91099500D01*
X102352123Y-91099501D01*
X102292516Y-91105908D01*
X102157671Y-91156202D01*
X102157664Y-91156206D01*
X102042455Y-91242452D01*
X102042452Y-91242455D01*
X101956206Y-91357664D01*
X101956202Y-91357671D01*
X101905908Y-91492517D01*
X101899501Y-91552116D01*
X101899501Y-91552123D01*
X101899500Y-91552135D01*
X101899500Y-93647870D01*
X99100500Y-93647870D01*
X99100500Y-86043428D01*
X99101031Y-86035326D01*
X99105682Y-85999999D01*
X99105682Y-85999998D01*
X99089399Y-85876315D01*
X99085044Y-85843238D01*
X99024536Y-85697159D01*
X99007889Y-85675464D01*
X98928282Y-85571718D01*
X98900005Y-85550020D01*
X98893904Y-85544669D01*
X98456516Y-85107281D01*
X98423031Y-85045958D01*
X98423992Y-84989159D01*
X98424061Y-84988884D01*
X98424063Y-84988881D01*
X98485108Y-84747821D01*
X98485109Y-84747812D01*
X98505643Y-84500005D01*
X109994357Y-84500005D01*
X110014890Y-84747812D01*
X110014892Y-84747824D01*
X110075936Y-84988881D01*
X110175826Y-85216606D01*
X110311833Y-85424782D01*
X110315681Y-85428962D01*
X110480256Y-85607738D01*
X110480259Y-85607740D01*
X110480262Y-85607743D01*
X110581374Y-85686442D01*
X110622187Y-85743152D01*
X110626300Y-85772748D01*
X111367465Y-86513913D01*
X111357685Y-86515320D01*
X111226900Y-86575048D01*
X111118239Y-86669202D01*
X111040507Y-86790156D01*
X111016923Y-86870475D01*
X110276564Y-86130116D01*
X110176267Y-86283632D01*
X110076412Y-86511282D01*
X110015387Y-86752261D01*
X110015385Y-86752270D01*
X109994859Y-86999994D01*
X109994859Y-87000005D01*
X110015385Y-87247729D01*
X110015387Y-87247738D01*
X110076412Y-87488717D01*
X110176267Y-87716367D01*
X110288484Y-87888129D01*
X110308672Y-87955018D01*
X110289491Y-88022204D01*
X110258987Y-88055216D01*
X110142452Y-88142455D01*
X110056206Y-88257664D01*
X110056202Y-88257671D01*
X110005908Y-88392517D01*
X109999501Y-88452116D01*
X109999500Y-88452135D01*
X109999500Y-90547870D01*
X109999501Y-90547876D01*
X110005908Y-90607483D01*
X110056202Y-90742328D01*
X110056206Y-90742335D01*
X110142452Y-90857544D01*
X110142455Y-90857547D01*
X110257664Y-90943793D01*
X110257671Y-90943797D01*
X110267833Y-90947587D01*
X110392517Y-90994091D01*
X110452127Y-91000500D01*
X110775500Y-91000499D01*
X110842539Y-91020183D01*
X110888294Y-91072987D01*
X110899500Y-91124499D01*
X110899500Y-93357071D01*
X110898969Y-93365173D01*
X110894318Y-93400499D01*
X110894318Y-93400500D01*
X110899500Y-93439860D01*
X110914955Y-93557260D01*
X110914956Y-93557262D01*
X110969034Y-93687819D01*
X110975464Y-93703341D01*
X111071718Y-93828782D01*
X111099995Y-93850480D01*
X111106085Y-93855820D01*
X111388029Y-94137764D01*
X111669298Y-94419033D01*
X111702783Y-94480356D01*
X111704837Y-94492830D01*
X111714630Y-94579749D01*
X111714631Y-94579754D01*
X111714632Y-94579755D01*
X111719834Y-94594621D01*
X111774210Y-94750021D01*
X111816304Y-94817013D01*
X111870184Y-94902762D01*
X111997738Y-95030316D01*
X112057876Y-95068103D01*
X112146247Y-95123631D01*
X112150478Y-95126289D01*
X112184501Y-95138194D01*
X112320745Y-95185868D01*
X112320750Y-95185869D01*
X112499996Y-95206065D01*
X112500000Y-95206065D01*
X112500004Y-95206065D01*
X112679249Y-95185869D01*
X112679252Y-95185868D01*
X112679255Y-95185868D01*
X112849522Y-95126289D01*
X113002262Y-95030316D01*
X113129816Y-94902762D01*
X113225789Y-94750022D01*
X113251823Y-94675618D01*
X113292544Y-94618844D01*
X113357497Y-94593096D01*
X113382747Y-94593353D01*
X113394011Y-94594623D01*
X113499997Y-94606565D01*
X113500000Y-94606565D01*
X113500004Y-94606565D01*
X113679249Y-94586369D01*
X113679252Y-94586368D01*
X113679255Y-94586368D01*
X113849522Y-94526789D01*
X114002262Y-94430816D01*
X114129816Y-94303262D01*
X114225789Y-94150522D01*
X114285368Y-93980255D01*
X114287927Y-93957544D01*
X114305565Y-93801003D01*
X114305565Y-93800996D01*
X114285369Y-93621750D01*
X114285368Y-93621745D01*
X114267191Y-93569798D01*
X114225789Y-93451478D01*
X114129816Y-93298738D01*
X114129814Y-93298736D01*
X114129813Y-93298734D01*
X114127550Y-93295896D01*
X114126659Y-93293715D01*
X114126111Y-93292842D01*
X114126264Y-93292745D01*
X114101144Y-93231209D01*
X114100500Y-93218587D01*
X114100500Y-91347870D01*
X132659500Y-91347870D01*
X132659501Y-91347876D01*
X132665908Y-91407483D01*
X132716202Y-91542328D01*
X132716206Y-91542335D01*
X132802452Y-91657544D01*
X132802455Y-91657547D01*
X132917664Y-91743793D01*
X132917671Y-91743797D01*
X133052517Y-91794091D01*
X133052516Y-91794091D01*
X133059444Y-91794835D01*
X133112127Y-91800500D01*
X135007872Y-91800499D01*
X135067483Y-91794091D01*
X135202331Y-91743796D01*
X135317546Y-91657546D01*
X135403796Y-91542331D01*
X135454091Y-91407483D01*
X135460500Y-91347873D01*
X135460499Y-90152128D01*
X135454091Y-90092517D01*
X135445257Y-90068833D01*
X135403797Y-89957671D01*
X135403793Y-89957664D01*
X135317547Y-89842455D01*
X135317544Y-89842452D01*
X135202335Y-89756206D01*
X135202328Y-89756202D01*
X135067482Y-89705908D01*
X135067483Y-89705908D01*
X135007883Y-89699501D01*
X135007881Y-89699500D01*
X135007873Y-89699500D01*
X135007864Y-89699500D01*
X133112129Y-89699500D01*
X133112123Y-89699501D01*
X133052516Y-89705908D01*
X132917671Y-89756202D01*
X132917664Y-89756206D01*
X132802455Y-89842452D01*
X132802452Y-89842455D01*
X132716206Y-89957664D01*
X132716202Y-89957671D01*
X132665908Y-90092517D01*
X132660700Y-90140966D01*
X132659501Y-90152123D01*
X132659500Y-90152135D01*
X132659500Y-91347870D01*
X114100500Y-91347870D01*
X114100500Y-87300000D01*
X132660000Y-87300000D01*
X132660000Y-87647844D01*
X132666401Y-87707372D01*
X132666403Y-87707379D01*
X132716645Y-87842086D01*
X132716649Y-87842093D01*
X132802809Y-87957187D01*
X132802812Y-87957190D01*
X132917906Y-88043350D01*
X132917913Y-88043354D01*
X133052620Y-88093596D01*
X133052627Y-88093598D01*
X133112155Y-88099999D01*
X133112172Y-88100000D01*
X133810000Y-88100000D01*
X133810000Y-87300000D01*
X134310000Y-87300000D01*
X134310000Y-88100000D01*
X135007828Y-88100000D01*
X135007844Y-88099999D01*
X135067372Y-88093598D01*
X135067379Y-88093596D01*
X135202086Y-88043354D01*
X135202093Y-88043350D01*
X135317187Y-87957190D01*
X135317190Y-87957187D01*
X135403350Y-87842093D01*
X135403354Y-87842086D01*
X135453596Y-87707379D01*
X135453598Y-87707372D01*
X135459996Y-87647870D01*
X138859500Y-87647870D01*
X138859501Y-87647876D01*
X138865908Y-87707483D01*
X138916202Y-87842328D01*
X138916206Y-87842335D01*
X139002452Y-87957544D01*
X139002455Y-87957547D01*
X139117664Y-88043793D01*
X139117671Y-88043797D01*
X139252517Y-88094091D01*
X139252516Y-88094091D01*
X139259444Y-88094835D01*
X139312127Y-88100500D01*
X141207872Y-88100499D01*
X141267483Y-88094091D01*
X141402331Y-88043796D01*
X141517546Y-87957546D01*
X141603796Y-87842331D01*
X141654091Y-87707483D01*
X141660500Y-87647873D01*
X141660499Y-86452128D01*
X141654091Y-86392517D01*
X141649660Y-86380638D01*
X141603797Y-86257671D01*
X141603793Y-86257664D01*
X141517547Y-86142455D01*
X141517544Y-86142452D01*
X141402335Y-86056206D01*
X141402328Y-86056202D01*
X141267482Y-86005908D01*
X141267483Y-86005908D01*
X141207883Y-85999501D01*
X141207881Y-85999500D01*
X141207873Y-85999500D01*
X141207864Y-85999500D01*
X139312129Y-85999500D01*
X139312123Y-85999501D01*
X139252516Y-86005908D01*
X139117671Y-86056202D01*
X139117664Y-86056206D01*
X139002455Y-86142452D01*
X139002452Y-86142455D01*
X138916206Y-86257664D01*
X138916202Y-86257671D01*
X138865908Y-86392517D01*
X138859501Y-86452116D01*
X138859500Y-86452127D01*
X138859500Y-87647870D01*
X135459996Y-87647870D01*
X135459999Y-87647844D01*
X135460000Y-87647827D01*
X135460000Y-87300000D01*
X134310000Y-87300000D01*
X133810000Y-87300000D01*
X132660000Y-87300000D01*
X114100500Y-87300000D01*
X114100500Y-86800000D01*
X132660000Y-86800000D01*
X133810000Y-86800000D01*
X133810000Y-86000000D01*
X134310000Y-86000000D01*
X134310000Y-86800000D01*
X135460000Y-86800000D01*
X135460000Y-86452172D01*
X135459999Y-86452155D01*
X135453598Y-86392627D01*
X135453596Y-86392620D01*
X135403354Y-86257913D01*
X135403350Y-86257906D01*
X135317190Y-86142812D01*
X135317187Y-86142809D01*
X135202093Y-86056649D01*
X135202086Y-86056645D01*
X135067379Y-86006403D01*
X135067372Y-86006401D01*
X135007844Y-86000000D01*
X134310000Y-86000000D01*
X133810000Y-86000000D01*
X133112155Y-86000000D01*
X133052627Y-86006401D01*
X133052620Y-86006403D01*
X132917913Y-86056645D01*
X132917906Y-86056649D01*
X132802812Y-86142809D01*
X132802809Y-86142812D01*
X132716649Y-86257906D01*
X132716645Y-86257913D01*
X132666403Y-86392620D01*
X132666401Y-86392627D01*
X132660000Y-86452155D01*
X132660000Y-86800000D01*
X114100500Y-86800000D01*
X114100500Y-86543428D01*
X114101031Y-86535326D01*
X114101991Y-86528039D01*
X114105682Y-86500000D01*
X114099385Y-86452172D01*
X114088883Y-86372395D01*
X114085044Y-86343238D01*
X114024536Y-86197159D01*
X114024535Y-86197158D01*
X114024535Y-86197157D01*
X114002102Y-86167922D01*
X113999061Y-86163959D01*
X113928282Y-86071718D01*
X113900005Y-86050020D01*
X113893904Y-86044669D01*
X112956516Y-85107281D01*
X112923031Y-85045958D01*
X112923992Y-84989159D01*
X112924061Y-84988884D01*
X112924063Y-84988881D01*
X112985108Y-84747821D01*
X112985109Y-84747812D01*
X113005643Y-84500005D01*
X113005643Y-84499994D01*
X112985109Y-84252187D01*
X112985107Y-84252175D01*
X112924063Y-84011118D01*
X112824173Y-83783393D01*
X112688166Y-83575217D01*
X112651256Y-83535122D01*
X112519744Y-83392262D01*
X112323509Y-83239526D01*
X112323507Y-83239525D01*
X112323506Y-83239524D01*
X112104811Y-83121172D01*
X112104802Y-83121169D01*
X111869616Y-83040429D01*
X111624335Y-82999500D01*
X111375665Y-82999500D01*
X111130383Y-83040429D01*
X110895197Y-83121169D01*
X110895188Y-83121172D01*
X110676493Y-83239524D01*
X110480257Y-83392261D01*
X110311833Y-83575217D01*
X110175826Y-83783393D01*
X110075936Y-84011118D01*
X110014892Y-84252175D01*
X110014890Y-84252187D01*
X109994357Y-84499994D01*
X109994357Y-84500005D01*
X98505643Y-84500005D01*
X98505643Y-84499994D01*
X98485109Y-84252187D01*
X98485107Y-84252175D01*
X98424063Y-84011118D01*
X98324173Y-83783393D01*
X98188166Y-83575217D01*
X98151256Y-83535122D01*
X98019744Y-83392262D01*
X97823509Y-83239526D01*
X97823507Y-83239525D01*
X97823506Y-83239524D01*
X97604811Y-83121172D01*
X97604802Y-83121169D01*
X97369616Y-83040429D01*
X97124335Y-82999500D01*
X96875665Y-82999500D01*
X96630383Y-83040429D01*
X96395197Y-83121169D01*
X96395188Y-83121172D01*
X96176493Y-83239524D01*
X95980257Y-83392261D01*
X95811833Y-83575217D01*
X95675826Y-83783393D01*
X95575936Y-84011118D01*
X95514892Y-84252175D01*
X95514890Y-84252187D01*
X95494357Y-84499994D01*
X95494357Y-84500005D01*
X95514890Y-84747812D01*
X95514892Y-84747824D01*
X95575936Y-84988881D01*
X95675826Y-85216606D01*
X95811833Y-85424782D01*
X95815681Y-85428962D01*
X95980256Y-85607738D01*
X96176491Y-85760474D01*
X96185427Y-85765310D01*
X96390544Y-85876314D01*
X96395190Y-85878828D01*
X96630386Y-85959571D01*
X96875665Y-86000500D01*
X97124335Y-86000500D01*
X97369608Y-85959572D01*
X97369607Y-85959572D01*
X97369614Y-85959571D01*
X97475607Y-85923182D01*
X97545402Y-85920033D01*
X97603548Y-85952783D01*
X97863181Y-86212416D01*
X97896666Y-86273739D01*
X97899500Y-86300097D01*
X97899500Y-88072551D01*
X97879815Y-88139590D01*
X97827011Y-88185345D01*
X97757853Y-88195289D01*
X97716483Y-88181606D01*
X97604816Y-88121175D01*
X97604813Y-88121174D01*
X97604810Y-88121172D01*
X97604804Y-88121170D01*
X97604802Y-88121169D01*
X97369616Y-88040429D01*
X97124335Y-87999500D01*
X96875665Y-87999500D01*
X96630383Y-88040429D01*
X96395197Y-88121169D01*
X96395188Y-88121172D01*
X96176493Y-88239524D01*
X95980257Y-88392261D01*
X95811833Y-88575217D01*
X95675826Y-88783393D01*
X95575936Y-89011118D01*
X95514892Y-89252175D01*
X95514890Y-89252187D01*
X95494357Y-89499994D01*
X95494357Y-89500005D01*
X95000500Y-89500005D01*
X95000500Y-83001622D01*
X95000585Y-82998376D01*
X95003926Y-82934625D01*
X95007497Y-82866486D01*
X95017803Y-82682968D01*
X95018464Y-82676791D01*
X95042611Y-82524331D01*
X95045474Y-82507483D01*
X95070227Y-82361796D01*
X95071451Y-82356196D01*
X95112425Y-82203279D01*
X95157083Y-82048268D01*
X95158764Y-82043254D01*
X95216127Y-81893815D01*
X95277366Y-81745972D01*
X95279379Y-81741606D01*
X95352511Y-81598078D01*
X95359688Y-81585090D01*
X95429655Y-81458494D01*
X95431867Y-81454808D01*
X95519980Y-81319127D01*
X95540647Y-81290000D01*
X95612154Y-81189220D01*
X95614486Y-81186143D01*
X95715655Y-81061209D01*
X95717537Y-81058998D01*
X95822773Y-80941239D01*
X95825092Y-80938787D01*
X95938787Y-80825092D01*
X95941239Y-80822773D01*
X96058998Y-80717537D01*
X96061209Y-80715655D01*
X96186143Y-80614486D01*
X96189220Y-80612154D01*
X96299182Y-80534130D01*
X96319127Y-80519980D01*
X96342785Y-80504616D01*
X96454808Y-80431867D01*
X96458494Y-80429655D01*
X96598078Y-80352511D01*
X96618787Y-80341959D01*
X96741606Y-80279379D01*
X96745972Y-80277366D01*
X96893815Y-80216127D01*
X97043254Y-80158764D01*
X97048268Y-80157083D01*
X97203279Y-80112425D01*
X97356196Y-80071451D01*
X97361796Y-80070227D01*
X97524284Y-80042618D01*
X97676791Y-80018464D01*
X97682968Y-80017803D01*
X97866566Y-80007493D01*
X97998380Y-80000584D01*
X98001622Y-80000500D01*
X101836231Y-80000500D01*
X101903270Y-80020185D01*
X101949025Y-80072989D01*
X101958969Y-80142147D01*
X101952413Y-80167833D01*
X101905908Y-80292517D01*
X101900593Y-80341959D01*
X101899501Y-80352123D01*
X101899500Y-80352135D01*
X101899500Y-82447870D01*
X101899501Y-82447876D01*
X101905908Y-82507483D01*
X101956202Y-82642328D01*
X101956206Y-82642335D01*
X102042452Y-82757544D01*
X102042455Y-82757547D01*
X102157664Y-82843793D01*
X102157671Y-82843797D01*
X102292517Y-82894091D01*
X102292516Y-82894091D01*
X102299444Y-82894835D01*
X102352127Y-82900500D01*
X105647872Y-82900499D01*
X105707483Y-82894091D01*
X105842331Y-82843796D01*
X105957546Y-82757546D01*
X106043796Y-82642331D01*
X106094091Y-82507483D01*
X106100500Y-82447873D01*
X106100499Y-80352128D01*
X106094091Y-80292517D01*
X106089196Y-80279394D01*
X106047587Y-80167833D01*
X106042603Y-80098141D01*
X106076088Y-80036818D01*
X106137411Y-80003334D01*
X106163769Y-80000500D01*
X142607317Y-80000500D01*
X142607318Y-80000500D01*
X142781196Y-79975500D01*
X142819764Y-79969955D01*
X142819765Y-79969954D01*
X142819769Y-79969954D01*
X143025710Y-79909484D01*
X143025713Y-79909482D01*
X143025715Y-79909482D01*
X143220938Y-79820327D01*
X143220944Y-79820323D01*
X143220950Y-79820321D01*
X143401513Y-79704281D01*
X143563724Y-79563724D01*
X143704281Y-79401513D01*
X143820321Y-79220950D01*
X143820323Y-79220944D01*
X143820327Y-79220938D01*
X143909482Y-79025715D01*
X143909482Y-79025713D01*
X143909484Y-79025710D01*
X143969954Y-78819769D01*
X144000500Y-78607318D01*
X144000500Y-78500000D01*
X144000500Y-78499500D01*
X144000500Y-74002212D01*
X144000658Y-73997788D01*
X144005492Y-73930203D01*
X144017049Y-73783360D01*
X144018276Y-73775045D01*
X144018277Y-73775044D01*
X144029169Y-73724971D01*
X144038902Y-73680231D01*
X144050971Y-73629961D01*
X144066860Y-73563774D01*
X144069051Y-73556598D01*
X144104986Y-73460252D01*
X144128801Y-73402758D01*
X144172641Y-73348357D01*
X144238935Y-73326292D01*
X144306634Y-73343571D01*
G37*
G04 #@! TD.AperFunction*
G04 #@! TA.AperFunction,Conductor*
G36*
X195903270Y-80020185D02*
G01*
X195949025Y-80072989D01*
X195958969Y-80142147D01*
X195952413Y-80167833D01*
X195905908Y-80292517D01*
X195900593Y-80341959D01*
X195899501Y-80352123D01*
X195899500Y-80352135D01*
X195899500Y-82447870D01*
X195899501Y-82447876D01*
X195905908Y-82507483D01*
X195956202Y-82642328D01*
X195956206Y-82642335D01*
X196042452Y-82757544D01*
X196042455Y-82757547D01*
X196157664Y-82843793D01*
X196157671Y-82843797D01*
X196292517Y-82894091D01*
X196292516Y-82894091D01*
X196299444Y-82894835D01*
X196352127Y-82900500D01*
X199647872Y-82900499D01*
X199707483Y-82894091D01*
X199842331Y-82843796D01*
X199957546Y-82757546D01*
X200043796Y-82642331D01*
X200094091Y-82507483D01*
X200100500Y-82447873D01*
X200100499Y-80352128D01*
X200094091Y-80292517D01*
X200089196Y-80279394D01*
X200047587Y-80167833D01*
X200042603Y-80098141D01*
X200076088Y-80036818D01*
X200137411Y-80003334D01*
X200163769Y-80000500D01*
X203998378Y-80000500D01*
X204001619Y-80000584D01*
X204133628Y-80007503D01*
X204317027Y-80017803D01*
X204323212Y-80018465D01*
X204475647Y-80042608D01*
X204638194Y-80070226D01*
X204643811Y-80071453D01*
X204796693Y-80112418D01*
X204860145Y-80130698D01*
X204951724Y-80157082D01*
X204956759Y-80158769D01*
X205106183Y-80216127D01*
X205254007Y-80277358D01*
X205258412Y-80279388D01*
X205310828Y-80306096D01*
X205401921Y-80352511D01*
X205470269Y-80390285D01*
X205541480Y-80429641D01*
X205545215Y-80431882D01*
X205619487Y-80480115D01*
X205680872Y-80519980D01*
X205753789Y-80571717D01*
X205810764Y-80612142D01*
X205813886Y-80614510D01*
X205938748Y-80715621D01*
X205941034Y-80717567D01*
X206058721Y-80822738D01*
X206061248Y-80825128D01*
X206174870Y-80938750D01*
X206177260Y-80941277D01*
X206282431Y-81058964D01*
X206284383Y-81061258D01*
X206316247Y-81100607D01*
X206385480Y-81186102D01*
X206387862Y-81189243D01*
X206480019Y-81319127D01*
X206533758Y-81401875D01*
X206568106Y-81454767D01*
X206570364Y-81458531D01*
X206647488Y-81598078D01*
X206720604Y-81741575D01*
X206722643Y-81745997D01*
X206783877Y-81893829D01*
X206841221Y-82043217D01*
X206842916Y-82048273D01*
X206887579Y-82203297D01*
X206928541Y-82356171D01*
X206929778Y-82361835D01*
X206957394Y-82524369D01*
X206981530Y-82676758D01*
X206982196Y-82682985D01*
X206992509Y-82866617D01*
X206999415Y-82998377D01*
X206999500Y-83001623D01*
X206999500Y-94498376D01*
X206999415Y-94501622D01*
X206992509Y-94633382D01*
X206982196Y-94817013D01*
X206981530Y-94823240D01*
X206957394Y-94975630D01*
X206929778Y-95138163D01*
X206928541Y-95143827D01*
X206887579Y-95296702D01*
X206842916Y-95451725D01*
X206841221Y-95456781D01*
X206783877Y-95606170D01*
X206722643Y-95754001D01*
X206720604Y-95758423D01*
X206647488Y-95901921D01*
X206570364Y-96041467D01*
X206568097Y-96045246D01*
X206480019Y-96180872D01*
X206387862Y-96310755D01*
X206385480Y-96313896D01*
X206284385Y-96438738D01*
X206282431Y-96441034D01*
X206177260Y-96558721D01*
X206174870Y-96561248D01*
X206061248Y-96674870D01*
X206058721Y-96677260D01*
X205941034Y-96782431D01*
X205938738Y-96784385D01*
X205813896Y-96885480D01*
X205810755Y-96887862D01*
X205680872Y-96980019D01*
X205545246Y-97068097D01*
X205541467Y-97070364D01*
X205401921Y-97147488D01*
X205258423Y-97220604D01*
X205254001Y-97222643D01*
X205106170Y-97283877D01*
X204956781Y-97341221D01*
X204951725Y-97342916D01*
X204796702Y-97387579D01*
X204643827Y-97428541D01*
X204638163Y-97429778D01*
X204475630Y-97457394D01*
X204323240Y-97481530D01*
X204317013Y-97482196D01*
X204133382Y-97492509D01*
X204001622Y-97499415D01*
X203998376Y-97499500D01*
X189184108Y-97499500D01*
X189056812Y-97533608D01*
X188942686Y-97599500D01*
X188942683Y-97599502D01*
X188849502Y-97692683D01*
X188849500Y-97692686D01*
X188783608Y-97806812D01*
X188756471Y-97908093D01*
X188720106Y-97967754D01*
X188657259Y-97998283D01*
X188636696Y-98000000D01*
X184363304Y-98000000D01*
X184296265Y-97980315D01*
X184250510Y-97927511D01*
X184243529Y-97908093D01*
X184216391Y-97806812D01*
X184207563Y-97791521D01*
X184150500Y-97692686D01*
X184057314Y-97599500D01*
X184000250Y-97566554D01*
X183943187Y-97533608D01*
X183879539Y-97516554D01*
X183815892Y-97499500D01*
X183750099Y-97499500D01*
X159194354Y-97499500D01*
X159127315Y-97479815D01*
X159081560Y-97427011D01*
X159071616Y-97357853D01*
X159100641Y-97294297D01*
X159130205Y-97269383D01*
X159144647Y-97260652D01*
X159144648Y-97260650D01*
X159144653Y-97260648D01*
X159260648Y-97144653D01*
X159305557Y-97070364D01*
X159345511Y-97004272D01*
X159345514Y-97004263D01*
X159353069Y-96980019D01*
X159394315Y-96847657D01*
X159400500Y-96779594D01*
X159400500Y-96224500D01*
X159420185Y-96157461D01*
X159472989Y-96111706D01*
X159524500Y-96100500D01*
X174785002Y-96100500D01*
X174793100Y-96101030D01*
X174828430Y-96105682D01*
X174828431Y-96105682D01*
X174881054Y-96098754D01*
X174985192Y-96085044D01*
X175131271Y-96024536D01*
X175168812Y-95995730D01*
X175256712Y-95928282D01*
X175278413Y-95899999D01*
X175283741Y-95893922D01*
X177619428Y-93558235D01*
X177680749Y-93524752D01*
X177750441Y-93529736D01*
X177794785Y-93558235D01*
X180130464Y-95893913D01*
X180135809Y-95900009D01*
X180145006Y-95911994D01*
X180157504Y-95928282D01*
X180245404Y-95995730D01*
X180282945Y-96024536D01*
X180429024Y-96085044D01*
X180507405Y-96095363D01*
X180585785Y-96105682D01*
X180585786Y-96105682D01*
X180621115Y-96101030D01*
X180629214Y-96100500D01*
X203327728Y-96100500D01*
X203394767Y-96120185D01*
X203415410Y-96136820D01*
X203467174Y-96188585D01*
X203467178Y-96188588D01*
X203467180Y-96188590D01*
X203608103Y-96271931D01*
X203608104Y-96271931D01*
X203608107Y-96271933D01*
X203765320Y-96317608D01*
X203765323Y-96317608D01*
X203765325Y-96317609D01*
X203777570Y-96318572D01*
X203802058Y-96320500D01*
X203802060Y-96320500D01*
X204227942Y-96320500D01*
X204246307Y-96319054D01*
X204264675Y-96317609D01*
X204264677Y-96317608D01*
X204264679Y-96317608D01*
X204421892Y-96271933D01*
X204421892Y-96271932D01*
X204421897Y-96271931D01*
X204436879Y-96263070D01*
X204504601Y-96245887D01*
X204563120Y-96263070D01*
X204578103Y-96271931D01*
X204578105Y-96271931D01*
X204578106Y-96271932D01*
X204578107Y-96271933D01*
X204735320Y-96317608D01*
X204735323Y-96317608D01*
X204735325Y-96317609D01*
X204747570Y-96318572D01*
X204772058Y-96320500D01*
X204772060Y-96320500D01*
X205197942Y-96320500D01*
X205216307Y-96319054D01*
X205234675Y-96317609D01*
X205234677Y-96317608D01*
X205234679Y-96317608D01*
X205391892Y-96271933D01*
X205391893Y-96271932D01*
X205391897Y-96271931D01*
X205532820Y-96188590D01*
X205648590Y-96072820D01*
X205731931Y-95931897D01*
X205731932Y-95931893D01*
X205731933Y-95931892D01*
X205777608Y-95774679D01*
X205777609Y-95774673D01*
X205780500Y-95737942D01*
X205780500Y-95262058D01*
X205777609Y-95225326D01*
X205777608Y-95225320D01*
X205731933Y-95068107D01*
X205731931Y-95068104D01*
X205731931Y-95068103D01*
X205648590Y-94927180D01*
X205648588Y-94927178D01*
X205648585Y-94927174D01*
X205636819Y-94915408D01*
X205603334Y-94854085D01*
X205600500Y-94827727D01*
X205600500Y-90955048D01*
X205620185Y-90888009D01*
X205665481Y-90845993D01*
X205823509Y-90760474D01*
X206019744Y-90607738D01*
X206188164Y-90424785D01*
X206324173Y-90216607D01*
X206424063Y-89988881D01*
X206485108Y-89747821D01*
X206485109Y-89747812D01*
X206505643Y-89500005D01*
X206505643Y-89499994D01*
X206485109Y-89252187D01*
X206485107Y-89252175D01*
X206424063Y-89011118D01*
X206324173Y-88783393D01*
X206188166Y-88575217D01*
X206161831Y-88546610D01*
X206019744Y-88392262D01*
X205823509Y-88239526D01*
X205823507Y-88239525D01*
X205823506Y-88239524D01*
X205604811Y-88121172D01*
X205604802Y-88121169D01*
X205369616Y-88040429D01*
X205124335Y-87999500D01*
X204875665Y-87999500D01*
X204630383Y-88040429D01*
X204395197Y-88121169D01*
X204395188Y-88121172D01*
X204232811Y-88209047D01*
X204176491Y-88239526D01*
X204129519Y-88276086D01*
X204100662Y-88298546D01*
X204035667Y-88324188D01*
X203967128Y-88310621D01*
X203916803Y-88262152D01*
X203900500Y-88200692D01*
X203900500Y-86500096D01*
X203920185Y-86433057D01*
X203936815Y-86412419D01*
X204396452Y-85952781D01*
X204457773Y-85919298D01*
X204524392Y-85923182D01*
X204584436Y-85943796D01*
X204630385Y-85959571D01*
X204875665Y-86000500D01*
X205124335Y-86000500D01*
X205369614Y-85959571D01*
X205604810Y-85878828D01*
X205823509Y-85760474D01*
X206019744Y-85607738D01*
X206188164Y-85424785D01*
X206324173Y-85216607D01*
X206424063Y-84988881D01*
X206485108Y-84747821D01*
X206485109Y-84747812D01*
X206505643Y-84500005D01*
X206505643Y-84499994D01*
X206485109Y-84252187D01*
X206485107Y-84252175D01*
X206424063Y-84011118D01*
X206324173Y-83783393D01*
X206188166Y-83575217D01*
X206151256Y-83535122D01*
X206019744Y-83392262D01*
X205823509Y-83239526D01*
X205823507Y-83239525D01*
X205823506Y-83239524D01*
X205604811Y-83121172D01*
X205604802Y-83121169D01*
X205369616Y-83040429D01*
X205124335Y-82999500D01*
X204875665Y-82999500D01*
X204630383Y-83040429D01*
X204395197Y-83121169D01*
X204395188Y-83121172D01*
X204176493Y-83239524D01*
X203980257Y-83392261D01*
X203811833Y-83575217D01*
X203675826Y-83783393D01*
X203575936Y-84011118D01*
X203514892Y-84252175D01*
X203514890Y-84252187D01*
X203494357Y-84499994D01*
X203494357Y-84500005D01*
X203514890Y-84747812D01*
X203514892Y-84747824D01*
X203576007Y-84989160D01*
X203573382Y-85058980D01*
X203543482Y-85107281D01*
X202906096Y-85744668D01*
X202899994Y-85750019D01*
X202871716Y-85771719D01*
X202794986Y-85871717D01*
X202775464Y-85897158D01*
X202775461Y-85897163D01*
X202714957Y-86043234D01*
X202714955Y-86043239D01*
X202698541Y-86167922D01*
X202694318Y-86200000D01*
X202696236Y-86214572D01*
X202698969Y-86235326D01*
X202699500Y-86243427D01*
X202699500Y-94099902D01*
X202679815Y-94166941D01*
X202663181Y-94187583D01*
X202387584Y-94463181D01*
X202326261Y-94496666D01*
X202299903Y-94499500D01*
X183793393Y-94499500D01*
X183726354Y-94479815D01*
X183680599Y-94427011D01*
X183670655Y-94357853D01*
X183688399Y-94309528D01*
X183710590Y-94274211D01*
X183725789Y-94250022D01*
X183785368Y-94079755D01*
X183785569Y-94077970D01*
X183805565Y-93900503D01*
X183805565Y-93900496D01*
X183785369Y-93721250D01*
X183785368Y-93721245D01*
X183767501Y-93670185D01*
X183759693Y-93647870D01*
X195899500Y-93647870D01*
X195899501Y-93647876D01*
X195905908Y-93707483D01*
X195956202Y-93842328D01*
X195956206Y-93842335D01*
X196042452Y-93957544D01*
X196042455Y-93957547D01*
X196157664Y-94043793D01*
X196157671Y-94043797D01*
X196292517Y-94094091D01*
X196292516Y-94094091D01*
X196299444Y-94094835D01*
X196352127Y-94100500D01*
X199647872Y-94100499D01*
X199707483Y-94094091D01*
X199842331Y-94043796D01*
X199957546Y-93957546D01*
X200043796Y-93842331D01*
X200094091Y-93707483D01*
X200100500Y-93647873D01*
X200100499Y-91552128D01*
X200094091Y-91492517D01*
X200074503Y-91440000D01*
X200043797Y-91357671D01*
X200043793Y-91357664D01*
X199957547Y-91242455D01*
X199957544Y-91242452D01*
X199842335Y-91156206D01*
X199842328Y-91156202D01*
X199707482Y-91105908D01*
X199707483Y-91105908D01*
X199647883Y-91099501D01*
X199647881Y-91099500D01*
X199647873Y-91099500D01*
X199647864Y-91099500D01*
X196352129Y-91099500D01*
X196352123Y-91099501D01*
X196292516Y-91105908D01*
X196157671Y-91156202D01*
X196157664Y-91156206D01*
X196042455Y-91242452D01*
X196042452Y-91242455D01*
X195956206Y-91357664D01*
X195956202Y-91357671D01*
X195905908Y-91492517D01*
X195899501Y-91552116D01*
X195899501Y-91552123D01*
X195899500Y-91552135D01*
X195899500Y-93647870D01*
X183759693Y-93647870D01*
X183725789Y-93550978D01*
X183725787Y-93550975D01*
X183725787Y-93550974D01*
X183707425Y-93521750D01*
X183688419Y-93455779D01*
X183688419Y-92117603D01*
X183688950Y-92109501D01*
X183692821Y-92080103D01*
X183693601Y-92074175D01*
X183693124Y-92070555D01*
X183672963Y-91917414D01*
X183672961Y-91917409D01*
X183659558Y-91885052D01*
X183625324Y-91802402D01*
X183612457Y-91771338D01*
X183612454Y-91771333D01*
X183591324Y-91743795D01*
X183556476Y-91698381D01*
X183516201Y-91645893D01*
X183487924Y-91624195D01*
X183481823Y-91618844D01*
X182575160Y-90712181D01*
X182541675Y-90650858D01*
X182546659Y-90581166D01*
X182588531Y-90525233D01*
X182653995Y-90500816D01*
X182662841Y-90500500D01*
X189327145Y-90500500D01*
X189394184Y-90520185D01*
X189418374Y-90540517D01*
X189480021Y-90607483D01*
X189480256Y-90607738D01*
X189676491Y-90760474D01*
X189895190Y-90878828D01*
X190130386Y-90959571D01*
X190375665Y-91000500D01*
X190624335Y-91000500D01*
X190869614Y-90959571D01*
X191104810Y-90878828D01*
X191323509Y-90760474D01*
X191519744Y-90607738D01*
X191688164Y-90424785D01*
X191824173Y-90216607D01*
X191924063Y-89988881D01*
X191985108Y-89747821D01*
X191985109Y-89747812D01*
X192005643Y-89500005D01*
X192005643Y-89499994D01*
X191985109Y-89252187D01*
X191985107Y-89252175D01*
X191924063Y-89011118D01*
X191824173Y-88783393D01*
X191688166Y-88575217D01*
X191661831Y-88546610D01*
X191519744Y-88392262D01*
X191463010Y-88348104D01*
X191418623Y-88313556D01*
X191377810Y-88256846D01*
X191373697Y-88227249D01*
X190632534Y-87486086D01*
X190642315Y-87484680D01*
X190773100Y-87424952D01*
X190881761Y-87330798D01*
X190959493Y-87209844D01*
X190983076Y-87129524D01*
X191723434Y-87869882D01*
X191823731Y-87716369D01*
X191923587Y-87488717D01*
X191984612Y-87247738D01*
X191984614Y-87247729D01*
X192005141Y-87000005D01*
X192005141Y-86999994D01*
X191984614Y-86752270D01*
X191984612Y-86752261D01*
X191923587Y-86511282D01*
X191823732Y-86283632D01*
X191711515Y-86111870D01*
X191691328Y-86044981D01*
X191710508Y-85977795D01*
X191741013Y-85944782D01*
X191742329Y-85943796D01*
X191742331Y-85943796D01*
X191857546Y-85857546D01*
X191943796Y-85742331D01*
X191994091Y-85607483D01*
X192000500Y-85547873D01*
X192000499Y-83452128D01*
X191994091Y-83392517D01*
X191989311Y-83379702D01*
X191943797Y-83257671D01*
X191943793Y-83257664D01*
X191857547Y-83142455D01*
X191857544Y-83142452D01*
X191742335Y-83056206D01*
X191742328Y-83056202D01*
X191607482Y-83005908D01*
X191607483Y-83005908D01*
X191547883Y-82999501D01*
X191547881Y-82999500D01*
X191547873Y-82999500D01*
X191547864Y-82999500D01*
X189452129Y-82999500D01*
X189452123Y-82999501D01*
X189392516Y-83005908D01*
X189257671Y-83056202D01*
X189257664Y-83056206D01*
X189142455Y-83142452D01*
X189142452Y-83142455D01*
X189056206Y-83257664D01*
X189056202Y-83257671D01*
X189005908Y-83392517D01*
X188999512Y-83452011D01*
X188999501Y-83452123D01*
X188999500Y-83452135D01*
X188999500Y-84211194D01*
X188979815Y-84278233D01*
X188927011Y-84323988D01*
X188857853Y-84333932D01*
X188812379Y-84317926D01*
X188697521Y-84250000D01*
X188676395Y-84237506D01*
X188676394Y-84237505D01*
X188676393Y-84237505D01*
X188676390Y-84237504D01*
X188520997Y-84192357D01*
X188520991Y-84192356D01*
X188484692Y-84189500D01*
X188484690Y-84189500D01*
X188075310Y-84189500D01*
X188075308Y-84189500D01*
X188039008Y-84192356D01*
X188039002Y-84192357D01*
X187883609Y-84237504D01*
X187883604Y-84237506D01*
X187862628Y-84249911D01*
X187794903Y-84267092D01*
X187736389Y-84249911D01*
X187716191Y-84237966D01*
X187716190Y-84237965D01*
X187570001Y-84195493D01*
X187570000Y-84195494D01*
X187570000Y-84501645D01*
X187552734Y-84564763D01*
X187547507Y-84573600D01*
X187547504Y-84573608D01*
X187502357Y-84729002D01*
X187502356Y-84729008D01*
X187499500Y-84765308D01*
X187499500Y-84873419D01*
X187479815Y-84940458D01*
X187473876Y-84948905D01*
X187464606Y-84960986D01*
X187408178Y-85002189D01*
X187366230Y-85009500D01*
X187220097Y-85009500D01*
X187153058Y-84989815D01*
X187132416Y-84973181D01*
X187116818Y-84957583D01*
X187083333Y-84896260D01*
X187080499Y-84869902D01*
X187080499Y-84750820D01*
X187079918Y-84743436D01*
X187077665Y-84714796D01*
X187076021Y-84709139D01*
X187074923Y-84705357D01*
X187070000Y-84670763D01*
X187070000Y-84195494D01*
X187069998Y-84195493D01*
X186923809Y-84237965D01*
X186923808Y-84237966D01*
X186883881Y-84261579D01*
X186816157Y-84278760D01*
X186757640Y-84261578D01*
X186716936Y-84237506D01*
X186699393Y-84227131D01*
X186699392Y-84227130D01*
X186699391Y-84227130D01*
X186699388Y-84227129D01*
X186545208Y-84182335D01*
X186545202Y-84182334D01*
X186509183Y-84179500D01*
X186509181Y-84179500D01*
X186243607Y-84179500D01*
X186110819Y-84179501D01*
X186074794Y-84182335D01*
X185920611Y-84227129D01*
X185920604Y-84227132D01*
X185863119Y-84261128D01*
X185795395Y-84278309D01*
X185736881Y-84261128D01*
X185679395Y-84227132D01*
X185679388Y-84227129D01*
X185525208Y-84182335D01*
X185525202Y-84182334D01*
X185489183Y-84179500D01*
X185489181Y-84179500D01*
X185223607Y-84179500D01*
X185090819Y-84179501D01*
X185054794Y-84182335D01*
X184900611Y-84227129D01*
X184900606Y-84227131D01*
X184762404Y-84308863D01*
X184762396Y-84308869D01*
X184648869Y-84422396D01*
X184648863Y-84422404D01*
X184642408Y-84433319D01*
X184591337Y-84481001D01*
X184522595Y-84493502D01*
X184458006Y-84466854D01*
X184435049Y-84440357D01*
X184434499Y-84440785D01*
X184429714Y-84434616D01*
X184315383Y-84320285D01*
X184315374Y-84320278D01*
X184176193Y-84237967D01*
X184176190Y-84237965D01*
X184030001Y-84195493D01*
X184030000Y-84195494D01*
X184030000Y-85163566D01*
X184047166Y-85195004D01*
X184050000Y-85221362D01*
X184050000Y-85339402D01*
X184030315Y-85406441D01*
X184013679Y-85427085D01*
X183986095Y-85454669D01*
X183979994Y-85460019D01*
X183951716Y-85481718D01*
X183886333Y-85566930D01*
X183855463Y-85607160D01*
X183830002Y-85668628D01*
X183786160Y-85723031D01*
X183719866Y-85745095D01*
X183652166Y-85727815D01*
X183604557Y-85676677D01*
X183596367Y-85655776D01*
X183572494Y-85573605D01*
X183556293Y-85546211D01*
X183539110Y-85478490D01*
X183552035Y-85434696D01*
X183549396Y-85433554D01*
X183552489Y-85426402D01*
X183552494Y-85426395D01*
X183597643Y-85270993D01*
X183600500Y-85234690D01*
X183600500Y-84765310D01*
X183600182Y-84761274D01*
X183597643Y-84729008D01*
X183597642Y-84729002D01*
X183552495Y-84573608D01*
X183552492Y-84573600D01*
X183547266Y-84564763D01*
X183530000Y-84501645D01*
X183530000Y-84195494D01*
X183529998Y-84195493D01*
X183383809Y-84237965D01*
X183383806Y-84237967D01*
X183363608Y-84249912D01*
X183295884Y-84267092D01*
X183237370Y-84249910D01*
X183216397Y-84237507D01*
X183216392Y-84237504D01*
X183066049Y-84193825D01*
X183007164Y-84156218D01*
X182983604Y-84115706D01*
X182925789Y-83950478D01*
X182829816Y-83797738D01*
X182702262Y-83670184D01*
X182645021Y-83634217D01*
X182549523Y-83574211D01*
X182379254Y-83514631D01*
X182379249Y-83514630D01*
X182200004Y-83494435D01*
X182199996Y-83494435D01*
X182020750Y-83514630D01*
X182020742Y-83514632D01*
X181857032Y-83571917D01*
X181787254Y-83575478D01*
X181770591Y-83570231D01*
X181681564Y-83535123D01*
X181681563Y-83535122D01*
X181681561Y-83535122D01*
X181635926Y-83529642D01*
X181593102Y-83524500D01*
X181593097Y-83524500D01*
X181049500Y-83524500D01*
X180982461Y-83504815D01*
X180936706Y-83452011D01*
X180925500Y-83400500D01*
X180925500Y-82856903D01*
X180925500Y-82856898D01*
X180914877Y-82768436D01*
X180859361Y-82627658D01*
X180859360Y-82627657D01*
X180859360Y-82627656D01*
X180767922Y-82507077D01*
X180647343Y-82415639D01*
X180547761Y-82376369D01*
X180506564Y-82360123D01*
X180506563Y-82360122D01*
X180506561Y-82360122D01*
X180460926Y-82354642D01*
X180418102Y-82349500D01*
X180231898Y-82349500D01*
X180188440Y-82354718D01*
X180139783Y-82360561D01*
X180110217Y-82360561D01*
X180061559Y-82354718D01*
X180018102Y-82349500D01*
X179831898Y-82349500D01*
X179788440Y-82354718D01*
X179739783Y-82360561D01*
X179710216Y-82360561D01*
X179644068Y-82352618D01*
X179579854Y-82325081D01*
X179540721Y-82267198D01*
X179535236Y-82219755D01*
X179535449Y-82217052D01*
X179535449Y-81807672D01*
X179532592Y-81771369D01*
X179529000Y-81759007D01*
X179487444Y-81615971D01*
X179487443Y-81615967D01*
X179487442Y-81615966D01*
X179475038Y-81594992D01*
X179457855Y-81527271D01*
X179475040Y-81468746D01*
X179486981Y-81448556D01*
X179529453Y-81302362D01*
X179223301Y-81302362D01*
X179160182Y-81285094D01*
X179151344Y-81279868D01*
X179151342Y-81279867D01*
X179151338Y-81279865D01*
X178995946Y-81234719D01*
X178995940Y-81234718D01*
X178959641Y-81231862D01*
X178959639Y-81231862D01*
X178490259Y-81231862D01*
X178490257Y-81231862D01*
X178453957Y-81234718D01*
X178453951Y-81234719D01*
X178298559Y-81279865D01*
X178298554Y-81279868D01*
X178289715Y-81285094D01*
X178226597Y-81302362D01*
X177920445Y-81302362D01*
X177962917Y-81448556D01*
X177974860Y-81468751D01*
X177992041Y-81536475D01*
X177974860Y-81594990D01*
X177962455Y-81615966D01*
X177962453Y-81615971D01*
X177917306Y-81771364D01*
X177917305Y-81771370D01*
X177914449Y-81807670D01*
X177914449Y-82217056D01*
X177914664Y-82219789D01*
X177900298Y-82288166D01*
X177851245Y-82337921D01*
X177805830Y-82352630D01*
X177739784Y-82360561D01*
X177710217Y-82360561D01*
X177661559Y-82354718D01*
X177618102Y-82349500D01*
X177431898Y-82349500D01*
X177388440Y-82354718D01*
X177339783Y-82360561D01*
X177310217Y-82360561D01*
X177261559Y-82354718D01*
X177218102Y-82349500D01*
X177031898Y-82349500D01*
X176988440Y-82354718D01*
X176939783Y-82360561D01*
X176910217Y-82360561D01*
X176861559Y-82354718D01*
X176818102Y-82349500D01*
X176631898Y-82349500D01*
X176588440Y-82354718D01*
X176539783Y-82360561D01*
X176510217Y-82360561D01*
X176461559Y-82354718D01*
X176418102Y-82349500D01*
X176231898Y-82349500D01*
X176188440Y-82354718D01*
X176139783Y-82360561D01*
X176110217Y-82360561D01*
X176061559Y-82354718D01*
X176018102Y-82349500D01*
X175933246Y-82349500D01*
X175866207Y-82329815D01*
X175820452Y-82277011D01*
X175809628Y-82215773D01*
X175810500Y-82204693D01*
X175810500Y-81795308D01*
X175807643Y-81759008D01*
X175807642Y-81759002D01*
X175766087Y-81615971D01*
X175762494Y-81603605D01*
X175750089Y-81582630D01*
X175732906Y-81514909D01*
X175750091Y-81456384D01*
X175762032Y-81436194D01*
X175804504Y-81290000D01*
X175498352Y-81290000D01*
X175435233Y-81272732D01*
X175426395Y-81267506D01*
X175426393Y-81267505D01*
X175426389Y-81267503D01*
X175270997Y-81222357D01*
X175270991Y-81222356D01*
X175234692Y-81219500D01*
X175234690Y-81219500D01*
X174765310Y-81219500D01*
X174765308Y-81219500D01*
X174729008Y-81222356D01*
X174729002Y-81222357D01*
X174573610Y-81267503D01*
X174573605Y-81267506D01*
X174564766Y-81272732D01*
X174501648Y-81290000D01*
X174195496Y-81290000D01*
X174237968Y-81436194D01*
X174249911Y-81456389D01*
X174267092Y-81524113D01*
X174249911Y-81582628D01*
X174237506Y-81603604D01*
X174237504Y-81603609D01*
X174192357Y-81759002D01*
X174192356Y-81759008D01*
X174189500Y-81795308D01*
X174189500Y-82204692D01*
X174192356Y-82240991D01*
X174192357Y-82240997D01*
X174237504Y-82396390D01*
X174237505Y-82396393D01*
X174237506Y-82396395D01*
X174264454Y-82441962D01*
X174319881Y-82535684D01*
X174319887Y-82535692D01*
X174434307Y-82650112D01*
X174434316Y-82650119D01*
X174443212Y-82655380D01*
X174463619Y-82667448D01*
X174511303Y-82718516D01*
X174524500Y-82774181D01*
X174524500Y-83400500D01*
X174504815Y-83467539D01*
X174452011Y-83513294D01*
X174400500Y-83524500D01*
X173493428Y-83524500D01*
X173485329Y-83523969D01*
X173450000Y-83519318D01*
X173414670Y-83523969D01*
X173406572Y-83524500D01*
X173355098Y-83524500D01*
X173288059Y-83504815D01*
X173267417Y-83488181D01*
X173246819Y-83467583D01*
X173213334Y-83406260D01*
X173210500Y-83379902D01*
X173210500Y-83265308D01*
X173207643Y-83229008D01*
X173207642Y-83229002D01*
X173162495Y-83073609D01*
X173162494Y-83073606D01*
X173162494Y-83073605D01*
X173080117Y-82934313D01*
X173080115Y-82934311D01*
X173080112Y-82934307D01*
X172965692Y-82819887D01*
X172965684Y-82819881D01*
X172870161Y-82763389D01*
X172826395Y-82737506D01*
X172826394Y-82737505D01*
X172826393Y-82737505D01*
X172826390Y-82737504D01*
X172670997Y-82692357D01*
X172670991Y-82692356D01*
X172634692Y-82689500D01*
X172634690Y-82689500D01*
X172225310Y-82689500D01*
X172225308Y-82689500D01*
X172189008Y-82692356D01*
X172189002Y-82692357D01*
X172033609Y-82737504D01*
X172033604Y-82737506D01*
X172012628Y-82749911D01*
X171944903Y-82767092D01*
X171886389Y-82749911D01*
X171866191Y-82737966D01*
X171866190Y-82737965D01*
X171720001Y-82695493D01*
X171720000Y-82695494D01*
X171720000Y-83001645D01*
X171702734Y-83064763D01*
X171697507Y-83073600D01*
X171697504Y-83073608D01*
X171652357Y-83229002D01*
X171652356Y-83229008D01*
X171649500Y-83265308D01*
X171649500Y-83734692D01*
X171652356Y-83770991D01*
X171652357Y-83770997D01*
X171697504Y-83926391D01*
X171697507Y-83926399D01*
X171702732Y-83935233D01*
X171720000Y-83998354D01*
X171720000Y-84001646D01*
X171702734Y-84064764D01*
X171697507Y-84073601D01*
X171697504Y-84073610D01*
X171652357Y-84229002D01*
X171652356Y-84229008D01*
X171649500Y-84265308D01*
X171649500Y-84600500D01*
X171629815Y-84667539D01*
X171577011Y-84713294D01*
X171525500Y-84724500D01*
X170440783Y-84724500D01*
X170373744Y-84704815D01*
X170353102Y-84688181D01*
X169914920Y-84249999D01*
X170691209Y-84249999D01*
X170691210Y-84250000D01*
X171220000Y-84250000D01*
X171220000Y-83750000D01*
X170691210Y-83750000D01*
X170692854Y-83770910D01*
X170737968Y-83926195D01*
X170737968Y-83926196D01*
X170744288Y-83936882D01*
X170761468Y-84004607D01*
X170744288Y-84063118D01*
X170737968Y-84073803D01*
X170737966Y-84073809D01*
X170692855Y-84229081D01*
X170692854Y-84229087D01*
X170691209Y-84249999D01*
X169914920Y-84249999D01*
X169386819Y-83721898D01*
X169353334Y-83660575D01*
X169350500Y-83634217D01*
X169350500Y-83550096D01*
X169370185Y-83483057D01*
X169386802Y-83462431D01*
X169393915Y-83455318D01*
X169399992Y-83449988D01*
X169428282Y-83428282D01*
X169524536Y-83302841D01*
X169546424Y-83249999D01*
X170691209Y-83249999D01*
X170691210Y-83250000D01*
X171220000Y-83250000D01*
X171220000Y-82695494D01*
X171219998Y-82695493D01*
X171073809Y-82737965D01*
X171073806Y-82737967D01*
X170934625Y-82820278D01*
X170934616Y-82820285D01*
X170820285Y-82934616D01*
X170820278Y-82934625D01*
X170737968Y-83073804D01*
X170737966Y-83073809D01*
X170692855Y-83229081D01*
X170692854Y-83229087D01*
X170691209Y-83249999D01*
X169546424Y-83249999D01*
X169584850Y-83157229D01*
X169611725Y-83117006D01*
X169691135Y-83037598D01*
X169772869Y-82899393D01*
X169810915Y-82768438D01*
X169817664Y-82745208D01*
X169817665Y-82745202D01*
X169818235Y-82737967D01*
X169820500Y-82709181D01*
X169820499Y-82310820D01*
X169817665Y-82274796D01*
X169772869Y-82120607D01*
X169738869Y-82063117D01*
X169721688Y-81995398D01*
X169738869Y-81936882D01*
X169772869Y-81879393D01*
X169777236Y-81864364D01*
X169817664Y-81725208D01*
X169817665Y-81725202D01*
X169820500Y-81689183D01*
X169820499Y-81290819D01*
X169820256Y-81287742D01*
X169817665Y-81254796D01*
X169772869Y-81100607D01*
X169691135Y-80962402D01*
X169691133Y-80962400D01*
X169691130Y-80962396D01*
X169577603Y-80848869D01*
X169577595Y-80848863D01*
X169498966Y-80802362D01*
X177920445Y-80802362D01*
X178474949Y-80802362D01*
X178474949Y-80273572D01*
X178474948Y-80273571D01*
X178974949Y-80273571D01*
X178974949Y-80802362D01*
X179529453Y-80802362D01*
X179486980Y-80656166D01*
X179404670Y-80516987D01*
X179404663Y-80516978D01*
X179290332Y-80402647D01*
X179290323Y-80402640D01*
X179151144Y-80320330D01*
X179151139Y-80320328D01*
X178995867Y-80275217D01*
X178995861Y-80275216D01*
X178974949Y-80273571D01*
X178474948Y-80273571D01*
X178454036Y-80275216D01*
X178454030Y-80275217D01*
X178298758Y-80320328D01*
X178298753Y-80320330D01*
X178159574Y-80402640D01*
X178159565Y-80402647D01*
X178045234Y-80516978D01*
X178045227Y-80516987D01*
X177962917Y-80656166D01*
X177920445Y-80802362D01*
X169498966Y-80802362D01*
X169478063Y-80790000D01*
X174195496Y-80790000D01*
X174750000Y-80790000D01*
X174750000Y-80261210D01*
X174749999Y-80261209D01*
X175250000Y-80261209D01*
X175250000Y-80790000D01*
X175804504Y-80790000D01*
X175762031Y-80643804D01*
X175679721Y-80504625D01*
X175679714Y-80504616D01*
X175565383Y-80390285D01*
X175565374Y-80390278D01*
X175426195Y-80307968D01*
X175426190Y-80307966D01*
X175270918Y-80262855D01*
X175270912Y-80262854D01*
X175250000Y-80261209D01*
X174749999Y-80261209D01*
X174729087Y-80262854D01*
X174729081Y-80262855D01*
X174573809Y-80307966D01*
X174573804Y-80307968D01*
X174434625Y-80390278D01*
X174434616Y-80390285D01*
X174320285Y-80504616D01*
X174320278Y-80504625D01*
X174237968Y-80643804D01*
X174195496Y-80790000D01*
X169478063Y-80790000D01*
X169439393Y-80767131D01*
X169439388Y-80767129D01*
X169285208Y-80722335D01*
X169285202Y-80722334D01*
X169249183Y-80719500D01*
X169249181Y-80719500D01*
X169130097Y-80719500D01*
X169063058Y-80699815D01*
X169042416Y-80683181D01*
X168857227Y-80497992D01*
X168665320Y-80306085D01*
X168659979Y-80299994D01*
X168638282Y-80271718D01*
X168574628Y-80222874D01*
X168533427Y-80166448D01*
X168529272Y-80096702D01*
X168563485Y-80035781D01*
X168625202Y-80003029D01*
X168650116Y-80000500D01*
X195836231Y-80000500D01*
X195903270Y-80020185D01*
G37*
G04 #@! TD.AperFunction*
G04 #@! TA.AperFunction,Conductor*
G36*
X181463596Y-93432406D02*
G01*
X181484899Y-93439860D01*
X181619240Y-93486868D01*
X181636227Y-93488782D01*
X181700641Y-93515845D01*
X181739388Y-93571046D01*
X181762130Y-93636038D01*
X181762131Y-93636039D01*
X181815670Y-93721245D01*
X181858103Y-93788777D01*
X181985657Y-93916331D01*
X182138397Y-94012304D01*
X182142003Y-94013566D01*
X182144020Y-94015012D01*
X182144670Y-94015325D01*
X182144615Y-94015438D01*
X182198780Y-94054282D01*
X182218094Y-94089650D01*
X182249534Y-94179500D01*
X182274210Y-94250021D01*
X182311601Y-94309528D01*
X182330601Y-94376765D01*
X182310233Y-94443600D01*
X182256966Y-94488814D01*
X182206607Y-94499500D01*
X181331252Y-94499500D01*
X181264213Y-94479815D01*
X181218458Y-94427011D01*
X181208514Y-94357853D01*
X181224520Y-94312379D01*
X181265047Y-94243850D01*
X181307520Y-94097655D01*
X180649723Y-94097655D01*
X180582684Y-94077970D01*
X180562042Y-94061336D01*
X180380542Y-93879836D01*
X180347057Y-93818513D01*
X180352041Y-93748821D01*
X180393913Y-93692888D01*
X180459377Y-93668471D01*
X180468223Y-93668155D01*
X180737708Y-93668155D01*
X180755857Y-93666726D01*
X180774009Y-93665298D01*
X180774011Y-93665297D01*
X180774013Y-93665297D01*
X180929405Y-93620151D01*
X180929405Y-93620150D01*
X180929411Y-93620149D01*
X180938249Y-93614922D01*
X181001368Y-93597655D01*
X181307520Y-93597655D01*
X181303566Y-93584043D01*
X181303765Y-93514174D01*
X181341707Y-93455504D01*
X181405346Y-93426660D01*
X181463596Y-93432406D01*
G37*
G04 #@! TD.AperFunction*
G04 #@! TA.AperFunction,Conductor*
G36*
X166113971Y-83660710D02*
G01*
X166120449Y-83666742D01*
X166203181Y-83749474D01*
X166236666Y-83810797D01*
X166239500Y-83837155D01*
X166239500Y-86327848D01*
X166238969Y-86335946D01*
X166238009Y-86343238D01*
X166234318Y-86371276D01*
X166234318Y-86371278D01*
X166244962Y-86452127D01*
X166254955Y-86528037D01*
X166254956Y-86528039D01*
X166315464Y-86674118D01*
X166411718Y-86799559D01*
X166439995Y-86821257D01*
X166446085Y-86826597D01*
X168420751Y-88801265D01*
X168813386Y-89193900D01*
X168818739Y-89200003D01*
X168840436Y-89228279D01*
X168840437Y-89228280D01*
X168840439Y-89228282D01*
X168943738Y-89307546D01*
X168965880Y-89324536D01*
X169111959Y-89385044D01*
X169268720Y-89405683D01*
X169268721Y-89405683D01*
X169304055Y-89401030D01*
X169312155Y-89400500D01*
X170713336Y-89400500D01*
X170780375Y-89420185D01*
X170826130Y-89472989D01*
X170836074Y-89542147D01*
X170807049Y-89605703D01*
X170801017Y-89612181D01*
X169508665Y-90904533D01*
X169447342Y-90938018D01*
X169420984Y-90940852D01*
X166032268Y-90940852D01*
X165965229Y-90921167D01*
X165919474Y-90868363D01*
X165908268Y-90816852D01*
X165908268Y-90691352D01*
X164982268Y-90691352D01*
X164915229Y-90671667D01*
X164869474Y-90618863D01*
X164858268Y-90567352D01*
X164858268Y-89144055D01*
X165358268Y-89144055D01*
X165358268Y-90191352D01*
X165908268Y-90191352D01*
X165908268Y-89725708D01*
X165905368Y-89688862D01*
X165905367Y-89688856D01*
X165859551Y-89531158D01*
X165859550Y-89531155D01*
X165775953Y-89389799D01*
X165775946Y-89389790D01*
X165659829Y-89273673D01*
X165659820Y-89273666D01*
X165518464Y-89190069D01*
X165518461Y-89190068D01*
X165360762Y-89144252D01*
X165360765Y-89144252D01*
X165358268Y-89144055D01*
X164858268Y-89144055D01*
X164855771Y-89144252D01*
X164698074Y-89190068D01*
X164698071Y-89190069D01*
X164556717Y-89273665D01*
X164550551Y-89278449D01*
X164548657Y-89276007D01*
X164499848Y-89302591D01*
X164430162Y-89297531D01*
X164397495Y-89276511D01*
X164396299Y-89278054D01*
X164390130Y-89273269D01*
X164306778Y-89223975D01*
X164248666Y-89189608D01*
X164248665Y-89189607D01*
X164248664Y-89189607D01*
X164248661Y-89189606D01*
X164090841Y-89143754D01*
X164090835Y-89143753D01*
X164053964Y-89140852D01*
X164053962Y-89140852D01*
X163622574Y-89140852D01*
X163622572Y-89140852D01*
X163585700Y-89143753D01*
X163585694Y-89143754D01*
X163427874Y-89189606D01*
X163427871Y-89189607D01*
X163286405Y-89273269D01*
X163280237Y-89278054D01*
X163278340Y-89275608D01*
X163229626Y-89302209D01*
X163159934Y-89297225D01*
X163127564Y-89276421D01*
X163126299Y-89278054D01*
X163120130Y-89273269D01*
X163036778Y-89223975D01*
X162978666Y-89189608D01*
X162978665Y-89189607D01*
X162978664Y-89189607D01*
X162978661Y-89189606D01*
X162820841Y-89143754D01*
X162820835Y-89143753D01*
X162783964Y-89140852D01*
X162783962Y-89140852D01*
X162352574Y-89140852D01*
X162352572Y-89140852D01*
X162315700Y-89143753D01*
X162315694Y-89143754D01*
X162157874Y-89189606D01*
X162157871Y-89189607D01*
X162016405Y-89273269D01*
X162010237Y-89278054D01*
X162008340Y-89275608D01*
X161959626Y-89302209D01*
X161889934Y-89297225D01*
X161857564Y-89276421D01*
X161856299Y-89278054D01*
X161850130Y-89273269D01*
X161766778Y-89223975D01*
X161708666Y-89189608D01*
X161708665Y-89189607D01*
X161708664Y-89189607D01*
X161708661Y-89189606D01*
X161550841Y-89143754D01*
X161550835Y-89143753D01*
X161513964Y-89140852D01*
X161513962Y-89140852D01*
X161082574Y-89140852D01*
X161082572Y-89140852D01*
X161045700Y-89143753D01*
X161045694Y-89143754D01*
X160887874Y-89189606D01*
X160887871Y-89189607D01*
X160746405Y-89273269D01*
X160746397Y-89273275D01*
X160630191Y-89389481D01*
X160630185Y-89389489D01*
X160546523Y-89530955D01*
X160546522Y-89530958D01*
X160500670Y-89688778D01*
X160500669Y-89688784D01*
X160497768Y-89725656D01*
X160497768Y-91157048D01*
X160500669Y-91193919D01*
X160500670Y-91193925D01*
X160546522Y-91351745D01*
X160546523Y-91351748D01*
X160546524Y-91351750D01*
X160560412Y-91375233D01*
X160630185Y-91493214D01*
X160630191Y-91493222D01*
X160746397Y-91609428D01*
X160746406Y-91609435D01*
X160827758Y-91657546D01*
X160887870Y-91693096D01*
X160887875Y-91693097D01*
X160888909Y-91693545D01*
X160890787Y-91694821D01*
X160894586Y-91697068D01*
X160894444Y-91697306D01*
X160927351Y-91719669D01*
X161195501Y-91987819D01*
X161228986Y-92049142D01*
X161224002Y-92118834D01*
X161182130Y-92174767D01*
X161116666Y-92199184D01*
X161107820Y-92199500D01*
X158228326Y-92199500D01*
X158161287Y-92179815D01*
X158121594Y-92138621D01*
X158073828Y-92057853D01*
X158068081Y-92048135D01*
X158068079Y-92048133D01*
X158068076Y-92048129D01*
X157951870Y-91931923D01*
X157951862Y-91931917D01*
X157810396Y-91848255D01*
X157810393Y-91848254D01*
X157652573Y-91802402D01*
X157652567Y-91802401D01*
X157615696Y-91799500D01*
X157615694Y-91799500D01*
X157184306Y-91799500D01*
X157184304Y-91799500D01*
X157147432Y-91802401D01*
X157147426Y-91802402D01*
X156989606Y-91848254D01*
X156989603Y-91848255D01*
X156863121Y-91923056D01*
X156795397Y-91940239D01*
X156736879Y-91923056D01*
X156610396Y-91848255D01*
X156610393Y-91848254D01*
X156452573Y-91802402D01*
X156452567Y-91802401D01*
X156415696Y-91799500D01*
X156415694Y-91799500D01*
X155984306Y-91799500D01*
X155984304Y-91799500D01*
X155947432Y-91802401D01*
X155947426Y-91802402D01*
X155789606Y-91848254D01*
X155789603Y-91848255D01*
X155663121Y-91923056D01*
X155595397Y-91940239D01*
X155536879Y-91923056D01*
X155410396Y-91848255D01*
X155410393Y-91848254D01*
X155252573Y-91802402D01*
X155252567Y-91802401D01*
X155215696Y-91799500D01*
X155215694Y-91799500D01*
X154784306Y-91799500D01*
X154784304Y-91799500D01*
X154747432Y-91802401D01*
X154747426Y-91802402D01*
X154589606Y-91848254D01*
X154589603Y-91848255D01*
X154448137Y-91931917D01*
X154448129Y-91931923D01*
X154331923Y-92048129D01*
X154331917Y-92048137D01*
X154248255Y-92189603D01*
X154248254Y-92189606D01*
X154202402Y-92347426D01*
X154202401Y-92347432D01*
X154199500Y-92384304D01*
X154199500Y-93065696D01*
X154202401Y-93102567D01*
X154202402Y-93102573D01*
X154248254Y-93260393D01*
X154248255Y-93260396D01*
X154331917Y-93401862D01*
X154331923Y-93401870D01*
X154448129Y-93518076D01*
X154448133Y-93518079D01*
X154448135Y-93518081D01*
X154589602Y-93601744D01*
X154601969Y-93605337D01*
X154747426Y-93647597D01*
X154747429Y-93647597D01*
X154747431Y-93647598D01*
X154759722Y-93648565D01*
X154784304Y-93650500D01*
X154784306Y-93650500D01*
X155024903Y-93650500D01*
X155091942Y-93670185D01*
X155112584Y-93686819D01*
X155113584Y-93687819D01*
X155147069Y-93749142D01*
X155142085Y-93818834D01*
X155100213Y-93874767D01*
X155034749Y-93899184D01*
X155025903Y-93899500D01*
X149475097Y-93899500D01*
X149408058Y-93879815D01*
X149387416Y-93863181D01*
X148236819Y-92712584D01*
X148203334Y-92651261D01*
X148200500Y-92624903D01*
X148200500Y-92384304D01*
X148197598Y-92347432D01*
X148197597Y-92347426D01*
X148154503Y-92199095D01*
X148154702Y-92129225D01*
X148192644Y-92070555D01*
X148256283Y-92041712D01*
X148273579Y-92040500D01*
X151817588Y-92040500D01*
X151884627Y-92060185D01*
X151894903Y-92067555D01*
X151897736Y-92069814D01*
X151897738Y-92069816D01*
X151975750Y-92118834D01*
X152019566Y-92146366D01*
X152050478Y-92165789D01*
X152146819Y-92199500D01*
X152220745Y-92225368D01*
X152220750Y-92225369D01*
X152399996Y-92245565D01*
X152400000Y-92245565D01*
X152400004Y-92245565D01*
X152579249Y-92225369D01*
X152579252Y-92225368D01*
X152579255Y-92225368D01*
X152749522Y-92165789D01*
X152902262Y-92069816D01*
X153029816Y-91942262D01*
X153125789Y-91789522D01*
X153185368Y-91619255D01*
X153185369Y-91619249D01*
X153205565Y-91440003D01*
X153205565Y-91439996D01*
X153185369Y-91260750D01*
X153185368Y-91260745D01*
X153161985Y-91193921D01*
X153125789Y-91090478D01*
X153105042Y-91057460D01*
X153043994Y-90960302D01*
X153029816Y-90937738D01*
X152902262Y-90810184D01*
X152823154Y-90760477D01*
X152749523Y-90714211D01*
X152579254Y-90654631D01*
X152579249Y-90654630D01*
X152400004Y-90634435D01*
X152399996Y-90634435D01*
X152220750Y-90654630D01*
X152220745Y-90654631D01*
X152050476Y-90714211D01*
X151897736Y-90810185D01*
X151894903Y-90812445D01*
X151892724Y-90813334D01*
X151891842Y-90813889D01*
X151891744Y-90813734D01*
X151830217Y-90838855D01*
X151817588Y-90839500D01*
X151225143Y-90839500D01*
X151158104Y-90819815D01*
X151112349Y-90767011D01*
X151102405Y-90697853D01*
X151124821Y-90642620D01*
X151129064Y-90636777D01*
X151129071Y-90636770D01*
X151139297Y-90618166D01*
X151149970Y-90601918D01*
X151162986Y-90585140D01*
X151182275Y-90540564D01*
X151184847Y-90535313D01*
X151190980Y-90524157D01*
X151208250Y-90492745D01*
X151213527Y-90472185D01*
X151219829Y-90453780D01*
X151228259Y-90434303D01*
X151235858Y-90386322D01*
X151237040Y-90380611D01*
X151249123Y-90333554D01*
X151249123Y-90312332D01*
X151250650Y-90292932D01*
X151251690Y-90286366D01*
X151253970Y-90271972D01*
X151249398Y-90223604D01*
X151249123Y-90217766D01*
X151249123Y-90048378D01*
X151268808Y-89981339D01*
X151321612Y-89935584D01*
X151373123Y-89924378D01*
X151541399Y-89924378D01*
X151604520Y-89941646D01*
X151717816Y-90008649D01*
X151758798Y-90020555D01*
X151873213Y-90053797D01*
X151873216Y-90053797D01*
X151873218Y-90053798D01*
X151885319Y-90054750D01*
X151909519Y-90056655D01*
X151909521Y-90056655D01*
X152378903Y-90056655D01*
X152397052Y-90055226D01*
X152415204Y-90053798D01*
X152415206Y-90053797D01*
X152415208Y-90053797D01*
X152479338Y-90035165D01*
X152570606Y-90008649D01*
X152680051Y-89943922D01*
X152743172Y-89926655D01*
X152919950Y-89926655D01*
X152935960Y-89928422D01*
X152935983Y-89928181D01*
X152943744Y-89928913D01*
X152943751Y-89928915D01*
X153015658Y-89926655D01*
X153046380Y-89926655D01*
X153053645Y-89925736D01*
X153059471Y-89925277D01*
X153108024Y-89923752D01*
X153128411Y-89917828D01*
X153147451Y-89913886D01*
X153168513Y-89911226D01*
X153213690Y-89893338D01*
X153219190Y-89891455D01*
X153265853Y-89877899D01*
X153284120Y-89867094D01*
X153301591Y-89858535D01*
X153321326Y-89850723D01*
X153360632Y-89822165D01*
X153365498Y-89818968D01*
X153407320Y-89794236D01*
X153422325Y-89779230D01*
X153437123Y-89766591D01*
X153454292Y-89754118D01*
X153485264Y-89716677D01*
X153489168Y-89712386D01*
X159273385Y-83928171D01*
X159334708Y-83894686D01*
X159361066Y-83891852D01*
X160378624Y-83891852D01*
X160445663Y-83911537D01*
X160491418Y-83964341D01*
X160498811Y-83987863D01*
X160498902Y-83987837D01*
X160500107Y-83991984D01*
X160500605Y-83993569D01*
X160500668Y-83993918D01*
X160546522Y-84151745D01*
X160546523Y-84151748D01*
X160546524Y-84151750D01*
X160621637Y-84278760D01*
X160630500Y-84293746D01*
X160647768Y-84356867D01*
X160647768Y-84969126D01*
X160646000Y-84985137D01*
X160646242Y-84985160D01*
X160645508Y-84992926D01*
X160647768Y-85064835D01*
X160647768Y-85095552D01*
X160647769Y-85095572D01*
X160648686Y-85102838D01*
X160649144Y-85108656D01*
X160650670Y-85157199D01*
X160650671Y-85157202D01*
X160656591Y-85177580D01*
X160660536Y-85196628D01*
X160663196Y-85217686D01*
X160663199Y-85217696D01*
X160681081Y-85262862D01*
X160682973Y-85268390D01*
X160696522Y-85315027D01*
X160696523Y-85315029D01*
X160707328Y-85333298D01*
X160715885Y-85350766D01*
X160721494Y-85364932D01*
X160723700Y-85370504D01*
X160752251Y-85409802D01*
X160755456Y-85414681D01*
X160780187Y-85456497D01*
X160780191Y-85456501D01*
X160795193Y-85471503D01*
X160807831Y-85486301D01*
X160820301Y-85503465D01*
X160820304Y-85503468D01*
X160820305Y-85503469D01*
X160857744Y-85534441D01*
X160862044Y-85538354D01*
X160930849Y-85607159D01*
X160994663Y-85670973D01*
X161028148Y-85732296D01*
X161030201Y-85744762D01*
X161031016Y-85751996D01*
X161031018Y-85752005D01*
X161090596Y-85922271D01*
X161166605Y-86043238D01*
X161186570Y-86075012D01*
X161314124Y-86202566D01*
X161388876Y-86249536D01*
X161443139Y-86283632D01*
X161466864Y-86298539D01*
X161594609Y-86343239D01*
X161637131Y-86358118D01*
X161637136Y-86358119D01*
X161816382Y-86378315D01*
X161816386Y-86378315D01*
X161816390Y-86378315D01*
X161995635Y-86358119D01*
X161995638Y-86358118D01*
X161995641Y-86358118D01*
X162165908Y-86298539D01*
X162318648Y-86202566D01*
X162446202Y-86075012D01*
X162542175Y-85922272D01*
X162601754Y-85752005D01*
X162602142Y-85748565D01*
X162621951Y-85572753D01*
X162621951Y-85572746D01*
X162601755Y-85393500D01*
X162601754Y-85393495D01*
X162599162Y-85386087D01*
X162542175Y-85223228D01*
X162531161Y-85205700D01*
X162480454Y-85125000D01*
X162446202Y-85070488D01*
X162318648Y-84942934D01*
X162165908Y-84846961D01*
X162165905Y-84846959D01*
X162031813Y-84800038D01*
X161975037Y-84759317D01*
X161949290Y-84694364D01*
X161948768Y-84682997D01*
X161948768Y-84586828D01*
X161968453Y-84519789D01*
X162021257Y-84474034D01*
X162090415Y-84464090D01*
X162135885Y-84480094D01*
X162157870Y-84493096D01*
X162157873Y-84493096D01*
X162157875Y-84493098D01*
X162315694Y-84538949D01*
X162315697Y-84538949D01*
X162315699Y-84538950D01*
X162327990Y-84539917D01*
X162352572Y-84541852D01*
X162352574Y-84541852D01*
X162783964Y-84541852D01*
X162802399Y-84540401D01*
X162820837Y-84538950D01*
X162820839Y-84538949D01*
X162820841Y-84538949D01*
X162886789Y-84519789D01*
X162978666Y-84493096D01*
X163120133Y-84409433D01*
X163120138Y-84409427D01*
X163126299Y-84404650D01*
X163128201Y-84407102D01*
X163176847Y-84380507D01*
X163246542Y-84385456D01*
X163278963Y-84406292D01*
X163280237Y-84404650D01*
X163286400Y-84409430D01*
X163286403Y-84409433D01*
X163427870Y-84493096D01*
X163451651Y-84500005D01*
X163585694Y-84538949D01*
X163585697Y-84538949D01*
X163585699Y-84538950D01*
X163597990Y-84539917D01*
X163622572Y-84541852D01*
X163622574Y-84541852D01*
X164053964Y-84541852D01*
X164072399Y-84540401D01*
X164090837Y-84538950D01*
X164090839Y-84538949D01*
X164090841Y-84538949D01*
X164156789Y-84519789D01*
X164248666Y-84493096D01*
X164390133Y-84409433D01*
X164390138Y-84409427D01*
X164396299Y-84404650D01*
X164398201Y-84407102D01*
X164446847Y-84380507D01*
X164516542Y-84385456D01*
X164548963Y-84406292D01*
X164550237Y-84404650D01*
X164556400Y-84409430D01*
X164556403Y-84409433D01*
X164697870Y-84493096D01*
X164721651Y-84500005D01*
X164855694Y-84538949D01*
X164855697Y-84538949D01*
X164855699Y-84538950D01*
X164867990Y-84539917D01*
X164892572Y-84541852D01*
X164892574Y-84541852D01*
X165323964Y-84541852D01*
X165342399Y-84540401D01*
X165360837Y-84538950D01*
X165360839Y-84538949D01*
X165360841Y-84538949D01*
X165426789Y-84519789D01*
X165518666Y-84493096D01*
X165660133Y-84409433D01*
X165776349Y-84293217D01*
X165860012Y-84151750D01*
X165893773Y-84035543D01*
X165905865Y-83993925D01*
X165905866Y-83993919D01*
X165908768Y-83957048D01*
X165908768Y-83754423D01*
X165928453Y-83687384D01*
X165981257Y-83641629D01*
X166050415Y-83631685D01*
X166113971Y-83660710D01*
G37*
G04 #@! TD.AperFunction*
G04 #@! TA.AperFunction,Conductor*
G36*
X174467539Y-89945185D02*
G01*
X174513294Y-89997989D01*
X174524500Y-90049500D01*
X174524500Y-90524157D01*
X174504815Y-90591196D01*
X174452011Y-90636951D01*
X174400500Y-90648157D01*
X174386931Y-90648157D01*
X174350631Y-90651013D01*
X174350625Y-90651014D01*
X174195232Y-90696161D01*
X174195227Y-90696163D01*
X174174251Y-90708568D01*
X174106526Y-90725749D01*
X174048012Y-90708568D01*
X174027814Y-90696623D01*
X174027813Y-90696622D01*
X173881624Y-90654150D01*
X173881623Y-90654151D01*
X173881623Y-90960302D01*
X173864357Y-91023420D01*
X173859130Y-91032257D01*
X173859127Y-91032265D01*
X173813980Y-91187659D01*
X173813979Y-91187665D01*
X173811123Y-91223965D01*
X173811123Y-91584657D01*
X173791438Y-91651696D01*
X173738634Y-91697451D01*
X173687123Y-91708657D01*
X172852833Y-91708657D01*
X172854477Y-91729567D01*
X172899591Y-91884852D01*
X172975010Y-92012379D01*
X172992193Y-92080103D01*
X172970033Y-92146366D01*
X172915567Y-92190129D01*
X172868278Y-92199500D01*
X171464782Y-92199500D01*
X171397743Y-92179815D01*
X171351988Y-92127011D01*
X171342044Y-92057853D01*
X171371069Y-91994297D01*
X171377101Y-91987819D01*
X172156265Y-91208656D01*
X172852832Y-91208656D01*
X172852833Y-91208657D01*
X173381623Y-91208657D01*
X173381623Y-90654151D01*
X173381621Y-90654150D01*
X173235432Y-90696622D01*
X173235429Y-90696624D01*
X173096248Y-90778935D01*
X173096239Y-90778942D01*
X172981908Y-90893273D01*
X172981901Y-90893282D01*
X172899591Y-91032461D01*
X172899589Y-91032466D01*
X172854478Y-91187738D01*
X172854477Y-91187744D01*
X172852832Y-91208656D01*
X172156265Y-91208656D01*
X172307461Y-91057460D01*
X173403102Y-89961819D01*
X173464425Y-89928334D01*
X173490783Y-89925500D01*
X173856898Y-89925500D01*
X174400500Y-89925500D01*
X174467539Y-89945185D01*
G37*
G04 #@! TD.AperFunction*
G04 #@! TA.AperFunction,Conductor*
G36*
X183328395Y-87945185D02*
G01*
X183374150Y-87997989D01*
X183384974Y-88039771D01*
X183387240Y-88068571D01*
X183387241Y-88068577D01*
X183432388Y-88223970D01*
X183432391Y-88223977D01*
X183444794Y-88244950D01*
X183461977Y-88312674D01*
X183444796Y-88371188D01*
X183432852Y-88391384D01*
X183390380Y-88537580D01*
X183696532Y-88537580D01*
X183759650Y-88554847D01*
X183768489Y-88560074D01*
X183768492Y-88560074D01*
X183768494Y-88560076D01*
X183923886Y-88605222D01*
X183923889Y-88605222D01*
X183923891Y-88605223D01*
X183935992Y-88606175D01*
X183960192Y-88608080D01*
X183960194Y-88608080D01*
X184074786Y-88608080D01*
X184141825Y-88627765D01*
X184162467Y-88644399D01*
X184205887Y-88687819D01*
X184239372Y-88749142D01*
X184234388Y-88818834D01*
X184192516Y-88874767D01*
X184127052Y-88899184D01*
X184118206Y-88899500D01*
X183100097Y-88899500D01*
X183033058Y-88879815D01*
X183012416Y-88863181D01*
X182896022Y-88746787D01*
X182680320Y-88531085D01*
X182674980Y-88524995D01*
X182653282Y-88496718D01*
X182527841Y-88400464D01*
X182513003Y-88394318D01*
X182381762Y-88339956D01*
X182381760Y-88339955D01*
X182225001Y-88319318D01*
X182224500Y-88319318D01*
X182224092Y-88319198D01*
X182216942Y-88318257D01*
X182217088Y-88317141D01*
X182157461Y-88299633D01*
X182111706Y-88246829D01*
X182100500Y-88195318D01*
X182100500Y-88049500D01*
X182120185Y-87982461D01*
X182172989Y-87936706D01*
X182224500Y-87925500D01*
X183261356Y-87925500D01*
X183328395Y-87945185D01*
G37*
G04 #@! TD.AperFunction*
G04 #@! TA.AperFunction,Conductor*
G36*
X150688350Y-84610282D02*
G01*
X150734105Y-84663086D01*
X150745311Y-84714597D01*
X150745311Y-84755138D01*
X150744780Y-84763236D01*
X150743713Y-84771343D01*
X150740129Y-84798566D01*
X150740129Y-84798568D01*
X150760766Y-84955327D01*
X150760768Y-84955332D01*
X150821272Y-85101403D01*
X150821275Y-85101408D01*
X150893361Y-85195352D01*
X150917527Y-85226847D01*
X150927749Y-85234690D01*
X150945803Y-85248543D01*
X150951900Y-85253891D01*
X151443697Y-85745687D01*
X151449050Y-85751791D01*
X151451129Y-85754500D01*
X151470742Y-85780060D01*
X151501171Y-85803409D01*
X151501188Y-85803423D01*
X151596182Y-85876314D01*
X151596183Y-85876314D01*
X151596184Y-85876315D01*
X151646507Y-85897159D01*
X151742262Y-85936822D01*
X151859663Y-85952278D01*
X151859664Y-85952278D01*
X151899025Y-85957460D01*
X151934354Y-85952808D01*
X151942453Y-85952278D01*
X155110024Y-85952278D01*
X155177063Y-85971963D01*
X155222818Y-86024767D01*
X155232762Y-86093925D01*
X155203737Y-86157481D01*
X155197705Y-86163959D01*
X153165853Y-88195809D01*
X153104530Y-88229294D01*
X153034838Y-88224310D01*
X152978905Y-88182438D01*
X152954488Y-88116974D01*
X152954267Y-88112980D01*
X152954209Y-88111513D01*
X152951356Y-88075244D01*
X152906241Y-87919958D01*
X152823932Y-87780780D01*
X152823925Y-87780771D01*
X152709594Y-87666440D01*
X152709585Y-87666433D01*
X152570406Y-87584123D01*
X152570401Y-87584121D01*
X152415129Y-87539010D01*
X152415123Y-87539009D01*
X152394211Y-87537364D01*
X152394211Y-88371655D01*
X152374526Y-88438694D01*
X152321722Y-88484449D01*
X152270211Y-88495655D01*
X151909519Y-88495655D01*
X151873219Y-88498511D01*
X151873213Y-88498512D01*
X151717821Y-88543658D01*
X151717816Y-88543661D01*
X151708977Y-88548887D01*
X151645859Y-88566155D01*
X151347850Y-88566155D01*
X151340095Y-88563878D01*
X151096975Y-88563878D01*
X151033856Y-88546610D01*
X151025018Y-88541384D01*
X151025016Y-88541383D01*
X151025012Y-88541381D01*
X150869620Y-88496235D01*
X150869614Y-88496234D01*
X150833315Y-88493378D01*
X150833313Y-88493378D01*
X150472623Y-88493378D01*
X150405584Y-88473693D01*
X150359829Y-88420889D01*
X150348623Y-88369378D01*
X150348623Y-87535088D01*
X150348622Y-87535087D01*
X150848623Y-87535087D01*
X150848623Y-88063878D01*
X151394984Y-88063878D01*
X151402739Y-88066155D01*
X151894211Y-88066155D01*
X151894211Y-87537365D01*
X151894210Y-87537364D01*
X151873298Y-87539009D01*
X151873292Y-87539010D01*
X151718020Y-87584121D01*
X151718015Y-87584123D01*
X151578836Y-87666433D01*
X151578831Y-87666437D01*
X151460108Y-87785160D01*
X151398785Y-87818644D01*
X151329093Y-87813660D01*
X151285939Y-87781935D01*
X151283859Y-87784016D01*
X151164006Y-87664163D01*
X151163997Y-87664156D01*
X151024818Y-87581846D01*
X151024813Y-87581844D01*
X150869541Y-87536733D01*
X150869535Y-87536732D01*
X150848623Y-87535087D01*
X150348622Y-87535087D01*
X150327710Y-87536732D01*
X150327704Y-87536733D01*
X150172432Y-87581844D01*
X150172427Y-87581846D01*
X150033248Y-87664156D01*
X150033239Y-87664163D01*
X149918908Y-87778494D01*
X149918901Y-87778503D01*
X149836592Y-87917681D01*
X149791477Y-88072967D01*
X149791477Y-88072970D01*
X149788623Y-88109239D01*
X149788623Y-88209047D01*
X149768938Y-88276086D01*
X149716134Y-88321841D01*
X149646976Y-88331785D01*
X149583420Y-88302760D01*
X149576942Y-88296728D01*
X149512106Y-88231892D01*
X149512098Y-88231886D01*
X149401816Y-88166666D01*
X149370634Y-88148225D01*
X149370633Y-88148224D01*
X149370632Y-88148224D01*
X149370629Y-88148223D01*
X149212809Y-88102371D01*
X149212803Y-88102370D01*
X149175932Y-88099469D01*
X149175930Y-88099469D01*
X148778131Y-88099469D01*
X148711092Y-88079784D01*
X148665337Y-88026980D01*
X148655393Y-87957822D01*
X148675907Y-87909472D01*
X148674346Y-87908549D01*
X148697213Y-87869882D01*
X148761980Y-87760367D01*
X148807834Y-87602538D01*
X148810736Y-87565663D01*
X148810736Y-86409275D01*
X148807834Y-86372400D01*
X148807507Y-86371276D01*
X148771906Y-86248735D01*
X148761980Y-86214571D01*
X148701243Y-86111870D01*
X148678004Y-86072574D01*
X148660736Y-86009453D01*
X148660736Y-85930295D01*
X148680421Y-85863256D01*
X148710284Y-85831134D01*
X148742333Y-85807071D01*
X148742333Y-85500919D01*
X148759600Y-85437800D01*
X148764827Y-85428962D01*
X148765373Y-85427085D01*
X148809975Y-85273564D01*
X148809976Y-85273558D01*
X148811628Y-85252567D01*
X149242333Y-85252567D01*
X149242333Y-85807070D01*
X149388528Y-85764598D01*
X149527707Y-85682288D01*
X149527716Y-85682281D01*
X149642047Y-85567950D01*
X149642054Y-85567941D01*
X149724364Y-85428762D01*
X149724366Y-85428757D01*
X149769477Y-85273485D01*
X149769478Y-85273479D01*
X149771123Y-85252567D01*
X149242333Y-85252567D01*
X148811628Y-85252567D01*
X148812833Y-85237259D01*
X148812833Y-84954393D01*
X148832518Y-84887354D01*
X148885322Y-84841599D01*
X148932937Y-84830454D01*
X148997706Y-84828419D01*
X149027242Y-84828419D01*
X149034120Y-84827549D01*
X149039933Y-84827091D01*
X149086519Y-84825628D01*
X149105761Y-84820036D01*
X149124804Y-84816093D01*
X149144684Y-84813583D01*
X149188014Y-84796426D01*
X149193538Y-84794536D01*
X149196265Y-84793743D01*
X149238282Y-84781537D01*
X149255526Y-84771338D01*
X149272997Y-84762780D01*
X149276801Y-84761274D01*
X149322446Y-84752567D01*
X149771123Y-84752567D01*
X149768981Y-84725335D01*
X149771661Y-84725124D01*
X149777768Y-84667349D01*
X149821512Y-84612867D01*
X149887767Y-84590684D01*
X149892414Y-84590597D01*
X150621311Y-84590597D01*
X150688350Y-84610282D01*
G37*
G04 #@! TD.AperFunction*
G04 #@! TA.AperFunction,Conductor*
G36*
X168445703Y-85045384D02*
G01*
X168452181Y-85051416D01*
X169155265Y-85754500D01*
X169188750Y-85815823D01*
X169183766Y-85885515D01*
X169174318Y-85905299D01*
X169159963Y-85929572D01*
X169159961Y-85929577D01*
X169114850Y-86084849D01*
X169114849Y-86084855D01*
X169113204Y-86105767D01*
X169113205Y-86105768D01*
X169449110Y-86105768D01*
X169516149Y-86125453D01*
X169540578Y-86147927D01*
X169540971Y-86147535D01*
X169546716Y-86153280D01*
X169546718Y-86153282D01*
X169644219Y-86228097D01*
X169672159Y-86249536D01*
X169818238Y-86310044D01*
X169963682Y-86329191D01*
X170027576Y-86357457D01*
X170066048Y-86415781D01*
X170071495Y-86452130D01*
X170071495Y-86590460D01*
X170074351Y-86626759D01*
X170074352Y-86626765D01*
X170119499Y-86782159D01*
X170119502Y-86782167D01*
X170124727Y-86791001D01*
X170141995Y-86854122D01*
X170141995Y-86857414D01*
X170124729Y-86920532D01*
X170119502Y-86929369D01*
X170119499Y-86929378D01*
X170074352Y-87084770D01*
X170074351Y-87084776D01*
X170071495Y-87121076D01*
X170071495Y-87275500D01*
X170051810Y-87342539D01*
X169999006Y-87388294D01*
X169947495Y-87399500D01*
X169900190Y-87399500D01*
X169833151Y-87379815D01*
X169812509Y-87363181D01*
X169678314Y-87228986D01*
X169644829Y-87167663D01*
X169641995Y-87141305D01*
X169641995Y-86605768D01*
X169106458Y-86605768D01*
X169039419Y-86586083D01*
X169018777Y-86569449D01*
X168276819Y-85827491D01*
X168243334Y-85766168D01*
X168240500Y-85739810D01*
X168240500Y-85139097D01*
X168260185Y-85072058D01*
X168312989Y-85026303D01*
X168382147Y-85016359D01*
X168445703Y-85045384D01*
G37*
G04 #@! TD.AperFunction*
G04 #@! TA.AperFunction,Conductor*
G36*
X157869089Y-73451729D02*
G01*
X157912280Y-73506650D01*
X157913344Y-73509402D01*
X157930942Y-73556581D01*
X157933140Y-73563781D01*
X157961098Y-73680231D01*
X157981723Y-73775044D01*
X157982950Y-73783367D01*
X157994517Y-73930331D01*
X157999342Y-73997789D01*
X157999500Y-74002213D01*
X157999500Y-78607317D01*
X158030044Y-78819764D01*
X158030047Y-78819774D01*
X158090517Y-79025715D01*
X158179672Y-79220938D01*
X158179679Y-79220951D01*
X158295720Y-79401514D01*
X158436275Y-79563724D01*
X158511091Y-79628552D01*
X158598487Y-79704281D01*
X158779050Y-79820321D01*
X158871859Y-79862705D01*
X158924663Y-79908460D01*
X158944348Y-79975500D01*
X158924664Y-80042539D01*
X158871860Y-80088294D01*
X158820348Y-80099500D01*
X158089636Y-80099500D01*
X158081537Y-80098969D01*
X158046208Y-80094318D01*
X158046207Y-80094318D01*
X157925450Y-80110216D01*
X157889446Y-80114956D01*
X157889445Y-80114956D01*
X157743365Y-80175464D01*
X157617927Y-80271716D01*
X157596227Y-80299994D01*
X157590876Y-80306096D01*
X157086096Y-80810876D01*
X157079994Y-80816227D01*
X157051716Y-80837926D01*
X156985980Y-80923597D01*
X156960760Y-80956465D01*
X156958112Y-80959916D01*
X156955464Y-80963366D01*
X156894956Y-81109445D01*
X156894955Y-81109447D01*
X156875820Y-81254796D01*
X156874318Y-81266208D01*
X156876804Y-81285094D01*
X156878969Y-81301534D01*
X156879500Y-81309636D01*
X156879500Y-82572021D01*
X156859815Y-82639060D01*
X156843181Y-82659702D01*
X155187924Y-84314959D01*
X155126601Y-84348444D01*
X155100243Y-84351278D01*
X153868901Y-84351278D01*
X153801862Y-84331593D01*
X153756107Y-84278789D01*
X153746163Y-84209631D01*
X153749825Y-84192683D01*
X153793408Y-84042670D01*
X153793409Y-84042664D01*
X153796311Y-84005793D01*
X153796311Y-83574401D01*
X153793409Y-83537529D01*
X153793408Y-83537523D01*
X153747556Y-83379703D01*
X153747556Y-83379702D01*
X153747555Y-83379701D01*
X153747555Y-83379699D01*
X153746385Y-83377721D01*
X153745941Y-83375971D01*
X153744458Y-83372543D01*
X153745011Y-83372303D01*
X153729207Y-83309998D01*
X153744564Y-83257700D01*
X153743995Y-83257454D01*
X153745993Y-83252835D01*
X153746392Y-83251479D01*
X153747093Y-83250293D01*
X153784364Y-83122003D01*
X153819271Y-83065540D01*
X153826971Y-83058422D01*
X153826971Y-82538492D01*
X154326971Y-82538492D01*
X154326971Y-83058422D01*
X154362093Y-83055659D01*
X154362099Y-83055658D01*
X154516159Y-83010899D01*
X154516162Y-83010898D01*
X154654256Y-82929230D01*
X154654265Y-82929223D01*
X154767702Y-82815786D01*
X154767709Y-82815777D01*
X154849375Y-82677686D01*
X154889815Y-82538492D01*
X154326971Y-82538492D01*
X153826971Y-82538492D01*
X153826971Y-82162991D01*
X153846656Y-82095952D01*
X153899460Y-82050197D01*
X153950967Y-82038991D01*
X154326151Y-82038991D01*
X154330067Y-82038682D01*
X154334930Y-82038492D01*
X154889815Y-82038492D01*
X154849375Y-81899297D01*
X154815552Y-81842104D01*
X154798369Y-81774380D01*
X154815553Y-81715861D01*
X154824637Y-81700501D01*
X154849840Y-81657885D01*
X154894636Y-81503696D01*
X154897471Y-81467673D01*
X154897470Y-81069312D01*
X154894636Y-81033288D01*
X154892745Y-81026779D01*
X154892942Y-80956912D01*
X154902993Y-80932746D01*
X154903352Y-80932087D01*
X154953597Y-80797376D01*
X154953598Y-80797372D01*
X154959999Y-80737844D01*
X154960000Y-80737827D01*
X154960000Y-80390000D01*
X154334499Y-80390000D01*
X154267460Y-80370315D01*
X154221705Y-80317511D01*
X154210499Y-80266000D01*
X154210499Y-79959861D01*
X154230184Y-79892822D01*
X154282988Y-79847067D01*
X154352146Y-79837123D01*
X154415702Y-79866148D01*
X154422180Y-79872180D01*
X154440000Y-79890000D01*
X154960000Y-79890000D01*
X154960000Y-79542172D01*
X154959999Y-79542155D01*
X154953598Y-79482627D01*
X154953596Y-79482620D01*
X154903354Y-79347913D01*
X154903350Y-79347906D01*
X154817190Y-79232812D01*
X154817187Y-79232809D01*
X154702093Y-79146649D01*
X154702086Y-79146645D01*
X154567379Y-79096403D01*
X154567372Y-79096401D01*
X154507844Y-79090000D01*
X154440000Y-79090000D01*
X154440000Y-79427726D01*
X154420315Y-79494765D01*
X154367511Y-79540520D01*
X154298353Y-79550464D01*
X154234797Y-79521439D01*
X154199818Y-79471059D01*
X154153797Y-79347671D01*
X154153793Y-79347664D01*
X154067548Y-79232457D01*
X154067546Y-79232454D01*
X154067544Y-79232452D01*
X154067541Y-79232449D01*
X154045034Y-79215601D01*
X154012616Y-79179461D01*
X154008417Y-79172360D01*
X153999863Y-79154901D01*
X153992486Y-79136268D01*
X153965079Y-79098545D01*
X153961888Y-79093686D01*
X153959708Y-79090000D01*
X153938170Y-79053580D01*
X153938168Y-79053578D01*
X153938165Y-79053574D01*
X153937659Y-79053068D01*
X153937389Y-79052573D01*
X153933387Y-79047414D01*
X153934219Y-79046768D01*
X153904174Y-78991745D01*
X153909158Y-78922053D01*
X153951030Y-78866120D01*
X153963337Y-78858001D01*
X154002314Y-78835499D01*
X154095499Y-78742314D01*
X154161391Y-78628186D01*
X154195499Y-78500892D01*
X154195499Y-78435000D01*
X154195499Y-78434500D01*
X154195499Y-78244749D01*
X154197027Y-78225343D01*
X154197121Y-78224750D01*
X154197454Y-78222651D01*
X154205196Y-78183729D01*
X154216308Y-78151670D01*
X154219629Y-78145152D01*
X154223288Y-78138908D01*
X154238386Y-78116312D01*
X154253786Y-78097548D01*
X154257545Y-78093789D01*
X154276312Y-78078387D01*
X154298883Y-78063305D01*
X154305157Y-78059627D01*
X154311625Y-78056331D01*
X154343725Y-78045198D01*
X154382700Y-78037445D01*
X154385377Y-78037021D01*
X154404741Y-78035500D01*
X155352298Y-78035500D01*
X155419337Y-78055185D01*
X155465092Y-78107989D01*
X155475036Y-78177147D01*
X155474057Y-78182966D01*
X155465000Y-78229960D01*
X155465000Y-78610000D01*
X156265000Y-78610000D01*
X156265000Y-79110000D01*
X155465000Y-79110000D01*
X155465000Y-79437398D01*
X155479965Y-79594122D01*
X155479966Y-79594126D01*
X155539149Y-79795686D01*
X155635413Y-79982414D01*
X155765268Y-80147537D01*
X155765271Y-80147540D01*
X155924030Y-80285105D01*
X155924041Y-80285114D01*
X156105960Y-80390144D01*
X156105967Y-80390147D01*
X156304487Y-80458856D01*
X156315000Y-80460367D01*
X156315000Y-79551110D01*
X156339457Y-79590610D01*
X156428962Y-79658201D01*
X156536840Y-79688895D01*
X156648521Y-79678546D01*
X156748922Y-79628552D01*
X156815000Y-79556069D01*
X156815000Y-80456257D01*
X156926409Y-80429229D01*
X157117507Y-80341959D01*
X157288619Y-80220110D01*
X157288625Y-80220104D01*
X157433592Y-80068067D01*
X157547166Y-79891342D01*
X157625244Y-79696314D01*
X157665000Y-79490037D01*
X157665000Y-79110000D01*
X156865000Y-79110000D01*
X156865000Y-78610000D01*
X157665000Y-78610000D01*
X157665000Y-78282601D01*
X157650034Y-78125877D01*
X157650033Y-78125873D01*
X157590850Y-77924313D01*
X157494586Y-77737585D01*
X157364731Y-77572462D01*
X157364728Y-77572459D01*
X157205969Y-77434894D01*
X157205958Y-77434885D01*
X157024039Y-77329855D01*
X157024032Y-77329852D01*
X156825516Y-77261144D01*
X156815000Y-77259632D01*
X156815000Y-78168889D01*
X156790543Y-78129390D01*
X156701038Y-78061799D01*
X156593160Y-78031105D01*
X156481479Y-78041454D01*
X156381078Y-78091448D01*
X156315000Y-78163930D01*
X156315000Y-77263740D01*
X156314999Y-77263740D01*
X156203599Y-77290766D01*
X156203585Y-77290771D01*
X156131147Y-77323852D01*
X156061988Y-77333795D01*
X155998433Y-77304769D01*
X155971011Y-77270860D01*
X155964829Y-77259632D01*
X155952043Y-77236407D01*
X155861891Y-77142035D01*
X155861889Y-77142034D01*
X155861890Y-77142034D01*
X155750559Y-77073929D01*
X155698618Y-77058515D01*
X155674094Y-77048265D01*
X155637401Y-77028064D01*
X155610831Y-77008408D01*
X155610317Y-77007909D01*
X155597270Y-76993045D01*
X155579319Y-76968962D01*
X155568747Y-76952108D01*
X155568383Y-76951409D01*
X155557197Y-76920442D01*
X155548314Y-76879468D01*
X155545499Y-76853196D01*
X155545499Y-75600919D01*
X155565184Y-75533880D01*
X155617988Y-75488125D01*
X155687146Y-75478181D01*
X155750702Y-75507206D01*
X155766970Y-75524268D01*
X155785270Y-75547539D01*
X155785271Y-75547540D01*
X155944030Y-75685105D01*
X155944041Y-75685114D01*
X156125960Y-75790144D01*
X156125967Y-75790147D01*
X156324487Y-75858856D01*
X156335000Y-75860367D01*
X156335000Y-74951110D01*
X156359457Y-74990610D01*
X156448962Y-75058201D01*
X156556840Y-75088895D01*
X156668521Y-75078546D01*
X156768922Y-75028552D01*
X156835000Y-74956069D01*
X156835000Y-75856257D01*
X156946409Y-75829229D01*
X157137507Y-75741959D01*
X157308619Y-75620110D01*
X157308625Y-75620104D01*
X157453592Y-75468067D01*
X157567166Y-75291342D01*
X157645244Y-75096314D01*
X157685000Y-74890037D01*
X157685000Y-74510000D01*
X156885000Y-74510000D01*
X156885000Y-74010000D01*
X157685000Y-74010000D01*
X157685000Y-73682592D01*
X157673725Y-73564525D01*
X157686947Y-73495918D01*
X157735162Y-73445350D01*
X157803062Y-73428877D01*
X157869089Y-73451729D01*
G37*
G04 #@! TD.AperFunction*
G04 #@! TA.AperFunction,Conductor*
G36*
X147688834Y-79843680D02*
G01*
X147744767Y-79885552D01*
X147769184Y-79951016D01*
X147769500Y-79959862D01*
X147769500Y-80130698D01*
X147749815Y-80197737D01*
X147697011Y-80243492D01*
X147627853Y-80253436D01*
X147564297Y-80224411D01*
X147557819Y-80218379D01*
X147541757Y-80202317D01*
X147407551Y-80119539D01*
X147360826Y-80067591D01*
X147349603Y-79998629D01*
X147377447Y-79934546D01*
X147435515Y-79895690D01*
X147472647Y-79890000D01*
X147540000Y-79890000D01*
X147557819Y-79872181D01*
X147619142Y-79838696D01*
X147688834Y-79843680D01*
G37*
G04 #@! TD.AperFunction*
G04 #@! TA.AperFunction,Conductor*
G36*
X147543140Y-78035501D02*
G01*
X147585245Y-78035501D01*
X147604662Y-78037031D01*
X147607335Y-78037454D01*
X147646268Y-78045198D01*
X147678359Y-78056326D01*
X147684834Y-78059626D01*
X147691116Y-78063307D01*
X147713665Y-78078374D01*
X147732457Y-78093796D01*
X147736202Y-78097541D01*
X147751624Y-78116333D01*
X147766683Y-78138870D01*
X147770373Y-78145166D01*
X147773663Y-78151621D01*
X147784802Y-78183738D01*
X147792543Y-78222651D01*
X147792968Y-78225332D01*
X147794499Y-78244758D01*
X147794499Y-78449528D01*
X147794501Y-78449545D01*
X147794501Y-78500892D01*
X147823737Y-78610000D01*
X147828609Y-78628184D01*
X147828610Y-78628187D01*
X147894498Y-78742310D01*
X147894502Y-78742315D01*
X147993433Y-78841246D01*
X147991624Y-78843054D01*
X148025299Y-78889172D01*
X148029454Y-78958918D01*
X148006597Y-79007111D01*
X147997328Y-79019062D01*
X147997324Y-79019068D01*
X147978815Y-79061838D01*
X147976245Y-79067084D01*
X147953803Y-79107906D01*
X147948822Y-79127307D01*
X147942521Y-79145710D01*
X147934562Y-79164102D01*
X147934559Y-79164112D01*
X147931565Y-79183014D01*
X147908360Y-79237922D01*
X147826204Y-79347668D01*
X147826202Y-79347671D01*
X147780182Y-79471059D01*
X147738311Y-79526993D01*
X147672847Y-79551410D01*
X147604574Y-79536558D01*
X147555168Y-79487153D01*
X147540000Y-79427726D01*
X147540000Y-79090000D01*
X147472155Y-79090000D01*
X147412627Y-79096401D01*
X147412620Y-79096403D01*
X147277913Y-79146645D01*
X147277906Y-79146649D01*
X147162812Y-79232809D01*
X147162809Y-79232812D01*
X147076649Y-79347906D01*
X147076645Y-79347913D01*
X147026403Y-79482620D01*
X147026401Y-79482627D01*
X147020000Y-79542155D01*
X147020000Y-79920530D01*
X147000315Y-79987569D01*
X146947511Y-80033324D01*
X146896000Y-80044530D01*
X146519049Y-80044530D01*
X146452010Y-80024845D01*
X146406255Y-79972041D01*
X146396311Y-79902883D01*
X146403932Y-79874443D01*
X146475242Y-79696319D01*
X146475244Y-79696314D01*
X146515000Y-79490037D01*
X146515000Y-79110000D01*
X145715000Y-79110000D01*
X145715000Y-78610000D01*
X146515000Y-78610000D01*
X146515000Y-78282601D01*
X146504371Y-78171287D01*
X146517595Y-78102680D01*
X146565810Y-78052113D01*
X146627810Y-78035500D01*
X147543137Y-78035500D01*
X147543140Y-78035501D01*
G37*
G04 #@! TD.AperFunction*
M02*
