G04 #@! TF.GenerationSoftware,KiCad,Pcbnew,7.0.9*
G04 #@! TF.CreationDate,2023-12-24T11:08:21-08:00*
G04 #@! TF.ProjectId,4k-mania-keypad,346b2d6d-616e-4696-912d-6b6579706164,rev?*
G04 #@! TF.SameCoordinates,PX5ac6868PY7028288*
G04 #@! TF.FileFunction,Legend,Top*
G04 #@! TF.FilePolarity,Positive*
%FSLAX46Y46*%
G04 Gerber Fmt 4.6, Leading zero omitted, Abs format (unit mm)*
G04 Created by KiCad (PCBNEW 7.0.9) date 2023-12-24 11:08:21*
%MOMM*%
%LPD*%
G01*
G04 APERTURE LIST*
G04 Aperture macros list*
%AMRoundRect*
0 Rectangle with rounded corners*
0 $1 Rounding radius*
0 $2 $3 $4 $5 $6 $7 $8 $9 X,Y pos of 4 corners*
0 Add a 4 corners polygon primitive as box body*
4,1,4,$2,$3,$4,$5,$6,$7,$8,$9,$2,$3,0*
0 Add four circle primitives for the rounded corners*
1,1,$1+$1,$2,$3*
1,1,$1+$1,$4,$5*
1,1,$1+$1,$6,$7*
1,1,$1+$1,$8,$9*
0 Add four rect primitives between the rounded corners*
20,1,$1+$1,$2,$3,$4,$5,0*
20,1,$1+$1,$4,$5,$6,$7,0*
20,1,$1+$1,$6,$7,$8,$9,0*
20,1,$1+$1,$8,$9,$2,$3,0*%
G04 Aperture macros list end*
%ADD10C,0.150000*%
%ADD11C,0.120000*%
%ADD12C,0.100000*%
%ADD13RoundRect,0.135000X-0.185000X0.135000X-0.185000X-0.135000X0.185000X-0.135000X0.185000X0.135000X0*%
%ADD14RoundRect,0.150000X-0.150000X-0.275000X0.150000X-0.275000X0.150000X0.275000X-0.150000X0.275000X0*%
%ADD15RoundRect,0.175000X-0.175000X-0.225000X0.175000X-0.225000X0.175000X0.225000X-0.175000X0.225000X0*%
%ADD16RoundRect,0.135000X0.185000X-0.135000X0.185000X0.135000X-0.185000X0.135000X-0.185000X-0.135000X0*%
%ADD17RoundRect,0.140000X0.170000X-0.140000X0.170000X0.140000X-0.170000X0.140000X-0.170000X-0.140000X0*%
%ADD18RoundRect,0.140000X0.140000X0.170000X-0.140000X0.170000X-0.140000X-0.170000X0.140000X-0.170000X0*%
%ADD19R,2.000000X2.000000*%
%ADD20C,2.000000*%
%ADD21R,3.200000X2.000000*%
%ADD22C,0.750000*%
%ADD23RoundRect,0.140000X-0.170000X0.140000X-0.170000X-0.140000X0.170000X-0.140000X0.170000X0.140000X0*%
%ADD24RoundRect,0.140000X-0.140000X-0.170000X0.140000X-0.170000X0.140000X0.170000X-0.140000X0.170000X0*%
%ADD25RoundRect,0.050000X0.050000X-0.387500X0.050000X0.387500X-0.050000X0.387500X-0.050000X-0.387500X0*%
%ADD26RoundRect,0.050000X0.387500X-0.050000X0.387500X0.050000X-0.387500X0.050000X-0.387500X-0.050000X0*%
%ADD27RoundRect,0.144000X1.456000X-1.456000X1.456000X1.456000X-1.456000X1.456000X-1.456000X-1.456000X0*%
%ADD28RoundRect,0.150000X0.475000X0.150000X-0.475000X0.150000X-0.475000X-0.150000X0.475000X-0.150000X0*%
%ADD29RoundRect,0.147500X0.147500X0.172500X-0.147500X0.172500X-0.147500X-0.172500X0.147500X-0.172500X0*%
%ADD30RoundRect,0.150000X0.150000X-0.650000X0.150000X0.650000X-0.150000X0.650000X-0.150000X-0.650000X0*%
%ADD31R,1.800000X1.100000*%
%ADD32RoundRect,0.150000X-0.512500X-0.150000X0.512500X-0.150000X0.512500X0.150000X-0.512500X0.150000X0*%
%ADD33C,0.650000*%
%ADD34R,0.540000X1.100000*%
%ADD35R,0.300000X1.100000*%
%ADD36O,1.200000X2.250000*%
%ADD37RoundRect,0.135000X0.135000X0.185000X-0.135000X0.185000X-0.135000X-0.185000X0.135000X-0.185000X0*%
%ADD38RoundRect,0.147500X-0.147500X-0.172500X0.147500X-0.172500X0.147500X0.172500X-0.147500X0.172500X0*%
%ADD39RoundRect,0.250000X-0.625000X0.375000X-0.625000X-0.375000X0.625000X-0.375000X0.625000X0.375000X0*%
%ADD40R,1.400000X1.200000*%
%ADD41C,1.750000*%
%ADD42C,3.987800*%
%ADD43C,3.300000*%
G04 APERTURE END LIST*
D10*
X71261044Y35152448D02*
X70927711Y35628639D01*
X70689616Y35152448D02*
X70689616Y36152448D01*
X70689616Y36152448D02*
X71070568Y36152448D01*
X71070568Y36152448D02*
X71165806Y36104829D01*
X71165806Y36104829D02*
X71213425Y36057210D01*
X71213425Y36057210D02*
X71261044Y35961972D01*
X71261044Y35961972D02*
X71261044Y35819115D01*
X71261044Y35819115D02*
X71213425Y35723877D01*
X71213425Y35723877D02*
X71165806Y35676258D01*
X71165806Y35676258D02*
X71070568Y35628639D01*
X71070568Y35628639D02*
X70689616Y35628639D01*
X72165806Y36152448D02*
X71689616Y36152448D01*
X71689616Y36152448D02*
X71641997Y35676258D01*
X71641997Y35676258D02*
X71689616Y35723877D01*
X71689616Y35723877D02*
X71784854Y35771496D01*
X71784854Y35771496D02*
X72022949Y35771496D01*
X72022949Y35771496D02*
X72118187Y35723877D01*
X72118187Y35723877D02*
X72165806Y35676258D01*
X72165806Y35676258D02*
X72213425Y35581020D01*
X72213425Y35581020D02*
X72213425Y35342925D01*
X72213425Y35342925D02*
X72165806Y35247687D01*
X72165806Y35247687D02*
X72118187Y35200067D01*
X72118187Y35200067D02*
X72022949Y35152448D01*
X72022949Y35152448D02*
X71784854Y35152448D01*
X71784854Y35152448D02*
X71689616Y35200067D01*
X71689616Y35200067D02*
X71641997Y35247687D01*
X60681666Y27050181D02*
X60681666Y26335896D01*
X60681666Y26335896D02*
X60634047Y26193039D01*
X60634047Y26193039D02*
X60538809Y26097800D01*
X60538809Y26097800D02*
X60395952Y26050181D01*
X60395952Y26050181D02*
X60300714Y26050181D01*
X61062619Y27050181D02*
X61681666Y27050181D01*
X61681666Y27050181D02*
X61348333Y26669229D01*
X61348333Y26669229D02*
X61491190Y26669229D01*
X61491190Y26669229D02*
X61586428Y26621610D01*
X61586428Y26621610D02*
X61634047Y26573991D01*
X61634047Y26573991D02*
X61681666Y26478753D01*
X61681666Y26478753D02*
X61681666Y26240658D01*
X61681666Y26240658D02*
X61634047Y26145420D01*
X61634047Y26145420D02*
X61586428Y26097800D01*
X61586428Y26097800D02*
X61491190Y26050181D01*
X61491190Y26050181D02*
X61205476Y26050181D01*
X61205476Y26050181D02*
X61110238Y26097800D01*
X61110238Y26097800D02*
X61062619Y26145420D01*
X59010825Y32909434D02*
X58677492Y33385625D01*
X58439397Y32909434D02*
X58439397Y33909434D01*
X58439397Y33909434D02*
X58820349Y33909434D01*
X58820349Y33909434D02*
X58915587Y33861815D01*
X58915587Y33861815D02*
X58963206Y33814196D01*
X58963206Y33814196D02*
X59010825Y33718958D01*
X59010825Y33718958D02*
X59010825Y33576101D01*
X59010825Y33576101D02*
X58963206Y33480863D01*
X58963206Y33480863D02*
X58915587Y33433244D01*
X58915587Y33433244D02*
X58820349Y33385625D01*
X58820349Y33385625D02*
X58439397Y33385625D01*
X59963206Y32909434D02*
X59391778Y32909434D01*
X59677492Y32909434D02*
X59677492Y33909434D01*
X59677492Y33909434D02*
X59582254Y33766577D01*
X59582254Y33766577D02*
X59487016Y33671339D01*
X59487016Y33671339D02*
X59391778Y33623720D01*
X85017831Y35723772D02*
X84970212Y35676152D01*
X84970212Y35676152D02*
X84827355Y35628533D01*
X84827355Y35628533D02*
X84732117Y35628533D01*
X84732117Y35628533D02*
X84589260Y35676152D01*
X84589260Y35676152D02*
X84494022Y35771391D01*
X84494022Y35771391D02*
X84446403Y35866629D01*
X84446403Y35866629D02*
X84398784Y36057105D01*
X84398784Y36057105D02*
X84398784Y36199962D01*
X84398784Y36199962D02*
X84446403Y36390438D01*
X84446403Y36390438D02*
X84494022Y36485676D01*
X84494022Y36485676D02*
X84589260Y36580914D01*
X84589260Y36580914D02*
X84732117Y36628533D01*
X84732117Y36628533D02*
X84827355Y36628533D01*
X84827355Y36628533D02*
X84970212Y36580914D01*
X84970212Y36580914D02*
X85017831Y36533295D01*
X85970212Y35628533D02*
X85398784Y35628533D01*
X85684498Y35628533D02*
X85684498Y36628533D01*
X85684498Y36628533D02*
X85589260Y36485676D01*
X85589260Y36485676D02*
X85494022Y36390438D01*
X85494022Y36390438D02*
X85398784Y36342819D01*
X86922593Y35628533D02*
X86351165Y35628533D01*
X86636879Y35628533D02*
X86636879Y36628533D01*
X86636879Y36628533D02*
X86541641Y36485676D01*
X86541641Y36485676D02*
X86446403Y36390438D01*
X86446403Y36390438D02*
X86351165Y36342819D01*
X78033121Y35752033D02*
X77985502Y35704413D01*
X77985502Y35704413D02*
X77842645Y35656794D01*
X77842645Y35656794D02*
X77747407Y35656794D01*
X77747407Y35656794D02*
X77604550Y35704413D01*
X77604550Y35704413D02*
X77509312Y35799652D01*
X77509312Y35799652D02*
X77461693Y35894890D01*
X77461693Y35894890D02*
X77414074Y36085366D01*
X77414074Y36085366D02*
X77414074Y36228223D01*
X77414074Y36228223D02*
X77461693Y36418699D01*
X77461693Y36418699D02*
X77509312Y36513937D01*
X77509312Y36513937D02*
X77604550Y36609175D01*
X77604550Y36609175D02*
X77747407Y36656794D01*
X77747407Y36656794D02*
X77842645Y36656794D01*
X77842645Y36656794D02*
X77985502Y36609175D01*
X77985502Y36609175D02*
X78033121Y36561556D01*
X78509312Y35656794D02*
X78699788Y35656794D01*
X78699788Y35656794D02*
X78795026Y35704413D01*
X78795026Y35704413D02*
X78842645Y35752033D01*
X78842645Y35752033D02*
X78937883Y35894890D01*
X78937883Y35894890D02*
X78985502Y36085366D01*
X78985502Y36085366D02*
X78985502Y36466318D01*
X78985502Y36466318D02*
X78937883Y36561556D01*
X78937883Y36561556D02*
X78890264Y36609175D01*
X78890264Y36609175D02*
X78795026Y36656794D01*
X78795026Y36656794D02*
X78604550Y36656794D01*
X78604550Y36656794D02*
X78509312Y36609175D01*
X78509312Y36609175D02*
X78461693Y36561556D01*
X78461693Y36561556D02*
X78414074Y36466318D01*
X78414074Y36466318D02*
X78414074Y36228223D01*
X78414074Y36228223D02*
X78461693Y36132985D01*
X78461693Y36132985D02*
X78509312Y36085366D01*
X78509312Y36085366D02*
X78604550Y36037747D01*
X78604550Y36037747D02*
X78795026Y36037747D01*
X78795026Y36037747D02*
X78890264Y36085366D01*
X78890264Y36085366D02*
X78937883Y36132985D01*
X78937883Y36132985D02*
X78985502Y36228223D01*
X74190586Y33711255D02*
X74142967Y33663635D01*
X74142967Y33663635D02*
X74000110Y33616016D01*
X74000110Y33616016D02*
X73904872Y33616016D01*
X73904872Y33616016D02*
X73762015Y33663635D01*
X73762015Y33663635D02*
X73666777Y33758874D01*
X73666777Y33758874D02*
X73619158Y33854112D01*
X73619158Y33854112D02*
X73571539Y34044588D01*
X73571539Y34044588D02*
X73571539Y34187445D01*
X73571539Y34187445D02*
X73619158Y34377921D01*
X73619158Y34377921D02*
X73666777Y34473159D01*
X73666777Y34473159D02*
X73762015Y34568397D01*
X73762015Y34568397D02*
X73904872Y34616016D01*
X73904872Y34616016D02*
X74000110Y34616016D01*
X74000110Y34616016D02*
X74142967Y34568397D01*
X74142967Y34568397D02*
X74190586Y34520778D01*
X75047729Y34616016D02*
X74857253Y34616016D01*
X74857253Y34616016D02*
X74762015Y34568397D01*
X74762015Y34568397D02*
X74714396Y34520778D01*
X74714396Y34520778D02*
X74619158Y34377921D01*
X74619158Y34377921D02*
X74571539Y34187445D01*
X74571539Y34187445D02*
X74571539Y33806493D01*
X74571539Y33806493D02*
X74619158Y33711255D01*
X74619158Y33711255D02*
X74666777Y33663635D01*
X74666777Y33663635D02*
X74762015Y33616016D01*
X74762015Y33616016D02*
X74952491Y33616016D01*
X74952491Y33616016D02*
X75047729Y33663635D01*
X75047729Y33663635D02*
X75095348Y33711255D01*
X75095348Y33711255D02*
X75142967Y33806493D01*
X75142967Y33806493D02*
X75142967Y34044588D01*
X75142967Y34044588D02*
X75095348Y34139826D01*
X75095348Y34139826D02*
X75047729Y34187445D01*
X75047729Y34187445D02*
X74952491Y34235064D01*
X74952491Y34235064D02*
X74762015Y34235064D01*
X74762015Y34235064D02*
X74666777Y34187445D01*
X74666777Y34187445D02*
X74619158Y34139826D01*
X74619158Y34139826D02*
X74571539Y34044588D01*
X15358594Y35336965D02*
X15501451Y35289346D01*
X15501451Y35289346D02*
X15739546Y35289346D01*
X15739546Y35289346D02*
X15834784Y35336965D01*
X15834784Y35336965D02*
X15882403Y35384585D01*
X15882403Y35384585D02*
X15930022Y35479823D01*
X15930022Y35479823D02*
X15930022Y35575061D01*
X15930022Y35575061D02*
X15882403Y35670299D01*
X15882403Y35670299D02*
X15834784Y35717918D01*
X15834784Y35717918D02*
X15739546Y35765537D01*
X15739546Y35765537D02*
X15549070Y35813156D01*
X15549070Y35813156D02*
X15453832Y35860775D01*
X15453832Y35860775D02*
X15406213Y35908394D01*
X15406213Y35908394D02*
X15358594Y36003632D01*
X15358594Y36003632D02*
X15358594Y36098870D01*
X15358594Y36098870D02*
X15406213Y36194108D01*
X15406213Y36194108D02*
X15453832Y36241727D01*
X15453832Y36241727D02*
X15549070Y36289346D01*
X15549070Y36289346D02*
X15787165Y36289346D01*
X15787165Y36289346D02*
X15930022Y36241727D01*
X16263356Y36289346D02*
X16501451Y35289346D01*
X16501451Y35289346D02*
X16691927Y36003632D01*
X16691927Y36003632D02*
X16882403Y35289346D01*
X16882403Y35289346D02*
X17120499Y36289346D01*
X18025260Y35289346D02*
X17453832Y35289346D01*
X17739546Y35289346D02*
X17739546Y36289346D01*
X17739546Y36289346D02*
X17644308Y36146489D01*
X17644308Y36146489D02*
X17549070Y36051251D01*
X17549070Y36051251D02*
X17453832Y36003632D01*
X85151349Y22377765D02*
X85103730Y22330145D01*
X85103730Y22330145D02*
X84960873Y22282526D01*
X84960873Y22282526D02*
X84865635Y22282526D01*
X84865635Y22282526D02*
X84722778Y22330145D01*
X84722778Y22330145D02*
X84627540Y22425384D01*
X84627540Y22425384D02*
X84579921Y22520622D01*
X84579921Y22520622D02*
X84532302Y22711098D01*
X84532302Y22711098D02*
X84532302Y22853955D01*
X84532302Y22853955D02*
X84579921Y23044431D01*
X84579921Y23044431D02*
X84627540Y23139669D01*
X84627540Y23139669D02*
X84722778Y23234907D01*
X84722778Y23234907D02*
X84865635Y23282526D01*
X84865635Y23282526D02*
X84960873Y23282526D01*
X84960873Y23282526D02*
X85103730Y23234907D01*
X85103730Y23234907D02*
X85151349Y23187288D01*
X85722778Y22853955D02*
X85627540Y22901574D01*
X85627540Y22901574D02*
X85579921Y22949193D01*
X85579921Y22949193D02*
X85532302Y23044431D01*
X85532302Y23044431D02*
X85532302Y23092050D01*
X85532302Y23092050D02*
X85579921Y23187288D01*
X85579921Y23187288D02*
X85627540Y23234907D01*
X85627540Y23234907D02*
X85722778Y23282526D01*
X85722778Y23282526D02*
X85913254Y23282526D01*
X85913254Y23282526D02*
X86008492Y23234907D01*
X86008492Y23234907D02*
X86056111Y23187288D01*
X86056111Y23187288D02*
X86103730Y23092050D01*
X86103730Y23092050D02*
X86103730Y23044431D01*
X86103730Y23044431D02*
X86056111Y22949193D01*
X86056111Y22949193D02*
X86008492Y22901574D01*
X86008492Y22901574D02*
X85913254Y22853955D01*
X85913254Y22853955D02*
X85722778Y22853955D01*
X85722778Y22853955D02*
X85627540Y22806336D01*
X85627540Y22806336D02*
X85579921Y22758717D01*
X85579921Y22758717D02*
X85532302Y22663479D01*
X85532302Y22663479D02*
X85532302Y22473003D01*
X85532302Y22473003D02*
X85579921Y22377765D01*
X85579921Y22377765D02*
X85627540Y22330145D01*
X85627540Y22330145D02*
X85722778Y22282526D01*
X85722778Y22282526D02*
X85913254Y22282526D01*
X85913254Y22282526D02*
X86008492Y22330145D01*
X86008492Y22330145D02*
X86056111Y22377765D01*
X86056111Y22377765D02*
X86103730Y22473003D01*
X86103730Y22473003D02*
X86103730Y22663479D01*
X86103730Y22663479D02*
X86056111Y22758717D01*
X86056111Y22758717D02*
X86008492Y22806336D01*
X86008492Y22806336D02*
X85913254Y22853955D01*
X93711102Y35591314D02*
X93853959Y35543695D01*
X93853959Y35543695D02*
X94092054Y35543695D01*
X94092054Y35543695D02*
X94187292Y35591314D01*
X94187292Y35591314D02*
X94234911Y35638934D01*
X94234911Y35638934D02*
X94282530Y35734172D01*
X94282530Y35734172D02*
X94282530Y35829410D01*
X94282530Y35829410D02*
X94234911Y35924648D01*
X94234911Y35924648D02*
X94187292Y35972267D01*
X94187292Y35972267D02*
X94092054Y36019886D01*
X94092054Y36019886D02*
X93901578Y36067505D01*
X93901578Y36067505D02*
X93806340Y36115124D01*
X93806340Y36115124D02*
X93758721Y36162743D01*
X93758721Y36162743D02*
X93711102Y36257981D01*
X93711102Y36257981D02*
X93711102Y36353219D01*
X93711102Y36353219D02*
X93758721Y36448457D01*
X93758721Y36448457D02*
X93806340Y36496076D01*
X93806340Y36496076D02*
X93901578Y36543695D01*
X93901578Y36543695D02*
X94139673Y36543695D01*
X94139673Y36543695D02*
X94282530Y36496076D01*
X94615864Y36543695D02*
X94853959Y35543695D01*
X94853959Y35543695D02*
X95044435Y36257981D01*
X95044435Y36257981D02*
X95234911Y35543695D01*
X95234911Y35543695D02*
X95473007Y36543695D01*
X95806340Y36448457D02*
X95853959Y36496076D01*
X95853959Y36496076D02*
X95949197Y36543695D01*
X95949197Y36543695D02*
X96187292Y36543695D01*
X96187292Y36543695D02*
X96282530Y36496076D01*
X96282530Y36496076D02*
X96330149Y36448457D01*
X96330149Y36448457D02*
X96377768Y36353219D01*
X96377768Y36353219D02*
X96377768Y36257981D01*
X96377768Y36257981D02*
X96330149Y36115124D01*
X96330149Y36115124D02*
X95758721Y35543695D01*
X95758721Y35543695D02*
X96377768Y35543695D01*
X54648333Y28745420D02*
X54600714Y28697800D01*
X54600714Y28697800D02*
X54457857Y28650181D01*
X54457857Y28650181D02*
X54362619Y28650181D01*
X54362619Y28650181D02*
X54219762Y28697800D01*
X54219762Y28697800D02*
X54124524Y28793039D01*
X54124524Y28793039D02*
X54076905Y28888277D01*
X54076905Y28888277D02*
X54029286Y29078753D01*
X54029286Y29078753D02*
X54029286Y29221610D01*
X54029286Y29221610D02*
X54076905Y29412086D01*
X54076905Y29412086D02*
X54124524Y29507324D01*
X54124524Y29507324D02*
X54219762Y29602562D01*
X54219762Y29602562D02*
X54362619Y29650181D01*
X54362619Y29650181D02*
X54457857Y29650181D01*
X54457857Y29650181D02*
X54600714Y29602562D01*
X54600714Y29602562D02*
X54648333Y29554943D01*
X55029286Y29554943D02*
X55076905Y29602562D01*
X55076905Y29602562D02*
X55172143Y29650181D01*
X55172143Y29650181D02*
X55410238Y29650181D01*
X55410238Y29650181D02*
X55505476Y29602562D01*
X55505476Y29602562D02*
X55553095Y29554943D01*
X55553095Y29554943D02*
X55600714Y29459705D01*
X55600714Y29459705D02*
X55600714Y29364467D01*
X55600714Y29364467D02*
X55553095Y29221610D01*
X55553095Y29221610D02*
X54981667Y28650181D01*
X54981667Y28650181D02*
X55600714Y28650181D01*
X88837952Y27294337D02*
X88790333Y27246717D01*
X88790333Y27246717D02*
X88647476Y27199098D01*
X88647476Y27199098D02*
X88552238Y27199098D01*
X88552238Y27199098D02*
X88409381Y27246717D01*
X88409381Y27246717D02*
X88314143Y27341956D01*
X88314143Y27341956D02*
X88266524Y27437194D01*
X88266524Y27437194D02*
X88218905Y27627670D01*
X88218905Y27627670D02*
X88218905Y27770527D01*
X88218905Y27770527D02*
X88266524Y27961003D01*
X88266524Y27961003D02*
X88314143Y28056241D01*
X88314143Y28056241D02*
X88409381Y28151479D01*
X88409381Y28151479D02*
X88552238Y28199098D01*
X88552238Y28199098D02*
X88647476Y28199098D01*
X88647476Y28199098D02*
X88790333Y28151479D01*
X88790333Y28151479D02*
X88837952Y28103860D01*
X89695095Y27865765D02*
X89695095Y27199098D01*
X89457000Y28246717D02*
X89218905Y27532432D01*
X89218905Y27532432D02*
X89837952Y27532432D01*
X87472142Y33245420D02*
X87424523Y33197800D01*
X87424523Y33197800D02*
X87281666Y33150181D01*
X87281666Y33150181D02*
X87186428Y33150181D01*
X87186428Y33150181D02*
X87043571Y33197800D01*
X87043571Y33197800D02*
X86948333Y33293039D01*
X86948333Y33293039D02*
X86900714Y33388277D01*
X86900714Y33388277D02*
X86853095Y33578753D01*
X86853095Y33578753D02*
X86853095Y33721610D01*
X86853095Y33721610D02*
X86900714Y33912086D01*
X86900714Y33912086D02*
X86948333Y34007324D01*
X86948333Y34007324D02*
X87043571Y34102562D01*
X87043571Y34102562D02*
X87186428Y34150181D01*
X87186428Y34150181D02*
X87281666Y34150181D01*
X87281666Y34150181D02*
X87424523Y34102562D01*
X87424523Y34102562D02*
X87472142Y34054943D01*
X88424523Y33150181D02*
X87853095Y33150181D01*
X88138809Y33150181D02*
X88138809Y34150181D01*
X88138809Y34150181D02*
X88043571Y34007324D01*
X88043571Y34007324D02*
X87948333Y33912086D01*
X87948333Y33912086D02*
X87853095Y33864467D01*
X88757857Y34150181D02*
X89376904Y34150181D01*
X89376904Y34150181D02*
X89043571Y33769229D01*
X89043571Y33769229D02*
X89186428Y33769229D01*
X89186428Y33769229D02*
X89281666Y33721610D01*
X89281666Y33721610D02*
X89329285Y33673991D01*
X89329285Y33673991D02*
X89376904Y33578753D01*
X89376904Y33578753D02*
X89376904Y33340658D01*
X89376904Y33340658D02*
X89329285Y33245420D01*
X89329285Y33245420D02*
X89281666Y33197800D01*
X89281666Y33197800D02*
X89186428Y33150181D01*
X89186428Y33150181D02*
X88900714Y33150181D01*
X88900714Y33150181D02*
X88805476Y33197800D01*
X88805476Y33197800D02*
X88757857Y33245420D01*
X82053095Y26150181D02*
X82053095Y25340658D01*
X82053095Y25340658D02*
X82100714Y25245420D01*
X82100714Y25245420D02*
X82148333Y25197800D01*
X82148333Y25197800D02*
X82243571Y25150181D01*
X82243571Y25150181D02*
X82434047Y25150181D01*
X82434047Y25150181D02*
X82529285Y25197800D01*
X82529285Y25197800D02*
X82576904Y25245420D01*
X82576904Y25245420D02*
X82624523Y25340658D01*
X82624523Y25340658D02*
X82624523Y26150181D01*
X83624523Y25150181D02*
X83053095Y25150181D01*
X83338809Y25150181D02*
X83338809Y26150181D01*
X83338809Y26150181D02*
X83243571Y26007324D01*
X83243571Y26007324D02*
X83148333Y25912086D01*
X83148333Y25912086D02*
X83053095Y25864467D01*
X61941422Y28052807D02*
X61893803Y28005187D01*
X61893803Y28005187D02*
X61750946Y27957568D01*
X61750946Y27957568D02*
X61655708Y27957568D01*
X61655708Y27957568D02*
X61512851Y28005187D01*
X61512851Y28005187D02*
X61417613Y28100426D01*
X61417613Y28100426D02*
X61369994Y28195664D01*
X61369994Y28195664D02*
X61322375Y28386140D01*
X61322375Y28386140D02*
X61322375Y28528997D01*
X61322375Y28528997D02*
X61369994Y28719473D01*
X61369994Y28719473D02*
X61417613Y28814711D01*
X61417613Y28814711D02*
X61512851Y28909949D01*
X61512851Y28909949D02*
X61655708Y28957568D01*
X61655708Y28957568D02*
X61750946Y28957568D01*
X61750946Y28957568D02*
X61893803Y28909949D01*
X61893803Y28909949D02*
X61941422Y28862330D01*
X62893803Y27957568D02*
X62322375Y27957568D01*
X62608089Y27957568D02*
X62608089Y28957568D01*
X62608089Y28957568D02*
X62512851Y28814711D01*
X62512851Y28814711D02*
X62417613Y28719473D01*
X62417613Y28719473D02*
X62322375Y28671854D01*
X55053095Y31826345D02*
X55053095Y31016822D01*
X55053095Y31016822D02*
X55100714Y30921584D01*
X55100714Y30921584D02*
X55148333Y30873964D01*
X55148333Y30873964D02*
X55243571Y30826345D01*
X55243571Y30826345D02*
X55434047Y30826345D01*
X55434047Y30826345D02*
X55529285Y30873964D01*
X55529285Y30873964D02*
X55576904Y30921584D01*
X55576904Y30921584D02*
X55624523Y31016822D01*
X55624523Y31016822D02*
X55624523Y31826345D01*
X56053095Y31731107D02*
X56100714Y31778726D01*
X56100714Y31778726D02*
X56195952Y31826345D01*
X56195952Y31826345D02*
X56434047Y31826345D01*
X56434047Y31826345D02*
X56529285Y31778726D01*
X56529285Y31778726D02*
X56576904Y31731107D01*
X56576904Y31731107D02*
X56624523Y31635869D01*
X56624523Y31635869D02*
X56624523Y31540631D01*
X56624523Y31540631D02*
X56576904Y31397774D01*
X56576904Y31397774D02*
X56005476Y30826345D01*
X56005476Y30826345D02*
X56624523Y30826345D01*
X72249696Y30995765D02*
X72202077Y30948145D01*
X72202077Y30948145D02*
X72059220Y30900526D01*
X72059220Y30900526D02*
X71963982Y30900526D01*
X71963982Y30900526D02*
X71821125Y30948145D01*
X71821125Y30948145D02*
X71725887Y31043384D01*
X71725887Y31043384D02*
X71678268Y31138622D01*
X71678268Y31138622D02*
X71630649Y31329098D01*
X71630649Y31329098D02*
X71630649Y31471955D01*
X71630649Y31471955D02*
X71678268Y31662431D01*
X71678268Y31662431D02*
X71725887Y31757669D01*
X71725887Y31757669D02*
X71821125Y31852907D01*
X71821125Y31852907D02*
X71963982Y31900526D01*
X71963982Y31900526D02*
X72059220Y31900526D01*
X72059220Y31900526D02*
X72202077Y31852907D01*
X72202077Y31852907D02*
X72249696Y31805288D01*
X73202077Y30900526D02*
X72630649Y30900526D01*
X72916363Y30900526D02*
X72916363Y31900526D01*
X72916363Y31900526D02*
X72821125Y31757669D01*
X72821125Y31757669D02*
X72725887Y31662431D01*
X72725887Y31662431D02*
X72630649Y31614812D01*
X73583030Y31805288D02*
X73630649Y31852907D01*
X73630649Y31852907D02*
X73725887Y31900526D01*
X73725887Y31900526D02*
X73963982Y31900526D01*
X73963982Y31900526D02*
X74059220Y31852907D01*
X74059220Y31852907D02*
X74106839Y31805288D01*
X74106839Y31805288D02*
X74154458Y31710050D01*
X74154458Y31710050D02*
X74154458Y31614812D01*
X74154458Y31614812D02*
X74106839Y31471955D01*
X74106839Y31471955D02*
X73535411Y30900526D01*
X73535411Y30900526D02*
X74154458Y30900526D01*
X3076905Y20980181D02*
X3076905Y21980181D01*
X3076905Y21980181D02*
X3315000Y21980181D01*
X3315000Y21980181D02*
X3457857Y21932562D01*
X3457857Y21932562D02*
X3553095Y21837324D01*
X3553095Y21837324D02*
X3600714Y21742086D01*
X3600714Y21742086D02*
X3648333Y21551610D01*
X3648333Y21551610D02*
X3648333Y21408753D01*
X3648333Y21408753D02*
X3600714Y21218277D01*
X3600714Y21218277D02*
X3553095Y21123039D01*
X3553095Y21123039D02*
X3457857Y21027800D01*
X3457857Y21027800D02*
X3315000Y20980181D01*
X3315000Y20980181D02*
X3076905Y20980181D01*
X4600714Y20980181D02*
X4029286Y20980181D01*
X4315000Y20980181D02*
X4315000Y21980181D01*
X4315000Y21980181D02*
X4219762Y21837324D01*
X4219762Y21837324D02*
X4124524Y21742086D01*
X4124524Y21742086D02*
X4029286Y21694467D01*
X64269819Y27843096D02*
X65079342Y27843096D01*
X65079342Y27843096D02*
X65174580Y27890715D01*
X65174580Y27890715D02*
X65222200Y27938334D01*
X65222200Y27938334D02*
X65269819Y28033572D01*
X65269819Y28033572D02*
X65269819Y28224048D01*
X65269819Y28224048D02*
X65222200Y28319286D01*
X65222200Y28319286D02*
X65174580Y28366905D01*
X65174580Y28366905D02*
X65079342Y28414524D01*
X65079342Y28414524D02*
X64269819Y28414524D01*
X64603152Y29319286D02*
X65269819Y29319286D01*
X64222200Y29081191D02*
X64936485Y28843096D01*
X64936485Y28843096D02*
X64936485Y29462143D01*
X44481667Y25533800D02*
X44624524Y25486181D01*
X44624524Y25486181D02*
X44862619Y25486181D01*
X44862619Y25486181D02*
X44957857Y25533800D01*
X44957857Y25533800D02*
X45005476Y25581420D01*
X45005476Y25581420D02*
X45053095Y25676658D01*
X45053095Y25676658D02*
X45053095Y25771896D01*
X45053095Y25771896D02*
X45005476Y25867134D01*
X45005476Y25867134D02*
X44957857Y25914753D01*
X44957857Y25914753D02*
X44862619Y25962372D01*
X44862619Y25962372D02*
X44672143Y26009991D01*
X44672143Y26009991D02*
X44576905Y26057610D01*
X44576905Y26057610D02*
X44529286Y26105229D01*
X44529286Y26105229D02*
X44481667Y26200467D01*
X44481667Y26200467D02*
X44481667Y26295705D01*
X44481667Y26295705D02*
X44529286Y26390943D01*
X44529286Y26390943D02*
X44576905Y26438562D01*
X44576905Y26438562D02*
X44672143Y26486181D01*
X44672143Y26486181D02*
X44910238Y26486181D01*
X44910238Y26486181D02*
X45053095Y26438562D01*
X45386429Y26486181D02*
X45624524Y25486181D01*
X45624524Y25486181D02*
X45815000Y26200467D01*
X45815000Y26200467D02*
X46005476Y25486181D01*
X46005476Y25486181D02*
X46243572Y26486181D01*
X46529286Y26486181D02*
X47195952Y26486181D01*
X47195952Y26486181D02*
X46767381Y25486181D01*
X58053095Y27650181D02*
X58053095Y26840658D01*
X58053095Y26840658D02*
X58100714Y26745420D01*
X58100714Y26745420D02*
X58148333Y26697800D01*
X58148333Y26697800D02*
X58243571Y26650181D01*
X58243571Y26650181D02*
X58434047Y26650181D01*
X58434047Y26650181D02*
X58529285Y26697800D01*
X58529285Y26697800D02*
X58576904Y26745420D01*
X58576904Y26745420D02*
X58624523Y26840658D01*
X58624523Y26840658D02*
X58624523Y27650181D01*
X59005476Y27650181D02*
X59624523Y27650181D01*
X59624523Y27650181D02*
X59291190Y27269229D01*
X59291190Y27269229D02*
X59434047Y27269229D01*
X59434047Y27269229D02*
X59529285Y27221610D01*
X59529285Y27221610D02*
X59576904Y27173991D01*
X59576904Y27173991D02*
X59624523Y27078753D01*
X59624523Y27078753D02*
X59624523Y26840658D01*
X59624523Y26840658D02*
X59576904Y26745420D01*
X59576904Y26745420D02*
X59529285Y26697800D01*
X59529285Y26697800D02*
X59434047Y26650181D01*
X59434047Y26650181D02*
X59148333Y26650181D01*
X59148333Y26650181D02*
X59053095Y26697800D01*
X59053095Y26697800D02*
X59005476Y26745420D01*
X92448333Y33405420D02*
X92400714Y33357800D01*
X92400714Y33357800D02*
X92257857Y33310181D01*
X92257857Y33310181D02*
X92162619Y33310181D01*
X92162619Y33310181D02*
X92019762Y33357800D01*
X92019762Y33357800D02*
X91924524Y33453039D01*
X91924524Y33453039D02*
X91876905Y33548277D01*
X91876905Y33548277D02*
X91829286Y33738753D01*
X91829286Y33738753D02*
X91829286Y33881610D01*
X91829286Y33881610D02*
X91876905Y34072086D01*
X91876905Y34072086D02*
X91924524Y34167324D01*
X91924524Y34167324D02*
X92019762Y34262562D01*
X92019762Y34262562D02*
X92162619Y34310181D01*
X92162619Y34310181D02*
X92257857Y34310181D01*
X92257857Y34310181D02*
X92400714Y34262562D01*
X92400714Y34262562D02*
X92448333Y34214943D01*
X93353095Y34310181D02*
X92876905Y34310181D01*
X92876905Y34310181D02*
X92829286Y33833991D01*
X92829286Y33833991D02*
X92876905Y33881610D01*
X92876905Y33881610D02*
X92972143Y33929229D01*
X92972143Y33929229D02*
X93210238Y33929229D01*
X93210238Y33929229D02*
X93305476Y33881610D01*
X93305476Y33881610D02*
X93353095Y33833991D01*
X93353095Y33833991D02*
X93400714Y33738753D01*
X93400714Y33738753D02*
X93400714Y33500658D01*
X93400714Y33500658D02*
X93353095Y33405420D01*
X93353095Y33405420D02*
X93305476Y33357800D01*
X93305476Y33357800D02*
X93210238Y33310181D01*
X93210238Y33310181D02*
X92972143Y33310181D01*
X92972143Y33310181D02*
X92876905Y33357800D01*
X92876905Y33357800D02*
X92829286Y33405420D01*
X55471666Y36610181D02*
X55471666Y35895896D01*
X55471666Y35895896D02*
X55424047Y35753039D01*
X55424047Y35753039D02*
X55328809Y35657800D01*
X55328809Y35657800D02*
X55185952Y35610181D01*
X55185952Y35610181D02*
X55090714Y35610181D01*
X56471666Y35610181D02*
X55900238Y35610181D01*
X56185952Y35610181D02*
X56185952Y36610181D01*
X56185952Y36610181D02*
X56090714Y36467324D01*
X56090714Y36467324D02*
X55995476Y36372086D01*
X55995476Y36372086D02*
X55900238Y36324467D01*
X64174580Y30438334D02*
X64222200Y30390715D01*
X64222200Y30390715D02*
X64269819Y30247858D01*
X64269819Y30247858D02*
X64269819Y30152620D01*
X64269819Y30152620D02*
X64222200Y30009763D01*
X64222200Y30009763D02*
X64126961Y29914525D01*
X64126961Y29914525D02*
X64031723Y29866906D01*
X64031723Y29866906D02*
X63841247Y29819287D01*
X63841247Y29819287D02*
X63698390Y29819287D01*
X63698390Y29819287D02*
X63507914Y29866906D01*
X63507914Y29866906D02*
X63412676Y29914525D01*
X63412676Y29914525D02*
X63317438Y30009763D01*
X63317438Y30009763D02*
X63269819Y30152620D01*
X63269819Y30152620D02*
X63269819Y30247858D01*
X63269819Y30247858D02*
X63317438Y30390715D01*
X63317438Y30390715D02*
X63365057Y30438334D01*
X63269819Y30771668D02*
X63269819Y31390715D01*
X63269819Y31390715D02*
X63650771Y31057382D01*
X63650771Y31057382D02*
X63650771Y31200239D01*
X63650771Y31200239D02*
X63698390Y31295477D01*
X63698390Y31295477D02*
X63746009Y31343096D01*
X63746009Y31343096D02*
X63841247Y31390715D01*
X63841247Y31390715D02*
X64079342Y31390715D01*
X64079342Y31390715D02*
X64174580Y31343096D01*
X64174580Y31343096D02*
X64222200Y31295477D01*
X64222200Y31295477D02*
X64269819Y31200239D01*
X64269819Y31200239D02*
X64269819Y30914525D01*
X64269819Y30914525D02*
X64222200Y30819287D01*
X64222200Y30819287D02*
X64174580Y30771668D01*
X90448333Y33150181D02*
X90115000Y33626372D01*
X89876905Y33150181D02*
X89876905Y34150181D01*
X89876905Y34150181D02*
X90257857Y34150181D01*
X90257857Y34150181D02*
X90353095Y34102562D01*
X90353095Y34102562D02*
X90400714Y34054943D01*
X90400714Y34054943D02*
X90448333Y33959705D01*
X90448333Y33959705D02*
X90448333Y33816848D01*
X90448333Y33816848D02*
X90400714Y33721610D01*
X90400714Y33721610D02*
X90353095Y33673991D01*
X90353095Y33673991D02*
X90257857Y33626372D01*
X90257857Y33626372D02*
X89876905Y33626372D01*
X90781667Y34150181D02*
X91400714Y34150181D01*
X91400714Y34150181D02*
X91067381Y33769229D01*
X91067381Y33769229D02*
X91210238Y33769229D01*
X91210238Y33769229D02*
X91305476Y33721610D01*
X91305476Y33721610D02*
X91353095Y33673991D01*
X91353095Y33673991D02*
X91400714Y33578753D01*
X91400714Y33578753D02*
X91400714Y33340658D01*
X91400714Y33340658D02*
X91353095Y33245420D01*
X91353095Y33245420D02*
X91305476Y33197800D01*
X91305476Y33197800D02*
X91210238Y33150181D01*
X91210238Y33150181D02*
X90924524Y33150181D01*
X90924524Y33150181D02*
X90829286Y33197800D01*
X90829286Y33197800D02*
X90781667Y33245420D01*
X108576905Y22820181D02*
X108576905Y23820181D01*
X108576905Y23820181D02*
X108815000Y23820181D01*
X108815000Y23820181D02*
X108957857Y23772562D01*
X108957857Y23772562D02*
X109053095Y23677324D01*
X109053095Y23677324D02*
X109100714Y23582086D01*
X109100714Y23582086D02*
X109148333Y23391610D01*
X109148333Y23391610D02*
X109148333Y23248753D01*
X109148333Y23248753D02*
X109100714Y23058277D01*
X109100714Y23058277D02*
X109053095Y22963039D01*
X109053095Y22963039D02*
X108957857Y22867800D01*
X108957857Y22867800D02*
X108815000Y22820181D01*
X108815000Y22820181D02*
X108576905Y22820181D01*
X109529286Y23724943D02*
X109576905Y23772562D01*
X109576905Y23772562D02*
X109672143Y23820181D01*
X109672143Y23820181D02*
X109910238Y23820181D01*
X109910238Y23820181D02*
X110005476Y23772562D01*
X110005476Y23772562D02*
X110053095Y23724943D01*
X110053095Y23724943D02*
X110100714Y23629705D01*
X110100714Y23629705D02*
X110100714Y23534467D01*
X110100714Y23534467D02*
X110053095Y23391610D01*
X110053095Y23391610D02*
X109481667Y22820181D01*
X109481667Y22820181D02*
X110100714Y22820181D01*
X73672072Y32624440D02*
X73624453Y32576820D01*
X73624453Y32576820D02*
X73481596Y32529201D01*
X73481596Y32529201D02*
X73386358Y32529201D01*
X73386358Y32529201D02*
X73243501Y32576820D01*
X73243501Y32576820D02*
X73148263Y32672059D01*
X73148263Y32672059D02*
X73100644Y32767297D01*
X73100644Y32767297D02*
X73053025Y32957773D01*
X73053025Y32957773D02*
X73053025Y33100630D01*
X73053025Y33100630D02*
X73100644Y33291106D01*
X73100644Y33291106D02*
X73148263Y33386344D01*
X73148263Y33386344D02*
X73243501Y33481582D01*
X73243501Y33481582D02*
X73386358Y33529201D01*
X73386358Y33529201D02*
X73481596Y33529201D01*
X73481596Y33529201D02*
X73624453Y33481582D01*
X73624453Y33481582D02*
X73672072Y33433963D01*
X74624453Y32529201D02*
X74053025Y32529201D01*
X74338739Y32529201D02*
X74338739Y33529201D01*
X74338739Y33529201D02*
X74243501Y33386344D01*
X74243501Y33386344D02*
X74148263Y33291106D01*
X74148263Y33291106D02*
X74053025Y33243487D01*
X75481596Y33195868D02*
X75481596Y32529201D01*
X75243501Y33576820D02*
X75005406Y32862535D01*
X75005406Y32862535D02*
X75624453Y32862535D01*
X78283765Y24626763D02*
X78236146Y24579143D01*
X78236146Y24579143D02*
X78093289Y24531524D01*
X78093289Y24531524D02*
X77998051Y24531524D01*
X77998051Y24531524D02*
X77855194Y24579143D01*
X77855194Y24579143D02*
X77759956Y24674382D01*
X77759956Y24674382D02*
X77712337Y24769620D01*
X77712337Y24769620D02*
X77664718Y24960096D01*
X77664718Y24960096D02*
X77664718Y25102953D01*
X77664718Y25102953D02*
X77712337Y25293429D01*
X77712337Y25293429D02*
X77759956Y25388667D01*
X77759956Y25388667D02*
X77855194Y25483905D01*
X77855194Y25483905D02*
X77998051Y25531524D01*
X77998051Y25531524D02*
X78093289Y25531524D01*
X78093289Y25531524D02*
X78236146Y25483905D01*
X78236146Y25483905D02*
X78283765Y25436286D01*
X79236146Y24531524D02*
X78664718Y24531524D01*
X78950432Y24531524D02*
X78950432Y25531524D01*
X78950432Y25531524D02*
X78855194Y25388667D01*
X78855194Y25388667D02*
X78759956Y25293429D01*
X78759956Y25293429D02*
X78664718Y25245810D01*
X79855194Y25531524D02*
X79950432Y25531524D01*
X79950432Y25531524D02*
X80045670Y25483905D01*
X80045670Y25483905D02*
X80093289Y25436286D01*
X80093289Y25436286D02*
X80140908Y25341048D01*
X80140908Y25341048D02*
X80188527Y25150572D01*
X80188527Y25150572D02*
X80188527Y24912477D01*
X80188527Y24912477D02*
X80140908Y24722001D01*
X80140908Y24722001D02*
X80093289Y24626763D01*
X80093289Y24626763D02*
X80045670Y24579143D01*
X80045670Y24579143D02*
X79950432Y24531524D01*
X79950432Y24531524D02*
X79855194Y24531524D01*
X79855194Y24531524D02*
X79759956Y24579143D01*
X79759956Y24579143D02*
X79712337Y24626763D01*
X79712337Y24626763D02*
X79664718Y24722001D01*
X79664718Y24722001D02*
X79617099Y24912477D01*
X79617099Y24912477D02*
X79617099Y25150572D01*
X79617099Y25150572D02*
X79664718Y25341048D01*
X79664718Y25341048D02*
X79712337Y25436286D01*
X79712337Y25436286D02*
X79759956Y25483905D01*
X79759956Y25483905D02*
X79855194Y25531524D01*
X60990212Y32082320D02*
X60656879Y32082320D01*
X60656879Y31558510D02*
X60656879Y32558510D01*
X60656879Y32558510D02*
X61133069Y32558510D01*
X62037831Y31558510D02*
X61466403Y31558510D01*
X61752117Y31558510D02*
X61752117Y32558510D01*
X61752117Y32558510D02*
X61656879Y32415653D01*
X61656879Y32415653D02*
X61561641Y32320415D01*
X61561641Y32320415D02*
X61466403Y32272796D01*
X87945857Y30026964D02*
X87898238Y29979344D01*
X87898238Y29979344D02*
X87755381Y29931725D01*
X87755381Y29931725D02*
X87660143Y29931725D01*
X87660143Y29931725D02*
X87517286Y29979344D01*
X87517286Y29979344D02*
X87422048Y30074583D01*
X87422048Y30074583D02*
X87374429Y30169821D01*
X87374429Y30169821D02*
X87326810Y30360297D01*
X87326810Y30360297D02*
X87326810Y30503154D01*
X87326810Y30503154D02*
X87374429Y30693630D01*
X87374429Y30693630D02*
X87422048Y30788868D01*
X87422048Y30788868D02*
X87517286Y30884106D01*
X87517286Y30884106D02*
X87660143Y30931725D01*
X87660143Y30931725D02*
X87755381Y30931725D01*
X87755381Y30931725D02*
X87898238Y30884106D01*
X87898238Y30884106D02*
X87945857Y30836487D01*
X88279191Y30931725D02*
X88945857Y30931725D01*
X88945857Y30931725D02*
X88517286Y29931725D01*
X91138809Y27676372D02*
X91138809Y27200181D01*
X90805476Y28200181D02*
X91138809Y27676372D01*
X91138809Y27676372D02*
X91472142Y28200181D01*
X92329285Y27200181D02*
X91757857Y27200181D01*
X92043571Y27200181D02*
X92043571Y28200181D01*
X92043571Y28200181D02*
X91948333Y28057324D01*
X91948333Y28057324D02*
X91853095Y27962086D01*
X91853095Y27962086D02*
X91757857Y27914467D01*
X50681666Y27050181D02*
X50681666Y26335896D01*
X50681666Y26335896D02*
X50634047Y26193039D01*
X50634047Y26193039D02*
X50538809Y26097800D01*
X50538809Y26097800D02*
X50395952Y26050181D01*
X50395952Y26050181D02*
X50300714Y26050181D01*
X51110238Y26954943D02*
X51157857Y27002562D01*
X51157857Y27002562D02*
X51253095Y27050181D01*
X51253095Y27050181D02*
X51491190Y27050181D01*
X51491190Y27050181D02*
X51586428Y27002562D01*
X51586428Y27002562D02*
X51634047Y26954943D01*
X51634047Y26954943D02*
X51681666Y26859705D01*
X51681666Y26859705D02*
X51681666Y26764467D01*
X51681666Y26764467D02*
X51634047Y26621610D01*
X51634047Y26621610D02*
X51062619Y26050181D01*
X51062619Y26050181D02*
X51681666Y26050181D01*
X52404469Y29491112D02*
X52071136Y29967303D01*
X51833041Y29491112D02*
X51833041Y30491112D01*
X51833041Y30491112D02*
X52213993Y30491112D01*
X52213993Y30491112D02*
X52309231Y30443493D01*
X52309231Y30443493D02*
X52356850Y30395874D01*
X52356850Y30395874D02*
X52404469Y30300636D01*
X52404469Y30300636D02*
X52404469Y30157779D01*
X52404469Y30157779D02*
X52356850Y30062541D01*
X52356850Y30062541D02*
X52309231Y30014922D01*
X52309231Y30014922D02*
X52213993Y29967303D01*
X52213993Y29967303D02*
X51833041Y29967303D01*
X53261612Y30157779D02*
X53261612Y29491112D01*
X53023517Y30538731D02*
X52785422Y29824446D01*
X52785422Y29824446D02*
X53404469Y29824446D01*
X72293127Y29768830D02*
X72245508Y29721210D01*
X72245508Y29721210D02*
X72102651Y29673591D01*
X72102651Y29673591D02*
X72007413Y29673591D01*
X72007413Y29673591D02*
X71864556Y29721210D01*
X71864556Y29721210D02*
X71769318Y29816449D01*
X71769318Y29816449D02*
X71721699Y29911687D01*
X71721699Y29911687D02*
X71674080Y30102163D01*
X71674080Y30102163D02*
X71674080Y30245020D01*
X71674080Y30245020D02*
X71721699Y30435496D01*
X71721699Y30435496D02*
X71769318Y30530734D01*
X71769318Y30530734D02*
X71864556Y30625972D01*
X71864556Y30625972D02*
X72007413Y30673591D01*
X72007413Y30673591D02*
X72102651Y30673591D01*
X72102651Y30673591D02*
X72245508Y30625972D01*
X72245508Y30625972D02*
X72293127Y30578353D01*
X73245508Y29673591D02*
X72674080Y29673591D01*
X72959794Y29673591D02*
X72959794Y30673591D01*
X72959794Y30673591D02*
X72864556Y30530734D01*
X72864556Y30530734D02*
X72769318Y30435496D01*
X72769318Y30435496D02*
X72674080Y30387877D01*
X74150270Y30673591D02*
X73674080Y30673591D01*
X73674080Y30673591D02*
X73626461Y30197401D01*
X73626461Y30197401D02*
X73674080Y30245020D01*
X73674080Y30245020D02*
X73769318Y30292639D01*
X73769318Y30292639D02*
X74007413Y30292639D01*
X74007413Y30292639D02*
X74102651Y30245020D01*
X74102651Y30245020D02*
X74150270Y30197401D01*
X74150270Y30197401D02*
X74197889Y30102163D01*
X74197889Y30102163D02*
X74197889Y29864068D01*
X74197889Y29864068D02*
X74150270Y29768830D01*
X74150270Y29768830D02*
X74102651Y29721210D01*
X74102651Y29721210D02*
X74007413Y29673591D01*
X74007413Y29673591D02*
X73769318Y29673591D01*
X73769318Y29673591D02*
X73674080Y29721210D01*
X73674080Y29721210D02*
X73626461Y29768830D01*
X53413767Y33754535D02*
X53080434Y34230726D01*
X52842339Y33754535D02*
X52842339Y34754535D01*
X52842339Y34754535D02*
X53223291Y34754535D01*
X53223291Y34754535D02*
X53318529Y34706916D01*
X53318529Y34706916D02*
X53366148Y34659297D01*
X53366148Y34659297D02*
X53413767Y34564059D01*
X53413767Y34564059D02*
X53413767Y34421202D01*
X53413767Y34421202D02*
X53366148Y34325964D01*
X53366148Y34325964D02*
X53318529Y34278345D01*
X53318529Y34278345D02*
X53223291Y34230726D01*
X53223291Y34230726D02*
X52842339Y34230726D01*
X53794720Y34659297D02*
X53842339Y34706916D01*
X53842339Y34706916D02*
X53937577Y34754535D01*
X53937577Y34754535D02*
X54175672Y34754535D01*
X54175672Y34754535D02*
X54270910Y34706916D01*
X54270910Y34706916D02*
X54318529Y34659297D01*
X54318529Y34659297D02*
X54366148Y34564059D01*
X54366148Y34564059D02*
X54366148Y34468821D01*
X54366148Y34468821D02*
X54318529Y34325964D01*
X54318529Y34325964D02*
X53747101Y33754535D01*
X53747101Y33754535D02*
X54366148Y33754535D01*
X75013485Y35137875D02*
X74680152Y35614066D01*
X74442057Y35137875D02*
X74442057Y36137875D01*
X74442057Y36137875D02*
X74823009Y36137875D01*
X74823009Y36137875D02*
X74918247Y36090256D01*
X74918247Y36090256D02*
X74965866Y36042637D01*
X74965866Y36042637D02*
X75013485Y35947399D01*
X75013485Y35947399D02*
X75013485Y35804542D01*
X75013485Y35804542D02*
X74965866Y35709304D01*
X74965866Y35709304D02*
X74918247Y35661685D01*
X74918247Y35661685D02*
X74823009Y35614066D01*
X74823009Y35614066D02*
X74442057Y35614066D01*
X75870628Y36137875D02*
X75680152Y36137875D01*
X75680152Y36137875D02*
X75584914Y36090256D01*
X75584914Y36090256D02*
X75537295Y36042637D01*
X75537295Y36042637D02*
X75442057Y35899780D01*
X75442057Y35899780D02*
X75394438Y35709304D01*
X75394438Y35709304D02*
X75394438Y35328352D01*
X75394438Y35328352D02*
X75442057Y35233114D01*
X75442057Y35233114D02*
X75489676Y35185494D01*
X75489676Y35185494D02*
X75584914Y35137875D01*
X75584914Y35137875D02*
X75775390Y35137875D01*
X75775390Y35137875D02*
X75870628Y35185494D01*
X75870628Y35185494D02*
X75918247Y35233114D01*
X75918247Y35233114D02*
X75965866Y35328352D01*
X75965866Y35328352D02*
X75965866Y35566447D01*
X75965866Y35566447D02*
X75918247Y35661685D01*
X75918247Y35661685D02*
X75870628Y35709304D01*
X75870628Y35709304D02*
X75775390Y35756923D01*
X75775390Y35756923D02*
X75584914Y35756923D01*
X75584914Y35756923D02*
X75489676Y35709304D01*
X75489676Y35709304D02*
X75442057Y35661685D01*
X75442057Y35661685D02*
X75394438Y35566447D01*
D11*
X73205000Y35758641D02*
X73205000Y35451359D01*
X72445000Y35758641D02*
X72445000Y35451359D01*
X58205000Y25095000D02*
X59255000Y25095000D01*
X58205000Y21765000D02*
X58205000Y25095000D01*
X59255000Y25095000D02*
X59255000Y25305000D01*
X59275000Y20375000D02*
X59775000Y20375000D01*
X59565000Y26158553D02*
X59815000Y25805000D01*
X59775000Y20375000D02*
X60075000Y20875000D01*
X59815000Y25805000D02*
X60065000Y26158553D01*
X60065000Y26158553D02*
X59565000Y26158553D01*
X60075000Y20875000D02*
X61955000Y20875000D01*
X61955000Y20875000D02*
X62255000Y20375000D01*
X62255000Y20375000D02*
X62755000Y20375000D01*
X63825000Y25095000D02*
X62775000Y25095000D01*
X63825000Y21765000D02*
X63825000Y25095000D01*
X58635000Y34851359D02*
X58635000Y35158641D01*
X59395000Y34851359D02*
X59395000Y35158641D01*
X83179949Y35964802D02*
X83179949Y36180474D01*
X83899949Y35964802D02*
X83899949Y36180474D01*
X79455000Y35977164D02*
X79455000Y36192836D01*
X80175000Y35977164D02*
X80175000Y36192836D01*
X76872836Y33745000D02*
X76657164Y33745000D01*
X76872836Y34465000D02*
X76657164Y34465000D01*
X16615000Y26505000D02*
X16015000Y26505000D01*
X16315000Y26805000D02*
X16615000Y26505000D01*
X16015000Y26505000D02*
X16315000Y26805000D01*
X14915000Y24705000D02*
X14915000Y36505000D01*
X10815000Y24705000D02*
X14915000Y24705000D01*
X10815000Y36505000D02*
X14915000Y36505000D01*
X9315000Y30605000D02*
X8315000Y30605000D01*
X8815000Y30105000D02*
X8815000Y31105000D01*
X6815000Y24705000D02*
X2715000Y24705000D01*
X2715000Y24705000D02*
X2715000Y27105000D01*
X2715000Y29305000D02*
X2715000Y31905000D01*
X2715000Y34105000D02*
X2715000Y36505000D01*
X2715000Y36505000D02*
X6815000Y36505000D01*
X11815000Y30605000D02*
G75*
G03*
X11815000Y30605000I-3000000J0D01*
G01*
X85678016Y24345181D02*
X85678016Y24129509D01*
X84958016Y24345181D02*
X84958016Y24129509D01*
X95015000Y34705000D02*
X95615000Y34705000D01*
X95315000Y34405000D02*
X95015000Y34705000D01*
X95615000Y34705000D02*
X95315000Y34405000D01*
X96715000Y36505000D02*
X96715000Y24705000D01*
X100815000Y36505000D02*
X96715000Y36505000D01*
X100815000Y24705000D02*
X96715000Y24705000D01*
X102315000Y30605000D02*
X103315000Y30605000D01*
X102815000Y31105000D02*
X102815000Y30105000D01*
X104815000Y36505000D02*
X108915000Y36505000D01*
X108915000Y36505000D02*
X108915000Y34105000D01*
X108915000Y31905000D02*
X108915000Y29305000D01*
X108915000Y27105000D02*
X108915000Y24705000D01*
X108915000Y24705000D02*
X104815000Y24705000D01*
X105815000Y30605000D02*
G75*
G03*
X105815000Y30605000I-3000000J0D01*
G01*
X55955000Y28997164D02*
X55955000Y29212836D01*
X56675000Y28997164D02*
X56675000Y29212836D01*
X88649884Y29189584D02*
X88649884Y29405256D01*
X89369884Y29189584D02*
X89369884Y29405256D01*
X88007164Y32965000D02*
X88222836Y32965000D01*
X88007164Y32245000D02*
X88222836Y32245000D01*
X86150000Y27270000D02*
X85500000Y27270000D01*
X78930000Y27920000D02*
X78930000Y27270000D01*
X86150000Y27920000D02*
X86150000Y27270000D01*
X78930000Y33840000D02*
X78930000Y34490000D01*
X86150000Y33840000D02*
X86150000Y34490000D01*
X78930000Y34490000D02*
X79580000Y34490000D01*
X86150000Y34490000D02*
X85500000Y34490000D01*
X61822214Y29964721D02*
X61822214Y30180393D01*
X62542214Y29964721D02*
X62542214Y30180393D01*
X58427048Y32121164D02*
X55527048Y32121164D01*
X58427048Y32731164D02*
X58427048Y32121164D01*
X56327048Y35241164D02*
X57127048Y35241164D01*
X56327048Y35241164D02*
X55527048Y35241164D01*
X75294831Y30889232D02*
X75079159Y30889232D01*
X75294831Y31609232D02*
X75079159Y31609232D01*
D12*
X4955000Y22605000D02*
G75*
G03*
X4955000Y22605000I-50000J0D01*
G01*
D11*
X65445000Y27780000D02*
X65705000Y27780000D01*
X65705000Y27780000D02*
X65705000Y26105000D01*
X70895000Y27780000D02*
X70635000Y27780000D01*
X65445000Y30505000D02*
X65445000Y27780000D01*
X65445000Y30505000D02*
X65445000Y33230000D01*
X70895000Y30505000D02*
X70895000Y27780000D01*
X70895000Y30505000D02*
X70895000Y33230000D01*
X65445000Y33230000D02*
X65705000Y33230000D01*
X70895000Y33230000D02*
X70635000Y33230000D01*
D10*
X43215000Y32605000D02*
X48415000Y32605000D01*
X43215000Y27405000D02*
X43215000Y32605000D01*
X48415000Y32605000D02*
X48415000Y27405000D01*
X48415000Y27405000D02*
X43215000Y27405000D01*
X46815000Y30005000D02*
G75*
G03*
X46815000Y30005000I-1000000J0D01*
G01*
D11*
X58877500Y31165000D02*
X57077500Y31165000D01*
X58877500Y31165000D02*
X59677500Y31165000D01*
X58877500Y28045000D02*
X58077500Y28045000D01*
X58877500Y28045000D02*
X59677500Y28045000D01*
X92507164Y32965000D02*
X92722836Y32965000D01*
X92507164Y32245000D02*
X92722836Y32245000D01*
X65175000Y30712836D02*
X65175000Y30497164D01*
X64455000Y30712836D02*
X64455000Y30497164D01*
X90768641Y32225000D02*
X90461359Y32225000D01*
X90768641Y32985000D02*
X90461359Y32985000D01*
D12*
X108275000Y22105000D02*
G75*
G03*
X108275000Y22105000I-50000J0D01*
G01*
D11*
X76872836Y32745000D02*
X76657164Y32745000D01*
X76872836Y33465000D02*
X76657164Y33465000D01*
X79034459Y25786343D02*
X78818787Y25786343D01*
X79034459Y26506343D02*
X78818787Y26506343D01*
X62225000Y35707064D02*
X62225000Y34502936D01*
X60405000Y35707064D02*
X60405000Y34502936D01*
X88027164Y31965000D02*
X88242836Y31965000D01*
X88027164Y31245000D02*
X88242836Y31245000D01*
X93615000Y28455000D02*
X93615000Y31755000D01*
X93615000Y31755000D02*
X89615000Y31755000D01*
X48205000Y25095000D02*
X49255000Y25095000D01*
X48205000Y21765000D02*
X48205000Y25095000D01*
X49255000Y25095000D02*
X49255000Y25305000D01*
X49275000Y20375000D02*
X49775000Y20375000D01*
X49565000Y26158553D02*
X49815000Y25805000D01*
X49775000Y20375000D02*
X50075000Y20875000D01*
X49815000Y25805000D02*
X50065000Y26158553D01*
X50065000Y26158553D02*
X49565000Y26158553D01*
X50075000Y20875000D02*
X51955000Y20875000D01*
X51955000Y20875000D02*
X52255000Y20375000D01*
X52255000Y20375000D02*
X52755000Y20375000D01*
X53825000Y25095000D02*
X52775000Y25095000D01*
X53825000Y21765000D02*
X53825000Y25095000D01*
X52918082Y28635660D02*
X52918082Y28328378D01*
X52158082Y28635660D02*
X52158082Y28328378D01*
X75294831Y29889232D02*
X75079159Y29889232D01*
X75294831Y30609232D02*
X75079159Y30609232D01*
X54095000Y35858641D02*
X54095000Y35551359D01*
X53335000Y35858641D02*
X53335000Y35551359D01*
X74195000Y35758641D02*
X74195000Y35451359D01*
X73435000Y35758641D02*
X73435000Y35451359D01*
%LPC*%
D13*
X72825000Y36115000D03*
X72825000Y35095000D03*
D14*
X59815000Y24880000D03*
X61015000Y24880000D03*
X62215000Y24880000D03*
D15*
X58665000Y21105000D03*
X63365000Y21105000D03*
D16*
X59015000Y34495000D03*
X59015000Y35515000D03*
D17*
X83539949Y35592638D03*
X83539949Y36552638D03*
X79815000Y35605000D03*
X79815000Y36565000D03*
D18*
X77245000Y34105000D03*
X76285000Y34105000D03*
D19*
X16315000Y28105000D03*
D20*
X16315000Y33105000D03*
X16315000Y30605000D03*
D21*
X8815000Y25005000D03*
X8815000Y36205000D03*
D20*
X1815000Y33105000D03*
X1815000Y28105000D03*
D22*
X17090000Y20355000D03*
X18360000Y20355000D03*
X19630000Y20355000D03*
X20900000Y20355000D03*
D23*
X85318016Y24717345D03*
X85318016Y23757345D03*
D19*
X95315000Y33105000D03*
D20*
X95315000Y28105000D03*
X95315000Y30605000D03*
D21*
X102815000Y36205000D03*
X102815000Y25005000D03*
D20*
X109815000Y28105000D03*
X109815000Y33105000D03*
D17*
X56315000Y28625000D03*
X56315000Y29585000D03*
X89009884Y28817420D03*
X89009884Y29777420D03*
D24*
X87635000Y32605000D03*
X88595000Y32605000D03*
D25*
X79940000Y27442500D03*
X80340000Y27442500D03*
X80740000Y27442500D03*
X81140000Y27442500D03*
X81540000Y27442500D03*
X81940000Y27442500D03*
X82340000Y27442500D03*
X82740000Y27442500D03*
X83140000Y27442500D03*
X83540000Y27442500D03*
X83940000Y27442500D03*
X84340000Y27442500D03*
X84740000Y27442500D03*
X85140000Y27442500D03*
D26*
X85977500Y28280000D03*
X85977500Y28680000D03*
X85977500Y29080000D03*
X85977500Y29480000D03*
X85977500Y29880000D03*
X85977500Y30280000D03*
X85977500Y30680000D03*
X85977500Y31080000D03*
X85977500Y31480000D03*
X85977500Y31880000D03*
X85977500Y32280000D03*
X85977500Y32680000D03*
X85977500Y33080000D03*
X85977500Y33480000D03*
D25*
X85140000Y34317500D03*
X84740000Y34317500D03*
X84340000Y34317500D03*
X83940000Y34317500D03*
X83540000Y34317500D03*
X83140000Y34317500D03*
X82740000Y34317500D03*
X82340000Y34317500D03*
X81940000Y34317500D03*
X81540000Y34317500D03*
X81140000Y34317500D03*
X80740000Y34317500D03*
X80340000Y34317500D03*
X79940000Y34317500D03*
D26*
X79102500Y33480000D03*
X79102500Y33080000D03*
X79102500Y32680000D03*
X79102500Y32280000D03*
X79102500Y31880000D03*
X79102500Y31480000D03*
X79102500Y31080000D03*
X79102500Y30680000D03*
X79102500Y30280000D03*
X79102500Y29880000D03*
X79102500Y29480000D03*
X79102500Y29080000D03*
X79102500Y28680000D03*
X79102500Y28280000D03*
D27*
X82540000Y30880000D03*
D17*
X62182214Y29592557D03*
X62182214Y30552557D03*
D28*
X57502048Y32731164D03*
X57502048Y33681164D03*
X57502048Y34631164D03*
X55152048Y34631164D03*
X55152048Y33681164D03*
X55152048Y32731164D03*
D18*
X75666995Y31249232D03*
X74706995Y31249232D03*
D29*
X4300000Y22605000D03*
X3330000Y22605000D03*
D30*
X66265000Y26905000D03*
X67535000Y26905000D03*
X68805000Y26905000D03*
X70075000Y26905000D03*
X70075000Y34105000D03*
X68805000Y34105000D03*
X67535000Y34105000D03*
X66265000Y34105000D03*
D31*
X48915000Y28155000D03*
X42715000Y31855000D03*
X48915000Y31855000D03*
X42715000Y28155000D03*
D32*
X57740000Y30555000D03*
X57740000Y28655000D03*
X60015000Y29605000D03*
D24*
X92135000Y32605000D03*
X93095000Y32605000D03*
D33*
X59555000Y38665000D03*
X52055000Y38665000D03*
D34*
X59005000Y37465000D03*
X58255000Y37465000D03*
D35*
X57055000Y37465000D03*
X56055000Y37465000D03*
X55555000Y37465000D03*
X54555000Y37465000D03*
D34*
X53355000Y37465000D03*
X52605000Y37465000D03*
X52605000Y37465000D03*
X53355000Y37465000D03*
D35*
X54055000Y37465000D03*
X55055000Y37465000D03*
X56555000Y37465000D03*
X57555000Y37465000D03*
D34*
X58255000Y37465000D03*
X59005000Y37465000D03*
D36*
X61400000Y43345000D03*
X61380000Y38745000D03*
X50250000Y43345000D03*
X50230000Y38745000D03*
D23*
X64815000Y31085000D03*
X64815000Y30125000D03*
D37*
X91125000Y32605000D03*
X90105000Y32605000D03*
D38*
X108830000Y22105000D03*
X109800000Y22105000D03*
D18*
X77245000Y33105000D03*
X76285000Y33105000D03*
X79406623Y26146343D03*
X78446623Y26146343D03*
D39*
X61315000Y36505000D03*
X61315000Y33705000D03*
D24*
X87655000Y31605000D03*
X88615000Y31605000D03*
D40*
X92715000Y30955000D03*
X90515000Y30955000D03*
X90515000Y29255000D03*
X92715000Y29255000D03*
D14*
X49815000Y24880000D03*
X51015000Y24880000D03*
X52215000Y24880000D03*
D15*
X48665000Y21105000D03*
X53365000Y21105000D03*
D13*
X52538082Y28992019D03*
X52538082Y27972019D03*
D18*
X75666995Y30249232D03*
X74706995Y30249232D03*
D13*
X53715000Y36215000D03*
X53715000Y35195000D03*
D22*
X89410000Y20355000D03*
X90680000Y20355000D03*
X91950000Y20355000D03*
X93220000Y20355000D03*
D13*
X73815000Y36115000D03*
X73815000Y35095000D03*
D41*
X86975000Y9605000D03*
D42*
X81895000Y9605000D03*
D41*
X76815000Y9605000D03*
D43*
X78085000Y12145000D03*
X84435000Y14685000D03*
D41*
X105895000Y9605000D03*
D42*
X100815000Y9605000D03*
D41*
X95735000Y9605000D03*
D43*
X97005000Y12145000D03*
X103355000Y14685000D03*
D41*
X33605000Y9525000D03*
D42*
X28525000Y9525000D03*
D41*
X23445000Y9525000D03*
D43*
X24715000Y12065000D03*
X31065000Y14605000D03*
D41*
X14605000Y9525000D03*
D42*
X9525000Y9525000D03*
D41*
X4445000Y9525000D03*
D43*
X5715000Y12065000D03*
X12065000Y14605000D03*
%LPD*%
M02*
