G04 #@! TF.GenerationSoftware,KiCad,Pcbnew,7.0.9*
G04 #@! TF.CreationDate,2023-12-24T20:12:45-08:00*
G04 #@! TF.ProjectId,4k-mania-keypad,346b2d6d-616e-4696-912d-6b6579706164,rev?*
G04 #@! TF.SameCoordinates,Original*
G04 #@! TF.FileFunction,Soldermask,Top*
G04 #@! TF.FilePolarity,Negative*
%FSLAX46Y46*%
G04 Gerber Fmt 4.6, Leading zero omitted, Abs format (unit mm)*
G04 Created by KiCad (PCBNEW 7.0.9) date 2023-12-24 20:12:45*
%MOMM*%
%LPD*%
G01*
G04 APERTURE LIST*
G04 Aperture macros list*
%AMRoundRect*
0 Rectangle with rounded corners*
0 $1 Rounding radius*
0 $2 $3 $4 $5 $6 $7 $8 $9 X,Y pos of 4 corners*
0 Add a 4 corners polygon primitive as box body*
4,1,4,$2,$3,$4,$5,$6,$7,$8,$9,$2,$3,0*
0 Add four circle primitives for the rounded corners*
1,1,$1+$1,$2,$3*
1,1,$1+$1,$4,$5*
1,1,$1+$1,$6,$7*
1,1,$1+$1,$8,$9*
0 Add four rect primitives between the rounded corners*
20,1,$1+$1,$2,$3,$4,$5,0*
20,1,$1+$1,$4,$5,$6,$7,0*
20,1,$1+$1,$6,$7,$8,$9,0*
20,1,$1+$1,$8,$9,$2,$3,0*%
G04 Aperture macros list end*
%ADD10RoundRect,0.135000X-0.185000X0.135000X-0.185000X-0.135000X0.185000X-0.135000X0.185000X0.135000X0*%
%ADD11RoundRect,0.150000X-0.150000X-0.275000X0.150000X-0.275000X0.150000X0.275000X-0.150000X0.275000X0*%
%ADD12RoundRect,0.175000X-0.175000X-0.225000X0.175000X-0.225000X0.175000X0.225000X-0.175000X0.225000X0*%
%ADD13RoundRect,0.135000X0.185000X-0.135000X0.185000X0.135000X-0.185000X0.135000X-0.185000X-0.135000X0*%
%ADD14RoundRect,0.140000X0.170000X-0.140000X0.170000X0.140000X-0.170000X0.140000X-0.170000X-0.140000X0*%
%ADD15RoundRect,0.140000X0.140000X0.170000X-0.140000X0.170000X-0.140000X-0.170000X0.140000X-0.170000X0*%
%ADD16R,2.000000X2.000000*%
%ADD17C,2.000000*%
%ADD18R,3.200000X2.000000*%
%ADD19C,0.750000*%
%ADD20RoundRect,0.140000X-0.170000X0.140000X-0.170000X-0.140000X0.170000X-0.140000X0.170000X0.140000X0*%
%ADD21RoundRect,0.140000X-0.140000X-0.170000X0.140000X-0.170000X0.140000X0.170000X-0.140000X0.170000X0*%
%ADD22RoundRect,0.050000X0.050000X-0.387500X0.050000X0.387500X-0.050000X0.387500X-0.050000X-0.387500X0*%
%ADD23RoundRect,0.050000X0.387500X-0.050000X0.387500X0.050000X-0.387500X0.050000X-0.387500X-0.050000X0*%
%ADD24RoundRect,0.144000X1.456000X-1.456000X1.456000X1.456000X-1.456000X1.456000X-1.456000X-1.456000X0*%
%ADD25RoundRect,0.150000X0.475000X0.150000X-0.475000X0.150000X-0.475000X-0.150000X0.475000X-0.150000X0*%
%ADD26RoundRect,0.147500X0.147500X0.172500X-0.147500X0.172500X-0.147500X-0.172500X0.147500X-0.172500X0*%
%ADD27RoundRect,0.150000X0.150000X-0.650000X0.150000X0.650000X-0.150000X0.650000X-0.150000X-0.650000X0*%
%ADD28R,1.800000X1.100000*%
%ADD29RoundRect,0.150000X0.150000X-0.512500X0.150000X0.512500X-0.150000X0.512500X-0.150000X-0.512500X0*%
%ADD30C,0.650000*%
%ADD31R,0.540000X1.100000*%
%ADD32R,0.300000X1.100000*%
%ADD33O,1.200000X2.250000*%
%ADD34RoundRect,0.135000X0.135000X0.185000X-0.135000X0.185000X-0.135000X-0.185000X0.135000X-0.185000X0*%
%ADD35RoundRect,0.147500X-0.147500X-0.172500X0.147500X-0.172500X0.147500X0.172500X-0.147500X0.172500X0*%
%ADD36RoundRect,0.250000X-0.625000X0.375000X-0.625000X-0.375000X0.625000X-0.375000X0.625000X0.375000X0*%
%ADD37R,1.400000X1.200000*%
%ADD38C,1.750000*%
%ADD39C,3.987800*%
%ADD40C,3.300000*%
G04 APERTURE END LIST*
D10*
X168010000Y-81490000D03*
X168010000Y-82510000D03*
D11*
X155000000Y-92725000D03*
X156200000Y-92725000D03*
X157400000Y-92725000D03*
D12*
X153850000Y-96500000D03*
X158550000Y-96500000D03*
D13*
X154076971Y-82288492D03*
X154076971Y-81268492D03*
D14*
X178724949Y-82012362D03*
X178724949Y-81052362D03*
X175000000Y-82000000D03*
X175000000Y-81040000D03*
D15*
X172430000Y-83500000D03*
X171470000Y-83500000D03*
D16*
X111500000Y-89500000D03*
D17*
X111500000Y-84500000D03*
X111500000Y-87000000D03*
D18*
X104000000Y-92600000D03*
X104000000Y-81400000D03*
D17*
X97000000Y-84500000D03*
X97000000Y-89500000D03*
D19*
X112275000Y-97250000D03*
X113545000Y-97250000D03*
X114815000Y-97250000D03*
X116085000Y-97250000D03*
D20*
X180503016Y-92887655D03*
X180503016Y-93847655D03*
D16*
X190500000Y-84500000D03*
D17*
X190500000Y-89500000D03*
X190500000Y-87000000D03*
D18*
X198000000Y-81400000D03*
X198000000Y-92600000D03*
D17*
X205000000Y-89500000D03*
X205000000Y-84500000D03*
D14*
X150598623Y-89273878D03*
X150598623Y-88313878D03*
X184194884Y-88787580D03*
X184194884Y-87827580D03*
D21*
X182820000Y-85000000D03*
X183780000Y-85000000D03*
D22*
X175125000Y-90162500D03*
X175525000Y-90162500D03*
X175925000Y-90162500D03*
X176325000Y-90162500D03*
X176725000Y-90162500D03*
X177125000Y-90162500D03*
X177525000Y-90162500D03*
X177925000Y-90162500D03*
X178325000Y-90162500D03*
X178725000Y-90162500D03*
X179125000Y-90162500D03*
X179525000Y-90162500D03*
X179925000Y-90162500D03*
X180325000Y-90162500D03*
D23*
X181162500Y-89325000D03*
X181162500Y-88925000D03*
X181162500Y-88525000D03*
X181162500Y-88125000D03*
X181162500Y-87725000D03*
X181162500Y-87325000D03*
X181162500Y-86925000D03*
X181162500Y-86525000D03*
X181162500Y-86125000D03*
X181162500Y-85725000D03*
X181162500Y-85325000D03*
X181162500Y-84925000D03*
X181162500Y-84525000D03*
X181162500Y-84125000D03*
D22*
X180325000Y-83287500D03*
X179925000Y-83287500D03*
X179525000Y-83287500D03*
X179125000Y-83287500D03*
X178725000Y-83287500D03*
X178325000Y-83287500D03*
X177925000Y-83287500D03*
X177525000Y-83287500D03*
X177125000Y-83287500D03*
X176725000Y-83287500D03*
X176325000Y-83287500D03*
X175925000Y-83287500D03*
X175525000Y-83287500D03*
X175125000Y-83287500D03*
D23*
X174287500Y-84125000D03*
X174287500Y-84525000D03*
X174287500Y-84925000D03*
X174287500Y-85325000D03*
X174287500Y-85725000D03*
X174287500Y-86125000D03*
X174287500Y-86525000D03*
X174287500Y-86925000D03*
X174287500Y-87325000D03*
X174287500Y-87725000D03*
X174287500Y-88125000D03*
X174287500Y-88525000D03*
X174287500Y-88925000D03*
X174287500Y-89325000D03*
D24*
X177725000Y-86725000D03*
D21*
X148032333Y-85002567D03*
X148992333Y-85002567D03*
D25*
X152670811Y-83790097D03*
X152670811Y-82840097D03*
X152670811Y-81890097D03*
X150320811Y-81890097D03*
X150320811Y-82840097D03*
X150320811Y-83790097D03*
D15*
X170851995Y-86355768D03*
X169891995Y-86355768D03*
D26*
X99485000Y-95000000D03*
X98515000Y-95000000D03*
D27*
X161298268Y-90441352D03*
X162568268Y-90441352D03*
X163838268Y-90441352D03*
X165108268Y-90441352D03*
X165108268Y-83241352D03*
X163838268Y-83241352D03*
X162568268Y-83241352D03*
X161298268Y-83241352D03*
D28*
X140260000Y-90750000D03*
X134060000Y-87050000D03*
X140260000Y-87050000D03*
X134060000Y-90750000D03*
D29*
X147060236Y-89262469D03*
X148960236Y-89262469D03*
X148010236Y-86987469D03*
D21*
X187320000Y-85000000D03*
X188280000Y-85000000D03*
D30*
X154740000Y-78940000D03*
X147240000Y-78940000D03*
D31*
X154190000Y-80140000D03*
X153440000Y-80140000D03*
D32*
X152240000Y-80140000D03*
X151240000Y-80140000D03*
X150740000Y-80140000D03*
X149740000Y-80140000D03*
D31*
X148540000Y-80140000D03*
X147790000Y-80140000D03*
X147790000Y-80140000D03*
X148540000Y-80140000D03*
D32*
X149240000Y-80140000D03*
X150240000Y-80140000D03*
X151740000Y-80140000D03*
X152740000Y-80140000D03*
D31*
X153440000Y-80140000D03*
X154190000Y-80140000D03*
D33*
X156585000Y-74260000D03*
X156565000Y-78860000D03*
X145435000Y-74260000D03*
X145415000Y-78860000D03*
D14*
X152144211Y-89276155D03*
X152144211Y-88316155D03*
D34*
X186310000Y-85000000D03*
X185290000Y-85000000D03*
D35*
X204015000Y-95500000D03*
X204985000Y-95500000D03*
D15*
X172430000Y-84500000D03*
X171470000Y-84500000D03*
X174591623Y-91458657D03*
X173631623Y-91458657D03*
D36*
X146448102Y-81170030D03*
X146448102Y-83970030D03*
D21*
X182840000Y-86000000D03*
X183800000Y-86000000D03*
D37*
X187900000Y-86650000D03*
X185700000Y-86650000D03*
X185700000Y-88350000D03*
X187900000Y-88350000D03*
D11*
X145000000Y-92725000D03*
X146200000Y-92725000D03*
X147400000Y-92725000D03*
D12*
X143850000Y-96500000D03*
X148550000Y-96500000D03*
D10*
X143287931Y-89751573D03*
X143287931Y-90771573D03*
D15*
X170851995Y-87355768D03*
X169891995Y-87355768D03*
D10*
X148642794Y-81840130D03*
X148642794Y-82860130D03*
D19*
X184595000Y-97250000D03*
X185865000Y-97250000D03*
X187135000Y-97250000D03*
X188405000Y-97250000D03*
D10*
X169000000Y-81490000D03*
X169000000Y-82510000D03*
D38*
X182160000Y-108000000D03*
D39*
X177080000Y-108000000D03*
D38*
X172000000Y-108000000D03*
D40*
X173270000Y-105460000D03*
X179620000Y-102920000D03*
D38*
X201080000Y-108000000D03*
D39*
X196000000Y-108000000D03*
D38*
X190920000Y-108000000D03*
D40*
X192190000Y-105460000D03*
X198540000Y-102920000D03*
D38*
X128790000Y-108080000D03*
D39*
X123710000Y-108080000D03*
D38*
X118630000Y-108080000D03*
D40*
X119900000Y-105540000D03*
X126250000Y-103000000D03*
D38*
X109790000Y-108080000D03*
D39*
X104710000Y-108080000D03*
D38*
X99630000Y-108080000D03*
D40*
X100900000Y-105540000D03*
X107250000Y-103000000D03*
M02*
