G04 #@! TF.GenerationSoftware,KiCad,Pcbnew,7.0.9*
G04 #@! TF.CreationDate,2023-12-24T20:12:45-08:00*
G04 #@! TF.ProjectId,4k-mania-keypad,346b2d6d-616e-4696-912d-6b6579706164,rev?*
G04 #@! TF.SameCoordinates,Original*
G04 #@! TF.FileFunction,Copper,L2,Bot*
G04 #@! TF.FilePolarity,Positive*
%FSLAX46Y46*%
G04 Gerber Fmt 4.6, Leading zero omitted, Abs format (unit mm)*
G04 Created by KiCad (PCBNEW 7.0.9) date 2023-12-24 20:12:45*
%MOMM*%
%LPD*%
G01*
G04 APERTURE LIST*
G04 Aperture macros list*
%AMRoundRect*
0 Rectangle with rounded corners*
0 $1 Rounding radius*
0 $2 $3 $4 $5 $6 $7 $8 $9 X,Y pos of 4 corners*
0 Add a 4 corners polygon primitive as box body*
4,1,4,$2,$3,$4,$5,$6,$7,$8,$9,$2,$3,0*
0 Add four circle primitives for the rounded corners*
1,1,$1+$1,$2,$3*
1,1,$1+$1,$4,$5*
1,1,$1+$1,$6,$7*
1,1,$1+$1,$8,$9*
0 Add four rect primitives between the rounded corners*
20,1,$1+$1,$2,$3,$4,$5,0*
20,1,$1+$1,$4,$5,$6,$7,0*
20,1,$1+$1,$6,$7,$8,$9,0*
20,1,$1+$1,$8,$9,$2,$3,0*%
G04 Aperture macros list end*
G04 #@! TA.AperFunction,ComponentPad*
%ADD10R,2.000000X2.000000*%
G04 #@! TD*
G04 #@! TA.AperFunction,ComponentPad*
%ADD11C,2.000000*%
G04 #@! TD*
G04 #@! TA.AperFunction,ComponentPad*
%ADD12R,3.200000X2.000000*%
G04 #@! TD*
G04 #@! TA.AperFunction,ComponentPad*
%ADD13C,0.600000*%
G04 #@! TD*
G04 #@! TA.AperFunction,ComponentPad*
%ADD14O,1.200000X2.250000*%
G04 #@! TD*
G04 #@! TA.AperFunction,SMDPad,CuDef*
%ADD15RoundRect,0.147500X0.172500X-0.147500X0.172500X0.147500X-0.172500X0.147500X-0.172500X-0.147500X0*%
G04 #@! TD*
G04 #@! TA.AperFunction,ComponentPad*
%ADD16C,3.300000*%
G04 #@! TD*
G04 #@! TA.AperFunction,SMDPad,CuDef*
%ADD17R,1.650000X2.500000*%
G04 #@! TD*
G04 #@! TA.AperFunction,SMDPad,CuDef*
%ADD18RoundRect,0.250000X1.025000X1.000000X-1.025000X1.000000X-1.025000X-1.000000X1.025000X-1.000000X0*%
G04 #@! TD*
G04 #@! TA.AperFunction,SMDPad,CuDef*
%ADD19RoundRect,0.150000X-0.275000X0.150000X-0.275000X-0.150000X0.275000X-0.150000X0.275000X0.150000X0*%
G04 #@! TD*
G04 #@! TA.AperFunction,SMDPad,CuDef*
%ADD20RoundRect,0.175000X-0.225000X0.175000X-0.225000X-0.175000X0.225000X-0.175000X0.225000X0.175000X0*%
G04 #@! TD*
G04 #@! TA.AperFunction,SMDPad,CuDef*
%ADD21RoundRect,0.150000X0.275000X-0.150000X0.275000X0.150000X-0.275000X0.150000X-0.275000X-0.150000X0*%
G04 #@! TD*
G04 #@! TA.AperFunction,SMDPad,CuDef*
%ADD22RoundRect,0.175000X0.225000X-0.175000X0.225000X0.175000X-0.225000X0.175000X-0.225000X-0.175000X0*%
G04 #@! TD*
G04 #@! TA.AperFunction,ViaPad*
%ADD23C,0.600000*%
G04 #@! TD*
G04 #@! TA.AperFunction,Conductor*
%ADD24C,0.300000*%
G04 #@! TD*
G04 #@! TA.AperFunction,Conductor*
%ADD25C,0.200000*%
G04 #@! TD*
G04 APERTURE END LIST*
D10*
X111500000Y-89500000D03*
D11*
X111500000Y-84500000D03*
X111500000Y-87000000D03*
D12*
X104000000Y-92600000D03*
X104000000Y-81400000D03*
D11*
X97000000Y-84500000D03*
X97000000Y-89500000D03*
D10*
X190500000Y-84500000D03*
D11*
X190500000Y-89500000D03*
X190500000Y-87000000D03*
D12*
X198000000Y-81400000D03*
X198000000Y-92600000D03*
D11*
X205000000Y-89500000D03*
X205000000Y-84500000D03*
D13*
X176450000Y-88000000D03*
X177725000Y-88000000D03*
X179000000Y-88000000D03*
X176450000Y-86725000D03*
X177725000Y-86725000D03*
X179000000Y-86725000D03*
X176450000Y-85450000D03*
X177725000Y-85450000D03*
X179000000Y-85450000D03*
D14*
X156585000Y-74260000D03*
X156565000Y-78860000D03*
X145435000Y-74260000D03*
X145415000Y-78860000D03*
D15*
X97130000Y-111565000D03*
X97130000Y-110595000D03*
D16*
X173270000Y-105460000D03*
D17*
X171445000Y-105460000D03*
D18*
X169720000Y-105460000D03*
X183170000Y-102920000D03*
D17*
X181420000Y-102920000D03*
D16*
X179620000Y-102920000D03*
D19*
X128355000Y-111030000D03*
X128355000Y-112230000D03*
X128355000Y-113430000D03*
D20*
X132130000Y-109880000D03*
X132130000Y-114580000D03*
D15*
X188637740Y-111922662D03*
X188637740Y-110952662D03*
D16*
X192190000Y-105460000D03*
D17*
X190365000Y-105460000D03*
D18*
X188640000Y-105460000D03*
X202090000Y-102920000D03*
D17*
X200340000Y-102920000D03*
D16*
X198540000Y-102920000D03*
X119900000Y-105540000D03*
D17*
X118075000Y-105540000D03*
D18*
X116350000Y-105540000D03*
X129800000Y-103000000D03*
D17*
X128050000Y-103000000D03*
D16*
X126250000Y-103000000D03*
D21*
X172365000Y-113700000D03*
X172365000Y-112500000D03*
X172365000Y-111300000D03*
D22*
X168590000Y-114850000D03*
X168590000Y-110150000D03*
D15*
X169735091Y-108512324D03*
X169735091Y-107542324D03*
X116346938Y-111619648D03*
X116346938Y-110649648D03*
D16*
X100900000Y-105540000D03*
D17*
X99075000Y-105540000D03*
D18*
X97350000Y-105540000D03*
X110800000Y-103000000D03*
D17*
X109050000Y-103000000D03*
D16*
X107250000Y-103000000D03*
D23*
X149891273Y-85030860D03*
X165100000Y-84923250D03*
X182936064Y-88788242D03*
X181000000Y-94500000D03*
X168774399Y-85833732D03*
X148634149Y-83577919D03*
X173000000Y-91000000D03*
X186700498Y-87000000D03*
X161816386Y-85572750D03*
X172000000Y-86324500D03*
X175761124Y-84873836D03*
X180000000Y-86000000D03*
X175106307Y-86934522D03*
X101500000Y-95000000D03*
X182487919Y-93286515D03*
X101500000Y-96000000D03*
X183000000Y-93900500D03*
X182200000Y-84300000D03*
X152400000Y-91440000D03*
X112500000Y-94400500D03*
X181798495Y-92701500D03*
X113500000Y-93801000D03*
X181135844Y-92102000D03*
D24*
X168774399Y-85833732D02*
X167863917Y-84923250D01*
X167863917Y-84923250D02*
X165100000Y-84923250D01*
X165832646Y-85572750D02*
X161816386Y-85572750D01*
D25*
X174310460Y-86324500D02*
X175761124Y-84873836D01*
D24*
X172000000Y-87904636D02*
X171007202Y-88897434D01*
X171007202Y-88897434D02*
X169157330Y-88897434D01*
X172000000Y-86324500D02*
X172000000Y-87904636D01*
X169157330Y-88897434D02*
X165832646Y-85572750D01*
D25*
X172000000Y-86324500D02*
X174310460Y-86324500D01*
X180000000Y-86573529D02*
X179248529Y-87325000D01*
X175496785Y-87325000D02*
X175106307Y-86934522D01*
X180000000Y-86000000D02*
X180000000Y-86573529D01*
X179248529Y-87325000D02*
X175496785Y-87325000D01*
X182473434Y-93301000D02*
X178199000Y-93301000D01*
X182487919Y-93286515D02*
X182473434Y-93301000D01*
X178199000Y-93301000D02*
X176500000Y-95000000D01*
X176500000Y-95000000D02*
X101500000Y-95000000D01*
X183000000Y-93900500D02*
X178599500Y-93900500D01*
X178500000Y-94000000D02*
X176500000Y-96000000D01*
X178599500Y-93900500D02*
X178500000Y-94000000D01*
X176500000Y-96000000D02*
X101500000Y-96000000D01*
X178576089Y-93923911D02*
X178500000Y-94000000D01*
X97130000Y-111565000D02*
X116130000Y-111565000D01*
X116346938Y-111619648D02*
X124169648Y-111619648D01*
X125980000Y-113430000D02*
X128355000Y-113430000D01*
X124169648Y-111619648D02*
X125980000Y-113430000D01*
X97130000Y-110595000D02*
X97130000Y-105760000D01*
X97130000Y-105760000D02*
X97350000Y-105540000D01*
X116346938Y-110649648D02*
X116346938Y-105543062D01*
X116346938Y-105543062D02*
X116350000Y-105540000D01*
X169735091Y-112245091D02*
X169735091Y-108512324D01*
X171190000Y-113700000D02*
X169735091Y-112245091D01*
X188637740Y-111922662D02*
X186860402Y-113700000D01*
X171190000Y-113700000D02*
X172365000Y-113700000D01*
X186860402Y-113700000D02*
X172365000Y-113700000D01*
X169735091Y-107542324D02*
X169735091Y-105475091D01*
X188637740Y-110952662D02*
X188637740Y-105462260D01*
X129965000Y-110245000D02*
X129965000Y-103165000D01*
X129180000Y-111030000D02*
X129965000Y-110245000D01*
X129965000Y-103165000D02*
X129800000Y-103000000D01*
X128355000Y-111030000D02*
X129180000Y-111030000D01*
X121874064Y-103000000D02*
X126003900Y-107129836D01*
X126003900Y-111453900D02*
X126780000Y-112230000D01*
X126003900Y-107129836D02*
X126003900Y-111453900D01*
X110800000Y-103000000D02*
X121874064Y-103000000D01*
X126780000Y-112230000D02*
X128355000Y-112230000D01*
X202090000Y-102920000D02*
X202090000Y-101100000D01*
X184990000Y-106000000D02*
X184990000Y-110500000D01*
X202090000Y-101100000D02*
X200990000Y-100000000D01*
X200990000Y-100000000D02*
X190990000Y-100000000D01*
X184990000Y-110500000D02*
X182990000Y-112500000D01*
X182990000Y-112500000D02*
X172365000Y-112500000D01*
X190990000Y-100000000D02*
X184990000Y-106000000D01*
X182200000Y-86316757D02*
X182200000Y-84300000D01*
X160400820Y-92221684D02*
X176295073Y-92221684D01*
X159619136Y-91440000D02*
X160400820Y-92221684D01*
X182200000Y-84300000D02*
X182174336Y-84274336D01*
X176295073Y-92221684D02*
X182200000Y-86316757D01*
X152400000Y-91440000D02*
X159619136Y-91440000D01*
X177787200Y-92701500D02*
X176088200Y-94400500D01*
X181798495Y-92701500D02*
X177787200Y-92701500D01*
X176088200Y-94400500D02*
X112500000Y-94400500D01*
X177398000Y-92102000D02*
X181135844Y-92102000D01*
X113500000Y-93801000D02*
X175699000Y-93801000D01*
X175699000Y-93801000D02*
X177398000Y-92102000D01*
X183170000Y-105154064D02*
X177024064Y-111300000D01*
X183170000Y-102920000D02*
X183170000Y-105154064D01*
X177024064Y-111300000D02*
X172365000Y-111300000D01*
G04 #@! TA.AperFunction,Conductor*
G36*
X144306634Y-73343571D02*
G01*
X144354245Y-73394708D01*
X144366651Y-73463468D01*
X144365120Y-73473679D01*
X144335000Y-73629961D01*
X144335000Y-74010000D01*
X145135000Y-74010000D01*
X145135000Y-74510000D01*
X144335000Y-74510000D01*
X144335000Y-74837398D01*
X144349965Y-74994122D01*
X144349966Y-74994126D01*
X144409149Y-75195686D01*
X144505413Y-75382414D01*
X144635268Y-75547537D01*
X144635271Y-75547540D01*
X144794030Y-75685105D01*
X144794041Y-75685114D01*
X144975960Y-75790144D01*
X144975967Y-75790147D01*
X145174487Y-75858856D01*
X145185000Y-75860367D01*
X145185000Y-74951110D01*
X145209457Y-74990610D01*
X145298962Y-75058201D01*
X145406840Y-75088895D01*
X145518521Y-75078546D01*
X145618922Y-75028552D01*
X145685000Y-74956069D01*
X145685000Y-75856257D01*
X145796409Y-75829229D01*
X145987507Y-75741959D01*
X146158619Y-75620110D01*
X146158625Y-75620104D01*
X146230756Y-75544456D01*
X146291265Y-75509521D01*
X146361055Y-75512846D01*
X146417969Y-75553374D01*
X146443937Y-75618239D01*
X146444499Y-75630026D01*
X146444499Y-76853237D01*
X146441699Y-76879437D01*
X146432860Y-76920326D01*
X146421623Y-76951433D01*
X146421167Y-76952308D01*
X146410613Y-76969121D01*
X146392819Y-76992986D01*
X146379771Y-77007848D01*
X146379160Y-77008441D01*
X146352561Y-77028107D01*
X146315890Y-77048278D01*
X146291403Y-77058507D01*
X146239439Y-77073926D01*
X146128107Y-77142034D01*
X146037952Y-77236409D01*
X146018915Y-77270989D01*
X145969338Y-77320222D01*
X145901014Y-77334837D01*
X145869733Y-77328364D01*
X145675516Y-77261144D01*
X145665000Y-77259632D01*
X145665000Y-78168889D01*
X145640543Y-78129390D01*
X145551038Y-78061799D01*
X145443160Y-78031105D01*
X145331479Y-78041454D01*
X145231078Y-78091448D01*
X145165000Y-78163930D01*
X145165000Y-77263740D01*
X145164999Y-77263740D01*
X145053594Y-77290768D01*
X145053582Y-77290772D01*
X144862497Y-77378037D01*
X144862496Y-77378038D01*
X144691380Y-77499889D01*
X144691374Y-77499895D01*
X144546407Y-77651932D01*
X144432833Y-77828657D01*
X144354755Y-78023685D01*
X144315000Y-78229962D01*
X144315000Y-78610000D01*
X145115000Y-78610000D01*
X145115000Y-79110000D01*
X144315000Y-79110000D01*
X144315000Y-79437398D01*
X144329965Y-79594122D01*
X144329966Y-79594126D01*
X144389149Y-79795686D01*
X144485413Y-79982414D01*
X144615268Y-80147537D01*
X144615271Y-80147540D01*
X144774030Y-80285105D01*
X144774041Y-80285114D01*
X144955960Y-80390144D01*
X144955967Y-80390147D01*
X145154487Y-80458856D01*
X145165000Y-80460367D01*
X145165000Y-79551110D01*
X145189457Y-79590610D01*
X145278962Y-79658201D01*
X145386840Y-79688895D01*
X145498521Y-79678546D01*
X145598922Y-79628552D01*
X145665000Y-79556069D01*
X145665000Y-80456257D01*
X145776409Y-80429229D01*
X145967507Y-80341959D01*
X146138619Y-80220110D01*
X146138625Y-80220104D01*
X146283592Y-80068067D01*
X146397166Y-79891342D01*
X146475244Y-79696314D01*
X146515000Y-79490037D01*
X146515000Y-79110000D01*
X145715000Y-79110000D01*
X145715000Y-78610000D01*
X146515000Y-78610000D01*
X146515000Y-78282601D01*
X146504371Y-78171287D01*
X146517595Y-78102680D01*
X146565810Y-78052113D01*
X146627810Y-78035500D01*
X147543137Y-78035500D01*
X147543140Y-78035501D01*
X147585245Y-78035501D01*
X147604662Y-78037031D01*
X147607335Y-78037454D01*
X147646268Y-78045198D01*
X147678359Y-78056326D01*
X147684834Y-78059626D01*
X147691116Y-78063307D01*
X147713665Y-78078374D01*
X147732457Y-78093796D01*
X147736202Y-78097541D01*
X147751624Y-78116333D01*
X147766683Y-78138870D01*
X147770373Y-78145166D01*
X147773663Y-78151621D01*
X147784802Y-78183738D01*
X147792543Y-78222651D01*
X147792968Y-78225332D01*
X147794499Y-78244758D01*
X147794499Y-78449528D01*
X147794501Y-78449545D01*
X147794501Y-78500892D01*
X147823737Y-78610000D01*
X147828609Y-78628184D01*
X147828610Y-78628187D01*
X147894498Y-78742310D01*
X147894500Y-78742313D01*
X147894501Y-78742314D01*
X147987686Y-78835499D01*
X148086521Y-78892562D01*
X148101810Y-78901389D01*
X148101814Y-78901391D01*
X148229108Y-78935499D01*
X148229110Y-78935499D01*
X148360890Y-78935499D01*
X148360892Y-78935499D01*
X148488185Y-78901391D01*
X148602313Y-78835499D01*
X148695499Y-78742314D01*
X148721219Y-78697766D01*
X148740915Y-78672094D01*
X148777714Y-78635289D01*
X148833313Y-78603189D01*
X148883587Y-78589722D01*
X148915668Y-78585500D01*
X150994900Y-78585500D01*
X153074323Y-78585500D01*
X153106413Y-78589724D01*
X153156688Y-78603195D01*
X153212275Y-78635289D01*
X153249077Y-78672091D01*
X153268782Y-78697771D01*
X153294495Y-78742306D01*
X153294498Y-78742310D01*
X153387682Y-78835496D01*
X153387684Y-78835497D01*
X153387686Y-78835499D01*
X153480924Y-78889330D01*
X153501810Y-78901389D01*
X153501814Y-78901391D01*
X153629108Y-78935499D01*
X153629110Y-78935499D01*
X153760890Y-78935499D01*
X153760892Y-78935499D01*
X153888185Y-78901391D01*
X154002314Y-78835499D01*
X154095499Y-78742314D01*
X154161391Y-78628186D01*
X154195499Y-78500892D01*
X154195499Y-78435000D01*
X154195499Y-78434500D01*
X154195499Y-78244749D01*
X154197027Y-78225343D01*
X154197121Y-78224750D01*
X154197454Y-78222651D01*
X154205196Y-78183729D01*
X154216308Y-78151670D01*
X154219629Y-78145152D01*
X154223288Y-78138908D01*
X154238386Y-78116312D01*
X154253786Y-78097548D01*
X154257545Y-78093789D01*
X154276312Y-78078387D01*
X154298883Y-78063305D01*
X154305157Y-78059627D01*
X154311625Y-78056331D01*
X154343725Y-78045198D01*
X154382700Y-78037445D01*
X154385377Y-78037021D01*
X154404741Y-78035500D01*
X155352298Y-78035500D01*
X155419337Y-78055185D01*
X155465092Y-78107989D01*
X155475036Y-78177147D01*
X155474057Y-78182966D01*
X155465000Y-78229960D01*
X155465000Y-78610000D01*
X156265000Y-78610000D01*
X156265000Y-79110000D01*
X155465000Y-79110000D01*
X155465000Y-79437398D01*
X155479965Y-79594122D01*
X155479966Y-79594126D01*
X155539149Y-79795686D01*
X155635413Y-79982414D01*
X155765268Y-80147537D01*
X155765271Y-80147540D01*
X155924030Y-80285105D01*
X155924041Y-80285114D01*
X156105960Y-80390144D01*
X156105967Y-80390147D01*
X156304487Y-80458856D01*
X156315000Y-80460367D01*
X156315000Y-79551110D01*
X156339457Y-79590610D01*
X156428962Y-79658201D01*
X156536840Y-79688895D01*
X156648521Y-79678546D01*
X156748922Y-79628552D01*
X156815000Y-79556069D01*
X156815000Y-80456257D01*
X156926409Y-80429229D01*
X157117507Y-80341959D01*
X157288619Y-80220110D01*
X157288625Y-80220104D01*
X157433592Y-80068067D01*
X157547166Y-79891342D01*
X157625244Y-79696314D01*
X157665000Y-79490037D01*
X157665000Y-79110000D01*
X156865000Y-79110000D01*
X156865000Y-78610000D01*
X157665000Y-78610000D01*
X157665000Y-78282601D01*
X157650034Y-78125877D01*
X157650033Y-78125873D01*
X157590850Y-77924313D01*
X157494586Y-77737585D01*
X157364731Y-77572462D01*
X157364728Y-77572459D01*
X157205969Y-77434894D01*
X157205958Y-77434885D01*
X157024039Y-77329855D01*
X157024032Y-77329852D01*
X156825516Y-77261144D01*
X156815000Y-77259632D01*
X156815000Y-78168889D01*
X156790543Y-78129390D01*
X156701038Y-78061799D01*
X156593160Y-78031105D01*
X156481479Y-78041454D01*
X156381078Y-78091448D01*
X156315000Y-78163930D01*
X156315000Y-77263740D01*
X156314999Y-77263740D01*
X156203599Y-77290766D01*
X156203585Y-77290771D01*
X156131147Y-77323852D01*
X156061988Y-77333795D01*
X155998433Y-77304769D01*
X155971011Y-77270860D01*
X155964829Y-77259632D01*
X155952043Y-77236407D01*
X155861891Y-77142035D01*
X155861889Y-77142034D01*
X155861890Y-77142034D01*
X155750559Y-77073929D01*
X155698618Y-77058515D01*
X155674094Y-77048265D01*
X155637401Y-77028064D01*
X155610831Y-77008408D01*
X155610317Y-77007909D01*
X155597270Y-76993045D01*
X155579319Y-76968962D01*
X155568747Y-76952108D01*
X155568383Y-76951409D01*
X155557197Y-76920442D01*
X155548314Y-76879468D01*
X155545499Y-76853196D01*
X155545499Y-75600919D01*
X155565184Y-75533880D01*
X155617988Y-75488125D01*
X155687146Y-75478181D01*
X155750702Y-75507206D01*
X155766970Y-75524268D01*
X155785270Y-75547539D01*
X155785271Y-75547540D01*
X155944030Y-75685105D01*
X155944041Y-75685114D01*
X156125960Y-75790144D01*
X156125967Y-75790147D01*
X156324487Y-75858856D01*
X156335000Y-75860367D01*
X156335000Y-74951110D01*
X156359457Y-74990610D01*
X156448962Y-75058201D01*
X156556840Y-75088895D01*
X156668521Y-75078546D01*
X156768922Y-75028552D01*
X156835000Y-74956069D01*
X156835000Y-75856257D01*
X156946409Y-75829229D01*
X157137507Y-75741959D01*
X157308619Y-75620110D01*
X157308625Y-75620104D01*
X157453592Y-75468067D01*
X157567166Y-75291342D01*
X157645244Y-75096314D01*
X157685000Y-74890037D01*
X157685000Y-74510000D01*
X156885000Y-74510000D01*
X156885000Y-74010000D01*
X157685000Y-74010000D01*
X157685000Y-73682592D01*
X157673725Y-73564525D01*
X157686947Y-73495918D01*
X157735162Y-73445350D01*
X157803062Y-73428877D01*
X157869089Y-73451729D01*
X157912280Y-73506650D01*
X157913344Y-73509402D01*
X157930942Y-73556581D01*
X157933140Y-73563781D01*
X157961098Y-73680231D01*
X157981723Y-73775044D01*
X157982950Y-73783367D01*
X157994517Y-73930331D01*
X157999342Y-73997789D01*
X157999500Y-74002213D01*
X157999500Y-78607317D01*
X158030044Y-78819764D01*
X158030047Y-78819774D01*
X158090517Y-79025715D01*
X158179672Y-79220938D01*
X158179679Y-79220951D01*
X158295720Y-79401514D01*
X158436275Y-79563724D01*
X158511091Y-79628552D01*
X158598487Y-79704281D01*
X158687460Y-79761460D01*
X158779048Y-79820320D01*
X158779061Y-79820327D01*
X158974284Y-79909482D01*
X158974288Y-79909483D01*
X158974290Y-79909484D01*
X159180231Y-79969954D01*
X159180232Y-79969954D01*
X159180235Y-79969955D01*
X159243584Y-79979062D01*
X159392682Y-80000500D01*
X159499901Y-80000500D01*
X195836231Y-80000500D01*
X195903270Y-80020185D01*
X195949025Y-80072989D01*
X195958969Y-80142147D01*
X195952413Y-80167833D01*
X195905908Y-80292517D01*
X195900593Y-80341959D01*
X195899501Y-80352123D01*
X195899500Y-80352135D01*
X195899500Y-82447870D01*
X195899501Y-82447876D01*
X195905908Y-82507483D01*
X195956202Y-82642328D01*
X195956206Y-82642335D01*
X196042452Y-82757544D01*
X196042455Y-82757547D01*
X196157664Y-82843793D01*
X196157671Y-82843797D01*
X196292517Y-82894091D01*
X196292516Y-82894091D01*
X196299444Y-82894835D01*
X196352127Y-82900500D01*
X199647872Y-82900499D01*
X199707483Y-82894091D01*
X199842331Y-82843796D01*
X199957546Y-82757546D01*
X200043796Y-82642331D01*
X200094091Y-82507483D01*
X200100500Y-82447873D01*
X200100499Y-80352128D01*
X200094091Y-80292517D01*
X200089196Y-80279394D01*
X200047587Y-80167833D01*
X200042603Y-80098141D01*
X200076088Y-80036818D01*
X200137411Y-80003334D01*
X200163769Y-80000500D01*
X203998378Y-80000500D01*
X204001619Y-80000584D01*
X204133628Y-80007503D01*
X204317027Y-80017803D01*
X204323212Y-80018465D01*
X204475647Y-80042608D01*
X204638194Y-80070226D01*
X204643811Y-80071453D01*
X204796693Y-80112418D01*
X204889122Y-80139046D01*
X204951724Y-80157082D01*
X204956759Y-80158769D01*
X205106183Y-80216127D01*
X205254007Y-80277358D01*
X205258412Y-80279388D01*
X205324180Y-80312899D01*
X205401921Y-80352511D01*
X205477428Y-80394241D01*
X205541480Y-80429641D01*
X205545215Y-80431882D01*
X205619487Y-80480115D01*
X205680872Y-80519980D01*
X205768357Y-80582053D01*
X205810764Y-80612142D01*
X205813886Y-80614510D01*
X205938748Y-80715621D01*
X205941034Y-80717567D01*
X206058721Y-80822738D01*
X206061248Y-80825128D01*
X206174870Y-80938750D01*
X206177260Y-80941277D01*
X206282431Y-81058964D01*
X206284385Y-81061260D01*
X206385480Y-81186102D01*
X206387862Y-81189243D01*
X206480019Y-81319127D01*
X206533758Y-81401875D01*
X206568106Y-81454767D01*
X206570364Y-81458531D01*
X206647488Y-81598078D01*
X206720604Y-81741575D01*
X206722643Y-81745997D01*
X206783877Y-81893829D01*
X206841221Y-82043217D01*
X206842916Y-82048273D01*
X206887579Y-82203297D01*
X206928541Y-82356171D01*
X206929778Y-82361835D01*
X206957394Y-82524369D01*
X206981530Y-82676758D01*
X206982196Y-82682985D01*
X206992509Y-82866617D01*
X206999415Y-82998377D01*
X206999500Y-83001623D01*
X206999500Y-94498376D01*
X206999415Y-94501622D01*
X206992509Y-94633382D01*
X206982196Y-94817013D01*
X206981530Y-94823240D01*
X206957394Y-94975630D01*
X206929778Y-95138163D01*
X206928541Y-95143827D01*
X206887579Y-95296702D01*
X206842916Y-95451725D01*
X206841221Y-95456781D01*
X206783877Y-95606170D01*
X206722643Y-95754001D01*
X206720604Y-95758423D01*
X206647488Y-95901921D01*
X206570364Y-96041467D01*
X206568097Y-96045246D01*
X206480019Y-96180872D01*
X206387862Y-96310755D01*
X206385480Y-96313896D01*
X206284385Y-96438738D01*
X206282431Y-96441034D01*
X206177260Y-96558721D01*
X206174870Y-96561248D01*
X206061248Y-96674870D01*
X206058721Y-96677260D01*
X205941034Y-96782431D01*
X205938738Y-96784385D01*
X205813896Y-96885480D01*
X205810755Y-96887862D01*
X205680872Y-96980019D01*
X205545246Y-97068097D01*
X205541467Y-97070364D01*
X205401921Y-97147488D01*
X205258423Y-97220604D01*
X205254001Y-97222643D01*
X205106170Y-97283877D01*
X204956781Y-97341221D01*
X204951725Y-97342916D01*
X204796702Y-97387579D01*
X204643827Y-97428541D01*
X204638163Y-97429778D01*
X204475630Y-97457394D01*
X204323240Y-97481530D01*
X204317013Y-97482196D01*
X204133382Y-97492509D01*
X204001622Y-97499415D01*
X203998376Y-97499500D01*
X189184108Y-97499500D01*
X189056812Y-97533608D01*
X188942686Y-97599500D01*
X188942683Y-97599502D01*
X188849502Y-97692683D01*
X188849500Y-97692686D01*
X188783608Y-97806812D01*
X188756471Y-97908093D01*
X188720106Y-97967754D01*
X188657259Y-97998283D01*
X188636696Y-98000000D01*
X184363304Y-98000000D01*
X184296265Y-97980315D01*
X184250510Y-97927511D01*
X184243529Y-97908093D01*
X184216391Y-97806812D01*
X184207563Y-97791521D01*
X184150500Y-97692686D01*
X184057314Y-97599500D01*
X184000250Y-97566554D01*
X183943187Y-97533608D01*
X183879539Y-97516554D01*
X183815892Y-97499500D01*
X183750099Y-97499500D01*
X116930500Y-97499500D01*
X116930000Y-97499500D01*
X116864108Y-97499500D01*
X116736812Y-97533608D01*
X116622686Y-97599500D01*
X116622683Y-97599502D01*
X116529502Y-97692683D01*
X116529500Y-97692686D01*
X116463608Y-97806812D01*
X116436471Y-97908093D01*
X116400106Y-97967754D01*
X116337259Y-97998283D01*
X116316696Y-98000000D01*
X112043304Y-98000000D01*
X111976265Y-97980315D01*
X111930510Y-97927511D01*
X111923529Y-97908093D01*
X111896391Y-97806812D01*
X111887563Y-97791521D01*
X111830500Y-97692686D01*
X111737314Y-97599500D01*
X111680250Y-97566554D01*
X111623187Y-97533608D01*
X111559539Y-97516554D01*
X111495892Y-97499500D01*
X111495891Y-97499500D01*
X98001624Y-97499500D01*
X97998378Y-97499415D01*
X97866617Y-97492509D01*
X97682985Y-97482196D01*
X97676758Y-97481530D01*
X97524369Y-97457394D01*
X97361835Y-97429778D01*
X97356171Y-97428541D01*
X97203297Y-97387579D01*
X97048273Y-97342916D01*
X97043217Y-97341221D01*
X96893829Y-97283877D01*
X96745997Y-97222643D01*
X96741575Y-97220604D01*
X96598078Y-97147488D01*
X96458531Y-97070364D01*
X96454767Y-97068106D01*
X96401875Y-97033758D01*
X96319127Y-96980019D01*
X96189243Y-96887862D01*
X96186102Y-96885480D01*
X96061260Y-96784385D01*
X96058964Y-96782431D01*
X95941277Y-96677260D01*
X95938750Y-96674870D01*
X95825128Y-96561248D01*
X95822738Y-96558721D01*
X95717567Y-96441034D01*
X95715613Y-96438738D01*
X95707146Y-96428282D01*
X95614510Y-96313886D01*
X95612136Y-96310755D01*
X95519980Y-96180872D01*
X95487406Y-96130715D01*
X95431882Y-96045215D01*
X95429641Y-96041480D01*
X95406718Y-96000003D01*
X100694435Y-96000003D01*
X100714630Y-96179249D01*
X100714631Y-96179254D01*
X100774211Y-96349523D01*
X100823699Y-96428282D01*
X100870184Y-96502262D01*
X100997738Y-96629816D01*
X101150478Y-96725789D01*
X101159835Y-96729063D01*
X101320745Y-96785368D01*
X101320750Y-96785369D01*
X101499996Y-96805565D01*
X101500000Y-96805565D01*
X101500004Y-96805565D01*
X101679249Y-96785369D01*
X101679252Y-96785368D01*
X101679255Y-96785368D01*
X101849522Y-96725789D01*
X102002262Y-96629816D01*
X102002267Y-96629810D01*
X102005097Y-96627555D01*
X102007275Y-96626665D01*
X102008158Y-96626111D01*
X102008255Y-96626265D01*
X102069783Y-96601145D01*
X102082412Y-96600500D01*
X176456572Y-96600500D01*
X176464670Y-96601030D01*
X176500000Y-96605682D01*
X176500001Y-96605682D01*
X176552254Y-96598802D01*
X176656762Y-96585044D01*
X176802841Y-96524536D01*
X176831869Y-96502262D01*
X176928282Y-96428282D01*
X176949984Y-96399998D01*
X176955310Y-96393923D01*
X178811916Y-94537319D01*
X178873239Y-94503834D01*
X178899597Y-94501000D01*
X182417588Y-94501000D01*
X182484627Y-94520685D01*
X182494903Y-94528055D01*
X182497736Y-94530314D01*
X182497738Y-94530316D01*
X182650478Y-94626289D01*
X182820745Y-94685868D01*
X182820750Y-94685869D01*
X182999996Y-94706065D01*
X183000000Y-94706065D01*
X183000004Y-94706065D01*
X183179249Y-94685869D01*
X183179252Y-94685868D01*
X183179255Y-94685868D01*
X183349522Y-94626289D01*
X183502262Y-94530316D01*
X183629816Y-94402762D01*
X183725789Y-94250022D01*
X183785368Y-94079755D01*
X183785369Y-94079749D01*
X183805565Y-93900503D01*
X183805565Y-93900496D01*
X183785369Y-93721250D01*
X183785368Y-93721245D01*
X183769085Y-93674711D01*
X183759693Y-93647870D01*
X195899500Y-93647870D01*
X195899501Y-93647876D01*
X195905908Y-93707483D01*
X195956202Y-93842328D01*
X195956206Y-93842335D01*
X196042452Y-93957544D01*
X196042455Y-93957547D01*
X196157664Y-94043793D01*
X196157671Y-94043797D01*
X196292517Y-94094091D01*
X196292516Y-94094091D01*
X196299444Y-94094835D01*
X196352127Y-94100500D01*
X199647872Y-94100499D01*
X199707483Y-94094091D01*
X199842331Y-94043796D01*
X199957546Y-93957546D01*
X200043796Y-93842331D01*
X200094091Y-93707483D01*
X200100500Y-93647873D01*
X200100499Y-91552128D01*
X200094091Y-91492517D01*
X200090099Y-91481815D01*
X200043797Y-91357671D01*
X200043793Y-91357664D01*
X199957547Y-91242455D01*
X199957544Y-91242452D01*
X199842335Y-91156206D01*
X199842328Y-91156202D01*
X199707482Y-91105908D01*
X199707483Y-91105908D01*
X199647883Y-91099501D01*
X199647881Y-91099500D01*
X199647873Y-91099500D01*
X199647864Y-91099500D01*
X196352129Y-91099500D01*
X196352123Y-91099501D01*
X196292516Y-91105908D01*
X196157671Y-91156202D01*
X196157664Y-91156206D01*
X196042455Y-91242452D01*
X196042452Y-91242455D01*
X195956206Y-91357664D01*
X195956202Y-91357671D01*
X195905908Y-91492517D01*
X195899501Y-91552116D01*
X195899501Y-91552123D01*
X195899500Y-91552135D01*
X195899500Y-93647870D01*
X183759693Y-93647870D01*
X183725789Y-93550978D01*
X183629816Y-93398238D01*
X183502262Y-93270684D01*
X183386055Y-93197666D01*
X183349524Y-93174712D01*
X183349523Y-93174711D01*
X183349522Y-93174711D01*
X183345911Y-93173447D01*
X183343895Y-93172002D01*
X183343254Y-93171693D01*
X183343308Y-93171580D01*
X183289135Y-93132728D01*
X183269824Y-93097364D01*
X183213708Y-92936993D01*
X183117735Y-92784253D01*
X182990181Y-92656699D01*
X182929335Y-92618467D01*
X182837440Y-92560725D01*
X182726752Y-92521994D01*
X182667174Y-92501147D01*
X182650178Y-92499231D01*
X182585765Y-92472163D01*
X182547024Y-92416966D01*
X182524284Y-92351978D01*
X182444730Y-92225369D01*
X182428311Y-92199238D01*
X182300757Y-92071684D01*
X182291888Y-92066111D01*
X182148016Y-91975710D01*
X182052425Y-91942262D01*
X181977750Y-91916132D01*
X181977747Y-91916131D01*
X181971178Y-91913833D01*
X181971856Y-91911894D01*
X181919612Y-91882661D01*
X181891155Y-91836847D01*
X181861633Y-91752478D01*
X181765660Y-91599738D01*
X181638106Y-91472184D01*
X181485367Y-91376211D01*
X181315098Y-91316631D01*
X181315093Y-91316630D01*
X181135848Y-91296435D01*
X181135840Y-91296435D01*
X180956594Y-91316630D01*
X180956589Y-91316631D01*
X180786320Y-91376211D01*
X180633580Y-91472185D01*
X180630747Y-91474445D01*
X180628568Y-91475334D01*
X180627686Y-91475889D01*
X180627588Y-91475734D01*
X180566061Y-91500855D01*
X180553432Y-91501500D01*
X178163854Y-91501500D01*
X178096815Y-91481815D01*
X178051060Y-91429011D01*
X178041116Y-91359853D01*
X178070141Y-91296297D01*
X178076173Y-91289819D01*
X178818128Y-90547864D01*
X179865986Y-89500005D01*
X188994357Y-89500005D01*
X189014890Y-89747812D01*
X189014892Y-89747824D01*
X189075936Y-89988881D01*
X189175826Y-90216606D01*
X189311833Y-90424782D01*
X189311836Y-90424785D01*
X189480256Y-90607738D01*
X189676491Y-90760474D01*
X189676493Y-90760475D01*
X189851076Y-90854955D01*
X189895190Y-90878828D01*
X190130386Y-90959571D01*
X190375665Y-91000500D01*
X190624335Y-91000500D01*
X190869614Y-90959571D01*
X191104810Y-90878828D01*
X191323509Y-90760474D01*
X191519744Y-90607738D01*
X191688164Y-90424785D01*
X191824173Y-90216607D01*
X191924063Y-89988881D01*
X191985108Y-89747821D01*
X192001545Y-89549460D01*
X192005643Y-89500005D01*
X203494357Y-89500005D01*
X203514890Y-89747812D01*
X203514892Y-89747824D01*
X203575936Y-89988881D01*
X203675826Y-90216606D01*
X203811833Y-90424782D01*
X203811836Y-90424785D01*
X203980256Y-90607738D01*
X204176491Y-90760474D01*
X204176493Y-90760475D01*
X204351076Y-90854955D01*
X204395190Y-90878828D01*
X204630386Y-90959571D01*
X204875665Y-91000500D01*
X205124335Y-91000500D01*
X205369614Y-90959571D01*
X205604810Y-90878828D01*
X205823509Y-90760474D01*
X206019744Y-90607738D01*
X206188164Y-90424785D01*
X206324173Y-90216607D01*
X206424063Y-89988881D01*
X206485108Y-89747821D01*
X206501545Y-89549460D01*
X206505643Y-89500005D01*
X206505643Y-89499994D01*
X206485109Y-89252187D01*
X206485107Y-89252175D01*
X206424063Y-89011118D01*
X206324173Y-88783393D01*
X206188166Y-88575217D01*
X206166557Y-88551744D01*
X206019744Y-88392262D01*
X205823509Y-88239526D01*
X205823507Y-88239525D01*
X205823506Y-88239524D01*
X205604811Y-88121172D01*
X205604802Y-88121169D01*
X205369616Y-88040429D01*
X205124335Y-87999500D01*
X204875665Y-87999500D01*
X204630383Y-88040429D01*
X204395197Y-88121169D01*
X204395188Y-88121172D01*
X204176493Y-88239524D01*
X203980257Y-88392261D01*
X203811833Y-88575217D01*
X203675826Y-88783393D01*
X203575936Y-89011118D01*
X203514892Y-89252175D01*
X203514890Y-89252187D01*
X203494357Y-89499994D01*
X203494357Y-89500005D01*
X192005643Y-89500005D01*
X192005643Y-89499994D01*
X191985109Y-89252187D01*
X191985107Y-89252175D01*
X191924063Y-89011118D01*
X191824173Y-88783393D01*
X191688166Y-88575217D01*
X191667860Y-88553159D01*
X191519744Y-88392262D01*
X191418623Y-88313556D01*
X191377810Y-88256846D01*
X191373697Y-88227249D01*
X190632533Y-87486086D01*
X190642315Y-87484680D01*
X190773100Y-87424952D01*
X190881761Y-87330798D01*
X190959493Y-87209844D01*
X190983076Y-87129524D01*
X191723434Y-87869882D01*
X191823731Y-87716369D01*
X191923587Y-87488717D01*
X191984612Y-87247738D01*
X191984614Y-87247729D01*
X192005141Y-87000005D01*
X192005141Y-86999994D01*
X191984614Y-86752270D01*
X191984612Y-86752261D01*
X191923587Y-86511282D01*
X191823732Y-86283632D01*
X191711515Y-86111870D01*
X191691328Y-86044981D01*
X191710508Y-85977795D01*
X191741013Y-85944782D01*
X191742329Y-85943796D01*
X191742331Y-85943796D01*
X191857546Y-85857546D01*
X191943796Y-85742331D01*
X191994091Y-85607483D01*
X192000500Y-85547873D01*
X192000500Y-84500005D01*
X203494357Y-84500005D01*
X203514890Y-84747812D01*
X203514892Y-84747824D01*
X203575936Y-84988881D01*
X203675826Y-85216606D01*
X203811833Y-85424782D01*
X203811836Y-85424785D01*
X203980256Y-85607738D01*
X204176491Y-85760474D01*
X204395190Y-85878828D01*
X204630386Y-85959571D01*
X204875665Y-86000500D01*
X205124335Y-86000500D01*
X205369614Y-85959571D01*
X205604810Y-85878828D01*
X205823509Y-85760474D01*
X206019744Y-85607738D01*
X206188164Y-85424785D01*
X206324173Y-85216607D01*
X206424063Y-84988881D01*
X206485108Y-84747821D01*
X206491961Y-84665121D01*
X206505643Y-84500005D01*
X206505643Y-84499994D01*
X206485109Y-84252187D01*
X206485107Y-84252175D01*
X206424063Y-84011118D01*
X206324173Y-83783393D01*
X206188166Y-83575217D01*
X206132393Y-83514632D01*
X206019744Y-83392262D01*
X205823509Y-83239526D01*
X205823507Y-83239525D01*
X205823506Y-83239524D01*
X205604811Y-83121172D01*
X205604802Y-83121169D01*
X205369616Y-83040429D01*
X205124335Y-82999500D01*
X204875665Y-82999500D01*
X204630383Y-83040429D01*
X204395197Y-83121169D01*
X204395188Y-83121172D01*
X204176493Y-83239524D01*
X203980257Y-83392261D01*
X203811833Y-83575217D01*
X203675826Y-83783393D01*
X203575936Y-84011118D01*
X203514892Y-84252175D01*
X203514890Y-84252187D01*
X203494357Y-84499994D01*
X203494357Y-84500005D01*
X192000500Y-84500005D01*
X192000499Y-83452128D01*
X191994091Y-83392517D01*
X191943796Y-83257669D01*
X191943795Y-83257668D01*
X191943793Y-83257664D01*
X191857547Y-83142455D01*
X191857544Y-83142452D01*
X191742335Y-83056206D01*
X191742328Y-83056202D01*
X191607482Y-83005908D01*
X191607483Y-83005908D01*
X191547883Y-82999501D01*
X191547881Y-82999500D01*
X191547873Y-82999500D01*
X191547864Y-82999500D01*
X189452129Y-82999500D01*
X189452123Y-82999501D01*
X189392516Y-83005908D01*
X189257671Y-83056202D01*
X189257664Y-83056206D01*
X189142455Y-83142452D01*
X189142452Y-83142455D01*
X189056206Y-83257664D01*
X189056202Y-83257671D01*
X189005908Y-83392517D01*
X188999501Y-83452116D01*
X188999501Y-83452123D01*
X188999500Y-83452135D01*
X188999500Y-85547870D01*
X188999501Y-85547876D01*
X189005908Y-85607483D01*
X189056202Y-85742328D01*
X189056206Y-85742335D01*
X189142452Y-85857544D01*
X189142455Y-85857547D01*
X189258986Y-85944783D01*
X189300857Y-86000717D01*
X189305841Y-86070408D01*
X189288484Y-86111870D01*
X189176267Y-86283631D01*
X189076412Y-86511282D01*
X189015387Y-86752261D01*
X189015385Y-86752270D01*
X188994859Y-86999994D01*
X188994859Y-87000005D01*
X189015385Y-87247729D01*
X189015387Y-87247738D01*
X189076412Y-87488717D01*
X189176266Y-87716364D01*
X189276564Y-87869882D01*
X190016922Y-87129523D01*
X190040507Y-87209844D01*
X190118239Y-87330798D01*
X190226900Y-87424952D01*
X190357685Y-87484680D01*
X190367466Y-87486086D01*
X189624100Y-88229450D01*
X189613482Y-88276148D01*
X189581376Y-88313556D01*
X189480255Y-88392262D01*
X189311833Y-88575217D01*
X189175826Y-88783393D01*
X189075936Y-89011118D01*
X189014892Y-89252175D01*
X189014890Y-89252187D01*
X188994357Y-89499994D01*
X188994357Y-89500005D01*
X179865986Y-89500005D01*
X182593923Y-86772067D01*
X182599998Y-86766741D01*
X182628282Y-86745039D01*
X182724536Y-86619598D01*
X182785044Y-86473519D01*
X182790476Y-86432260D01*
X182801368Y-86349523D01*
X182805682Y-86316758D01*
X182805682Y-86316756D01*
X182801031Y-86281430D01*
X182800500Y-86273328D01*
X182800500Y-84882412D01*
X182820185Y-84815373D01*
X182827555Y-84805097D01*
X182829810Y-84802267D01*
X182829816Y-84802262D01*
X182925789Y-84649522D01*
X182985368Y-84479255D01*
X183005565Y-84300000D01*
X183000176Y-84252175D01*
X182985369Y-84120750D01*
X182985368Y-84120745D01*
X182974073Y-84088466D01*
X182925789Y-83950478D01*
X182829816Y-83797738D01*
X182702262Y-83670184D01*
X182549523Y-83574211D01*
X182379254Y-83514631D01*
X182379249Y-83514630D01*
X182200004Y-83494435D01*
X182199996Y-83494435D01*
X182020750Y-83514630D01*
X182020745Y-83514631D01*
X181850476Y-83574211D01*
X181697737Y-83670184D01*
X181570184Y-83797737D01*
X181474211Y-83950476D01*
X181414631Y-84120745D01*
X181414630Y-84120750D01*
X181394435Y-84299996D01*
X181394435Y-84300003D01*
X181414630Y-84479249D01*
X181414631Y-84479254D01*
X181474211Y-84649523D01*
X181526876Y-84733338D01*
X181560834Y-84787382D01*
X181570185Y-84802263D01*
X181572445Y-84805097D01*
X181573334Y-84807275D01*
X181573889Y-84808158D01*
X181573734Y-84808255D01*
X181598855Y-84869783D01*
X181599500Y-84882412D01*
X181599500Y-86016659D01*
X181579815Y-86083698D01*
X181563181Y-86104340D01*
X180776812Y-86890708D01*
X180715489Y-86924193D01*
X180645797Y-86919209D01*
X180589864Y-86877337D01*
X180565447Y-86811873D01*
X180574569Y-86755577D01*
X180585044Y-86730291D01*
X180605682Y-86573529D01*
X180606743Y-86565471D01*
X180608673Y-86565725D01*
X180625367Y-86508875D01*
X180627735Y-86505573D01*
X180629814Y-86502263D01*
X180629816Y-86502262D01*
X180725789Y-86349522D01*
X180785368Y-86179255D01*
X180787315Y-86161979D01*
X180805565Y-86000003D01*
X180805565Y-85999996D01*
X180785369Y-85820750D01*
X180785368Y-85820745D01*
X180744627Y-85704315D01*
X180725789Y-85650478D01*
X180698773Y-85607483D01*
X180661312Y-85547864D01*
X180629816Y-85497738D01*
X180502262Y-85370184D01*
X180466342Y-85347614D01*
X180349523Y-85274211D01*
X180179254Y-85214631D01*
X180179249Y-85214630D01*
X180000004Y-85194435D01*
X179999996Y-85194435D01*
X179865574Y-85209580D01*
X179796752Y-85197525D01*
X179745373Y-85150176D01*
X179734649Y-85127312D01*
X179725337Y-85100699D01*
X179725334Y-85100694D01*
X179716661Y-85086890D01*
X179087680Y-85715871D01*
X179026357Y-85749356D01*
X178956665Y-85744372D01*
X178912318Y-85715871D01*
X178624722Y-85428275D01*
X178821077Y-85428275D01*
X178831475Y-85513913D01*
X178880481Y-85584909D01*
X178956866Y-85625000D01*
X179021247Y-85625000D01*
X179083760Y-85609592D01*
X179148332Y-85552386D01*
X179178923Y-85471725D01*
X179168525Y-85386087D01*
X179119519Y-85315091D01*
X179043134Y-85275000D01*
X178978753Y-85275000D01*
X178916240Y-85290408D01*
X178851668Y-85347614D01*
X178821077Y-85428275D01*
X178624722Y-85428275D01*
X178362500Y-85166053D01*
X177812681Y-85715872D01*
X177751358Y-85749357D01*
X177681666Y-85744373D01*
X177637319Y-85715872D01*
X177349722Y-85428275D01*
X177546077Y-85428275D01*
X177556475Y-85513913D01*
X177605481Y-85584909D01*
X177681866Y-85625000D01*
X177746247Y-85625000D01*
X177808760Y-85609592D01*
X177873332Y-85552386D01*
X177903923Y-85471725D01*
X177893525Y-85386087D01*
X177844519Y-85315091D01*
X177768134Y-85275000D01*
X177703753Y-85275000D01*
X177641240Y-85290408D01*
X177576668Y-85347614D01*
X177546077Y-85428275D01*
X177349722Y-85428275D01*
X177087500Y-85166053D01*
X176166053Y-86087500D01*
X176591372Y-86512819D01*
X176624857Y-86574142D01*
X176619873Y-86643834D01*
X176612975Y-86653047D01*
X176569519Y-86590091D01*
X176493134Y-86550000D01*
X176428753Y-86550000D01*
X176366240Y-86565408D01*
X176301668Y-86622614D01*
X176271077Y-86703275D01*
X176273654Y-86724500D01*
X176147309Y-86724500D01*
X176080270Y-86704815D01*
X176059628Y-86688181D01*
X175733338Y-86361890D01*
X175731939Y-86362048D01*
X175663117Y-86349995D01*
X175630372Y-86326509D01*
X175608569Y-86304706D01*
X175476718Y-86221858D01*
X175430427Y-86169523D01*
X175419779Y-86100469D01*
X175448154Y-86036621D01*
X175454985Y-86029208D01*
X175635167Y-85849026D01*
X175696486Y-85815544D01*
X175732752Y-85813693D01*
X175849812Y-85696632D01*
X175911135Y-85663147D01*
X175923601Y-85661094D01*
X175940379Y-85659204D01*
X176110646Y-85599625D01*
X176263386Y-85503652D01*
X176278405Y-85488632D01*
X176281475Y-85513913D01*
X176330481Y-85584909D01*
X176406866Y-85625000D01*
X176471247Y-85625000D01*
X176533760Y-85609592D01*
X176598332Y-85552386D01*
X176628923Y-85471725D01*
X176618525Y-85386087D01*
X176569519Y-85315091D01*
X176493134Y-85275000D01*
X176454464Y-85275000D01*
X176486913Y-85223358D01*
X176546492Y-85053091D01*
X176548380Y-85036325D01*
X176575444Y-84971912D01*
X176583920Y-84962524D01*
X176813107Y-84733338D01*
X177361890Y-84733338D01*
X177725000Y-85096447D01*
X177725001Y-85096447D01*
X178088108Y-84733338D01*
X178636890Y-84733338D01*
X179000000Y-85096447D01*
X179000001Y-85096447D01*
X179363108Y-84733338D01*
X179363108Y-84733337D01*
X179349308Y-84724667D01*
X179349298Y-84724662D01*
X179179141Y-84665122D01*
X179179138Y-84665121D01*
X179000003Y-84644938D01*
X178999997Y-84644938D01*
X178820861Y-84665121D01*
X178820858Y-84665122D01*
X178650696Y-84724664D01*
X178636891Y-84733338D01*
X178636890Y-84733338D01*
X178088108Y-84733338D01*
X178088108Y-84733337D01*
X178074308Y-84724667D01*
X178074298Y-84724662D01*
X177904141Y-84665122D01*
X177904138Y-84665121D01*
X177725003Y-84644938D01*
X177724997Y-84644938D01*
X177545861Y-84665121D01*
X177545858Y-84665122D01*
X177375696Y-84724664D01*
X177361891Y-84733338D01*
X177361890Y-84733338D01*
X176813107Y-84733338D01*
X176813108Y-84733337D01*
X176799308Y-84724667D01*
X176799298Y-84724662D01*
X176629142Y-84665123D01*
X176609788Y-84662942D01*
X176545375Y-84635873D01*
X176506635Y-84580676D01*
X176486913Y-84524314D01*
X176486913Y-84524313D01*
X176390939Y-84371573D01*
X176263386Y-84244020D01*
X176110647Y-84148047D01*
X175940378Y-84088467D01*
X175940373Y-84088466D01*
X175761128Y-84068271D01*
X175761120Y-84068271D01*
X175581874Y-84088466D01*
X175581869Y-84088467D01*
X175411600Y-84148047D01*
X175258861Y-84244020D01*
X175131308Y-84371573D01*
X175035334Y-84524314D01*
X174975754Y-84694586D01*
X174965961Y-84781504D01*
X174938894Y-84845918D01*
X174930422Y-84855301D01*
X174098044Y-85687681D01*
X174036721Y-85721166D01*
X174010363Y-85724000D01*
X172582412Y-85724000D01*
X172515373Y-85704315D01*
X172505097Y-85696945D01*
X172502263Y-85694685D01*
X172502262Y-85694684D01*
X172431909Y-85650478D01*
X172349523Y-85598711D01*
X172179254Y-85539131D01*
X172179249Y-85539130D01*
X172000004Y-85518935D01*
X171999996Y-85518935D01*
X171820750Y-85539130D01*
X171820745Y-85539131D01*
X171650476Y-85598711D01*
X171497737Y-85694684D01*
X171370184Y-85822237D01*
X171274211Y-85974976D01*
X171214631Y-86145245D01*
X171214630Y-86145250D01*
X171194435Y-86324496D01*
X171194435Y-86324503D01*
X171214630Y-86503749D01*
X171214631Y-86503754D01*
X171274211Y-86674024D01*
X171330493Y-86763594D01*
X171349500Y-86829567D01*
X171349500Y-87583828D01*
X171329815Y-87650867D01*
X171313181Y-87671509D01*
X170774075Y-88210615D01*
X170712752Y-88244100D01*
X170686394Y-88246934D01*
X169478138Y-88246934D01*
X169411099Y-88227249D01*
X169390457Y-88210615D01*
X166353080Y-85173238D01*
X166343007Y-85160664D01*
X166342820Y-85160820D01*
X166337847Y-85154809D01*
X166285402Y-85105560D01*
X166263681Y-85083839D01*
X166257886Y-85079344D01*
X166253444Y-85075549D01*
X166218042Y-85042304D01*
X166218034Y-85042298D01*
X166199438Y-85032075D01*
X166183177Y-85021394D01*
X166166409Y-85008387D01*
X166142941Y-84998232D01*
X166121824Y-84989093D01*
X166116602Y-84986536D01*
X166074014Y-84963123D01*
X166074011Y-84963122D01*
X166053447Y-84957842D01*
X166035042Y-84951540D01*
X166015573Y-84943115D01*
X166015567Y-84943113D01*
X165967597Y-84935516D01*
X165961882Y-84934332D01*
X165945418Y-84930105D01*
X165914826Y-84922250D01*
X165914823Y-84922250D01*
X165893601Y-84922250D01*
X165874201Y-84920723D01*
X165853242Y-84917403D01*
X165853241Y-84917403D01*
X165829432Y-84919653D01*
X165804876Y-84921975D01*
X165799038Y-84922250D01*
X162321454Y-84922250D01*
X162255482Y-84903244D01*
X162165908Y-84846960D01*
X162165904Y-84846959D01*
X161995648Y-84787383D01*
X161995635Y-84787380D01*
X161816390Y-84767185D01*
X161816382Y-84767185D01*
X161637136Y-84787380D01*
X161637131Y-84787381D01*
X161466862Y-84846961D01*
X161314123Y-84942934D01*
X161186570Y-85070487D01*
X161090597Y-85223226D01*
X161031017Y-85393495D01*
X161031016Y-85393500D01*
X161010821Y-85572746D01*
X161010821Y-85572753D01*
X161031016Y-85751999D01*
X161031017Y-85752004D01*
X161090597Y-85922273D01*
X161139750Y-86000499D01*
X161186570Y-86075012D01*
X161314124Y-86202566D01*
X161377290Y-86242256D01*
X161443139Y-86283632D01*
X161466864Y-86298539D01*
X161541065Y-86324503D01*
X161637131Y-86358118D01*
X161637136Y-86358119D01*
X161816382Y-86378315D01*
X161816386Y-86378315D01*
X161816390Y-86378315D01*
X161995635Y-86358119D01*
X161995637Y-86358118D01*
X161995641Y-86358118D01*
X161995644Y-86358116D01*
X161995648Y-86358116D01*
X162113844Y-86316757D01*
X162165908Y-86298539D01*
X162255482Y-86242255D01*
X162321454Y-86223250D01*
X165511838Y-86223250D01*
X165578877Y-86242935D01*
X165599519Y-86259569D01*
X168636894Y-89296944D01*
X168646965Y-89309514D01*
X168647152Y-89309360D01*
X168652126Y-89315371D01*
X168652128Y-89315374D01*
X168671584Y-89333644D01*
X168704573Y-89364624D01*
X168726297Y-89386347D01*
X168732087Y-89390839D01*
X168736527Y-89394631D01*
X168765828Y-89422145D01*
X168771937Y-89427882D01*
X168771939Y-89427883D01*
X168790535Y-89438106D01*
X168806800Y-89448791D01*
X168823562Y-89461794D01*
X168823565Y-89461795D01*
X168823566Y-89461796D01*
X168868153Y-89481090D01*
X168873389Y-89483655D01*
X168915962Y-89507061D01*
X168931670Y-89511093D01*
X168936516Y-89512338D01*
X168954928Y-89518641D01*
X168974403Y-89527069D01*
X169022401Y-89534671D01*
X169028070Y-89535845D01*
X169075153Y-89547934D01*
X169096381Y-89547934D01*
X169115778Y-89549460D01*
X169136733Y-89552779D01*
X169136734Y-89552780D01*
X169136734Y-89552779D01*
X169136735Y-89552780D01*
X169185091Y-89548209D01*
X169190929Y-89547934D01*
X170921697Y-89547934D01*
X170937707Y-89549701D01*
X170937730Y-89549460D01*
X170945491Y-89550192D01*
X170945498Y-89550194D01*
X171017405Y-89547934D01*
X171048127Y-89547934D01*
X171055392Y-89547015D01*
X171061218Y-89546556D01*
X171109771Y-89545031D01*
X171130158Y-89539107D01*
X171149198Y-89535165D01*
X171170260Y-89532505D01*
X171215437Y-89514617D01*
X171220937Y-89512734D01*
X171267600Y-89499178D01*
X171285867Y-89488373D01*
X171303338Y-89479814D01*
X171323073Y-89472002D01*
X171362379Y-89443444D01*
X171367245Y-89440247D01*
X171409067Y-89415515D01*
X171424072Y-89400509D01*
X171438870Y-89387870D01*
X171456039Y-89375397D01*
X171487011Y-89337956D01*
X171490925Y-89333655D01*
X172107920Y-88716660D01*
X176086891Y-88716660D01*
X176100697Y-88725335D01*
X176100701Y-88725337D01*
X176270858Y-88784877D01*
X176270861Y-88784878D01*
X176449997Y-88805062D01*
X176450003Y-88805062D01*
X176629138Y-88784878D01*
X176799307Y-88725333D01*
X176813107Y-88716661D01*
X176813107Y-88716660D01*
X177361891Y-88716660D01*
X177375697Y-88725335D01*
X177375701Y-88725337D01*
X177545858Y-88784877D01*
X177545861Y-88784878D01*
X177724997Y-88805062D01*
X177725003Y-88805062D01*
X177904138Y-88784878D01*
X178074307Y-88725333D01*
X178088107Y-88716661D01*
X178088107Y-88716660D01*
X177725001Y-88353553D01*
X177725000Y-88353553D01*
X177361891Y-88716660D01*
X176813107Y-88716660D01*
X176450001Y-88353553D01*
X176450000Y-88353553D01*
X176086891Y-88716660D01*
X172107920Y-88716660D01*
X172399513Y-88425067D01*
X172412079Y-88415001D01*
X172411925Y-88414814D01*
X172417937Y-88409840D01*
X172417937Y-88409839D01*
X172417940Y-88409838D01*
X172467190Y-88357391D01*
X172488911Y-88335671D01*
X172493401Y-88329881D01*
X172497183Y-88325451D01*
X172530448Y-88290029D01*
X172540674Y-88271426D01*
X172551353Y-88255169D01*
X172564362Y-88238400D01*
X172583656Y-88193811D01*
X172586212Y-88188592D01*
X172609627Y-88146004D01*
X172614905Y-88125442D01*
X172621207Y-88107035D01*
X172629635Y-88087563D01*
X172637233Y-88039589D01*
X172638414Y-88033883D01*
X172650500Y-87986813D01*
X172650500Y-87965585D01*
X172652027Y-87946185D01*
X172655346Y-87925231D01*
X172650775Y-87876874D01*
X172650500Y-87871036D01*
X172650500Y-87049000D01*
X172670185Y-86981961D01*
X172722989Y-86936206D01*
X172774500Y-86925000D01*
X174188856Y-86925000D01*
X174255895Y-86944685D01*
X174301650Y-86997489D01*
X174312076Y-87035117D01*
X174320937Y-87113771D01*
X174320938Y-87113776D01*
X174380518Y-87284045D01*
X174424193Y-87353553D01*
X174476491Y-87436784D01*
X174604045Y-87564338D01*
X174756785Y-87660311D01*
X174927052Y-87719890D01*
X175007586Y-87728963D01*
X175069185Y-87753805D01*
X175193944Y-87849536D01*
X175340023Y-87910044D01*
X175496785Y-87930682D01*
X175509815Y-87928966D01*
X175578848Y-87939730D01*
X175631105Y-87986109D01*
X175649221Y-88038021D01*
X175665121Y-88179138D01*
X175665122Y-88179141D01*
X175724662Y-88349298D01*
X175724667Y-88349308D01*
X175733338Y-88363108D01*
X176134628Y-87961819D01*
X176195951Y-87928334D01*
X176222309Y-87925500D01*
X176291092Y-87925500D01*
X176271077Y-87978275D01*
X176281475Y-88063913D01*
X176330481Y-88134909D01*
X176406866Y-88175000D01*
X176471247Y-88175000D01*
X176533760Y-88159592D01*
X176598332Y-88102386D01*
X176628923Y-88021725D01*
X176618525Y-87936087D01*
X176611217Y-87925500D01*
X176677691Y-87925500D01*
X176744730Y-87945185D01*
X176765372Y-87961819D01*
X177087500Y-88283947D01*
X177409628Y-87961819D01*
X177470951Y-87928334D01*
X177497309Y-87925500D01*
X177566092Y-87925500D01*
X177546077Y-87978275D01*
X177556475Y-88063913D01*
X177605481Y-88134909D01*
X177681866Y-88175000D01*
X177746247Y-88175000D01*
X177808760Y-88159592D01*
X177873332Y-88102386D01*
X177903923Y-88021725D01*
X177893525Y-87936087D01*
X177886217Y-87925500D01*
X177952691Y-87925500D01*
X178019730Y-87945185D01*
X178040372Y-87961819D01*
X178362500Y-88283947D01*
X178684628Y-87961819D01*
X178745951Y-87928334D01*
X178772309Y-87925500D01*
X178841092Y-87925500D01*
X178821077Y-87978275D01*
X178831475Y-88063913D01*
X178880481Y-88134909D01*
X178956866Y-88175000D01*
X179021247Y-88175000D01*
X179083760Y-88159592D01*
X179148332Y-88102386D01*
X179178923Y-88021725D01*
X179168664Y-87937237D01*
X179195730Y-87945185D01*
X179241485Y-87997989D01*
X179251429Y-88067147D01*
X179222404Y-88130703D01*
X179216372Y-88137181D01*
X178636891Y-88716660D01*
X178650697Y-88725335D01*
X178650701Y-88725337D01*
X178680356Y-88735714D01*
X178737132Y-88776436D01*
X178762880Y-88841388D01*
X178749424Y-88909950D01*
X178727083Y-88940437D01*
X176082657Y-91584865D01*
X176021334Y-91618350D01*
X175994976Y-91621184D01*
X160700917Y-91621184D01*
X160633878Y-91601499D01*
X160613236Y-91584865D01*
X160345001Y-91316630D01*
X160074456Y-91046085D01*
X160069116Y-91039995D01*
X160047418Y-91011718D01*
X159921977Y-90915464D01*
X159775898Y-90854956D01*
X159775896Y-90854955D01*
X159658497Y-90839500D01*
X159619136Y-90834318D01*
X159583806Y-90838969D01*
X159575708Y-90839500D01*
X152982412Y-90839500D01*
X152915373Y-90819815D01*
X152905097Y-90812445D01*
X152902263Y-90810185D01*
X152902262Y-90810184D01*
X152823149Y-90760474D01*
X152749523Y-90714211D01*
X152579254Y-90654631D01*
X152579249Y-90654630D01*
X152400004Y-90634435D01*
X152399996Y-90634435D01*
X152220750Y-90654630D01*
X152220745Y-90654631D01*
X152050476Y-90714211D01*
X151897737Y-90810184D01*
X151770184Y-90937737D01*
X151674211Y-91090476D01*
X151614631Y-91260745D01*
X151614630Y-91260750D01*
X151594435Y-91439996D01*
X151594435Y-91440003D01*
X151614630Y-91619249D01*
X151614631Y-91619254D01*
X151674211Y-91789523D01*
X151752321Y-91913833D01*
X151770184Y-91942262D01*
X151897738Y-92069816D01*
X152050478Y-92165789D01*
X152146067Y-92199237D01*
X152220745Y-92225368D01*
X152220750Y-92225369D01*
X152399996Y-92245565D01*
X152400000Y-92245565D01*
X152400004Y-92245565D01*
X152579249Y-92225369D01*
X152579252Y-92225368D01*
X152579255Y-92225368D01*
X152749522Y-92165789D01*
X152902262Y-92069816D01*
X152902267Y-92069810D01*
X152905097Y-92067555D01*
X152907275Y-92066665D01*
X152908158Y-92066111D01*
X152908255Y-92066265D01*
X152969783Y-92041145D01*
X152982412Y-92040500D01*
X159319039Y-92040500D01*
X159386078Y-92060185D01*
X159406720Y-92076819D01*
X159945489Y-92615588D01*
X159950840Y-92621689D01*
X159972538Y-92649966D01*
X160039661Y-92701471D01*
X160097979Y-92746220D01*
X160097981Y-92746220D01*
X160097983Y-92746222D01*
X160171018Y-92776474D01*
X160244058Y-92806728D01*
X160322439Y-92817047D01*
X160400819Y-92827366D01*
X160400820Y-92827366D01*
X160436149Y-92822714D01*
X160444248Y-92822184D01*
X175529219Y-92822184D01*
X175596258Y-92841869D01*
X175642013Y-92894673D01*
X175651957Y-92963831D01*
X175622932Y-93027387D01*
X175616900Y-93033865D01*
X175486584Y-93164181D01*
X175425261Y-93197666D01*
X175398903Y-93200500D01*
X114082412Y-93200500D01*
X114015373Y-93180815D01*
X114005097Y-93173445D01*
X114002263Y-93171185D01*
X114002262Y-93171184D01*
X113900528Y-93107260D01*
X113849523Y-93075211D01*
X113679254Y-93015631D01*
X113679249Y-93015630D01*
X113500004Y-92995435D01*
X113499996Y-92995435D01*
X113320750Y-93015630D01*
X113320745Y-93015631D01*
X113150476Y-93075211D01*
X112997737Y-93171184D01*
X112870184Y-93298737D01*
X112774208Y-93451480D01*
X112748175Y-93525880D01*
X112707453Y-93582656D01*
X112642500Y-93608403D01*
X112617251Y-93608145D01*
X112500004Y-93594935D01*
X112499996Y-93594935D01*
X112320750Y-93615130D01*
X112320745Y-93615131D01*
X112150476Y-93674711D01*
X111997737Y-93770684D01*
X111870184Y-93898237D01*
X111774211Y-94050976D01*
X111714631Y-94221245D01*
X111714630Y-94221249D01*
X111706954Y-94289384D01*
X111679887Y-94353798D01*
X111622293Y-94393353D01*
X111583734Y-94399500D01*
X102082412Y-94399500D01*
X102015373Y-94379815D01*
X102005097Y-94372445D01*
X102002263Y-94370185D01*
X102002262Y-94370184D01*
X101873670Y-94289384D01*
X101849523Y-94274211D01*
X101679254Y-94214631D01*
X101679249Y-94214630D01*
X101500004Y-94194435D01*
X101499996Y-94194435D01*
X101320750Y-94214630D01*
X101320745Y-94214631D01*
X101150476Y-94274211D01*
X100997737Y-94370184D01*
X100870184Y-94497737D01*
X100774211Y-94650476D01*
X100714631Y-94820745D01*
X100714630Y-94820750D01*
X100694435Y-94999996D01*
X100694435Y-95000003D01*
X100714630Y-95179249D01*
X100714633Y-95179262D01*
X100774209Y-95349520D01*
X100827309Y-95434029D01*
X100846309Y-95501266D01*
X100827309Y-95565971D01*
X100774209Y-95650479D01*
X100714633Y-95820737D01*
X100714630Y-95820750D01*
X100694435Y-95999996D01*
X100694435Y-96000003D01*
X95406718Y-96000003D01*
X95394241Y-95977428D01*
X95352511Y-95901921D01*
X95311145Y-95820737D01*
X95279388Y-95758412D01*
X95277358Y-95754007D01*
X95216122Y-95606170D01*
X95158769Y-95456759D01*
X95157082Y-95451724D01*
X95112420Y-95296702D01*
X95080950Y-95179255D01*
X95071453Y-95143811D01*
X95070226Y-95138194D01*
X95042601Y-94975606D01*
X95018465Y-94823212D01*
X95017803Y-94817027D01*
X95007490Y-94633382D01*
X95000584Y-94501620D01*
X95000500Y-94498377D01*
X95000500Y-93647870D01*
X101899500Y-93647870D01*
X101899501Y-93647876D01*
X101905908Y-93707483D01*
X101956202Y-93842328D01*
X101956206Y-93842335D01*
X102042452Y-93957544D01*
X102042455Y-93957547D01*
X102157664Y-94043793D01*
X102157671Y-94043797D01*
X102292517Y-94094091D01*
X102292516Y-94094091D01*
X102299444Y-94094835D01*
X102352127Y-94100500D01*
X105647872Y-94100499D01*
X105707483Y-94094091D01*
X105842331Y-94043796D01*
X105957546Y-93957546D01*
X106043796Y-93842331D01*
X106094091Y-93707483D01*
X106100500Y-93647873D01*
X106100499Y-91552128D01*
X106094091Y-91492517D01*
X106090099Y-91481815D01*
X106043797Y-91357671D01*
X106043793Y-91357664D01*
X105957547Y-91242455D01*
X105957544Y-91242452D01*
X105842335Y-91156206D01*
X105842328Y-91156202D01*
X105707482Y-91105908D01*
X105707483Y-91105908D01*
X105647883Y-91099501D01*
X105647881Y-91099500D01*
X105647873Y-91099500D01*
X105647864Y-91099500D01*
X102352129Y-91099500D01*
X102352123Y-91099501D01*
X102292516Y-91105908D01*
X102157671Y-91156202D01*
X102157664Y-91156206D01*
X102042455Y-91242452D01*
X102042452Y-91242455D01*
X101956206Y-91357664D01*
X101956202Y-91357671D01*
X101905908Y-91492517D01*
X101899501Y-91552116D01*
X101899501Y-91552123D01*
X101899500Y-91552135D01*
X101899500Y-93647870D01*
X95000500Y-93647870D01*
X95000500Y-89500005D01*
X95494357Y-89500005D01*
X95514890Y-89747812D01*
X95514892Y-89747824D01*
X95575936Y-89988881D01*
X95675826Y-90216606D01*
X95811833Y-90424782D01*
X95811836Y-90424785D01*
X95980256Y-90607738D01*
X96176491Y-90760474D01*
X96176493Y-90760475D01*
X96351076Y-90854955D01*
X96395190Y-90878828D01*
X96630386Y-90959571D01*
X96875665Y-91000500D01*
X97124335Y-91000500D01*
X97369614Y-90959571D01*
X97604810Y-90878828D01*
X97823509Y-90760474D01*
X98019744Y-90607738D01*
X98188164Y-90424785D01*
X98324173Y-90216607D01*
X98424063Y-89988881D01*
X98485108Y-89747821D01*
X98501545Y-89549460D01*
X98505643Y-89500005D01*
X98505643Y-89499994D01*
X98485109Y-89252187D01*
X98485107Y-89252175D01*
X98424063Y-89011118D01*
X98324173Y-88783393D01*
X98188166Y-88575217D01*
X98166557Y-88551744D01*
X98019744Y-88392262D01*
X97823509Y-88239526D01*
X97823507Y-88239525D01*
X97823506Y-88239524D01*
X97604811Y-88121172D01*
X97604802Y-88121169D01*
X97369616Y-88040429D01*
X97124335Y-87999500D01*
X96875665Y-87999500D01*
X96630383Y-88040429D01*
X96395197Y-88121169D01*
X96395188Y-88121172D01*
X96176493Y-88239524D01*
X95980257Y-88392261D01*
X95811833Y-88575217D01*
X95675826Y-88783393D01*
X95575936Y-89011118D01*
X95514892Y-89252175D01*
X95514890Y-89252187D01*
X95494357Y-89499994D01*
X95494357Y-89500005D01*
X95000500Y-89500005D01*
X95000500Y-84500005D01*
X95494357Y-84500005D01*
X95514890Y-84747812D01*
X95514892Y-84747824D01*
X95575936Y-84988881D01*
X95675826Y-85216606D01*
X95811833Y-85424782D01*
X95811836Y-85424785D01*
X95980256Y-85607738D01*
X96176491Y-85760474D01*
X96395190Y-85878828D01*
X96630386Y-85959571D01*
X96875665Y-86000500D01*
X97124335Y-86000500D01*
X97369614Y-85959571D01*
X97604810Y-85878828D01*
X97823509Y-85760474D01*
X98019744Y-85607738D01*
X98188164Y-85424785D01*
X98324173Y-85216607D01*
X98424063Y-84988881D01*
X98485108Y-84747821D01*
X98491961Y-84665121D01*
X98505643Y-84500005D01*
X109994357Y-84500005D01*
X110014890Y-84747812D01*
X110014892Y-84747824D01*
X110075936Y-84988881D01*
X110175826Y-85216606D01*
X110311833Y-85424782D01*
X110311836Y-85424785D01*
X110480256Y-85607738D01*
X110480259Y-85607740D01*
X110480262Y-85607743D01*
X110581374Y-85686442D01*
X110622187Y-85743152D01*
X110626300Y-85772748D01*
X111367466Y-86513913D01*
X111357685Y-86515320D01*
X111226900Y-86575048D01*
X111118239Y-86669202D01*
X111040507Y-86790156D01*
X111016923Y-86870475D01*
X110276564Y-86130116D01*
X110176267Y-86283632D01*
X110076412Y-86511282D01*
X110015387Y-86752261D01*
X110015385Y-86752270D01*
X109994859Y-86999994D01*
X109994859Y-87000005D01*
X110015385Y-87247729D01*
X110015387Y-87247738D01*
X110076412Y-87488717D01*
X110176267Y-87716367D01*
X110288484Y-87888129D01*
X110308672Y-87955018D01*
X110289491Y-88022204D01*
X110258987Y-88055216D01*
X110142452Y-88142455D01*
X110056206Y-88257664D01*
X110056202Y-88257671D01*
X110005908Y-88392517D01*
X109999501Y-88452116D01*
X109999501Y-88452123D01*
X109999500Y-88452135D01*
X109999500Y-90547870D01*
X109999501Y-90547876D01*
X110005908Y-90607483D01*
X110056202Y-90742328D01*
X110056206Y-90742335D01*
X110142452Y-90857544D01*
X110142455Y-90857547D01*
X110257664Y-90943793D01*
X110257671Y-90943797D01*
X110392517Y-90994091D01*
X110392516Y-90994091D01*
X110399444Y-90994835D01*
X110452127Y-91000500D01*
X112547872Y-91000499D01*
X112607483Y-90994091D01*
X112742331Y-90943796D01*
X112857546Y-90857546D01*
X112943796Y-90742331D01*
X112994091Y-90607483D01*
X113000500Y-90547873D01*
X113000499Y-88452128D01*
X112994091Y-88392517D01*
X112993995Y-88392260D01*
X112943797Y-88257671D01*
X112943793Y-88257664D01*
X112881910Y-88175000D01*
X112857546Y-88142454D01*
X112742331Y-88056204D01*
X112742329Y-88056203D01*
X112741012Y-88055217D01*
X112699141Y-87999283D01*
X112694157Y-87929591D01*
X112711515Y-87888128D01*
X112823731Y-87716369D01*
X112923587Y-87488717D01*
X112984612Y-87247738D01*
X112984614Y-87247729D01*
X113005141Y-87000005D01*
X113005141Y-86999994D01*
X112984614Y-86752270D01*
X112984612Y-86752261D01*
X112923587Y-86511282D01*
X112823731Y-86283630D01*
X112723434Y-86130116D01*
X111983076Y-86870474D01*
X111959493Y-86790156D01*
X111881761Y-86669202D01*
X111773100Y-86575048D01*
X111642315Y-86515320D01*
X111632534Y-86513913D01*
X112375898Y-85770548D01*
X112386515Y-85723852D01*
X112418621Y-85686444D01*
X112519744Y-85607738D01*
X112688164Y-85424785D01*
X112824173Y-85216607D01*
X112924063Y-84988881D01*
X112985108Y-84747821D01*
X112991961Y-84665121D01*
X113005643Y-84500005D01*
X113005643Y-84499994D01*
X112985109Y-84252187D01*
X112985107Y-84252175D01*
X112924063Y-84011118D01*
X112824173Y-83783393D01*
X112688166Y-83575217D01*
X112632393Y-83514632D01*
X112519744Y-83392262D01*
X112323509Y-83239526D01*
X112323507Y-83239525D01*
X112323506Y-83239524D01*
X112104811Y-83121172D01*
X112104802Y-83121169D01*
X111869616Y-83040429D01*
X111624335Y-82999500D01*
X111375665Y-82999500D01*
X111130383Y-83040429D01*
X110895197Y-83121169D01*
X110895188Y-83121172D01*
X110676493Y-83239524D01*
X110480257Y-83392261D01*
X110311833Y-83575217D01*
X110175826Y-83783393D01*
X110075936Y-84011118D01*
X110014892Y-84252175D01*
X110014890Y-84252187D01*
X109994357Y-84499994D01*
X109994357Y-84500005D01*
X98505643Y-84500005D01*
X98505643Y-84499994D01*
X98485109Y-84252187D01*
X98485107Y-84252175D01*
X98424063Y-84011118D01*
X98324173Y-83783393D01*
X98188166Y-83575217D01*
X98132393Y-83514632D01*
X98019744Y-83392262D01*
X97823509Y-83239526D01*
X97823507Y-83239525D01*
X97823506Y-83239524D01*
X97604811Y-83121172D01*
X97604802Y-83121169D01*
X97369616Y-83040429D01*
X97124335Y-82999500D01*
X96875665Y-82999500D01*
X96630383Y-83040429D01*
X96395197Y-83121169D01*
X96395188Y-83121172D01*
X96176493Y-83239524D01*
X95980257Y-83392261D01*
X95811833Y-83575217D01*
X95675826Y-83783393D01*
X95575936Y-84011118D01*
X95514892Y-84252175D01*
X95514890Y-84252187D01*
X95494357Y-84499994D01*
X95494357Y-84500005D01*
X95000500Y-84500005D01*
X95000500Y-83001622D01*
X95000585Y-82998376D01*
X95007497Y-82866486D01*
X95017803Y-82682968D01*
X95018464Y-82676791D01*
X95042611Y-82524331D01*
X95045474Y-82507483D01*
X95070227Y-82361796D01*
X95071451Y-82356196D01*
X95112425Y-82203279D01*
X95157083Y-82048268D01*
X95158764Y-82043254D01*
X95216127Y-81893815D01*
X95277366Y-81745972D01*
X95279379Y-81741606D01*
X95352511Y-81598078D01*
X95359688Y-81585090D01*
X95429655Y-81458494D01*
X95431867Y-81454808D01*
X95519980Y-81319127D01*
X95534130Y-81299182D01*
X95612154Y-81189220D01*
X95614486Y-81186143D01*
X95715655Y-81061209D01*
X95717537Y-81058998D01*
X95822773Y-80941239D01*
X95825092Y-80938787D01*
X95938787Y-80825092D01*
X95941239Y-80822773D01*
X96058998Y-80717537D01*
X96061209Y-80715655D01*
X96186143Y-80614486D01*
X96189220Y-80612154D01*
X96319127Y-80519980D01*
X96329046Y-80513537D01*
X96454808Y-80431867D01*
X96458494Y-80429655D01*
X96598078Y-80352511D01*
X96618787Y-80341959D01*
X96741606Y-80279379D01*
X96745972Y-80277366D01*
X96893815Y-80216127D01*
X97043254Y-80158764D01*
X97048268Y-80157083D01*
X97203279Y-80112425D01*
X97356196Y-80071451D01*
X97361796Y-80070227D01*
X97524284Y-80042618D01*
X97676791Y-80018464D01*
X97682968Y-80017803D01*
X97866566Y-80007493D01*
X97998380Y-80000584D01*
X98001622Y-80000500D01*
X101836231Y-80000500D01*
X101903270Y-80020185D01*
X101949025Y-80072989D01*
X101958969Y-80142147D01*
X101952413Y-80167833D01*
X101905908Y-80292517D01*
X101900593Y-80341959D01*
X101899501Y-80352123D01*
X101899500Y-80352135D01*
X101899500Y-82447870D01*
X101899501Y-82447876D01*
X101905908Y-82507483D01*
X101956202Y-82642328D01*
X101956206Y-82642335D01*
X102042452Y-82757544D01*
X102042455Y-82757547D01*
X102157664Y-82843793D01*
X102157671Y-82843797D01*
X102292517Y-82894091D01*
X102292516Y-82894091D01*
X102299444Y-82894835D01*
X102352127Y-82900500D01*
X105647872Y-82900499D01*
X105707483Y-82894091D01*
X105842331Y-82843796D01*
X105957546Y-82757546D01*
X106043796Y-82642331D01*
X106094091Y-82507483D01*
X106100500Y-82447873D01*
X106100499Y-80352128D01*
X106094091Y-80292517D01*
X106089196Y-80279394D01*
X106047587Y-80167833D01*
X106042603Y-80098141D01*
X106076088Y-80036818D01*
X106137411Y-80003334D01*
X106163769Y-80000500D01*
X142607317Y-80000500D01*
X142607318Y-80000500D01*
X142777851Y-79975980D01*
X142819764Y-79969955D01*
X142819765Y-79969954D01*
X142819769Y-79969954D01*
X143025710Y-79909484D01*
X143025713Y-79909482D01*
X143025715Y-79909482D01*
X143220938Y-79820327D01*
X143220944Y-79820323D01*
X143220950Y-79820321D01*
X143401513Y-79704281D01*
X143563724Y-79563724D01*
X143704281Y-79401513D01*
X143820321Y-79220950D01*
X143820323Y-79220944D01*
X143820327Y-79220938D01*
X143909482Y-79025715D01*
X143909482Y-79025713D01*
X143909484Y-79025710D01*
X143969954Y-78819769D01*
X144000500Y-78607318D01*
X144000500Y-78500000D01*
X144000500Y-78499500D01*
X144000500Y-74002212D01*
X144000658Y-73997788D01*
X144005492Y-73930203D01*
X144017049Y-73783360D01*
X144018276Y-73775045D01*
X144018277Y-73775044D01*
X144029169Y-73724971D01*
X144038902Y-73680231D01*
X144050971Y-73629961D01*
X144066860Y-73563774D01*
X144069051Y-73556598D01*
X144104986Y-73460252D01*
X144128801Y-73402758D01*
X144172641Y-73348357D01*
X144238935Y-73326292D01*
X144306634Y-73343571D01*
G37*
G04 #@! TD.AperFunction*
M02*
